#N canvas 87 178 1172 768 10;
#X declare -path patch_editor_abs;
#X obj 13 701 declare -path patch_editor_abs;
#N canvas 799 66 960 874 patch-editor-do-not-delete 1;
#X msg 26 128 \; pd dsp 0;
#X obj 26 34 loadbang;
#X obj 26 103 delay 1;
#X obj 26 56 t b b;
#X msg 88 128 \; pd dsp 1;
#X obj 89 6 key;
#X obj 89 50 s SAVE-R;
#X obj 89 28 sel 10;
#X obj 189 107 loadbang;
#X msg 189 150 \; pd-modules vis 1;
#N canvas 0 23 766 653 upper-left-menu+manual 0;
#X msg 36 85 \; pd-quick-guide vis \$1;
#X obj 36 41 r open-quick-guide!;
#X msg 36 63 1;
#N canvas 0 23 787 718 quick-guide 0;
#X obj 389 524 cnv 15 375 125 empty empty empty 20 12 0 14 -226533
-66577 0;
#X obj 392 389 cnv 15 375 125 empty empty empty 20 12 0 14 -150893
-66577 0;
#X obj 17 17 cnv 15 750 60 empty empty Welcome_to_AUTOMATONISM:_Making_Music_with_Self-playing_Machines
20 12 0 14 -150893 -262144 0;
#X text 19 86 FOLLOW THESE SIMPLE STEPS TO GET STARTED:;
#X text 19 127 1 When starting the AUTOMATONISM you'll see a list of
all current available modules to the right. Click the button to the
left of the module you want to load and it will appear to the left
in the parent window. The module list will then disappear. To call
back the module list you can click the grey link in the upper left
called "MODULES(esc) or simply upress "esc" on your keyboard;
#X text 19 246 2 Create a BASIC-OSC from the module list.;
#X text 20 422 4 Pure Data has an EDIT MODE and a PERFORMANCE MODE.
To make patch connections between objects we need to be in EDIT MODE
and to interact with the GUI we need to be in PERFORMANCE MODE. Toggle
between the two modes with cmd+e.;
#X text 19 312 3 Open the module list and create the module in the
lower right corner called MAESTRO4(dac~). This is the digital-to-analog-converter
and is one of the modules that passes on sound to your speakers. Now
you can soon make a sound.;
#X text 19 519 5 All inputs are at the top of the modules and all outputs
are at the bottom. In EDIT MODE \, connect the BASIC-OSC's output CH1
on the MAESTRO4. Now \, you should have sound. Switch to PERFORMANCE
MODE and use the mouse to move the PITCH slider on the BASIC-OSC module.
;
#X text 20 622 6 Right click on any module and choose HELP to read
more about a module's functions.;
#X text 404 125 7 To save parameter states on each module \, you have
to save the pd file \, like you normally would do from the FILE menu
or cmd+s \, and then click the grey SAVE! canvas in the left bottom
corner(or simply press ENTER on your keyboard) and you'll see the canvas
change color from grey to green for a brief moment. All parameter values
are now written to textfiles and can be loaded to the equivalent module
and instance number next time the patch is loaded.;
#X text 404 245 8 You can call modules without using the module list
simply by creating a new object in pd and type the module's name. For
the state saving mechanism to work properly you do need to give the
module a unique numerical argument. Type "basic-osc 1" for an oscillator
and "basic-osc 2" if you need another one. By using the MODULES list
this unique numbering is done automatically for you. Use the RESET
link in the upper left corner when starting a new patch as this will
reset the counter of unique numbers for modules.;
#X text 397 403 9 IMPORTANT!!! In order for Automatonism to work properly
\, each patch needs to contain the correct folder structure. A folder--that
you can name freely--must contain the folder "patch_editor_abs" and
the pd-file "main.pd". Copy the entire main parent folder to start
a new project. Please do not add the abstractions to your PD Search
path \, because the state svaing system will be writing textfiles in
your external folders.;
#X text 391 534 ABOUT RESET BUTTON: Only use the RESET button when
your canvas is empty. If you click it in the middle of a patch \, modules
will start getting identical state saving numbers to already existing
modules. In other words \, if you click it in the middle of a patch
\, state saving WILL NOT WORK! The RESET button is there for when you
start over \, and perhaps do not want to create "BASIC-OSC 99" \, but
start from zero for a clearer view of the patch.;
#X text 33 42 RIGHT+CLICK & CHOOSE 'HELP' ON ANY MODULE!;
#X restore 36 18 pd quick-guide;
#X msg 38 178 1;
#X obj 38 156 r open-signal-flow!;
#X msg 38 203 \; pd-signal-flow vis \$1;
#N canvas 416 23 852 668 signal-flow 0;
#X obj 22 10 cnv 15 365 30 empty empty SIGNAL-FLOW 20 12 0 14 -226533
-262144 0;
#X obj 26 161 hsl 128 15 0 127 0 0 empty empty empty -2 -8 0 10 -158136
-262144 -1 0 1;
#X obj 24 214 hsl 128 15 0 127 0 0 empty empty empty -2 -8 0 10 -150893
-1 -1 0 1;
#X obj 21 281 cnv 5 5 5 empty empty CLOCK-IN 0 0 0 8 -262144 -226533
0;
#X text 17 328 All inputs and outputs in the editor are at signal rate
within the range of -1 to 1 In contrast to normal pd-programming there
is no distinction between control rate and signal rate messages. Everything
is converted to signal rate.;
#X msg 20 439 bang;
#X msg 20 461 1 0 \, 0 1 1;
#X obj 20 483 vline~;
#X msg 23 535 bang;
#X msg 23 557 1 0 \, 0 1 1;
#X obj 23 579 vline~;
#X msg 23 623 bang;
#X text 19 404 How to convert a simple bang to a trigger/gate signal
in the patch editor:;
#X obj 23 601 threshold~ 0.99 0 1 0;
#X text 21 518 How to convert back to a control rate bang:;
#X obj 404 569 hsl 128 15 0 127 0 0 empty empty empty -2 -8 0 10 -262144
-1 -1 0 1;
#X obj 401 589 / 127;
#X obj 401 611 sig~;
#X text 398 534 How convert control numbers to the patch editor's signal
flow:;
#X text 541 568 0-127;
#X text 21 178 Purple sliders and inlets means the slider will function
as an attenuator for incoming CV.;
#X text 21 48 There are three types of signals in the patch editor:
audio \, cv and trigger/gate/pulse/clock. The latter are marked with
PINK inlets and outlets. General rule in the patch editor is that all
connections are possible. Or \, at least \, just like in any hardware
modular system - all connections might not work but there's no harm
in trying. ! ! The patch-editor uses color-coding to clarify the signal
flow as much as possible.;
#X text 18 287 And pink inlets means the input is expecting a trigger/gate
signal to function properly.;
#X text 19 230 Green sliders and inlets tells you that the parameter
is bi-polar \, most oftenly working as an attenueverter for incoming
CV.;
#X connect 5 0 6 0;
#X connect 6 0 7 0;
#X connect 8 0 9 0;
#X connect 9 0 10 0;
#X connect 10 0 13 0;
#X connect 13 0 11 0;
#X connect 15 0 16 0;
#X connect 16 0 17 0;
#X restore 39 134 pd signal-flow;
#X msg 36 288 1;
#N canvas 138 156 591 276 color-code 0;
#X obj 140 39 hsl 128 15 0 127 0 0 empty empty empty -2 -8 0 10 -158136
-262144 -1 0 1;
#X obj 140 100 hsl 128 15 0 127 0 0 empty empty empty -2 -8 0 10 -150893
-1 -1 0 1;
#X obj 137 175 cnv 5 5 5 empty empty CLOCK-IN 0 0 0 8 -262144 -226533
0;
#X text 134 56 Purple sliders and inlets means the slider will function
as an attenuator for incoming CV.;
#X text 133 117 Green sliders and inlets tells you that the parameter
is bi-polar \, most oftenly working as an attenueverter for incoming
CV.;
#X text 135 181 And pink inlets means the input is expecting a trigger/gate
signal or short impulse(square-wave) to function properly.;
#X restore 37 244 pd color-code;
#X obj 36 266 r open-color-code!;
#X msg 36 313 \; pd-color-code vis \$1;
#X msg 37 404 1;
#N canvas 7 24 377 372 manual 0;
#X obj 28 82 bng 30 250 50 0 open-signal-flow! empty empty 10 7 0 10
-158136 -1 -262144;
#X obj 49 82 bng 30 250 50 0 open-signal-flow! empty empty 17 7 0 10
-262144 -1 -1;
#X obj 78 82 bng 30 250 50 0 open-signal-flow! empty empty 17 7 0 10
-262144 -1 -1;
#X obj 109 82 bng 30 250 50 0 open-signal-flow! empty empty 17 7 0
10 -262144 -1 -1;
#X obj 79 82 cnv 15 60 30 empty empty FLOW 6 12 0 14 -233017 -66577
0;
#X obj 18 82 cnv 15 60 30 empty empty SIGNAL 18 12 0 14 -233017 -66577
0;
#X obj 17 12 cnv 15 320 60 empty empty WELCOME-TO-THE-AUTOMATONISM-MANUAL!
20 12 0 14 -150893 -262144 0;
#X obj 19 119 bng 30 250 50 0 open-color-code! empty empty 17 7 0 10
-262144 -1 -1;
#X obj 49 119 bng 30 250 50 0 open-color-code! empty empty 17 7 0 10
-262144 -1 -1;
#X obj 79 119 bng 30 250 50 0 open-color-code! empty empty 17 7 0 10
-262144 -1 -1;
#X obj 109 119 bng 30 250 50 0 open-color-code! empty empty 17 7 0
10 -262144 -1 -1;
#X obj 79 119 cnv 15 60 30 empty empty CODE 6 12 0 14 -233017 -66577
0;
#X obj 18 119 cnv 15 60 30 empty empty COLOR 18 12 0 14 -233017 -66577
0;
#X obj 19 196 bng 30 250 50 0 open-help-files! empty empty 17 7 0 10
-262144 -1 -1;
#X obj 18 157 bng 30 250 50 0 open-state-saving! empty empty 17 7 0
10 -262144 -1 -1;
#X obj 48 157 bng 30 250 50 0 open-state-saving! empty empty 17 7 0
10 -262144 -1 -1;
#X obj 78 157 bng 30 250 50 0 open-state-saving! empty empty 17 7 0
10 -262144 -1 -1;
#X obj 108 157 bng 30 250 50 0 open-state-saving! empty empty 17 7
0 10 -262144 -1 -1;
#X obj 79 157 cnv 15 60 30 empty empty SAVING 6 12 0 14 -233017 -66577
0;
#X obj 18 157 cnv 15 60 30 empty empty STATE 18 12 0 14 -233017 -66577
0;
#X obj 49 196 bng 30 250 50 0 open-help-files! empty empty 17 7 0 10
-262144 -1 -1;
#X obj 94 196 bng 30 250 50 0 open-help-files! empty empty 17 7 0 10
-262144 -1 -1;
#X obj 109 196 bng 30 250 50 0 open-help-files! empty empty 17 7 0
10 -262144 -1 -1;
#X obj 79 196 cnv 15 60 30 empty empty FILES 6 12 0 14 -233017 -66577
0;
#X obj 18 196 cnv 15 60 30 empty empty HELP 18 12 0 14 -233017 -66577
0;
#X obj 19 232 bng 30 250 50 0 open-folder-hierarchy! empty empty 17
7 0 10 -262144 -1 -1;
#X obj 49 232 bng 30 250 50 0 open-folder-hierarchy! empty empty 17
7 0 10 -262144 -1 -1;
#X obj 79 232 bng 30 250 50 0 open-folder-hierarchy! empty empty 17
7 0 10 -262144 -1 -1;
#X obj 139 232 bng 30 250 50 0 open-folder-hierarchy! empty empty 17
7 0 10 -262144 -1 -1;
#X obj 109 232 bng 30 250 50 0 open-folder-hierarchy! empty empty 17
7 0 10 -262144 -1 -1;
#X obj 78 232 cnv 15 100 30 empty empty HIERARCHY 20 12 0 14 -233017
-66577 0;
#X obj 17 232 cnv 15 60 30 empty empty FOLDER 18 12 0 14 -233017 -66577
0;
#X obj 46 268 bng 30 250 50 0 open-feedback-loops! empty empty 17 7
0 10 -262144 -1 -1;
#X obj 46 304 bng 30 250 50 0 open-license! empty empty 17 7 0 10 -262144
-1 -1;
#X obj 16 268 bng 30 250 50 0 open-feedback-loops! empty empty 17 7
0 10 -262144 -1 -1;
#X obj 106 268 bng 30 250 50 0 open-feedback-loops! empty empty 17
7 0 10 -262144 -1 -1;
#X obj 76 268 bng 30 250 50 0 open-feedback-loops! empty empty 17 7
0 10 -262144 -1 -1;
#X obj 166 268 bng 30 250 50 0 open-feedback-loops! empty empty 17
7 0 10 -262144 -1 -1;
#X obj 136 268 bng 30 250 50 0 open-feedback-loops! empty empty 17
7 0 10 -262144 -1 -1;
#X obj 16 268 cnv 15 180 30 empty empty FEEDBACK-&-DSP-LOOPS 18 12
0 14 -233017 -66577 0;
#X obj 16 304 bng 30 250 50 0 open-license! empty empty 17 7 0 10 -262144
-1 -1;
#X obj 106 304 bng 30 250 50 0 open-license! empty empty 17 7 0 10
-262144 -1 -1;
#X obj 76 304 bng 30 250 50 0 open-license! empty empty 17 7 0 10 -262144
-1 -1;
#X obj 16 304 cnv 15 120 30 empty empty LICENSE 18 12 0 14 -233017
-66577 0;
#X obj 154 81 bng 30 250 50 0 open-external-msg! empty empty 10 7 0
10 -158136 -1 -262144;
#X obj 184 81 bng 30 250 50 0 open-external-msg! empty empty 17 7 0
10 -262144 -1 -1;
#X obj 213 81 bng 30 250 50 0 open-external-msg! empty empty 17 7 0
10 -262144 -1 -1;
#X obj 273 81 bng 30 250 50 0 open-external-msg! empty empty 17 7 0
10 -262144 -1 -1;
#X obj 243 81 bng 30 250 50 0 open-external-msg! empty empty 17 7 0
10 -262144 -1 -1;
#X obj 152 81 cnv 15 120 30 empty empty EXTERNAL 18 12 0 14 -233017
-66577 0;
#X obj 237 81 cnv 15 80 30 empty empty MESSAGES 6 12 0 14 -233017 -66577
0;
#X restore 37 358 pd manual;
#X msg 37 429 \; pd-manual vis \$1;
#X obj 37 382 r open-manual!;
#X msg 34 547 1;
#X obj 34 526 r open-state-saving!;
#X msg 34 571 \; pd-state-saving vis \$1;
#N canvas 236 34 420 357 state-saving 0;
#X obj 17 12 cnv 15 400 60 empty empty STATE_SAVING 20 12 0 14 -226533
-262144 0;
#X text 20 82 The state saving system works by writing parameter values
to textfiles in the folder "statesave" inside the "patch_editor_abs"
folder. When you load a module form the module list it is automatically
being given a unique creation argument which creates a textfile unique
for that instance of the module. To save your patch \, simply save
as you normally would from the FILE menu and the press ENTER on your
keyboard or click the SAVE button in the upper left corner of the main
window.;
#X text 20 216 IMPORTANT!!! To start a new project \, the entire folder
structure needs to be copied since the abstractions and textfiles are
unique to every project. Click the RESET button in the upper left corner
to reset the counter that gives unique creation arguments for the modules.
;
#X restore 35 504 pd state-saving;
#X msg 203 62 1;
#N canvas 23 23 438 191 help-files 0;
#X obj 17 12 cnv 15 400 60 empty empty HELP-FILES 20 12 0 14 -226533
-262144 0;
#X text 20 84 Right + click on individual modules and choose "HELP"
to access detailed help-files on each modules inlets \, outlets and
functionalities.;
#X restore 203 15 pd help-files;
#X obj 203 36 r open-help-files!;
#X msg 203 88 \; pd-help-files vis \$1;
#X msg 204 173 1;
#N canvas 0 22 434 295 organelle-map 0;
#X obj 17 12 cnv 15 400 60 empty empty MAPPING-ORGANELLE-KNOBS/KEYS
20 12 0 14 -226533 -262144 0;
#X text 20 84 There are specific modules for integrating the Organelle
knobs and keyboard into your patches. Use "organelle-keyboard and "organelle-knobs"
to connect the keyboard or knobs to parameter values in your patch.
Remember that the parameter slider on the module acts as an offset
when external cv is connected so set the slider to zero to access the
entire range of the parameter with the organelle keyboard or knobs.
See the"organelle-keyboard" and "organelle-knobs" help-files for more
info. There are many ways to use PD with the Organelle. The "organelle-keyboard"
and "organelle-knobs" modules use a simplistic approach. Use your own
more elaborate pd-code for deeper control.;
#X restore 204 130 pd organelle-map;
#X obj 204 151 r open-organelle-map!;
#X msg 204 198 \; pd-organelle-map vis \$1;
#X obj 203 272 r open-modules!;
#N canvas 30 75 765 287 modules 0;
#X obj 10 3 cnv 15 745 80 empty empty MODULES 320 40 0 30 -33289 -4034
0;
#X obj 10 90 cnv 15 240 20 empty empty SOURCE_MODULES: 10 10 0 15 -33289
-4034 0;
#X obj 262 90 cnv 15 240 20 empty empty MANIPULATING_MODULES: 10 10
0 15 -33289 -4034 0;
#X obj 263 148 bng 20 250 50 0 \$0-create-stereo-electronic-echo! empty
<--STEREO-ELECTRONIC-ECHO 25 10 0 13 -262144 -1 -1;
#X obj 263 176 bng 20 250 50 0 \$0-create-quad-universal-filter! empty
<--QUAD-UNIVERSAL-FILTER 25 10 0 13 -262144 -1 -1;
#X obj 515 90 cnv 15 240 20 empty empty EDITING_MODULES: 10 10 0 15
-33289 -4034 0;
#X obj 515 145 bng 20 250 50 0 \$0-sub-mixer! empty <--SUB-MIXER 25
10 0 13 -262144 -1 -1;
#X obj 515 173 bng 20 250 50 0 \$0-dual-panorama-unit! empty <--DUAL-PANORAMA-UNIT
25 10 0 13 -262144 -1 -1;
#X obj 515 201 bng 20 250 50 0 \$0-universal-mixer! empty <--UNIVERSAL-MIXER
25 10 0 13 -262144 -1 -1;
#X obj 515 117 bng 20 250 50 0 \$0-create-master-mixer! empty <--MASTER-MIXER
25 10 0 13 -262144 -1 -1;
#X obj 263 204 bng 20 250 50 0 \$0-create-quad-envelope-shaper! empty
<--QUAD-ENVELOPE-SHAPER 25 10 0 13 -262144 -1 -1;
#X obj 263 120 bng 20 250 50 0 \$0-create-stereo-octave-filter! empty
<--STEREO-OCTAVE-FILTER 25 10 0 13 -262144 -1 -1;
#X obj 10 119 bng 20 250 50 0 \$0-create-quad-input-amplifier! empty
<--QUAD-INPUT-AMPLIFIER 25 10 0 13 -262144 -1 -1;
#X obj 10 147 bng 20 250 50 0 \$0-create-quad-sound-generator! empty
<--QUAD-SOUND-GENERATOR 25 10 0 13 -262144 -1 -1;
#X obj 10 175 bng 20 250 50 0 \$0-create-noise-generator! empty <--NOISE-GENERATOR
25 10 0 13 -262144 -1 -1;
#X obj 263 232 bng 20 250 50 0 \$0-create-ringmodulator! empty <--RINGMODULATOR
25 10 0 13 -262144 -1 -1;
#X restore 204 249 pd modules;
#X msg 203 324 \; pd-modules vis \$1;
#X msg 203 294 1;
#X msg 202 416 1;
#X obj 202 394 r open-folder-hierarchy!;
#N canvas 0 23 420 254 folder-hierarchy 0;
#X obj 17 12 cnv 15 400 60 empty empty FOLDER-HIEARCHY 20 12 0 14 -226533
-262144 0;
#X text 20 84 Inside your project folder you'll find a file called
"main.pd" and a folder called "patch_editor_abs". The "main.pd" must
stay named the same for Automatonism to function properly. Also \,
each of your projects/patches needs tp be in a separet folder with
its own "main.pd" and "patch_editor_abs" folder. Copy & paste the project
folder \, which you can give any name \, when you want to start a new
project/patch.;
#X restore 203 371 pd folder-hierarchy;
#X msg 202 446 \; pd-folder-hierarchy vis \$1;
#X msg 198 543 1;
#N canvas 0 23 432 503 export-patches 0;
#X obj 17 12 cnv 15 400 60 empty empty EXPORT-PATCH 20 12 0 14 -233017
-66577 0;
#X text 20 84 So \, how do you export patces made in the editor to
the Organelle?;
#X text 26 131 LOREM IPSUM.;
#X restore 199 498 pd export-patches;
#X obj 198 521 r open-export-patches!;
#X msg 198 572 \; pd-export-patches vis \$1;
#X msg 387 57 1;
#N canvas 0 22 435 328 tips-&-tricks 0;
#X obj 17 12 cnv 15 400 60 empty empty TIPS&TRICKS 20 12 0 14 -226533
-262144 0;
#X text 20 110 Hide portions of a complex patch in a subpatch to gain
more space.;
#X text 20 175 Don't forget to use utility modules;
#X text 20 201 Existing modular synthesis tutorials ond patches can
be translated to the XOUDLAR playGROUND \; like nord modular patches
\, sound on sound synthesis secrets \, allen strange's book \, make
noise shared system patches \, buchla patches etc;
#X text 20 84 Useful tips and tricks:;
#X text 20 149 Use [switch~] in subpatches in large projects too free
CPU;
#X text 20 266 If you want two same modules to share exact parameters
copy&paste the module instead of loading a new from the module list.
;
#X restore 389 12 pd tips-&-tricks;
#X obj 387 35 r open-tips-&-tricks!;
#X msg 387 88 \; pd-tips-&-tricks vis \$1;
#X msg 384 187 1;
#N canvas 0 23 432 503 advanced-pd-users 0;
#X obj 17 12 cnv 15 400 60 empty empty ADVANCED-PD-USERS 20 12 0 14
-233017 -66577 0;
#X text 20 84 Some useful information for advanced pd users who want
to change \, interact or expand on the XODULAR PLAYGROUND code:;
#X text 21 141 LOREM IPSUM;
#X restore 386 142 pd advanced-pd-users;
#X obj 384 165 r open-advanced-pd-users!;
#X msg 384 218 \; pd-advanced-pd-users vis \$1;
#X msg 382 309 1;
#X obj 382 287 r open-make-your-own-module!;
#N canvas 0 22 673 716 make-your-own-module 0;
#X obj 17 12 cnv 15 400 60 empty empty MAKE-YOUR-OWN-MODULE 20 12 0
14 -226533 -262144 0;
#X msg 24 128 bang;
#X msg 24 150 1 0 \, 0 1 1;
#X obj 24 172 vline~;
#X msg 23 222 bang;
#X msg 23 244 1 0 \, 0 1 1;
#X obj 23 266 vline~;
#X msg 23 310 bang;
#X text 23 93 How to convert a simple bang to a trigger/gate signal
in the patch editor:;
#X obj 23 288 threshold~ 0.99 0 1 0;
#X text 21 205 How to convert back to a control rate bang:;
#X obj 28 389 hsl 128 15 0 127 0 0 empty empty empty -2 -8 0 10 -262144
-1 -1 0 1;
#X obj 25 409 / 127;
#X obj 25 431 sig~;
#X text 22 354 How convert control numbers to the patch editor's signal
flow:;
#X text 165 388 0-127;
#X text 21 509 GRAPH ON PARENT;
#X text 22 539 MODULE TITLE;
#X text 24 575 INLET/OUTLET LABELS;
#X text 33 614 STATE-SAVING;
#X text 20 477 CV INPUTS:;
#X connect 1 0 2 0;
#X connect 2 0 3 0;
#X connect 4 0 5 0;
#X connect 5 0 6 0;
#X connect 6 0 9 0;
#X connect 9 0 7 0;
#X connect 11 0 12 0;
#X connect 12 0 13 0;
#X restore 384 264 pd make-your-own-module;
#X msg 382 340 \; pd-make-your-own-module vis \$1;
#X msg 381 429 1;
#X obj 381 407 r open-feedback-loops!;
#N canvas 0 23 420 323 feedback-loops 0;
#X obj 17 12 cnv 15 400 60 empty empty FEEDBACK-&-DSP-LOOPS 20 12 0
14 -226533 -262144 0;
#X text 23 83 Feedback patching is very much possible in the AUTOMATONISM
\, just a little bit differently from physical modular systems. If
you try to patch a module into itself or any kind of feedback routing
\, Pure Data will become silent and you'll get a "DSP loop detected"
message in the Pd window. To avoid this you need to delay the signal
a tiny tiny bit. Normal [send~) and [receive~] objects automatically
does this in Pd. Send the signal to be feedbacked into a [send~ MyFeedback]
and pick it up using [receive~ MyFeedback] and then patch into the
input to close the feedback loop. Obviously "MyFeedback" could be anything
and the abbreviation for send and receive [s~] and [r~] work equally
as well.;
#X restore 383 384 pd feedback-loops;
#X msg 381 460 \; pd-feedback-loops vis \$1;
#X msg 380 543 1;
#N canvas 0 23 439 625 license 0;
#X obj 17 12 cnv 15 400 60 empty empty LICENSE 20 12 0 14 -233017 -66577
0;
#X text 23 83 Copyright ©  2017 \, Johan Eriksson Automatonism is
free software: you can redistribute it and/or modify it under the terms
of the GNU General Public License as published by the Free Software
Foundation \, either version 3 of the License \, or any later version.
This program is distributed in the hope that it will be useful \, but
WITHOUT ANY WARRANTY \; without even the implied warranty of MERCHANTABILITY
or FITNESS FOR A PARTICULAR PURPOSE. See the GNU General Public License
for more details.;
#X restore 382 498 pd license;
#X obj 380 521 r open-license!;
#X msg 380 574 \; pd-license vis \$1;
#N canvas 293 23 419 217 reset-warning 0;
#X obj 21 143 bng 15 250 50 0 \$0-reset! empty <--RESET! 17 7 0 10
-262144 -1 -1;
#X text 18 49 WARNING!;
#X text 19 68 Never press the RESET! button in the middle of working
of a patch since it can cause the state saving mechanism to malfunction.
Only use it when starting a new patch and you want the module counters
to start over at zero. PRESS THE BUTTON BELOW TO RESET:;
#X restore 600 15 pd reset-warning;
#X msg 601 62 1;
#X obj 601 40 r open-reset-warning!;
#X msg 601 84 \; pd-reset-warning vis \$1;
#X obj 601 117 r \$0-reset!;
#X msg 601 193 \; pd-reset-warning vis 0;
#X obj 601 139 delay 500;
#X msg 604 289 1;
#N canvas 472 160 457 575 external-msg 0;
#X obj 17 12 cnv 15 400 60 empty empty EXTERNAL_MESSAGES 20 12 0 14
-226533 -262144 0;
#X text 27 86 You can send external control messages into Automatonism
modules since Automatonsim 3.0. This makes it easier to map midi controllers
to specific parameters and integrate your patches with other Pure Data
patches. External Messages routing in Automatonism works like this:
;
#X obj 41 181 hsl 128 15 0 127 0 0 empty empty 0-127 -2 -8 0 10 -262144
-1 -1 0 1;
#X floatatom 38 201 5 0 0 0 - - -;
#X msg 38 221 PITCH \$1 1;
#X obj 38 242 s basic-osc;
#X text 36 276 Send a value between 0-127;
#X text 38 395 To control the P-WIDTH slider of the BASIC-OSC with
instance number 3 \, do this instead:;
#X obj 41 451 hsl 128 15 0 127 0 0 empty empty 0-127 -2 -8 0 10 -262144
-1 -1 0 1;
#X floatatom 38 471 5 0 0 0 - - -;
#X msg 38 491 P-WIDTH \$1 3;
#X obj 38 512 s basic-osc;
#X text 37 296 Write a message where the first word is the name of
the slider you are trying to externally control \, type "\$1" to pass
on your value to the module and finally type the instance number of
the specific module you want to control. The instance number is always
showcased to the right of the module's title. Then create a send object
and send to the name of the module \, for example [s basic-osc];
#X connect 2 0 3 0;
#X connect 3 0 4 0;
#X connect 4 0 5 0;
#X connect 8 0 9 0;
#X connect 9 0 10 0;
#X connect 10 0 11 0;
#X restore 606 244 pd external-msg;
#X obj 604 267 r open-external-msg!;
#X msg 604 320 \; pd-external-msg vis \$1;
#X connect 1 0 2 0;
#X connect 2 0 0 0;
#X connect 4 0 6 0;
#X connect 5 0 4 0;
#X connect 8 0 11 0;
#X connect 10 0 8 0;
#X connect 12 0 14 0;
#X connect 15 0 12 0;
#X connect 16 0 18 0;
#X connect 17 0 16 0;
#X connect 20 0 23 0;
#X connect 22 0 20 0;
#X connect 24 0 27 0;
#X connect 26 0 24 0;
#X connect 28 0 31 0;
#X connect 31 0 30 0;
#X connect 32 0 35 0;
#X connect 33 0 32 0;
#X connect 36 0 39 0;
#X connect 38 0 36 0;
#X connect 40 0 43 0;
#X connect 42 0 40 0;
#X connect 44 0 47 0;
#X connect 46 0 44 0;
#X connect 48 0 51 0;
#X connect 49 0 48 0;
#X connect 52 0 55 0;
#X connect 53 0 52 0;
#X connect 56 0 59 0;
#X connect 58 0 56 0;
#X connect 61 0 63 0;
#X connect 62 0 61 0;
#X connect 64 0 66 0;
#X connect 66 0 65 0;
#X connect 67 0 70 0;
#X connect 69 0 67 0;
#X restore 25 164 pd upper-left-menu+manual;
#X obj 188 76 s pd-preset-manager.pd;
#X msg 188 50 menusave;
#X obj 188 24 r SAVE-S;
#N canvas 346 131 243 267 modules-esc 0;
#X obj 54 124 delay 100;
#X msg 54 155 \; pd-main.pd editmode 1;
#X obj 27 9 key;
#X floatatom 27 31 5 0 0 0 - - -;
#X obj 27 50 sel 27;
#X msg 27 193 \; pd-modules vis 1;
#X obj 27 101 t b b;
#X connect 0 0 1 0;
#X connect 2 0 3 0;
#X connect 3 0 4 0;
#X connect 4 0 6 0;
#X connect 6 0 5 0;
#X connect 6 1 0 0;
#X restore 190 209 pd modules-esc;
#X obj 189 129 delay 500;
#X obj 88 73 delay 1000;
#N canvas 0 22 450 300 CPU-load 0;
#X floatatom 118 256 0 0 0 0 - - -;
#X obj 118 168 cputime;
#X obj 118 28 loadbang;
#X obj 118 112 metro 1000;
#X msg 118 56 1;
#X floatatom 118 84 0 0 0 0 - - -;
#X obj 118 140 t b b;
#X obj 118 228 * 0.1;
#X obj 118 197 int;
#X text 163 84 <-- on/off;
#X obj 235 255 s CPU;
#X connect 0 0 10 0;
#X connect 1 0 8 0;
#X connect 2 0 4 0;
#X connect 3 0 6 0;
#X connect 4 0 5 0;
#X connect 5 0 3 0;
#X connect 6 0 1 0;
#X connect 6 1 1 1;
#X connect 7 0 0 0;
#X connect 8 0 7 0;
#X restore 190 187 pd CPU-load;
#N canvas 1102 255 407 359 source-modules 0;
#N canvas 626 141 745 603 open-quad-input-amplifier 0;
#X msg 64 84 bang;
#X obj 64 151 t b b b;
#X obj 162 168 f;
#X obj 191 168 + 1;
#X obj 162 257 + 1;
#X obj 223 101 delay 250;
#X msg 223 211 \; pd-modules vis 0;
#X obj 223 123 t b b;
#X msg 250 171 \; pd-main.pd editmode 1;
#X obj 83 316 pack s f;
#X obj 177 38 r \$0-reset!;
#X msg 177 60 0;
#X obj 162 280 nbx 5 14 -1e+037 1e+037 0 1 empty empty empty 0 -8 0
10 -262144 -1 -1 29 256;
#X obj 64 387 t b b;
#X msg 64 509 loadbang;
#X obj 91 411 s SAVE-S;
#X obj 64 462 delay 100;
#X obj 308 316 f;
#X obj 308 278 loadbang;
#X obj 162 299 t f f;
#X obj 64 17 r \$0-create-quad-input-amplifier!;
#X obj 64 562 s pd-quad-input-amplifier.pd;
#X text 336 216 closes modules window after module created;
#X text 273 348 determines where on main patch module shows;
#X msg 83 235 quad-input-amplifier;
#X msg 83 341 \; pd-main.pd obj 350 100 \$1 \$2;
#X connect 0 0 1 0;
#X connect 0 0 5 0;
#X connect 1 0 13 0;
#X connect 1 1 24 0;
#X connect 1 2 2 0;
#X connect 2 0 3 0;
#X connect 2 0 4 0;
#X connect 3 0 2 1;
#X connect 4 0 12 0;
#X connect 5 0 7 0;
#X connect 7 1 8 0;
#X connect 9 0 25 0;
#X connect 10 0 11 0;
#X connect 11 0 2 1;
#X connect 11 0 12 0;
#X connect 12 0 19 0;
#X connect 13 0 16 0;
#X connect 13 1 15 0;
#X connect 14 0 21 0;
#X connect 16 0 14 0;
#X connect 17 0 2 1;
#X connect 18 0 17 0;
#X connect 19 0 9 1;
#X connect 19 1 17 1;
#X connect 20 0 0 0;
#X connect 24 0 9 0;
#X restore 18 73 pd open-quad-input-amplifier;
#N canvas 756 130 483 603 open-quad-sound-generator 0;
#X msg 64 84 bang;
#X obj 64 151 t b b b;
#X obj 162 168 f;
#X obj 191 168 + 1;
#X obj 162 257 + 1;
#X obj 223 101 delay 250;
#X msg 223 211 \; pd-modules vis 0;
#X obj 223 123 t b b;
#X msg 250 171 \; pd-main.pd editmode 1;
#X obj 83 316 pack s f;
#X obj 177 38 r \$0-reset!;
#X msg 177 60 0;
#X obj 162 280 nbx 5 14 -1e+037 1e+037 0 1 empty empty empty 0 -8 0
10 -262144 -1 -1 5 256;
#X obj 64 387 t b b;
#X msg 64 509 loadbang;
#X obj 91 411 s SAVE-S;
#X obj 64 462 delay 100;
#X obj 308 316 f;
#X obj 308 278 loadbang;
#X obj 162 299 t f f;
#X obj 64 17 r \$0-create-quad-sound-generator!;
#X obj 64 562 s pd-quad-sound-generator.pd;
#X msg 83 235 quad-sound-generator;
#X msg 83 341 \; pd-main.pd obj 350 100 \$1 \$2;
#X connect 0 0 1 0;
#X connect 0 0 5 0;
#X connect 1 0 13 0;
#X connect 1 1 22 0;
#X connect 1 2 2 0;
#X connect 2 0 3 0;
#X connect 2 0 4 0;
#X connect 3 0 2 1;
#X connect 4 0 12 0;
#X connect 5 0 7 0;
#X connect 7 1 8 0;
#X connect 9 0 23 0;
#X connect 10 0 11 0;
#X connect 11 0 2 1;
#X connect 11 0 12 0;
#X connect 12 0 19 0;
#X connect 13 0 16 0;
#X connect 13 1 15 0;
#X connect 14 0 21 0;
#X connect 16 0 14 0;
#X connect 17 0 2 1;
#X connect 18 0 17 0;
#X connect 19 0 9 1;
#X connect 19 1 17 1;
#X connect 20 0 0 0;
#X connect 22 0 9 0;
#X restore 18 96 pd open-quad-sound-generator;
#N canvas 322 46 483 603 open-noise-generator 0;
#X msg 64 84 bang;
#X obj 64 151 t b b b;
#X obj 162 168 f;
#X obj 191 168 + 1;
#X obj 162 257 + 1;
#X obj 223 101 delay 250;
#X msg 223 211 \; pd-modules vis 0;
#X obj 223 123 t b b;
#X msg 250 171 \; pd-main.pd editmode 1;
#X obj 83 316 pack s f;
#X obj 177 38 r \$0-reset!;
#X msg 177 60 0;
#X obj 162 280 nbx 5 14 -1e+037 1e+037 0 1 empty empty empty 0 -8 0
10 -262144 -1 -1 2 256;
#X obj 64 387 t b b;
#X msg 64 509 loadbang;
#X obj 91 411 s SAVE-S;
#X obj 64 462 delay 100;
#X obj 308 316 f;
#X obj 308 278 loadbang;
#X obj 162 299 t f f;
#X obj 64 17 r \$0-create-noise-generator!;
#X msg 83 235 noise-generator;
#X obj 64 562 s pd-noise-generator.pd;
#X msg 83 341 \; pd-main.pd obj 350 100 \$1 \$2;
#X connect 0 0 1 0;
#X connect 0 0 5 0;
#X connect 1 0 13 0;
#X connect 1 1 21 0;
#X connect 1 2 2 0;
#X connect 2 0 3 0;
#X connect 2 0 4 0;
#X connect 3 0 2 1;
#X connect 4 0 12 0;
#X connect 5 0 7 0;
#X connect 7 1 8 0;
#X connect 9 0 23 0;
#X connect 10 0 11 0;
#X connect 11 0 2 1;
#X connect 11 0 12 0;
#X connect 12 0 19 0;
#X connect 13 0 16 0;
#X connect 13 1 15 0;
#X connect 14 0 22 0;
#X connect 16 0 14 0;
#X connect 17 0 2 1;
#X connect 18 0 17 0;
#X connect 19 0 9 1;
#X connect 19 1 17 1;
#X connect 20 0 0 0;
#X connect 21 0 9 0;
#X restore 18 119 pd open-noise-generator;
#X text 24 39 patches that open corresponding module file;
#X obj 18 13 cnv 15 140 20 empty empty SOURCE_MODULES 7 10 0 15 -33289
-4034 0;
#X restore 21 206 pd source-modules;
#N canvas 847 77 491 574 manipulating-modules 0;
#X text 24 39 patches that open corresponding module file;
#X obj 18 13 cnv 15 193 20 empty empty MANIPULATING_MODULES 7 10 0
15 -33289 -4034 0;
#N canvas 1415 370 473 595 open-stereo-octave-filter 0;
#X msg 64 84 bang;
#X obj 64 151 t b b b;
#X obj 162 168 f;
#X obj 191 168 + 1;
#X obj 162 257 + 1;
#X obj 223 101 delay 250;
#X msg 223 211 \; pd-modules vis 0;
#X obj 223 123 t b b;
#X msg 250 171 \; pd-main.pd editmode 1;
#X obj 83 316 pack s f;
#X obj 177 59 r \$0-reset!;
#X msg 177 81 0;
#X obj 162 280 nbx 5 14 -1e+037 1e+037 0 1 empty empty empty 0 -8 0
10 -262144 -1 -1 13 256;
#X obj 64 387 t b b;
#X msg 64 509 loadbang;
#X obj 91 411 s SAVE-S;
#X obj 64 462 delay 100;
#X obj 308 316 f;
#X obj 308 278 loadbang;
#X obj 162 299 t f f;
#X obj 64 35 r \$0-create-stereo-octave-filter!;
#X msg 83 235 stereo-octave-filter;
#X obj 64 562 s pd-stereo-octave-filter.pd;
#X msg 83 341 \; pd-main.pd obj 350 250 \$1 \$2;
#X connect 0 0 1 0;
#X connect 0 0 5 0;
#X connect 1 0 13 0;
#X connect 1 1 21 0;
#X connect 1 2 2 0;
#X connect 2 0 3 0;
#X connect 2 0 4 0;
#X connect 3 0 2 1;
#X connect 4 0 12 0;
#X connect 5 0 7 0;
#X connect 7 1 8 0;
#X connect 9 0 23 0;
#X connect 10 0 11 0;
#X connect 11 0 2 1;
#X connect 11 0 12 0;
#X connect 12 0 19 0;
#X connect 13 0 16 0;
#X connect 13 1 15 0;
#X connect 14 0 22 0;
#X connect 16 0 14 0;
#X connect 17 0 2 1;
#X connect 18 0 17 0;
#X connect 19 0 9 1;
#X connect 19 1 17 1;
#X connect 20 0 0 0;
#X connect 21 0 9 0;
#X restore 26 74 pd open-stereo-octave-filter;
#N canvas 876 251 473 595 open-stereo-electronic-echo 0;
#X msg 64 84 bang;
#X obj 64 151 t b b b;
#X obj 162 168 f;
#X obj 191 168 + 1;
#X obj 162 257 + 1;
#X obj 223 101 delay 250;
#X msg 223 211 \; pd-modules vis 0;
#X obj 223 123 t b b;
#X msg 250 171 \; pd-main.pd editmode 1;
#X obj 83 316 pack s f;
#X obj 177 59 r \$0-reset!;
#X msg 177 81 0;
#X obj 162 280 nbx 5 14 -1e+037 1e+037 0 1 empty empty empty 0 -8 0
10 -262144 -1 -1 4 256;
#X obj 64 387 t b b;
#X msg 64 509 loadbang;
#X obj 91 411 s SAVE-S;
#X obj 64 462 delay 100;
#X obj 308 316 f;
#X obj 308 278 loadbang;
#X obj 162 299 t f f;
#X obj 64 35 r \$0-create-stereo-electronic-echo!;
#X msg 83 235 stereo-electronic-echo;
#X obj 64 562 s pd-stereo-electronic-echo.pd;
#X msg 83 341 \; pd-main.pd obj 350 250 \$1 \$2;
#X connect 0 0 1 0;
#X connect 0 0 5 0;
#X connect 1 0 13 0;
#X connect 1 1 21 0;
#X connect 1 2 2 0;
#X connect 2 0 3 0;
#X connect 2 0 4 0;
#X connect 3 0 2 1;
#X connect 4 0 12 0;
#X connect 5 0 7 0;
#X connect 7 1 8 0;
#X connect 9 0 23 0;
#X connect 10 0 11 0;
#X connect 11 0 2 1;
#X connect 11 0 12 0;
#X connect 12 0 19 0;
#X connect 13 0 16 0;
#X connect 13 1 15 0;
#X connect 14 0 22 0;
#X connect 16 0 14 0;
#X connect 17 0 2 1;
#X connect 18 0 17 0;
#X connect 19 0 9 1;
#X connect 19 1 17 1;
#X connect 20 0 0 0;
#X connect 21 0 9 0;
#X restore 26 98 pd open-stereo-electronic-echo;
#N canvas 773 320 473 595 open-quad-universal-filter 0;
#X msg 64 84 bang;
#X obj 64 151 t b b b;
#X obj 162 168 f;
#X obj 191 168 + 1;
#X obj 162 257 + 1;
#X obj 223 101 delay 250;
#X msg 223 211 \; pd-modules vis 0;
#X obj 223 123 t b b;
#X msg 250 171 \; pd-main.pd editmode 1;
#X obj 83 316 pack s f;
#X obj 177 59 r \$0-reset!;
#X msg 177 81 0;
#X obj 162 280 nbx 5 14 -1e+037 1e+037 0 1 empty empty empty 0 -8 0
10 -262144 -1 -1 4 256;
#X obj 64 387 t b b;
#X msg 64 509 loadbang;
#X obj 91 411 s SAVE-S;
#X obj 64 462 delay 100;
#X obj 308 316 f;
#X obj 308 278 loadbang;
#X obj 162 299 t f f;
#X obj 64 35 r \$0-create-quad-universal-filter!;
#X msg 83 235 quad-universal-filter;
#X obj 64 562 s pd-quad-universal-filter.pd;
#X msg 83 341 \; pd-main.pd obj 350 250 \$1 \$2;
#X connect 0 0 1 0;
#X connect 0 0 5 0;
#X connect 1 0 13 0;
#X connect 1 1 21 0;
#X connect 1 2 2 0;
#X connect 2 0 3 0;
#X connect 2 0 4 0;
#X connect 3 0 2 1;
#X connect 4 0 12 0;
#X connect 5 0 7 0;
#X connect 7 1 8 0;
#X connect 9 0 23 0;
#X connect 10 0 11 0;
#X connect 11 0 2 1;
#X connect 11 0 12 0;
#X connect 12 0 19 0;
#X connect 13 0 16 0;
#X connect 13 1 15 0;
#X connect 14 0 22 0;
#X connect 16 0 14 0;
#X connect 17 0 2 1;
#X connect 18 0 17 0;
#X connect 19 0 9 1;
#X connect 19 1 17 1;
#X connect 20 0 0 0;
#X connect 21 0 9 0;
#X restore 26 121 pd open-quad-universal-filter;
#N canvas 903 273 473 595 open-quad-envelope-shaper 0;
#X msg 64 84 bang;
#X obj 64 151 t b b b;
#X obj 162 168 f;
#X obj 191 168 + 1;
#X obj 162 257 + 1;
#X obj 223 101 delay 250;
#X msg 223 211 \; pd-modules vis 0;
#X obj 223 123 t b b;
#X msg 250 171 \; pd-main.pd editmode 1;
#X obj 83 316 pack s f;
#X obj 177 59 r \$0-reset!;
#X msg 177 81 0;
#X obj 162 280 nbx 5 14 -1e+037 1e+037 0 1 empty empty empty 0 -8 0
10 -262144 -1 -1 2 256;
#X obj 64 387 t b b;
#X msg 64 509 loadbang;
#X obj 91 411 s SAVE-S;
#X obj 64 462 delay 100;
#X obj 308 316 f;
#X obj 308 278 loadbang;
#X obj 162 299 t f f;
#X obj 64 35 r \$0-create-quad-envelope-shaper!;
#X obj 64 562 s pd-quad-envelope-shaper.pd;
#X msg 83 235 quad-envelope-shaper;
#X msg 83 341 \; pd-main.pd obj 350 250 \$1 \$2;
#X connect 0 0 1 0;
#X connect 0 0 5 0;
#X connect 1 0 13 0;
#X connect 1 1 22 0;
#X connect 1 2 2 0;
#X connect 2 0 3 0;
#X connect 2 0 4 0;
#X connect 3 0 2 1;
#X connect 4 0 12 0;
#X connect 5 0 7 0;
#X connect 7 1 8 0;
#X connect 9 0 23 0;
#X connect 10 0 11 0;
#X connect 11 0 2 1;
#X connect 11 0 12 0;
#X connect 12 0 19 0;
#X connect 13 0 16 0;
#X connect 13 1 15 0;
#X connect 14 0 21 0;
#X connect 16 0 14 0;
#X connect 17 0 2 1;
#X connect 18 0 17 0;
#X connect 19 0 9 1;
#X connect 19 1 17 1;
#X connect 20 0 0 0;
#X connect 22 0 9 0;
#X restore 26 146 pd open-quad-envelope-shaper;
#N canvas 850 297 473 595 open-ringmodulator 0;
#X msg 64 84 bang;
#X obj 64 151 t b b b;
#X obj 162 168 f;
#X obj 191 168 + 1;
#X obj 162 257 + 1;
#X obj 223 101 delay 250;
#X msg 223 211 \; pd-modules vis 0;
#X obj 223 123 t b b;
#X msg 250 171 \; pd-main.pd editmode 1;
#X obj 83 316 pack s f;
#X obj 177 59 r \$0-reset!;
#X msg 177 81 0;
#X obj 162 280 nbx 5 14 -1e+037 1e+037 0 1 empty empty empty 0 -8 0
10 -262144 -1 -1 2 256;
#X obj 64 387 t b b;
#X msg 64 509 loadbang;
#X obj 91 411 s SAVE-S;
#X obj 64 462 delay 100;
#X obj 308 316 f;
#X obj 308 278 loadbang;
#X obj 162 299 t f f;
#X obj 64 35 r \$0-create-ringmodulator!;
#X msg 83 341 \; pd-main.pd obj 350 250 \$1 \$2;
#X msg 83 235 ringmodulator;
#X obj 64 562 s pd-ringmodulator.pd;
#X connect 0 0 1 0;
#X connect 0 0 5 0;
#X connect 1 0 13 0;
#X connect 1 1 22 0;
#X connect 1 2 2 0;
#X connect 2 0 3 0;
#X connect 2 0 4 0;
#X connect 3 0 2 1;
#X connect 4 0 12 0;
#X connect 5 0 7 0;
#X connect 7 1 8 0;
#X connect 9 0 21 0;
#X connect 10 0 11 0;
#X connect 11 0 2 1;
#X connect 11 0 12 0;
#X connect 12 0 19 0;
#X connect 13 0 16 0;
#X connect 13 1 15 0;
#X connect 14 0 23 0;
#X connect 16 0 14 0;
#X connect 17 0 2 1;
#X connect 18 0 17 0;
#X connect 19 0 9 1;
#X connect 19 1 17 1;
#X connect 20 0 0 0;
#X connect 22 0 9 0;
#X restore 26 171 pd open-ringmodulator;
#X restore 21 228 pd manipulating-modules;
#N canvas 1126 227 371 457 editing-modules 1;
#X text 24 39 patches that open corresponding module file;
#X obj 18 13 cnv 15 150 20 empty empty EDITING_MODULES 7 10 0 15 -33289
-4034 0;
#N canvas 1282 306 473 595 open-master-mixer 1;
#X msg 64 84 bang;
#X obj 64 151 t b b b;
#X obj 162 168 f;
#X obj 191 168 + 1;
#X obj 162 257 + 1;
#X obj 223 101 delay 250;
#X msg 223 211 \; pd-modules vis 0;
#X obj 223 123 t b b;
#X msg 250 171 \; pd-main.pd editmode 1;
#X obj 83 316 pack s f;
#X obj 177 59 r \$0-reset!;
#X msg 177 81 0;
#X obj 162 280 nbx 5 14 -1e+037 1e+037 0 1 empty empty empty 0 -8 0
10 -262144 -1 -1 5 256;
#X obj 64 387 t b b;
#X msg 64 509 loadbang;
#X obj 91 411 s SAVE-S;
#X obj 64 462 delay 100;
#X obj 308 316 f;
#X obj 308 278 loadbang;
#X obj 162 299 t f f;
#X obj 64 35 r \$0-create-master-mixer!;
#X msg 83 235 master-mixer;
#X obj 64 562 s pd-master-mixer.pd;
#X msg 83 341 \; pd-main.pd obj 350 400 \$1 \$2;
#X connect 0 0 1 0;
#X connect 0 0 5 0;
#X connect 1 0 13 0;
#X connect 1 1 21 0;
#X connect 1 2 2 0;
#X connect 2 0 3 0;
#X connect 2 0 4 0;
#X connect 3 0 2 1;
#X connect 4 0 12 0;
#X connect 5 0 7 0;
#X connect 7 1 8 0;
#X connect 9 0 23 0;
#X connect 10 0 11 0;
#X connect 11 0 2 1;
#X connect 11 0 12 0;
#X connect 12 0 19 0;
#X connect 13 0 16 0;
#X connect 13 1 15 0;
#X connect 14 0 22 0;
#X connect 16 0 14 0;
#X connect 17 0 2 1;
#X connect 18 0 17 0;
#X connect 19 0 9 1;
#X connect 19 1 17 1;
#X connect 20 0 0 0;
#X connect 21 0 9 0;
#X restore 18 73 pd open-master-mixer;
#N canvas 930 188 473 595 open-sub-mixer 0;
#X msg 64 84 bang;
#X obj 64 151 t b b b;
#X obj 162 168 f;
#X obj 191 168 + 1;
#X obj 162 257 + 1;
#X obj 223 101 delay 250;
#X msg 223 211 \; pd-modules vis 0;
#X obj 223 123 t b b;
#X msg 250 171 \; pd-main.pd editmode 1;
#X obj 83 316 pack s f;
#X obj 177 59 r \$0-reset!;
#X msg 177 81 0;
#X obj 162 280 nbx 5 14 -1e+037 1e+037 0 1 empty empty empty 0 -8 0
10 -262144 -1 -1 1 256;
#X obj 64 387 t b b;
#X msg 64 509 loadbang;
#X obj 91 411 s SAVE-S;
#X obj 64 462 delay 100;
#X obj 308 316 f;
#X obj 308 278 loadbang;
#X obj 162 299 t f f;
#X obj 64 35 r \$0-sub-mixer!;
#X msg 83 235 sub-mixer;
#X obj 64 562 s pd-sub-mixer.pd;
#X msg 83 341 \; pd-main.pd obj 350 400 \$1 \$2;
#X connect 0 0 1 0;
#X connect 0 0 5 0;
#X connect 1 0 13 0;
#X connect 1 1 21 0;
#X connect 1 2 2 0;
#X connect 2 0 3 0;
#X connect 2 0 4 0;
#X connect 3 0 2 1;
#X connect 4 0 12 0;
#X connect 5 0 7 0;
#X connect 7 1 8 0;
#X connect 9 0 23 0;
#X connect 10 0 11 0;
#X connect 11 0 2 1;
#X connect 11 0 12 0;
#X connect 12 0 19 0;
#X connect 13 0 16 0;
#X connect 13 1 15 0;
#X connect 14 0 22 0;
#X connect 16 0 14 0;
#X connect 17 0 2 1;
#X connect 18 0 17 0;
#X connect 19 0 9 1;
#X connect 19 1 17 1;
#X connect 20 0 0 0;
#X connect 21 0 9 0;
#X restore 18 96 pd open-sub-mixer;
#N canvas 865 281 473 595 open-dual-panorama-unit 0;
#X msg 64 84 bang;
#X obj 64 151 t b b b;
#X obj 162 168 f;
#X obj 191 168 + 1;
#X obj 162 257 + 1;
#X obj 223 101 delay 250;
#X msg 223 211 \; pd-modules vis 0;
#X obj 223 123 t b b;
#X msg 250 171 \; pd-main.pd editmode 1;
#X obj 83 316 pack s f;
#X obj 177 59 r \$0-reset!;
#X msg 177 81 0;
#X obj 162 280 nbx 5 14 -1e+037 1e+037 0 1 empty empty empty 0 -8 0
10 -262144 -1 -1 1 256;
#X obj 64 387 t b b;
#X msg 64 509 loadbang;
#X obj 91 411 s SAVE-S;
#X obj 64 462 delay 100;
#X obj 308 316 f;
#X obj 308 278 loadbang;
#X obj 162 299 t f f;
#X obj 64 35 r \$0-dual-panorama-unit!;
#X msg 83 235 dual-panorama-unit;
#X obj 64 562 s pd-dual-panorama-unit.pd;
#X msg 83 340 \; pd-main.pd obj 350 400 \$1 \$2;
#X connect 0 0 1 0;
#X connect 0 0 5 0;
#X connect 1 0 13 0;
#X connect 1 1 21 0;
#X connect 1 2 2 0;
#X connect 2 0 3 0;
#X connect 2 0 4 0;
#X connect 3 0 2 1;
#X connect 4 0 12 0;
#X connect 5 0 7 0;
#X connect 7 1 8 0;
#X connect 9 0 23 0;
#X connect 10 0 11 0;
#X connect 11 0 2 1;
#X connect 11 0 12 0;
#X connect 12 0 19 0;
#X connect 13 0 16 0;
#X connect 13 1 15 0;
#X connect 14 0 22 0;
#X connect 16 0 14 0;
#X connect 17 0 2 1;
#X connect 18 0 17 0;
#X connect 19 0 9 1;
#X connect 19 1 17 1;
#X connect 20 0 0 0;
#X connect 21 0 9 0;
#X restore 18 119 pd open-dual-panorama-unit;
#N canvas 929 175 473 595 open-universal-mixer 0;
#X msg 64 84 bang;
#X obj 64 151 t b b b;
#X obj 162 168 f;
#X obj 191 168 + 1;
#X obj 162 257 + 1;
#X obj 223 101 delay 250;
#X msg 223 211 \; pd-modules vis 0;
#X obj 223 123 t b b;
#X msg 250 171 \; pd-main.pd editmode 1;
#X obj 83 316 pack s f;
#X obj 177 59 r \$0-reset!;
#X msg 177 81 0;
#X obj 162 280 nbx 5 14 -1e+037 1e+037 0 1 empty empty empty 0 -8 0
10 -262144 -1 -1 1 256;
#X obj 64 387 t b b;
#X msg 64 509 loadbang;
#X obj 91 411 s SAVE-S;
#X obj 64 462 delay 100;
#X obj 308 316 f;
#X obj 308 278 loadbang;
#X obj 162 299 t f f;
#X obj 64 35 r \$0-universal-mixer!;
#X msg 83 235 universal-mixer;
#X obj 64 562 s pd-universal-mixer.pd;
#X msg 83 341 \; pd-main.pd obj 350 400 \$1 \$2;
#X connect 0 0 1 0;
#X connect 0 0 5 0;
#X connect 1 0 13 0;
#X connect 1 1 21 0;
#X connect 1 2 2 0;
#X connect 2 0 3 0;
#X connect 2 0 4 0;
#X connect 3 0 2 1;
#X connect 4 0 12 0;
#X connect 5 0 7 0;
#X connect 7 1 8 0;
#X connect 9 0 23 0;
#X connect 10 0 11 0;
#X connect 11 0 2 1;
#X connect 11 0 12 0;
#X connect 12 0 19 0;
#X connect 13 0 16 0;
#X connect 13 1 15 0;
#X connect 14 0 22 0;
#X connect 16 0 14 0;
#X connect 17 0 2 1;
#X connect 18 0 17 0;
#X connect 19 0 9 1;
#X connect 19 1 17 1;
#X connect 20 0 0 0;
#X connect 21 0 9 0;
#X restore 18 142 pd open-universal-mixer;
#X restore 21 250 pd editing-modules;
#X connect 1 0 3 0;
#X connect 2 0 0 0;
#X connect 3 0 2 0;
#X connect 3 1 16 0;
#X connect 5 0 7 0;
#X connect 7 0 6 0;
#X connect 8 0 15 0;
#X connect 12 0 11 0;
#X connect 13 0 12 0;
#X connect 15 0 9 0;
#X connect 16 0 4 0;
#X restore 13 722 pd patch-editor-do-not-delete;
#X text 25 685 DO NOT DELETE THESE OBJECTS:;
#X obj 2 1 cnv 10 150 25 empty empty DATATONISM 15 13 0 20 -1 -4034
0;
#X obj 8 38 bng 20 250 50 0 open-quick-guide! empty <--QUICK-GUIDE
25 10 0 15 -262144 -1 -1;
#X obj 8 69 bng 20 250 50 0 open-manual! empty <--MANUAL 25 10 0 15
-262144 -1 -1;
#X obj 8 100 bng 20 250 50 0 open-modules! empty <--MODULES(esc) 25
10 0 15 -262144 -1 -1;
#X obj 8 199 bng 20 250 50 0 open-external-msg! empty <--EXTERNAL-MESSAGES!
25 10 0 15 -262144 -1 -1;
#X obj 8 132 bng 20 250 50 0 SAVE-S SAVE-R <--SAVE!(enter) 25 10 0
15 -262144 -4034 -1;
#X floatatom 8 236 5 0 0 1 CPU% CPU -;
#X obj 8 165 bng 20 250 50 0 open-reset-warning! empty <--RESET! 25
10 0 15 -262144 -1 -1;
