#N struct 1131-rectangle float x float c;
#N struct 1131-pixel float x0 float y0 float x1 float y1;
#N struct 1132-rectangle float x float c;
#N struct 1132-pixel float x0 float y0 float x1 float y1;
#N canvas 0 56 1366 679 10;
#X declare -path patch_editor_abs;
#X declare -lib moonlib;
#X declare -path other_patches;
#X obj 13 728 declare -path patch_editor_abs;
#N canvas 403 56 960 676 patch-editor-do-not-delete 0;
#X msg 26 128 \; pd dsp 0;
#X obj 26 34 loadbang;
#X obj 26 103 delay 1;
#X obj 26 56 t b b;
#X msg 88 128 \; pd dsp 1;
#X obj 89 6 key;
#X obj 89 50 s SAVE-R;
#X obj 89 28 sel 10;
#X obj 189 107 loadbang;
#N canvas 352 79 766 653 upper-left-menu+manual 0;
#X msg 36 63 1;
#X msg 39 177 1;
#X msg 203 62 1;
#X msg 201 178 1;
#X msg 381 62 1;
#X obj 381 117 r \$0-reset!;
#X obj 381 139 delay 500;
#N canvas 321 236 787 349 quick-guide-cp 0;
#X obj 17 16 cnv 15 750 60 empty empty Datatonism_About 20 12 0 14
-33289 -4034 0;
#X text 511 79 RIGHT+CLICK & CHOOSE 'HELP' ON ANY MODULE!;
#X text 601 94 (as of yet not implemented);
#X text 22 130 Datatonism is a project done for the course DT2213 given
at KTH Royal Institute of Technology. It is a virtualization of the
Dataton System 3000 - a modular synthesizer created by Björn Sandlund
in the 1970s.;
#X text 19 294 Dimitrios Aatos Ellinas;
#X text 20 233 Zezhe Huang;
#X text 19 309 Kristin Johansson Evegård;
#X text 19 279 Martin Linder Nilsson;
#X text 20 249 Karolina Shi;
#X text 21 199 Team members:;
#X text 21 218 Yan Yu;
#X text 19 264 Carl Leandersson;
#X restore 36 18 pd quick-guide-cp;
#X obj 36 41 r open-quick-guide-cp!;
#X msg 36 85 \; pd-quick-guide-cp vis \$1;
#N canvas 869 173 389 417 manual-cp 0;
#X obj 17 12 cnv 15 320 60 empty empty Datatonism_Manual 20 12 0 14
-33289 -4034 0;
#X text 37 90 HOW TO USE DATATONISM;
#X text 23 111 Modules in Datatonism are categorised into three categories:
Source modules \, Manipulating modules \, and Editing modules. Source
modules contain modules that can act as sound sources. Manipulating
modules include modules such as the envelope shaper (e.g. for creating
adsr) \, filtering \, and echo (i.e. reverb). Finally \, the editing
modules encompasses various kinds of mixers., f 51;
#X text 22 326 You can save your work in progress by pressing enter
\, or the "SAVE!"-button in the menu., f 51;
#X text 22 374 Happy patching!, f 51;
#X text 22 231 Each module typically have 6 outlets labeled A \, B
\, 1 \, 2 \, 3 \, and 4 A/B are buses while 1-4 are channels. While
there is nothing preventing you from connecting channels to buses \,
A/B outlets are supposed to connect to A/B inlets and similarly for
the channels., f 51;
#X restore 39 131 pd manual-cp;
#X obj 39 155 r open-manual-cp!;
#X msg 39 202 \; pd-manual-cp vis \$1;
#N canvas 23 23 438 191 help-files-cp 0;
#X obj 17 12 cnv 15 400 60 empty empty HELP-FILES 20 12 0 14 -226533
-262144 0;
#X text 20 84 Right + click on individual modules and choose "HELP"
to access detailed help-files on each modules inlets \, outlets and
functionalities.;
#X restore 203 15 pd help-files-cp;
#X obj 203 36 r open-help-files-cp!;
#X msg 203 88 \; pd-help-files-cp vis \$1;
#N canvas 316 148 765 287 modules-cp 0;
#X obj 10 22 cnv 15 745 60 empty empty MODULES 315 30 0 30 -33289 -4034
0;
#X obj 10 90 cnv 15 240 20 empty empty SOURCE_MODULES: 10 10 0 15 -33289
-4034 0;
#X obj 262 90 cnv 15 240 20 empty empty MANIPULATING_MODULES: 10 10
0 15 -33289 -4034 0;
#X obj 263 148 bng 20 250 50 0 \$0-create-stereo-electronic-echo! empty
<--STEREO-ELECTRONIC-ECHO 25 10 0 13 -262144 -1 -1;
#X obj 263 176 bng 20 250 50 0 \$0-create-quad-universal-filter! empty
<--QUAD-UNIVERSAL-FILTER 25 10 0 13 -262144 -1 -1;
#X obj 515 90 cnv 15 240 20 empty empty EDITING_MODULES: 10 10 0 15
-33289 -4034 0;
#X obj 515 145 bng 20 250 50 0 \$0-sub-mixer! empty <--SUB-MIXER 25
10 0 13 -262144 -1 -1;
#X obj 515 173 bng 20 250 50 0 \$0-dual-panorama-unit! empty <--DUAL-PANORAMA-UNIT
25 10 0 13 -262144 -1 -1;
#X obj 515 201 bng 20 250 50 0 \$0-universal-mixer! empty <--UNIVERSAL-MIXER
25 10 0 13 -262144 -1 -1;
#X obj 515 117 bng 20 250 50 0 \$0-create-master-mixer! empty <--MASTER-MIXER
25 10 0 13 -262144 -1 -1;
#X obj 263 204 bng 20 250 50 0 \$0-create-quad-envelope-shaper! empty
<--QUAD-ENVELOPE-SHAPER 25 10 0 13 -262144 -1 -1;
#X obj 263 120 bng 20 250 50 0 \$0-create-stereo-octave-filter! empty
<--STEREO-OCTAVE-FILTER 25 10 0 13 -262144 -1 -1;
#X obj 10 119 bng 20 250 50 0 \$0-create-quad-input-amplifier! empty
<--QUAD-INPUT-AMPLIFIER 25 10 0 13 -262144 -1 -1;
#X obj 10 147 bng 20 250 50 0 \$0-create-quad-sound-generator! empty
<--QUAD-SOUND-GENERATOR 25 10 0 13 -262144 -1 -1;
#X obj 10 175 bng 20 250 50 0 \$0-create-noise-generator! empty <--NOISE-GENERATOR
25 10 0 13 -262144 -1 -1;
#X obj 263 232 bng 20 250 50 0 \$0-create-ringmodulator! empty <--RINGMODULATOR
25 10 0 13 -262144 -1 -1;
#X obj 10 1 cnv 15 745 20 empty empty DATATONISM 332 20 0 15 -33289
-4034 0;
#X restore 202 133 pd modules-cp;
#X obj 201 156 r open-modules-cp!;
#X msg 201 208 \; pd-modules-cp vis \$1;
#N canvas 293 56 419 217 reset-warning-cp 0;
#X obj 21 143 bng 15 250 50 0 \$0-reset! empty <--RESET! 17 7 0 10
-262144 -1 -1;
#X text 18 49 WARNING!;
#X text 19 68 Never press the RESET! button in the middle of working
of a patch since it can cause the state saving mechanism to malfunction.
Only use it when starting a new patch and you want the module counters
to start over at zero. PRESS THE BUTTON BELOW TO RESET:;
#X restore 380 15 pd reset-warning-cp;
#X obj 381 40 r open-reset-warning-cp!;
#X msg 381 84 \; pd-reset-warning-cp vis \$1;
#X msg 381 193 \; pd-reset-warning-cp vis 0;
#X connect 0 0 9 0;
#X connect 1 0 12 0;
#X connect 2 0 15 0;
#X connect 3 0 18 0;
#X connect 4 0 21 0;
#X connect 5 0 6 0;
#X connect 6 0 22 0;
#X connect 8 0 0 0;
#X connect 11 0 1 0;
#X connect 14 0 2 0;
#X connect 17 0 3 0;
#X connect 20 0 4 0;
#X restore 25 164 pd upper-left-menu+manual;
#X obj 188 76 s pd-preset-manager.pd;
#X msg 188 50 menusave;
#X obj 188 24 r SAVE-S;
#N canvas 346 221 243 267 modules-esc 0;
#X obj 54 124 delay 100;
#X obj 27 9 key;
#X floatatom 27 31 5 0 0 0 - - -;
#X obj 27 50 sel 27;
#X obj 27 101 t b b;
#X msg 54 155 \; pd-main_copy.pd editmode 1;
#X msg 27 193 \; pd-modules-cp vis 1;
#X connect 0 0 5 0;
#X connect 1 0 2 0;
#X connect 2 0 3 0;
#X connect 3 0 4 0;
#X connect 4 0 6 0;
#X connect 4 1 0 0;
#X restore 190 209 pd modules-esc;
#X obj 189 129 delay 500;
#X obj 88 73 delay 1000;
#N canvas 3 56 450 300 CPU-load 0;
#X floatatom 118 256 0 0 0 0 - - -;
#X obj 118 168 cputime;
#X obj 118 28 loadbang;
#X obj 118 112 metro 1000;
#X msg 118 56 1;
#X floatatom 118 84 0 0 0 0 - - -;
#X obj 118 140 t b b;
#X obj 118 228 * 0.1;
#X obj 118 197 int;
#X text 163 84 <-- on/off;
#X obj 235 255 s CPU;
#X connect 0 0 10 0;
#X connect 1 0 8 0;
#X connect 2 0 4 0;
#X connect 3 0 6 0;
#X connect 4 0 5 0;
#X connect 5 0 3 0;
#X connect 6 0 1 0;
#X connect 6 1 1 1;
#X connect 7 0 0 0;
#X connect 8 0 7 0;
#X restore 190 187 pd CPU-load;
#N canvas 879 273 407 359 source-modules 0;
#N canvas 618 129 745 603 open-quad-input-amplifier 0;
#X msg 64 84 bang;
#X obj 64 151 t b b b;
#X obj 162 168 f;
#X obj 191 168 + 1;
#X obj 162 257 + 1;
#X obj 223 101 delay 250;
#X obj 223 123 t b b;
#X obj 83 316 pack s f;
#X obj 177 38 r \$0-reset!;
#X msg 177 60 0;
#X obj 162 280 nbx 5 14 -1e+37 1e+37 0 1 empty empty empty 0 -8 0 10
-262144 -1 -1 7 256;
#X obj 64 387 t b b;
#X msg 64 509 loadbang;
#X obj 91 411 s SAVE-S;
#X obj 64 462 delay 100;
#X obj 308 316 f;
#X obj 308 278 loadbang;
#X obj 162 299 t f f;
#X obj 64 17 r \$0-create-quad-input-amplifier!;
#X obj 64 562 s pd-quad-input-amplifier.pd;
#X text 336 216 closes modules window after module created;
#X text 301 348 determines where on main patch module shows;
#X msg 83 235 quad-input-amplifier;
#X msg 250 171 \; pd-main_copy.pd editmode 1;
#X msg 83 341 \; pd-main_copy.pd obj 350 100 \$1 \$2;
#X msg 223 211 \; pd-modules-cp vis 0;
#X connect 0 0 1 0;
#X connect 0 0 5 0;
#X connect 1 0 11 0;
#X connect 1 1 22 0;
#X connect 1 2 2 0;
#X connect 2 0 3 0;
#X connect 2 0 4 0;
#X connect 3 0 2 1;
#X connect 4 0 10 0;
#X connect 5 0 6 0;
#X connect 6 0 25 0;
#X connect 6 1 23 0;
#X connect 7 0 24 0;
#X connect 8 0 9 0;
#X connect 9 0 2 1;
#X connect 9 0 10 0;
#X connect 10 0 17 0;
#X connect 11 0 14 0;
#X connect 11 1 13 0;
#X connect 12 0 19 0;
#X connect 14 0 12 0;
#X connect 15 0 2 1;
#X connect 16 0 15 0;
#X connect 17 0 7 1;
#X connect 17 1 15 1;
#X connect 18 0 0 0;
#X connect 22 0 7 0;
#X restore 18 73 pd open-quad-input-amplifier;
#N canvas 756 129 483 603 open-quad-sound-generator 0;
#X msg 64 84 bang;
#X obj 64 151 t b b b;
#X obj 162 168 f;
#X obj 191 168 + 1;
#X obj 162 257 + 1;
#X obj 223 101 delay 250;
#X obj 223 123 t b b;
#X obj 83 316 pack s f;
#X obj 177 38 r \$0-reset!;
#X msg 177 60 0;
#X obj 162 280 nbx 5 14 -1e+37 1e+37 0 1 empty empty empty 0 -8 0 10
-262144 -1 -1 4 256;
#X obj 64 387 t b b;
#X msg 64 509 loadbang;
#X obj 91 411 s SAVE-S;
#X obj 64 462 delay 100;
#X obj 308 316 f;
#X obj 308 278 loadbang;
#X obj 162 299 t f f;
#X obj 64 17 r \$0-create-quad-sound-generator!;
#X obj 64 562 s pd-quad-sound-generator.pd;
#X msg 83 235 quad-sound-generator;
#X msg 250 171 \; pd-main_copy.pd editmode 1;
#X msg 83 341 \; pd-main_copy.pd obj 350 100 \$1 \$2;
#X msg 223 211 \; pd-modules-cp vis 0;
#X connect 0 0 1 0;
#X connect 0 0 5 0;
#X connect 1 0 11 0;
#X connect 1 1 20 0;
#X connect 1 2 2 0;
#X connect 2 0 3 0;
#X connect 2 0 4 0;
#X connect 3 0 2 1;
#X connect 4 0 10 0;
#X connect 5 0 6 0;
#X connect 6 0 23 0;
#X connect 6 1 21 0;
#X connect 7 0 22 0;
#X connect 8 0 9 0;
#X connect 9 0 2 1;
#X connect 9 0 10 0;
#X connect 10 0 17 0;
#X connect 11 0 14 0;
#X connect 11 1 13 0;
#X connect 12 0 19 0;
#X connect 14 0 12 0;
#X connect 15 0 2 1;
#X connect 16 0 15 0;
#X connect 17 0 7 1;
#X connect 17 1 15 1;
#X connect 18 0 0 0;
#X connect 20 0 7 0;
#X restore 18 96 pd open-quad-sound-generator;
#N canvas 322 56 483 603 open-noise-generator 0;
#X msg 64 84 bang;
#X obj 64 151 t b b b;
#X obj 162 168 f;
#X obj 191 168 + 1;
#X obj 162 257 + 1;
#X obj 223 101 delay 250;
#X obj 223 123 t b b;
#X obj 83 316 pack s f;
#X obj 177 38 r \$0-reset!;
#X msg 177 60 0;
#X obj 162 280 nbx 5 14 -1e+37 1e+37 0 1 empty empty empty 0 -8 0 10
-262144 -1 -1 6 256;
#X obj 64 387 t b b;
#X msg 64 509 loadbang;
#X obj 91 411 s SAVE-S;
#X obj 64 462 delay 100;
#X obj 308 316 f;
#X obj 308 278 loadbang;
#X obj 162 299 t f f;
#X obj 64 17 r \$0-create-noise-generator!;
#X msg 83 235 noise-generator;
#X obj 64 562 s pd-noise-generator.pd;
#X msg 250 171 \; pd-main_copy.pd editmode 1;
#X msg 83 341 \; pd-main_copy.pd obj 350 100 \$1 \$2;
#X msg 223 211 \; pd-modules-cp vis 0;
#X connect 0 0 1 0;
#X connect 0 0 5 0;
#X connect 1 0 11 0;
#X connect 1 1 19 0;
#X connect 1 2 2 0;
#X connect 2 0 3 0;
#X connect 2 0 4 0;
#X connect 3 0 2 1;
#X connect 4 0 10 0;
#X connect 5 0 6 0;
#X connect 6 0 23 0;
#X connect 6 1 21 0;
#X connect 7 0 22 0;
#X connect 8 0 9 0;
#X connect 9 0 2 1;
#X connect 9 0 10 0;
#X connect 10 0 17 0;
#X connect 11 0 14 0;
#X connect 11 1 13 0;
#X connect 12 0 20 0;
#X connect 14 0 12 0;
#X connect 15 0 2 1;
#X connect 16 0 15 0;
#X connect 17 0 7 1;
#X connect 17 1 15 1;
#X connect 18 0 0 0;
#X connect 19 0 7 0;
#X restore 18 119 pd open-noise-generator;
#X text 24 39 patches that open corresponding module file;
#X obj 18 13 cnv 15 140 20 empty empty SOURCE_MODULES 7 10 0 15 -33289
-4034 0;
#X restore 21 206 pd source-modules;
#N canvas 847 77 491 574 manipulating-modules 0;
#X text 24 39 patches that open corresponding module file;
#X obj 18 13 cnv 15 193 20 empty empty MANIPULATING_MODULES 7 10 0
15 -33289 -4034 0;
#N canvas 1369 137 473 595 open-stereo-octave-filter 0;
#X msg 64 84 bang;
#X obj 64 151 t b b b;
#X obj 162 168 f;
#X obj 191 168 + 1;
#X obj 162 257 + 1;
#X obj 223 101 delay 250;
#X obj 223 123 t b b;
#X obj 83 316 pack s f;
#X obj 177 59 r \$0-reset!;
#X msg 177 81 0;
#X obj 162 280 nbx 5 14 -1e+37 1e+37 0 1 empty empty empty 0 -8 0 10
-262144 -1 -1 3 256;
#X obj 64 387 t b b;
#X msg 64 509 loadbang;
#X obj 91 411 s SAVE-S;
#X obj 64 462 delay 100;
#X obj 308 316 f;
#X obj 308 278 loadbang;
#X obj 162 299 t f f;
#X obj 64 35 r \$0-create-stereo-octave-filter!;
#X msg 83 235 stereo-octave-filter;
#X obj 64 562 s pd-stereo-octave-filter.pd;
#X msg 250 171 \; pd-main_copy.pd editmode 1;
#X msg 83 341 \; pd-main_copy.pd obj 350 250 \$1 \$2;
#X msg 223 211 \; pd-modules-cp vis 0;
#X connect 0 0 1 0;
#X connect 0 0 5 0;
#X connect 1 0 11 0;
#X connect 1 1 19 0;
#X connect 1 2 2 0;
#X connect 2 0 3 0;
#X connect 2 0 4 0;
#X connect 3 0 2 1;
#X connect 4 0 10 0;
#X connect 5 0 6 0;
#X connect 6 0 23 0;
#X connect 6 1 21 0;
#X connect 7 0 22 0;
#X connect 8 0 9 0;
#X connect 9 0 2 1;
#X connect 9 0 10 0;
#X connect 10 0 17 0;
#X connect 11 0 14 0;
#X connect 11 1 13 0;
#X connect 12 0 20 0;
#X connect 14 0 12 0;
#X connect 15 0 2 1;
#X connect 16 0 15 0;
#X connect 17 0 7 1;
#X connect 17 1 15 1;
#X connect 18 0 0 0;
#X connect 19 0 7 0;
#X restore 26 74 pd open-stereo-octave-filter;
#N canvas 876 137 473 595 open-stereo-electronic-echo 0;
#X msg 64 84 bang;
#X obj 64 151 t b b b;
#X obj 162 168 f;
#X obj 191 168 + 1;
#X obj 162 257 + 1;
#X obj 223 101 delay 250;
#X obj 223 123 t b b;
#X obj 83 316 pack s f;
#X obj 177 59 r \$0-reset!;
#X msg 177 81 0;
#X obj 162 280 nbx 5 14 -1e+37 1e+37 0 1 empty empty empty 0 -8 0 10
-262144 -1 -1 2 256;
#X obj 64 387 t b b;
#X msg 64 509 loadbang;
#X obj 91 411 s SAVE-S;
#X obj 64 462 delay 100;
#X obj 308 316 f;
#X obj 308 278 loadbang;
#X obj 162 299 t f f;
#X obj 64 35 r \$0-create-stereo-electronic-echo!;
#X msg 83 235 stereo-electronic-echo;
#X obj 64 562 s pd-stereo-electronic-echo.pd;
#X msg 250 171 \; pd-main_copy.pd editmode 1;
#X msg 83 342 \; pd-main_copy.pd obj 350 250 \$1 \$2;
#X msg 223 211 \; pd-modules-cp vis 0;
#X connect 0 0 1 0;
#X connect 0 0 5 0;
#X connect 1 0 11 0;
#X connect 1 1 19 0;
#X connect 1 2 2 0;
#X connect 2 0 3 0;
#X connect 2 0 4 0;
#X connect 3 0 2 1;
#X connect 4 0 10 0;
#X connect 5 0 6 0;
#X connect 6 0 23 0;
#X connect 6 1 21 0;
#X connect 7 0 22 0;
#X connect 8 0 9 0;
#X connect 9 0 2 1;
#X connect 9 0 10 0;
#X connect 10 0 17 0;
#X connect 11 0 14 0;
#X connect 11 1 13 0;
#X connect 12 0 20 0;
#X connect 14 0 12 0;
#X connect 15 0 2 1;
#X connect 16 0 15 0;
#X connect 17 0 7 1;
#X connect 17 1 15 1;
#X connect 18 0 0 0;
#X connect 19 0 7 0;
#X restore 26 98 pd open-stereo-electronic-echo;
#N canvas 773 137 473 595 open-quad-universal-filter 0;
#X msg 64 84 bang;
#X obj 64 151 t b b b;
#X obj 162 168 f;
#X obj 191 168 + 1;
#X obj 162 257 + 1;
#X obj 223 101 delay 250;
#X obj 223 123 t b b;
#X obj 83 316 pack s f;
#X obj 177 59 r \$0-reset!;
#X msg 177 81 0;
#X obj 162 280 nbx 5 14 -1e+37 1e+37 0 1 empty empty empty 0 -8 0 10
-262144 -1 -1 2 256;
#X obj 64 387 t b b;
#X msg 64 509 loadbang;
#X obj 91 411 s SAVE-S;
#X obj 64 462 delay 100;
#X obj 308 316 f;
#X obj 308 278 loadbang;
#X obj 162 299 t f f;
#X obj 64 35 r \$0-create-quad-universal-filter!;
#X msg 83 235 quad-universal-filter;
#X obj 64 562 s pd-quad-universal-filter.pd;
#X msg 250 171 \; pd-main_copy.pd editmode 1;
#X msg 83 341 \; pd-main_copy.pd obj 350 250 \$1 \$2;
#X msg 223 210 \; pd-modules-cp vis 0;
#X connect 0 0 1 0;
#X connect 0 0 5 0;
#X connect 1 0 11 0;
#X connect 1 1 19 0;
#X connect 1 2 2 0;
#X connect 2 0 3 0;
#X connect 2 0 4 0;
#X connect 3 0 2 1;
#X connect 4 0 10 0;
#X connect 5 0 6 0;
#X connect 6 0 23 0;
#X connect 6 1 21 0;
#X connect 7 0 22 0;
#X connect 8 0 9 0;
#X connect 9 0 2 1;
#X connect 9 0 10 0;
#X connect 10 0 17 0;
#X connect 11 0 14 0;
#X connect 11 1 13 0;
#X connect 12 0 20 0;
#X connect 14 0 12 0;
#X connect 15 0 2 1;
#X connect 16 0 15 0;
#X connect 17 0 7 1;
#X connect 17 1 15 1;
#X connect 18 0 0 0;
#X connect 19 0 7 0;
#X restore 26 121 pd open-quad-universal-filter;
#N canvas 890 137 473 595 open-quad-envelope-shaper 0;
#X msg 64 84 bang;
#X obj 64 151 t b b b;
#X obj 162 168 f;
#X obj 191 168 + 1;
#X obj 162 257 + 1;
#X obj 223 101 delay 250;
#X obj 223 123 t b b;
#X obj 83 316 pack s f;
#X obj 177 59 r \$0-reset!;
#X msg 177 81 0;
#X obj 162 280 nbx 5 14 -1e+37 1e+37 0 1 empty empty empty 0 -8 0 10
-262144 -1 -1 4 256;
#X obj 64 387 t b b;
#X msg 64 509 loadbang;
#X obj 91 411 s SAVE-S;
#X obj 64 462 delay 100;
#X obj 308 316 f;
#X obj 308 278 loadbang;
#X obj 162 299 t f f;
#X obj 64 35 r \$0-create-quad-envelope-shaper!;
#X obj 64 562 s pd-quad-envelope-shaper.pd;
#X msg 83 235 quad-envelope-shaper;
#X msg 250 171 \; pd-main_copy.pd editmode 1;
#X msg 83 341 \; pd-main_copy.pd obj 350 250 \$1 \$2;
#X msg 223 211 \; pd-modules-cp vis 0;
#X connect 0 0 1 0;
#X connect 0 0 5 0;
#X connect 1 0 11 0;
#X connect 1 1 20 0;
#X connect 1 2 2 0;
#X connect 2 0 3 0;
#X connect 2 0 4 0;
#X connect 3 0 2 1;
#X connect 4 0 10 0;
#X connect 5 0 6 0;
#X connect 6 0 23 0;
#X connect 6 1 21 0;
#X connect 7 0 22 0;
#X connect 8 0 9 0;
#X connect 9 0 2 1;
#X connect 9 0 10 0;
#X connect 10 0 17 0;
#X connect 11 0 14 0;
#X connect 11 1 13 0;
#X connect 12 0 19 0;
#X connect 14 0 12 0;
#X connect 15 0 2 1;
#X connect 16 0 15 0;
#X connect 17 0 7 1;
#X connect 17 1 15 1;
#X connect 18 0 0 0;
#X connect 20 0 7 0;
#X restore 26 146 pd open-quad-envelope-shaper;
#N canvas 850 137 473 595 open-ringmodulator 0;
#X msg 64 84 bang;
#X obj 64 151 t b b b;
#X obj 162 168 f;
#X obj 191 168 + 1;
#X obj 162 257 + 1;
#X obj 223 101 delay 250;
#X obj 223 123 t b b;
#X obj 83 316 pack s f;
#X obj 177 59 r \$0-reset!;
#X msg 177 81 0;
#X obj 162 280 nbx 5 14 -1e+37 1e+37 0 1 empty empty empty 0 -8 0 10
-262144 -1 -1 2 256;
#X obj 64 387 t b b;
#X msg 64 509 loadbang;
#X obj 91 411 s SAVE-S;
#X obj 64 462 delay 100;
#X obj 308 316 f;
#X obj 308 278 loadbang;
#X obj 162 299 t f f;
#X obj 64 35 r \$0-create-ringmodulator!;
#X msg 83 235 ringmodulator;
#X obj 64 562 s pd-ringmodulator.pd;
#X msg 250 171 \; pd-main_copy.pd editmode 1;
#X msg 83 341 \; pd-main_copy.pd obj 350 250 \$1 \$2;
#X msg 223 211 \; pd-modules-cp vis 0;
#X connect 0 0 1 0;
#X connect 0 0 5 0;
#X connect 1 0 11 0;
#X connect 1 1 19 0;
#X connect 1 2 2 0;
#X connect 2 0 3 0;
#X connect 2 0 4 0;
#X connect 3 0 2 1;
#X connect 4 0 10 0;
#X connect 5 0 6 0;
#X connect 6 0 23 0;
#X connect 6 1 21 0;
#X connect 7 0 22 0;
#X connect 8 0 9 0;
#X connect 9 0 2 1;
#X connect 9 0 10 0;
#X connect 10 0 17 0;
#X connect 11 0 14 0;
#X connect 11 1 13 0;
#X connect 12 0 20 0;
#X connect 14 0 12 0;
#X connect 15 0 2 1;
#X connect 16 0 15 0;
#X connect 17 0 7 1;
#X connect 17 1 15 1;
#X connect 18 0 0 0;
#X connect 19 0 7 0;
#X restore 26 171 pd open-ringmodulator;
#X restore 21 228 pd manipulating-modules;
#N canvas 992 227 371 457 editing-modules 0;
#X text 24 39 patches that open corresponding module file;
#X obj 18 13 cnv 15 150 20 empty empty EDITING_MODULES 7 10 0 15 -33289
-4034 0;
#N canvas 1369 137 473 595 open-master-mixer 0;
#X msg 64 84 bang;
#X obj 64 151 t b b b;
#X obj 162 168 f;
#X obj 191 168 + 1;
#X obj 162 257 + 1;
#X obj 223 101 delay 250;
#X obj 223 123 t b b;
#X obj 83 316 pack s f;
#X obj 177 59 r \$0-reset!;
#X msg 177 81 0;
#X obj 162 280 nbx 5 14 -1e+37 1e+37 0 1 empty empty empty 0 -8 0 10
-262144 -1 -1 2 256;
#X obj 64 387 t b b;
#X msg 64 509 loadbang;
#X obj 91 411 s SAVE-S;
#X obj 64 462 delay 100;
#X obj 308 316 f;
#X obj 308 278 loadbang;
#X obj 162 299 t f f;
#X obj 64 35 r \$0-create-master-mixer!;
#X msg 83 235 master-mixer;
#X obj 64 562 s pd-master-mixer.pd;
#X msg 250 171 \; pd-main_copy.pd editmode 1;
#X msg 83 341 \; pd-main_copy.pd obj 350 400 \$1 \$2;
#X msg 223 211 \; pd-modules-cp vis 0;
#X connect 0 0 1 0;
#X connect 0 0 5 0;
#X connect 1 0 11 0;
#X connect 1 1 19 0;
#X connect 1 2 2 0;
#X connect 2 0 3 0;
#X connect 2 0 4 0;
#X connect 3 0 2 1;
#X connect 4 0 10 0;
#X connect 5 0 6 0;
#X connect 6 0 23 0;
#X connect 6 1 21 0;
#X connect 7 0 22 0;
#X connect 8 0 9 0;
#X connect 9 0 2 1;
#X connect 9 0 10 0;
#X connect 10 0 17 0;
#X connect 11 0 14 0;
#X connect 11 1 13 0;
#X connect 12 0 20 0;
#X connect 14 0 12 0;
#X connect 15 0 2 1;
#X connect 16 0 15 0;
#X connect 17 0 7 1;
#X connect 17 1 15 1;
#X connect 18 0 0 0;
#X connect 19 0 7 0;
#X restore 18 73 pd open-master-mixer;
#N canvas 890 137 473 595 open-sub-mixer 0;
#X msg 64 84 bang;
#X obj 64 151 t b b b;
#X obj 162 168 f;
#X obj 191 168 + 1;
#X obj 162 257 + 1;
#X obj 223 101 delay 250;
#X obj 223 123 t b b;
#X obj 83 316 pack s f;
#X obj 177 59 r \$0-reset!;
#X msg 177 81 0;
#X obj 162 280 nbx 5 14 -1e+37 1e+37 0 1 empty empty empty 0 -8 0 10
-262144 -1 -1 3 256;
#X obj 64 387 t b b;
#X msg 64 509 loadbang;
#X obj 91 411 s SAVE-S;
#X obj 64 462 delay 100;
#X obj 308 316 f;
#X obj 308 278 loadbang;
#X obj 162 299 t f f;
#X obj 64 35 r \$0-sub-mixer!;
#X msg 83 235 sub-mixer;
#X obj 64 562 s pd-sub-mixer.pd;
#X msg 250 171 \; pd-main_copy.pd editmode 1;
#X msg 223 211 \; pd-modules-cp vis 0;
#X msg 83 341 \; pd-main_copy.pd obj 350 400 \$1 \$2;
#X connect 0 0 1 0;
#X connect 0 0 5 0;
#X connect 1 0 11 0;
#X connect 1 1 19 0;
#X connect 1 2 2 0;
#X connect 2 0 3 0;
#X connect 2 0 4 0;
#X connect 3 0 2 1;
#X connect 4 0 10 0;
#X connect 5 0 6 0;
#X connect 6 0 22 0;
#X connect 6 1 21 0;
#X connect 7 0 23 0;
#X connect 8 0 9 0;
#X connect 9 0 2 1;
#X connect 9 0 10 0;
#X connect 10 0 17 0;
#X connect 11 0 14 0;
#X connect 11 1 13 0;
#X connect 12 0 20 0;
#X connect 14 0 12 0;
#X connect 15 0 2 1;
#X connect 16 0 15 0;
#X connect 17 0 7 1;
#X connect 17 1 15 1;
#X connect 18 0 0 0;
#X connect 19 0 7 0;
#X restore 18 96 pd open-sub-mixer;
#N canvas 865 137 473 595 open-dual-panorama-unit 0;
#X msg 64 84 bang;
#X obj 64 151 t b b b;
#X obj 162 168 f;
#X obj 191 168 + 1;
#X obj 162 257 + 1;
#X obj 223 101 delay 250;
#X obj 223 123 t b b;
#X obj 83 316 pack s f;
#X obj 177 59 r \$0-reset!;
#X msg 177 81 0;
#X obj 162 280 nbx 5 14 -1e+37 1e+37 0 1 empty empty empty 0 -8 0 10
-262144 -1 -1 4 256;
#X obj 64 387 t b b;
#X msg 64 509 loadbang;
#X obj 91 411 s SAVE-S;
#X obj 64 462 delay 100;
#X obj 308 316 f;
#X obj 308 278 loadbang;
#X obj 162 299 t f f;
#X obj 64 35 r \$0-dual-panorama-unit!;
#X msg 83 235 dual-panorama-unit;
#X obj 64 562 s pd-dual-panorama-unit.pd;
#X msg 250 171 \; pd-main_copy.pd editmode 1;
#X msg 223 211 \; pd-modules-cp vis 0;
#X msg 83 340 \; pd-main_copy.pd obj 350 400 \$1 \$2;
#X connect 0 0 1 0;
#X connect 0 0 5 0;
#X connect 1 0 11 0;
#X connect 1 1 19 0;
#X connect 1 2 2 0;
#X connect 2 0 3 0;
#X connect 2 0 4 0;
#X connect 3 0 2 1;
#X connect 4 0 10 0;
#X connect 5 0 6 0;
#X connect 6 0 22 0;
#X connect 6 1 21 0;
#X connect 7 0 23 0;
#X connect 8 0 9 0;
#X connect 9 0 2 1;
#X connect 9 0 10 0;
#X connect 10 0 17 0;
#X connect 11 0 14 0;
#X connect 11 1 13 0;
#X connect 12 0 20 0;
#X connect 14 0 12 0;
#X connect 15 0 2 1;
#X connect 16 0 15 0;
#X connect 17 0 7 1;
#X connect 17 1 15 1;
#X connect 18 0 0 0;
#X connect 19 0 7 0;
#X restore 18 119 pd open-dual-panorama-unit;
#N canvas 890 137 473 595 open-universal-mixer 0;
#X msg 64 84 bang;
#X obj 64 151 t b b b;
#X obj 162 168 f;
#X obj 191 168 + 1;
#X obj 162 257 + 1;
#X obj 223 101 delay 250;
#X obj 223 123 t b b;
#X obj 83 316 pack s f;
#X obj 177 59 r \$0-reset!;
#X msg 177 81 0;
#X obj 162 280 nbx 5 14 -1e+37 1e+37 0 1 empty empty empty 0 -8 0 10
-262144 -1 -1 4 256;
#X obj 64 387 t b b;
#X msg 64 509 loadbang;
#X obj 91 411 s SAVE-S;
#X obj 64 462 delay 100;
#X obj 308 316 f;
#X obj 308 278 loadbang;
#X obj 162 299 t f f;
#X obj 64 35 r \$0-universal-mixer!;
#X msg 83 235 universal-mixer;
#X obj 64 562 s pd-universal-mixer.pd;
#X msg 250 171 \; pd-main_copy.pd editmode 1;
#X msg 223 211 \; pd-modules-cp vis 0;
#X msg 83 341 \; pd-main_copy.pd obj 350 400 \$1 \$2;
#X connect 0 0 1 0;
#X connect 0 0 5 0;
#X connect 1 0 11 0;
#X connect 1 1 19 0;
#X connect 1 2 2 0;
#X connect 2 0 3 0;
#X connect 2 0 4 0;
#X connect 3 0 2 1;
#X connect 4 0 10 0;
#X connect 5 0 6 0;
#X connect 6 0 22 0;
#X connect 6 1 21 0;
#X connect 7 0 23 0;
#X connect 8 0 9 0;
#X connect 9 0 2 1;
#X connect 9 0 10 0;
#X connect 10 0 17 0;
#X connect 11 0 14 0;
#X connect 11 1 13 0;
#X connect 12 0 20 0;
#X connect 14 0 12 0;
#X connect 15 0 2 1;
#X connect 16 0 15 0;
#X connect 17 0 7 1;
#X connect 17 1 15 1;
#X connect 18 0 0 0;
#X connect 19 0 7 0;
#X restore 18 142 pd open-universal-mixer;
#X restore 21 250 pd editing-modules;
#X msg 189 150 \; pd-modules-cp vis 1;
#X connect 1 0 3 0;
#X connect 2 0 0 0;
#X connect 3 0 2 0;
#X connect 3 1 15 0;
#X connect 5 0 7 0;
#X connect 7 0 6 0;
#X connect 8 0 14 0;
#X connect 11 0 10 0;
#X connect 12 0 11 0;
#X connect 14 0 20 0;
#X connect 15 0 4 0;
#X restore 13 775 pd patch-editor-do-not-delete;
#X text 25 685 DO NOT DELETE THESE OBJECTS:;
#X obj 2 1 cnv 10 150 25 empty empty DATATONISM 15 13 0 20 -1 -4034
0;
#X obj 8 38 bng 20 250 50 0 open-quick-guide-cp! empty <--ABOUT 25
10 0 15 -4034 -13381 -1;
#X obj 8 69 bng 20 250 50 0 open-manual-cp! empty <--MANUAL 25 10 0
15 -4034 -13381 -1;
#X obj 8 100 bng 20 250 50 0 open-modules-cp! empty <--MODULES(esc)
25 10 0 15 -4034 -13381 -1;
#X obj 8 132 bng 20 250 50 0 SAVE-S SAVE-R <--SAVE!(enter) 25 10 0
15 -4034 -13381 -1;
#X floatatom 8 236 5 0 0 1 CPU% CPU -;
#X obj 8 165 bng 20 250 50 0 open-reset-warning-cp! empty <--RESET!
25 10 0 15 -4034 -13381 -1;
#X obj 13 705 declare -lib moonlib;
#X obj 13 751 declare -path other_patches;
#X obj 263 22 quad-sound-generator 4;
#X obj 289 368 stereo-octave-filter 3;
#X obj 757 201 dual-panorama-unit 4;
#X connect 12 2 13 0;
#X connect 12 3 14 1;
#X connect 13 1 14 3;
