#N struct 1251-rectangle float x float c;
#N struct 1251-pixel float x0 float y0 float x1 float y1;
#N struct 1269-rectangle float x float c;
#N struct 1269-pixel float x0 float y0 float x1 float y1;
#N canvas 1366 56 1920 1024 10;
#X declare -lib moonlib;
#X declare -path ../other_patches;
#X obj 101 103 cnv 15 428 314 empty empty DUAL-PANORAMA-UNIT_3203 10
35 0 15 -233017 -66577 0;
#X obj 710 97 inlet~ A;
#X obj 1014 108 inlet~ B;
#X obj 1390 112 inlet~ one;
#X obj 1473 112 inlet~ two;
#X obj 1556 112 inlet~ three;
#X obj 1655 112 inlet~ four;
#X obj 711 506 outlet~ A;
#X obj 1014 499 outlet~ B;
#X obj 1396 496 outlet~ one;
#X obj 1479 496 outlet~ two;
#X obj 1562 496 outlet~ three;
#X obj 1661 496 outlet~ four;
#X obj 23 16 declare -lib moonlib;
#X obj 22 40 declare -path ../other_patches;
#X text 118 104 A;
#X text 183 104 B;
#X text 118 400 A;
#X text 183 400 B;
#X text 268 400 1;
#X text 352 400 2;
#X text 437 400 3;
#X text 516 400 4;
#X text 257 104 X_A;
#X text 341 104 Y_A;
#X text 426 104 X_B;
#X text 505 104 Y_B;
#X obj 184 204 xy;
#X obj 207 735 loadbang;
#X msg 156 768 100;
#X obj 156 791 s \$0-xy-size;
#X msg 59 768 0;
#X obj 59 791 s \$0-xy-colour;
#X msg 246 768 1;
#X obj 246 791 s \$0-xy-mode;
#X obj 187 512 r \$0-xy-colour;
#X obj 281 512 r \$0-xy-size;
#X obj 323 535 t b f;
#X obj 281 570 pack f f f;
#X obj 366 512 r \$0-xy-mode;
#X obj 366 535 t b f;
#X obj 351 204 xy;
#X obj 10 304 unpack s f f;
#X obj 575 304 unpack s f f;
#X floatatom 204 305 5 0 0 0 - - -;
#X floatatom 250 305 5 0 0 0 - - -;
#X floatatom 373 305 5 0 0 0 - - -;
#X floatatom 419 305 5 0 0 0 - - -;
#X connect 1 0 7 0;
#X connect 2 0 8 0;
#X connect 27 0 42 0;
#X connect 28 0 29 0;
#X connect 28 0 31 0;
#X connect 28 0 33 0;
#X connect 29 0 30 0;
#X connect 31 0 32 0;
#X connect 33 0 34 0;
#X connect 35 0 27 0;
#X connect 35 0 41 0;
#X connect 36 0 37 0;
#X connect 36 0 38 0;
#X connect 37 0 38 0;
#X connect 37 1 38 1;
#X connect 38 0 27 1;
#X connect 38 0 41 1;
#X connect 39 0 40 0;
#X connect 40 0 38 0;
#X connect 40 1 38 2;
#X connect 41 0 43 0;
#X connect 42 1 44 0;
#X connect 42 2 45 0;
#X connect 43 1 46 0;
#X connect 43 2 47 0;
#X coords 0 -1 1 1 430 320 2 100 100;
