#N struct 1010-rectangle float x float c;
#N struct 1010-pixel float x0 float y0 float x1 float y1;
#N struct 1020-rectangle float x float c;
#N struct 1020-pixel float x0 float y0 float x1 float y1;
#N struct 1021-rectangle float x float c;
#N struct 1021-pixel float x0 float y0 float x1 float y1;
#N struct 1022-rectangle float x float c;
#N struct 1022-pixel float x0 float y0 float x1 float y1;
#N canvas 0 56 1366 679 10;
#X declare -lib moonlib;
#X declare -path ../other_patches;
#X obj 101 103 cnv 15 428 314 empty empty DUAL-PANORAMA-UNIT_3203 10
35 0 15 -233017 -66577 0;
#X obj 702 27 inlet~ A;
#X obj 852 28 inlet~ B;
#X obj 1002 27 inlet~ one;
#X obj 1109 27 inlet~ two;
#X obj 1206 26 inlet~ three;
#X obj 1305 26 inlet~ four;
#X obj 703 106 outlet~ A;
#X obj 853 107 outlet~ B;
#X obj 1026 633 outlet~ one;
#X obj 1109 633 outlet~ two;
#X obj 1192 633 outlet~ three;
#X obj 1291 633 outlet~ four;
#X obj 23 16 declare -lib moonlib;
#X obj 22 40 declare -path ../other_patches;
#X text 118 104 A;
#X text 183 104 B;
#X text 118 400 A;
#X text 183 400 B;
#X text 268 400 1;
#X text 352 400 2;
#X text 437 400 3;
#X text 516 400 4;
#X text 257 104 X_A;
#X text 341 104 Y_A;
#X text 426 104 X_B;
#X text 505 104 Y_B;
#X text 250 84 TO DO - will need to calculate angle for these;
#X obj 703 55 s~ \$0-pano-bus-A;
#X obj 852 54 s~ \$0-pano-bus-B;
#X obj 169 213 xy;
#X obj 112 648 loadbang;
#X obj 112 694 unpack f f f f;
#X obj 139 720 pack f f f;
#X obj 139 743 s \$0-pano-setup;
#X obj 32 743 s \$0-pano-colour;
#X text 118 626 setup;
#X text 213 39 needed for xy.pd;
#X obj 344 33 r \$0-pano-colour;
#X obj 450 33 r \$0-pano-setup;
#X obj 222 213 xy;
#X obj 169 266 xy;
#X obj 222 266 xy;
#X obj 130 442 unpack s f f;
#X obj 164 467 pack f f;
#X floatatom 183 331 5 0 0 0 - #0-pano-Ax-r #0-pano-Ax-s;
#X floatatom 229 331 5 0 0 0 - #0-pano-Ay-r #0-pano-Ay-s;
#X text 189 350 X;
#X text 239 351 Y;
#X text 217 195 A;
#X obj 39 441 unpack s f f;
#X obj 73 466 pack f f;
#X obj 223 442 unpack s f f;
#X obj 257 467 pack f f;
#X obj 315 442 unpack s f f;
#X obj 349 467 pack f f;
#X text 89 519 get values from each quadrant \, top-right is q2;
#X text 283 197 2;
#X text 150 196 1;
#X text 152 317 3;
#X text 279 314 4;
#X obj 1002 53 s~ \$0-pano-ch1;
#X obj 1109 53 s~ \$0-pano-ch2;
#X obj 1206 53 s~ \$0-pano-ch3;
#X obj 1304 53 s~ \$0-pano-ch4;
#X obj 703 81 r~ \$0-pano-bus-A;
#X obj 853 81 r~ \$0-pano-bus-B;
#X floatatom 170 558 5 0 0 0 - - -;
#X floatatom 207 558 5 0 0 0 - - -;
#X msg 112 671 1 52 52 1;
#X text 746 181 A PANO;
#X obj 73 490 s \$0-pano-Aq1;
#X obj 164 491 s \$0-pano-Aq2;
#X obj 257 491 s \$0-pano-Aq3;
#X obj 349 491 s \$0-pano-Aq4;
#X obj 592 208 r \$0-pano-Aq1;
#X obj 683 209 r \$0-pano-Aq2;
#X obj 776 209 r \$0-pano-Aq3;
#X obj 868 209 r \$0-pano-Aq4;
#X obj 683 234 unpack f f;
#X floatatom 683 297 5 0 0 0 - - -;
#X floatatom 740 298 5 0 0 0 - - -;
#N canvas 3 56 478 300 convert 0;
#X obj 24 95 inlet;
#X obj 24 141 / 50;
#X obj 24 164 outlet;
#X obj 199 94 inlet;
#X obj 199 140 / 50;
#X obj 199 163 outlet;
#X text 35 14 convert to max 50;
#X text 34 31 (canvas is slightly bigger to give a bit of leeway for
user), f 20;
#X floatatom 79 157 5 0 0 0 - - -;
#X obj 199 117 expr if($f1 > 50 \, 50 \, $f1);
#X obj 24 118 expr if($f1 > 50 \, 50 \, $f1);
#X connect 0 0 10 0;
#X connect 1 0 2 0;
#X connect 3 0 9 0;
#X connect 4 0 5 0;
#X connect 9 0 4 0;
#X connect 10 0 1 0;
#X connect 10 0 8 0;
#X restore 683 262 pd convert;
#X text 646 422 Calculate X \, Y depending on quadrant;
#X connect 1 0 28 0;
#X connect 2 0 29 0;
#X connect 3 0 61 0;
#X connect 4 0 62 0;
#X connect 5 0 63 0;
#X connect 6 0 64 0;
#X connect 30 0 50 0;
#X connect 31 0 69 0;
#X connect 32 0 35 0;
#X connect 32 1 33 0;
#X connect 32 2 33 1;
#X connect 32 3 33 2;
#X connect 33 0 34 0;
#X connect 38 0 30 0;
#X connect 38 0 40 0;
#X connect 38 0 41 0;
#X connect 38 0 42 0;
#X connect 39 0 30 1;
#X connect 39 0 40 1;
#X connect 39 0 41 1;
#X connect 39 0 42 1;
#X connect 40 0 43 0;
#X connect 41 0 52 0;
#X connect 42 0 54 0;
#X connect 43 1 44 0;
#X connect 43 1 67 0;
#X connect 43 2 44 1;
#X connect 43 2 68 0;
#X connect 44 0 72 0;
#X connect 50 1 51 0;
#X connect 50 2 51 1;
#X connect 51 0 71 0;
#X connect 52 1 53 0;
#X connect 52 2 53 1;
#X connect 53 0 73 0;
#X connect 54 1 55 0;
#X connect 54 2 55 1;
#X connect 55 0 74 0;
#X connect 65 0 7 0;
#X connect 66 0 8 0;
#X connect 69 0 32 0;
#X connect 76 0 79 0;
#X connect 79 0 82 0;
#X connect 79 1 82 1;
#X connect 82 0 80 0;
#X connect 82 1 81 0;
#X coords 0 -1 1 1 430 320 2 100 100;
