#N struct 1034-rectangle float x float c;
#N struct 1034-pixel float x0 float y0 float x1 float y1;
#N struct 1035-rectangle float x float c;
#N struct 1035-pixel float x0 float y0 float x1 float y1;
#N canvas 1366 56 1920 1024 10;
#X declare -lib moonlib;
#X declare -path ../other_patches;
#X obj 101 103 cnv 15 428 314 empty empty DUAL-PANORAMA-UNIT_3203 10
35 0 15 -233017 -66577 0;
#X obj 555 15 inlet~ A;
#X obj 705 16 inlet~ B;
#X obj 1010 27 inlet~ one;
#X obj 1109 27 inlet~ two;
#X obj 1206 26 inlet~ three;
#X obj 1305 26 inlet~ four;
#X obj 556 94 outlet~ A;
#X obj 706 95 outlet~ B;
#X obj 1001 1091 outlet~ one;
#X obj 1246 1092 outlet~ two;
#X obj 1483 1103 outlet~ three;
#X obj 1713 1104 outlet~ four;
#X obj 22 16 declare -lib moonlib;
#X obj 22 40 declare -path ../other_patches;
#X text 118 104 A;
#X text 183 104 B;
#X text 118 400 A;
#X text 183 400 B;
#X text 268 400 1;
#X text 352 400 2;
#X text 437 400 3;
#X text 516 400 4;
#X text 257 104 X_A;
#X text 341 104 Y_A;
#X text 426 104 X_B;
#X text 505 104 Y_B;
#X obj 556 43 s~ \$0-pano-bus-A;
#X obj 705 42 s~ \$0-pano-bus-B;
#X obj 39 950 loadbang;
#X obj 39 996 unpack f f f f;
#X obj 66 1022 pack f f f;
#X obj 146 1053 s \$0-pano-setup;
#X obj 39 1053 s \$0-pano-colour;
#X text 213 39 needed for xy.pd;
#X obj 343 33 r \$0-pano-colour;
#X obj 446 33 r \$0-pano-setup;
#X floatatom 183 331 5 0 0 0 - #0-pano-Ax-r #0-pano-Ax-s;
#X floatatom 229 331 5 0 0 0 - #0-pano-Ay-r #0-pano-Ay-s;
#X text 189 350 X;
#X text 239 351 Y;
#X text 217 195 A;
#X text 283 197 2;
#X text 150 196 1;
#X text 152 317 3;
#X text 279 314 4;
#X obj 1010 53 s~ \$0-pano-ch1;
#X obj 1109 53 s~ \$0-pano-ch2;
#X obj 1206 53 s~ \$0-pano-ch3;
#X obj 1304 53 s~ \$0-pano-ch4;
#X obj 556 69 r~ \$0-pano-bus-A;
#X obj 706 69 r~ \$0-pano-bus-B;
#X text 776 155 A PANO;
#X obj 656 484 s \$0-pano-Ax-r;
#X obj 849 482 s \$0-pano-Ay-r;
#X msg 39 973 1 102 102 1;
#X obj 173 216 xy;
#X obj 173 439 unpack s f f;
#X obj 197 466 pack f f;
#X obj 197 492 s \$0-pano-A;
#X obj 758 229 unpack f f;
#X obj 758 204 r \$0-pano-A;
#X obj 656 275 expr if($f1 > 100 \, 100 \, $f1);
#X obj 849 276 expr if($f1 > 100 \, 100 \, $f1);
#X floatatom 363 329 5 0 0 0 - #0-pano-Bx-r #0-pano-Bx-s;
#X floatatom 409 329 5 0 0 0 - #0-pano-By-r #0-pano-By-s;
#X text 369 348 X;
#X text 419 349 Y;
#X text 460 200 2;
#X text 327 199 1;
#X text 329 320 3;
#X text 456 317 4;
#X obj 351 438 unpack s f f;
#X obj 375 465 pack f f;
#X obj 351 216 xy;
#X text 982 174 Calculate (x \, y);
#X obj 1224 237 unpack f f;
#X obj 1122 275 expr if($f1 > 100 \, 100 \, $f1);
#X obj 1321 275 expr if($f1 > 100 \, 100 \, $f1);
#X text 1241 156 B PANO;
#X obj 1224 212 r \$0-pano-B;
#X obj 1122 480 s \$0-pano-Bx-r;
#X obj 1321 481 s \$0-pano-By-r;
#X obj 375 491 s \$0-pano-B;
#X obj 691 623 r~ \$0-pano-bus-A;
#X obj 760 730 *~;
#X obj 811 729 *~;
#X obj 706 730 *~;
#X obj 865 731 *~;
#N canvas 31 162 450 300 calcVolume 0;
#X obj 132 18 inlet;
#X obj 202 20 inlet;
#X obj 142 240 outlet, f 7;
#X obj 142 207 pack f f f f;
#X obj 165 75 *;
#X text 65 64 q1;
#X text 167 50 q2;
#X text 257 33 q3;
#X text 343 64 q4;
#X obj 231 57 - 1;
#X obj 266 58 - 1;
#X obj 233 83 abs;
#X obj 270 84 abs;
#X obj 255 131 *;
#X obj 61 85 - 1;
#X obj 65 111 abs;
#X obj 73 147 *;
#X obj 352 94 - 1;
#X obj 355 131 abs;
#X obj 352 166 *;
#X connect 0 0 4 0;
#X connect 0 0 9 0;
#X connect 0 0 14 0;
#X connect 0 0 19 0;
#X connect 1 0 4 1;
#X connect 1 0 10 0;
#X connect 1 0 16 1;
#X connect 1 0 17 0;
#X connect 3 0 2 0;
#X connect 4 0 3 1;
#X connect 9 0 11 0;
#X connect 10 0 12 0;
#X connect 11 0 13 0;
#X connect 12 0 13 1;
#X connect 13 0 3 2;
#X connect 14 0 15 0;
#X connect 15 0 16 0;
#X connect 16 0 3 0;
#X connect 17 0 18 0;
#X connect 18 0 19 1;
#X connect 19 0 3 3;
#X restore 730 347 pd calcVolume;
#X obj 807 623 r \$0-pano-res-A;
#X obj 730 384 s \$0-pano-res-A;
#X obj 807 646 unpack f f f f;
#X obj 1035 937 r~ \$0-pano-out1-A;
#X obj 914 784 s~ \$0-pano-out4-A;
#X obj 804 784 s~ \$0-pano-out3-A;
#X obj 693 784 s~ \$0-pano-out2-A;
#X obj 581 784 s~ \$0-pano-out1-A;
#X obj 1271 941 r~ \$0-pano-out2-A;
#X obj 1520 958 r~ \$0-pano-out3-A;
#X obj 1737 961 r~ \$0-pano-out4-A;
#X obj 1238 725 *~;
#X obj 1289 724 *~;
#X obj 1184 725 *~;
#X obj 1343 726 *~;
#X obj 1285 641 unpack f f f f;
#X obj 1169 618 r~ \$0-pano-bus-B;
#X obj 1285 618 r \$0-pano-res-B;
#X obj 1059 784 s~ \$0-pano-out1-B;
#X obj 1171 784 s~ \$0-pano-out2-B;
#X obj 1282 784 s~ \$0-pano-out3-B;
#X obj 1393 784 s~ \$0-pano-out4-B;
#X obj 1035 960 r~ \$0-pano-out1-B;
#X obj 1271 963 r~ \$0-pano-out2-B;
#X obj 1520 980 r~ \$0-pano-out3-B;
#X obj 1737 984 r~ \$0-pano-out4-B;
#X obj 1193 367 s \$0-pano-res-B;
#X text 43 927 SETUP SQUARES;
#X text 356 82 TO DO - These four inlets...;
#N canvas 3 56 450 300 calcVolume 0;
#X obj 132 18 inlet;
#X obj 202 20 inlet;
#X obj 142 240 outlet, f 7;
#X obj 142 207 pack f f f f;
#X obj 165 75 *;
#X text 65 64 q1;
#X text 167 50 q2;
#X text 257 33 q3;
#X text 343 64 q4;
#X obj 231 57 - 1;
#X obj 266 58 - 1;
#X obj 233 83 abs;
#X obj 270 84 abs;
#X obj 255 131 *;
#X obj 61 85 - 1;
#X obj 65 111 abs;
#X obj 73 147 *;
#X obj 352 94 - 1;
#X obj 355 131 abs;
#X obj 352 166 *;
#X connect 0 0 4 0;
#X connect 0 0 9 0;
#X connect 0 0 14 0;
#X connect 0 0 19 0;
#X connect 1 0 4 1;
#X connect 1 0 10 0;
#X connect 1 0 16 1;
#X connect 1 0 17 0;
#X connect 3 0 2 0;
#X connect 4 0 3 1;
#X connect 9 0 11 0;
#X connect 10 0 12 0;
#X connect 11 0 13 0;
#X connect 12 0 13 1;
#X connect 13 0 3 2;
#X connect 14 0 15 0;
#X connect 15 0 16 0;
#X connect 16 0 3 0;
#X connect 17 0 18 0;
#X connect 18 0 19 1;
#X connect 19 0 3 3;
#X restore 1194 337 pd calcVolume;
#X obj 884 366 unpack f f f f;
#X floatatom 884 402 5 0 0 0 - - -;
#X floatatom 919 402 5 0 0 0 - - -;
#X floatatom 955 402 5 0 0 0 - - -;
#X floatatom 990 402 5 0 0 0 - - -;
#X text 884 420 for debugging purposes;
#X obj 656 298 expr $f1/100;
#X obj 849 299 expr $f1/100;
#X obj 1122 299 expr $f1/100;
#X obj 1321 298 expr $f1/100;
#X obj 656 458 expr ($f1 - 50)/50;
#X obj 849 457 expr ($f1 - 50)/50;
#X text 663 435 get UI (x \, y) in range [-1 \, 1];
#X obj 1122 456 expr ($f1 - 50)/50;
#X obj 1321 456 expr ($f1 - 50)/50;
#X text 905 572 Change volume accordingly for each channel;
#X text 1129 433 get UI (x \, y) in range [-1 \, 1];
#X text 397 195 B;
#X obj 1517 164 r~ \$0-pano-ch1;
#X obj 1611 164 r~ \$0-pano-ch2;
#X obj 1705 164 r~ \$0-pano-ch3;
#X obj 1799 164 r~ \$0-pano-ch4;
#X floatatom 916 684 5 0 0 0 - - -;
#X floatatom 951 684 5 0 0 0 - - -;
#X floatatom 987 684 5 0 0 0 - - -;
#X floatatom 1022 684 5 0 0 0 - - -;
#X text 916 702 for debugging purposes;
#X obj 336 138 cnv 5 5 5 empty \$0-instance-num 0 0 0 0 15 -228856
-66577 0;
#X text 36 1101 STATE SAVING and EXTERNAL CONTROL STUFF;
#N canvas 0 56 1366 679 state-saving-multiple-instances 1;
#X obj 233 37 loadbang;
#X obj 951 184 textfile;
#X msg 925 108 rewind;
#X msg 882 108 bang;
#X obj 137 779 textfile;
#X obj 882 69 t b b;
#X obj 138 445 f;
#X obj 151 668 f;
#X obj 79 489 t b b b;
#X msg 214 668 clear;
#X obj 300 179 outlet;
#X text 301 198 INSTANCE NUMBER;
#X obj 260 105 f \$1;
#X obj 261 133 t f f f;
#X obj 233 70 t b b;
#X obj 79 466 bng 15 250 50 0 empty empty empty 17 7 0 10 -262144 -1
-1;
#X obj 79 322 r SAVE-S;
#X obj 292 37 r \$0-reload!;
#X text 414 48 RETURN TO PREVIOUS VALUE AFTER USING MORPH-SEQ module
;
#X text 151 255 WRITE side;
#X text 960 12 READ side;
#X text 470 759 i.e. "write statesave/\$1-\$2-PATCH_NAME-ss.txt";
#X text 435 738 <-----rename to match name of Pd patch;
#X text 1266 167 i.e. "write statesave/\$1-\$2-PATCH_NAME-ss.txt";
#X text 1224 151 <-----rename to match name of Pd patch;
#X text 228 481 <----- one "f" for each parameter;
#X text 244 525 <----- one "$N" for each parameter;
#X text 305 361 <-----rename to match send symbol of each GUI element
;
#X text 1151 344 <-----rename to match receive symbol of each GUI element
;
#X text 953 535 Keep these parameters in the same order on the WRITE
and READ sides;
#X text 1059 204 <----- one "f" for each parameter;
#X obj 138 480 pack f f f f;
#X obj 153 276 r \$0-pano-Ax-s;
#X obj 153 299 expr $f1*50 + 50;
#X obj 161 327 r \$0-pano-Ay-s;
#X obj 161 350 expr $f1*50 + 50;
#X obj 184 379 r \$0-pano-Bx-s;
#X obj 207 429 r \$0-pano-By-s;
#X obj 184 402 expr $f1*50 + 50;
#X obj 207 452 expr $f1*50 + 50;
#X msg 138 526 set \$1 \$2 \$3 \$4;
#X msg 150 739 write statesave/\$1-dual-panorama-unit-ss.txt;
#X msg 951 151 read statesave/\$1-dual-panorama-unit-ss.txt;
#X obj 951 206 unpack f f f f;
#X obj 951 312 s \$0-pano-Ax-r;
#X obj 978 376 s \$0-pano-Ay-r;
#X obj 1004 443 s \$0-pano-Bx-r;
#X obj 1031 512 s \$0-pano-By-r;
#X obj 951 287 expr ($f1 - 50)/50;
#X obj 978 352 expr ($f1 - 50)/50;
#X obj 1004 420 expr ($f1 - 50)/50;
#X obj 1031 487 expr ($f1 - 50)/50;
#X connect 0 0 14 0;
#X connect 1 0 43 0;
#X connect 2 0 1 0;
#X connect 3 0 1 0;
#X connect 5 0 3 0;
#X connect 5 1 2 0;
#X connect 6 0 31 0;
#X connect 7 0 41 0;
#X connect 8 0 7 0;
#X connect 8 1 6 0;
#X connect 8 2 9 0;
#X connect 9 0 4 0;
#X connect 12 0 13 0;
#X connect 13 0 7 1;
#X connect 13 1 42 0;
#X connect 13 2 10 0;
#X connect 14 0 5 0;
#X connect 14 1 12 0;
#X connect 15 0 8 0;
#X connect 16 0 15 0;
#X connect 17 0 14 0;
#X connect 31 0 40 0;
#X connect 32 0 33 0;
#X connect 33 0 6 1;
#X connect 34 0 35 0;
#X connect 35 0 31 1;
#X connect 36 0 38 0;
#X connect 37 0 39 0;
#X connect 38 0 31 2;
#X connect 39 0 31 3;
#X connect 40 0 4 0;
#X connect 41 0 4 0;
#X connect 42 0 1 0;
#X connect 43 0 48 0;
#X connect 43 1 49 0;
#X connect 43 2 50 0;
#X connect 43 3 51 0;
#X connect 48 0 44 0;
#X connect 49 0 45 0;
#X connect 50 0 46 0;
#X connect 51 0 47 0;
#X restore 37 1195 pd state-saving-multiple-instances;
#X obj 37 1310 s \$0-instance-num;
#X obj 37 1262 makefilename %d;
#X msg 37 1287 label \$1;
#N canvas 0 56 1366 679 state-saving-via-preset-manager-module 0;
#X obj 54 52 cnv 15 1200 800 empty empty WRITE 20 20 0 20 -233017 -66577
0;
#X obj 136 804 textfile;
#X obj 134 322 f;
#X obj 147 545 f;
#X obj 80 440 t b b b;
#X msg 187 702 clear;
#X obj 134 144 delay 5;
#X obj 80 495 delay 10;
#X msg 80 280 bang;
#X obj 80 114 r STORE-S!;
#X obj 147 575 pack f f;
#X obj 192 528 loadbang;
#X obj 192 550 f \$1;
#X obj 162 506 r preset-manager-store-slot;
#X text 540 747 i.e. "write statesave/\$1-\$2-PATCH_NAME-ss.txt";
#X text 495 728 <-----rename to match name of Pd patch;
#X text 224 385 <----- one "f" for each parameter;
#X text 242 439 <----- one "$N" for each parameter;
#X text 305 224 <-----rename to match send symbol of each GUI element
;
#X obj 54 868 cnv 15 1200 500 empty empty READ 20 20 0 20 -233017 -66577
0;
#X obj 207 1133 textfile;
#X msg 143 1082 rewind;
#X msg 100 1082 bang;
#X obj 100 1043 t b b;
#X obj 207 1034 f;
#X obj 180 998 t b b;
#X obj 180 955 t b f;
#X obj 252 1052 f \$1;
#X obj 207 1079 pack f f;
#X obj 252 1002 loadbang;
#X obj 180 932 r preset-manager-scan;
#X text 493 1107 <-----rename to match name of Pd patch;
#X text 515 1127 i.e. "read statesave/\$1-\$2-PATCH_NAME-ss.txt";
#X text 587 1188 <----- one "f" for each parameter;
#X text 855 930 Keep these parameters in the same order on the WRITE
and READ sides;
#X text 885 892 for binary (0 or 1) controls which do not morph (like
switches) \, do not use [pd morph-paramaters], f 51;
#X obj 134 388 pack f f f f;
#X obj 149 177 r \$0-pano-Ax-s;
#X obj 157 201 r \$0-pano-Ay-s;
#X obj 180 225 r \$0-pano-Bx-s;
#X obj 203 249 r \$0-pano-By-s;
#X msg 134 438 set \$1 \$2 \$3 \$4;
#X msg 186 729 write statesave/\$1-\$2-dual-panorama-unit-ss.txt;
#X msg 206 1108 read statesave/\$1-\$2-dual-panorama-unit-ss.txt;
#X obj 207 1185 unpack f f f f;
#X obj 207 1329 s \$0-pano-Ax-r;
#X obj 234 1298 s \$0-pano-Ay-r;
#X obj 261 1268 s \$0-pano-Bx-r;
#X obj 288 1239 s \$0-pano-By-r;
#X connect 2 0 36 0;
#X connect 3 0 10 0;
#X connect 4 0 7 0;
#X connect 4 1 6 0;
#X connect 4 2 5 0;
#X connect 5 0 1 0;
#X connect 6 0 2 0;
#X connect 7 0 3 0;
#X connect 8 0 4 0;
#X connect 9 0 8 0;
#X connect 10 0 42 0;
#X connect 11 0 12 0;
#X connect 12 0 10 1;
#X connect 13 0 3 1;
#X connect 20 0 44 0;
#X connect 21 0 20 0;
#X connect 22 0 20 0;
#X connect 23 0 22 0;
#X connect 23 1 21 0;
#X connect 24 0 28 0;
#X connect 25 0 23 0;
#X connect 25 1 24 0;
#X connect 26 0 25 0;
#X connect 26 1 24 1;
#X connect 27 0 28 1;
#X connect 28 0 43 0;
#X connect 29 0 27 0;
#X connect 30 0 26 0;
#X connect 36 0 41 0;
#X connect 37 0 2 1;
#X connect 38 0 36 1;
#X connect 39 0 36 2;
#X connect 40 0 36 3;
#X connect 41 0 1 0;
#X connect 42 0 1 0;
#X connect 43 0 20 0;
#X connect 44 0 45 0;
#X connect 44 1 46 0;
#X connect 44 2 47 0;
#X connect 44 3 48 0;
#X restore 37 1172 pd state-saving-via-preset-manager-module;
#N canvas 0 56 1366 679 parameter-nudging-system 0;
#X obj 47 21 cnv 15 580 200 empty empty Coordinates 20 20 0 20 -261234
-33289 0;
#N canvas 3 56 484 497 nudge-attenuators 0;
#X obj 124 234 random;
#X obj 232 335 f;
#X obj 232 368 +;
#X obj 257 166 random 2;
#X obj 124 275 t f f;
#X obj 124 351 t b f;
#X obj 124 297 *;
#X obj 257 188 sel 0 1;
#X msg 257 280 -1;
#X msg 335 280 1;
#X obj 124 149 t b b b;
#X obj 124 71 r NUDGE!;
#X obj 157 193 r NUDGE-RANGE;
#X obj 247 308 inlet;
#X obj 232 397 outlet;
#X obj 124 93 spigot;
#X obj 201 76 r attenuators2-s;
#X connect 0 0 4 0;
#X connect 1 0 2 0;
#X connect 2 0 14 0;
#X connect 3 0 7 0;
#X connect 4 0 6 0;
#X connect 5 0 2 0;
#X connect 5 1 2 1;
#X connect 6 0 5 0;
#X connect 7 0 8 0;
#X connect 7 1 9 0;
#X connect 8 0 6 1;
#X connect 9 0 6 1;
#X connect 10 0 0 0;
#X connect 10 1 1 0;
#X connect 10 2 3 0;
#X connect 11 0 15 0;
#X connect 12 0 0 1;
#X connect 13 0 1 1;
#X connect 15 0 10 0;
#X connect 16 0 15 1;
#X restore 58 99 pd nudge-attenuators;
#X obj 58 121 clip 0.1 10;
#N canvas 3 56 484 497 nudge-attenuators 0;
#X obj 124 234 random;
#X obj 232 335 f;
#X obj 232 368 +;
#X obj 257 166 random 2;
#X obj 124 275 t f f;
#X obj 124 351 t b f;
#X obj 124 297 *;
#X obj 257 188 sel 0 1;
#X msg 257 280 -1;
#X msg 335 280 1;
#X obj 124 149 t b b b;
#X obj 124 71 r NUDGE!;
#X obj 157 193 r NUDGE-RANGE;
#X obj 247 308 inlet;
#X obj 232 397 outlet;
#X obj 124 93 spigot;
#X obj 201 76 r attenuators2-s;
#X connect 0 0 4 0;
#X connect 1 0 2 0;
#X connect 2 0 14 0;
#X connect 3 0 7 0;
#X connect 4 0 6 0;
#X connect 5 0 2 0;
#X connect 5 1 2 1;
#X connect 6 0 5 0;
#X connect 7 0 8 0;
#X connect 7 1 9 0;
#X connect 8 0 6 1;
#X connect 9 0 6 1;
#X connect 10 0 0 0;
#X connect 10 1 1 0;
#X connect 10 2 3 0;
#X connect 11 0 15 0;
#X connect 12 0 0 1;
#X connect 13 0 1 1;
#X connect 15 0 10 0;
#X connect 16 0 15 1;
#X restore 202 99 pd nudge-attenuators;
#X obj 202 121 clip 0.1 10;
#N canvas 3 56 484 497 nudge-attenuators 0;
#X obj 124 234 random;
#X obj 232 335 f;
#X obj 232 368 +;
#X obj 257 166 random 2;
#X obj 124 275 t f f;
#X obj 124 351 t b f;
#X obj 124 297 *;
#X obj 257 188 sel 0 1;
#X msg 257 280 -1;
#X msg 335 280 1;
#X obj 124 149 t b b b;
#X obj 124 71 r NUDGE!;
#X obj 157 193 r NUDGE-RANGE;
#X obj 247 308 inlet;
#X obj 232 397 outlet;
#X obj 124 93 spigot;
#X obj 201 76 r attenuators2-s;
#X connect 0 0 4 0;
#X connect 1 0 2 0;
#X connect 2 0 14 0;
#X connect 3 0 7 0;
#X connect 4 0 6 0;
#X connect 5 0 2 0;
#X connect 5 1 2 1;
#X connect 6 0 5 0;
#X connect 7 0 8 0;
#X connect 7 1 9 0;
#X connect 8 0 6 1;
#X connect 9 0 6 1;
#X connect 10 0 0 0;
#X connect 10 1 1 0;
#X connect 10 2 3 0;
#X connect 11 0 15 0;
#X connect 12 0 0 1;
#X connect 13 0 1 1;
#X connect 15 0 10 0;
#X connect 16 0 15 1;
#X restore 338 99 pd nudge-attenuators;
#X obj 338 121 clip 0.1 10;
#N canvas 3 56 484 497 nudge-attenuators 0;
#X obj 124 234 random;
#X obj 232 335 f;
#X obj 232 368 +;
#X obj 257 166 random 2;
#X obj 124 275 t f f;
#X obj 124 351 t b f;
#X obj 124 297 *;
#X obj 257 188 sel 0 1;
#X msg 257 280 -1;
#X msg 335 280 1;
#X obj 124 149 t b b b;
#X obj 124 71 r NUDGE!;
#X obj 157 193 r NUDGE-RANGE;
#X obj 247 308 inlet;
#X obj 232 397 outlet;
#X obj 124 93 spigot;
#X obj 201 76 r attenuators2-s;
#X connect 0 0 4 0;
#X connect 1 0 2 0;
#X connect 2 0 14 0;
#X connect 3 0 7 0;
#X connect 4 0 6 0;
#X connect 5 0 2 0;
#X connect 5 1 2 1;
#X connect 6 0 5 0;
#X connect 7 0 8 0;
#X connect 7 1 9 0;
#X connect 8 0 6 1;
#X connect 9 0 6 1;
#X connect 10 0 0 0;
#X connect 10 1 1 0;
#X connect 10 2 3 0;
#X connect 11 0 15 0;
#X connect 12 0 0 1;
#X connect 13 0 1 1;
#X connect 15 0 10 0;
#X connect 16 0 15 1;
#X restore 482 99 pd nudge-attenuators;
#X obj 482 121 clip 0.1 10;
#X obj 58 71 r \$0-pano-Ax-s;
#X obj 58 151 s \$0-pano-Ax-r;
#X obj 202 71 r \$0-pano-Ay-s;
#X obj 202 151 s \$0-pano-Ay-r;
#X obj 338 71 r \$0-pano-Bx-s;
#X obj 338 151 s \$0-pano-Bx-r;
#X obj 482 71 r \$0-pano-By-s;
#X obj 482 151 s \$0-pano-By-r;
#X text 635 114 <---- need to change subpatch and clip;
#X connect 1 0 2 0;
#X connect 2 0 10 0;
#X connect 3 0 4 0;
#X connect 4 0 12 0;
#X connect 5 0 6 0;
#X connect 6 0 14 0;
#X connect 7 0 8 0;
#X connect 8 0 16 0;
#X connect 9 0 1 0;
#X connect 11 0 3 0;
#X connect 13 0 5 0;
#X connect 15 0 7 0;
#X restore 37 1149 pd parameter-nudging-system;
#N canvas 0 56 1366 679 external-messages 0;
#X floatatom 185 535 5 0 0 0 - - -;
#X obj 185 327 spigot;
#X obj 224 278 tgl 15 0 empty empty empty 17 7 0 10 -262144 -1 -1 0
1;
#X obj 267 238 ==;
#X obj 282 214 f \$1;
#X obj 282 190 loadbang;
#X msg 185 202 \$1 \$2;
#X msg 185 156 symbol \$1;
#X obj 185 180 pack s f;
#X obj 185 514 f;
#X obj 185 458 t b f;
#X obj 185 485 spigot;
#X obj 185 62 unpack s f f;
#X symbolatom 185 94 10 0 0 0 - - -;
#X obj 224 298 t f f;
#X obj 257 327 s \$0-msg-spigot;
#X obj 234 459 r \$0-msg-spigot;
#X floatatom 347 537 5 0 0 0 - - -;
#X obj 347 516 f;
#X obj 347 457 t b f;
#X obj 347 487 spigot;
#X obj 397 458 r \$0-msg-spigot;
#X floatatom 510 536 5 0 0 0 - - -;
#X obj 510 515 f;
#X obj 510 456 t b f;
#X obj 510 486 spigot;
#X obj 560 457 r \$0-msg-spigot;
#X floatatom 673 537 5 0 0 0 - - -;
#X obj 673 516 f;
#X obj 673 457 t b f;
#X obj 673 487 spigot;
#X obj 723 458 r \$0-msg-spigot;
#X obj 185 360 route Ax Ay Bx By, f 109;
#X obj 185 14 r dual-panorama-unit;
#X obj 185 555 s \$0-pano-Ax-r;
#X obj 347 557 s \$0-pano-Ay-r;
#X obj 510 556 s \$0-pano-Bx-r;
#X obj 673 557 s \$0-pano-By-r;
#X connect 0 0 34 0;
#X connect 1 0 32 0;
#X connect 2 0 14 0;
#X connect 3 0 2 0;
#X connect 4 0 3 1;
#X connect 5 0 4 0;
#X connect 6 0 1 0;
#X connect 7 0 8 0;
#X connect 8 0 6 0;
#X connect 9 0 0 0;
#X connect 10 0 11 0;
#X connect 10 1 9 1;
#X connect 11 0 9 0;
#X connect 12 0 13 0;
#X connect 12 1 8 1;
#X connect 12 2 3 0;
#X connect 13 0 7 0;
#X connect 14 0 1 1;
#X connect 14 1 15 0;
#X connect 16 0 11 1;
#X connect 17 0 35 0;
#X connect 18 0 17 0;
#X connect 19 0 20 0;
#X connect 19 1 18 1;
#X connect 20 0 18 0;
#X connect 21 0 20 1;
#X connect 22 0 36 0;
#X connect 23 0 22 0;
#X connect 24 0 25 0;
#X connect 24 1 23 1;
#X connect 25 0 23 0;
#X connect 26 0 25 1;
#X connect 27 0 37 0;
#X connect 28 0 27 0;
#X connect 29 0 30 0;
#X connect 29 1 28 1;
#X connect 30 0 28 0;
#X connect 31 0 30 1;
#X connect 32 0 10 0;
#X connect 32 1 19 0;
#X connect 32 2 24 0;
#X connect 32 3 29 0;
#X connect 33 0 12 0;
#X restore 37 1126 pd external-messages;
#X text 48 536 Overview;
#X text 28 556 The Dual Panorama Unit makes it possible to pan between
four different channels. The direction of each channel is marked at
the corners of each square., f 41;
#X text 46 629 Controls;
#X text 27 648 Each square is a control pad \, controlling the distribution
of the signals coming in from A and B to channels 1 \, 2 \, 3 \, 4
The pads themselves are like a 2-dimensional slider \, where the middle
distributes the sound evenly over all channels., f 41;
#X text 41 756 External signal control;
#X obj 1518 260 *~;
#X obj 1518 283 env~;
#X obj 1518 306 dbtorms~;
#X obj 1610 260 *~;
#X obj 1610 283 env~;
#X obj 1610 306 dbtorms~;
#X obj 1706 260 *~;
#X obj 1706 283 env~;
#X obj 1706 306 dbtorms~;
#X obj 1799 262 *~;
#X obj 1799 285 env~;
#X obj 1799 308 dbtorms~;
#N canvas 1662 348 361 300 calcVolfromSig 0;
#X obj 63 29 inlet~;
#X obj 142 28 inlet~;
#X obj 45 91 -~ 1;
#X obj 45 114 abs~;
#X obj 45 137 *~;
#X text 26 72 q1;
#X obj 98 92 *~;
#X obj 155 69 -~ 1;
#X obj 155 92 abs~;
#X obj 172 152 *~;
#X obj 200 69 -~ 1;
#X obj 200 92 abs~;
#X obj 248 106 -~ 1;
#X obj 248 129 abs~;
#X obj 247 155 *~;
#X text 122 95 q2;
#X text 188 46 q3;
#X text 255 87 q4;
#X obj 46 221 outlet~;
#X obj 103 221 outlet~;
#X obj 159 221 outlet~;
#X obj 216 221 outlet~;
#X connect 0 0 2 0;
#X connect 0 0 6 0;
#X connect 0 0 7 0;
#X connect 0 0 14 0;
#X connect 1 0 4 1;
#X connect 1 0 6 1;
#X connect 1 0 10 0;
#X connect 1 0 12 0;
#X connect 2 0 3 0;
#X connect 3 0 4 0;
#X connect 4 0 18 0;
#X connect 6 0 19 0;
#X connect 7 0 8 0;
#X connect 8 0 9 0;
#X connect 9 0 20 0;
#X connect 10 0 11 0;
#X connect 11 0 9 1;
#X connect 12 0 13 0;
#X connect 13 0 14 0;
#X connect 14 0 21 0;
#X restore 1517 359 pd calcVolfromSig;
#N canvas 1662 348 361 300 calcVolfromSig 0;
#X obj 63 29 inlet~;
#X obj 142 28 inlet~;
#X obj 45 91 -~ 1;
#X obj 45 114 abs~;
#X obj 45 137 *~;
#X text 26 72 q1;
#X obj 98 92 *~;
#X obj 155 69 -~ 1;
#X obj 155 92 abs~;
#X obj 172 152 *~;
#X obj 200 69 -~ 1;
#X obj 200 92 abs~;
#X obj 248 106 -~ 1;
#X obj 248 129 abs~;
#X obj 247 155 *~;
#X text 122 95 q2;
#X text 188 46 q3;
#X text 255 87 q4;
#X obj 46 221 outlet~;
#X obj 103 221 outlet~;
#X obj 159 221 outlet~;
#X obj 216 221 outlet~;
#X connect 0 0 2 0;
#X connect 0 0 6 0;
#X connect 0 0 7 0;
#X connect 0 0 14 0;
#X connect 1 0 4 1;
#X connect 1 0 6 1;
#X connect 1 0 10 0;
#X connect 1 0 12 0;
#X connect 2 0 3 0;
#X connect 3 0 4 0;
#X connect 4 0 18 0;
#X connect 6 0 19 0;
#X connect 7 0 8 0;
#X connect 8 0 9 0;
#X connect 9 0 20 0;
#X connect 10 0 11 0;
#X connect 11 0 9 1;
#X connect 12 0 13 0;
#X connect 13 0 14 0;
#X connect 14 0 21 0;
#X restore 1705 360 pd calcVolfromSig;
#X obj 1516 430 r~ \$0-pano-bus-A;
#X obj 1585 537 *~;
#X obj 1636 536 *~;
#X obj 1531 537 *~;
#X obj 1690 538 *~;
#X obj 1406 591 s~ \$0-pano-out1-As;
#X obj 1521 591 s~ \$0-pano-out2-As;
#X obj 1636 591 s~ \$0-pano-out3-As;
#X obj 1751 591 s~ \$0-pano-out4-As;
#X obj 1078 1004 r~ \$0-pano-out1-As;
#X obj 1078 1025 r~ \$0-pano-out1-Bs;
#X obj 1333 997 r~ \$0-pano-out1-As;
#X obj 1333 1018 r~ \$0-pano-out1-Bs;
#X obj 1550 1023 r~ \$0-pano-out1-As;
#X obj 1550 1044 r~ \$0-pano-out1-Bs;
#X obj 1773 1026 r~ \$0-pano-out1-As;
#X obj 1773 1047 r~ \$0-pano-out1-Bs;
#X text 1654 138 EXTERNAL CONTROL;
#X obj 1938 495 *~;
#X obj 1989 494 *~;
#X obj 1884 495 *~;
#X obj 2043 496 *~;
#X obj 1869 388 r~ \$0-pano-bus-B;
#X obj 1759 554 s~ \$0-pano-out1-Bs;
#X obj 1875 554 s~ \$0-pano-out2-Bs;
#X obj 1991 554 s~ \$0-pano-out3-Bs;
#X obj 2106 554 s~ \$0-pano-out4-Bs;
#X obj 480 150 tgl 15 0 \$0-pano-ext-s \$0-pano-ext-r ext.control -22
-8 0 10 -262144 -1 -1 0 1;
#X obj 1408 820 r \$0-pano-ext-s;
#X obj 1408 843 sel 0 1;
#X msg 1408 866 1 0;
#X msg 1439 866 0 1;
#X obj 1408 889 unpack f f;
#X obj 1036 1000 *~;
#X obj 1009 1000 *~;
#X obj 1078 1060 *~;
#X obj 1050 1060 *~;
#X obj 1270 1000 *~;
#X obj 1241 1000 *~;
#X obj 1334 1054 *~;
#X obj 1307 1054 *~;
#X obj 1520 1014 *~;
#X obj 1492 1014 *~;
#X obj 1550 1067 *~;
#X obj 1522 1067 *~;
#X obj 1737 1007 *~;
#X obj 1710 1007 *~;
#X obj 1773 1070 *~;
#X obj 1746 1071 *~;
#X text 25 778 External signals can be connected to the X_A \, Y_A
\, X_B \, and X_Y inlets in order to have an external source control
the panning. The ext. control toggle must be on., f 41;
#X connect 1 0 27 0;
#X connect 2 0 28 0;
#X connect 3 0 46 0;
#X connect 4 0 47 0;
#X connect 5 0 48 0;
#X connect 6 0 49 0;
#X connect 29 0 55 0;
#X connect 30 0 33 0;
#X connect 30 1 31 0;
#X connect 30 2 31 1;
#X connect 30 3 31 2;
#X connect 31 0 32 0;
#X connect 35 0 56 0;
#X connect 35 0 74 0;
#X connect 36 0 56 1;
#X connect 36 0 74 1;
#X connect 50 0 7 0;
#X connect 51 0 8 0;
#X connect 55 0 30 0;
#X connect 56 0 57 0;
#X connect 57 1 58 0;
#X connect 57 2 58 1;
#X connect 58 0 59 0;
#X connect 60 0 62 0;
#X connect 60 1 63 0;
#X connect 61 0 60 0;
#X connect 62 0 126 0;
#X connect 62 0 130 0;
#X connect 63 0 127 0;
#X connect 63 0 131 0;
#X connect 72 1 73 0;
#X connect 72 2 73 1;
#X connect 73 0 83 0;
#X connect 74 0 72 0;
#X connect 76 0 77 0;
#X connect 76 1 78 0;
#X connect 77 0 128 0;
#X connect 77 0 133 0;
#X connect 78 0 129 0;
#X connect 78 0 134 0;
#X connect 80 0 76 0;
#X connect 84 0 85 0;
#X connect 84 0 86 0;
#X connect 84 0 87 0;
#X connect 84 0 88 0;
#X connect 85 0 96 0;
#X connect 86 0 95 0;
#X connect 87 0 97 0;
#X connect 88 0 94 0;
#X connect 89 0 120 0;
#X connect 89 0 91 0;
#X connect 90 0 92 0;
#X connect 92 0 87 1;
#X connect 92 0 142 0;
#X connect 92 1 85 1;
#X connect 92 1 143 0;
#X connect 92 2 86 1;
#X connect 92 2 144 0;
#X connect 92 3 88 1;
#X connect 92 3 145 0;
#X connect 93 0 209 0;
#X connect 98 0 213 0;
#X connect 99 0 217 0;
#X connect 100 0 221 0;
#X connect 101 0 109 0;
#X connect 102 0 110 0;
#X connect 103 0 108 0;
#X connect 104 0 111 0;
#X connect 105 0 103 1;
#X connect 105 1 101 1;
#X connect 105 2 102 1;
#X connect 105 3 104 1;
#X connect 106 0 101 0;
#X connect 106 0 102 0;
#X connect 106 0 103 0;
#X connect 106 0 104 0;
#X connect 107 0 105 0;
#X connect 112 0 208 0;
#X connect 113 0 212 0;
#X connect 114 0 216 0;
#X connect 115 0 220 0;
#X connect 119 0 116 0;
#X connect 120 0 121 0;
#X connect 120 1 122 0;
#X connect 120 2 123 0;
#X connect 120 3 124 0;
#X connect 126 0 89 0;
#X connect 127 0 89 1;
#X connect 128 0 119 0;
#X connect 129 0 119 1;
#X connect 130 0 53 0;
#X connect 131 0 54 0;
#X connect 133 0 81 0;
#X connect 134 0 82 0;
#X connect 138 0 161 0;
#X connect 138 0 161 1;
#X connect 139 0 164 0;
#X connect 139 0 164 1;
#X connect 140 0 167 0;
#X connect 140 0 167 1;
#X connect 141 0 170 0;
#X connect 141 0 170 1;
#X connect 149 0 151 0;
#X connect 151 0 152 0;
#X connect 152 0 150 0;
#X connect 161 0 162 0;
#X connect 162 0 163 0;
#X connect 163 0 173 0;
#X connect 164 0 165 0;
#X connect 165 0 166 0;
#X connect 166 0 173 1;
#X connect 167 0 168 0;
#X connect 168 0 169 0;
#X connect 169 0 174 0;
#X connect 170 0 171 0;
#X connect 171 0 172 0;
#X connect 172 0 174 1;
#X connect 173 0 178 1;
#X connect 173 1 176 1;
#X connect 173 2 177 1;
#X connect 173 3 179 1;
#X connect 174 0 195 1;
#X connect 174 1 193 1;
#X connect 174 2 194 1;
#X connect 174 3 196 1;
#X connect 175 0 176 0;
#X connect 175 0 177 0;
#X connect 175 0 178 0;
#X connect 175 0 179 0;
#X connect 176 0 181 0;
#X connect 177 0 182 0;
#X connect 178 0 180 0;
#X connect 179 0 183 0;
#X connect 184 0 211 0;
#X connect 185 0 210 0;
#X connect 186 0 215 0;
#X connect 187 0 214 0;
#X connect 188 0 219 0;
#X connect 189 0 218 0;
#X connect 190 0 223 0;
#X connect 191 0 222 0;
#X connect 193 0 199 0;
#X connect 194 0 200 0;
#X connect 195 0 198 0;
#X connect 196 0 201 0;
#X connect 197 0 193 0;
#X connect 197 0 194 0;
#X connect 197 0 195 0;
#X connect 197 0 196 0;
#X connect 203 0 204 0;
#X connect 204 0 205 0;
#X connect 204 1 206 0;
#X connect 205 0 207 0;
#X connect 206 0 207 0;
#X connect 207 0 209 1;
#X connect 207 0 208 1;
#X connect 207 0 213 1;
#X connect 207 0 212 1;
#X connect 207 0 217 1;
#X connect 207 0 216 1;
#X connect 207 0 221 1;
#X connect 207 0 220 1;
#X connect 207 1 211 1;
#X connect 207 1 210 1;
#X connect 207 1 215 1;
#X connect 207 1 214 1;
#X connect 207 1 219 1;
#X connect 207 1 218 1;
#X connect 207 1 223 1;
#X connect 207 1 222 1;
#X connect 208 0 9 0;
#X connect 209 0 9 0;
#X connect 210 0 9 0;
#X connect 211 0 9 0;
#X connect 212 0 10 0;
#X connect 213 0 10 0;
#X connect 214 0 10 0;
#X connect 215 0 10 0;
#X connect 216 0 11 0;
#X connect 217 0 11 0;
#X connect 218 0 11 0;
#X connect 219 0 11 0;
#X connect 220 0 12 0;
#X connect 221 0 12 0;
#X connect 222 0 12 0;
#X connect 223 0 12 0;
#X coords 0 -1 1 1 430 320 2 100 100;
