#N canvas 19 56 1261 676 10;
#X declare -lib moonlib;
#X obj 101 103 cnv 15 428 314 empty empty MASTER-MIXER_3201 10 35 0
15 -233017 -66577 0;
#X text 127 223 -- -- -10;
#X text 127 271 -- -- -30;
#X text 127 300 -- -- -40;
#X text 127 322 -- -- ∞;
#X text 127 247 -- -- -20;
#X obj 131 358 moonlib/mknob 25 100 0 127 0 0 \$0-channel1-pan-s \$0-channel1-pan-r
empty -2 -6 0 8 -1 -262144 -1 0 1;
#X obj 411 173 cnv 15 105 185 empty empty empty 20 12 0 14 -1 -66577
0;
#X obj 414 175 cnv 15 100 180 empty empty empty 20 12 0 14 -228856
-66577 0;
#X obj 225 427 inlet~ T1;
#X obj 296 427 inlet~ T2;
#X obj 362 427 inlet~ T3;
#X obj 197 359 moonlib/mknob 25 100 0 127 0 0 \$0-channel2-pan-s \$0-channel2-pan-r
empty -2 -6 0 8 -1 -262144 -1 0 1;
#X obj 265 359 moonlib/mknob 25 100 0 127 0 0 \$0-channel3-pan-s \$0-channel3-pan-r
empty -2 -6 0 8 -1 -262144 -1 0 1;
#X obj 338 359 moonlib/mknob 25 100 0 127 0 0 \$0-channel4-pan-s \$0-channel4-pan-r
empty -2 -6 0 8 -1 -262144 -1 0 1;
#X text 414 104 T2;
#X text 514 105 T3;
#X text 308 104 T1;
#X obj 124 174 hradio 12 1 0 3 \$0-switch1-s \$0-switch1-r T1_T2_T3
0 -8 0 10 -262144 -1 -1 0;
#X obj 190 174 hradio 12 1 0 3 \$0-switch2-s \$0-switch2-r T1_T2_T3
0 -8 0 10 -262144 -1 -1 0;
#X obj 260 174 hradio 12 1 0 3 \$0-switch3-s \$0-switch3-r T1_T2_T3
0 -8 0 10 -262144 -1 -1 0;
#X obj 332 174 hradio 12 1 0 3 \$0-switch4-s \$0-switch4-s T1_T2_T3
0 -8 0 10 -262144 -1 -1 2;
#X obj 156 587 outlet~ b;
#X obj 585 139 r \$0-channel1-volume-s;
#X obj 617 158 r \$0-channel1-pan-s;
#X obj 87 588 outlet~ a;
#X obj 666 179 r \$0-channel2-volume-s;
#X obj 703 198 r \$0-channel2-pan-s;
#X obj 261 536 line~;
#X obj 259 516 pack 0 50;
#X obj 165 528 line~;
#X obj 163 502 pack 0 50;
#X obj 137 555 *~;
#X obj 109 555 *~;
#X obj 96 426 inlet~ a;
#X obj 161 426 inlet~ b;
#X obj 540 441 *~;
#N canvas 612 128 450 300 rs0 0;
#X obj 153 83 inlet;
#X obj 151 110 == 0;
#X obj 150 137 tgl 15 0 empty empty empty 17 7 0 10 -262144 -1 -1 1
1;
#X obj 149 184 line~;
#X msg 148 160 \$1 100;
#X obj 147 215 outlet~;
#X connect 0 0 1 0;
#X connect 1 0 2 0;
#X connect 2 0 4 0;
#X connect 3 0 5 0;
#X connect 4 0 3 0;
#X restore 553 349 pd rs0;
#N canvas 612 128 450 300 rs1 0;
#X obj 153 83 inlet;
#X obj 150 137 tgl 15 0 empty empty empty 17 7 0 10 -262144 -1 -1 0
1;
#X obj 149 184 line~;
#X msg 148 160 \$1 100;
#X obj 147 215 outlet~;
#X obj 151 110 == 1;
#X connect 0 0 5 0;
#X connect 1 0 3 0;
#X connect 2 0 4 0;
#X connect 3 0 2 0;
#X connect 5 0 1 0;
#X restore 635 351 pd rs1;
#N canvas 612 128 450 300 rs2 0;
#X obj 153 83 inlet;
#X obj 150 137 tgl 15 0 empty empty empty 17 7 0 10 -262144 -1 -1 0
1;
#X obj 149 184 line~;
#X msg 148 160 \$1 100;
#X obj 147 215 outlet~;
#X obj 151 110 == 2;
#X connect 0 0 5 0;
#X connect 1 0 3 0;
#X connect 2 0 4 0;
#X connect 3 0 2 0;
#X connect 5 0 1 0;
#X restore 594 350 pd rs2;
#X obj 567 443 *~;
#X obj 600 443 *~;
#X obj 547 510 ../other_patches/volumeandpan~, f 11;
#X obj 164 448 r \$0-masterA-volume-s;
#N canvas 612 128 450 300 rs0 0;
#X obj 153 83 inlet;
#X obj 151 110 == 0;
#X obj 150 137 tgl 15 0 empty empty empty 17 7 0 10 -262144 -1 -1 1
1;
#X obj 149 184 line~;
#X msg 148 160 \$1 100;
#X obj 147 215 outlet~;
#X connect 0 0 1 0;
#X connect 1 0 2 0;
#X connect 2 0 4 0;
#X connect 3 0 5 0;
#X connect 4 0 3 0;
#X restore 679 350 pd rs0;
#N canvas 612 128 450 300 rs1 0;
#X obj 153 83 inlet;
#X obj 150 137 tgl 15 0 empty empty empty 17 7 0 10 -262144 -1 -1 0
1;
#X obj 149 184 line~;
#X msg 148 160 \$1 100;
#X obj 147 215 outlet~;
#X obj 151 110 == 1;
#X connect 0 0 5 0;
#X connect 1 0 3 0;
#X connect 2 0 4 0;
#X connect 3 0 2 0;
#X connect 5 0 1 0;
#X restore 721 350 pd rs1;
#N canvas 612 128 450 300 rs2 0;
#X obj 153 83 inlet;
#X obj 150 137 tgl 15 0 empty empty empty 17 7 0 10 -262144 -1 -1 0
1;
#X obj 149 184 line~;
#X msg 148 160 \$1 100;
#X obj 147 215 outlet~;
#X obj 151 110 == 2;
#X connect 0 0 5 0;
#X connect 1 0 3 0;
#X connect 2 0 4 0;
#X connect 3 0 2 0;
#X connect 5 0 1 0;
#X restore 767 350 pd rs2;
#X obj 629 443 *~;
#X obj 658 442 *~;
#X obj 690 444 *~;
#X obj 627 510 ../other_patches/volumeandpan~, f 11;
#X obj 262 467 r \$0-masterB-volume-s;
#N canvas 612 128 450 300 rs0 0;
#X obj 153 83 inlet;
#X obj 151 110 == 0;
#X obj 150 137 tgl 15 0 empty empty empty 17 7 0 10 -262144 -1 -1 1
1;
#X obj 149 184 line~;
#X msg 148 160 \$1 100;
#X obj 147 215 outlet~;
#X connect 0 0 1 0;
#X connect 1 0 2 0;
#X connect 2 0 4 0;
#X connect 3 0 5 0;
#X connect 4 0 3 0;
#X restore 811 350 pd rs0;
#N canvas 612 128 450 300 rs1 0;
#X obj 153 83 inlet;
#X obj 150 137 tgl 15 0 empty empty empty 17 7 0 10 -262144 -1 -1 0
1;
#X obj 149 184 line~;
#X msg 148 160 \$1 100;
#X obj 147 215 outlet~;
#X obj 151 110 == 1;
#X connect 0 0 5 0;
#X connect 1 0 3 0;
#X connect 2 0 4 0;
#X connect 3 0 2 0;
#X connect 5 0 1 0;
#X restore 856 349 pd rs1;
#N canvas 520 100 450 300 rs2 0;
#X obj 153 83 inlet;
#X obj 150 137 tgl 15 0 empty empty empty 17 7 0 10 -262144 -1 -1 0
1;
#X obj 149 184 line~;
#X msg 148 160 \$1 100;
#X obj 147 215 outlet~;
#X obj 151 110 == 2;
#X connect 0 0 5 0;
#X connect 1 0 3 0;
#X connect 2 0 4 0;
#X connect 3 0 2 0;
#X connect 5 0 1 0;
#X restore 900 350 pd rs2;
#N canvas 612 128 450 300 rs0 0;
#X obj 153 83 inlet;
#X obj 151 110 == 0;
#X obj 150 137 tgl 15 0 empty empty empty 17 7 0 10 -262144 -1 -1 0
1;
#X obj 149 184 line~;
#X msg 148 160 \$1 100;
#X obj 147 215 outlet~;
#X connect 0 0 1 0;
#X connect 1 0 2 0;
#X connect 2 0 4 0;
#X connect 3 0 5 0;
#X connect 4 0 3 0;
#X restore 946 352 pd rs0;
#N canvas 612 128 450 300 rs1 0;
#X obj 153 83 inlet;
#X obj 150 137 tgl 15 0 empty empty empty 17 7 0 10 -262144 -1 -1 0
1;
#X obj 149 184 line~;
#X msg 148 160 \$1 100;
#X obj 147 215 outlet~;
#X obj 151 110 == 1;
#X connect 0 0 5 0;
#X connect 1 0 3 0;
#X connect 2 0 4 0;
#X connect 3 0 2 0;
#X connect 5 0 1 0;
#X restore 988 352 pd rs1;
#N canvas 612 128 450 300 rs2 0;
#X obj 153 83 inlet;
#X obj 150 137 tgl 15 0 empty empty empty 17 7 0 10 -262144 -1 -1 0
1;
#X obj 149 184 line~;
#X msg 148 160 \$1 100;
#X obj 147 215 outlet~;
#X obj 151 110 == 2;
#X connect 0 0 5 0;
#X connect 1 0 3 0;
#X connect 2 0 4 0;
#X connect 3 0 2 0;
#X connect 5 0 1 0;
#X restore 1034 352 pd rs2;
#X obj 726 443 *~;
#X obj 755 442 *~;
#X obj 787 443 *~;
#X obj 717 509 ../other_patches/volumeandpan~, f 11;
#X obj 815 443 *~;
#X obj 844 442 *~;
#X obj 872 442 *~;
#X obj 812 511 ../other_patches/volumeandpan~, f 11;
#X obj 767 219 r \$0-channel3-volume-s;
#X obj 794 240 r \$0-channel3-pan-s;
#X obj 861 260 r \$0-channel4-volume-s;
#X obj 888 281 r \$0-channel4-pan-s;
#X obj 554 319 r \$0-switch1-s;
#X obj 676 318 r \$0-switch2-s;
#X obj 824 319 r \$0-switch3-s;
#X obj 947 321 r \$0-switch4-s;
#X obj 109 377 cnv 15 1 1 empty empty A<->B 20 12 0 10 -233017 -66577
0;
#X obj 175 377 cnv 15 1 1 empty empty A<->B 20 12 0 10 -233017 -66577
0;
#X obj 317 377 cnv 15 1 1 empty empty A<->B 20 12 0 10 -233017 -66577
0;
#X obj 243 378 cnv 15 1 1 empty empty A<->B 20 12 0 10 -233017 -66577
0;
#X obj 423 366 tgl 15 0 \$0-toggle-s \$0-toggle-r Monitor 0 21 0 10
-262144 -1 -1 0 1;
#X obj 924 443 *~;
#N canvas 612 128 450 300 rs1 0;
#X obj 153 83 inlet;
#X obj 150 137 tgl 15 0 empty empty empty 17 7 0 10 -262144 -1 -1 0
1;
#X obj 149 184 line~;
#X msg 148 160 \$1 100;
#X obj 147 215 outlet~;
#X obj 151 110 == 1;
#X connect 0 0 5 0;
#X connect 1 0 3 0;
#X connect 2 0 4 0;
#X connect 3 0 2 0;
#X connect 5 0 1 0;
#X restore 998 415 pd rs1;
#X obj 1000 390 r \$0-toggle-s;
#X obj 530 588 outlet~ ch1;
#X obj 636 586 outlet~ ch2;
#X obj 726 587 outlet~ ch3;
#X obj 820 585 outlet~ ch4;
#X obj 916 586 outlet~ mon;
#X obj 56 910 declare -lib moonlib;
#X obj 260 494 / 127;
#X obj 163 476 / 127;
#N canvas 154 23 1122 709 state-saving-multiple-instances 0;
#X obj 138 29 loadbang;
#X obj 729 407 textfile;
#X msg 703 331 rewind;
#X msg 660 331 bang;
#X obj 42 771 textfile;
#X obj 660 292 t b b;
#X obj 36 437 f;
#X obj 56 660 f;
#X obj -16 481 t b b b;
#X msg 119 660 clear;
#X obj 217 163 outlet;
#X text 260 167 INSTANCE NUMBER;
#X obj 170 90 f \$1;
#X obj 170 126 t f f f;
#X obj 138 62 t b b;
#X obj -16 458 bng 15 250 50 0 empty empty empty 17 7 0 10 -262144
-1 -1;
#X obj -16 314 r SAVE-S;
#X obj 222 37 r \$0-reload!;
#X text 319 40 RETURN TO PREVIOUS VALUE AFTER USING MORPH-SEQ module
;
#X text 64 119 WRITE side;
#X text 738 235 READ side;
#X text 375 751 i.e. "write statesave/\$1-\$2-PATCH_NAME-ss.txt";
#X text 330 732 <-----rename to match name of Pd patch;
#X text 1044 390 i.e. "write statesave/\$1-\$2-PATCH_NAME-ss.txt";
#X text 1002 374 <-----rename to match name of Pd patch;
#X text 262 482 <----- one "f" for each parameter;
#X text 388 518 <----- one "$N" for each parameter;
#X text 221 214 <-----rename to match send symbol of each GUI element
;
#X text 1003 565 <-----rename to match receive symbol of each GUI element
;
#X text 971 615 Keep these parameters in the same order on the WRITE
and READ sides;
#X text 1013 418 <----- one "f" for each parameter;
#X obj 43 466 pack f f f f f f f f f f f f f f f;
#X msg 43 518 set \$1 \$2 \$3 \$4 \$5 \$6 \$7 \$8 \$9 \$10 \$11 \$12
\$13 \$14 \$15;
#X obj 49 177 r \$0-masterA-volume-s;
#X obj 60 198 r \$0-masterB-volume-s;
#X obj 69 218 r \$0-channel1-volume-s;
#X obj 83 238 r \$0-channel2-volume-s;
#X obj 102 258 r \$0-channel3-volume-s;
#X obj 116 278 r \$0-channel4-volume-s;
#X obj 137 299 r \$0-channel1-pan-s;
#X obj 150 318 r \$0-channel2-pan-s;
#X obj 163 336 r \$0-channel3-pan-s;
#X obj 176 352 r \$0-channel4-pan-s;
#X obj 188 371 r \$0-switch1-s;
#X obj 199 390 r \$0-switch2-s;
#X obj 216 411 r \$0-switch3-s;
#X obj 234 429 r \$0-switch4-s;
#X obj 247 447 r \$0-toggle-s;
#X obj 729 429 unpack f f f f f f f f f f f f f f f;
#X obj 725 473 s \$0-masterA-volume-r;
#X obj 736 494 s \$0-masterB-volume-r;
#X obj 745 514 s \$0-channel1-volume-r;
#X obj 759 534 s \$0-channel2-volume-r;
#X obj 778 554 s \$0-channel3-volume-r;
#X obj 792 574 s \$0-channel4-volume-r;
#X obj 813 595 s \$0-channel1-pan-r;
#X obj 826 614 s \$0-channel2-pan-r;
#X obj 839 632 s \$0-channel3-pan-r;
#X obj 852 648 s \$0-channel4-pan-r;
#X obj 864 667 s \$0-switch1-r;
#X obj 875 686 s \$0-switch2-r;
#X obj 892 707 s \$0-switch3-r;
#X obj 910 725 s \$0-switch4-r;
#X obj 923 743 s \$0-toggle-r;
#X msg 55 731 write statesave/\$1-master-mixer-ss.txt;
#X msg 729 374 read statesave/\$1-master-mixer-ss.txt;
#X connect 0 0 14 0;
#X connect 1 0 48 0;
#X connect 2 0 1 0;
#X connect 3 0 1 0;
#X connect 5 0 3 0;
#X connect 5 1 2 0;
#X connect 6 0 31 0;
#X connect 7 0 64 0;
#X connect 8 0 7 0;
#X connect 8 1 6 0;
#X connect 8 2 9 0;
#X connect 9 0 4 0;
#X connect 12 0 13 0;
#X connect 13 0 7 1;
#X connect 13 1 65 0;
#X connect 13 2 10 0;
#X connect 14 0 5 0;
#X connect 14 1 12 0;
#X connect 15 0 8 0;
#X connect 16 0 15 0;
#X connect 17 0 14 0;
#X connect 31 0 32 0;
#X connect 32 0 4 0;
#X connect 33 0 6 1;
#X connect 34 0 31 1;
#X connect 35 0 31 2;
#X connect 36 0 31 3;
#X connect 37 0 31 4;
#X connect 38 0 31 5;
#X connect 39 0 31 6;
#X connect 40 0 31 7;
#X connect 41 0 31 8;
#X connect 42 0 31 9;
#X connect 43 0 31 10;
#X connect 44 0 31 11;
#X connect 45 0 31 12;
#X connect 46 0 31 13;
#X connect 47 0 31 14;
#X connect 48 0 49 0;
#X connect 48 1 50 0;
#X connect 48 2 51 0;
#X connect 48 3 52 0;
#X connect 48 4 53 0;
#X connect 48 5 54 0;
#X connect 48 6 55 0;
#X connect 48 7 56 0;
#X connect 48 8 57 0;
#X connect 48 9 58 0;
#X connect 48 10 59 0;
#X connect 48 11 60 0;
#X connect 48 12 61 0;
#X connect 48 13 62 0;
#X connect 48 14 63 0;
#X connect 64 0 4 0;
#X connect 65 0 1 0;
#X restore 56 1036 pd state-saving-multiple-instances;
#X obj 56 1151 s \$0-instance-num;
#X obj 56 1103 makefilename %d;
#X msg 56 1128 label \$1;
#N canvas 0 23 1280 708 state-saving-via-preset-manager-module 0;
#X obj 751 323 textfile;
#X msg 687 272 rewind;
#X msg 644 272 bang;
#X obj 109 816 textfile;
#X obj 644 233 t b b;
#X obj 107 334 f;
#X obj 120 557 f;
#X obj 53 452 t b b b;
#X msg 160 714 clear;
#X obj 107 156 delay 5;
#X obj 53 507 delay 10;
#X msg 53 292 bang;
#X obj 53 126 r STORE-S!;
#X obj 751 224 f;
#X obj 724 188 t b b;
#X obj 724 145 t b f;
#X obj 796 242 f \$1;
#X obj 751 269 pack f f;
#X obj 796 192 loadbang;
#X obj 120 587 pack f f;
#X obj 165 540 loadbang;
#X obj 165 562 f \$1;
#X obj 724 122 r preset-manager-scan;
#X obj 135 518 r preset-manager-store-slot;
#N canvas 0 22 1069 747 morph-frequencies 0;
#X obj 176 94 inlet;
#X obj 176 236 pack f f;
#X obj 176 261 line;
#X obj 209 117 r preset-manager-morph-s;
#X msg 72 244 stop;
#X obj 72 214 r STOP-MORPH!;
#X obj 398 102 r frequencies-s;
#X obj 209 206 spigot;
#X obj 398 137 t f f;
#X obj 455 154 == 0;
#X obj 221 176 f;
#X floatatom 455 222 5 0 0 0 - - -;
#X obj 398 159 t b f;
#X floatatom 425 192 5 0 0 0 - - -;
#X obj 209 139 t f f;
#X obj 176 283 outlet;
#X connect 0 0 1 0;
#X connect 1 0 2 0;
#X connect 2 0 15 0;
#X connect 3 0 14 0;
#X connect 4 0 2 0;
#X connect 5 0 4 0;
#X connect 6 0 8 0;
#X connect 7 0 1 1;
#X connect 8 0 12 0;
#X connect 8 1 9 0;
#X connect 9 0 11 0;
#X connect 10 0 7 0;
#X connect 11 0 1 1;
#X connect 12 0 10 0;
#X connect 12 1 13 0;
#X connect 13 0 7 1;
#X connect 14 0 7 0;
#X connect 14 1 10 1;
#X restore 268 664 pd morph-frequencies;
#N canvas 0 22 1069 747 morph-parameters 0;
#X obj 176 94 inlet;
#X obj 176 236 pack f f;
#X obj 176 261 line;
#X obj 209 117 r preset-manager-morph-s;
#X msg 72 244 stop;
#X obj 72 214 r STOP-MORPH!;
#X obj 209 206 spigot;
#X obj 398 137 t f f;
#X obj 455 154 == 0;
#X obj 221 176 f;
#X floatatom 455 222 5 0 0 0 - - -;
#X obj 398 159 t b f;
#X floatatom 425 192 5 0 0 0 - - -;
#X obj 209 139 t f f;
#X obj 398 102 r parameters-s;
#X obj 176 288 outlet;
#X connect 0 0 1 0;
#X connect 1 0 2 0;
#X connect 2 0 15 0;
#X connect 3 0 13 0;
#X connect 4 0 2 0;
#X connect 5 0 4 0;
#X connect 6 0 1 1;
#X connect 7 0 11 0;
#X connect 7 1 8 0;
#X connect 8 0 10 0;
#X connect 9 0 6 0;
#X connect 10 0 1 1;
#X connect 11 0 9 0;
#X connect 11 1 12 0;
#X connect 12 0 6 1;
#X connect 13 0 6 0;
#X connect 13 1 9 1;
#X connect 14 0 7 0;
#X restore 554 406 pd morph-parameters;
#X text 1027 297 <-----rename to match name of Pd patch;
#X text 1059 317 i.e. "read statesave/\$1-\$2-PATCH_NAME-ss.txt";
#X text 578 951 i.e. "write statesave/\$1-\$2-PATCH_NAME-ss.txt";
#X text 453 740 <-----rename to match name of Pd patch;
#X text 907 374 <----- one "f" for each parameter;
#X text 209 445 <----- one "$N" for each parameter;
#X obj 268 691 s \$0-noise-lowpass-r;
#X text 930 642 <-----rename to match receive symbol of each GUI element
;
#X text 992 524 <-----for binary (0 or 1) controls which do not morph
;
#X text 1032 544 (like switches) \, do not use [pd morph-paramaters]
;
#X text 898 692 Keep these parameters in the same order on the WRITE
and READ sides;
#X text 126 52 WRITE side;
#X text 727 44 READ side;
#X text 316 121 <-----rename to match send symbol of each GUI element
;
#X obj 168 413 pack f f f f f f f f f f f f f f f;
#X obj 172 120 r \$0-masterA-volume-s;
#X obj 185 145 r \$0-masterB-volume-s;
#X obj 194 165 r \$0-channel1-volume-s;
#X obj 208 185 r \$0-channel2-volume-s;
#X obj 227 205 r \$0-channel3-volume-s;
#X obj 241 225 r \$0-channel4-volume-s;
#X obj 262 246 r \$0-channel1-pan-s;
#X obj 275 265 r \$0-channel2-pan-s;
#X obj 288 283 r \$0-channel3-pan-s;
#X obj 301 299 r \$0-channel4-pan-s;
#X obj 313 318 r \$0-switch1-s;
#X obj 324 337 r \$0-switch2-s;
#X obj 341 358 r \$0-switch3-s;
#X obj 359 376 r \$0-switch4-s;
#X obj 372 394 r \$0-toggle-s;
#X text 179 172 comment;
#X msg 106 468 set \$1 \$2 \$3 \$4 \$5 \$6 \$7 \$8 \$9 \$10 \$11 \$12
\$13 \$14 \$15;
#X obj 677 372 unpack f f f f f f f f f f f f f f f;
#X obj 554 425 s \$0-masterA-volume-r;
#X obj 567 468 s \$0-masterB-volume-r;
#X obj 573 511 s \$0-channel1-volume-r;
#X obj 583 559 s \$0-channel2-volume-r;
#X obj 584 611 s \$0-channel3-volume-r;
#X obj 593 664 s \$0-channel4-volume-r;
#X obj 602 712 s \$0-channel1-pan-r;
#X obj 608 795 s \$0-channel2-pan-r;
#X obj 615 850 s \$0-channel3-pan-r;
#X obj 625 912 s \$0-channel4-pan-r;
#X obj 765 917 s \$0-switch1-r;
#X obj 884 917 s \$0-switch2-r;
#X obj 1005 923 s \$0-switch3-r;
#X obj 1137 929 s \$0-switch4-r;
#X obj 1052 443 s \$0-toggle-r;
#N canvas 0 22 1069 747 morph-parameters 0;
#X obj 176 94 inlet;
#X obj 176 236 pack f f;
#X obj 176 261 line;
#X obj 209 117 r preset-manager-morph-s;
#X msg 72 244 stop;
#X obj 72 214 r STOP-MORPH!;
#X obj 209 206 spigot;
#X obj 398 137 t f f;
#X obj 455 154 == 0;
#X obj 221 176 f;
#X floatatom 455 222 5 0 0 0 - - -;
#X obj 398 159 t b f;
#X floatatom 425 192 5 0 0 0 - - -;
#X obj 209 139 t f f;
#X obj 398 102 r parameters-s;
#X obj 176 288 outlet;
#X connect 0 0 1 0;
#X connect 1 0 2 0;
#X connect 2 0 15 0;
#X connect 3 0 13 0;
#X connect 4 0 2 0;
#X connect 5 0 4 0;
#X connect 6 0 1 1;
#X connect 7 0 11 0;
#X connect 7 1 8 0;
#X connect 8 0 10 0;
#X connect 9 0 6 0;
#X connect 10 0 1 1;
#X connect 11 0 9 0;
#X connect 11 1 12 0;
#X connect 12 0 6 1;
#X connect 13 0 6 0;
#X connect 13 1 9 1;
#X connect 14 0 7 0;
#X restore 570 446 pd morph-parameters;
#N canvas 0 22 1069 747 morph-parameters 0;
#X obj 176 94 inlet;
#X obj 176 236 pack f f;
#X obj 176 261 line;
#X obj 209 117 r preset-manager-morph-s;
#X msg 72 244 stop;
#X obj 72 214 r STOP-MORPH!;
#X obj 209 206 spigot;
#X obj 398 137 t f f;
#X obj 455 154 == 0;
#X obj 221 176 f;
#X floatatom 455 222 5 0 0 0 - - -;
#X obj 398 159 t b f;
#X floatatom 425 192 5 0 0 0 - - -;
#X obj 209 139 t f f;
#X obj 398 102 r parameters-s;
#X obj 176 288 outlet;
#X connect 0 0 1 0;
#X connect 1 0 2 0;
#X connect 2 0 15 0;
#X connect 3 0 13 0;
#X connect 4 0 2 0;
#X connect 5 0 4 0;
#X connect 6 0 1 1;
#X connect 7 0 11 0;
#X connect 7 1 8 0;
#X connect 8 0 10 0;
#X connect 9 0 6 0;
#X connect 10 0 1 1;
#X connect 11 0 9 0;
#X connect 11 1 12 0;
#X connect 12 0 6 1;
#X connect 13 0 6 0;
#X connect 13 1 9 1;
#X connect 14 0 7 0;
#X restore 576 489 pd morph-parameters;
#N canvas 0 22 1069 747 morph-parameters 0;
#X obj 176 94 inlet;
#X obj 176 236 pack f f;
#X obj 176 261 line;
#X obj 209 117 r preset-manager-morph-s;
#X msg 72 244 stop;
#X obj 72 214 r STOP-MORPH!;
#X obj 209 206 spigot;
#X obj 398 137 t f f;
#X obj 455 154 == 0;
#X obj 221 176 f;
#X floatatom 455 222 5 0 0 0 - - -;
#X obj 398 159 t b f;
#X floatatom 425 192 5 0 0 0 - - -;
#X obj 209 139 t f f;
#X obj 398 102 r parameters-s;
#X obj 176 288 outlet;
#X connect 0 0 1 0;
#X connect 1 0 2 0;
#X connect 2 0 15 0;
#X connect 3 0 13 0;
#X connect 4 0 2 0;
#X connect 5 0 4 0;
#X connect 6 0 1 1;
#X connect 7 0 11 0;
#X connect 7 1 8 0;
#X connect 8 0 10 0;
#X connect 9 0 6 0;
#X connect 10 0 1 1;
#X connect 11 0 9 0;
#X connect 11 1 12 0;
#X connect 12 0 6 1;
#X connect 13 0 6 0;
#X connect 13 1 9 1;
#X connect 14 0 7 0;
#X restore 579 535 pd morph-parameters;
#N canvas 0 22 1069 747 morph-parameters 0;
#X obj 176 94 inlet;
#X obj 176 236 pack f f;
#X obj 176 261 line;
#X obj 209 117 r preset-manager-morph-s;
#X msg 72 244 stop;
#X obj 72 214 r STOP-MORPH!;
#X obj 209 206 spigot;
#X obj 398 137 t f f;
#X obj 455 154 == 0;
#X obj 221 176 f;
#X floatatom 455 222 5 0 0 0 - - -;
#X obj 398 159 t b f;
#X floatatom 425 192 5 0 0 0 - - -;
#X obj 209 139 t f f;
#X obj 398 102 r parameters-s;
#X obj 176 288 outlet;
#X connect 0 0 1 0;
#X connect 1 0 2 0;
#X connect 2 0 15 0;
#X connect 3 0 13 0;
#X connect 4 0 2 0;
#X connect 5 0 4 0;
#X connect 6 0 1 1;
#X connect 7 0 11 0;
#X connect 7 1 8 0;
#X connect 8 0 10 0;
#X connect 9 0 6 0;
#X connect 10 0 1 1;
#X connect 11 0 9 0;
#X connect 11 1 12 0;
#X connect 12 0 6 1;
#X connect 13 0 6 0;
#X connect 13 1 9 1;
#X connect 14 0 7 0;
#X restore 586 588 pd morph-parameters;
#N canvas 0 22 1069 747 morph-parameters 0;
#X obj 176 94 inlet;
#X obj 176 236 pack f f;
#X obj 176 261 line;
#X obj 209 117 r preset-manager-morph-s;
#X msg 72 244 stop;
#X obj 72 214 r STOP-MORPH!;
#X obj 209 206 spigot;
#X obj 398 137 t f f;
#X obj 455 154 == 0;
#X obj 221 176 f;
#X floatatom 455 222 5 0 0 0 - - -;
#X obj 398 159 t b f;
#X floatatom 425 192 5 0 0 0 - - -;
#X obj 209 139 t f f;
#X obj 398 102 r parameters-s;
#X obj 176 288 outlet;
#X connect 0 0 1 0;
#X connect 1 0 2 0;
#X connect 2 0 15 0;
#X connect 3 0 13 0;
#X connect 4 0 2 0;
#X connect 5 0 4 0;
#X connect 6 0 1 1;
#X connect 7 0 11 0;
#X connect 7 1 8 0;
#X connect 8 0 10 0;
#X connect 9 0 6 0;
#X connect 10 0 1 1;
#X connect 11 0 9 0;
#X connect 11 1 12 0;
#X connect 12 0 6 1;
#X connect 13 0 6 0;
#X connect 13 1 9 1;
#X connect 14 0 7 0;
#X restore 591 640 pd morph-parameters;
#N canvas 0 22 1069 747 morph-parameters 0;
#X obj 176 94 inlet;
#X obj 176 236 pack f f;
#X obj 176 261 line;
#X obj 209 117 r preset-manager-morph-s;
#X msg 72 244 stop;
#X obj 72 214 r STOP-MORPH!;
#X obj 209 206 spigot;
#X obj 398 137 t f f;
#X obj 455 154 == 0;
#X obj 221 176 f;
#X floatatom 455 222 5 0 0 0 - - -;
#X obj 398 159 t b f;
#X floatatom 425 192 5 0 0 0 - - -;
#X obj 209 139 t f f;
#X obj 398 102 r parameters-s;
#X obj 176 288 outlet;
#X connect 0 0 1 0;
#X connect 1 0 2 0;
#X connect 2 0 15 0;
#X connect 3 0 13 0;
#X connect 4 0 2 0;
#X connect 5 0 4 0;
#X connect 6 0 1 1;
#X connect 7 0 11 0;
#X connect 7 1 8 0;
#X connect 8 0 10 0;
#X connect 9 0 6 0;
#X connect 10 0 1 1;
#X connect 11 0 9 0;
#X connect 11 1 12 0;
#X connect 12 0 6 1;
#X connect 13 0 6 0;
#X connect 13 1 9 1;
#X connect 14 0 7 0;
#X restore 600 690 pd morph-parameters;
#N canvas 0 22 1069 747 morph-parameters 0;
#X obj 176 94 inlet;
#X obj 176 236 pack f f;
#X obj 176 261 line;
#X obj 209 117 r preset-manager-morph-s;
#X msg 72 244 stop;
#X obj 72 214 r STOP-MORPH!;
#X obj 209 206 spigot;
#X obj 398 137 t f f;
#X obj 455 154 == 0;
#X obj 221 176 f;
#X floatatom 455 222 5 0 0 0 - - -;
#X obj 398 159 t b f;
#X floatatom 425 192 5 0 0 0 - - -;
#X obj 209 139 t f f;
#X obj 398 102 r parameters-s;
#X obj 176 288 outlet;
#X connect 0 0 1 0;
#X connect 1 0 2 0;
#X connect 2 0 15 0;
#X connect 3 0 13 0;
#X connect 4 0 2 0;
#X connect 5 0 4 0;
#X connect 6 0 1 1;
#X connect 7 0 11 0;
#X connect 7 1 8 0;
#X connect 8 0 10 0;
#X connect 9 0 6 0;
#X connect 10 0 1 1;
#X connect 11 0 9 0;
#X connect 11 1 12 0;
#X connect 12 0 6 1;
#X connect 13 0 6 0;
#X connect 13 1 9 1;
#X connect 14 0 7 0;
#X restore 609 761 pd morph-parameters;
#N canvas 0 22 1069 747 morph-parameters 0;
#X obj 176 94 inlet;
#X obj 176 236 pack f f;
#X obj 176 261 line;
#X obj 209 117 r preset-manager-morph-s;
#X msg 72 244 stop;
#X obj 72 214 r STOP-MORPH!;
#X obj 209 206 spigot;
#X obj 398 137 t f f;
#X obj 455 154 == 0;
#X obj 221 176 f;
#X floatatom 455 222 5 0 0 0 - - -;
#X obj 398 159 t b f;
#X floatatom 425 192 5 0 0 0 - - -;
#X obj 209 139 t f f;
#X obj 398 102 r parameters-s;
#X obj 176 288 outlet;
#X connect 0 0 1 0;
#X connect 1 0 2 0;
#X connect 2 0 15 0;
#X connect 3 0 13 0;
#X connect 4 0 2 0;
#X connect 5 0 4 0;
#X connect 6 0 1 1;
#X connect 7 0 11 0;
#X connect 7 1 8 0;
#X connect 8 0 10 0;
#X connect 9 0 6 0;
#X connect 10 0 1 1;
#X connect 11 0 9 0;
#X connect 11 1 12 0;
#X connect 12 0 6 1;
#X connect 13 0 6 0;
#X connect 13 1 9 1;
#X connect 14 0 7 0;
#X restore 616 821 pd morph-parameters;
#N canvas 0 22 1069 747 morph-parameters 0;
#X obj 176 94 inlet;
#X obj 176 236 pack f f;
#X obj 176 261 line;
#X obj 209 117 r preset-manager-morph-s;
#X msg 72 244 stop;
#X obj 72 214 r STOP-MORPH!;
#X obj 209 206 spigot;
#X obj 398 137 t f f;
#X obj 455 154 == 0;
#X obj 221 176 f;
#X floatatom 455 222 5 0 0 0 - - -;
#X obj 398 159 t b f;
#X floatatom 425 192 5 0 0 0 - - -;
#X obj 209 139 t f f;
#X obj 398 102 r parameters-s;
#X obj 176 288 outlet;
#X connect 0 0 1 0;
#X connect 1 0 2 0;
#X connect 2 0 15 0;
#X connect 3 0 13 0;
#X connect 4 0 2 0;
#X connect 5 0 4 0;
#X connect 6 0 1 1;
#X connect 7 0 11 0;
#X connect 7 1 8 0;
#X connect 8 0 10 0;
#X connect 9 0 6 0;
#X connect 10 0 1 1;
#X connect 11 0 9 0;
#X connect 11 1 12 0;
#X connect 12 0 6 1;
#X connect 13 0 6 0;
#X connect 13 1 9 1;
#X connect 14 0 7 0;
#X restore 625 881 pd morph-parameters;
#N canvas 0 22 1069 747 morph-parameters 0;
#X obj 176 94 inlet;
#X obj 176 236 pack f f;
#X obj 176 261 line;
#X obj 209 117 r preset-manager-morph-s;
#X msg 72 244 stop;
#X obj 72 214 r STOP-MORPH!;
#X obj 209 206 spigot;
#X obj 398 137 t f f;
#X obj 455 154 == 0;
#X obj 221 176 f;
#X floatatom 455 222 5 0 0 0 - - -;
#X obj 398 159 t b f;
#X floatatom 425 192 5 0 0 0 - - -;
#X obj 209 139 t f f;
#X obj 398 102 r parameters-s;
#X obj 176 288 outlet;
#X connect 0 0 1 0;
#X connect 1 0 2 0;
#X connect 2 0 15 0;
#X connect 3 0 13 0;
#X connect 4 0 2 0;
#X connect 5 0 4 0;
#X connect 6 0 1 1;
#X connect 7 0 11 0;
#X connect 7 1 8 0;
#X connect 8 0 10 0;
#X connect 9 0 6 0;
#X connect 10 0 1 1;
#X connect 11 0 9 0;
#X connect 11 1 12 0;
#X connect 12 0 6 1;
#X connect 13 0 6 0;
#X connect 13 1 9 1;
#X connect 14 0 7 0;
#X restore 760 886 pd morph-parameters;
#N canvas 0 22 1069 747 morph-parameters 0;
#X obj 176 94 inlet;
#X obj 176 236 pack f f;
#X obj 176 261 line;
#X obj 209 117 r preset-manager-morph-s;
#X msg 72 244 stop;
#X obj 72 214 r STOP-MORPH!;
#X obj 209 206 spigot;
#X obj 398 137 t f f;
#X obj 455 154 == 0;
#X obj 221 176 f;
#X floatatom 455 222 5 0 0 0 - - -;
#X obj 398 159 t b f;
#X floatatom 425 192 5 0 0 0 - - -;
#X obj 209 139 t f f;
#X obj 398 102 r parameters-s;
#X obj 176 288 outlet;
#X connect 0 0 1 0;
#X connect 1 0 2 0;
#X connect 2 0 15 0;
#X connect 3 0 13 0;
#X connect 4 0 2 0;
#X connect 5 0 4 0;
#X connect 6 0 1 1;
#X connect 7 0 11 0;
#X connect 7 1 8 0;
#X connect 8 0 10 0;
#X connect 9 0 6 0;
#X connect 10 0 1 1;
#X connect 11 0 9 0;
#X connect 11 1 12 0;
#X connect 12 0 6 1;
#X connect 13 0 6 0;
#X connect 13 1 9 1;
#X connect 14 0 7 0;
#X restore 882 894 pd morph-parameters;
#N canvas 0 22 1069 747 morph-parameters 0;
#X obj 176 94 inlet;
#X obj 176 236 pack f f;
#X obj 176 261 line;
#X obj 209 117 r preset-manager-morph-s;
#X msg 72 244 stop;
#X obj 72 214 r STOP-MORPH!;
#X obj 209 206 spigot;
#X obj 398 137 t f f;
#X obj 455 154 == 0;
#X obj 221 176 f;
#X floatatom 455 222 5 0 0 0 - - -;
#X obj 398 159 t b f;
#X floatatom 425 192 5 0 0 0 - - -;
#X obj 209 139 t f f;
#X obj 398 102 r parameters-s;
#X obj 176 288 outlet;
#X connect 0 0 1 0;
#X connect 1 0 2 0;
#X connect 2 0 15 0;
#X connect 3 0 13 0;
#X connect 4 0 2 0;
#X connect 5 0 4 0;
#X connect 6 0 1 1;
#X connect 7 0 11 0;
#X connect 7 1 8 0;
#X connect 8 0 10 0;
#X connect 9 0 6 0;
#X connect 10 0 1 1;
#X connect 11 0 9 0;
#X connect 11 1 12 0;
#X connect 12 0 6 1;
#X connect 13 0 6 0;
#X connect 13 1 9 1;
#X connect 14 0 7 0;
#X restore 1007 896 pd morph-parameters;
#N canvas 0 22 1069 747 morph-parameters 0;
#X obj 176 94 inlet;
#X obj 176 236 pack f f;
#X obj 176 261 line;
#X obj 209 117 r preset-manager-morph-s;
#X msg 72 244 stop;
#X obj 72 214 r STOP-MORPH!;
#X obj 209 206 spigot;
#X obj 398 137 t f f;
#X obj 455 154 == 0;
#X obj 221 176 f;
#X floatatom 455 222 5 0 0 0 - - -;
#X obj 398 159 t b f;
#X floatatom 425 192 5 0 0 0 - - -;
#X obj 209 139 t f f;
#X obj 398 102 r parameters-s;
#X obj 176 288 outlet;
#X connect 0 0 1 0;
#X connect 1 0 2 0;
#X connect 2 0 15 0;
#X connect 3 0 13 0;
#X connect 4 0 2 0;
#X connect 5 0 4 0;
#X connect 6 0 1 1;
#X connect 7 0 11 0;
#X connect 7 1 8 0;
#X connect 8 0 10 0;
#X connect 9 0 6 0;
#X connect 10 0 1 1;
#X connect 11 0 9 0;
#X connect 11 1 12 0;
#X connect 12 0 6 1;
#X connect 13 0 6 0;
#X connect 13 1 9 1;
#X connect 14 0 7 0;
#X restore 1136 895 pd morph-parameters;
#X msg 159 741 write statesave/\$1-master-mixer-ss.txt;
#X msg 751 298 read statesave/\$1-master-mixer-ss.txt;
#X connect 0 0 58 0;
#X connect 1 0 0 0;
#X connect 2 0 0 0;
#X connect 4 0 2 0;
#X connect 4 1 1 0;
#X connect 5 0 40 0;
#X connect 6 0 19 0;
#X connect 7 0 10 0;
#X connect 7 1 9 0;
#X connect 7 2 8 0;
#X connect 8 0 3 0;
#X connect 9 0 5 0;
#X connect 10 0 6 0;
#X connect 11 0 7 0;
#X connect 12 0 11 0;
#X connect 13 0 17 0;
#X connect 14 0 4 0;
#X connect 14 1 13 0;
#X connect 15 0 14 0;
#X connect 15 1 13 1;
#X connect 16 0 17 1;
#X connect 17 0 88 0;
#X connect 18 0 16 0;
#X connect 19 0 87 0;
#X connect 20 0 21 0;
#X connect 21 0 19 1;
#X connect 22 0 15 0;
#X connect 23 0 6 1;
#X connect 24 0 32 0;
#X connect 25 0 59 0;
#X connect 40 0 57 0;
#X connect 41 0 5 1;
#X connect 42 0 40 1;
#X connect 43 0 40 2;
#X connect 44 0 40 3;
#X connect 45 0 40 4;
#X connect 46 0 40 5;
#X connect 47 0 40 6;
#X connect 48 0 40 7;
#X connect 49 0 40 8;
#X connect 50 0 40 9;
#X connect 51 0 40 10;
#X connect 52 0 40 11;
#X connect 53 0 40 12;
#X connect 54 0 40 13;
#X connect 55 0 40 14;
#X connect 57 0 3 0;
#X connect 58 0 25 0;
#X connect 58 1 74 0;
#X connect 58 2 75 0;
#X connect 58 3 76 0;
#X connect 58 4 77 0;
#X connect 58 5 78 0;
#X connect 58 6 79 0;
#X connect 58 7 80 0;
#X connect 58 8 81 0;
#X connect 58 9 82 0;
#X connect 58 10 83 0;
#X connect 58 11 84 0;
#X connect 58 12 85 0;
#X connect 58 13 86 0;
#X connect 58 14 73 0;
#X connect 74 0 60 0;
#X connect 75 0 61 0;
#X connect 76 0 62 0;
#X connect 77 0 63 0;
#X connect 78 0 64 0;
#X connect 79 0 65 0;
#X connect 80 0 66 0;
#X connect 81 0 67 0;
#X connect 82 0 68 0;
#X connect 83 0 69 0;
#X connect 84 0 70 0;
#X connect 85 0 71 0;
#X connect 86 0 72 0;
#X connect 87 0 3 0;
#X connect 88 0 0 0;
#X restore 57 1008 pd state-saving-via-preset-manager-module;
#N canvas 235 31 965 698 parameter-nudging-system 0;
#X obj 56 79 clip 0 127;
#N canvas 0 22 484 497 nudge-attenuators 0;
#X obj 124 234 random;
#X obj 232 335 f;
#X obj 232 368 +;
#X obj 257 166 random 2;
#X obj 124 275 t f f;
#X obj 124 351 t b f;
#X obj 124 297 *;
#X obj 257 188 sel 0 1;
#X msg 257 280 -1;
#X msg 335 280 1;
#X obj 124 149 t b b b;
#X obj 124 71 r NUDGE!;
#X obj 157 193 r NUDGE-RANGE;
#X obj 247 308 inlet;
#X obj 232 397 outlet;
#X obj 124 93 spigot;
#X obj 201 76 r attenuators2-s;
#X connect 0 0 4 0;
#X connect 1 0 2 0;
#X connect 2 0 14 0;
#X connect 3 0 7 0;
#X connect 4 0 6 0;
#X connect 5 0 2 0;
#X connect 5 1 2 1;
#X connect 6 0 5 0;
#X connect 7 0 8 0;
#X connect 7 1 9 0;
#X connect 8 0 6 1;
#X connect 9 0 6 1;
#X connect 10 0 0 0;
#X connect 10 1 1 0;
#X connect 10 2 3 0;
#X connect 11 0 15 0;
#X connect 12 0 0 1;
#X connect 13 0 1 1;
#X connect 15 0 10 0;
#X connect 16 0 15 1;
#X restore 56 57 pd nudge-attenuators;
#X obj 58 188 clip 0 127;
#N canvas 0 22 484 497 nudge-attenuators 0;
#X obj 124 234 random;
#X obj 232 335 f;
#X obj 232 368 +;
#X obj 257 166 random 2;
#X obj 124 275 t f f;
#X obj 124 351 t b f;
#X obj 124 297 *;
#X obj 257 188 sel 0 1;
#X msg 257 280 -1;
#X msg 335 280 1;
#X obj 124 149 t b b b;
#X obj 124 71 r NUDGE!;
#X obj 157 193 r NUDGE-RANGE;
#X obj 247 308 inlet;
#X obj 232 397 outlet;
#X obj 124 93 spigot;
#X obj 201 76 r attenuators2-s;
#X connect 0 0 4 0;
#X connect 1 0 2 0;
#X connect 2 0 14 0;
#X connect 3 0 7 0;
#X connect 4 0 6 0;
#X connect 5 0 2 0;
#X connect 5 1 2 1;
#X connect 6 0 5 0;
#X connect 7 0 8 0;
#X connect 7 1 9 0;
#X connect 8 0 6 1;
#X connect 9 0 6 1;
#X connect 10 0 0 0;
#X connect 10 1 1 0;
#X connect 10 2 3 0;
#X connect 11 0 15 0;
#X connect 12 0 0 1;
#X connect 13 0 1 1;
#X connect 15 0 10 0;
#X connect 16 0 15 1;
#X restore 56 165 pd nudge-attenuators;
#X text 372 561 <-----you will need one structure like this for each
parameter;
#X text 345 623 <-----rename to match receive symbol of each GUI element
;
#X text 268 64 <-----you will need one structure like this for each
parameter;
#X text 221 115 <-----rename to match receive symbol of each GUI element
;
#X text 222 28 <-----rename to match send symbol of each GUI element
;
#X obj 57 106 s \$0-masterA-volume-r;
#X obj 56 217 s \$0-masterB-volume-r;
#X obj 56 324 s \$0-channel1-volume-r;
#X obj 60 420 s \$0-channel2-volume-r;
#X obj 58 520 s \$0-channel3-volume-r;
#X obj 59 624 s \$0-channel4-volume-r;
#X obj 213 617 s \$0-channel1-pan-r;
#X obj 219 518 s \$0-channel2-pan-r;
#X obj 354 518 s \$0-channel3-pan-r;
#X obj 487 519 s \$0-channel4-pan-r;
#X obj 721 623 s \$0-switch1-r;
#X obj 856 614 s \$0-switch2-r;
#X obj 984 622 s \$0-switch3-r;
#X obj 1122 620 s \$0-switch4-r;
#X obj 606 405 s \$0-toggle-r;
#X text 664 211 <-----rename to match send symbol of each GUI element
;
#X obj 55 33 r \$0-masterA-volume-s;
#X obj 55 136 r \$0-masterB-volume-s;
#X obj 57 244 r \$0-channel1-volume-s;
#X obj 59 344 r \$0-channel2-volume-s;
#X obj 59 447 r \$0-channel3-volume-s;
#X obj 59 549 r \$0-channel4-volume-s;
#X obj 214 550 r \$0-channel1-pan-s;
#X obj 219 443 r \$0-channel2-pan-s;
#X obj 355 447 r \$0-channel3-pan-s;
#X obj 489 444 r \$0-channel4-pan-s;
#X obj 720 547 r \$0-switch1-s;
#X obj 855 543 r \$0-switch2-s;
#X obj 985 542 r \$0-switch3-s;
#X obj 1118 540 r \$0-switch4-s;
#X obj 606 339 r \$0-toggle-s;
#X obj 57 301 clip 0 127;
#N canvas 0 22 484 497 nudge-attenuators 0;
#X obj 124 234 random;
#X obj 232 335 f;
#X obj 232 368 +;
#X obj 257 166 random 2;
#X obj 124 275 t f f;
#X obj 124 351 t b f;
#X obj 124 297 *;
#X obj 257 188 sel 0 1;
#X msg 257 280 -1;
#X msg 335 280 1;
#X obj 124 149 t b b b;
#X obj 124 71 r NUDGE!;
#X obj 157 193 r NUDGE-RANGE;
#X obj 247 308 inlet;
#X obj 232 397 outlet;
#X obj 124 93 spigot;
#X obj 201 76 r attenuators2-s;
#X connect 0 0 4 0;
#X connect 1 0 2 0;
#X connect 2 0 14 0;
#X connect 3 0 7 0;
#X connect 4 0 6 0;
#X connect 5 0 2 0;
#X connect 5 1 2 1;
#X connect 6 0 5 0;
#X connect 7 0 8 0;
#X connect 7 1 9 0;
#X connect 8 0 6 1;
#X connect 9 0 6 1;
#X connect 10 0 0 0;
#X connect 10 1 1 0;
#X connect 10 2 3 0;
#X connect 11 0 15 0;
#X connect 12 0 0 1;
#X connect 13 0 1 1;
#X connect 15 0 10 0;
#X connect 16 0 15 1;
#X restore 57 279 pd nudge-attenuators;
#X obj 58 393 clip 0 127;
#N canvas 0 22 484 497 nudge-attenuators 0;
#X obj 124 234 random;
#X obj 232 335 f;
#X obj 232 368 +;
#X obj 257 166 random 2;
#X obj 124 275 t f f;
#X obj 124 351 t b f;
#X obj 124 297 *;
#X obj 257 188 sel 0 1;
#X msg 257 280 -1;
#X msg 335 280 1;
#X obj 124 149 t b b b;
#X obj 124 71 r NUDGE!;
#X obj 157 193 r NUDGE-RANGE;
#X obj 247 308 inlet;
#X obj 232 397 outlet;
#X obj 124 93 spigot;
#X obj 201 76 r attenuators2-s;
#X connect 0 0 4 0;
#X connect 1 0 2 0;
#X connect 2 0 14 0;
#X connect 3 0 7 0;
#X connect 4 0 6 0;
#X connect 5 0 2 0;
#X connect 5 1 2 1;
#X connect 6 0 5 0;
#X connect 7 0 8 0;
#X connect 7 1 9 0;
#X connect 8 0 6 1;
#X connect 9 0 6 1;
#X connect 10 0 0 0;
#X connect 10 1 1 0;
#X connect 10 2 3 0;
#X connect 11 0 15 0;
#X connect 12 0 0 1;
#X connect 13 0 1 1;
#X connect 15 0 10 0;
#X connect 16 0 15 1;
#X restore 58 371 pd nudge-attenuators;
#X obj 59 495 clip 0 127;
#N canvas 0 22 484 497 nudge-attenuators 0;
#X obj 124 234 random;
#X obj 232 335 f;
#X obj 232 368 +;
#X obj 257 166 random 2;
#X obj 124 275 t f f;
#X obj 124 351 t b f;
#X obj 124 297 *;
#X obj 257 188 sel 0 1;
#X msg 257 280 -1;
#X msg 335 280 1;
#X obj 124 149 t b b b;
#X obj 124 71 r NUDGE!;
#X obj 157 193 r NUDGE-RANGE;
#X obj 247 308 inlet;
#X obj 232 397 outlet;
#X obj 124 93 spigot;
#X obj 201 76 r attenuators2-s;
#X connect 0 0 4 0;
#X connect 1 0 2 0;
#X connect 2 0 14 0;
#X connect 3 0 7 0;
#X connect 4 0 6 0;
#X connect 5 0 2 0;
#X connect 5 1 2 1;
#X connect 6 0 5 0;
#X connect 7 0 8 0;
#X connect 7 1 9 0;
#X connect 8 0 6 1;
#X connect 9 0 6 1;
#X connect 10 0 0 0;
#X connect 10 1 1 0;
#X connect 10 2 3 0;
#X connect 11 0 15 0;
#X connect 12 0 0 1;
#X connect 13 0 1 1;
#X connect 15 0 10 0;
#X connect 16 0 15 1;
#X restore 59 473 pd nudge-attenuators;
#X obj 59 597 clip 0 127;
#N canvas 0 22 484 497 nudge-attenuators 0;
#X obj 124 234 random;
#X obj 232 335 f;
#X obj 232 368 +;
#X obj 257 166 random 2;
#X obj 124 275 t f f;
#X obj 124 351 t b f;
#X obj 124 297 *;
#X obj 257 188 sel 0 1;
#X msg 257 280 -1;
#X msg 335 280 1;
#X obj 124 149 t b b b;
#X obj 124 71 r NUDGE!;
#X obj 157 193 r NUDGE-RANGE;
#X obj 247 308 inlet;
#X obj 232 397 outlet;
#X obj 124 93 spigot;
#X obj 201 76 r attenuators2-s;
#X connect 0 0 4 0;
#X connect 1 0 2 0;
#X connect 2 0 14 0;
#X connect 3 0 7 0;
#X connect 4 0 6 0;
#X connect 5 0 2 0;
#X connect 5 1 2 1;
#X connect 6 0 5 0;
#X connect 7 0 8 0;
#X connect 7 1 9 0;
#X connect 8 0 6 1;
#X connect 9 0 6 1;
#X connect 10 0 0 0;
#X connect 10 1 1 0;
#X connect 10 2 3 0;
#X connect 11 0 15 0;
#X connect 12 0 0 1;
#X connect 13 0 1 1;
#X connect 15 0 10 0;
#X connect 16 0 15 1;
#X restore 59 575 pd nudge-attenuators;
#X obj 214 596 clip 0 127;
#N canvas 0 22 484 497 nudge-attenuators 0;
#X obj 124 234 random;
#X obj 232 335 f;
#X obj 232 368 +;
#X obj 257 166 random 2;
#X obj 124 275 t f f;
#X obj 124 351 t b f;
#X obj 124 297 *;
#X obj 257 188 sel 0 1;
#X msg 257 280 -1;
#X msg 335 280 1;
#X obj 124 149 t b b b;
#X obj 124 71 r NUDGE!;
#X obj 157 193 r NUDGE-RANGE;
#X obj 247 308 inlet;
#X obj 232 397 outlet;
#X obj 124 93 spigot;
#X obj 201 76 r attenuators2-s;
#X connect 0 0 4 0;
#X connect 1 0 2 0;
#X connect 2 0 14 0;
#X connect 3 0 7 0;
#X connect 4 0 6 0;
#X connect 5 0 2 0;
#X connect 5 1 2 1;
#X connect 6 0 5 0;
#X connect 7 0 8 0;
#X connect 7 1 9 0;
#X connect 8 0 6 1;
#X connect 9 0 6 1;
#X connect 10 0 0 0;
#X connect 10 1 1 0;
#X connect 10 2 3 0;
#X connect 11 0 15 0;
#X connect 12 0 0 1;
#X connect 13 0 1 1;
#X connect 15 0 10 0;
#X connect 16 0 15 1;
#X restore 214 574 pd nudge-attenuators;
#X obj 219 488 clip 0 127;
#N canvas 0 22 484 497 nudge-attenuators 0;
#X obj 124 234 random;
#X obj 232 335 f;
#X obj 232 368 +;
#X obj 257 166 random 2;
#X obj 124 275 t f f;
#X obj 124 351 t b f;
#X obj 124 297 *;
#X obj 257 188 sel 0 1;
#X msg 257 280 -1;
#X msg 335 280 1;
#X obj 124 149 t b b b;
#X obj 124 71 r NUDGE!;
#X obj 157 193 r NUDGE-RANGE;
#X obj 247 308 inlet;
#X obj 232 397 outlet;
#X obj 124 93 spigot;
#X obj 201 76 r attenuators2-s;
#X connect 0 0 4 0;
#X connect 1 0 2 0;
#X connect 2 0 14 0;
#X connect 3 0 7 0;
#X connect 4 0 6 0;
#X connect 5 0 2 0;
#X connect 5 1 2 1;
#X connect 6 0 5 0;
#X connect 7 0 8 0;
#X connect 7 1 9 0;
#X connect 8 0 6 1;
#X connect 9 0 6 1;
#X connect 10 0 0 0;
#X connect 10 1 1 0;
#X connect 10 2 3 0;
#X connect 11 0 15 0;
#X connect 12 0 0 1;
#X connect 13 0 1 1;
#X connect 15 0 10 0;
#X connect 16 0 15 1;
#X restore 219 466 pd nudge-attenuators;
#X obj 354 492 clip 0 127;
#N canvas 0 22 484 497 nudge-attenuators 0;
#X obj 124 234 random;
#X obj 232 335 f;
#X obj 232 368 +;
#X obj 257 166 random 2;
#X obj 124 275 t f f;
#X obj 124 351 t b f;
#X obj 124 297 *;
#X obj 257 188 sel 0 1;
#X msg 257 280 -1;
#X msg 335 280 1;
#X obj 124 149 t b b b;
#X obj 124 71 r NUDGE!;
#X obj 157 193 r NUDGE-RANGE;
#X obj 247 308 inlet;
#X obj 232 397 outlet;
#X obj 124 93 spigot;
#X obj 201 76 r attenuators2-s;
#X connect 0 0 4 0;
#X connect 1 0 2 0;
#X connect 2 0 14 0;
#X connect 3 0 7 0;
#X connect 4 0 6 0;
#X connect 5 0 2 0;
#X connect 5 1 2 1;
#X connect 6 0 5 0;
#X connect 7 0 8 0;
#X connect 7 1 9 0;
#X connect 8 0 6 1;
#X connect 9 0 6 1;
#X connect 10 0 0 0;
#X connect 10 1 1 0;
#X connect 10 2 3 0;
#X connect 11 0 15 0;
#X connect 12 0 0 1;
#X connect 13 0 1 1;
#X connect 15 0 10 0;
#X connect 16 0 15 1;
#X restore 354 470 pd nudge-attenuators;
#X obj 487 492 clip 0 127;
#N canvas 0 22 484 497 nudge-attenuators 0;
#X obj 124 234 random;
#X obj 232 335 f;
#X obj 232 368 +;
#X obj 257 166 random 2;
#X obj 124 275 t f f;
#X obj 124 351 t b f;
#X obj 124 297 *;
#X obj 257 188 sel 0 1;
#X msg 257 280 -1;
#X msg 335 280 1;
#X obj 124 149 t b b b;
#X obj 124 71 r NUDGE!;
#X obj 157 193 r NUDGE-RANGE;
#X obj 247 308 inlet;
#X obj 232 397 outlet;
#X obj 124 93 spigot;
#X obj 201 76 r attenuators2-s;
#X connect 0 0 4 0;
#X connect 1 0 2 0;
#X connect 2 0 14 0;
#X connect 3 0 7 0;
#X connect 4 0 6 0;
#X connect 5 0 2 0;
#X connect 5 1 2 1;
#X connect 6 0 5 0;
#X connect 7 0 8 0;
#X connect 7 1 9 0;
#X connect 8 0 6 1;
#X connect 9 0 6 1;
#X connect 10 0 0 0;
#X connect 10 1 1 0;
#X connect 10 2 3 0;
#X connect 11 0 15 0;
#X connect 12 0 0 1;
#X connect 13 0 1 1;
#X connect 15 0 10 0;
#X connect 16 0 15 1;
#X restore 487 470 pd nudge-attenuators;
#X obj 721 591 clip 0 127;
#N canvas 0 22 484 497 nudge-attenuators 0;
#X obj 124 234 random;
#X obj 232 335 f;
#X obj 232 368 +;
#X obj 257 166 random 2;
#X obj 124 275 t f f;
#X obj 124 351 t b f;
#X obj 124 297 *;
#X obj 257 188 sel 0 1;
#X msg 257 280 -1;
#X msg 335 280 1;
#X obj 124 149 t b b b;
#X obj 124 71 r NUDGE!;
#X obj 157 193 r NUDGE-RANGE;
#X obj 247 308 inlet;
#X obj 232 397 outlet;
#X obj 124 93 spigot;
#X obj 201 76 r attenuators2-s;
#X connect 0 0 4 0;
#X connect 1 0 2 0;
#X connect 2 0 14 0;
#X connect 3 0 7 0;
#X connect 4 0 6 0;
#X connect 5 0 2 0;
#X connect 5 1 2 1;
#X connect 6 0 5 0;
#X connect 7 0 8 0;
#X connect 7 1 9 0;
#X connect 8 0 6 1;
#X connect 9 0 6 1;
#X connect 10 0 0 0;
#X connect 10 1 1 0;
#X connect 10 2 3 0;
#X connect 11 0 15 0;
#X connect 12 0 0 1;
#X connect 13 0 1 1;
#X connect 15 0 10 0;
#X connect 16 0 15 1;
#X restore 721 569 pd nudge-attenuators;
#X obj 857 591 clip 0 127;
#N canvas 0 22 484 497 nudge-attenuators 0;
#X obj 124 234 random;
#X obj 232 335 f;
#X obj 232 368 +;
#X obj 257 166 random 2;
#X obj 124 275 t f f;
#X obj 124 351 t b f;
#X obj 124 297 *;
#X obj 257 188 sel 0 1;
#X msg 257 280 -1;
#X msg 335 280 1;
#X obj 124 149 t b b b;
#X obj 124 71 r NUDGE!;
#X obj 157 193 r NUDGE-RANGE;
#X obj 247 308 inlet;
#X obj 232 397 outlet;
#X obj 124 93 spigot;
#X obj 201 76 r attenuators2-s;
#X connect 0 0 4 0;
#X connect 1 0 2 0;
#X connect 2 0 14 0;
#X connect 3 0 7 0;
#X connect 4 0 6 0;
#X connect 5 0 2 0;
#X connect 5 1 2 1;
#X connect 6 0 5 0;
#X connect 7 0 8 0;
#X connect 7 1 9 0;
#X connect 8 0 6 1;
#X connect 9 0 6 1;
#X connect 10 0 0 0;
#X connect 10 1 1 0;
#X connect 10 2 3 0;
#X connect 11 0 15 0;
#X connect 12 0 0 1;
#X connect 13 0 1 1;
#X connect 15 0 10 0;
#X connect 16 0 15 1;
#X restore 857 569 pd nudge-attenuators;
#X obj 985 593 clip 0 127;
#N canvas 0 22 484 497 nudge-attenuators 0;
#X obj 124 234 random;
#X obj 232 335 f;
#X obj 232 368 +;
#X obj 257 166 random 2;
#X obj 124 275 t f f;
#X obj 124 351 t b f;
#X obj 124 297 *;
#X obj 257 188 sel 0 1;
#X msg 257 280 -1;
#X msg 335 280 1;
#X obj 124 149 t b b b;
#X obj 124 71 r NUDGE!;
#X obj 157 193 r NUDGE-RANGE;
#X obj 247 308 inlet;
#X obj 232 397 outlet;
#X obj 124 93 spigot;
#X obj 201 76 r attenuators2-s;
#X connect 0 0 4 0;
#X connect 1 0 2 0;
#X connect 2 0 14 0;
#X connect 3 0 7 0;
#X connect 4 0 6 0;
#X connect 5 0 2 0;
#X connect 5 1 2 1;
#X connect 6 0 5 0;
#X connect 7 0 8 0;
#X connect 7 1 9 0;
#X connect 8 0 6 1;
#X connect 9 0 6 1;
#X connect 10 0 0 0;
#X connect 10 1 1 0;
#X connect 10 2 3 0;
#X connect 11 0 15 0;
#X connect 12 0 0 1;
#X connect 13 0 1 1;
#X connect 15 0 10 0;
#X connect 16 0 15 1;
#X restore 985 571 pd nudge-attenuators;
#X obj 1124 586 clip 0 127;
#N canvas 0 22 484 497 nudge-attenuators 0;
#X obj 124 234 random;
#X obj 232 335 f;
#X obj 232 368 +;
#X obj 257 166 random 2;
#X obj 124 275 t f f;
#X obj 124 351 t b f;
#X obj 124 297 *;
#X obj 257 188 sel 0 1;
#X msg 257 280 -1;
#X msg 335 280 1;
#X obj 124 149 t b b b;
#X obj 124 71 r NUDGE!;
#X obj 157 193 r NUDGE-RANGE;
#X obj 247 308 inlet;
#X obj 232 397 outlet;
#X obj 124 93 spigot;
#X obj 201 76 r attenuators2-s;
#X connect 0 0 4 0;
#X connect 1 0 2 0;
#X connect 2 0 14 0;
#X connect 3 0 7 0;
#X connect 4 0 6 0;
#X connect 5 0 2 0;
#X connect 5 1 2 1;
#X connect 6 0 5 0;
#X connect 7 0 8 0;
#X connect 7 1 9 0;
#X connect 8 0 6 1;
#X connect 9 0 6 1;
#X connect 10 0 0 0;
#X connect 10 1 1 0;
#X connect 10 2 3 0;
#X connect 11 0 15 0;
#X connect 12 0 0 1;
#X connect 13 0 1 1;
#X connect 15 0 10 0;
#X connect 16 0 15 1;
#X restore 1124 564 pd nudge-attenuators;
#X obj 607 381 clip 0 127;
#N canvas 0 22 484 497 nudge-attenuators 0;
#X obj 124 234 random;
#X obj 232 335 f;
#X obj 232 368 +;
#X obj 257 166 random 2;
#X obj 124 275 t f f;
#X obj 124 351 t b f;
#X obj 124 297 *;
#X obj 257 188 sel 0 1;
#X msg 257 280 -1;
#X msg 335 280 1;
#X obj 124 149 t b b b;
#X obj 124 71 r NUDGE!;
#X obj 157 193 r NUDGE-RANGE;
#X obj 247 308 inlet;
#X obj 232 397 outlet;
#X obj 124 93 spigot;
#X obj 201 76 r attenuators2-s;
#X connect 0 0 4 0;
#X connect 1 0 2 0;
#X connect 2 0 14 0;
#X connect 3 0 7 0;
#X connect 4 0 6 0;
#X connect 5 0 2 0;
#X connect 5 1 2 1;
#X connect 6 0 5 0;
#X connect 7 0 8 0;
#X connect 7 1 9 0;
#X connect 8 0 6 1;
#X connect 9 0 6 1;
#X connect 10 0 0 0;
#X connect 10 1 1 0;
#X connect 10 2 3 0;
#X connect 11 0 15 0;
#X connect 12 0 0 1;
#X connect 13 0 1 1;
#X connect 15 0 10 0;
#X connect 16 0 15 1;
#X restore 607 359 pd nudge-attenuators;
#X connect 0 0 9 0;
#X connect 1 0 0 0;
#X connect 2 0 10 0;
#X connect 3 0 2 0;
#X connect 25 0 1 0;
#X connect 26 0 3 0;
#X connect 27 0 41 0;
#X connect 28 0 43 0;
#X connect 29 0 45 0;
#X connect 30 0 47 0;
#X connect 31 0 49 0;
#X connect 32 0 51 0;
#X connect 33 0 53 0;
#X connect 34 0 55 0;
#X connect 35 0 57 0;
#X connect 36 0 59 0;
#X connect 37 0 61 0;
#X connect 38 0 63 0;
#X connect 39 0 65 0;
#X connect 40 0 11 0;
#X connect 41 0 40 0;
#X connect 42 0 12 0;
#X connect 43 0 42 0;
#X connect 44 0 13 0;
#X connect 45 0 44 0;
#X connect 46 0 14 0;
#X connect 47 0 46 0;
#X connect 48 0 15 0;
#X connect 49 0 48 0;
#X connect 50 0 16 0;
#X connect 51 0 50 0;
#X connect 52 0 17 0;
#X connect 53 0 52 0;
#X connect 54 0 18 0;
#X connect 55 0 54 0;
#X connect 56 0 19 0;
#X connect 57 0 56 0;
#X connect 58 0 20 0;
#X connect 59 0 58 0;
#X connect 60 0 21 0;
#X connect 61 0 60 0;
#X connect 62 0 22 0;
#X connect 63 0 62 0;
#X connect 64 0 23 0;
#X connect 65 0 64 0;
#X restore 58 980 pd parameter-nudging-system;
#N canvas 213 23 1067 694 external-messages 0;
#X floatatom 63 502 5 0 0 0 - - -;
#X obj 185 327 spigot;
#X obj 224 278 tgl 15 0 empty empty empty 17 7 0 10 -262144 -1 -1 0
1;
#X obj 267 238 ==;
#X obj 282 214 f \$1;
#X obj 282 190 loadbang;
#X msg 185 202 \$1 \$2;
#X msg 185 156 symbol \$1;
#X obj 185 180 pack s f;
#X obj 63 481 f;
#X obj 63 425 t b f;
#X obj 63 452 spigot;
#X obj 185 62 unpack s f f;
#X symbolatom 185 94 10 0 0 0 - - -;
#X obj 224 298 t f f;
#X obj 257 327 s \$0-msg-spigot;
#X obj 112 426 r \$0-msg-spigot;
#X floatatom 48 642 5 0 0 0 - - -;
#X obj 48 621 f;
#X obj 48 562 t b f;
#X obj 48 592 spigot;
#X obj 98 563 r \$0-msg-spigot;
#X text 268 16 <----rename to match name of module;
#X text 388 240 <-----rename to match EXTERNAL MESSAGES parameter names
;
#X text 306 61 <----SYMBOL (parameter name) FLOAT (parameter value)
FLOAT (instance number);
#X text 189 458 <-----you will need one structure like this for each
parameter;
#X text 233 810 <-----rename to match receive symbol of each GUI element
;
#X obj 185 14 r master;
#X obj 62 528 s \$0-masterA-volume-r;
#X obj 46 669 s \$0-masterB-volume-r;
#X obj 200 598 s \$0-channel1-volume-r;
#X obj 203 744 s \$0-channel2-volume-r;
#X obj 352 596 s \$0-channel3-volume-r;
#X obj 389 785 s \$0-channel4-volume-r;
#X obj 538 618 s \$0-channel1-pan-r;
#X obj 537 771 s \$0-channel2-pan-r;
#X obj 714 656 s \$0-channel3-pan-r;
#X obj 712 813 s \$0-channel4-pan-r;
#X obj 639 959 s \$0-switch1-r;
#X obj 842 880 s \$0-switch2-r;
#X obj 915 715 s \$0-switch3-r;
#X obj 839 1030 s \$0-switch4-r;
#X obj 885 535 s \$0-toggle-r;
#X obj 185 380 route MASTERA MASTERB CH1 CH2 CH3 CH4 PAN1 PAN2 PAN3
PAN4 SWITCH1 SWITCH2 SWITCH3 SWITCH4 TOGGLE;
#X floatatom 198 569 5 0 0 0 - - -;
#X obj 198 548 f;
#X obj 198 489 t b f;
#X obj 198 519 spigot;
#X obj 248 490 r \$0-msg-spigot;
#X floatatom 203 704 5 0 0 0 - - -;
#X obj 203 683 f;
#X obj 203 624 t b f;
#X obj 203 654 spigot;
#X obj 253 625 r \$0-msg-spigot;
#X floatatom 350 571 5 0 0 0 - - -;
#X obj 350 550 f;
#X obj 350 492 t b f;
#X obj 350 521 spigot;
#X obj 400 492 r \$0-msg-spigot;
#X floatatom 390 755 5 0 0 0 - - -;
#X obj 389 729 f;
#X obj 389 670 t b f;
#X obj 389 700 spigot;
#X obj 439 671 r \$0-msg-spigot;
#X floatatom 538 579 5 0 0 0 - - -;
#X obj 538 552 f;
#X obj 538 493 t b f;
#X obj 538 523 spigot;
#X obj 588 494 r \$0-msg-spigot;
#X floatatom 539 732 5 0 0 0 - - -;
#X obj 539 711 f;
#X obj 539 652 t b f;
#X obj 539 682 spigot;
#X obj 589 653 r \$0-msg-spigot;
#X floatatom 717 611 5 0 0 0 - - -;
#X obj 717 590 f;
#X obj 717 531 t b f;
#X obj 717 561 spigot;
#X obj 767 532 r \$0-msg-spigot;
#X floatatom 713 777 5 0 0 0 - - -;
#X obj 713 756 f;
#X obj 713 697 t b f;
#X obj 713 727 spigot;
#X obj 763 698 r \$0-msg-spigot;
#X floatatom 638 931 5 0 0 0 - - -;
#X obj 637 913 f;
#X obj 637 854 t b f;
#X obj 637 884 spigot;
#X obj 687 855 r \$0-msg-spigot;
#X floatatom 844 847 5 0 0 0 - - -;
#X obj 844 826 f;
#X obj 844 767 t b f;
#X obj 844 797 spigot;
#X obj 894 768 r \$0-msg-spigot;
#X floatatom 869 682 5 0 0 0 - - -;
#X obj 869 661 f;
#X obj 869 602 t b f;
#X obj 869 632 spigot;
#X obj 919 603 r \$0-msg-spigot;
#X floatatom 842 992 5 0 0 0 - - -;
#X obj 842 971 f;
#X obj 842 912 t b f;
#X obj 842 942 spigot;
#X obj 892 913 r \$0-msg-spigot;
#X floatatom 885 502 5 0 0 0 - - -;
#X obj 885 481 f;
#X obj 885 422 t b f;
#X obj 885 452 spigot;
#X obj 935 423 r \$0-msg-spigot;
#X connect 0 0 28 0;
#X connect 1 0 43 0;
#X connect 2 0 14 0;
#X connect 3 0 2 0;
#X connect 4 0 3 1;
#X connect 5 0 4 0;
#X connect 6 0 1 0;
#X connect 7 0 8 0;
#X connect 8 0 6 0;
#X connect 9 0 0 0;
#X connect 10 0 11 0;
#X connect 10 1 9 1;
#X connect 11 0 9 0;
#X connect 12 0 13 0;
#X connect 12 1 8 1;
#X connect 12 2 3 0;
#X connect 13 0 7 0;
#X connect 14 0 1 1;
#X connect 14 1 15 0;
#X connect 16 0 11 1;
#X connect 17 0 29 0;
#X connect 18 0 17 0;
#X connect 19 0 20 0;
#X connect 19 1 18 1;
#X connect 20 0 18 0;
#X connect 21 0 20 1;
#X connect 27 0 12 0;
#X connect 43 0 10 0;
#X connect 43 1 19 0;
#X connect 43 2 46 0;
#X connect 43 3 51 0;
#X connect 43 4 56 0;
#X connect 43 5 61 0;
#X connect 43 6 66 0;
#X connect 43 7 71 0;
#X connect 43 8 76 0;
#X connect 43 9 81 0;
#X connect 43 10 86 0;
#X connect 43 11 91 0;
#X connect 43 12 96 0;
#X connect 43 13 101 0;
#X connect 43 14 106 0;
#X connect 44 0 30 0;
#X connect 45 0 44 0;
#X connect 46 0 47 0;
#X connect 46 1 45 1;
#X connect 47 0 45 0;
#X connect 48 0 47 1;
#X connect 49 0 31 0;
#X connect 50 0 49 0;
#X connect 51 0 52 0;
#X connect 51 1 50 1;
#X connect 52 0 50 0;
#X connect 53 0 52 1;
#X connect 54 0 32 0;
#X connect 55 0 54 0;
#X connect 56 0 57 0;
#X connect 56 1 55 1;
#X connect 57 0 55 0;
#X connect 58 0 57 1;
#X connect 59 0 33 0;
#X connect 60 0 59 0;
#X connect 61 0 62 0;
#X connect 61 1 60 1;
#X connect 62 0 60 0;
#X connect 63 0 62 1;
#X connect 64 0 34 0;
#X connect 65 0 64 0;
#X connect 66 0 67 0;
#X connect 66 1 65 1;
#X connect 67 0 65 0;
#X connect 68 0 67 1;
#X connect 69 0 35 0;
#X connect 70 0 69 0;
#X connect 71 0 72 0;
#X connect 71 1 70 1;
#X connect 72 0 70 0;
#X connect 73 0 72 1;
#X connect 74 0 36 0;
#X connect 75 0 74 0;
#X connect 76 0 77 0;
#X connect 76 1 75 1;
#X connect 77 0 75 0;
#X connect 78 0 77 1;
#X connect 79 0 37 0;
#X connect 80 0 79 0;
#X connect 81 0 82 0;
#X connect 81 1 80 1;
#X connect 82 0 80 0;
#X connect 83 0 82 1;
#X connect 84 0 38 0;
#X connect 85 0 84 0;
#X connect 86 0 87 0;
#X connect 86 1 85 1;
#X connect 87 0 85 0;
#X connect 88 0 87 1;
#X connect 89 0 39 0;
#X connect 90 0 89 0;
#X connect 91 0 92 0;
#X connect 91 1 90 1;
#X connect 92 0 90 0;
#X connect 93 0 92 1;
#X connect 94 0 40 0;
#X connect 95 0 94 0;
#X connect 96 0 97 0;
#X connect 96 1 95 1;
#X connect 97 0 95 0;
#X connect 98 0 97 1;
#X connect 99 0 41 0;
#X connect 100 0 99 0;
#X connect 101 0 102 0;
#X connect 101 1 100 1;
#X connect 102 0 100 0;
#X connect 103 0 102 1;
#X connect 104 0 42 0;
#X connect 105 0 104 0;
#X connect 106 0 107 0;
#X connect 106 1 105 1;
#X connect 107 0 105 0;
#X connect 108 0 107 1;
#X restore 59 954 pd external-messages;
#X text 53 931 STATE SAVING and EXTERNAL CONTROL STUFF;
#X obj 294 137 cnv 5 5 5 empty \$0-instance-num 0 0 0 0 15 -228856
-66577 0;
#X text 63 646 Overview;
#X text 100 401 A;
#X text 169 403 B;
#X text 100 103 A;
#X text 204 103 B;
#X text 508 404 MON;
#X text 584 111 Each slider and pan-button goes to the volumeandpan
patch.;
#X text 1047 321 Switch 1-4 above each channel.;
#X text 1090 392 Toggle for monitor.;
#X text 64 676 The Master Mixer routes the audio from inputs A \, B
\, T1 \, T2 \, T3 to the respective outputs A \, B CH1 \, CH2 \, CH3
\, CH4 and MON. The sound from the input A and B get directly routed
to the A+B outputs with the sliders on the right. The radiobuttons
above each channel CH1-4 specifies which input that should be routed
to the respective channel. All the channels get routed to the main
A+B output. The signal from T1-T3 can also be monitored by clicking
the toggle.;
#X text 237 402 Ch1;
#X text 304 403 Ch2;
#X text 373 403 Ch3;
#X text 445 403 Ch4;
#X text 127 198 -- --;
#X text 171 199 0;
#X text 193 197 -- --;
#X text 193 222 -- --;
#X text 193 246 -- --;
#X text 193 270 -- --;
#X text 193 299 -- --;
#X text 193 323 -- --;
#X obj 136 205 vsl 15 127 0 127 0 0 \$0-channel1-volume-s \$0-channel1-volume-r
1 5 140 0 13 -262144 -1 -1 0 1;
#X obj 202 205 vsl 15 128 0 127 0 0 \$0-channel2-volume-s \$0-channel2-volume-r
2 5 140 0 13 -262144 -1 -1 0 1;
#X text 261 223 -- -- -10;
#X text 261 271 -- -- -30;
#X text 261 300 -- -- -40;
#X text 261 322 -- -- ∞;
#X text 261 247 -- -- -20;
#X text 261 198 -- --;
#X text 305 199 0;
#X obj 270 206 vsl 15 128 0 127 0 0 \$0-channel3-volume-s \$0-channel3-volume-r
3 5 140 0 13 -262144 -1 -1 0 1;
#X text 335 197 -- --;
#X text 335 222 -- --;
#X text 335 246 -- --;
#X text 335 270 -- --;
#X text 335 299 -- --;
#X text 335 323 -- --;
#X obj 344 206 vsl 15 128 0 127 0 0 \$0-channel4-volume-s \$0-channel4-volume-r
4 5 140 0 13 -262144 -1 -1 0 1;
#X text 416 223 -- -- -10;
#X text 416 271 -- -- -30;
#X text 416 300 -- -- -40;
#X text 416 322 -- -- ∞;
#X text 416 247 -- -- -20;
#X text 416 198 -- --;
#X text 460 199 0;
#X obj 425 206 vsl 15 128 0 127 0 0 \$0-masterA-volume-s \$0-masterA-volume-r
A 5 140 0 13 -262144 -1 -1 0 1;
#X text 476 198 -- --;
#X text 476 223 -- --;
#X text 476 247 -- --;
#X text 476 271 -- --;
#X text 476 300 -- --;
#X text 476 324 -- --;
#X obj 485 206 vsl 15 128 0 127 0 0 \$0-masterB-volume-s \$0-masterB-volume-r
B 5 140 0 13 -262144 -1 -1 0 1;
#X connect 9 0 36 0;
#X connect 9 0 47 0;
#X connect 9 0 58 0;
#X connect 9 0 62 0;
#X connect 9 0 79 0;
#X connect 10 0 40 0;
#X connect 10 0 48 0;
#X connect 10 0 59 0;
#X connect 10 0 63 0;
#X connect 10 0 79 0;
#X connect 11 0 41 0;
#X connect 11 0 49 0;
#X connect 11 0 64 0;
#X connect 11 0 79 0;
#X connect 11 0 60 0;
#X connect 23 0 42 1;
#X connect 24 0 42 2;
#X connect 26 0 50 1;
#X connect 27 0 50 2;
#X connect 28 0 32 1;
#X connect 29 0 28 0;
#X connect 30 0 33 1;
#X connect 31 0 30 0;
#X connect 32 0 22 0;
#X connect 33 0 25 0;
#X connect 34 0 33 0;
#X connect 35 0 32 0;
#X connect 36 0 42 0;
#X connect 37 0 36 1;
#X connect 38 0 40 1;
#X connect 39 0 41 1;
#X connect 40 0 42 0;
#X connect 41 0 42 0;
#X connect 42 0 33 0;
#X connect 42 0 82 0;
#X connect 42 1 32 0;
#X connect 42 1 82 0;
#X connect 43 0 89 0;
#X connect 44 0 47 1;
#X connect 45 0 48 1;
#X connect 46 0 49 1;
#X connect 47 0 50 0;
#X connect 48 0 50 0;
#X connect 49 0 50 0;
#X connect 50 0 33 0;
#X connect 50 0 83 0;
#X connect 50 1 32 0;
#X connect 50 1 83 0;
#X connect 51 0 88 0;
#X connect 52 0 58 1;
#X connect 53 0 59 1;
#X connect 54 0 60 1;
#X connect 55 0 62 1;
#X connect 56 0 63 1;
#X connect 57 0 64 1;
#X connect 58 0 61 0;
#X connect 59 0 61 0;
#X connect 60 0 61 0;
#X connect 61 0 33 0;
#X connect 61 0 84 0;
#X connect 61 1 32 0;
#X connect 61 1 84 0;
#X connect 62 0 65 0;
#X connect 63 0 65 0;
#X connect 64 0 65 0;
#X connect 65 0 33 0;
#X connect 65 0 85 0;
#X connect 65 1 32 0;
#X connect 65 1 85 0;
#X connect 66 0 61 1;
#X connect 67 0 61 2;
#X connect 68 0 65 1;
#X connect 69 0 65 2;
#X connect 70 0 37 0;
#X connect 70 0 39 0;
#X connect 70 0 38 0;
#X connect 71 0 44 0;
#X connect 71 0 45 0;
#X connect 71 0 46 0;
#X connect 72 0 52 0;
#X connect 72 0 53 0;
#X connect 72 0 54 0;
#X connect 73 0 55 0;
#X connect 73 0 56 0;
#X connect 73 0 57 0;
#X connect 79 0 86 0;
#X connect 80 0 79 1;
#X connect 81 0 80 0;
#X connect 88 0 29 0;
#X connect 89 0 31 0;
#X connect 90 0 92 0;
#X connect 92 0 93 0;
#X connect 93 0 91 0;
#X coords 0 -1 1 1 430 320 2 100 100;
