#N canvas 315 98 1074 715 12;
#X declare -lib moonlib;
#X obj 646 49 noise~;
#X obj 646 229 lop~;
#X obj 705 125 mtof;
#X obj 705 187 line;
#X obj 647 372 *~;
#X obj 788 297 / 127;
#X obj 788 353 line~;
#X obj 705 157 pack 0 50;
#X obj 788 325 pack 0 50;
#X obj 101 101 cnv 15 428 316 empty empty NOISE_GENERATOR_3004 130
12 0 14 -233017 -66577 0;
#X obj 100 439 declare -lib moonlib;
#X obj 216 265 moonlib/mknob 25 100 0 127 0 0 \$0-noice-lowpass-s \$0-noice-lowpass-r
LOW_PASS_FILTER -24 35 0 8 -1 -262144 -1 0 1;
#X obj 394 264 moonlib/mknob 25 100 0 127 0 0 \$0-noice-volume-s \$0-noice-volume-r
VOLUME -2 35 0 8 -258113 -262144 -1 0 1;
#X obj 705 94 r \$0-noice-lowpass-s;
#X obj 788 270 r \$0-noice-volume-s;
#X obj 649 627 outlet~ A;
#X obj 752 627 outlet~ B;
#X text 112 394 A;
#X text 507 395 B;
#X text 97 480 STATE SAVING and EXTERNAL CONTROL STUFF;
#N canvas 32 45 1165 679 state-saving-multiple-instances 0;
#X obj 233 37 loadbang;
#X obj 1555 192 textfile;
#X msg 1529 116 rewind;
#X msg 1486 116 bang;
#X obj 137 779 textfile;
#X obj 1486 77 t b b;
#X obj 138 445 f;
#X obj 151 668 f;
#X obj 79 489 t b b b;
#X msg 214 668 clear;
#X obj 300 179 outlet;
#X text 301 198 INSTANCE NUMBER;
#X obj 260 105 f \$1;
#X obj 261 133 t f f f;
#X obj 233 70 t b b;
#X obj 79 466 bng 15 250 50 0 empty empty empty 17 7 0 10 -262144 -1
-1;
#X obj 79 322 r SAVE-S;
#X obj 292 37 r \$0-reload!;
#X text 414 48 RETURN TO PREVIOUS VALUE AFTER USING MORPH-SEQ module
;
#X text 151 255 WRITE side;
#X text 1564 20 READ side;
#X text 471 737 <-----rename to match name of Pd patch;
#X text 1828 159 <-----rename to match name of Pd patch;
#X text 524 491 <----- one "f" for each parameter;
#X text 523 538 <----- one "$N" for each parameter;
#X text 1040 411 <-----rename to match send symbol of each GUI element
;
#X text 1978 718 <-----rename to match receive symbol of each GUI element
;
#X text 1511 781 Keep these parameters in the same order on the WRITE
and READ sides;
#X text 1937 219 <----- one "f" for each parameter;
#X obj 150 275 r \$0-um-switch1-s;
#X obj 162 298 r \$0-um-switch2-s;
#X msg 138 526 set \$1 \$2 \$3 \$4 \$5 \$6 \$7 \$8 \$9 \$10 \$11 \$12
\$13 \$14 \$15 \$16 \$17 \$18 \$19 \$20 \$21 \$22 \$23 \$24 \$25 \$26
;
#X msg 150 739 write statesave/\$1-universal-mixer-ss.txt;
#X obj 1330 564 s \$0-um-switch1-r;
#X obj 1331 587 s \$0-um-switch2-r;
#X obj 1331 611 s \$0-um-switch3-r;
#X obj 1331 634 s \$0-um-switch4-r;
#X obj 1555 214 unpack f f f f f f f f f f f f f f f f f f f f f f
f f f f;
#X obj 1455 564 s \$0-um-ch1-fader-r;
#X obj 1455 587 s \$0-um-ch2-fader-r;
#X obj 1456 611 s \$0-um-ch3-fader-r;
#X obj 1456 634 s \$0-um-ch4-fader-r;
#X obj 1587 564 s \$0-um-ch1-panAB-r;
#X obj 1587 587 s \$0-um-ch2-panAB-r;
#X obj 1587 611 s \$0-um-ch3-panAB-r;
#X obj 1587 635 s \$0-um-ch4-panAB-r;
#X obj 1718 564 s \$0-um-ch1-echo-r;
#X obj 1718 588 s \$0-um-ch2-echo-r;
#X obj 1718 612 s \$0-um-ch3-echo-r;
#X obj 1717 636 s \$0-um-ch4-echo-r;
#X obj 1842 564 s \$0-um-switch-preoffpost1-r;
#X obj 1842 588 s \$0-um-switch-preoffpost2-r;
#X obj 1842 612 s \$0-um-switch-preoffpost3-r;
#X obj 1842 636 s \$0-um-switch-preoffpost4-r;
#X obj 2027 564 s \$0-um-ch1-pan12-r;
#X obj 2027 588 s \$0-um-ch2-pan12-r;
#X obj 2027 613 s \$0-um-ch3-pan34-r;
#X obj 2027 636 s \$0-um-ch4-pan34-r;
#X obj 2132 453 s \$0-um-switchA-r;
#X obj 2132 475 s \$0-um-switchB-r;
#X msg 1555 159 read statesave/\$1-universal-mixer-ss.txt;
#X text 1870 175 i.e. "write statesave/\$1-PATCH_NAME-ss.txt";
#X text 470 759 i.e. "write statesave/\$1-PATCH_NAME-ss.txt";
#X obj 138 480 pack f f;
#X connect 0 0 14 0;
#X connect 1 0 37 0;
#X connect 2 0 1 0;
#X connect 3 0 1 0;
#X connect 5 0 3 0;
#X connect 5 1 2 0;
#X connect 6 0 63 0;
#X connect 7 0 32 0;
#X connect 8 0 7 0;
#X connect 8 1 6 0;
#X connect 8 2 9 0;
#X connect 9 0 4 0;
#X connect 12 0 13 0;
#X connect 13 0 7 1;
#X connect 13 1 60 0;
#X connect 13 2 10 0;
#X connect 14 0 5 0;
#X connect 14 1 12 0;
#X connect 15 0 8 0;
#X connect 16 0 15 0;
#X connect 17 0 14 0;
#X connect 29 0 6 1;
#X connect 30 0 63 1;
#X connect 31 0 4 0;
#X connect 32 0 4 0;
#X connect 37 0 33 0;
#X connect 37 1 34 0;
#X connect 37 2 35 0;
#X connect 37 3 36 0;
#X connect 37 4 38 0;
#X connect 37 5 39 0;
#X connect 37 6 40 0;
#X connect 37 7 41 0;
#X connect 37 8 42 0;
#X connect 37 9 43 0;
#X connect 37 10 44 0;
#X connect 37 11 45 0;
#X connect 37 12 46 0;
#X connect 37 13 47 0;
#X connect 37 14 48 0;
#X connect 37 15 49 0;
#X connect 37 16 50 0;
#X connect 37 17 51 0;
#X connect 37 18 52 0;
#X connect 37 19 53 0;
#X connect 37 20 54 0;
#X connect 37 21 55 0;
#X connect 37 22 56 0;
#X connect 37 23 57 0;
#X connect 37 24 58 0;
#X connect 37 25 59 0;
#X connect 60 0 1 0;
#X connect 63 0 31 0;
#X restore 98 574 pd state-saving-multiple-instances;
#X obj 98 665 s \$0-instance-num;
#X obj 98 617 makefilename %d;
#X msg 98 642 label \$1;
#N canvas 74 23 1366 679 state-saving-via-preset-manager-module 0;
#X obj 54 52 cnv 15 1200 800 empty empty WRITE 20 20 0 20 -233017 -66577
0;
#X obj 136 804 textfile;
#X obj 134 322 f;
#X obj 147 545 f;
#X obj 80 440 t b b b;
#X msg 187 702 clear;
#X obj 134 144 delay 5;
#X obj 80 495 delay 10;
#X msg 80 280 bang;
#X obj 80 114 r STORE-S!;
#X obj 147 575 pack f f;
#X obj 192 528 loadbang;
#X obj 192 550 f \$1;
#X obj 162 506 r preset-manager-store-slot;
#X text 540 747 i.e. "write statesave/\$1-\$2-PATCH_NAME-ss.txt";
#X text 495 728 <-----rename to match name of Pd patch;
#X text 515 394 <----- one "f" for each parameter;
#X text 512 469 <----- one "$N" for each parameter;
#X text 908 348 <-----rename to match send symbol of each GUI element
;
#X obj 54 868 cnv 15 1200 800 empty empty READ 20 20 0 20 -233017 -66577
0;
#X obj 207 1133 textfile;
#X msg 143 1082 rewind;
#X msg 100 1082 bang;
#X obj 100 1043 t b b;
#X obj 207 1034 f;
#X obj 180 998 t b b;
#X obj 180 955 t b f;
#X obj 252 1052 f \$1;
#X obj 207 1079 pack f f;
#X obj 252 1002 loadbang;
#X obj 180 932 r preset-manager-scan;
#X text 483 1107 <-----rename to match name of Pd patch;
#X text 515 1127 i.e. "read statesave/\$1-\$2-PATCH_NAME-ss.txt";
#X text 587 1188 <----- one "f" for each parameter;
#X text 855 930 Keep these parameters in the same order on the WRITE
and READ sides;
#X text 885 892 for binary (0 or 1) controls which do not morph (like
switches) \, do not use [pd morph-paramaters], f 51;
#X obj 186 180 r \$0-um-switch1-s;
#X obj 215 249 r \$0-um-switch4-s;
#X obj 207 226 r \$0-um-switch3-s;
#X obj 198 203 r \$0-um-switch2-s;
#X obj 306 180 r \$0-um-ch1-fader-s;
#X obj 318 203 r \$0-um-ch2-fader-s;
#X obj 327 226 r \$0-um-ch3-fader-s;
#X obj 335 249 r \$0-um-ch4-fader-s;
#X obj 434 180 r \$0-um-ch1-panAB-s;
#X obj 446 203 r \$0-um-ch2-panAB-s;
#X obj 455 226 r \$0-um-ch3-panAB-s;
#X obj 463 249 r \$0-um-ch4-panAB-s;
#X obj 563 180 r \$0-um-ch1-echo-s;
#X obj 575 203 r \$0-um-ch2-echo-s;
#X obj 584 226 r \$0-um-ch3-echo-s;
#X obj 592 249 r \$0-um-ch4-echo-s;
#X obj 684 181 r \$0-um-switch-preoffpost1-s;
#X obj 696 204 r \$0-um-switch-preoffpost2-s;
#X obj 705 227 r \$0-um-switch-preoffpost3-s;
#X obj 713 250 r \$0-um-switch-preoffpost4-s;
#X obj 863 181 r \$0-um-ch1-pan12-s;
#X obj 875 204 r \$0-um-ch2-pan12-s;
#X obj 884 227 r \$0-um-ch3-pan34-s;
#X obj 892 250 r \$0-um-ch4-pan34-s;
#X obj 771 318 r \$0-um-switchA-s;
#X obj 771 341 r \$0-um-switchB-s;
#X obj 134 375 pack f f f f f f f f f f f f f f f f f f f f f f f f
f f;
#X msg 134 438 set \$1 \$2 \$3 \$4 \$5 \$6 \$7 \$8 \$9 \$10 \$11 \$12
\$13 \$14 \$15 \$16 \$17 \$18 \$19 \$20 \$21 \$22 \$23 \$24 \$25 \$26
;
#X msg 186 729 write statesave/\$1-\$2-universal-mixer-ss.txt;
#X obj 128 1563 s \$0-um-switch1-r;
#X obj 129 1586 s \$0-um-switch2-r;
#X obj 129 1610 s \$0-um-switch3-r;
#X obj 129 1633 s \$0-um-switch4-r;
#X obj 207 1186 unpack f f f f f f f f f f f f f f f f f f f f f f
f f f f;
#X obj 253 1503 s \$0-um-ch1-fader-r;
#X obj 253 1546 s \$0-um-ch2-fader-r;
#X obj 253 1590 s \$0-um-ch3-fader-r;
#X obj 254 1633 s \$0-um-ch4-fader-r;
#X obj 385 1503 s \$0-um-ch1-panAB-r;
#X obj 385 1546 s \$0-um-ch2-panAB-r;
#X obj 385 1590 s \$0-um-ch3-panAB-r;
#X obj 385 1634 s \$0-um-ch4-panAB-r;
#X obj 516 1503 s \$0-um-ch1-echo-r;
#X obj 516 1547 s \$0-um-ch2-echo-r;
#X obj 516 1591 s \$0-um-ch3-echo-r;
#X obj 517 1636 s \$0-um-ch4-echo-r;
#X obj 640 1563 s \$0-um-switch-preoffpost1-r;
#X obj 640 1587 s \$0-um-switch-preoffpost2-r;
#X obj 640 1611 s \$0-um-switch-preoffpost3-r;
#X obj 640 1635 s \$0-um-switch-preoffpost4-r;
#X obj 825 1503 s \$0-um-ch1-pan12-r;
#X obj 825 1547 s \$0-um-ch2-pan12-r;
#X obj 825 1592 s \$0-um-ch3-pan34-r;
#X obj 826 1635 s \$0-um-ch4-pan34-r;
#X obj 946 1421 s \$0-um-switchA-r;
#X obj 946 1443 s \$0-um-switchB-r;
#N canvas 3 56 1069 676 morph-parameters 0;
#X obj 176 94 inlet;
#X obj 176 236 pack f f;
#X obj 176 261 line;
#X obj 209 117 r preset-manager-morph-s;
#X msg 72 244 stop;
#X obj 72 214 r STOP-MORPH!;
#X obj 209 206 spigot;
#X obj 398 137 t f f;
#X obj 455 154 == 0;
#X obj 221 176 f;
#X floatatom 455 222 5 0 0 0 - - -;
#X obj 398 159 t b f;
#X floatatom 425 192 5 0 0 0 - - -;
#X obj 209 139 t f f;
#X obj 398 102 r parameters-s;
#X obj 176 288 outlet;
#X connect 0 0 1 0;
#X connect 1 0 2 0;
#X connect 2 0 15 0;
#X connect 3 0 13 0;
#X connect 4 0 2 0;
#X connect 5 0 4 0;
#X connect 6 0 1 1;
#X connect 7 0 11 0;
#X connect 7 1 8 0;
#X connect 8 0 10 0;
#X connect 9 0 6 0;
#X connect 10 0 1 1;
#X connect 11 0 9 0;
#X connect 11 1 12 0;
#X connect 12 0 6 1;
#X connect 13 0 6 0;
#X connect 13 1 9 1;
#X connect 14 0 7 0;
#X restore 253 1478 pd morph-parameters;
#N canvas 3 56 1069 676 morph-parameters 0;
#X obj 176 94 inlet;
#X obj 176 236 pack f f;
#X obj 176 261 line;
#X obj 209 117 r preset-manager-morph-s;
#X msg 72 244 stop;
#X obj 72 214 r STOP-MORPH!;
#X obj 209 206 spigot;
#X obj 398 137 t f f;
#X obj 455 154 == 0;
#X obj 221 176 f;
#X floatatom 455 222 5 0 0 0 - - -;
#X obj 398 159 t b f;
#X floatatom 425 192 5 0 0 0 - - -;
#X obj 209 139 t f f;
#X obj 398 102 r parameters-s;
#X obj 176 288 outlet;
#X connect 0 0 1 0;
#X connect 1 0 2 0;
#X connect 2 0 15 0;
#X connect 3 0 13 0;
#X connect 4 0 2 0;
#X connect 5 0 4 0;
#X connect 6 0 1 1;
#X connect 7 0 11 0;
#X connect 7 1 8 0;
#X connect 8 0 10 0;
#X connect 9 0 6 0;
#X connect 10 0 1 1;
#X connect 11 0 9 0;
#X connect 11 1 12 0;
#X connect 12 0 6 1;
#X connect 13 0 6 0;
#X connect 13 1 9 1;
#X connect 14 0 7 0;
#X restore 253 1524 pd morph-parameters;
#N canvas 3 56 1069 676 morph-parameters 0;
#X obj 176 94 inlet;
#X obj 176 236 pack f f;
#X obj 176 261 line;
#X obj 209 117 r preset-manager-morph-s;
#X msg 72 244 stop;
#X obj 72 214 r STOP-MORPH!;
#X obj 209 206 spigot;
#X obj 398 137 t f f;
#X obj 455 154 == 0;
#X obj 221 176 f;
#X floatatom 455 222 5 0 0 0 - - -;
#X obj 398 159 t b f;
#X floatatom 425 192 5 0 0 0 - - -;
#X obj 209 139 t f f;
#X obj 398 102 r parameters-s;
#X obj 176 288 outlet;
#X connect 0 0 1 0;
#X connect 1 0 2 0;
#X connect 2 0 15 0;
#X connect 3 0 13 0;
#X connect 4 0 2 0;
#X connect 5 0 4 0;
#X connect 6 0 1 1;
#X connect 7 0 11 0;
#X connect 7 1 8 0;
#X connect 8 0 10 0;
#X connect 9 0 6 0;
#X connect 10 0 1 1;
#X connect 11 0 9 0;
#X connect 11 1 12 0;
#X connect 12 0 6 1;
#X connect 13 0 6 0;
#X connect 13 1 9 1;
#X connect 14 0 7 0;
#X restore 253 1568 pd morph-parameters;
#N canvas 3 56 1069 676 morph-parameters 0;
#X obj 176 94 inlet;
#X obj 176 236 pack f f;
#X obj 176 261 line;
#X obj 209 117 r preset-manager-morph-s;
#X msg 72 244 stop;
#X obj 72 214 r STOP-MORPH!;
#X obj 209 206 spigot;
#X obj 398 137 t f f;
#X obj 455 154 == 0;
#X obj 221 176 f;
#X floatatom 455 222 5 0 0 0 - - -;
#X obj 398 159 t b f;
#X floatatom 425 192 5 0 0 0 - - -;
#X obj 209 139 t f f;
#X obj 398 102 r parameters-s;
#X obj 176 288 outlet;
#X connect 0 0 1 0;
#X connect 1 0 2 0;
#X connect 2 0 15 0;
#X connect 3 0 13 0;
#X connect 4 0 2 0;
#X connect 5 0 4 0;
#X connect 6 0 1 1;
#X connect 7 0 11 0;
#X connect 7 1 8 0;
#X connect 8 0 10 0;
#X connect 9 0 6 0;
#X connect 10 0 1 1;
#X connect 11 0 9 0;
#X connect 11 1 12 0;
#X connect 12 0 6 1;
#X connect 13 0 6 0;
#X connect 13 1 9 1;
#X connect 14 0 7 0;
#X restore 254 1613 pd morph-parameters;
#N canvas 3 56 1069 676 morph-parameters 0;
#X obj 176 94 inlet;
#X obj 176 236 pack f f;
#X obj 176 261 line;
#X obj 209 117 r preset-manager-morph-s;
#X msg 72 244 stop;
#X obj 72 214 r STOP-MORPH!;
#X obj 209 206 spigot;
#X obj 398 137 t f f;
#X obj 455 154 == 0;
#X obj 221 176 f;
#X floatatom 455 222 5 0 0 0 - - -;
#X obj 398 159 t b f;
#X floatatom 425 192 5 0 0 0 - - -;
#X obj 209 139 t f f;
#X obj 398 102 r parameters-s;
#X obj 176 288 outlet;
#X connect 0 0 1 0;
#X connect 1 0 2 0;
#X connect 2 0 15 0;
#X connect 3 0 13 0;
#X connect 4 0 2 0;
#X connect 5 0 4 0;
#X connect 6 0 1 1;
#X connect 7 0 11 0;
#X connect 7 1 8 0;
#X connect 8 0 10 0;
#X connect 9 0 6 0;
#X connect 10 0 1 1;
#X connect 11 0 9 0;
#X connect 11 1 12 0;
#X connect 12 0 6 1;
#X connect 13 0 6 0;
#X connect 13 1 9 1;
#X connect 14 0 7 0;
#X restore 385 1478 pd morph-parameters;
#N canvas 3 56 1069 676 morph-parameters 0;
#X obj 176 94 inlet;
#X obj 176 236 pack f f;
#X obj 176 261 line;
#X obj 209 117 r preset-manager-morph-s;
#X msg 72 244 stop;
#X obj 72 214 r STOP-MORPH!;
#X obj 209 206 spigot;
#X obj 398 137 t f f;
#X obj 455 154 == 0;
#X obj 221 176 f;
#X floatatom 455 222 5 0 0 0 - - -;
#X obj 398 159 t b f;
#X floatatom 425 192 5 0 0 0 - - -;
#X obj 209 139 t f f;
#X obj 398 102 r parameters-s;
#X obj 176 288 outlet;
#X connect 0 0 1 0;
#X connect 1 0 2 0;
#X connect 2 0 15 0;
#X connect 3 0 13 0;
#X connect 4 0 2 0;
#X connect 5 0 4 0;
#X connect 6 0 1 1;
#X connect 7 0 11 0;
#X connect 7 1 8 0;
#X connect 8 0 10 0;
#X connect 9 0 6 0;
#X connect 10 0 1 1;
#X connect 11 0 9 0;
#X connect 11 1 12 0;
#X connect 12 0 6 1;
#X connect 13 0 6 0;
#X connect 13 1 9 1;
#X connect 14 0 7 0;
#X restore 385 1524 pd morph-parameters;
#N canvas 3 56 1069 676 morph-parameters 0;
#X obj 176 94 inlet;
#X obj 176 236 pack f f;
#X obj 176 261 line;
#X obj 209 117 r preset-manager-morph-s;
#X msg 72 244 stop;
#X obj 72 214 r STOP-MORPH!;
#X obj 209 206 spigot;
#X obj 398 137 t f f;
#X obj 455 154 == 0;
#X obj 221 176 f;
#X floatatom 455 222 5 0 0 0 - - -;
#X obj 398 159 t b f;
#X floatatom 425 192 5 0 0 0 - - -;
#X obj 209 139 t f f;
#X obj 398 102 r parameters-s;
#X obj 176 288 outlet;
#X connect 0 0 1 0;
#X connect 1 0 2 0;
#X connect 2 0 15 0;
#X connect 3 0 13 0;
#X connect 4 0 2 0;
#X connect 5 0 4 0;
#X connect 6 0 1 1;
#X connect 7 0 11 0;
#X connect 7 1 8 0;
#X connect 8 0 10 0;
#X connect 9 0 6 0;
#X connect 10 0 1 1;
#X connect 11 0 9 0;
#X connect 11 1 12 0;
#X connect 12 0 6 1;
#X connect 13 0 6 0;
#X connect 13 1 9 1;
#X connect 14 0 7 0;
#X restore 385 1568 pd morph-parameters;
#N canvas 3 56 1069 676 morph-parameters 0;
#X obj 176 94 inlet;
#X obj 176 236 pack f f;
#X obj 176 261 line;
#X obj 209 117 r preset-manager-morph-s;
#X msg 72 244 stop;
#X obj 72 214 r STOP-MORPH!;
#X obj 209 206 spigot;
#X obj 398 137 t f f;
#X obj 455 154 == 0;
#X obj 221 176 f;
#X floatatom 455 222 5 0 0 0 - - -;
#X obj 398 159 t b f;
#X floatatom 425 192 5 0 0 0 - - -;
#X obj 209 139 t f f;
#X obj 398 102 r parameters-s;
#X obj 176 288 outlet;
#X connect 0 0 1 0;
#X connect 1 0 2 0;
#X connect 2 0 15 0;
#X connect 3 0 13 0;
#X connect 4 0 2 0;
#X connect 5 0 4 0;
#X connect 6 0 1 1;
#X connect 7 0 11 0;
#X connect 7 1 8 0;
#X connect 8 0 10 0;
#X connect 9 0 6 0;
#X connect 10 0 1 1;
#X connect 11 0 9 0;
#X connect 11 1 12 0;
#X connect 12 0 6 1;
#X connect 13 0 6 0;
#X connect 13 1 9 1;
#X connect 14 0 7 0;
#X restore 385 1613 pd morph-parameters;
#N canvas 3 56 1069 676 morph-parameters 0;
#X obj 176 94 inlet;
#X obj 176 236 pack f f;
#X obj 176 261 line;
#X obj 209 117 r preset-manager-morph-s;
#X msg 72 244 stop;
#X obj 72 214 r STOP-MORPH!;
#X obj 209 206 spigot;
#X obj 398 137 t f f;
#X obj 455 154 == 0;
#X obj 221 176 f;
#X floatatom 455 222 5 0 0 0 - - -;
#X obj 398 159 t b f;
#X floatatom 425 192 5 0 0 0 - - -;
#X obj 209 139 t f f;
#X obj 398 102 r parameters-s;
#X obj 176 288 outlet;
#X connect 0 0 1 0;
#X connect 1 0 2 0;
#X connect 2 0 15 0;
#X connect 3 0 13 0;
#X connect 4 0 2 0;
#X connect 5 0 4 0;
#X connect 6 0 1 1;
#X connect 7 0 11 0;
#X connect 7 1 8 0;
#X connect 8 0 10 0;
#X connect 9 0 6 0;
#X connect 10 0 1 1;
#X connect 11 0 9 0;
#X connect 11 1 12 0;
#X connect 12 0 6 1;
#X connect 13 0 6 0;
#X connect 13 1 9 1;
#X connect 14 0 7 0;
#X restore 516 1480 pd morph-parameters;
#N canvas 3 56 1069 676 morph-parameters 0;
#X obj 176 94 inlet;
#X obj 176 236 pack f f;
#X obj 176 261 line;
#X obj 209 117 r preset-manager-morph-s;
#X msg 72 244 stop;
#X obj 72 214 r STOP-MORPH!;
#X obj 209 206 spigot;
#X obj 398 137 t f f;
#X obj 455 154 == 0;
#X obj 221 176 f;
#X floatatom 455 222 5 0 0 0 - - -;
#X obj 398 159 t b f;
#X floatatom 425 192 5 0 0 0 - - -;
#X obj 209 139 t f f;
#X obj 398 102 r parameters-s;
#X obj 176 288 outlet;
#X connect 0 0 1 0;
#X connect 1 0 2 0;
#X connect 2 0 15 0;
#X connect 3 0 13 0;
#X connect 4 0 2 0;
#X connect 5 0 4 0;
#X connect 6 0 1 1;
#X connect 7 0 11 0;
#X connect 7 1 8 0;
#X connect 8 0 10 0;
#X connect 9 0 6 0;
#X connect 10 0 1 1;
#X connect 11 0 9 0;
#X connect 11 1 12 0;
#X connect 12 0 6 1;
#X connect 13 0 6 0;
#X connect 13 1 9 1;
#X connect 14 0 7 0;
#X restore 516 1526 pd morph-parameters;
#N canvas 3 56 1069 676 morph-parameters 0;
#X obj 176 94 inlet;
#X obj 176 236 pack f f;
#X obj 176 261 line;
#X obj 209 117 r preset-manager-morph-s;
#X msg 72 244 stop;
#X obj 72 214 r STOP-MORPH!;
#X obj 209 206 spigot;
#X obj 398 137 t f f;
#X obj 455 154 == 0;
#X obj 221 176 f;
#X floatatom 455 222 5 0 0 0 - - -;
#X obj 398 159 t b f;
#X floatatom 425 192 5 0 0 0 - - -;
#X obj 209 139 t f f;
#X obj 398 102 r parameters-s;
#X obj 176 288 outlet;
#X connect 0 0 1 0;
#X connect 1 0 2 0;
#X connect 2 0 15 0;
#X connect 3 0 13 0;
#X connect 4 0 2 0;
#X connect 5 0 4 0;
#X connect 6 0 1 1;
#X connect 7 0 11 0;
#X connect 7 1 8 0;
#X connect 8 0 10 0;
#X connect 9 0 6 0;
#X connect 10 0 1 1;
#X connect 11 0 9 0;
#X connect 11 1 12 0;
#X connect 12 0 6 1;
#X connect 13 0 6 0;
#X connect 13 1 9 1;
#X connect 14 0 7 0;
#X restore 516 1570 pd morph-parameters;
#N canvas 3 56 1069 676 morph-parameters 0;
#X obj 176 94 inlet;
#X obj 176 236 pack f f;
#X obj 176 261 line;
#X obj 209 117 r preset-manager-morph-s;
#X msg 72 244 stop;
#X obj 72 214 r STOP-MORPH!;
#X obj 209 206 spigot;
#X obj 398 137 t f f;
#X obj 455 154 == 0;
#X obj 221 176 f;
#X floatatom 455 222 5 0 0 0 - - -;
#X obj 398 159 t b f;
#X floatatom 425 192 5 0 0 0 - - -;
#X obj 209 139 t f f;
#X obj 398 102 r parameters-s;
#X obj 176 288 outlet;
#X connect 0 0 1 0;
#X connect 1 0 2 0;
#X connect 2 0 15 0;
#X connect 3 0 13 0;
#X connect 4 0 2 0;
#X connect 5 0 4 0;
#X connect 6 0 1 1;
#X connect 7 0 11 0;
#X connect 7 1 8 0;
#X connect 8 0 10 0;
#X connect 9 0 6 0;
#X connect 10 0 1 1;
#X connect 11 0 9 0;
#X connect 11 1 12 0;
#X connect 12 0 6 1;
#X connect 13 0 6 0;
#X connect 13 1 9 1;
#X connect 14 0 7 0;
#X restore 517 1615 pd morph-parameters;
#N canvas 3 56 1069 676 morph-parameters 0;
#X obj 176 94 inlet;
#X obj 176 236 pack f f;
#X obj 176 261 line;
#X obj 209 117 r preset-manager-morph-s;
#X msg 72 244 stop;
#X obj 72 214 r STOP-MORPH!;
#X obj 209 206 spigot;
#X obj 398 137 t f f;
#X obj 455 154 == 0;
#X obj 221 176 f;
#X floatatom 455 222 5 0 0 0 - - -;
#X obj 398 159 t b f;
#X floatatom 425 192 5 0 0 0 - - -;
#X obj 209 139 t f f;
#X obj 398 102 r parameters-s;
#X obj 176 288 outlet;
#X connect 0 0 1 0;
#X connect 1 0 2 0;
#X connect 2 0 15 0;
#X connect 3 0 13 0;
#X connect 4 0 2 0;
#X connect 5 0 4 0;
#X connect 6 0 1 1;
#X connect 7 0 11 0;
#X connect 7 1 8 0;
#X connect 8 0 10 0;
#X connect 9 0 6 0;
#X connect 10 0 1 1;
#X connect 11 0 9 0;
#X connect 11 1 12 0;
#X connect 12 0 6 1;
#X connect 13 0 6 0;
#X connect 13 1 9 1;
#X connect 14 0 7 0;
#X restore 825 1479 pd morph-parameters;
#N canvas 3 56 1069 676 morph-parameters 0;
#X obj 176 94 inlet;
#X obj 176 236 pack f f;
#X obj 176 261 line;
#X obj 209 117 r preset-manager-morph-s;
#X msg 72 244 stop;
#X obj 72 214 r STOP-MORPH!;
#X obj 209 206 spigot;
#X obj 398 137 t f f;
#X obj 455 154 == 0;
#X obj 221 176 f;
#X floatatom 455 222 5 0 0 0 - - -;
#X obj 398 159 t b f;
#X floatatom 425 192 5 0 0 0 - - -;
#X obj 209 139 t f f;
#X obj 398 102 r parameters-s;
#X obj 176 288 outlet;
#X connect 0 0 1 0;
#X connect 1 0 2 0;
#X connect 2 0 15 0;
#X connect 3 0 13 0;
#X connect 4 0 2 0;
#X connect 5 0 4 0;
#X connect 6 0 1 1;
#X connect 7 0 11 0;
#X connect 7 1 8 0;
#X connect 8 0 10 0;
#X connect 9 0 6 0;
#X connect 10 0 1 1;
#X connect 11 0 9 0;
#X connect 11 1 12 0;
#X connect 12 0 6 1;
#X connect 13 0 6 0;
#X connect 13 1 9 1;
#X connect 14 0 7 0;
#X restore 825 1525 pd morph-parameters;
#N canvas 3 56 1069 676 morph-parameters 0;
#X obj 176 94 inlet;
#X obj 176 236 pack f f;
#X obj 176 261 line;
#X obj 209 117 r preset-manager-morph-s;
#X msg 72 244 stop;
#X obj 72 214 r STOP-MORPH!;
#X obj 209 206 spigot;
#X obj 398 137 t f f;
#X obj 455 154 == 0;
#X obj 221 176 f;
#X floatatom 455 222 5 0 0 0 - - -;
#X obj 398 159 t b f;
#X floatatom 425 192 5 0 0 0 - - -;
#X obj 209 139 t f f;
#X obj 398 102 r parameters-s;
#X obj 176 288 outlet;
#X connect 0 0 1 0;
#X connect 1 0 2 0;
#X connect 2 0 15 0;
#X connect 3 0 13 0;
#X connect 4 0 2 0;
#X connect 5 0 4 0;
#X connect 6 0 1 1;
#X connect 7 0 11 0;
#X connect 7 1 8 0;
#X connect 8 0 10 0;
#X connect 9 0 6 0;
#X connect 10 0 1 1;
#X connect 11 0 9 0;
#X connect 11 1 12 0;
#X connect 12 0 6 1;
#X connect 13 0 6 0;
#X connect 13 1 9 1;
#X connect 14 0 7 0;
#X restore 825 1569 pd morph-parameters;
#N canvas 3 56 1069 676 morph-parameters 0;
#X obj 176 94 inlet;
#X obj 176 236 pack f f;
#X obj 176 261 line;
#X obj 209 117 r preset-manager-morph-s;
#X msg 72 244 stop;
#X obj 72 214 r STOP-MORPH!;
#X obj 209 206 spigot;
#X obj 398 137 t f f;
#X obj 455 154 == 0;
#X obj 221 176 f;
#X floatatom 455 222 5 0 0 0 - - -;
#X obj 398 159 t b f;
#X floatatom 425 192 5 0 0 0 - - -;
#X obj 209 139 t f f;
#X obj 398 102 r parameters-s;
#X obj 176 288 outlet;
#X connect 0 0 1 0;
#X connect 1 0 2 0;
#X connect 2 0 15 0;
#X connect 3 0 13 0;
#X connect 4 0 2 0;
#X connect 5 0 4 0;
#X connect 6 0 1 1;
#X connect 7 0 11 0;
#X connect 7 1 8 0;
#X connect 8 0 10 0;
#X connect 9 0 6 0;
#X connect 10 0 1 1;
#X connect 11 0 9 0;
#X connect 11 1 12 0;
#X connect 12 0 6 1;
#X connect 13 0 6 0;
#X connect 13 1 9 1;
#X connect 14 0 7 0;
#X restore 826 1614 pd morph-parameters;
#X msg 207 1108 read statesave/\$1-\$2-universal-mixer-ss.txt;
#X connect 2 0 62 0;
#X connect 3 0 10 0;
#X connect 4 0 7 0;
#X connect 4 1 6 0;
#X connect 4 2 5 0;
#X connect 5 0 1 0;
#X connect 6 0 2 0;
#X connect 7 0 3 0;
#X connect 8 0 4 0;
#X connect 9 0 8 0;
#X connect 10 0 64 0;
#X connect 11 0 12 0;
#X connect 12 0 10 1;
#X connect 13 0 3 1;
#X connect 20 0 69 0;
#X connect 21 0 20 0;
#X connect 22 0 20 0;
#X connect 23 0 22 0;
#X connect 23 1 21 0;
#X connect 24 0 28 0;
#X connect 25 0 23 0;
#X connect 25 1 24 0;
#X connect 26 0 25 0;
#X connect 26 1 24 1;
#X connect 27 0 28 1;
#X connect 28 0 108 0;
#X connect 29 0 27 0;
#X connect 30 0 26 0;
#X connect 37 0 62 3;
#X connect 38 0 62 2;
#X connect 39 0 62 1;
#X connect 40 0 62 4;
#X connect 41 0 62 5;
#X connect 42 0 62 6;
#X connect 43 0 62 7;
#X connect 44 0 62 8;
#X connect 45 0 62 9;
#X connect 46 0 62 10;
#X connect 47 0 62 11;
#X connect 48 0 62 12;
#X connect 49 0 62 13;
#X connect 50 0 62 14;
#X connect 51 0 62 15;
#X connect 52 0 62 16;
#X connect 53 0 62 17;
#X connect 54 0 62 18;
#X connect 55 0 62 19;
#X connect 56 0 62 20;
#X connect 57 0 62 21;
#X connect 58 0 62 22;
#X connect 59 0 62 23;
#X connect 60 0 62 24;
#X connect 61 0 62 25;
#X connect 62 0 63 0;
#X connect 63 0 1 0;
#X connect 64 0 1 0;
#X connect 69 0 65 0;
#X connect 69 1 66 0;
#X connect 69 2 67 0;
#X connect 69 3 68 0;
#X connect 69 4 92 0;
#X connect 69 5 93 0;
#X connect 69 6 94 0;
#X connect 69 7 95 0;
#X connect 69 8 96 0;
#X connect 69 9 97 0;
#X connect 69 10 98 0;
#X connect 69 11 99 0;
#X connect 69 12 100 0;
#X connect 69 13 101 0;
#X connect 69 14 102 0;
#X connect 69 15 103 0;
#X connect 69 16 82 0;
#X connect 69 17 83 0;
#X connect 69 18 84 0;
#X connect 69 19 85 0;
#X connect 69 20 104 0;
#X connect 69 21 105 0;
#X connect 69 22 106 0;
#X connect 69 23 107 0;
#X connect 69 24 90 0;
#X connect 69 25 91 0;
#X connect 92 0 70 0;
#X connect 93 0 71 0;
#X connect 94 0 72 0;
#X connect 95 0 73 0;
#X connect 96 0 74 0;
#X connect 97 0 75 0;
#X connect 98 0 76 0;
#X connect 99 0 77 0;
#X connect 100 0 78 0;
#X connect 101 0 79 0;
#X connect 102 0 80 0;
#X connect 103 0 81 0;
#X connect 104 0 86 0;
#X connect 105 0 87 0;
#X connect 106 0 88 0;
#X connect 107 0 89 0;
#X connect 108 0 20 0;
#X restore 98 551 pd state-saving-via-preset-manager-module;
#N canvas 74 29 1366 679 parameter-nudging-system 0;
#X obj 47 21 cnv 15 580 600 empty empty Knobs 20 20 0 20 -261234 -33289
0;
#N canvas 3 56 484 497 nudge-attenuators 0;
#X obj 124 234 random;
#X obj 232 335 f;
#X obj 232 368 +;
#X obj 257 166 random 2;
#X obj 124 275 t f f;
#X obj 124 351 t b f;
#X obj 124 297 *;
#X obj 257 188 sel 0 1;
#X msg 257 280 -1;
#X msg 335 280 1;
#X obj 124 149 t b b b;
#X obj 124 71 r NUDGE!;
#X obj 157 193 r NUDGE-RANGE;
#X obj 247 308 inlet;
#X obj 232 397 outlet;
#X obj 124 93 spigot;
#X obj 201 76 r attenuators2-s;
#X connect 0 0 4 0;
#X connect 1 0 2 0;
#X connect 2 0 14 0;
#X connect 3 0 7 0;
#X connect 4 0 6 0;
#X connect 5 0 2 0;
#X connect 5 1 2 1;
#X connect 6 0 5 0;
#X connect 7 0 8 0;
#X connect 7 1 9 0;
#X connect 8 0 6 1;
#X connect 9 0 6 1;
#X connect 10 0 0 0;
#X connect 10 1 1 0;
#X connect 10 2 3 0;
#X connect 11 0 15 0;
#X connect 12 0 0 1;
#X connect 13 0 1 1;
#X connect 15 0 10 0;
#X connect 16 0 15 1;
#X restore 58 99 pd nudge-attenuators;
#X obj 58 121 clip 0.1 10;
#N canvas 3 56 484 497 nudge-attenuators 0;
#X obj 124 234 random;
#X obj 232 335 f;
#X obj 232 368 +;
#X obj 257 166 random 2;
#X obj 124 275 t f f;
#X obj 124 351 t b f;
#X obj 124 297 *;
#X obj 257 188 sel 0 1;
#X msg 257 280 -1;
#X msg 335 280 1;
#X obj 124 149 t b b b;
#X obj 124 71 r NUDGE!;
#X obj 157 193 r NUDGE-RANGE;
#X obj 247 308 inlet;
#X obj 232 397 outlet;
#X obj 124 93 spigot;
#X obj 201 76 r attenuators2-s;
#X connect 0 0 4 0;
#X connect 1 0 2 0;
#X connect 2 0 14 0;
#X connect 3 0 7 0;
#X connect 4 0 6 0;
#X connect 5 0 2 0;
#X connect 5 1 2 1;
#X connect 6 0 5 0;
#X connect 7 0 8 0;
#X connect 7 1 9 0;
#X connect 8 0 6 1;
#X connect 9 0 6 1;
#X connect 10 0 0 0;
#X connect 10 1 1 0;
#X connect 10 2 3 0;
#X connect 11 0 15 0;
#X connect 12 0 0 1;
#X connect 13 0 1 1;
#X connect 15 0 10 0;
#X connect 16 0 15 1;
#X restore 202 99 pd nudge-attenuators;
#X obj 202 121 clip 0.1 10;
#N canvas 3 56 484 497 nudge-attenuators 0;
#X obj 124 234 random;
#X obj 232 335 f;
#X obj 232 368 +;
#X obj 257 166 random 2;
#X obj 124 275 t f f;
#X obj 124 351 t b f;
#X obj 124 297 *;
#X obj 257 188 sel 0 1;
#X msg 257 280 -1;
#X msg 335 280 1;
#X obj 124 149 t b b b;
#X obj 124 71 r NUDGE!;
#X obj 157 193 r NUDGE-RANGE;
#X obj 247 308 inlet;
#X obj 232 397 outlet;
#X obj 124 93 spigot;
#X obj 201 76 r attenuators2-s;
#X connect 0 0 4 0;
#X connect 1 0 2 0;
#X connect 2 0 14 0;
#X connect 3 0 7 0;
#X connect 4 0 6 0;
#X connect 5 0 2 0;
#X connect 5 1 2 1;
#X connect 6 0 5 0;
#X connect 7 0 8 0;
#X connect 7 1 9 0;
#X connect 8 0 6 1;
#X connect 9 0 6 1;
#X connect 10 0 0 0;
#X connect 10 1 1 0;
#X connect 10 2 3 0;
#X connect 11 0 15 0;
#X connect 12 0 0 1;
#X connect 13 0 1 1;
#X connect 15 0 10 0;
#X connect 16 0 15 1;
#X restore 338 99 pd nudge-attenuators;
#X obj 338 121 clip 0.1 10;
#N canvas 3 56 484 497 nudge-attenuators 0;
#X obj 124 234 random;
#X obj 232 335 f;
#X obj 232 368 +;
#X obj 257 166 random 2;
#X obj 124 275 t f f;
#X obj 124 351 t b f;
#X obj 124 297 *;
#X obj 257 188 sel 0 1;
#X msg 257 280 -1;
#X msg 335 280 1;
#X obj 124 149 t b b b;
#X obj 124 71 r NUDGE!;
#X obj 157 193 r NUDGE-RANGE;
#X obj 247 308 inlet;
#X obj 232 397 outlet;
#X obj 124 93 spigot;
#X obj 201 76 r attenuators2-s;
#X connect 0 0 4 0;
#X connect 1 0 2 0;
#X connect 2 0 14 0;
#X connect 3 0 7 0;
#X connect 4 0 6 0;
#X connect 5 0 2 0;
#X connect 5 1 2 1;
#X connect 6 0 5 0;
#X connect 7 0 8 0;
#X connect 7 1 9 0;
#X connect 8 0 6 1;
#X connect 9 0 6 1;
#X connect 10 0 0 0;
#X connect 10 1 1 0;
#X connect 10 2 3 0;
#X connect 11 0 15 0;
#X connect 12 0 0 1;
#X connect 13 0 1 1;
#X connect 15 0 10 0;
#X connect 16 0 15 1;
#X restore 482 99 pd nudge-attenuators;
#X obj 482 121 clip 0.1 10;
#N canvas 3 56 484 497 nudge-attenuators 0;
#X obj 124 234 random;
#X obj 232 335 f;
#X obj 232 368 +;
#X obj 257 166 random 2;
#X obj 124 275 t f f;
#X obj 124 351 t b f;
#X obj 124 297 *;
#X obj 257 188 sel 0 1;
#X msg 257 280 -1;
#X msg 335 280 1;
#X obj 124 149 t b b b;
#X obj 124 71 r NUDGE!;
#X obj 157 193 r NUDGE-RANGE;
#X obj 247 308 inlet;
#X obj 232 397 outlet;
#X obj 124 93 spigot;
#X obj 201 76 r attenuators2-s;
#X connect 0 0 4 0;
#X connect 1 0 2 0;
#X connect 2 0 14 0;
#X connect 3 0 7 0;
#X connect 4 0 6 0;
#X connect 5 0 2 0;
#X connect 5 1 2 1;
#X connect 6 0 5 0;
#X connect 7 0 8 0;
#X connect 7 1 9 0;
#X connect 8 0 6 1;
#X connect 9 0 6 1;
#X connect 10 0 0 0;
#X connect 10 1 1 0;
#X connect 10 2 3 0;
#X connect 11 0 15 0;
#X connect 12 0 0 1;
#X connect 13 0 1 1;
#X connect 15 0 10 0;
#X connect 16 0 15 1;
#X restore 58 234 pd nudge-attenuators;
#X obj 58 256 clip 0.1 10;
#N canvas 3 56 484 497 nudge-attenuators 0;
#X obj 124 234 random;
#X obj 232 335 f;
#X obj 232 368 +;
#X obj 257 166 random 2;
#X obj 124 275 t f f;
#X obj 124 351 t b f;
#X obj 124 297 *;
#X obj 257 188 sel 0 1;
#X msg 257 280 -1;
#X msg 335 280 1;
#X obj 124 149 t b b b;
#X obj 124 71 r NUDGE!;
#X obj 157 193 r NUDGE-RANGE;
#X obj 247 308 inlet;
#X obj 232 397 outlet;
#X obj 124 93 spigot;
#X obj 201 76 r attenuators2-s;
#X connect 0 0 4 0;
#X connect 1 0 2 0;
#X connect 2 0 14 0;
#X connect 3 0 7 0;
#X connect 4 0 6 0;
#X connect 5 0 2 0;
#X connect 5 1 2 1;
#X connect 6 0 5 0;
#X connect 7 0 8 0;
#X connect 7 1 9 0;
#X connect 8 0 6 1;
#X connect 9 0 6 1;
#X connect 10 0 0 0;
#X connect 10 1 1 0;
#X connect 10 2 3 0;
#X connect 11 0 15 0;
#X connect 12 0 0 1;
#X connect 13 0 1 1;
#X connect 15 0 10 0;
#X connect 16 0 15 1;
#X restore 201 235 pd nudge-attenuators;
#X obj 201 257 clip 0.1 10;
#N canvas 3 56 484 497 nudge-attenuators 0;
#X obj 124 234 random;
#X obj 232 335 f;
#X obj 232 368 +;
#X obj 257 166 random 2;
#X obj 124 275 t f f;
#X obj 124 351 t b f;
#X obj 124 297 *;
#X obj 257 188 sel 0 1;
#X msg 257 280 -1;
#X msg 335 280 1;
#X obj 124 149 t b b b;
#X obj 124 71 r NUDGE!;
#X obj 157 193 r NUDGE-RANGE;
#X obj 247 308 inlet;
#X obj 232 397 outlet;
#X obj 124 93 spigot;
#X obj 201 76 r attenuators2-s;
#X connect 0 0 4 0;
#X connect 1 0 2 0;
#X connect 2 0 14 0;
#X connect 3 0 7 0;
#X connect 4 0 6 0;
#X connect 5 0 2 0;
#X connect 5 1 2 1;
#X connect 6 0 5 0;
#X connect 7 0 8 0;
#X connect 7 1 9 0;
#X connect 8 0 6 1;
#X connect 9 0 6 1;
#X connect 10 0 0 0;
#X connect 10 1 1 0;
#X connect 10 2 3 0;
#X connect 11 0 15 0;
#X connect 12 0 0 1;
#X connect 13 0 1 1;
#X connect 15 0 10 0;
#X connect 16 0 15 1;
#X restore 338 235 pd nudge-attenuators;
#X obj 338 257 clip 0.1 10;
#N canvas 3 56 484 497 nudge-attenuators 0;
#X obj 124 234 random;
#X obj 232 335 f;
#X obj 232 368 +;
#X obj 257 166 random 2;
#X obj 124 275 t f f;
#X obj 124 351 t b f;
#X obj 124 297 *;
#X obj 257 188 sel 0 1;
#X msg 257 280 -1;
#X msg 335 280 1;
#X obj 124 149 t b b b;
#X obj 124 71 r NUDGE!;
#X obj 157 193 r NUDGE-RANGE;
#X obj 247 308 inlet;
#X obj 232 397 outlet;
#X obj 124 93 spigot;
#X obj 201 76 r attenuators2-s;
#X connect 0 0 4 0;
#X connect 1 0 2 0;
#X connect 2 0 14 0;
#X connect 3 0 7 0;
#X connect 4 0 6 0;
#X connect 5 0 2 0;
#X connect 5 1 2 1;
#X connect 6 0 5 0;
#X connect 7 0 8 0;
#X connect 7 1 9 0;
#X connect 8 0 6 1;
#X connect 9 0 6 1;
#X connect 10 0 0 0;
#X connect 10 1 1 0;
#X connect 10 2 3 0;
#X connect 11 0 15 0;
#X connect 12 0 0 1;
#X connect 13 0 1 1;
#X connect 15 0 10 0;
#X connect 16 0 15 1;
#X restore 481 236 pd nudge-attenuators;
#X obj 481 258 clip 0.1 10;
#N canvas 3 56 484 497 nudge-attenuators 0;
#X obj 124 234 random;
#X obj 232 335 f;
#X obj 232 368 +;
#X obj 257 166 random 2;
#X obj 124 275 t f f;
#X obj 124 351 t b f;
#X obj 124 297 *;
#X obj 257 188 sel 0 1;
#X msg 257 280 -1;
#X msg 335 280 1;
#X obj 124 149 t b b b;
#X obj 124 71 r NUDGE!;
#X obj 157 193 r NUDGE-RANGE;
#X obj 247 308 inlet;
#X obj 232 397 outlet;
#X obj 124 93 spigot;
#X obj 201 76 r attenuators2-s;
#X connect 0 0 4 0;
#X connect 1 0 2 0;
#X connect 2 0 14 0;
#X connect 3 0 7 0;
#X connect 4 0 6 0;
#X connect 5 0 2 0;
#X connect 5 1 2 1;
#X connect 6 0 5 0;
#X connect 7 0 8 0;
#X connect 7 1 9 0;
#X connect 8 0 6 1;
#X connect 9 0 6 1;
#X connect 10 0 0 0;
#X connect 10 1 1 0;
#X connect 10 2 3 0;
#X connect 11 0 15 0;
#X connect 12 0 0 1;
#X connect 13 0 1 1;
#X connect 15 0 10 0;
#X connect 16 0 15 1;
#X restore 57 364 pd nudge-attenuators;
#X obj 57 386 clip 0.1 10;
#N canvas 3 56 484 497 nudge-attenuators 0;
#X obj 124 234 random;
#X obj 232 335 f;
#X obj 232 368 +;
#X obj 257 166 random 2;
#X obj 124 275 t f f;
#X obj 124 351 t b f;
#X obj 124 297 *;
#X obj 257 188 sel 0 1;
#X msg 257 280 -1;
#X msg 335 280 1;
#X obj 124 149 t b b b;
#X obj 124 71 r NUDGE!;
#X obj 157 193 r NUDGE-RANGE;
#X obj 247 308 inlet;
#X obj 232 397 outlet;
#X obj 124 93 spigot;
#X obj 201 76 r attenuators2-s;
#X connect 0 0 4 0;
#X connect 1 0 2 0;
#X connect 2 0 14 0;
#X connect 3 0 7 0;
#X connect 4 0 6 0;
#X connect 5 0 2 0;
#X connect 5 1 2 1;
#X connect 6 0 5 0;
#X connect 7 0 8 0;
#X connect 7 1 9 0;
#X connect 8 0 6 1;
#X connect 9 0 6 1;
#X connect 10 0 0 0;
#X connect 10 1 1 0;
#X connect 10 2 3 0;
#X connect 11 0 15 0;
#X connect 12 0 0 1;
#X connect 13 0 1 1;
#X connect 15 0 10 0;
#X connect 16 0 15 1;
#X restore 200 365 pd nudge-attenuators;
#X obj 200 387 clip 0.1 10;
#N canvas 3 56 484 497 nudge-attenuators 0;
#X obj 124 234 random;
#X obj 232 335 f;
#X obj 232 368 +;
#X obj 257 166 random 2;
#X obj 124 275 t f f;
#X obj 124 351 t b f;
#X obj 124 297 *;
#X obj 257 188 sel 0 1;
#X msg 257 280 -1;
#X msg 335 280 1;
#X obj 124 149 t b b b;
#X obj 124 71 r NUDGE!;
#X obj 157 193 r NUDGE-RANGE;
#X obj 247 308 inlet;
#X obj 232 397 outlet;
#X obj 124 93 spigot;
#X obj 201 76 r attenuators2-s;
#X connect 0 0 4 0;
#X connect 1 0 2 0;
#X connect 2 0 14 0;
#X connect 3 0 7 0;
#X connect 4 0 6 0;
#X connect 5 0 2 0;
#X connect 5 1 2 1;
#X connect 6 0 5 0;
#X connect 7 0 8 0;
#X connect 7 1 9 0;
#X connect 8 0 6 1;
#X connect 9 0 6 1;
#X connect 10 0 0 0;
#X connect 10 1 1 0;
#X connect 10 2 3 0;
#X connect 11 0 15 0;
#X connect 12 0 0 1;
#X connect 13 0 1 1;
#X connect 15 0 10 0;
#X connect 16 0 15 1;
#X restore 337 365 pd nudge-attenuators;
#X obj 337 387 clip 0.1 10;
#N canvas 3 56 484 497 nudge-attenuators 0;
#X obj 124 234 random;
#X obj 232 335 f;
#X obj 232 368 +;
#X obj 257 166 random 2;
#X obj 124 275 t f f;
#X obj 124 351 t b f;
#X obj 124 297 *;
#X obj 257 188 sel 0 1;
#X msg 257 280 -1;
#X msg 335 280 1;
#X obj 124 149 t b b b;
#X obj 124 71 r NUDGE!;
#X obj 157 193 r NUDGE-RANGE;
#X obj 247 308 inlet;
#X obj 232 397 outlet;
#X obj 124 93 spigot;
#X obj 201 76 r attenuators2-s;
#X connect 0 0 4 0;
#X connect 1 0 2 0;
#X connect 2 0 14 0;
#X connect 3 0 7 0;
#X connect 4 0 6 0;
#X connect 5 0 2 0;
#X connect 5 1 2 1;
#X connect 6 0 5 0;
#X connect 7 0 8 0;
#X connect 7 1 9 0;
#X connect 8 0 6 1;
#X connect 9 0 6 1;
#X connect 10 0 0 0;
#X connect 10 1 1 0;
#X connect 10 2 3 0;
#X connect 11 0 15 0;
#X connect 12 0 0 1;
#X connect 13 0 1 1;
#X connect 15 0 10 0;
#X connect 16 0 15 1;
#X restore 480 366 pd nudge-attenuators;
#X obj 480 388 clip 0.1 10;
#N canvas 3 56 484 497 nudge-attenuators 0;
#X obj 124 234 random;
#X obj 232 335 f;
#X obj 232 368 +;
#X obj 257 166 random 2;
#X obj 124 275 t f f;
#X obj 124 351 t b f;
#X obj 124 297 *;
#X obj 257 188 sel 0 1;
#X msg 257 280 -1;
#X msg 335 280 1;
#X obj 124 149 t b b b;
#X obj 124 71 r NUDGE!;
#X obj 157 193 r NUDGE-RANGE;
#X obj 247 308 inlet;
#X obj 232 397 outlet;
#X obj 124 93 spigot;
#X obj 201 76 r attenuators2-s;
#X connect 0 0 4 0;
#X connect 1 0 2 0;
#X connect 2 0 14 0;
#X connect 3 0 7 0;
#X connect 4 0 6 0;
#X connect 5 0 2 0;
#X connect 5 1 2 1;
#X connect 6 0 5 0;
#X connect 7 0 8 0;
#X connect 7 1 9 0;
#X connect 8 0 6 1;
#X connect 9 0 6 1;
#X connect 10 0 0 0;
#X connect 10 1 1 0;
#X connect 10 2 3 0;
#X connect 11 0 15 0;
#X connect 12 0 0 1;
#X connect 13 0 1 1;
#X connect 15 0 10 0;
#X connect 16 0 15 1;
#X restore 57 495 pd nudge-attenuators;
#X obj 57 517 clip 0.1 10;
#N canvas 3 56 484 497 nudge-attenuators 0;
#X obj 124 234 random;
#X obj 232 335 f;
#X obj 232 368 +;
#X obj 257 166 random 2;
#X obj 124 275 t f f;
#X obj 124 351 t b f;
#X obj 124 297 *;
#X obj 257 188 sel 0 1;
#X msg 257 280 -1;
#X msg 335 280 1;
#X obj 124 149 t b b b;
#X obj 124 71 r NUDGE!;
#X obj 157 193 r NUDGE-RANGE;
#X obj 247 308 inlet;
#X obj 232 397 outlet;
#X obj 124 93 spigot;
#X obj 201 76 r attenuators2-s;
#X connect 0 0 4 0;
#X connect 1 0 2 0;
#X connect 2 0 14 0;
#X connect 3 0 7 0;
#X connect 4 0 6 0;
#X connect 5 0 2 0;
#X connect 5 1 2 1;
#X connect 6 0 5 0;
#X connect 7 0 8 0;
#X connect 7 1 9 0;
#X connect 8 0 6 1;
#X connect 9 0 6 1;
#X connect 10 0 0 0;
#X connect 10 1 1 0;
#X connect 10 2 3 0;
#X connect 11 0 15 0;
#X connect 12 0 0 1;
#X connect 13 0 1 1;
#X connect 15 0 10 0;
#X connect 16 0 15 1;
#X restore 201 495 pd nudge-attenuators;
#X obj 201 517 clip 0.1 10;
#N canvas 3 56 484 497 nudge-attenuators 0;
#X obj 124 234 random;
#X obj 232 335 f;
#X obj 232 368 +;
#X obj 257 166 random 2;
#X obj 124 275 t f f;
#X obj 124 351 t b f;
#X obj 124 297 *;
#X obj 257 188 sel 0 1;
#X msg 257 280 -1;
#X msg 335 280 1;
#X obj 124 149 t b b b;
#X obj 124 71 r NUDGE!;
#X obj 157 193 r NUDGE-RANGE;
#X obj 247 308 inlet;
#X obj 232 397 outlet;
#X obj 124 93 spigot;
#X obj 201 76 r attenuators2-s;
#X connect 0 0 4 0;
#X connect 1 0 2 0;
#X connect 2 0 14 0;
#X connect 3 0 7 0;
#X connect 4 0 6 0;
#X connect 5 0 2 0;
#X connect 5 1 2 1;
#X connect 6 0 5 0;
#X connect 7 0 8 0;
#X connect 7 1 9 0;
#X connect 8 0 6 1;
#X connect 9 0 6 1;
#X connect 10 0 0 0;
#X connect 10 1 1 0;
#X connect 10 2 3 0;
#X connect 11 0 15 0;
#X connect 12 0 0 1;
#X connect 13 0 1 1;
#X connect 15 0 10 0;
#X connect 16 0 15 1;
#X restore 337 495 pd nudge-attenuators;
#X obj 337 517 clip 0.1 10;
#N canvas 3 56 484 497 nudge-attenuators 0;
#X obj 124 234 random;
#X obj 232 335 f;
#X obj 232 368 +;
#X obj 257 166 random 2;
#X obj 124 275 t f f;
#X obj 124 351 t b f;
#X obj 124 297 *;
#X obj 257 188 sel 0 1;
#X msg 257 280 -1;
#X msg 335 280 1;
#X obj 124 149 t b b b;
#X obj 124 71 r NUDGE!;
#X obj 157 193 r NUDGE-RANGE;
#X obj 247 308 inlet;
#X obj 232 397 outlet;
#X obj 124 93 spigot;
#X obj 201 76 r attenuators2-s;
#X connect 0 0 4 0;
#X connect 1 0 2 0;
#X connect 2 0 14 0;
#X connect 3 0 7 0;
#X connect 4 0 6 0;
#X connect 5 0 2 0;
#X connect 5 1 2 1;
#X connect 6 0 5 0;
#X connect 7 0 8 0;
#X connect 7 1 9 0;
#X connect 8 0 6 1;
#X connect 9 0 6 1;
#X connect 10 0 0 0;
#X connect 10 1 1 0;
#X connect 10 2 3 0;
#X connect 11 0 15 0;
#X connect 12 0 0 1;
#X connect 13 0 1 1;
#X connect 15 0 10 0;
#X connect 16 0 15 1;
#X restore 481 495 pd nudge-attenuators;
#X obj 481 517 clip 0.1 10;
#X obj 642 21 cnv 15 750 570 empty empty Toggles/Radiobuttons 20 20
0 20 -261682 -33289 0;
#X obj 58 71 r \$0-um-ch1-fader-s;
#X obj 58 151 s \$0-um-ch1-fader-r;
#X obj 202 71 r \$0-um-ch2-fader-s;
#X obj 202 151 s \$0-um-ch2-fader-r;
#X obj 338 71 r \$0-um-ch3-fader-s;
#X obj 338 151 s \$0-um-ch3-fader-r;
#X obj 482 71 r \$0-um-ch4-fader-s;
#X obj 482 151 s \$0-um-ch4-fader-r;
#X obj 58 206 r \$0-um-ch1-panAB-s;
#X obj 58 286 s \$0-um-ch1-panAB-r;
#X obj 201 207 r \$0-um-ch2-panAB-s;
#X obj 201 287 s \$0-um-ch2-panAB-r;
#X obj 338 207 r \$0-um-ch3-panAB-s;
#X obj 338 287 s \$0-um-ch3-panAB-r;
#X obj 481 208 r \$0-um-ch4-panAB-s;
#X obj 481 288 s \$0-um-ch4-panAB-r;
#X obj 57 336 r \$0-um-ch1-echo-s;
#X obj 57 416 s \$0-um-ch1-echo-r;
#X obj 200 337 r \$0-um-ch2-echo-s;
#X obj 200 417 s \$0-um-ch2-echo-r;
#X obj 337 337 r \$0-um-ch3-echo-s;
#X obj 337 417 s \$0-um-ch3-echo-r;
#X obj 480 338 r \$0-um-ch4-echo-s;
#X obj 480 418 s \$0-um-ch4-echo-r;
#X obj 57 467 r \$0-um-ch1-pan12-s;
#X obj 57 547 s \$0-um-ch1-pan12-r;
#X obj 201 467 r \$0-um-ch2-pan12-s;
#X obj 201 547 s \$0-um-ch2-pan12-r;
#X obj 337 467 r \$0-um-ch3-pan34-s;
#X obj 337 547 s \$0-um-ch3-pan34-r;
#X obj 481 467 r \$0-um-ch4-pan34-s;
#X obj 481 547 s \$0-um-ch4-pan34-r;
#X obj 653 113 clip 0 127;
#X obj 653 135 expr $f1/128;
#X obj 653 177 int;
#N canvas 0 22 484 497 nudge-parameters 0;
#X obj 124 234 random;
#X obj 232 335 f;
#X obj 232 368 +;
#X obj 257 166 random 2;
#X obj 124 275 t f f;
#X obj 124 351 t b f;
#X obj 124 297 *;
#X obj 257 188 sel 0 1;
#X msg 257 280 -1;
#X msg 335 280 1;
#X obj 124 149 t b b b;
#X obj 124 74 r NUDGE!;
#X obj 157 193 r NUDGE-RANGE;
#X obj 247 308 inlet;
#X obj 232 397 outlet;
#X obj 124 96 spigot;
#X obj 185 79 r parameters2-s;
#X connect 0 0 4 0;
#X connect 1 0 2 0;
#X connect 2 0 14 0;
#X connect 3 0 7 0;
#X connect 4 0 6 0;
#X connect 5 0 2 0;
#X connect 5 1 2 1;
#X connect 6 0 5 0;
#X connect 7 0 8 0;
#X connect 7 1 9 0;
#X connect 8 0 6 1;
#X connect 9 0 6 1;
#X connect 10 0 0 0;
#X connect 10 1 1 0;
#X connect 10 2 3 0;
#X connect 11 0 15 0;
#X connect 12 0 0 1;
#X connect 13 0 1 1;
#X connect 15 0 10 0;
#X connect 16 0 15 1;
#X restore 653 91 pd nudge-parameters;
#X obj 1083 113 clip 0 127;
#X obj 1083 135 expr $f1/128;
#X obj 1083 177 int;
#N canvas 0 22 484 497 nudge-parameters 0;
#X obj 124 234 random;
#X obj 232 335 f;
#X obj 232 368 +;
#X obj 257 166 random 2;
#X obj 124 275 t f f;
#X obj 124 351 t b f;
#X obj 124 297 *;
#X obj 257 188 sel 0 1;
#X msg 257 280 -1;
#X msg 335 280 1;
#X obj 124 149 t b b b;
#X obj 124 74 r NUDGE!;
#X obj 157 193 r NUDGE-RANGE;
#X obj 247 308 inlet;
#X obj 232 397 outlet;
#X obj 124 96 spigot;
#X obj 185 79 r parameters2-s;
#X connect 0 0 4 0;
#X connect 1 0 2 0;
#X connect 2 0 14 0;
#X connect 3 0 7 0;
#X connect 4 0 6 0;
#X connect 5 0 2 0;
#X connect 5 1 2 1;
#X connect 6 0 5 0;
#X connect 7 0 8 0;
#X connect 7 1 9 0;
#X connect 8 0 6 1;
#X connect 9 0 6 1;
#X connect 10 0 0 0;
#X connect 10 1 1 0;
#X connect 10 2 3 0;
#X connect 11 0 15 0;
#X connect 12 0 0 1;
#X connect 13 0 1 1;
#X connect 15 0 10 0;
#X connect 16 0 15 1;
#X restore 1083 91 pd nudge-parameters;
#X obj 653 470 clip 0 127;
#X obj 653 492 expr $f1/128;
#X obj 653 534 int;
#N canvas 0 22 484 497 nudge-parameters 0;
#X obj 124 234 random;
#X obj 232 335 f;
#X obj 232 368 +;
#X obj 257 166 random 2;
#X obj 124 275 t f f;
#X obj 124 351 t b f;
#X obj 124 297 *;
#X obj 257 188 sel 0 1;
#X msg 257 280 -1;
#X msg 335 280 1;
#X obj 124 149 t b b b;
#X obj 124 74 r NUDGE!;
#X obj 157 193 r NUDGE-RANGE;
#X obj 247 308 inlet;
#X obj 232 397 outlet;
#X obj 124 96 spigot;
#X obj 185 79 r parameters2-s;
#X connect 0 0 4 0;
#X connect 1 0 2 0;
#X connect 2 0 14 0;
#X connect 3 0 7 0;
#X connect 4 0 6 0;
#X connect 5 0 2 0;
#X connect 5 1 2 1;
#X connect 6 0 5 0;
#X connect 7 0 8 0;
#X connect 7 1 9 0;
#X connect 8 0 6 1;
#X connect 9 0 6 1;
#X connect 10 0 0 0;
#X connect 10 1 1 0;
#X connect 10 2 3 0;
#X connect 11 0 15 0;
#X connect 12 0 0 1;
#X connect 13 0 1 1;
#X connect 15 0 10 0;
#X connect 16 0 15 1;
#X restore 653 448 pd nudge-parameters;
#X obj 653 69 r \$0-um-switch1-s;
#X obj 653 199 s \$0-um-switch1-r;
#X obj 653 156 * 2;
#X obj 789 113 clip 0 127;
#X obj 789 135 expr $f1/128;
#X obj 789 177 int;
#N canvas 0 22 484 497 nudge-parameters 0;
#X obj 124 234 random;
#X obj 232 335 f;
#X obj 232 368 +;
#X obj 257 166 random 2;
#X obj 124 275 t f f;
#X obj 124 351 t b f;
#X obj 124 297 *;
#X obj 257 188 sel 0 1;
#X msg 257 280 -1;
#X msg 335 280 1;
#X obj 124 149 t b b b;
#X obj 124 74 r NUDGE!;
#X obj 157 193 r NUDGE-RANGE;
#X obj 247 308 inlet;
#X obj 232 397 outlet;
#X obj 124 96 spigot;
#X obj 185 79 r parameters2-s;
#X connect 0 0 4 0;
#X connect 1 0 2 0;
#X connect 2 0 14 0;
#X connect 3 0 7 0;
#X connect 4 0 6 0;
#X connect 5 0 2 0;
#X connect 5 1 2 1;
#X connect 6 0 5 0;
#X connect 7 0 8 0;
#X connect 7 1 9 0;
#X connect 8 0 6 1;
#X connect 9 0 6 1;
#X connect 10 0 0 0;
#X connect 10 1 1 0;
#X connect 10 2 3 0;
#X connect 11 0 15 0;
#X connect 12 0 0 1;
#X connect 13 0 1 1;
#X connect 15 0 10 0;
#X connect 16 0 15 1;
#X restore 789 91 pd nudge-parameters;
#X obj 937 113 clip 0 127;
#X obj 937 135 expr $f1/128;
#X obj 937 177 int;
#N canvas 0 22 484 497 nudge-parameters 0;
#X obj 124 234 random;
#X obj 232 335 f;
#X obj 232 368 +;
#X obj 257 166 random 2;
#X obj 124 275 t f f;
#X obj 124 351 t b f;
#X obj 124 297 *;
#X obj 257 188 sel 0 1;
#X msg 257 280 -1;
#X msg 335 280 1;
#X obj 124 149 t b b b;
#X obj 124 74 r NUDGE!;
#X obj 157 193 r NUDGE-RANGE;
#X obj 247 308 inlet;
#X obj 232 397 outlet;
#X obj 124 96 spigot;
#X obj 185 79 r parameters2-s;
#X connect 0 0 4 0;
#X connect 1 0 2 0;
#X connect 2 0 14 0;
#X connect 3 0 7 0;
#X connect 4 0 6 0;
#X connect 5 0 2 0;
#X connect 5 1 2 1;
#X connect 6 0 5 0;
#X connect 7 0 8 0;
#X connect 7 1 9 0;
#X connect 8 0 6 1;
#X connect 9 0 6 1;
#X connect 10 0 0 0;
#X connect 10 1 1 0;
#X connect 10 2 3 0;
#X connect 11 0 15 0;
#X connect 12 0 0 1;
#X connect 13 0 1 1;
#X connect 15 0 10 0;
#X connect 16 0 15 1;
#X restore 937 91 pd nudge-parameters;
#X obj 789 156 * 2;
#X obj 937 156 * 2;
#X obj 1083 156 * 2;
#X obj 797 470 clip 0 127;
#X obj 797 492 expr $f1/128;
#X obj 797 534 int;
#N canvas 0 22 484 497 nudge-parameters 0;
#X obj 124 234 random;
#X obj 232 335 f;
#X obj 232 368 +;
#X obj 257 166 random 2;
#X obj 124 275 t f f;
#X obj 124 351 t b f;
#X obj 124 297 *;
#X obj 257 188 sel 0 1;
#X msg 257 280 -1;
#X msg 335 280 1;
#X obj 124 149 t b b b;
#X obj 124 74 r NUDGE!;
#X obj 157 193 r NUDGE-RANGE;
#X obj 247 308 inlet;
#X obj 232 397 outlet;
#X obj 124 96 spigot;
#X obj 185 79 r parameters2-s;
#X connect 0 0 4 0;
#X connect 1 0 2 0;
#X connect 2 0 14 0;
#X connect 3 0 7 0;
#X connect 4 0 6 0;
#X connect 5 0 2 0;
#X connect 5 1 2 1;
#X connect 6 0 5 0;
#X connect 7 0 8 0;
#X connect 7 1 9 0;
#X connect 8 0 6 1;
#X connect 9 0 6 1;
#X connect 10 0 0 0;
#X connect 10 1 1 0;
#X connect 10 2 3 0;
#X connect 11 0 15 0;
#X connect 12 0 0 1;
#X connect 13 0 1 1;
#X connect 15 0 10 0;
#X connect 16 0 15 1;
#X restore 797 448 pd nudge-parameters;
#X obj 653 291 clip 0 127;
#X obj 653 313 expr $f1/128;
#X obj 653 334 * 3;
#X obj 653 355 int;
#N canvas 0 22 484 497 nudge-parameters 0;
#X obj 124 234 random;
#X obj 232 335 f;
#X obj 232 368 +;
#X obj 257 166 random 2;
#X obj 124 275 t f f;
#X obj 124 351 t b f;
#X obj 124 297 *;
#X obj 257 188 sel 0 1;
#X msg 257 280 -1;
#X msg 335 280 1;
#X obj 124 149 t b b b;
#X obj 124 74 r NUDGE!;
#X obj 157 193 r NUDGE-RANGE;
#X obj 247 308 inlet;
#X obj 232 397 outlet;
#X obj 124 96 spigot;
#X obj 185 79 r parameters2-s;
#X connect 0 0 4 0;
#X connect 1 0 2 0;
#X connect 2 0 14 0;
#X connect 3 0 7 0;
#X connect 4 0 6 0;
#X connect 5 0 2 0;
#X connect 5 1 2 1;
#X connect 6 0 5 0;
#X connect 7 0 8 0;
#X connect 7 1 9 0;
#X connect 8 0 6 1;
#X connect 9 0 6 1;
#X connect 10 0 0 0;
#X connect 10 1 1 0;
#X connect 10 2 3 0;
#X connect 11 0 15 0;
#X connect 12 0 0 1;
#X connect 13 0 1 1;
#X connect 15 0 10 0;
#X connect 16 0 15 1;
#X restore 653 269 pd nudge-parameters;
#X obj 837 291 clip 0 127;
#X obj 837 313 expr $f1/128;
#X obj 837 334 * 3;
#X obj 837 355 int;
#N canvas 0 22 484 497 nudge-parameters 0;
#X obj 124 234 random;
#X obj 232 335 f;
#X obj 232 368 +;
#X obj 257 166 random 2;
#X obj 124 275 t f f;
#X obj 124 351 t b f;
#X obj 124 297 *;
#X obj 257 188 sel 0 1;
#X msg 257 280 -1;
#X msg 335 280 1;
#X obj 124 149 t b b b;
#X obj 124 74 r NUDGE!;
#X obj 157 193 r NUDGE-RANGE;
#X obj 247 308 inlet;
#X obj 232 397 outlet;
#X obj 124 96 spigot;
#X obj 185 79 r parameters2-s;
#X connect 0 0 4 0;
#X connect 1 0 2 0;
#X connect 2 0 14 0;
#X connect 3 0 7 0;
#X connect 4 0 6 0;
#X connect 5 0 2 0;
#X connect 5 1 2 1;
#X connect 6 0 5 0;
#X connect 7 0 8 0;
#X connect 7 1 9 0;
#X connect 8 0 6 1;
#X connect 9 0 6 1;
#X connect 10 0 0 0;
#X connect 10 1 1 0;
#X connect 10 2 3 0;
#X connect 11 0 15 0;
#X connect 12 0 0 1;
#X connect 13 0 1 1;
#X connect 15 0 10 0;
#X connect 16 0 15 1;
#X restore 837 269 pd nudge-parameters;
#X obj 1023 291 clip 0 127;
#X obj 1023 313 expr $f1/128;
#X obj 1023 334 * 3;
#X obj 1023 355 int;
#N canvas 0 22 484 497 nudge-parameters 0;
#X obj 124 234 random;
#X obj 232 335 f;
#X obj 232 368 +;
#X obj 257 166 random 2;
#X obj 124 275 t f f;
#X obj 124 351 t b f;
#X obj 124 297 *;
#X obj 257 188 sel 0 1;
#X msg 257 280 -1;
#X msg 335 280 1;
#X obj 124 149 t b b b;
#X obj 124 74 r NUDGE!;
#X obj 157 193 r NUDGE-RANGE;
#X obj 247 308 inlet;
#X obj 232 397 outlet;
#X obj 124 96 spigot;
#X obj 185 79 r parameters2-s;
#X connect 0 0 4 0;
#X connect 1 0 2 0;
#X connect 2 0 14 0;
#X connect 3 0 7 0;
#X connect 4 0 6 0;
#X connect 5 0 2 0;
#X connect 5 1 2 1;
#X connect 6 0 5 0;
#X connect 7 0 8 0;
#X connect 7 1 9 0;
#X connect 8 0 6 1;
#X connect 9 0 6 1;
#X connect 10 0 0 0;
#X connect 10 1 1 0;
#X connect 10 2 3 0;
#X connect 11 0 15 0;
#X connect 12 0 0 1;
#X connect 13 0 1 1;
#X connect 15 0 10 0;
#X connect 16 0 15 1;
#X restore 1023 269 pd nudge-parameters;
#X obj 1207 291 clip 0 127;
#X obj 1207 313 expr $f1/128;
#X obj 1207 334 * 3;
#X obj 1207 355 int;
#N canvas 0 22 484 497 nudge-parameters 0;
#X obj 124 234 random;
#X obj 232 335 f;
#X obj 232 368 +;
#X obj 257 166 random 2;
#X obj 124 275 t f f;
#X obj 124 351 t b f;
#X obj 124 297 *;
#X obj 257 188 sel 0 1;
#X msg 257 280 -1;
#X msg 335 280 1;
#X obj 124 149 t b b b;
#X obj 124 74 r NUDGE!;
#X obj 157 193 r NUDGE-RANGE;
#X obj 247 308 inlet;
#X obj 232 397 outlet;
#X obj 124 96 spigot;
#X obj 185 79 r parameters2-s;
#X connect 0 0 4 0;
#X connect 1 0 2 0;
#X connect 2 0 14 0;
#X connect 3 0 7 0;
#X connect 4 0 6 0;
#X connect 5 0 2 0;
#X connect 5 1 2 1;
#X connect 6 0 5 0;
#X connect 7 0 8 0;
#X connect 7 1 9 0;
#X connect 8 0 6 1;
#X connect 9 0 6 1;
#X connect 10 0 0 0;
#X connect 10 1 1 0;
#X connect 10 2 3 0;
#X connect 11 0 15 0;
#X connect 12 0 0 1;
#X connect 13 0 1 1;
#X connect 15 0 10 0;
#X connect 16 0 15 1;
#X restore 1207 269 pd nudge-parameters;
#X obj 653 513 * 2;
#X obj 797 513 * 2;
#X obj 789 69 r \$0-um-switch2-s;
#X obj 937 69 r \$0-um-switch3-s;
#X obj 789 199 s \$0-um-switch2-r;
#X obj 937 199 s \$0-um-switch3-r;
#X obj 1083 69 r \$0-um-switch4-s;
#X obj 1083 199 s \$0-um-switch4-r;
#X obj 653 247 r \$0-um-switch-preoffpost1-s;
#X obj 837 247 r \$0-um-switch-preoffpost2-s;
#X obj 1023 247 r \$0-um-switch-preoffpost3-s;
#X obj 1207 247 r \$0-um-switch-preoffpost4-s;
#X obj 653 377 s \$0-um-switch-preoffpost1-r;
#X obj 837 377 s \$0-um-switch-preoffpost2-r;
#X obj 1023 377 s \$0-um-switch-preoffpost3-r;
#X obj 1207 377 s \$0-um-switch-preoffpost4-r;
#X obj 653 556 s \$0-um-switchA-r;
#X obj 797 556 s \$0-um-switchB-r;
#X obj 797 426 r \$0-um-switchB-s;
#X obj 653 426 r \$0-um-switchA-s;
#X connect 1 0 2 0;
#X connect 2 0 35 0;
#X connect 3 0 4 0;
#X connect 4 0 37 0;
#X connect 5 0 6 0;
#X connect 6 0 39 0;
#X connect 7 0 8 0;
#X connect 8 0 41 0;
#X connect 9 0 10 0;
#X connect 10 0 43 0;
#X connect 11 0 12 0;
#X connect 12 0 45 0;
#X connect 13 0 14 0;
#X connect 14 0 47 0;
#X connect 15 0 16 0;
#X connect 16 0 49 0;
#X connect 17 0 18 0;
#X connect 18 0 51 0;
#X connect 19 0 20 0;
#X connect 20 0 53 0;
#X connect 21 0 22 0;
#X connect 22 0 55 0;
#X connect 23 0 24 0;
#X connect 24 0 57 0;
#X connect 25 0 26 0;
#X connect 26 0 59 0;
#X connect 27 0 28 0;
#X connect 28 0 61 0;
#X connect 29 0 30 0;
#X connect 30 0 63 0;
#X connect 31 0 32 0;
#X connect 32 0 65 0;
#X connect 34 0 1 0;
#X connect 36 0 3 0;
#X connect 38 0 5 0;
#X connect 40 0 7 0;
#X connect 42 0 9 0;
#X connect 44 0 11 0;
#X connect 46 0 13 0;
#X connect 48 0 15 0;
#X connect 50 0 17 0;
#X connect 52 0 19 0;
#X connect 54 0 21 0;
#X connect 56 0 23 0;
#X connect 58 0 25 0;
#X connect 60 0 27 0;
#X connect 62 0 29 0;
#X connect 64 0 31 0;
#X connect 66 0 67 0;
#X connect 67 0 80 0;
#X connect 68 0 79 0;
#X connect 69 0 66 0;
#X connect 70 0 71 0;
#X connect 71 0 91 0;
#X connect 72 0 123 0;
#X connect 73 0 70 0;
#X connect 74 0 75 0;
#X connect 75 0 116 0;
#X connect 76 0 132 0;
#X connect 77 0 74 0;
#X connect 78 0 69 0;
#X connect 80 0 68 0;
#X connect 81 0 82 0;
#X connect 82 0 89 0;
#X connect 83 0 120 0;
#X connect 84 0 81 0;
#X connect 85 0 86 0;
#X connect 86 0 90 0;
#X connect 87 0 121 0;
#X connect 88 0 85 0;
#X connect 89 0 83 0;
#X connect 90 0 87 0;
#X connect 91 0 72 0;
#X connect 92 0 93 0;
#X connect 93 0 117 0;
#X connect 94 0 133 0;
#X connect 95 0 92 0;
#X connect 96 0 97 0;
#X connect 97 0 98 0;
#X connect 98 0 99 0;
#X connect 99 0 128 0;
#X connect 100 0 96 0;
#X connect 101 0 102 0;
#X connect 102 0 103 0;
#X connect 103 0 104 0;
#X connect 104 0 129 0;
#X connect 105 0 101 0;
#X connect 106 0 107 0;
#X connect 107 0 108 0;
#X connect 108 0 109 0;
#X connect 109 0 130 0;
#X connect 110 0 106 0;
#X connect 111 0 112 0;
#X connect 112 0 113 0;
#X connect 113 0 114 0;
#X connect 114 0 131 0;
#X connect 115 0 111 0;
#X connect 116 0 76 0;
#X connect 117 0 94 0;
#X connect 118 0 84 0;
#X connect 119 0 88 0;
#X connect 122 0 73 0;
#X connect 124 0 100 0;
#X connect 125 0 105 0;
#X connect 126 0 110 0;
#X connect 127 0 115 0;
#X connect 134 0 95 0;
#X connect 135 0 77 0;
#X restore 98 528 pd parameter-nudging-system;
#N canvas 0 56 1366 679 external-messages 0;
#X floatatom 185 535 5 0 0 0 - - -;
#X obj 185 327 spigot;
#X obj 224 278 tgl 15 0 empty empty empty 17 7 0 10 -262144 -1 -1 0
1;
#X obj 267 238 ==;
#X obj 282 214 f \$1;
#X obj 282 190 loadbang;
#X msg 185 202 \$1 \$2;
#X msg 185 156 symbol \$1;
#X obj 185 180 pack s f;
#X obj 185 514 f;
#X obj 185 458 t b f;
#X obj 185 485 spigot;
#X obj 185 62 unpack s f f;
#X symbolatom 185 94 10 0 0 0 - - -;
#X obj 224 298 t f f;
#X obj 257 327 s \$0-msg-spigot;
#X obj 234 459 r \$0-msg-spigot;
#X floatatom 185 666 5 0 0 0 - - -;
#X obj 185 645 f;
#X obj 185 586 t b f;
#X obj 185 616 spigot;
#X obj 235 587 r \$0-msg-spigot;
#X obj 185 14 r quad-envelope-shaper;
#X obj 185 360 route ATTACK-1 ATTACK-2 ATTACK-3 ATTACK-4 HOLD-1 HOLD-2
HOLD-3 HOLD-4 RELEASE-1 RELEASE-2 RELEASE-3 RELEASE-4 TIME-1 TIME-2
TIME-3 TIME-4 HOLDTOG-1 HOLDTOG-2 HOLDTOG-3 HOLDTOG-4 TIMETOG-1 TIMETOG-2
TIMETOG-3 TIMETOG-4 TRIGTRACK-1 TRIGTRACK-2 TRIGTRACK-3 TRIGTRACK-4
OFFLVL-1 OFFLVL-2 OFFLVL-3 OFFLVL-4 EXT-A EXT-B, f 109;
#X obj 185 555 s \$0-adsr-attack-1-r;
#X obj 185 686 s \$0-adsr-attack-2-r;
#X floatatom 185 795 5 0 0 0 - - -;
#X obj 185 774 f;
#X obj 185 715 t b f;
#X obj 185 745 spigot;
#X obj 235 716 r \$0-msg-spigot;
#X obj 185 815 s \$0-adsr-attack-3-r;
#X floatatom 185 924 5 0 0 0 - - -;
#X obj 185 903 f;
#X obj 185 844 t b f;
#X obj 185 874 spigot;
#X obj 235 845 r \$0-msg-spigot;
#X obj 185 944 s \$0-adsr-attack-4-r;
#X floatatom 354 536 5 0 0 0 - - -;
#X obj 354 515 f;
#X obj 354 459 t b f;
#X obj 354 486 spigot;
#X obj 403 460 r \$0-msg-spigot;
#X floatatom 354 667 5 0 0 0 - - -;
#X obj 354 646 f;
#X obj 354 587 t b f;
#X obj 354 617 spigot;
#X obj 404 588 r \$0-msg-spigot;
#X floatatom 354 796 5 0 0 0 - - -;
#X obj 354 775 f;
#X obj 354 716 t b f;
#X obj 354 746 spigot;
#X obj 404 717 r \$0-msg-spigot;
#X floatatom 354 925 5 0 0 0 - - -;
#X obj 354 904 f;
#X obj 354 845 t b f;
#X obj 354 875 spigot;
#X obj 404 846 r \$0-msg-spigot;
#X obj 354 556 s \$0-adsr-hold-1-r;
#X obj 354 687 s \$0-adsr-hold-2-r;
#X obj 354 816 s \$0-adsr-hold-3-r;
#X obj 354 945 s \$0-adsr-hold-4-r;
#X floatatom 527 537 5 0 0 0 - - -;
#X obj 527 516 f;
#X obj 527 460 t b f;
#X obj 527 487 spigot;
#X obj 576 461 r \$0-msg-spigot;
#X floatatom 527 668 5 0 0 0 - - -;
#X obj 527 647 f;
#X obj 527 588 t b f;
#X obj 527 618 spigot;
#X obj 577 589 r \$0-msg-spigot;
#X floatatom 527 797 5 0 0 0 - - -;
#X obj 527 776 f;
#X obj 527 717 t b f;
#X obj 527 747 spigot;
#X obj 577 718 r \$0-msg-spigot;
#X floatatom 527 926 5 0 0 0 - - -;
#X obj 527 905 f;
#X obj 527 846 t b f;
#X obj 527 876 spigot;
#X obj 577 847 r \$0-msg-spigot;
#X obj 527 557 s \$0-adsr-release-1-r;
#X obj 527 688 s \$0-adsr-release-2-r;
#X obj 527 817 s \$0-adsr-release-3-r;
#X obj 527 946 s \$0-adsr-release-4-r;
#X floatatom 697 538 5 0 0 0 - - -;
#X obj 697 517 f;
#X obj 697 461 t b f;
#X obj 697 488 spigot;
#X obj 746 462 r \$0-msg-spigot;
#X floatatom 697 669 5 0 0 0 - - -;
#X obj 697 648 f;
#X obj 697 589 t b f;
#X obj 697 619 spigot;
#X obj 747 590 r \$0-msg-spigot;
#X floatatom 697 798 5 0 0 0 - - -;
#X obj 697 777 f;
#X obj 697 718 t b f;
#X obj 697 748 spigot;
#X obj 747 719 r \$0-msg-spigot;
#X floatatom 697 927 5 0 0 0 - - -;
#X obj 697 906 f;
#X obj 697 847 t b f;
#X obj 697 877 spigot;
#X obj 747 848 r \$0-msg-spigot;
#X obj 697 558 s \$0-adsr-time-1-r;
#X obj 697 689 s \$0-adsr-time-2-r;
#X obj 697 818 s \$0-adsr-time-3-r;
#X obj 697 947 s \$0-adsr-time-4-r;
#X floatatom 872 539 5 0 0 0 - - -;
#X obj 872 518 f;
#X obj 872 462 t b f;
#X obj 872 489 spigot;
#X obj 921 463 r \$0-msg-spigot;
#X floatatom 872 670 5 0 0 0 - - -;
#X obj 872 649 f;
#X obj 872 590 t b f;
#X obj 872 620 spigot;
#X obj 922 591 r \$0-msg-spigot;
#X floatatom 872 799 5 0 0 0 - - -;
#X obj 872 778 f;
#X obj 872 719 t b f;
#X obj 872 749 spigot;
#X obj 922 720 r \$0-msg-spigot;
#X floatatom 872 928 5 0 0 0 - - -;
#X obj 872 907 f;
#X obj 872 848 t b f;
#X obj 872 878 spigot;
#X obj 922 849 r \$0-msg-spigot;
#X obj 872 559 s \$0-adsr-htoggle-1-r;
#X obj 872 690 s \$0-adsr-htoggle-2-r;
#X obj 872 819 s \$0-adsr-htoggle-3-r;
#X obj 872 948 s \$0-adsr-htoggle-4-r;
#X floatatom 1044 540 5 0 0 0 - - -;
#X obj 1044 519 f;
#X obj 1044 463 t b f;
#X obj 1044 490 spigot;
#X obj 1093 464 r \$0-msg-spigot;
#X floatatom 1044 671 5 0 0 0 - - -;
#X obj 1044 650 f;
#X obj 1044 591 t b f;
#X obj 1044 621 spigot;
#X obj 1094 592 r \$0-msg-spigot;
#X floatatom 1044 800 5 0 0 0 - - -;
#X obj 1044 779 f;
#X obj 1044 720 t b f;
#X obj 1044 750 spigot;
#X obj 1094 721 r \$0-msg-spigot;
#X floatatom 1044 929 5 0 0 0 - - -;
#X obj 1044 908 f;
#X obj 1044 849 t b f;
#X obj 1044 879 spigot;
#X obj 1094 850 r \$0-msg-spigot;
#X obj 1044 560 s \$0-adsr-ttoggle-1-r;
#X obj 1044 691 s \$0-adsr-ttoggle-2-r;
#X obj 1044 820 s \$0-adsr-ttoggle-3-r;
#X obj 1044 949 s \$0-adsr-ttoggle-4-r;
#X floatatom 1205 541 5 0 0 0 - - -;
#X obj 1205 520 f;
#X obj 1205 464 t b f;
#X obj 1205 491 spigot;
#X obj 1254 465 r \$0-msg-spigot;
#X floatatom 1205 672 5 0 0 0 - - -;
#X obj 1205 651 f;
#X obj 1205 592 t b f;
#X obj 1205 622 spigot;
#X obj 1255 593 r \$0-msg-spigot;
#X floatatom 1205 801 5 0 0 0 - - -;
#X obj 1205 780 f;
#X obj 1205 721 t b f;
#X obj 1205 751 spigot;
#X obj 1255 722 r \$0-msg-spigot;
#X floatatom 1205 930 5 0 0 0 - - -;
#X obj 1205 909 f;
#X obj 1205 850 t b f;
#X obj 1205 880 spigot;
#X obj 1255 851 r \$0-msg-spigot;
#X obj 1205 561 s \$0-adsr-ttroggle-1-r;
#X obj 1205 692 s \$0-adsr-ttroggle-2-r;
#X obj 1205 821 s \$0-adsr-ttroggle-3-r;
#X obj 1205 950 s \$0-adsr-ttroggle-4-r;
#X floatatom 1368 542 5 0 0 0 - - -;
#X obj 1368 521 f;
#X obj 1368 465 t b f;
#X obj 1368 492 spigot;
#X obj 1417 466 r \$0-msg-spigot;
#X floatatom 1368 673 5 0 0 0 - - -;
#X obj 1368 652 f;
#X obj 1368 593 t b f;
#X obj 1368 623 spigot;
#X obj 1418 594 r \$0-msg-spigot;
#X floatatom 1368 802 5 0 0 0 - - -;
#X obj 1368 781 f;
#X obj 1368 722 t b f;
#X obj 1368 752 spigot;
#X obj 1418 723 r \$0-msg-spigot;
#X floatatom 1368 931 5 0 0 0 - - -;
#X obj 1368 910 f;
#X obj 1368 851 t b f;
#X obj 1368 881 spigot;
#X obj 1418 852 r \$0-msg-spigot;
#X obj 1368 562 s \$0-adsr-level-1-r;
#X obj 1368 693 s \$0-adsr-level-2-r;
#X obj 1368 822 s \$0-adsr-level-3-r;
#X obj 1368 951 s \$0-adsr-level-4-r;
#X floatatom 1023 239 5 0 0 0 - - -;
#X obj 1023 218 f;
#X obj 1023 162 t b f;
#X obj 1023 189 spigot;
#X obj 1072 163 r \$0-msg-spigot;
#X floatatom 1023 370 5 0 0 0 - - -;
#X obj 1023 349 f;
#X obj 1023 290 t b f;
#X obj 1023 320 spigot;
#X obj 1073 291 r \$0-msg-spigot;
#X obj 1023 259 s \$0-adsr-atoggle-r;
#X obj 1023 390 s \$0-adsr-btoggle-r;
#X connect 0 0 24 0;
#X connect 1 0 23 0;
#X connect 2 0 14 0;
#X connect 3 0 2 0;
#X connect 4 0 3 1;
#X connect 5 0 4 0;
#X connect 6 0 1 0;
#X connect 7 0 8 0;
#X connect 8 0 6 0;
#X connect 9 0 0 0;
#X connect 10 0 11 0;
#X connect 10 1 9 1;
#X connect 11 0 9 0;
#X connect 12 0 13 0;
#X connect 12 1 8 1;
#X connect 12 2 3 0;
#X connect 13 0 7 0;
#X connect 14 0 1 1;
#X connect 14 1 15 0;
#X connect 16 0 11 1;
#X connect 17 0 25 0;
#X connect 18 0 17 0;
#X connect 19 0 20 0;
#X connect 19 1 18 1;
#X connect 20 0 18 0;
#X connect 21 0 20 1;
#X connect 22 0 12 0;
#X connect 23 0 10 0;
#X connect 23 1 19 0;
#X connect 23 2 28 0;
#X connect 23 3 34 0;
#X connect 23 4 40 0;
#X connect 23 5 45 0;
#X connect 23 6 50 0;
#X connect 23 7 55 0;
#X connect 23 8 64 0;
#X connect 23 9 69 0;
#X connect 23 10 74 0;
#X connect 23 11 79 0;
#X connect 23 12 88 0;
#X connect 23 13 93 0;
#X connect 23 14 98 0;
#X connect 23 15 103 0;
#X connect 23 16 112 0;
#X connect 23 17 117 0;
#X connect 23 18 122 0;
#X connect 23 19 127 0;
#X connect 23 20 136 0;
#X connect 23 21 141 0;
#X connect 23 22 146 0;
#X connect 23 23 151 0;
#X connect 23 24 160 0;
#X connect 23 25 165 0;
#X connect 23 26 170 0;
#X connect 23 27 175 0;
#X connect 23 28 184 0;
#X connect 23 29 189 0;
#X connect 23 30 194 0;
#X connect 23 31 199 0;
#X connect 23 32 208 0;
#X connect 23 33 213 0;
#X connect 26 0 31 0;
#X connect 27 0 26 0;
#X connect 28 0 29 0;
#X connect 28 1 27 1;
#X connect 29 0 27 0;
#X connect 30 0 29 1;
#X connect 32 0 37 0;
#X connect 33 0 32 0;
#X connect 34 0 35 0;
#X connect 34 1 33 1;
#X connect 35 0 33 0;
#X connect 36 0 35 1;
#X connect 38 0 58 0;
#X connect 39 0 38 0;
#X connect 40 0 41 0;
#X connect 40 1 39 1;
#X connect 41 0 39 0;
#X connect 42 0 41 1;
#X connect 43 0 59 0;
#X connect 44 0 43 0;
#X connect 45 0 46 0;
#X connect 45 1 44 1;
#X connect 46 0 44 0;
#X connect 47 0 46 1;
#X connect 48 0 60 0;
#X connect 49 0 48 0;
#X connect 50 0 51 0;
#X connect 50 1 49 1;
#X connect 51 0 49 0;
#X connect 52 0 51 1;
#X connect 53 0 61 0;
#X connect 54 0 53 0;
#X connect 55 0 56 0;
#X connect 55 1 54 1;
#X connect 56 0 54 0;
#X connect 57 0 56 1;
#X connect 62 0 82 0;
#X connect 63 0 62 0;
#X connect 64 0 65 0;
#X connect 64 1 63 1;
#X connect 65 0 63 0;
#X connect 66 0 65 1;
#X connect 67 0 83 0;
#X connect 68 0 67 0;
#X connect 69 0 70 0;
#X connect 69 1 68 1;
#X connect 70 0 68 0;
#X connect 71 0 70 1;
#X connect 72 0 84 0;
#X connect 73 0 72 0;
#X connect 74 0 75 0;
#X connect 74 1 73 1;
#X connect 75 0 73 0;
#X connect 76 0 75 1;
#X connect 77 0 85 0;
#X connect 78 0 77 0;
#X connect 79 0 80 0;
#X connect 79 1 78 1;
#X connect 80 0 78 0;
#X connect 81 0 80 1;
#X connect 86 0 106 0;
#X connect 87 0 86 0;
#X connect 88 0 89 0;
#X connect 88 1 87 1;
#X connect 89 0 87 0;
#X connect 90 0 89 1;
#X connect 91 0 107 0;
#X connect 92 0 91 0;
#X connect 93 0 94 0;
#X connect 93 1 92 1;
#X connect 94 0 92 0;
#X connect 95 0 94 1;
#X connect 96 0 108 0;
#X connect 97 0 96 0;
#X connect 98 0 99 0;
#X connect 98 1 97 1;
#X connect 99 0 97 0;
#X connect 100 0 99 1;
#X connect 101 0 109 0;
#X connect 102 0 101 0;
#X connect 103 0 104 0;
#X connect 103 1 102 1;
#X connect 104 0 102 0;
#X connect 105 0 104 1;
#X connect 110 0 130 0;
#X connect 111 0 110 0;
#X connect 112 0 113 0;
#X connect 112 1 111 1;
#X connect 113 0 111 0;
#X connect 114 0 113 1;
#X connect 115 0 131 0;
#X connect 116 0 115 0;
#X connect 117 0 118 0;
#X connect 117 1 116 1;
#X connect 118 0 116 0;
#X connect 119 0 118 1;
#X connect 120 0 132 0;
#X connect 121 0 120 0;
#X connect 122 0 123 0;
#X connect 122 1 121 1;
#X connect 123 0 121 0;
#X connect 124 0 123 1;
#X connect 125 0 133 0;
#X connect 126 0 125 0;
#X connect 127 0 128 0;
#X connect 127 1 126 1;
#X connect 128 0 126 0;
#X connect 129 0 128 1;
#X connect 134 0 154 0;
#X connect 135 0 134 0;
#X connect 136 0 137 0;
#X connect 136 1 135 1;
#X connect 137 0 135 0;
#X connect 138 0 137 1;
#X connect 139 0 155 0;
#X connect 140 0 139 0;
#X connect 141 0 142 0;
#X connect 141 1 140 1;
#X connect 142 0 140 0;
#X connect 143 0 142 1;
#X connect 144 0 156 0;
#X connect 145 0 144 0;
#X connect 146 0 147 0;
#X connect 146 1 145 1;
#X connect 147 0 145 0;
#X connect 148 0 147 1;
#X connect 149 0 157 0;
#X connect 150 0 149 0;
#X connect 151 0 152 0;
#X connect 151 1 150 1;
#X connect 152 0 150 0;
#X connect 153 0 152 1;
#X connect 158 0 178 0;
#X connect 159 0 158 0;
#X connect 160 0 161 0;
#X connect 160 1 159 1;
#X connect 161 0 159 0;
#X connect 162 0 161 1;
#X connect 163 0 179 0;
#X connect 164 0 163 0;
#X connect 165 0 166 0;
#X connect 165 1 164 1;
#X connect 166 0 164 0;
#X connect 167 0 166 1;
#X connect 168 0 180 0;
#X connect 169 0 168 0;
#X connect 170 0 171 0;
#X connect 170 1 169 1;
#X connect 171 0 169 0;
#X connect 172 0 171 1;
#X connect 173 0 181 0;
#X connect 174 0 173 0;
#X connect 175 0 176 0;
#X connect 175 1 174 1;
#X connect 176 0 174 0;
#X connect 177 0 176 1;
#X connect 182 0 202 0;
#X connect 183 0 182 0;
#X connect 184 0 185 0;
#X connect 184 1 183 1;
#X connect 185 0 183 0;
#X connect 186 0 185 1;
#X connect 187 0 203 0;
#X connect 188 0 187 0;
#X connect 189 0 190 0;
#X connect 189 1 188 1;
#X connect 190 0 188 0;
#X connect 191 0 190 1;
#X connect 192 0 204 0;
#X connect 193 0 192 0;
#X connect 194 0 195 0;
#X connect 194 1 193 1;
#X connect 195 0 193 0;
#X connect 196 0 195 1;
#X connect 197 0 205 0;
#X connect 198 0 197 0;
#X connect 199 0 200 0;
#X connect 199 1 198 1;
#X connect 200 0 198 0;
#X connect 201 0 200 1;
#X connect 206 0 216 0;
#X connect 207 0 206 0;
#X connect 208 0 209 0;
#X connect 208 1 207 1;
#X connect 209 0 207 0;
#X connect 210 0 209 1;
#X connect 211 0 217 0;
#X connect 212 0 211 0;
#X connect 213 0 214 0;
#X connect 213 1 212 1;
#X connect 214 0 212 0;
#X connect 215 0 214 1;
#X restore 98 505 pd external-messages;
#X text 270 505 <--- not done yet;
#X text 407 550 <--- not done yet;
#X text 311 526 <--- not done yet;
#X text 358 575 <--- not done yet;
#X connect 0 0 1 0;
#X connect 1 0 4 0;
#X connect 2 0 7 0;
#X connect 3 0 1 1;
#X connect 4 0 15 0;
#X connect 4 0 16 0;
#X connect 5 0 8 0;
#X connect 6 0 4 1;
#X connect 7 0 3 0;
#X connect 8 0 6 0;
#X connect 13 0 2 0;
#X connect 14 0 5 0;
#X connect 20 0 22 0;
#X connect 22 0 23 0;
#X connect 23 0 21 0;
#X coords 0 -1 1 1 430 320 1 100 100;
