#N canvas 315 98 1074 715 12;
#X declare -lib moonlib;
#X obj 646 49 noise~;
#X obj 646 229 lop~;
#X obj 705 125 mtof;
#X obj 705 187 line;
#X obj 647 372 *~;
#X obj 788 297 / 127;
#X obj 788 353 line~;
#X obj 705 157 pack 0 50;
#X obj 788 325 pack 0 50;
#X obj 101 101 cnv 15 428 316 empty empty NOISE_GENERATOR_3004 35 50
0 14 -233017 -66577 0;
#X obj 42 19 declare -lib moonlib;
#X obj 212 238 moonlib/mknob 40 100 0 127 0 0 \$0-ng-lowpass-s \$0-ng-lowpass-r
LOW_PASS_FILTER -17 50 0 8 -1 -262144 -1 0 1;
#X obj 376 236 moonlib/mknob 40 100 0 127 0 0 \$0-ng-volume-s \$0-ng-volume-r
VOLUME 5 50 0 8 -258113 -262144 -1 0 1;
#X obj 649 627 outlet~ A;
#X obj 752 627 outlet~ B;
#X text 112 394 A;
#X text 507 395 B;
#X text 47 780 STATE SAVING and EXTERNAL CONTROL STUFF;
#N canvas 257 23 1165 679 state-saving-multiple-instances 0;
#X obj 233 37 loadbang;
#X obj 1555 192 textfile;
#X msg 1529 116 rewind;
#X msg 1486 116 bang;
#X obj 137 779 textfile;
#X obj 1486 77 t b b;
#X obj 138 445 f;
#X obj 151 668 f;
#X obj 79 489 t b b b;
#X msg 214 668 clear;
#X obj 300 179 outlet;
#X text 301 198 INSTANCE NUMBER;
#X obj 260 105 f \$1;
#X obj 261 133 t f f f;
#X obj 233 70 t b b;
#X obj 79 466 bng 15 250 50 0 empty empty empty 17 7 0 10 -262144 -1
-1;
#X obj 79 322 r SAVE-S;
#X obj 292 37 r \$0-reload!;
#X text 414 48 RETURN TO PREVIOUS VALUE AFTER USING MORPH-SEQ module
;
#X text 157 255 WRITE side;
#X text 1564 20 READ side;
#X text 471 737 <-----rename to match name of Pd patch;
#X text 1866 159 <-----rename to match name of Pd patch;
#X text 243 480 <----- one "f" for each parameter;
#X text 242 526 <----- one "$N" for each parameter;
#X text 316 296 <-----rename to match send symbol of each GUI element
;
#X text 1978 718 <-----rename to match receive symbol of each GUI element
;
#X text 1511 781 Keep these parameters in the same order on the WRITE
and READ sides;
#X text 1659 214 <----- one "f" for each parameter;
#X text 1908 175 i.e. "write statesave/\$1-PATCH_NAME-ss.txt";
#X text 470 759 i.e. "write statesave/\$1-PATCH_NAME-ss.txt";
#X obj 138 480 pack f f;
#X msg 138 526 set \$1 \$2;
#X obj 1555 214 unpack f f;
#X msg 1555 159 read statesave/\$1-noise-generator-ss.txt;
#X msg 150 739 write statesave/\$1-noise-generator-ss.txt;
#X obj 156 275 r \$0-ng-lowpass-s;
#X obj 1555 290 s \$0-ng-lowpass-r;
#X obj 191 298 r \$0-ng-volume-s;
#X obj 1622 313 s \$0-ng-volume-r;
#X connect 0 0 14 0;
#X connect 1 0 33 0;
#X connect 2 0 1 0;
#X connect 3 0 1 0;
#X connect 5 0 3 0;
#X connect 5 1 2 0;
#X connect 6 0 31 0;
#X connect 7 0 35 0;
#X connect 8 0 7 0;
#X connect 8 1 6 0;
#X connect 8 2 9 0;
#X connect 9 0 4 0;
#X connect 12 0 13 0;
#X connect 13 0 7 1;
#X connect 13 1 34 0;
#X connect 13 2 10 0;
#X connect 14 0 5 0;
#X connect 14 1 12 0;
#X connect 15 0 8 0;
#X connect 16 0 15 0;
#X connect 17 0 14 0;
#X connect 31 0 32 0;
#X connect 32 0 4 0;
#X connect 33 0 37 0;
#X connect 33 1 39 0;
#X connect 34 0 1 0;
#X connect 35 0 4 0;
#X connect 36 0 6 1;
#X connect 38 0 31 1;
#X restore 48 874 pd state-saving-multiple-instances;
#X obj 48 965 s \$0-instance-num;
#X obj 48 917 makefilename %d;
#X msg 48 942 label \$1;
#N canvas 74 23 1366 679 state-saving-via-preset-manager-module 0;
#X obj 54 52 cnv 15 1200 800 empty empty WRITE 20 20 0 20 -233017 -66577
0;
#X obj 136 804 textfile;
#X obj 134 322 f;
#X obj 147 545 f;
#X obj 80 440 t b b b;
#X msg 187 702 clear;
#X obj 134 144 delay 5;
#X obj 80 495 delay 10;
#X msg 80 280 bang;
#X obj 80 114 r STORE-S!;
#X obj 147 575 pack f f;
#X obj 192 528 loadbang;
#X obj 192 550 f \$1;
#X obj 162 506 r preset-manager-store-slot;
#X text 580 747 i.e. "write statesave/\$1-\$2-PATCH_NAME-ss.txt";
#X text 535 728 <-----rename to match name of Pd patch;
#X text 230 375 <----- one "f" for each parameter;
#X text 231 438 <----- one "$N" for each parameter;
#X text 370 187 <-----rename to match send symbol of each GUI element
;
#X obj 54 868 cnv 15 1200 800 empty empty READ 20 20 0 20 -233017 -66577
0;
#X obj 207 1133 textfile;
#X msg 143 1082 rewind;
#X msg 100 1082 bang;
#X obj 100 1043 t b b;
#X obj 207 1034 f;
#X obj 180 998 t b b;
#X obj 180 955 t b f;
#X obj 252 1052 f \$1;
#X obj 207 1079 pack f f;
#X obj 252 1002 loadbang;
#X obj 180 932 r preset-manager-scan;
#X text 531 1108 <-----rename to match name of Pd patch;
#X text 563 1128 i.e. "read statesave/\$1-\$2-PATCH_NAME-ss.txt";
#X text 304 1186 <----- one "f" for each parameter;
#X text 497 1512 Keep these parameters in the same order on the WRITE
and READ sides;
#X text 527 1474 for binary (0 or 1) controls which do not morph (like
switches) \, do not use [pd morph-paramaters], f 51;
#N canvas 3 56 1069 676 morph-parameters 0;
#X obj 176 94 inlet;
#X obj 176 236 pack f f;
#X obj 176 261 line;
#X obj 209 117 r preset-manager-morph-s;
#X msg 72 244 stop;
#X obj 72 214 r STOP-MORPH!;
#X obj 209 206 spigot;
#X obj 398 137 t f f;
#X obj 455 154 == 0;
#X obj 221 176 f;
#X floatatom 455 222 5 0 0 0 - - -;
#X obj 398 159 t b f;
#X floatatom 425 192 5 0 0 0 - - -;
#X obj 209 139 t f f;
#X obj 398 102 r parameters-s;
#X obj 176 288 outlet;
#X connect 0 0 1 0;
#X connect 1 0 2 0;
#X connect 2 0 15 0;
#X connect 3 0 13 0;
#X connect 4 0 2 0;
#X connect 5 0 4 0;
#X connect 6 0 1 1;
#X connect 7 0 11 0;
#X connect 7 1 8 0;
#X connect 8 0 10 0;
#X connect 9 0 6 0;
#X connect 10 0 1 1;
#X connect 11 0 9 0;
#X connect 11 1 12 0;
#X connect 12 0 6 1;
#X connect 13 0 6 0;
#X connect 13 1 9 1;
#X connect 14 0 7 0;
#X restore 207 1478 pd morph-parameters;
#N canvas 3 56 1069 676 morph-parameters 0;
#X obj 176 94 inlet;
#X obj 176 236 pack f f;
#X obj 176 261 line;
#X obj 209 117 r preset-manager-morph-s;
#X msg 72 244 stop;
#X obj 72 214 r STOP-MORPH!;
#X obj 209 206 spigot;
#X obj 398 137 t f f;
#X obj 455 154 == 0;
#X obj 221 176 f;
#X floatatom 455 222 5 0 0 0 - - -;
#X obj 398 159 t b f;
#X floatatom 425 192 5 0 0 0 - - -;
#X obj 209 139 t f f;
#X obj 398 102 r parameters-s;
#X obj 176 288 outlet;
#X connect 0 0 1 0;
#X connect 1 0 2 0;
#X connect 2 0 15 0;
#X connect 3 0 13 0;
#X connect 4 0 2 0;
#X connect 5 0 4 0;
#X connect 6 0 1 1;
#X connect 7 0 11 0;
#X connect 7 1 8 0;
#X connect 8 0 10 0;
#X connect 9 0 6 0;
#X connect 10 0 1 1;
#X connect 11 0 9 0;
#X connect 11 1 12 0;
#X connect 12 0 6 1;
#X connect 13 0 6 0;
#X connect 13 1 9 1;
#X connect 14 0 7 0;
#X restore 274 1524 pd morph-parameters;
#X obj 134 375 pack f f;
#X msg 134 438 set \$1 \$2;
#X obj 186 180 r \$0-ng-lowpass-s;
#X obj 198 203 r \$0-ng-volume-s;
#X msg 186 729 write statesave/\$1-\$2-noise-generator-ss.txt;
#X obj 207 1503 s \$0-ng-lowpass-r;
#X obj 274 1546 s \$0-ng-volume-r;
#X obj 207 1186 unpack f f;
#X msg 207 1108 read statesave/\$1-\$2-noise-generator-ss.txt;
#X connect 2 0 38 0;
#X connect 3 0 10 0;
#X connect 4 0 7 0;
#X connect 4 1 6 0;
#X connect 4 2 5 0;
#X connect 5 0 1 0;
#X connect 6 0 2 0;
#X connect 7 0 3 0;
#X connect 8 0 4 0;
#X connect 9 0 8 0;
#X connect 10 0 42 0;
#X connect 11 0 12 0;
#X connect 12 0 10 1;
#X connect 13 0 3 1;
#X connect 20 0 45 0;
#X connect 21 0 20 0;
#X connect 22 0 20 0;
#X connect 23 0 22 0;
#X connect 23 1 21 0;
#X connect 24 0 28 0;
#X connect 25 0 23 0;
#X connect 25 1 24 0;
#X connect 26 0 25 0;
#X connect 26 1 24 1;
#X connect 27 0 28 1;
#X connect 28 0 46 0;
#X connect 29 0 27 0;
#X connect 30 0 26 0;
#X connect 36 0 43 0;
#X connect 37 0 44 0;
#X connect 38 0 39 0;
#X connect 39 0 1 0;
#X connect 40 0 2 1;
#X connect 41 0 38 1;
#X connect 42 0 1 0;
#X connect 45 0 36 0;
#X connect 45 1 37 0;
#X connect 46 0 20 0;
#X restore 48 851 pd state-saving-via-preset-manager-module;
#N canvas 74 29 559 344 parameter-nudging-system 0;
#X obj 47 21 cnv 15 340 200 empty empty Knobs 20 20 0 20 -261234 -33289
0;
#N canvas 3 56 484 497 nudge-attenuators 0;
#X obj 124 234 random;
#X obj 232 335 f;
#X obj 232 368 +;
#X obj 257 166 random 2;
#X obj 124 275 t f f;
#X obj 124 351 t b f;
#X obj 124 297 *;
#X obj 257 188 sel 0 1;
#X msg 257 280 -1;
#X msg 335 280 1;
#X obj 124 149 t b b b;
#X obj 124 71 r NUDGE!;
#X obj 157 193 r NUDGE-RANGE;
#X obj 247 308 inlet;
#X obj 232 397 outlet;
#X obj 124 93 spigot;
#X obj 201 76 r attenuators2-s;
#X connect 0 0 4 0;
#X connect 1 0 2 0;
#X connect 2 0 14 0;
#X connect 3 0 7 0;
#X connect 4 0 6 0;
#X connect 5 0 2 0;
#X connect 5 1 2 1;
#X connect 6 0 5 0;
#X connect 7 0 8 0;
#X connect 7 1 9 0;
#X connect 8 0 6 1;
#X connect 9 0 6 1;
#X connect 10 0 0 0;
#X connect 10 1 1 0;
#X connect 10 2 3 0;
#X connect 11 0 15 0;
#X connect 12 0 0 1;
#X connect 13 0 1 1;
#X connect 15 0 10 0;
#X connect 16 0 15 1;
#X restore 58 99 pd nudge-attenuators;
#X obj 58 121 clip 0.1 10;
#N canvas 3 56 484 497 nudge-attenuators 0;
#X obj 124 234 random;
#X obj 232 335 f;
#X obj 232 368 +;
#X obj 257 166 random 2;
#X obj 124 275 t f f;
#X obj 124 351 t b f;
#X obj 124 297 *;
#X obj 257 188 sel 0 1;
#X msg 257 280 -1;
#X msg 335 280 1;
#X obj 124 149 t b b b;
#X obj 124 71 r NUDGE!;
#X obj 157 193 r NUDGE-RANGE;
#X obj 247 308 inlet;
#X obj 232 397 outlet;
#X obj 124 93 spigot;
#X obj 201 76 r attenuators2-s;
#X connect 0 0 4 0;
#X connect 1 0 2 0;
#X connect 2 0 14 0;
#X connect 3 0 7 0;
#X connect 4 0 6 0;
#X connect 5 0 2 0;
#X connect 5 1 2 1;
#X connect 6 0 5 0;
#X connect 7 0 8 0;
#X connect 7 1 9 0;
#X connect 8 0 6 1;
#X connect 9 0 6 1;
#X connect 10 0 0 0;
#X connect 10 1 1 0;
#X connect 10 2 3 0;
#X connect 11 0 15 0;
#X connect 12 0 0 1;
#X connect 13 0 1 1;
#X connect 15 0 10 0;
#X connect 16 0 15 1;
#X restore 212 99 pd nudge-attenuators;
#X obj 212 121 clip 0.1 10;
#X obj 58 71 r \$0-ng-lowpass-s;
#X obj 212 71 r \$0-ng-volume-s;
#X obj 58 151 s \$0-ng-lowpass-r;
#X obj 212 151 s \$0-ng-volume-r;
#X connect 1 0 2 0;
#X connect 2 0 7 0;
#X connect 3 0 4 0;
#X connect 4 0 8 0;
#X connect 5 0 1 0;
#X connect 6 0 3 0;
#X restore 48 828 pd parameter-nudging-system;
#N canvas 0 56 1366 679 external-messages 0;
#X floatatom 185 535 5 0 0 0 - - -;
#X obj 185 327 spigot;
#X obj 224 278 tgl 15 0 empty empty empty 17 7 0 10 -262144 -1 -1 0
1;
#X obj 267 238 ==;
#X obj 285 214 f \$1;
#X obj 285 190 loadbang;
#X msg 185 202 \$1 \$2;
#X msg 185 156 symbol \$1;
#X obj 185 180 pack s f;
#X obj 185 514 f;
#X obj 185 458 t b f;
#X obj 185 485 spigot;
#X obj 185 62 unpack s f f;
#X symbolatom 185 94 10 0 0 0 - - -;
#X obj 224 298 t f f;
#X obj 256 327 s \$0-msg-spigot;
#X obj 234 458 r \$0-msg-spigot;
#X floatatom 239 666 5 0 0 0 - - -;
#X obj 239 645 f;
#X obj 239 586 t b f;
#X obj 239 616 spigot;
#X obj 289 586 r \$0-msg-spigot;
#X obj 185 360 route LPF VOLUME;
#X obj 185 555 s \$0-ng-lowpass-r;
#X obj 239 686 s \$0-ng-volume-r;
#X obj 185 14 r noise-generator;
#X connect 0 0 23 0;
#X connect 1 0 22 0;
#X connect 2 0 14 0;
#X connect 3 0 2 0;
#X connect 4 0 3 1;
#X connect 5 0 4 0;
#X connect 6 0 1 0;
#X connect 7 0 8 0;
#X connect 8 0 6 0;
#X connect 9 0 0 0;
#X connect 10 0 11 0;
#X connect 10 1 9 1;
#X connect 11 0 9 0;
#X connect 12 0 13 0;
#X connect 12 1 8 1;
#X connect 12 2 3 0;
#X connect 13 0 7 0;
#X connect 14 0 1 1;
#X connect 14 1 15 0;
#X connect 16 0 11 1;
#X connect 17 0 24 0;
#X connect 18 0 17 0;
#X connect 19 0 20 0;
#X connect 19 1 18 1;
#X connect 20 0 18 0;
#X connect 21 0 20 1;
#X connect 22 0 10 0;
#X connect 22 1 19 0;
#X connect 25 0 12 0;
#X restore 48 805 pd external-messages;
#X obj 705 94 r \$0-ng-lowpass-s;
#X obj 788 270 r \$0-ng-volume-s;
#X text 69 467 Overview;
#X text 704 73 LPF;
#X text 783 250 VOLUME;
#X text 68 549 LPF;
#X text 68 689 VOLUME;
#X text 48 569 The low pass filter control knob gives you the opportunity
to control the amount of high frequency content in the noise. With
this knob turned in its most counterclockwise position \, the noise
output is in the sub-sonic range which is useful for random modulation
of frequencies or output levels.;
#X text 49 487 The Noise Generator module is here for you to create
some real high quality noise.;
#X text 48 709 With the volume knob you can easily adjust the level
of the noise signal.;
#X connect 0 0 1 0;
#X connect 1 0 4 0;
#X connect 2 0 7 0;
#X connect 3 0 1 1;
#X connect 4 0 13 0;
#X connect 4 0 14 0;
#X connect 5 0 8 0;
#X connect 6 0 4 1;
#X connect 7 0 3 0;
#X connect 8 0 6 0;
#X connect 18 0 20 0;
#X connect 20 0 21 0;
#X connect 21 0 19 0;
#X connect 25 0 2 0;
#X connect 26 0 5 0;
#X coords 0 -1 1 1 430 320 1 100 100;
