#N canvas 2391 0 1600 1150 10;
#X declare -lib moonlib;
#X obj 530 109 cnv 5 5 5 empty \$0-instance-num 0 0 0 0 12 -262144
-66577 0;
#X text 1089 56 CHANNEL 1;
#X floatatom 805 482 5 0 0 0 - - -;
#X obj 773 466 int;
#X msg 894 19 0;
#X obj 874 40 phasor~;
#X obj 781 40 noise~;
#X msg 867 18 60;
#X msg 439 38 \; pd dsp 1;
#X msg 523 40 \; pd dsp 0;
#X obj 931 709 dac~;
#X obj 301 103 cnv 15 428 314 empty empty QUAD-UNIVERSAL-FILTER_3103
10 35 0 15 -228856 -66577 0;
#X obj 445 172 mknob 22 100 0 127 0 1 \$0-quf-type-1-s \$0-quf-type-1-r
M -12 20 0 12 -1 -262144 -1 8700 1;
#X obj 266 849 declare -lib moonlib;
#X text 314 105 A;
#X text 381 105 B;
#X text 466 104 1;
#X text 549 104 2;
#X text 634 104 3;
#X text 707 105 4;
#X text 310 400 A;
#X text 377 400 B;
#X text 462 399 1;
#X text 546 399 2;
#X text 631 399 3;
#X text 711 399 4;
#X obj 528 172 mknob 22 100 1 6 0 0 empty empty M -8 10 0 8 -1 -262144
-1 0 1;
#X obj 603 173 mknob 22 100 1 6 0 0 \$0-quad-filter-type-3-s \$0-quad-filter-type-3-r
M -8 10 0 8 -1 -262144 -1 0 1;
#X obj 674 173 mknob 22 100 1 6 0 0 \$0-quad-filter-type-4-s \$0-quad-filter-type-4-r
M -8 10 0 8 -1 -262144 -1 0 1;
#X floatatom 445 195 5 0 0 0 - #0-quf-typeNo-1-s -;
#X obj 16 25 inlet~ A;
#X obj 175 25 inlet~ B;
#X obj 820 73 inlet~ one;
#X obj 1262 14 inlet~ two;
#X obj 1341 14 inlet~ three;
#X obj 1445 14 inlet~ four;
#X obj 226 683 outlet~ A;
#X obj 384 686 outlet~ B;
#X obj 589 768 outlet~ one;
#X obj 688 768 outlet~ two;
#X obj 790 768 outlet~ three;
#X obj 901 768 outlet~ four;
#X floatatom 517 196 5 0 0 0 - #0-quad-filter-typeNo-2-s -;
#N canvas -8 0 739 1086 quad-filter_1 1;
#X obj 784 1062 outlet~;
#X obj 1462 49 inlet;
#X obj 721 755 *~;
#X floatatom 553 81 5 0 0 0 - - -;
#X obj 553 45 inlet;
#X obj 727 37 inlet~;
#X obj 857 35 inlet;
#X obj 929 33 inlet;
#X floatatom 865 457 5 0 0 0 - - -;
#X floatatom 1040 543 5 0 0 0 - - -;
#X obj 819 477 sig~;
#X obj 625 36 == 1;
#X obj 722 543 *~;
#X obj 626 66 == 2;
#X obj 626 96 == 3;
#X obj 626 127 == 4;
#X obj 626 158 == 5;
#X text 718 10 signal;
#X text 845 7 frequency;
#X text 949 7 Q;
#X obj 261 958 *~;
#X floatatom 359 666 5 0 0 0 - - -;
#X obj 181 627 sig~;
#X obj 88 685 *~;
#X obj 722 626 vcf~ 1;
#X obj 722 658 vcf~ 1;
#X obj 722 690 vcf~ 1;
#X obj 722 720 vcf~ 1;
#X obj 997 610 t f f f f;
#X obj 783 1007 min~ 1;
#X obj 783 1029 max~ -1;
#X obj 125 798 vcf~ 1;
#X obj 159 830 vcf~ 1;
#X obj 192 862 vcf~ 1;
#X obj 226 892 vcf~ 1;
#X obj 359 782 t f f f f;
#X obj 182 662 lop~ 10;
#X obj 819 501 lop~ 10;
#X obj 260 922 lop~;
#X obj 1354 945 *~;
#X floatatom 1373 701 5 0 0 0 - - -;
#X obj 1276 719 *~;
#X floatatom 424 731 5 0 0 0 - - -;
#X obj 1354 890 hip~;
#X floatatom 1334 773 5 0 0 0 - - -;
#X obj 728 86 s~ signal;
#X obj 723 495 r~ signal;
#X obj 87 637 r~ signal;
#X obj 1275 681 r~ signal;
#X obj 857 83 s freq;
#X obj 819 441 r freq;
#X obj 1373 662 r freq;
#X obj 181 574 r freq;
#X obj 929 80 s q;
#X obj 997 527 r q;
#X obj 359 641 r q;
#X obj 1218 565 *~;
#X floatatom 1320 260 5 0 0 0 - - -;
#X obj 1275 270 sig~;
#X obj 1169 284 *~;
#X obj 1233 409 vcf~ 1;
#X obj 1233 441 vcf~ 1;
#X obj 1234 479 vcf~ 1;
#X obj 1275 297 lop~ 10;
#X obj 1169 241 r~ signal;
#X obj 1275 234 r freq;
#X obj 1509 267 r q;
#X obj 1218 535 -~;
#X floatatom 1574 334 5 0 0 0 - - -;
#X obj 1509 318 + 1;
#X obj 613 703 * -1;
#X obj 613 671 - 1;
#X obj 658 755 *~;
#X text 1462 19 bypass;
#X obj 1462 80 s bypass;
#X obj 613 636 r bypass;
#X obj 781 736 r bypass;
#X obj 1110 508 * -1;
#X obj 1110 476 - 1;
#X obj 1170 559 *~;
#X obj 1110 412 r bypass;
#X obj 1509 393 t f f f;
#X text 1077 387 crossfade logic;
#X obj 34 906 * -1;
#X obj 34 874 - 1;
#X obj 87 957 *~;
#X obj 34 847 r bypass;
#X obj 327 942 r bypass;
#X obj 658 717 *~ 0.4;
#X obj 1208 832 * -1;
#X obj 1208 800 - 1;
#X obj 1276 883 *~;
#X obj 1208 773 r bypass;
#X text 1160 752 crossfade logic;
#X obj 1413 926 r bypass;
#X text 1319 1042 High-pass filter;
#X text 1305 199 Notch filter;
#X text 767 418 Band-pass filter;
#X text 141 1025 Low-pass filter;
#X obj 626 191 == 6;
#X obj 541 357 r~ signal;
#X obj 542 452 *~;
#X text 554 336 Off-mode;
#X floatatom 241 97 5 0 0 0 - - -;
#X floatatom 481 167 5 0 0 0 - - -;
#X obj 195 111 sig~;
#X obj 116 149 *~;
#X obj 144 233 vcf~ 1;
#X obj 144 265 vcf~ 1;
#X obj 144 297 vcf~ 1;
#X obj 144 327 vcf~ 1;
#X obj 414 217 t f f f f;
#X obj 196 138 lop~ 10;
#X obj 117 101 r~ signal;
#X obj 195 81 r freq;
#X obj 414 105 r q;
#X obj 216 342 r bypass;
#X obj 197 387 s~ feedback;
#X obj 30 121 r~ feedback;
#X obj 414 128 * 2;
#X text 176 33 Ocsillator-mode;
#X text 627 235 1 Oscillator 2 Off 3 Notch filter 4 Low-pass 5 Band-pass
6 High-pass;
#X obj 849 783 + 2;
#X obj 849 805 pack 0 50;
#X obj 849 827 line~;
#X floatatom 882 782 5 0 0 0 - - -;
#X obj 849 717 r q;
#X obj 849 739 / 10;
#X obj 784 851 *~;
#X obj 849 760 * 3;
#X text 848 694 Gain compensation;
#X obj 1509 291 / 4;
#X obj 1275 32 inlet;
#X text 1275 12 Delta F;
#X obj 1297 372 +~;
#X obj 818 593 +~;
#X obj 204 763 +~;
#X obj 197 208 +~;
#X obj 1353 916 hip~;
#X obj 89 924 *~ 0.1;
#X obj 365 390 pack 0 50;
#X obj 365 412 line~;
#X floatatom 398 367 5 0 0 0 - - -;
#X obj 365 302 r q;
#X obj 365 324 / 10;
#X obj 365 345 * 3;
#X text 364 279 Gain compensation;
#X obj 222 441 *~;
#X obj 365 368 + 1;
#X obj 414 151 + 4;
#X text 1249 502 subtracting the band-pass filtered signal from the
clean to make a notch-filter;
#X obj 359 690 / 4;
#X obj 359 715 + 1;
#X obj 720 782 *~ 0.4;
#X obj 144 362 *~;
#X obj 1169 534 *~ 0.8;
#X obj 1276 850 *~ 0.8;
#X obj 586 401 r bypass;
#X obj 543 482 *~;
#X obj 586 451 * -1;
#X obj 586 426 - 1;
#X obj 1333 992 *~ 0.6;
#X obj 138 990 *~ 4;
#X obj 543 511 *~ 0.6;
#X obj 145 389 *~ 1;
#X obj 359 737 pack 0 50;
#X obj 359 760 line;
#X obj 414 172 pack 0 50;
#X obj 414 195 line;
#X obj 997 563 pack 0 50;
#X obj 997 588 line;
#X obj 1509 344 pack 0 50;
#X obj 1509 369 line;
#X obj 1218 595 *~ 0.4;
#X obj 1474 755 snapshot~;
#X obj 1422 789 t b f;
#X obj 1390 832 +;
#X obj 1437 701 bang~;
#X obj 819 555 +~;
#X floatatom 949 356 5 0 0 0 - - -;
#X obj 938 327 snapshot~;
#X obj 918 290 bang~;
#X floatatom 1016 436 5 0 0 0 - - -;
#X obj 1005 407 snapshot~;
#X obj 1007 378 bang~;
#X obj 299 70 r~ \$0-quf-Abus;
#X obj 299 124 *~ 1000;
#X obj 338 98 r freq;
#X obj 1388 242 r~ \$0-quf-Abus;
#X obj 1388 296 *~ 1000;
#X obj 1427 269 r freq;
#X obj 1484 649 r~ \$0-quf-Abus;
#X obj 1523 676 r freq;
#X obj 1484 702 *~ 2000;
#X obj 887 485 r~ \$0-quf-Abus;
#X obj 887 539 *~ 1000;
#X obj 926 512 r freq;
#X obj 257 632 r~ \$0-quf-Abus;
#X obj 257 686 *~ 1000;
#X obj 296 659 r freq;
#X obj 1275 65 s \$0-quf-deltaF-1;
#X obj 884 571 r \$0-quf-deltaF-1;
#X obj 203 708 +~;
#X obj 234 736 r \$0-quf-deltaF-1;
#X obj 197 175 +~;
#X obj 253 181 r \$0-quf-deltaF-1;
#X obj 1297 340 +~;
#X obj 1347 344 r \$0-quf-deltaF-1;
#X obj 1455 837 r \$0-quf-deltaF-1;
#X obj 1390 872 +;
#X floatatom 226 615 5 0 0 0 - - -;
#X obj 181 599 * 0.6;
#X text 22 153 feedback loop that creates a sinusoid, f 13;
#X connect 1 0 74 0;
#X connect 2 0 153 0;
#X connect 3 0 11 0;
#X connect 3 0 13 0;
#X connect 3 0 14 0;
#X connect 3 0 15 0;
#X connect 3 0 16 0;
#X connect 3 0 99 0;
#X connect 4 0 3 0;
#X connect 5 0 45 0;
#X connect 6 0 49 0;
#X connect 7 0 53 0;
#X connect 10 0 37 0;
#X connect 11 0 106 1;
#X connect 12 0 24 0;
#X connect 12 0 88 0;
#X connect 13 0 101 1;
#X connect 14 0 59 1;
#X connect 15 0 23 1;
#X connect 16 0 12 1;
#X connect 20 0 162 0;
#X connect 21 0 151 0;
#X connect 22 0 36 0;
#X connect 23 0 31 0;
#X connect 23 0 139 0;
#X connect 24 0 25 0;
#X connect 25 0 26 0;
#X connect 26 0 27 0;
#X connect 27 0 2 0;
#X connect 28 0 24 2;
#X connect 28 1 25 2;
#X connect 28 2 26 2;
#X connect 28 3 27 2;
#X connect 29 0 30 0;
#X connect 30 0 0 0;
#X connect 31 1 32 0;
#X connect 32 1 33 0;
#X connect 33 1 34 0;
#X connect 34 1 38 0;
#X connect 35 0 31 2;
#X connect 35 1 32 2;
#X connect 35 2 33 2;
#X connect 35 3 34 2;
#X connect 36 0 202 0;
#X connect 37 0 178 0;
#X connect 38 0 20 0;
#X connect 39 0 161 0;
#X connect 40 0 44 0;
#X connect 40 0 176 0;
#X connect 41 0 43 0;
#X connect 41 0 156 0;
#X connect 43 0 138 0;
#X connect 46 0 12 0;
#X connect 47 0 23 0;
#X connect 48 0 41 0;
#X connect 50 0 8 0;
#X connect 50 0 10 0;
#X connect 51 0 40 0;
#X connect 52 0 211 0;
#X connect 54 0 9 0;
#X connect 54 0 169 0;
#X connect 55 0 21 0;
#X connect 56 0 173 0;
#X connect 58 0 63 0;
#X connect 58 0 206 0;
#X connect 59 0 60 0;
#X connect 59 0 67 0;
#X connect 59 0 155 0;
#X connect 60 0 61 0;
#X connect 61 0 62 0;
#X connect 62 0 67 1;
#X connect 64 0 59 0;
#X connect 65 0 57 0;
#X connect 65 0 58 0;
#X connect 66 0 131 0;
#X connect 67 0 56 0;
#X connect 69 0 68 0;
#X connect 69 0 171 0;
#X connect 70 0 72 1;
#X connect 71 0 70 0;
#X connect 72 0 153 0;
#X connect 75 0 71 0;
#X connect 76 0 2 1;
#X connect 77 0 79 1;
#X connect 78 0 77 0;
#X connect 79 0 173 0;
#X connect 80 0 78 0;
#X connect 80 0 56 1;
#X connect 81 0 60 2;
#X connect 81 1 61 2;
#X connect 81 2 62 2;
#X connect 83 0 85 1;
#X connect 84 0 83 0;
#X connect 85 0 162 0;
#X connect 86 0 84 0;
#X connect 87 0 20 1;
#X connect 88 0 72 0;
#X connect 89 0 91 1;
#X connect 90 0 89 0;
#X connect 91 0 161 0;
#X connect 92 0 90 0;
#X connect 94 0 39 1;
#X connect 99 0 41 1;
#X connect 100 0 101 0;
#X connect 101 0 158 0;
#X connect 105 0 112 0;
#X connect 106 0 107 0;
#X connect 107 0 108 0;
#X connect 108 0 109 0;
#X connect 109 0 110 0;
#X connect 110 0 154 0;
#X connect 111 0 107 2;
#X connect 111 1 108 2;
#X connect 111 2 109 2;
#X connect 111 3 110 2;
#X connect 112 0 204 0;
#X connect 113 0 106 0;
#X connect 114 0 103 0;
#X connect 114 0 105 0;
#X connect 115 0 119 0;
#X connect 116 0 154 1;
#X connect 118 0 106 0;
#X connect 119 0 149 0;
#X connect 122 0 123 0;
#X connect 122 0 125 0;
#X connect 123 0 124 0;
#X connect 124 0 128 1;
#X connect 126 0 127 0;
#X connect 127 0 129 0;
#X connect 128 0 29 0;
#X connect 129 0 122 0;
#X connect 131 0 69 0;
#X connect 132 0 200 0;
#X connect 134 0 60 1;
#X connect 134 0 61 1;
#X connect 134 0 62 1;
#X connect 135 0 24 1;
#X connect 135 0 25 1;
#X connect 135 0 26 1;
#X connect 135 0 27 1;
#X connect 135 0 183 0;
#X connect 136 0 31 1;
#X connect 136 0 32 1;
#X connect 136 0 33 1;
#X connect 136 0 34 1;
#X connect 137 0 107 1;
#X connect 137 0 108 1;
#X connect 137 0 109 1;
#X connect 137 0 110 1;
#X connect 138 0 39 0;
#X connect 139 0 85 0;
#X connect 140 0 141 0;
#X connect 141 0 147 1;
#X connect 143 0 144 0;
#X connect 144 0 145 0;
#X connect 145 0 148 0;
#X connect 147 0 29 0;
#X connect 148 0 140 0;
#X connect 148 0 142 0;
#X connect 149 0 104 0;
#X connect 149 0 167 0;
#X connect 151 0 152 0;
#X connect 152 0 42 0;
#X connect 152 0 165 0;
#X connect 153 0 128 0;
#X connect 154 0 117 0;
#X connect 154 0 164 0;
#X connect 155 0 79 0;
#X connect 156 0 91 0;
#X connect 157 0 160 0;
#X connect 158 0 163 0;
#X connect 159 0 158 1;
#X connect 160 0 159 0;
#X connect 161 0 29 0;
#X connect 162 0 29 0;
#X connect 163 0 29 0;
#X connect 164 0 147 0;
#X connect 165 0 166 0;
#X connect 166 0 35 0;
#X connect 167 0 168 0;
#X connect 168 0 111 0;
#X connect 169 0 170 0;
#X connect 170 0 28 0;
#X connect 171 0 172 0;
#X connect 172 0 81 0;
#X connect 173 0 29 0;
#X connect 174 0 175 0;
#X connect 175 0 176 0;
#X connect 175 1 176 1;
#X connect 176 0 209 0;
#X connect 177 0 174 0;
#X connect 178 0 135 0;
#X connect 178 0 180 0;
#X connect 180 0 179 0;
#X connect 181 0 180 0;
#X connect 183 0 182 0;
#X connect 184 0 183 0;
#X connect 185 0 186 0;
#X connect 186 0 204 1;
#X connect 187 0 186 1;
#X connect 188 0 189 0;
#X connect 189 0 206 1;
#X connect 190 0 189 1;
#X connect 191 0 193 0;
#X connect 192 0 193 1;
#X connect 193 0 174 0;
#X connect 194 0 195 0;
#X connect 195 0 178 1;
#X connect 196 0 195 1;
#X connect 197 0 198 0;
#X connect 198 0 202 1;
#X connect 199 0 198 1;
#X connect 201 0 135 1;
#X connect 202 0 136 0;
#X connect 203 0 136 1;
#X connect 204 0 137 0;
#X connect 205 0 137 1;
#X connect 206 0 134 0;
#X connect 207 0 134 1;
#X connect 208 0 209 1;
#X connect 209 0 43 1;
#X connect 209 0 138 1;
#X connect 211 0 210 0;
#X connect 211 0 22 0;
#X connect 211 0 38 1;
#X restore 932 568 pd quad-filter_1;
#X obj 17 387 s~ \$0-quf-Abus;
#X obj 173 386 s~ \$0-quf-Bbus;
#X obj 942 71 readsf~;
#X msg 951 33 start;
#X msg 986 49 stop;
#X msg 936 13 open The_Bear.wav;
#X obj 25 580 osc~ 0.5;
#X msg 58 560 0;
#X msg 25 560 0.5;
#X obj 49 243 *~;
#X obj 329 245 vradio 12 1 0 3 \$0-quf-Abus-toggle-s \$0-quf-Abus-toggle-r
A 0 -12 0 15 -262144 -1 -1 2;
#X obj 328 324 vradio 12 1 0 3 \$0-quf-Bbus-toggle-s \$0-quf-Bbus-toggle-r
B 0 -12 0 15 -262144 -1 -1 2;
#X obj 16 244 *~;
#X text 345 235 1 \, 2;
#X text 345 316 3 \, 4;
#X obj 760 369 r \$0-quf-type-1-s;
#X obj 773 511 s \$0-quf-typeNo-1-s;
#X obj 445 219 mknob 22 100 1 127 1 1 \$0-quf-q-1-s \$0-quf-q-1-r Q
-12 20 0 12 -1 -262144 -1 7200 1;
#X obj 445 261 mknob 22 100 0 127 0 1 \$0-quf-freq-1-s \$0-quf-freq-1-r
F -12 20 0 12 -1 -262144 -1 6100 1;
#X obj 446 304 mknob 22 100 0 127 0 1 \$0-quf-deltaF-1-s \$0-quf-deltaF-1-r
DF -16 20 0 12 -1 -262144 -1 9900 1;
#X obj 446 350 mknob 22 100 0 127 0 1 \$0-quf-bypass-1-s \$0-quf-bypass-1-r
Off-Lev -44 20 0 10 -258113 -262144 -1 4700 1;
#X obj 1027 88 r \$0-quf-q-1-s;
#X obj 911 216 r \$0-quf-freq-1-s;
#X obj 1152 148 r \$0-quf-deltaF-1-s;
#X obj 1078 482 r \$0-quf-bypass-1-s;
#X text 308 190 Ext._ Freq_ Control, f 1;
#X text 359 147 1 Osc______ 2 Off______ 3 Notch____ 4 Low-pass_ 5 Band-pass
6 High-pass, f 12;
#X obj 1078 506 / 127;
#X obj 1027 115 / 127;
#X obj 1027 140 * 10;
#X obj 1027 163 + 0.7;
#X text 1077 463 Bypass;
#X text 1028 68 Q-value;
#X text 923 192 Frequency;
#X text 766 345 Filter Type;
#X obj 911 254 / 127;
#X floatatom 956 270 5 0 0 0 - - -;
#X obj 773 392 / 127;
#X obj 773 416 * 5;
#X obj 773 441 + 1;
#X floatatom 51 71 5 0 0 0 - - -;
#X obj 51 100 sel 0 1 2;
#X msg 81 190 1;
#X msg 51 190 0;
#X msg 80 151 1;
#X msg 85 129 0;
#X msg 114 129 1;
#X text 345 255 Both;
#X text 344 334 Both;
#X text 344 273 Through;
#X text 343 353 Through;
#X obj 207 246 *~;
#X obj 174 247 *~;
#X floatatom 237 72 5 0 0 0 - - -;
#X obj 209 98 sel 0 1 2;
#X msg 239 193 1;
#X msg 209 193 0;
#X msg 238 154 1;
#X msg 244 132 0;
#X msg 271 132 1;
#X obj 1052 602 env~;
#X floatatom 1069 684 5 0 0 0 - - -;
#X obj 45 605 *~ 0.9;
#X obj 1071 227 env~;
#X floatatom 1092 275 5 0 0 0 - - -;
#X obj 1071 253 dbtorms;
#X obj 1152 174 / 127;
#X obj 1152 359 pack 0 50;
#X obj 1152 331 t f f;
#X text 1172 117 Delta F;
#X floatatom 1200 321 5 0 0 0 - - -;
#X obj 1152 200 * 2;
#X obj 1152 226 - 1;
#X obj 1071 319 *;
#X floatatom 1098 335 5 0 0 0 - - -;
#X obj 1071 403 *;
#X obj 1152 387 line;
#X floatatom 1104 419 5 0 0 0 - - -;
#X obj 1152 250 moses 0;
#X obj 1152 273 / 2;
#X obj 1152 305 * 1;
#X obj 32 51 r \$0-quf-Abus-toggle-s;
#X obj 209 52 r \$0-quf-Bbus-toggle-s;
#X obj 911 312 mtof;
#X obj 911 287 * 120;
#X obj 1078 529 pack 0 50;
#X obj 1078 551 line;
#X text 1010 973 Delta F;
#X text 977 999 The scale is calculated so that max+ equals plus one
ocave (doubling the frequency) \, and max- equals minus one octave
(halving the frequency) per volt of input signal., f 54;
#X text 672 975 Frequency;
#X text 644 1002 Frequency ranges from 8Hz to approximately 8400Hz.
One exception is the Low-pass filter that starts behaving wierd at
high frequencies and therefore only goes to 5000Hz, f 52;
#X text 279 978 Bypass / Off-lev knob;
#X text 240 1005 The Off-Lev knob governs the amount of raw unfiltered
signal going through to the output. One exception is the Osc-mode where
the knob act as volume., f 53;
#X connect 3 0 2 0;
#X connect 3 0 43 0;
#X connect 3 0 60 0;
#X connect 4 0 5 0;
#X connect 7 0 5 0;
#X connect 30 0 53 0;
#X connect 30 0 56 0;
#X connect 31 0 96 0;
#X connect 31 0 95 0;
#X connect 32 0 43 1;
#X connect 32 0 107 0;
#X connect 43 0 36 0;
#X connect 43 0 38 0;
#X connect 43 0 104 0;
#X connect 43 0 10 0;
#X connect 43 0 10 1;
#X connect 46 0 107 0;
#X connect 46 0 43 1;
#X connect 47 0 46 0;
#X connect 48 0 46 0;
#X connect 49 0 46 0;
#X connect 50 0 106 0;
#X connect 51 0 50 0;
#X connect 52 0 50 0;
#X connect 53 0 36 0;
#X connect 56 0 44 0;
#X connect 59 0 81 0;
#X connect 65 0 72 0;
#X connect 66 0 79 0;
#X connect 67 0 110 0;
#X connect 68 0 71 0;
#X connect 71 0 129 0;
#X connect 72 0 73 0;
#X connect 73 0 74 0;
#X connect 74 0 43 3;
#X connect 79 0 80 0;
#X connect 79 0 128 0;
#X connect 81 0 82 0;
#X connect 82 0 83 0;
#X connect 83 0 3 0;
#X connect 85 0 86 0;
#X connect 85 0 87 0;
#X connect 85 1 88 0;
#X connect 85 2 89 0;
#X connect 85 2 90 0;
#X connect 86 0 56 1;
#X connect 87 0 53 1;
#X connect 88 0 56 1;
#X connect 88 0 53 1;
#X connect 89 0 56 1;
#X connect 90 0 53 1;
#X connect 95 0 37 0;
#X connect 95 0 10 0;
#X connect 96 0 45 0;
#X connect 98 0 99 0;
#X connect 98 0 100 0;
#X connect 98 1 101 0;
#X connect 98 2 102 0;
#X connect 98 2 103 0;
#X connect 99 0 96 1;
#X connect 100 0 95 1;
#X connect 101 0 96 1;
#X connect 101 0 95 1;
#X connect 102 0 96 1;
#X connect 103 0 95 1;
#X connect 104 0 105 0;
#X connect 106 0 56 0;
#X connect 106 0 53 0;
#X connect 107 0 109 0;
#X connect 109 0 108 0;
#X connect 109 0 117 0;
#X connect 110 0 115 0;
#X connect 111 0 120 0;
#X connect 112 0 111 0;
#X connect 115 0 116 0;
#X connect 116 0 122 0;
#X connect 117 0 118 0;
#X connect 117 0 119 0;
#X connect 119 0 121 0;
#X connect 119 0 43 4;
#X connect 120 0 119 1;
#X connect 122 0 123 0;
#X connect 122 1 124 0;
#X connect 123 0 124 0;
#X connect 124 0 112 0;
#X connect 124 0 114 0;
#X connect 125 0 84 0;
#X connect 125 0 85 0;
#X connect 126 0 97 0;
#X connect 126 0 98 0;
#X connect 127 0 43 2;
#X connect 127 0 117 1;
#X connect 128 0 127 0;
#X connect 129 0 130 0;
#X connect 130 0 43 5;
#X coords 0 -1 1 1 430 320 2 300 100;
