#N canvas 202 25 789 558 12;
#X obj 56 57 inlet~ one;
#X obj 147 57 inlet~ two;
#X obj 229 57 inlet~ three;
#X obj 326 57 inlet~ four;
#X obj 426 57 inlet index;
#X obj 59 250 outlet~;
#X obj 148 200 *~;
#X obj 232 201 *~;
#X obj 328 199 *~;
#X obj 58 199 *~;
#X obj 426 117 == 1;
#X obj 486 119 == 2;
#X obj 540 119 == 3;
#X obj 597 119 == 4;
#X connect 0 0 9 0;
#X connect 1 0 6 0;
#X connect 2 0 7 0;
#X connect 3 0 8 0;
#X connect 4 0 10 0;
#X connect 4 0 11 0;
#X connect 4 0 12 0;
#X connect 4 0 13 0;
#X connect 6 0 5 0;
#X connect 7 0 5 0;
#X connect 8 0 5 0;
#X connect 9 0 5 0;
#X connect 10 0 9 1;
#X connect 11 0 6 1;
#X connect 12 0 7 1;
#X connect 13 0 8 1;
