#N canvas 0 25 1440 847 10;
#X obj 100 105 cnv 15 350 290 empty empty QUAD-SOUND-GENERATOR 20 12
0 14 -233017 -66577 0;
#X obj 179 166 moonlib/mknob 25 100 0 10 0 0 \$0-sound-gen-freq-s1
\$0-sound-gen-freq-r1 F -2 -6 0 8 -1 -262144 -1 0 1;
#X obj 179 321 moonlib/mknob 25 100 0 127 0 0 empty empty empty -2
-6 0 8 -258113 -262144 -45076 0 1;
#X obj 179 231 moonlib/mknob 25 100 0 127 0 0 empty empty empty -2
-6 0 8 -1 -262144 -1 0 1;
#X obj 178 276 moonlib/mknob 25 100 0 127 0 0 \$0-sound-gen-w-s1 \$0-sound-gen-w-r1
W -2 -6 0 8 -1 -262144 -1 0 1;
#X obj 234 166 moonlib/mknob 25 100 0 127 0 0 empty empty empty -2
-6 0 8 -1 -262144 -1 0 1;
#X obj 234 321 moonlib/mknob 25 100 0 127 0 0 empty empty empty -2
-6 0 8 -258113 -262144 -45076 0 1;
#X obj 234 231 moonlib/mknob 25 100 0 127 0 0 empty empty empty -2
-6 0 8 -1 -262144 -1 0 1;
#X obj 233 276 moonlib/mknob 25 100 0 127 0 0 empty empty empty -2
-6 0 8 -1 -262144 -1 0 1;
#X obj 289 166 moonlib/mknob 25 100 0 127 0 0 empty empty empty -2
-6 0 8 -1 -262144 -1 0 1;
#X obj 289 321 moonlib/mknob 25 100 0 127 0 0 empty empty empty -2
-6 0 8 -258113 -262144 -45076 0 1;
#X obj 289 231 moonlib/mknob 25 100 0 127 0 0 empty empty empty -2
-6 0 8 -1 -262144 -1 0 1;
#X obj 288 276 moonlib/mknob 25 100 0 127 0 0 empty empty empty -2
-6 0 8 -1 -262144 -1 0 1;
#X obj 344 166 moonlib/mknob 25 100 0 127 0 0 empty empty empty -2
-6 0 8 -1 -262144 -1 0 1;
#X obj 344 321 moonlib/mknob 25 100 0 127 0 0 empty empty empty -2
-6 0 8 -258113 -262144 -45076 0 1;
#X obj 344 231 moonlib/mknob 25 100 0 127 0 0 empty empty empty -2
-6 0 8 -1 -262144 -1 0 1;
#X obj 343 276 moonlib/mknob 25 100 0 127 0 0 empty empty empty -2
-6 0 8 -1 -262144 -1 0 1;
#X obj 110 49 inlet~ A;
#X obj 179 50 inlet~ B;
#X obj 249 51 inlet~ one;
#X obj 328 51 inlet~ two;
#X obj 410 51 inlet~ three;
#X obj 507 51 inlet~ four;
#X obj 107 452 outlet~ A;
#X obj 176 453 outlet~ B;
#X obj 252 453 outlet~ one;
#X obj 341 454 outlet~ two;
#X obj 433 454 outlet~ three;
#X obj 540 455 outlet~ four;
#X obj 646 119 r \$0-sound-gen-freq-s1;
#X obj 646 152 int;
#X msg 493 231 -156;
#X obj 646 184 select 0 1 2 3 4 5 6 7 8 9 10;
#X obj 723 270 mtof;
#X obj 723 328 line 0;
#X obj 723 300 pack 0 500;
#X floatatom 780 271 5 0 0 0 - - -;
#X msg 594 230 24;
#X msg 636 229 36;
#X msg 683 229 48;
#X msg 723 228 60;
#X msg 758 229 72;
#X msg 801 228 84;
#X msg 844 228 96;
#X msg 887 227 108;
#X msg 933 226 120;
#X msg 549 230 12;
#X obj 722 384 osc~;
#X obj 799 383 phasor~;
#X obj 799 410 expr~ $v1 > 0.5;
#X obj 800 440 *~ 2;
#X obj 800 465 -~ 1;
#X obj 926 441 / 127;
#X obj 721 502 *~;
#X obj 800 502 *~;
#X obj 926 473 * -1;
#X obj 926 498 + 1;
#X obj 736 465 line~;
#X obj 736 441 pack 0 50;
#X obj 854 465 line~;
#X obj 854 441 pack 0 50;
#X obj 926 410 r \$0-sound-gen-w-s1;
#X obj 720 566 dac~;
#X obj 565 609 metro 500;
#X obj 565 588 tgl 15 0 empty empty empty 17 7 0 10 -262144 -1 -1 1
1;
#N canvas 0 50 450 250 (subpatch) 0;
#X array array2 100 float 3;
#A 0 -0.537373 -0.537373 -0.537373 -0.537374 -0.537374 -0.537374 -0.537374
-0.537374 -0.537374 -0.537374 -0.537374 -0.537374 -0.537375 -0.537375
-0.537375 -0.537375 -0.537375 -0.537375 -0.537375 -0.537375 -0.537376
-0.537376 -0.537376 -0.537376 -0.537376 -0.537376 -0.537376 -0.537376
-0.537377 -0.537377 -0.537377 -0.537377 -0.537377 -0.537377 -0.537377
-0.537377 -0.537377 -0.537378 -0.537378 -0.537378 -0.537378 -0.537378
-0.537378 -0.537378 -0.537378 -0.537379 -0.537379 -0.537379 -0.537379
-0.537379 -0.537379 -0.537379 -0.537379 -0.53738 -0.53738 -0.53738
-0.53738 -0.53738 -0.53738 -0.53738 -0.53738 -0.537381 -0.537381 -0.537381
-0.537381 -0.537381 -0.537381 -0.537381 -0.537381 -0.537381 -0.537382
-0.537382 -0.537382 -0.537382 -0.537382 -0.537382 -0.537382 -0.537382
-0.537383 -0.537383 -0.537383 -0.537383 -0.537383 -0.537383 -0.537383
-0.537383 -0.537383 -0.537384 -0.537384 -0.537384 -0.537384 -0.537384
-0.537384 -0.537384 -0.537384 -0.537385 -0.537385 -0.537385 -0.537385
-0.537385;
#X coords 0 2 100 -2 200 140 1 0 0;
#X restore 881 593 graph;
#X obj 565 637 tabwrite~ array2;
#X floatatom 1034 449 5 0 0 0 - - -;
#X connect 29 0 30 0;
#X connect 30 0 32 0;
#X connect 31 0 33 0;
#X connect 32 0 31 0;
#X connect 32 1 46 0;
#X connect 32 2 37 0;
#X connect 32 3 38 0;
#X connect 32 4 39 0;
#X connect 32 5 40 0;
#X connect 32 6 41 0;
#X connect 32 7 42 0;
#X connect 32 8 43 0;
#X connect 32 9 44 0;
#X connect 32 10 45 0;
#X connect 33 0 35 0;
#X connect 34 0 47 0;
#X connect 34 0 48 0;
#X connect 35 0 34 0;
#X connect 36 0 35 1;
#X connect 37 0 33 0;
#X connect 38 0 33 0;
#X connect 39 0 33 0;
#X connect 40 0 33 0;
#X connect 41 0 33 0;
#X connect 42 0 33 0;
#X connect 43 0 33 0;
#X connect 44 0 33 0;
#X connect 45 0 33 0;
#X connect 46 0 33 0;
#X connect 47 0 53 0;
#X connect 48 0 49 0;
#X connect 49 0 50 0;
#X connect 50 0 51 0;
#X connect 51 0 54 0;
#X connect 52 0 55 0;
#X connect 52 0 60 0;
#X connect 53 0 62 0;
#X connect 53 0 66 0;
#X connect 54 0 62 0;
#X connect 54 0 66 0;
#X connect 55 0 56 0;
#X connect 56 0 58 0;
#X connect 57 0 53 1;
#X connect 58 0 57 0;
#X connect 59 0 54 1;
#X connect 60 0 59 0;
#X connect 61 0 52 0;
#X connect 61 0 67 0;
#X connect 63 0 66 0;
#X connect 64 0 63 0;
#X coords 0 -1 1 1 350 300 1 100 100;
