#N canvas 26 23 1254 703 10;
#X declare -lib moonlib;
#X obj 590 324 r \$0_level_1_s;
#X obj 590 52 r \$0-phase-1-s;
#X obj 613 84 tgl 15 0 empty empty empty 17 7 0 10 -262144 -1 -1 0
1;
#X obj 591 117 select 0 1;
#X msg 590 152 1;
#X msg 620 151 -1;
#X obj 717 568 outlet~ one;
#X text 617 170 +/- phase;
#N canvas 610 56 670 538 limiter 0;
#X obj 68 49 inlet~;
#X obj 70 431 outlet~;
#X obj 97 87 env~ 1024;
#X obj 96 144 moses;
#X floatatom 123 173 5 0 0 0 - - -;
#X obj 124 201 expr (($f1 - $f3) / $f2) - $f1 + $f3;
#X obj 228 59 loadbang;
#X msg 228 97 10;
#X text 414 79 threshold in db;
#X text 38 71 outputs signal amplitude in db;
#X floatatom 124 233 5 0 0 0 - - -;
#X floatatom 14 138 5 0 0 0 - - -;
#X floatatom 341 122 5 0 0 0 - - -;
#X text 232 115 limiter ratio;
#X obj 84 213 bng 15 250 50 0 empty empty empty 17 7 0 10 -262144 -1
-1;
#X msg 85 292 1;
#X obj 70 378 *~;
#X floatatom 124 283 5 0 0 0 - - -;
#X obj 124 305 dbtorms;
#X floatatom 209 329 5 0 0 0 - - -;
#X obj 336 2 inlet;
#X floatatom 412 146 5 0 0 0 - - -;
#X obj 336 35 select 1 0;
#X obj 124 258 expr 100 + $f1;
#X text 359 197 decibels needed to be deducted = (input-threshold)/ratio
+ threshold - input;
#X obj 124 329 pack 0 10;
#X obj 125 352 line~;
#X obj 440 35 loadbang;
#X obj 125 377 clip~ 0 1;
#X msg 337 92 120;
#X obj 462 152 bng 15 250 50 0 empty empty empty 17 7 0 10 -262144
-1 -1;
#X msg 381 98 90;
#X connect 0 0 16 0;
#X connect 0 0 2 0;
#X connect 2 0 3 0;
#X connect 3 0 14 0;
#X connect 3 1 4 0;
#X connect 4 0 5 0;
#X connect 5 0 10 0;
#X connect 6 0 7 0;
#X connect 7 0 5 1;
#X connect 10 0 23 0;
#X connect 11 0 3 0;
#X connect 14 0 15 0;
#X connect 15 0 25 0;
#X connect 16 0 1 0;
#X connect 17 0 18 0;
#X connect 18 0 19 0;
#X connect 18 0 25 0;
#X connect 20 0 22 0;
#X connect 21 0 5 2;
#X connect 22 0 7 0;
#X connect 22 0 29 0;
#X connect 22 1 31 0;
#X connect 23 0 17 0;
#X connect 25 0 26 0;
#X connect 26 0 28 0;
#X connect 27 0 31 0;
#X connect 28 0 16 1;
#X connect 29 0 12 0;
#X connect 29 0 3 1;
#X connect 29 0 5 2;
#X connect 31 0 21 0;
#X connect 31 0 3 1;
#X connect 31 0 5 2;
#X connect 31 0 30 0;
#X restore 561 297 pd limiter;
#X obj 620 244 r \$0-limiter-1-s;
#X obj 642 270 tgl 15 0 empty empty empty 17 7 0 10 -262144 -1 -1 0
1;
#X obj 590 395 + 100;
#X obj 590 419 dbtorms;
#X floatatom 670 441 5 0 0 0 - - -;
#X obj 892 8 adc~ 1 2 3 4;
#X obj 590 444 \$1 50;
#X obj 590 470 line~;
#X obj 563 499 *~;
#X obj 674 394 loadbang;
#X msg 674 415 1;
#X obj 562 240 *~;
#X obj 589 212 line~;
#X obj 589 187 \$1 500;
#X obj 821 87 tgl 15 0 empty empty empty 17 7 0 10 -262144 -1 -1 0
1;
#X obj 800 122 select 0 1;
#X msg 799 157 1;
#X msg 829 156 -1;
#X text 826 175 +/- phase;
#X obj 844 273 tgl 15 0 empty empty empty 17 7 0 10 -262144 -1 -1 0
1;
#X obj 799 400 + 100;
#X obj 799 424 dbtorms;
#X floatatom 879 446 5 0 0 0 - - -;
#X obj 799 449 \$1 50;
#X obj 799 475 line~;
#X obj 772 504 *~;
#X obj 883 399 loadbang;
#X msg 883 420 1;
#X obj 771 245 *~;
#X obj 798 217 line~;
#X obj 798 192 \$1 500;
#X obj 1009 94 tgl 15 0 empty empty empty 17 7 0 10 -262144 -1 -1 0
1;
#X obj 990 127 select 0 1;
#X msg 989 162 1;
#X msg 1019 161 -1;
#X text 1016 180 +/- phase;
#X obj 1035 279 tgl 15 0 empty empty empty 17 7 0 10 -262144 -1 -1
0 1;
#X obj 989 405 + 100;
#X obj 989 429 dbtorms;
#X floatatom 1069 451 5 0 0 0 - - -;
#X obj 989 454 \$1 50;
#X obj 989 480 line~;
#X obj 962 509 *~;
#X obj 1073 404 loadbang;
#X msg 1073 425 1;
#X obj 961 250 *~;
#X obj 988 222 line~;
#X obj 988 197 \$1 500;
#X obj 1189 94 tgl 15 0 empty empty empty 17 7 0 10 -262144 -1 -1 0
1;
#X obj 1170 130 select 0 1;
#X msg 1169 165 1;
#X msg 1199 164 -1;
#X text 1196 183 +/- phase;
#X obj 1225 283 tgl 15 0 empty empty empty 17 7 0 10 -262144 -1 -1
0 1;
#X obj 1169 408 + 100;
#X obj 1169 432 dbtorms;
#X floatatom 1249 454 5 0 0 0 - - -;
#X obj 1169 457 \$1 50;
#X obj 1169 483 line~;
#X obj 1142 512 *~;
#X obj 1253 407 loadbang;
#X msg 1253 428 1;
#X obj 1141 253 *~;
#X obj 1168 225 line~;
#X obj 1168 200 \$1 500;
#X obj 799 57 r \$0-phase-2-s;
#X obj 829 249 r \$0-limiter-2-s;
#X obj 990 62 r \$0-phase-3-s;
#X obj 1019 254 r \$0-limiter-3-s;
#X obj 989 329 r \$0_level_3_s;
#X obj 1168 330 r \$0_level_4_s;
#X obj 1199 257 r \$0-limiter-4-s;
#X obj 1169 65 r \$0-phase-4-s;
#X obj 812 567 outlet~ two;
#X obj 958 567 outlet~ three;
#X obj 1136 572 outlet~ four;
#X obj 485 568 outlet~ bus_A;
#X obj 582 569 outlet~ bus_B;
#X obj 115 57 declare -lib moonlib;
#X floatatom 639 379 5 0 0 0 - - -;
#X obj 590 355 / 2.11667;
#X obj 799 361 / 2.11667;
#X obj 799 330 r \$0_level_2_s;
#X obj 988 362 / 2.11667;
#X obj 1168 366 / 2.11667;
#X obj 101 103 cnv 15 428 314 empty empty 3001_INPUT_AMPLIFIER 20 12
0 14 -233017 -66577 0;
#X obj 499 132 cnv 5 5 5 empty \$0-instance-num 0 0 0 0 12 -262144
-66577 0;
#X obj 138 328 mknob 25 100 0 127 0 0 \$0_level_1_s \$0_level_1_r Gain
-2 -6 0 12 -258113 -1 -1 1700 1;
#X floatatom 138 356 5 0 0 0 - - -;
#X text 174 355 db;
#X obj 240 328 mknob 25 100 0 127 0 0 \$0_level_2_s \$0_level_2_r Gain
-2 -6 0 12 -258113 -1 -1 1700 1;
#X floatatom 241 356 5 0 0 0 - - -;
#X text 277 357 db;
#X obj 338 329 mknob 25 100 0 127 0 0 \$0_level_3_s \$0_level_3_r Gain
-2 -6 0 12 -258113 -1 -1 600 1;
#X floatatom 339 357 5 0 0 0 - - -;
#X text 375 358 db;
#X obj 445 328 mknob 25 100 0 127 0 0 \$0_level_4_s \$0_level_4_r Gain
-2 -6 0 12 -258113 -1 -1 0 1;
#X floatatom 446 357 5 0 0 0 - - -;
#X text 482 358 db;
#X obj 138 181 hradio 15 1 0 2 \$0-phase-1-s \$0-phase-1-r Phase_+/-
0 -8 0 10 -262144 -1 -1 0;
#X text 128 356 +;
#X text 231 355 +;
#X text 330 357 +;
#X text 435 357 +;
#X obj 240 179 hradio 15 1 0 2 \$0-phase-2-s \$0-phase-2-r Phase_+/-
0 -8 0 10 -262144 -1 -1 0;
#X obj 338 178 hradio 15 1 0 2 \$0-phase-3-s \$0-phase-3-r Phase_+/-
0 -8 0 10 -262144 -1 -1 0;
#X obj 442 177 hradio 15 1 0 2 \$0-phase-4-s \$0-phase-4-r Phase_+/-
0 -8 0 10 -262144 -1 -1 0;
#X obj 139 256 hradio 15 1 0 2 \$0-limiter-1-s \$0-limiter-1-r Limiter
0 -8 0 10 -262144 -1 -1 0;
#X text 117 255 0db;
#X text 169 256 +20db;
#N canvas 610 67 670 538 limiter 0;
#X obj 68 49 inlet~;
#X obj 70 431 outlet~;
#X obj 97 87 env~ 1024;
#X obj 96 144 moses;
#X floatatom 123 173 5 0 0 0 - - -;
#X obj 124 201 expr (($f1 - $f3) / $f2) - $f1 + $f3;
#X obj 228 59 loadbang;
#X msg 228 97 10;
#X text 414 79 threshold in db;
#X text 38 71 outputs signal amplitude in db;
#X floatatom 124 233 5 0 0 0 - - -;
#X floatatom 14 138 5 0 0 0 - - -;
#X floatatom 341 122 5 0 0 0 - - -;
#X text 232 115 limiter ratio;
#X obj 84 213 bng 15 250 50 0 empty empty empty 17 7 0 10 -262144 -1
-1;
#X msg 85 292 1;
#X obj 70 378 *~;
#X floatatom 124 283 5 0 0 0 - - -;
#X obj 124 305 dbtorms;
#X floatatom 209 329 5 0 0 0 - - -;
#X obj 336 2 inlet;
#X floatatom 412 146 5 0 0 0 - - -;
#X obj 336 35 select 1 0;
#X obj 124 258 expr 100 + $f1;
#X text 359 197 decibels needed to be deducted = (input-threshold)/ratio
+ threshold - input;
#X obj 124 329 pack 0 10;
#X obj 125 352 line~;
#X obj 440 35 loadbang;
#X obj 125 377 clip~ 0 1;
#X msg 337 92 120;
#X obj 462 152 bng 15 250 50 0 empty empty empty 17 7 0 10 -262144
-1 -1;
#X msg 381 98 90;
#X connect 0 0 16 0;
#X connect 0 0 2 0;
#X connect 2 0 3 0;
#X connect 3 0 14 0;
#X connect 3 1 4 0;
#X connect 4 0 5 0;
#X connect 5 0 10 0;
#X connect 6 0 7 0;
#X connect 7 0 5 1;
#X connect 10 0 23 0;
#X connect 11 0 3 0;
#X connect 14 0 15 0;
#X connect 15 0 25 0;
#X connect 16 0 1 0;
#X connect 17 0 18 0;
#X connect 18 0 19 0;
#X connect 18 0 25 0;
#X connect 20 0 22 0;
#X connect 21 0 5 2;
#X connect 22 0 7 0;
#X connect 22 0 29 0;
#X connect 22 1 31 0;
#X connect 23 0 17 0;
#X connect 25 0 26 0;
#X connect 26 0 28 0;
#X connect 27 0 31 0;
#X connect 28 0 16 1;
#X connect 29 0 12 0;
#X connect 29 0 3 1;
#X connect 29 0 5 2;
#X connect 31 0 21 0;
#X connect 31 0 3 1;
#X connect 31 0 5 2;
#X connect 31 0 30 0;
#X restore 771 300 pd limiter;
#N canvas 610 67 670 538 limiter 0;
#X obj 68 49 inlet~;
#X obj 70 431 outlet~;
#X obj 97 87 env~ 1024;
#X obj 96 144 moses;
#X floatatom 123 173 5 0 0 0 - - -;
#X obj 124 201 expr (($f1 - $f3) / $f2) - $f1 + $f3;
#X obj 228 59 loadbang;
#X msg 228 97 10;
#X text 414 79 threshold in db;
#X text 38 71 outputs signal amplitude in db;
#X floatatom 124 233 5 0 0 0 - - -;
#X floatatom 14 138 5 0 0 0 - - -;
#X floatatom 341 122 5 0 0 0 - - -;
#X text 232 115 limiter ratio;
#X obj 84 213 bng 15 250 50 0 empty empty empty 17 7 0 10 -262144 -1
-1;
#X msg 85 292 1;
#X obj 70 378 *~;
#X floatatom 124 283 5 0 0 0 - - -;
#X obj 124 305 dbtorms;
#X floatatom 209 329 5 0 0 0 - - -;
#X obj 336 2 inlet;
#X floatatom 412 146 5 0 0 0 - - -;
#X obj 336 35 select 1 0;
#X obj 124 258 expr 100 + $f1;
#X text 359 197 decibels needed to be deducted = (input-threshold)/ratio
+ threshold - input;
#X obj 124 329 pack 0 10;
#X obj 125 352 line~;
#X obj 440 35 loadbang;
#X obj 125 377 clip~ 0 1;
#X msg 337 92 120;
#X obj 462 152 bng 15 250 50 0 empty empty empty 17 7 0 10 -262144
-1 -1;
#X msg 381 98 90;
#X connect 0 0 16 0;
#X connect 0 0 2 0;
#X connect 2 0 3 0;
#X connect 3 0 14 0;
#X connect 3 1 4 0;
#X connect 4 0 5 0;
#X connect 5 0 10 0;
#X connect 6 0 7 0;
#X connect 7 0 5 1;
#X connect 10 0 23 0;
#X connect 11 0 3 0;
#X connect 14 0 15 0;
#X connect 15 0 25 0;
#X connect 16 0 1 0;
#X connect 17 0 18 0;
#X connect 18 0 19 0;
#X connect 18 0 25 0;
#X connect 20 0 22 0;
#X connect 21 0 5 2;
#X connect 22 0 7 0;
#X connect 22 0 29 0;
#X connect 22 1 31 0;
#X connect 23 0 17 0;
#X connect 25 0 26 0;
#X connect 26 0 28 0;
#X connect 27 0 31 0;
#X connect 28 0 16 1;
#X connect 29 0 12 0;
#X connect 29 0 3 1;
#X connect 29 0 5 2;
#X connect 31 0 21 0;
#X connect 31 0 3 1;
#X connect 31 0 5 2;
#X connect 31 0 30 0;
#X restore 962 306 pd limiter;
#N canvas 610 68 670 538 limiter 0;
#X obj 68 49 inlet~;
#X obj 70 431 outlet~;
#X obj 97 87 env~ 1024;
#X obj 96 144 moses;
#X floatatom 123 173 5 0 0 0 - - -;
#X obj 124 201 expr (($f1 - $f3) / $f2) - $f1 + $f3;
#X obj 228 59 loadbang;
#X msg 228 97 10;
#X text 414 79 threshold in db;
#X text 38 71 outputs signal amplitude in db;
#X floatatom 124 233 5 0 0 0 - - -;
#X floatatom 14 138 5 0 0 0 - - -;
#X floatatom 341 122 5 0 0 0 - - -;
#X text 232 115 limiter ratio;
#X obj 84 213 bng 15 250 50 0 empty empty empty 17 7 0 10 -262144 -1
-1;
#X msg 85 292 1;
#X obj 70 378 *~;
#X floatatom 124 283 5 0 0 0 - - -;
#X obj 124 305 dbtorms;
#X floatatom 209 329 5 0 0 0 - - -;
#X obj 336 2 inlet;
#X floatatom 412 146 5 0 0 0 - - -;
#X obj 336 35 select 1 0;
#X obj 124 258 expr 100 + $f1;
#X text 359 197 decibels needed to be deducted = (input-threshold)/ratio
+ threshold - input;
#X obj 124 329 pack 0 10;
#X obj 125 352 line~;
#X obj 440 35 loadbang;
#X obj 125 377 clip~ 0 1;
#X msg 337 92 120;
#X obj 462 152 bng 15 250 50 0 empty empty empty 17 7 0 10 -262144
-1 -1;
#X msg 381 98 90;
#X connect 0 0 16 0;
#X connect 0 0 2 0;
#X connect 2 0 3 0;
#X connect 3 0 14 0;
#X connect 3 1 4 0;
#X connect 4 0 5 0;
#X connect 5 0 10 0;
#X connect 6 0 7 0;
#X connect 7 0 5 1;
#X connect 10 0 23 0;
#X connect 11 0 3 0;
#X connect 14 0 15 0;
#X connect 15 0 25 0;
#X connect 16 0 1 0;
#X connect 17 0 18 0;
#X connect 18 0 19 0;
#X connect 18 0 25 0;
#X connect 20 0 22 0;
#X connect 21 0 5 2;
#X connect 22 0 7 0;
#X connect 22 0 29 0;
#X connect 22 1 31 0;
#X connect 23 0 17 0;
#X connect 25 0 26 0;
#X connect 26 0 28 0;
#X connect 27 0 31 0;
#X connect 28 0 16 1;
#X connect 29 0 12 0;
#X connect 29 0 3 1;
#X connect 29 0 5 2;
#X connect 31 0 21 0;
#X connect 31 0 3 1;
#X connect 31 0 5 2;
#X connect 31 0 30 0;
#X restore 1143 310 pd limiter;
#X obj 240 255 hradio 15 1 0 2 \$0-limiter-2-s \$0-limiter-2-r Limiter
0 -8 0 10 -262144 -1 -1 0;
#X text 218 254 0db;
#X text 270 255 +20db;
#X obj 336 255 hradio 15 1 0 2 \$0-limiter-3-s \$0-limiter-3-r Limiter
0 -8 0 10 -262144 -1 -1 0;
#X text 314 254 0db;
#X text 366 255 +20db;
#X obj 443 254 hradio 15 1 0 2 \$0-limiter-4-s \$0-limiter-4-r Limiter
0 -8 0 10 -262144 -1 -1 0;
#X text 421 253 0db;
#X text 473 254 +20db;
#X text 100 405 A;
#X text 182 405 B;
#X text 268 405 1;
#X text 351 405 2;
#X text 437 405 3;
#X text 520 405 4;
#N canvas 240 51 948 644 state-saving-multiple-instances 1;
#X obj 138 29 loadbang;
#X obj 729 407 textfile;
#X msg 703 331 rewind;
#X msg 660 331 bang;
#X obj 42 771 textfile;
#X obj 660 292 t b b;
#X obj 43 437 f;
#X obj 56 660 f;
#X obj -16 481 t b b b;
#X msg 119 660 clear;
#X obj 216 153 outlet;
#X text 268 154 INSTANCE NUMBER;
#X obj 170 90 f \$1;
#X obj 170 126 t f f f;
#X obj 138 62 t b b;
#X obj -16 458 bng 15 250 50 0 empty empty empty 17 7 0 10 -262144
-1 -1;
#X obj -15 314 r SAVE-S;
#X obj 222 37 r \$0-reload!;
#X text 319 40 RETURN TO PREVIOUS VALUE AFTER USING MORPH-SEQ module
;
#X text 56 247 WRITE side;
#X text 738 235 READ side;
#X text 375 751 i.e. "write statesave/\$1-\$2-PATCH_NAME-ss.txt";
#X text 330 732 <-----rename to match name of Pd patch;
#X text 1044 390 i.e. "write statesave/\$1-\$2-PATCH_NAME-ss.txt";
#X text 1002 374 <-----rename to match name of Pd patch;
#X text 119 480 <----- one "f" for each parameter;
#X text 142 523 <----- one "$N" for each parameter;
#X text 213 349 <-----rename to match send symbol of each GUI element
;
#X text 908 567 <-----rename to match receive symbol of each GUI element
;
#X text 876 617 Keep these parameters in the same order on the WRITE
and READ sides;
#X text 856 428 <----- one "f" for each parameter;
#X obj 43 481 pack f f f f;
#X msg 43 518 set \$1 \$2 \$3 \$4;
#X obj 62 350 r \$0_level_1_s;
#X obj 89 381 r \$0_level_2_s;
#X obj 128 401 r \$0_level_3_s;
#X obj 145 419 r \$0_level_4_s;
#X msg 55 731 write statesave/\$1-\$2-quad-input-amplifier-ss.txt;
#X msg 729 374 read statesave/\$1-\$2-quad-input-amplifier-ss.txt;
#X obj 729 429 unpack f f f f;
#X obj 730 573 s \$0_level_1_r;
#X obj 756 539 s \$0_level_2_r;
#X obj 783 506 s \$0_level_3_r;
#X obj 807 483 s \$0_level_4_r;
#X connect 0 0 14 0;
#X connect 1 0 39 0;
#X connect 2 0 1 0;
#X connect 3 0 1 0;
#X connect 5 0 3 0;
#X connect 5 1 2 0;
#X connect 6 0 31 0;
#X connect 7 0 37 0;
#X connect 8 0 7 0;
#X connect 8 1 6 0;
#X connect 8 2 9 0;
#X connect 9 0 4 0;
#X connect 12 0 13 0;
#X connect 13 0 7 1;
#X connect 13 1 38 0;
#X connect 13 2 10 0;
#X connect 14 0 5 0;
#X connect 14 1 12 0;
#X connect 15 0 8 0;
#X connect 16 0 15 0;
#X connect 17 0 14 0;
#X connect 31 0 32 0;
#X connect 32 0 4 0;
#X connect 33 0 6 1;
#X connect 34 0 31 1;
#X connect 35 0 31 2;
#X connect 36 0 31 3;
#X connect 37 0 4 0;
#X connect 38 0 1 0;
#X connect 39 0 40 0;
#X connect 39 1 41 0;
#X connect 39 2 42 0;
#X connect 39 3 43 0;
#X restore 120 600 pd state-saving-multiple-instances;
#X obj 120 706 s \$0-instance-num;
#X obj 120 658 makefilename %d;
#X msg 120 683 label \$1;
#N canvas 352 82 1140 657 state-saving-via-preset-manager-module 0
;
#X obj 751 323 textfile;
#X msg 687 272 rewind;
#X msg 644 272 bang;
#X obj 109 816 textfile;
#X obj 644 233 t b b;
#X obj 107 334 f;
#X obj 120 557 f;
#X obj 53 452 t b b b;
#X msg 160 714 clear;
#X obj 107 156 delay 5;
#X obj 53 507 delay 10;
#X msg 53 292 bang;
#X obj 53 126 r STORE-S!;
#X obj 751 224 f;
#X obj 724 188 t b b;
#X obj 724 145 t b f;
#X obj 796 242 f \$1;
#X obj 751 269 pack f f;
#X obj 796 192 loadbang;
#X obj 120 587 pack f f;
#X obj 165 540 loadbang;
#X obj 165 562 f \$1;
#X obj 724 122 r preset-manager-scan;
#X obj 135 518 r preset-manager-store-slot;
#N canvas 0 22 1069 747 morph-frequencies 0;
#X obj 176 94 inlet;
#X obj 176 236 pack f f;
#X obj 176 261 line;
#X obj 209 117 r preset-manager-morph-s;
#X msg 72 244 stop;
#X obj 72 214 r STOP-MORPH!;
#X obj 398 102 r frequencies-s;
#X obj 209 206 spigot;
#X obj 398 137 t f f;
#X obj 455 154 == 0;
#X obj 221 176 f;
#X floatatom 455 222 5 0 0 0 - - -;
#X obj 398 159 t b f;
#X floatatom 425 192 5 0 0 0 - - -;
#X obj 209 139 t f f;
#X obj 176 283 outlet;
#X connect 0 0 1 0;
#X connect 1 0 2 0;
#X connect 2 0 15 0;
#X connect 3 0 14 0;
#X connect 4 0 2 0;
#X connect 5 0 4 0;
#X connect 6 0 8 0;
#X connect 7 0 1 1;
#X connect 8 0 12 0;
#X connect 8 1 9 0;
#X connect 9 0 11 0;
#X connect 10 0 7 0;
#X connect 11 0 1 1;
#X connect 12 0 10 0;
#X connect 12 1 13 0;
#X connect 13 0 7 1;
#X connect 14 0 7 0;
#X connect 14 1 10 1;
#X restore 751 620 pd morph-frequencies;
#N canvas 0 22 1069 747 morph-parameters 0;
#X obj 176 94 inlet;
#X obj 176 236 pack f f;
#X obj 176 261 line;
#X obj 209 117 r preset-manager-morph-s;
#X msg 72 244 stop;
#X obj 72 214 r STOP-MORPH!;
#X obj 209 206 spigot;
#X obj 398 137 t f f;
#X obj 455 154 == 0;
#X obj 221 176 f;
#X floatatom 455 222 5 0 0 0 - - -;
#X obj 398 159 t b f;
#X floatatom 425 192 5 0 0 0 - - -;
#X obj 209 139 t f f;
#X obj 398 102 r parameters-s;
#X obj 176 288 outlet;
#X connect 0 0 1 0;
#X connect 1 0 2 0;
#X connect 2 0 15 0;
#X connect 3 0 13 0;
#X connect 4 0 2 0;
#X connect 5 0 4 0;
#X connect 6 0 1 1;
#X connect 7 0 11 0;
#X connect 7 1 8 0;
#X connect 8 0 10 0;
#X connect 9 0 6 0;
#X connect 10 0 1 1;
#X connect 11 0 9 0;
#X connect 11 1 12 0;
#X connect 12 0 6 1;
#X connect 13 0 6 0;
#X connect 13 1 9 1;
#X connect 14 0 7 0;
#X restore 780 553 pd morph-parameters;
#X text 1027 297 <-----rename to match name of Pd patch;
#X text 1059 317 i.e. "read statesave/\$1-\$2-PATCH_NAME-ss.txt";
#X text 498 759 i.e. "write statesave/\$1-\$2-PATCH_NAME-ss.txt";
#X text 453 740 <-----rename to match name of Pd patch;
#X text 907 374 <----- one "f" for each parameter;
#X text 237 405 <----- one "f" for each parameter;
#X text 200 464 <----- one "$N" for each parameter;
#X text 930 642 <-----rename to match receive symbol of each GUI element
;
#X text 278 190 <-----rename to match send symbol of each GUI element
;
#X text 992 524 <-----for binary (0 or 1) controls which do not morph
;
#X text 1032 544 (like switches) \, do not use [pd morph-paramaters]
;
#X text 898 692 Keep these parameters in the same order on the WRITE
and READ sides;
#X text 126 52 WRITE side;
#X text 727 44 READ side;
#X obj 126 191 r \$0_level_1_s;
#X obj 149 236 r \$0_level_2_s;
#X obj 107 400 pack f f f f;
#X obj 174 260 r \$0_level_3_s;
#X obj 192 290 r \$0_level_4_s;
#X msg 107 468 set \$1 \$2 \$3 \$4;
#X msg 159 741 write statesave/\$1-\$2-quad-input-amplifier-ss.txt
;
#X msg 751 298 read statesave/\$1-\$2-quad-input-amplifier-ss.txt;
#X obj 751 375 unpack f f f f;
#X obj 751 647 s \$0_level_1_r;
#X obj 780 580 s \$0_level_2_r;
#N canvas 0 22 1069 747 morph-parameters 0;
#X obj 176 94 inlet;
#X obj 176 236 pack f f;
#X obj 176 261 line;
#X obj 209 117 r preset-manager-morph-s;
#X msg 72 244 stop;
#X obj 72 214 r STOP-MORPH!;
#X obj 209 206 spigot;
#X obj 398 137 t f f;
#X obj 455 154 == 0;
#X obj 221 176 f;
#X floatatom 455 222 5 0 0 0 - - -;
#X obj 398 159 t b f;
#X floatatom 425 192 5 0 0 0 - - -;
#X obj 209 139 t f f;
#X obj 398 102 r parameters-s;
#X obj 176 288 outlet;
#X connect 0 0 1 0;
#X connect 1 0 2 0;
#X connect 2 0 15 0;
#X connect 3 0 13 0;
#X connect 4 0 2 0;
#X connect 5 0 4 0;
#X connect 6 0 1 1;
#X connect 7 0 11 0;
#X connect 7 1 8 0;
#X connect 8 0 10 0;
#X connect 9 0 6 0;
#X connect 10 0 1 1;
#X connect 11 0 9 0;
#X connect 11 1 12 0;
#X connect 12 0 6 1;
#X connect 13 0 6 0;
#X connect 13 1 9 1;
#X connect 14 0 7 0;
#X restore 809 493 pd morph-parameters;
#X obj 809 520 s \$0_level_3_r;
#N canvas 0 22 1069 747 morph-parameters 0;
#X obj 176 94 inlet;
#X obj 176 236 pack f f;
#X obj 176 261 line;
#X obj 209 117 r preset-manager-morph-s;
#X msg 72 244 stop;
#X obj 72 214 r STOP-MORPH!;
#X obj 209 206 spigot;
#X obj 398 137 t f f;
#X obj 455 154 == 0;
#X obj 221 176 f;
#X floatatom 455 222 5 0 0 0 - - -;
#X obj 398 159 t b f;
#X floatatom 425 192 5 0 0 0 - - -;
#X obj 209 139 t f f;
#X obj 398 102 r parameters-s;
#X obj 176 288 outlet;
#X connect 0 0 1 0;
#X connect 1 0 2 0;
#X connect 2 0 15 0;
#X connect 3 0 13 0;
#X connect 4 0 2 0;
#X connect 5 0 4 0;
#X connect 6 0 1 1;
#X connect 7 0 11 0;
#X connect 7 1 8 0;
#X connect 8 0 10 0;
#X connect 9 0 6 0;
#X connect 10 0 1 1;
#X connect 11 0 9 0;
#X connect 11 1 12 0;
#X connect 12 0 6 1;
#X connect 13 0 6 0;
#X connect 13 1 9 1;
#X connect 14 0 7 0;
#X restore 836 435 pd morph-parameters;
#X obj 836 462 s \$0_level_4_r;
#X connect 0 0 48 0;
#X connect 1 0 0 0;
#X connect 2 0 0 0;
#X connect 4 0 2 0;
#X connect 4 1 1 0;
#X connect 5 0 42 0;
#X connect 6 0 19 0;
#X connect 7 0 10 0;
#X connect 7 1 9 0;
#X connect 7 2 8 0;
#X connect 8 0 3 0;
#X connect 9 0 5 0;
#X connect 10 0 6 0;
#X connect 11 0 7 0;
#X connect 12 0 11 0;
#X connect 13 0 17 0;
#X connect 14 0 4 0;
#X connect 14 1 13 0;
#X connect 15 0 14 0;
#X connect 15 1 13 1;
#X connect 16 0 17 1;
#X connect 17 0 47 0;
#X connect 18 0 16 0;
#X connect 19 0 46 0;
#X connect 20 0 21 0;
#X connect 21 0 19 1;
#X connect 22 0 15 0;
#X connect 23 0 6 1;
#X connect 24 0 49 0;
#X connect 25 0 50 0;
#X connect 40 0 5 1;
#X connect 41 0 42 1;
#X connect 42 0 45 0;
#X connect 43 0 42 2;
#X connect 44 0 42 3;
#X connect 45 0 3 0;
#X connect 46 0 3 0;
#X connect 47 0 0 0;
#X connect 48 0 24 0;
#X connect 48 1 25 0;
#X connect 48 2 51 0;
#X connect 48 3 53 0;
#X connect 51 0 52 0;
#X connect 53 0 54 0;
#X restore 121 572 pd state-saving-via-preset-manager-module;
#N canvas 396 31 798 399 parameter-nudging-system 1;
#X obj 56 29 r \$0-noise-lowpass-s;
#X obj 54 187 r \$0-noise-volume-s;
#X obj 56 79 clip 0 127;
#N canvas 639 226 484 497 nudge-attenuators 0;
#X obj 124 234 random;
#X obj 232 335 f;
#X obj 232 368 +;
#X obj 257 166 random 2;
#X obj 124 275 t f f;
#X obj 124 351 t b f;
#X obj 124 297 *;
#X obj 257 188 sel 0 1;
#X msg 257 280 -1;
#X msg 335 280 1;
#X obj 124 149 t b b b;
#X obj 124 71 r NUDGE!;
#X obj 157 193 r NUDGE-RANGE;
#X obj 247 308 inlet;
#X obj 232 397 outlet;
#X obj 124 93 spigot;
#X obj 201 76 r attenuators2-s;
#X connect 0 0 4 0;
#X connect 1 0 2 0;
#X connect 2 0 14 0;
#X connect 3 0 7 0;
#X connect 4 0 6 0;
#X connect 5 0 2 0;
#X connect 5 1 2 1;
#X connect 6 0 5 0;
#X connect 7 0 8 0;
#X connect 7 1 9 0;
#X connect 8 0 6 1;
#X connect 9 0 6 1;
#X connect 10 0 0 0;
#X connect 10 1 1 0;
#X connect 10 2 3 0;
#X connect 11 0 15 0;
#X connect 12 0 0 1;
#X connect 13 0 1 1;
#X connect 15 0 10 0;
#X connect 16 0 15 1;
#X restore 56 57 pd nudge-attenuators;
#X obj 56 109 s \$0-noise-lowpass-r;
#X obj 54 267 s \$0-noise-volume-r;
#X obj 54 238 clip 0 127;
#N canvas 0 22 484 497 nudge-attenuators 0;
#X obj 124 234 random;
#X obj 232 335 f;
#X obj 232 368 +;
#X obj 257 166 random 2;
#X obj 124 275 t f f;
#X obj 124 351 t b f;
#X obj 124 297 *;
#X obj 257 188 sel 0 1;
#X msg 257 280 -1;
#X msg 335 280 1;
#X obj 124 149 t b b b;
#X obj 124 71 r NUDGE!;
#X obj 157 193 r NUDGE-RANGE;
#X obj 247 308 inlet;
#X obj 232 397 outlet;
#X obj 124 93 spigot;
#X obj 201 76 r attenuators2-s;
#X connect 0 0 4 0;
#X connect 1 0 2 0;
#X connect 2 0 14 0;
#X connect 3 0 7 0;
#X connect 4 0 6 0;
#X connect 5 0 2 0;
#X connect 5 1 2 1;
#X connect 6 0 5 0;
#X connect 7 0 8 0;
#X connect 7 1 9 0;
#X connect 8 0 6 1;
#X connect 9 0 6 1;
#X connect 10 0 0 0;
#X connect 10 1 1 0;
#X connect 10 2 3 0;
#X connect 11 0 15 0;
#X connect 12 0 0 1;
#X connect 13 0 1 1;
#X connect 15 0 10 0;
#X connect 16 0 15 1;
#X restore 54 216 pd nudge-attenuators;
#X text 409 490 <-----you will need one structure like this for each
parameter;
#X text 382 552 <-----rename to match receive symbol of each GUI element
;
#X text 268 64 <-----you will need one structure like this for each
parameter;
#X text 221 115 <-----rename to match receive symbol of each GUI element
;
#X text 222 28 <-----rename to match send symbol of each GUI element
;
#X connect 0 0 3 0;
#X connect 1 0 7 0;
#X connect 2 0 4 0;
#X connect 3 0 2 0;
#X connect 6 0 5 0;
#X connect 7 0 6 0;
#X restore 122 544 pd parameter-nudging-system;
#N canvas 412 53 847 702 external-messages 0;
#X floatatom 185 535 5 0 0 0 - - -;
#X obj 185 327 spigot;
#X obj 224 278 tgl 15 0 empty empty empty 17 7 0 10 -262144 -1 -1 0
1;
#X obj 267 238 ==;
#X obj 282 214 f \$1;
#X obj 282 190 loadbang;
#X msg 185 202 \$1 \$2;
#X msg 185 156 symbol \$1;
#X obj 185 180 pack s f;
#X obj 185 514 f;
#X obj 185 458 t b f;
#X obj 185 485 spigot;
#X obj 185 62 unpack s f f;
#X symbolatom 185 94 10 0 0 0 - - -;
#X obj 224 298 t f f;
#X obj 257 327 s \$0-msg-spigot;
#X obj 234 459 r \$0-msg-spigot;
#X floatatom 273 724 5 0 0 0 - - -;
#X obj 273 703 f;
#X obj 273 644 t b f;
#X obj 273 674 spigot;
#X obj 323 645 r \$0-msg-spigot;
#X text 360 16 <----rename to match name of module;
#X obj 185 380 route LPF VOL;
#X text 306 379 <-----rename to match EXTERNAL MESSAGES parameter names
;
#X text 306 61 <----SYMBOL (parameter name) FLOAT (parameter value)
FLOAT (instance number);
#X text 408 488 <-----you will need one structure like this for each
parameter;
#X obj 185 555 s \$0-noise-lowpass-r;
#X obj 273 744 s \$0-noise-volume-r;
#X text 384 553 <-----rename to match receive symbol of each GUI element
;
#X obj 185 14 r quad-input-amplifier;
#X connect 0 0 27 0;
#X connect 1 0 23 0;
#X connect 2 0 14 0;
#X connect 3 0 2 0;
#X connect 4 0 3 1;
#X connect 5 0 4 0;
#X connect 6 0 1 0;
#X connect 7 0 8 0;
#X connect 8 0 6 0;
#X connect 9 0 0 0;
#X connect 10 0 11 0;
#X connect 10 1 9 1;
#X connect 11 0 9 0;
#X connect 12 0 13 0;
#X connect 12 1 8 1;
#X connect 12 2 3 0;
#X connect 13 0 7 0;
#X connect 14 0 1 1;
#X connect 14 1 15 0;
#X connect 16 0 11 1;
#X connect 17 0 28 0;
#X connect 18 0 17 0;
#X connect 19 0 20 0;
#X connect 19 1 18 1;
#X connect 20 0 18 0;
#X connect 21 0 20 1;
#X connect 23 0 10 0;
#X connect 23 1 19 0;
#X connect 30 0 12 0;
#X restore 123 518 pd external-messages;
#X text 94 469 STATE SAVING and EXTERNAL CONTROL STUFF;
#X text 117 489 Open each for details;
#X text 251 679 <---these are required but do not need to be changed
;
#X connect 0 0 89 0;
#X connect 1 0 2 0;
#X connect 1 0 3 0;
#X connect 3 0 4 0;
#X connect 3 1 5 0;
#X connect 4 0 22 0;
#X connect 5 0 22 0;
#X connect 8 0 17 0;
#X connect 9 0 10 0;
#X connect 9 0 8 1;
#X connect 11 0 12 0;
#X connect 12 0 13 0;
#X connect 12 0 15 0;
#X connect 14 0 20 0;
#X connect 14 1 37 0;
#X connect 14 2 54 0;
#X connect 14 3 71 0;
#X connect 15 0 16 0;
#X connect 16 0 17 1;
#X connect 17 0 6 0;
#X connect 17 0 85 0;
#X connect 18 0 19 0;
#X connect 19 0 15 0;
#X connect 20 0 8 0;
#X connect 21 0 20 1;
#X connect 22 0 21 0;
#X connect 24 0 25 0;
#X connect 24 1 26 0;
#X connect 25 0 39 0;
#X connect 26 0 39 0;
#X connect 29 0 30 0;
#X connect 30 0 31 0;
#X connect 30 0 32 0;
#X connect 32 0 33 0;
#X connect 33 0 34 1;
#X connect 34 0 82 0;
#X connect 34 0 86 0;
#X connect 35 0 36 0;
#X connect 36 0 32 0;
#X connect 37 0 119 0;
#X connect 38 0 37 1;
#X connect 39 0 38 0;
#X connect 41 0 42 0;
#X connect 41 1 43 0;
#X connect 42 0 56 0;
#X connect 43 0 56 0;
#X connect 46 0 47 0;
#X connect 47 0 48 0;
#X connect 47 0 49 0;
#X connect 49 0 50 0;
#X connect 50 0 51 1;
#X connect 51 0 83 0;
#X connect 51 0 85 0;
#X connect 52 0 53 0;
#X connect 53 0 49 0;
#X connect 54 0 120 0;
#X connect 55 0 54 1;
#X connect 56 0 55 0;
#X connect 58 0 59 0;
#X connect 58 1 60 0;
#X connect 59 0 73 0;
#X connect 60 0 73 0;
#X connect 63 0 64 0;
#X connect 64 0 65 0;
#X connect 64 0 66 0;
#X connect 66 0 67 0;
#X connect 67 0 68 1;
#X connect 68 0 84 0;
#X connect 68 0 86 0;
#X connect 69 0 70 0;
#X connect 70 0 66 0;
#X connect 71 0 121 0;
#X connect 72 0 71 1;
#X connect 73 0 72 0;
#X connect 74 0 23 0;
#X connect 74 0 24 0;
#X connect 75 0 28 0;
#X connect 75 0 119 1;
#X connect 76 0 40 0;
#X connect 76 0 41 0;
#X connect 77 0 45 0;
#X connect 77 0 120 1;
#X connect 78 0 92 0;
#X connect 79 0 93 0;
#X connect 80 0 62 0;
#X connect 80 0 121 1;
#X connect 81 0 57 0;
#X connect 81 0 58 0;
#X connect 89 0 11 0;
#X connect 89 0 88 0;
#X connect 89 0 97 0;
#X connect 90 0 29 0;
#X connect 90 0 100 0;
#X connect 91 0 90 0;
#X connect 92 0 46 0;
#X connect 92 0 103 0;
#X connect 93 0 63 0;
#X connect 93 0 106 0;
#X connect 119 0 34 0;
#X connect 120 0 51 0;
#X connect 121 0 68 0;
#X connect 137 0 139 0;
#X connect 139 0 140 0;
#X connect 140 0 138 0;
#X coords 0 -1 1 1 430 320 2 100 100;
