#N canvas 2391 -9 3200 1296 10;
#X declare -lib moonlib;
#X obj 530 109 cnv 5 5 5 empty \$0-instance-num 0 0 0 0 12 -262144
-66577 0;
#X text 958 29 CHANNEL 1;
#X floatatom 855 542 5 0 0 0 - - -;
#X obj 823 526 int;
#X msg 439 38 \; pd dsp 1;
#X msg 523 40 \; pd dsp 0;
#X obj 301 103 cnv 15 428 314 empty empty QUAD-UNIVERSAL-FILTER_3103
10 35 0 15 -228856 -66577 0;
#X obj 445 172 mknob 22 100 0 127 0 1 \$0-quf-type-1-s \$0-quf-type-1-r
M -12 20 0 12 -1 -262144 -1 3200 1;
#X obj 506 468 declare -lib moonlib;
#X text 314 105 A;
#X text 381 105 B;
#X text 466 104 1;
#X text 549 104 2;
#X text 634 104 3;
#X text 707 105 4;
#X text 310 400 A;
#X text 377 400 B;
#X text 462 399 1;
#X text 546 399 2;
#X text 631 399 3;
#X text 711 399 4;
#X floatatom 445 195 5 0 0 0 - #0-quf-typeNo-1-r #0-quf-typeNo-1-s
;
#X obj 16 25 inlet~ A;
#X obj 175 25 inlet~ B;
#X obj 859 52 inlet~ one;
#X obj 1403 45 inlet~ two;
#X obj 1917 53 inlet~ three;
#X obj 2428 58 inlet~ four;
#X obj 592 739 outlet~ A;
#X obj 750 740 outlet~ B;
#X obj 936 740 outlet~ one;
#X obj 1457 739 outlet~ two;
#X obj 1984 742 outlet~ three;
#X obj 2504 756 outlet~ four;
#N canvas -8 0 1825 1086 quad-filter_1 0;
#X obj 784 1062 outlet~;
#X obj 1251 41 inlet;
#X obj 759 771 *~;
#X floatatom 615 81 5 0 0 0 - - -;
#X obj 615 45 inlet;
#X obj 786 42 inlet~;
#X obj 914 41 inlet;
#X obj 1034 40 inlet;
#X floatatom 898 459 5 0 0 0 - - -;
#X floatatom 1105 559 5 0 0 0 - - -;
#X obj 852 479 sig~;
#X obj 687 36 == 1;
#X obj 760 559 *~;
#X obj 688 66 == 2;
#X obj 688 96 == 3;
#X obj 688 127 == 4;
#X obj 688 158 == 5;
#X text 777 15 signal;
#X text 902 13 frequency;
#X text 1054 14 Q;
#X obj 261 958 *~;
#X floatatom 415 666 5 0 0 0 - - -;
#X obj 196 611 sig~;
#X obj 88 685 *~;
#X obj 760 642 vcf~ 1;
#X obj 760 674 vcf~ 1;
#X obj 760 706 vcf~ 1;
#X obj 760 736 vcf~ 1;
#X obj 1064 626 t f f f f;
#X obj 783 1007 min~ 1;
#X obj 783 1029 max~ -1;
#X obj 125 798 vcf~ 1;
#X obj 159 830 vcf~ 1;
#X obj 192 862 vcf~ 1;
#X obj 226 892 vcf~ 1;
#X obj 415 782 t f f f f;
#X obj 197 646 lop~ 10;
#X obj 852 503 lop~ 10;
#X obj 260 922 lop~;
#X obj 1450 945 *~;
#X floatatom 1502 694 5 0 0 0 - - -;
#X obj 1372 719 *~;
#X floatatom 480 731 5 0 0 0 - - -;
#X obj 1450 890 hip~;
#X obj 1303 498 *~;
#X floatatom 1405 193 5 0 0 0 - - -;
#X obj 1360 196 sig~;
#X obj 1254 217 *~;
#X obj 1318 342 vcf~ 1;
#X obj 1318 374 vcf~ 1;
#X obj 1319 412 vcf~ 1;
#X obj 1360 223 lop~ 10;
#X obj 1303 468 -~;
#X floatatom 1678 267 5 0 0 0 - - -;
#X obj 1613 251 + 1;
#X obj 638 719 * -1;
#X obj 638 687 - 1;
#X obj 705 771 *~;
#X text 1251 13 bypass;
#X obj 1195 441 * -1;
#X obj 1195 409 - 1;
#X obj 1255 492 *~;
#X obj 1613 326 t f f f;
#X text 1151 313 crossfade logic;
#X obj -12 906 * -1;
#X obj -12 874 - 1;
#X obj 87 957 *~;
#X obj 705 733 *~ 0.4;
#X obj 1266 832 * -1;
#X obj 1266 800 - 1;
#X obj 1372 883 *~;
#X text 1256 752 crossfade logic;
#X text 1453 582 High-pass filter;
#X text 1417 109 Notch filter;
#X text 791 397 Band-pass filter;
#X text 33 543 Low-pass filter;
#X obj 688 191 == 6;
#X obj 542 452 *~;
#X text 585 330 Off-mode;
#X floatatom 241 97 5 0 0 0 - - -;
#X floatatom 509 167 5 0 0 0 - - -;
#X obj 195 111 sig~;
#X obj 116 149 *~;
#X obj 144 233 vcf~ 1;
#X obj 144 265 vcf~ 1;
#X obj 144 297 vcf~ 1;
#X obj 144 327 vcf~ 1;
#X obj 442 217 t f f f f;
#X obj 196 138 lop~ 10;
#X obj 442 128 * 2;
#X text 105 22 Ocsillator-mode;
#X obj 928 792 + 2;
#X obj 928 814 pack 0 50;
#X obj 928 836 line~;
#X floatatom 961 791 5 0 0 0 - - -;
#X obj 928 748 / 10;
#X obj 782 867 *~;
#X obj 928 769 * 3;
#X text 946 697 Gain compensation, f 14;
#X obj 1613 224 / 4;
#X obj 1127 40 inlet;
#X text 1127 15 Delta F;
#X obj 1382 305 +~;
#X obj 851 609 +~;
#X obj 204 763 +~;
#X obj 197 208 +~;
#X obj 1449 916 hip~;
#X obj 89 924 *~ 0.1;
#X obj 365 390 pack 0 50;
#X obj 365 412 line~;
#X floatatom 398 367 5 0 0 0 - - -;
#X obj 365 324 / 10;
#X obj 365 345 * 3;
#X text 364 279 Gain compensation;
#X obj 349 443 *~;
#X obj 365 368 + 1;
#X obj 442 151 + 4;
#X text 1334 435 subtracting the band-pass filtered signal from the
clean to make a notch-filter, f 29;
#X obj 415 690 / 4;
#X obj 415 715 + 1;
#X obj 758 798 *~ 0.4;
#X obj 144 362 *~;
#X obj 1254 467 *~ 0.8;
#X obj 1372 850 *~ 0.8;
#X obj 543 482 *~;
#X obj 586 451 * -1;
#X obj 586 426 - 1;
#X obj 1429 992 *~ 0.6;
#X obj 138 990 *~ 4;
#X obj 543 511 *~ 0.6;
#X obj 145 389 *~ 1;
#X obj 415 737 pack 0 50;
#X obj 415 760 line;
#X obj 442 172 pack 0 50;
#X obj 442 195 line;
#X obj 1064 579 pack 0 50;
#X obj 1064 604 line;
#X obj 1613 277 pack 0 50;
#X obj 1613 302 line;
#X obj 1303 528 *~ 0.4;
#X obj 1590 738 snapshot~;
#X obj 1518 789 t b f;
#X obj 1486 832 +;
#X obj 1550 702 bang~;
#X obj 852 557 +~;
#X obj 313 70 r~ \$0-quf-Abus;
#X obj 313 124 *~ 1000;
#X obj 1473 175 r~ \$0-quf-Abus;
#X obj 1473 229 *~ 1000;
#X obj 1591 649 r~ \$0-quf-Abus;
#X obj 1591 702 *~ 2000;
#X obj 937 487 r~ \$0-quf-Abus;
#X obj 937 541 *~ 1000;
#X obj 282 616 r~ \$0-quf-Abus;
#X obj 282 670 *~ 1000;
#X obj 203 692 +~;
#X obj 197 175 +~;
#X obj 1382 273 +~;
#X obj 1486 872 +;
#X floatatom 241 599 5 0 0 0 - - -;
#X obj 196 583 * 0.6;
#X text 11 153 feedback loop that creates a sinusoid, f 13;
#X text 740 141 1 Oscillator \; 2 Off \; 3 Notch filter \; 4 Low-pass
\; 5 Band-pass \; 6 High-pass, f 19;
#X text 649 616 crossfade logic, f 11;
#X text 967 453 Modulation from the bus, f 14;
#X text 324 37 Modulation from the bus, f 12;
#X text 1492 140 Modulation from the bus, f 14;
#X text 1591 614 Modulation from the bus, f 14;
#X text 292 584 Modulation from the bus, f 14;
#X text 472 88 Q;
#X text 1645 169 Q;
#X text 444 618 Q;
#X text 1076 516 Q;
#X text 198 59 Frequency;
#X text 195 535 Frequency;
#X text 1487 637 Frequency;
#X text 1358 147 Frequency;
#X text 850 424 Frequency;
#X text 1559 815 DeltaF-modulation;
#X text 237 717 DeltaF-modulation;
#X text 931 569 DeltaF-modulation;
#X text 256 162 DeltaF-modulation;
#X text 1444 260 DeltaF-modulation;
#X text -1 814 crossfade logic, f 11;
#X text 74 60 Signal;
#X text 71 618 Signal;
#X text 743 490 Signal;
#X text 1236 153 Signal;
#X text 1377 656 Signal;
#X obj 1000 289 snapshot~;
#X obj 991 250 bang~;
#X floatatom 1003 325 5 0 0 0 - - -;
#X obj 787 91 s~ \$0-quf-signal-1;
#X obj 66 81 r~ \$0-quf-signal-1;
#X obj 541 357 r~ \$0-quf-signal-1;
#X obj 64 637 r~ \$0-quf-signal-1;
#X obj 732 511 r~ \$0-quf-signal-1;
#X obj 1230 174 r~ \$0-quf-signal-1;
#X obj 1371 681 r~ \$0-quf-signal-1;
#X obj 914 89 s \$0-quf-freq-1;
#X obj 195 81 r \$0-quf-freq-1;
#X obj 334 98 r \$0-quf-freq-1;
#X obj 196 558 r \$0-quf-freq-1;
#X obj 307 643 r \$0-quf-freq-1;
#X obj 852 443 r \$0-quf-freq-1;
#X obj 966 514 r \$0-quf-freq-1;
#X obj 1360 167 r \$0-quf-freq-1;
#X obj 1495 202 r \$0-quf-freq-1;
#X obj 1486 662 r \$0-quf-freq-1;
#X obj 1607 676 r \$0-quf-freq-1;
#X obj 1034 87 s \$0-quf-q-1;
#X obj 442 105 r \$0-quf-q-1;
#X obj 365 302 r \$0-quf-q-1;
#X obj 415 641 r \$0-quf-q-1;
#X obj 1064 543 r \$0-quf-q-1;
#X obj 929 726 r \$0-quf-q-1;
#X obj 1613 200 r \$0-quf-q-1;
#X obj 1127 86 s \$0-quf-deltaF-1;
#X obj 253 181 r \$0-quf-deltaF-1;
#X obj 234 736 r \$0-quf-deltaF-1;
#X obj 931 587 r \$0-quf-deltaF-1;
#X obj 1441 279 r \$0-quf-deltaF-1;
#X obj 1551 837 r \$0-quf-deltaF-1;
#X obj 1251 85 s \$0-quf-bypass-1;
#X obj 216 342 r \$0-quf-bypass-1;
#X obj -12 847 r \$0-quf-bypass-1;
#X obj 327 942 r \$0-quf-bypass-1;
#X obj 586 401 r \$0-quf-bypass-1;
#X obj 624 652 r \$0-quf-bypass-1;
#X obj 809 755 r \$0-quf-bypass-1;
#X obj 1144 340 r \$0-quf-bypass-1;
#X obj 1266 773 r \$0-quf-bypass-1;
#X obj 1509 926 r \$0-quf-bypass-1;
#X obj -3 125 r~ \$0-quf-feedback-1;
#X obj 197 387 s~ \$0-quf-feedback-1;
#X connect 1 0 223 0;
#X connect 2 0 120 0;
#X connect 3 0 11 0;
#X connect 3 0 13 0;
#X connect 3 0 14 0;
#X connect 3 0 15 0;
#X connect 3 0 16 0;
#X connect 3 0 76 0;
#X connect 4 0 3 0;
#X connect 5 0 192 0;
#X connect 6 0 199 0;
#X connect 7 0 210 0;
#X connect 10 0 37 0;
#X connect 11 0 82 1;
#X connect 12 0 24 0;
#X connect 12 0 67 0;
#X connect 13 0 77 1;
#X connect 14 0 47 1;
#X connect 15 0 23 1;
#X connect 16 0 12 1;
#X connect 20 0 128 0;
#X connect 21 0 118 0;
#X connect 22 0 36 0;
#X connect 23 0 31 0;
#X connect 23 0 107 0;
#X connect 24 0 25 0;
#X connect 25 0 26 0;
#X connect 26 0 27 0;
#X connect 27 0 2 0;
#X connect 28 0 24 2;
#X connect 28 1 25 2;
#X connect 28 2 26 2;
#X connect 28 3 27 2;
#X connect 29 0 30 0;
#X connect 30 0 0 0;
#X connect 31 1 32 0;
#X connect 32 1 33 0;
#X connect 33 1 34 0;
#X connect 34 1 38 0;
#X connect 35 0 31 2;
#X connect 35 1 32 2;
#X connect 35 2 33 2;
#X connect 35 3 34 2;
#X connect 36 0 155 0;
#X connect 37 0 144 0;
#X connect 38 0 20 0;
#X connect 39 0 127 0;
#X connect 41 0 43 0;
#X connect 41 0 123 0;
#X connect 43 0 106 0;
#X connect 44 0 139 0;
#X connect 46 0 51 0;
#X connect 47 0 48 0;
#X connect 47 0 52 0;
#X connect 47 0 122 0;
#X connect 48 0 49 0;
#X connect 49 0 50 0;
#X connect 50 0 52 1;
#X connect 51 0 157 0;
#X connect 52 0 44 0;
#X connect 54 0 53 0;
#X connect 54 0 137 0;
#X connect 55 0 57 1;
#X connect 56 0 55 0;
#X connect 57 0 120 0;
#X connect 59 0 61 1;
#X connect 60 0 59 0;
#X connect 61 0 139 0;
#X connect 62 0 48 2;
#X connect 62 1 49 2;
#X connect 62 2 50 2;
#X connect 64 0 66 1;
#X connect 65 0 64 0;
#X connect 66 0 128 0;
#X connect 67 0 57 0;
#X connect 68 0 70 1;
#X connect 69 0 68 0;
#X connect 70 0 127 0;
#X connect 76 0 41 1;
#X connect 77 0 124 0;
#X connect 81 0 88 0;
#X connect 82 0 83 0;
#X connect 83 0 84 0;
#X connect 84 0 85 0;
#X connect 85 0 86 0;
#X connect 86 0 121 0;
#X connect 87 0 83 2;
#X connect 87 1 84 2;
#X connect 87 2 85 2;
#X connect 87 3 86 2;
#X connect 88 0 156 0;
#X connect 89 0 116 0;
#X connect 91 0 92 0;
#X connect 91 0 94 0;
#X connect 92 0 93 0;
#X connect 93 0 96 1;
#X connect 95 0 97 0;
#X connect 96 0 29 0;
#X connect 97 0 91 0;
#X connect 99 0 54 0;
#X connect 100 0 217 0;
#X connect 102 0 48 1;
#X connect 102 0 49 1;
#X connect 102 0 50 1;
#X connect 103 0 24 1;
#X connect 103 0 25 1;
#X connect 103 0 26 1;
#X connect 103 0 27 1;
#X connect 104 0 31 1;
#X connect 104 0 32 1;
#X connect 104 0 33 1;
#X connect 104 0 34 1;
#X connect 105 0 83 1;
#X connect 105 0 84 1;
#X connect 105 0 85 1;
#X connect 105 0 86 1;
#X connect 106 0 39 0;
#X connect 107 0 66 0;
#X connect 108 0 109 0;
#X connect 109 0 114 1;
#X connect 111 0 112 0;
#X connect 112 0 115 0;
#X connect 114 0 29 0;
#X connect 115 0 108 0;
#X connect 115 0 110 0;
#X connect 116 0 80 0;
#X connect 116 0 133 0;
#X connect 118 0 119 0;
#X connect 119 0 42 0;
#X connect 119 0 131 0;
#X connect 120 0 96 0;
#X connect 121 0 130 0;
#X connect 121 0 234 0;
#X connect 122 0 61 0;
#X connect 123 0 70 0;
#X connect 124 0 129 0;
#X connect 125 0 124 1;
#X connect 126 0 125 0;
#X connect 127 0 29 0;
#X connect 128 0 29 0;
#X connect 129 0 29 0;
#X connect 130 0 114 0;
#X connect 131 0 132 0;
#X connect 132 0 35 0;
#X connect 133 0 134 0;
#X connect 134 0 87 0;
#X connect 135 0 136 0;
#X connect 136 0 28 0;
#X connect 137 0 138 0;
#X connect 138 0 62 0;
#X connect 139 0 29 0;
#X connect 140 0 141 0;
#X connect 141 0 142 0;
#X connect 141 1 142 1;
#X connect 142 0 158 0;
#X connect 143 0 140 0;
#X connect 144 0 103 0;
#X connect 145 0 146 0;
#X connect 146 0 156 1;
#X connect 147 0 148 0;
#X connect 148 0 157 1;
#X connect 149 0 150 0;
#X connect 150 0 140 0;
#X connect 151 0 152 0;
#X connect 152 0 144 1;
#X connect 153 0 154 0;
#X connect 154 0 155 1;
#X connect 155 0 104 0;
#X connect 156 0 105 0;
#X connect 157 0 102 0;
#X connect 158 0 43 1;
#X connect 158 0 106 1;
#X connect 160 0 159 0;
#X connect 160 0 22 0;
#X connect 160 0 38 1;
#X connect 189 0 191 0;
#X connect 190 0 189 0;
#X connect 193 0 82 0;
#X connect 194 0 77 0;
#X connect 195 0 23 0;
#X connect 196 0 12 0;
#X connect 197 0 47 0;
#X connect 198 0 41 0;
#X connect 200 0 79 0;
#X connect 200 0 81 0;
#X connect 201 0 146 1;
#X connect 202 0 160 0;
#X connect 203 0 154 1;
#X connect 204 0 8 0;
#X connect 204 0 10 0;
#X connect 205 0 152 1;
#X connect 206 0 45 0;
#X connect 206 0 46 0;
#X connect 207 0 148 1;
#X connect 208 0 40 0;
#X connect 208 0 142 0;
#X connect 209 0 150 1;
#X connect 211 0 89 0;
#X connect 212 0 111 0;
#X connect 213 0 21 0;
#X connect 214 0 9 0;
#X connect 214 0 135 0;
#X connect 215 0 95 0;
#X connect 216 0 99 0;
#X connect 218 0 105 1;
#X connect 219 0 104 1;
#X connect 220 0 103 1;
#X connect 221 0 102 1;
#X connect 222 0 158 1;
#X connect 224 0 121 1;
#X connect 225 0 65 0;
#X connect 226 0 20 1;
#X connect 227 0 126 0;
#X connect 228 0 56 0;
#X connect 229 0 2 1;
#X connect 230 0 60 0;
#X connect 230 0 44 1;
#X connect 231 0 69 0;
#X connect 232 0 39 1;
#X connect 233 0 82 0;
#X restore 935 628 pd quad-filter_1;
#X obj 17 387 s~ \$0-quf-Abus;
#X obj 173 386 s~ \$0-quf-Bbus;
#X obj 49 243 *~;
#X obj 329 245 vradio 12 1 1 3 \$0-quf-Abus-toggle-s \$0-quf-Abus-toggle-r
A 0 -12 0 15 -262144 -1 -1 2;
#X obj 328 324 vradio 12 1 1 3 \$0-quf-Bbus-toggle-s \$0-quf-Bbus-toggle-r
B 0 -12 0 15 -262144 -1 -1 2;
#X obj 16 244 *~;
#X text 345 235 1 \, 2;
#X text 345 316 3 \, 4;
#X obj 810 429 r \$0-quf-type-1-s;
#X obj 445 219 mknob 22 100 1 127 1 1 \$0-quf-q-1-s \$0-quf-q-1-r Q
-12 20 0 12 -1 -262144 -1 5000 1;
#X obj 445 261 mknob 22 100 0 127 0 1 \$0-quf-freq-1-s \$0-quf-freq-1-r
F -12 20 0 12 -1 -262144 -1 0 1;
#X obj 446 304 mknob 22 100 0 127 0 1 \$0-quf-deltaF-1-s \$0-quf-deltaF-1-r
DF -16 20 0 12 -1 -262144 -1 5000 1;
#X obj 446 350 mknob 22 100 0 127 0 1 \$0-quf-bypass-1-s \$0-quf-bypass-1-r
Off-Lev -44 20 0 10 -258113 -262144 -1 9900 1;
#X obj 1045 148 r \$0-quf-q-1-s;
#X obj 930 276 r \$0-quf-freq-1-s;
#X obj 1155 208 r \$0-quf-deltaF-1-s;
#X obj 1081 542 r \$0-quf-bypass-1-s;
#X text 308 190 Ext._ Freq_ Control, f 1;
#X obj 1081 566 / 127;
#X obj 1045 175 / 127;
#X obj 1045 200 * 10;
#X obj 1045 223 + 0.7;
#X text 1080 523 Bypass;
#X text 1046 128 Q-value;
#X text 942 252 Frequency;
#X text 816 405 Filter Type;
#X obj 930 314 / 127;
#X floatatom 975 330 5 0 0 0 - - -;
#X obj 823 452 / 127;
#X obj 823 476 * 5;
#X obj 823 501 + 1;
#X floatatom 51 71 5 0 0 0 - - -;
#X obj 51 100 sel 0 1 2;
#X msg 81 190 1;
#X msg 51 190 0;
#X msg 80 151 1;
#X msg 85 129 0;
#X msg 114 129 1;
#X text 345 255 Both;
#X text 344 334 Both;
#X text 344 273 Through;
#X text 343 353 Through;
#X obj 207 246 *~;
#X obj 174 247 *~;
#X floatatom 237 72 5 0 0 0 - - -;
#X obj 209 98 sel 0 1 2;
#X msg 239 193 1;
#X msg 209 193 0;
#X msg 238 154 1;
#X msg 244 132 0;
#X msg 271 132 1;
#X obj 1086 307 env~;
#X floatatom 1107 355 5 0 0 0 - - -;
#X obj 1086 333 dbtorms;
#X obj 1155 234 / 127;
#X obj 1155 419 pack 0 50;
#X obj 1155 391 t f f;
#X text 1175 177 Delta F;
#X floatatom 1203 381 5 0 0 0 - - -;
#X obj 1155 260 * 2;
#X obj 1155 286 - 1;
#X obj 1086 399 *;
#X floatatom 1113 415 5 0 0 0 - - -;
#X obj 1086 463 *;
#X obj 1155 447 line;
#X floatatom 1119 479 5 0 0 0 - - -;
#X obj 1155 310 moses 0;
#X obj 1155 333 / 2;
#X obj 1155 365 * 1;
#X obj 32 51 r \$0-quf-Abus-toggle-s;
#X obj 209 52 r \$0-quf-Bbus-toggle-s;
#X obj 930 372 mtof;
#X obj 930 347 * 120;
#X obj 1081 589 pack 0 50;
#X obj 1081 611 line;
#X text 48 703 Delta F;
#X text 41 620 Frequency;
#X text 50 810 Bypass / Off-lev knob;
#X text 21 829 The Off-Lev knob governs the amount of raw unfiltered
signal going through to the output. One exception is the Osc-mode where
the knob act as volume., f 47;
#X obj 528 172 mknob 22 100 0 127 0 1 \$0-quf-type-2-s \$0-quf-type-2-r
M -12 20 0 12 -1 -262144 -1 3000 1;
#X floatatom 528 195 5 0 0 0 - #0-quf-typeNo-2-r #0-quf-typeNo-2-s
;
#X obj 528 219 mknob 22 100 1 127 1 1 \$0-quf-q-2-s \$0-quf-q-2-r Q
-12 20 0 12 -1 -262144 -1 5100 1;
#X obj 528 261 mknob 22 100 0 127 0 1 \$0-quf-freq-2-s \$0-quf-freq-2-r
F -12 20 0 12 -1 -262144 -1 0 1;
#X obj 529 304 mknob 22 100 0 127 0 1 \$0-quf-deltaF-2-s \$0-quf-deltaF-2-r
DF -16 20 0 12 -1 -262144 -1 5000 1;
#X obj 529 350 mknob 22 100 0 127 0 1 \$0-quf-bypass-2-s \$0-quf-bypass-2-r
Off-Lev -44 20 0 10 -258113 -262144 -1 9900 1;
#X obj 608 171 mknob 22 100 0 127 0 1 \$0-quf-type-3-s \$0-quf-type-3-r
M -12 20 0 12 -1 -262144 -1 2600 1;
#X floatatom 608 194 5 0 0 0 - #0-quf-typeNo-3-r #0-quf-typeNo-3-s
;
#X obj 608 218 mknob 22 100 1 127 1 1 \$0-quf-q-3-s \$0-quf-q-3-r Q
-12 20 0 12 -1 -262144 -1 5000 1;
#X obj 608 260 mknob 22 100 0 127 0 1 \$0-quf-freq-3-s \$0-quf-freq-3-r
F -12 20 0 12 -1 -262144 -1 0 1;
#X obj 609 303 mknob 22 100 0 127 0 1 \$0-quf-deltaF-3-s \$0-quf-deltaF-3-r
DF -16 20 0 12 -1 -262144 -1 5000 1;
#X obj 609 349 mknob 22 100 0 127 0 1 \$0-quf-bypass-3-s \$0-quf-bypass-3-r
Off-Lev -44 20 0 10 -258113 -262144 -1 9900 1;
#X obj 686 171 mknob 22 100 0 127 0 1 \$0-quf-type-4-s \$0-quf-type-4-r
M -12 20 0 12 -1 -262144 -1 3000 1;
#X floatatom 686 194 5 0 0 0 - #0-quf-typeNo-4-r #0-quf-typeNo-4-s
;
#X obj 686 218 mknob 22 100 1 127 1 1 \$0-quf-q-4-s \$0-quf-q-4-r Q
-12 20 0 12 -1 -262144 -1 5100 1;
#X obj 686 260 mknob 22 100 0 127 0 1 \$0-quf-freq-4-s \$0-quf-freq-4-r
F -12 20 0 12 -1 -262144 -1 0 1;
#X obj 687 303 mknob 22 100 0 127 0 1 \$0-quf-deltaF-4-s \$0-quf-deltaF-4-r
DF -16 20 0 12 -1 -262144 -1 5100 1;
#X obj 687 349 mknob 22 100 0 127 0 1 \$0-quf-bypass-4-s \$0-quf-bypass-4-r
Off-Lev -44 20 0 10 -258113 -262144 -1 9900 1;
#X text 354 147 1 Osc______ \; 2 Off______ \; 3 Notch____ \; 4 Low-pass_
\; 5 Band-pass \; 6 High-pass \;, f 14;
#X floatatom 1374 541 5 0 0 0 - - -;
#X obj 1342 525 int;
#X obj 1602 565 / 127;
#X obj 1566 174 / 127;
#X obj 1566 199 * 10;
#X obj 1566 222 + 0.7;
#X text 1601 522 Bypass;
#X text 1567 127 Q-value;
#X text 1463 251 Frequency;
#X text 1335 404 Filter Type;
#X obj 1451 313 / 127;
#X floatatom 1496 329 5 0 0 0 - - -;
#X obj 1342 451 / 127;
#X obj 1342 475 * 5;
#X obj 1342 500 + 1;
#X obj 1607 306 env~;
#X floatatom 1628 354 5 0 0 0 - - -;
#X obj 1607 332 dbtorms;
#X obj 1676 233 / 127;
#X obj 1676 418 pack 0 50;
#X obj 1676 390 t f f;
#X text 1696 176 Delta F;
#X floatatom 1724 380 5 0 0 0 - - -;
#X obj 1676 259 * 2;
#X obj 1676 285 - 1;
#X obj 1607 398 *;
#X floatatom 1634 414 5 0 0 0 - - -;
#X obj 1607 462 *;
#X obj 1676 446 line;
#X floatatom 1640 478 5 0 0 0 - - -;
#X obj 1676 309 moses 0;
#X obj 1676 332 / 2;
#X obj 1676 364 * 1;
#X obj 1451 371 mtof;
#X obj 1451 346 * 120;
#X obj 1602 588 pack 0 50;
#X obj 1602 610 line;
#X floatatom 1906 551 5 0 0 0 - - -;
#X obj 1874 535 int;
#X obj 2130 575 / 127;
#X obj 2094 184 / 127;
#X obj 2094 209 * 10;
#X obj 2094 232 + 0.7;
#X text 2129 532 Bypass;
#X text 2095 137 Q-value;
#X text 1997 257 Frequency;
#X text 1867 414 Filter Type;
#X obj 1985 319 / 127;
#X floatatom 2030 335 5 0 0 0 - - -;
#X obj 1874 461 / 127;
#X obj 1874 485 * 5;
#X obj 1874 510 + 1;
#X obj 2135 316 env~;
#X floatatom 2156 364 5 0 0 0 - - -;
#X obj 2135 342 dbtorms;
#X obj 2204 243 / 127;
#X obj 2204 428 pack 0 50;
#X obj 2204 400 t f f;
#X text 2224 186 Delta F;
#X floatatom 2252 390 5 0 0 0 - - -;
#X obj 2204 269 * 2;
#X obj 2204 295 - 1;
#X obj 2135 408 *;
#X floatatom 2162 424 5 0 0 0 - - -;
#X obj 2135 472 *;
#X obj 2204 456 line;
#X floatatom 2168 488 5 0 0 0 - - -;
#X obj 2204 319 moses 0;
#X obj 2204 342 / 2;
#X obj 2204 374 * 1;
#X obj 1985 377 mtof;
#X obj 1985 352 * 120;
#X obj 2130 598 pack 0 50;
#X obj 2130 620 line;
#X floatatom 2422 558 5 0 0 0 - - -;
#X obj 2390 542 int;
#X obj 2649 582 / 127;
#X obj 2613 191 / 127;
#X obj 2613 216 * 10;
#X obj 2613 239 + 0.7;
#X text 2648 539 Bypass;
#X text 2614 144 Q-value;
#X text 2510 268 Frequency;
#X text 2383 421 Filter Type;
#X obj 2498 330 / 127;
#X floatatom 2543 346 5 0 0 0 - - -;
#X obj 2390 468 / 127;
#X obj 2390 492 * 5;
#X obj 2390 517 + 1;
#X obj 2654 323 env~;
#X floatatom 2675 371 5 0 0 0 - - -;
#X obj 2654 349 dbtorms;
#X obj 2723 250 / 127;
#X obj 2723 435 pack 0 50;
#X obj 2723 407 t f f;
#X text 2743 193 Delta F;
#X floatatom 2771 397 5 0 0 0 - - -;
#X obj 2723 276 * 2;
#X obj 2723 302 - 1;
#X obj 2654 415 *;
#X floatatom 2681 431 5 0 0 0 - - -;
#X obj 2654 479 *;
#X obj 2723 463 line;
#X floatatom 2687 495 5 0 0 0 - - -;
#X obj 2723 326 moses 0;
#X obj 2723 349 / 2;
#X obj 2723 381 * 1;
#X obj 2498 388 mtof;
#X obj 2498 363 * 120;
#X obj 2649 605 pack 0 50;
#X obj 2649 627 line;
#X obj 1566 146 r \$0-quf-q-2-s;
#X obj 1676 207 r \$0-quf-deltaF-2-s;
#X obj 1602 541 r \$0-quf-bypass-2-s;
#N canvas -9 -9 1920 1096 quad-filter_2 0;
#X obj 784 1062 outlet~;
#X obj 1266 41 inlet;
#X obj 748 772 *~;
#X floatatom 594 81 5 0 0 0 - - -;
#X obj 594 45 inlet;
#X obj 769 42 inlet~;
#X obj 909 41 inlet;
#X obj 1029 40 inlet;
#X floatatom 892 460 5 0 0 0 - - -;
#X floatatom 1094 560 5 0 0 0 - - -;
#X obj 846 480 sig~;
#X obj 666 36 == 1;
#X obj 749 560 *~;
#X obj 667 66 == 2;
#X obj 667 96 == 3;
#X obj 667 127 == 4;
#X obj 667 158 == 5;
#X text 760 15 signal;
#X text 897 13 frequency;
#X text 1049 14 Q;
#X obj 261 958 *~;
#X floatatom 407 666 5 0 0 0 - - -;
#X obj 194 611 sig~;
#X obj 104 685 *~;
#X obj 749 643 vcf~ 1;
#X obj 749 675 vcf~ 1;
#X obj 749 707 vcf~ 1;
#X obj 749 737 vcf~ 1;
#X obj 1051 627 t f f f f;
#X obj 783 1007 min~ 1;
#X obj 783 1029 max~ -1;
#X obj 125 798 vcf~ 1;
#X obj 159 830 vcf~ 1;
#X obj 192 862 vcf~ 1;
#X obj 226 892 vcf~ 1;
#X obj 407 782 t f f f f;
#X obj 195 646 lop~ 10;
#X obj 846 504 lop~ 10;
#X obj 260 922 lop~;
#X obj 1450 945 *~;
#X floatatom 1485 694 5 0 0 0 - - -;
#X obj 1372 719 *~;
#X floatatom 472 731 5 0 0 0 - - -;
#X obj 1450 890 hip~;
#X obj 1303 505 *~;
#X floatatom 1405 200 5 0 0 0 - - -;
#X obj 1360 210 sig~;
#X obj 1254 224 *~;
#X obj 1318 349 vcf~ 1;
#X obj 1318 381 vcf~ 1;
#X obj 1319 419 vcf~ 1;
#X obj 1360 237 lop~ 10;
#X obj 1303 475 -~;
#X floatatom 1679 274 5 0 0 0 - - -;
#X obj 1614 258 + 1;
#X obj 614 719 * -1;
#X obj 614 688 - 1;
#X obj 693 772 *~;
#X text 1266 13 bypass;
#X obj 1195 448 * -1;
#X obj 1195 416 - 1;
#X obj 1255 499 *~;
#X obj 1614 333 t f f f;
#X text 1133 320 crossfade logic;
#X obj -6 906 * -1;
#X obj -6 874 - 1;
#X obj 104 957 *~;
#X obj 693 734 *~ 0.4;
#X obj 1266 832 * -1;
#X obj 1266 800 - 1;
#X obj 1372 883 *~;
#X text 1256 752 crossfade logic;
#X text 1497 571 High-pass filter;
#X text 1417 116 Notch filter;
#X text 766 397 Band-pass filter;
#X text 33 543 Low-pass filter;
#X obj 667 191 == 6;
#X obj 542 452 *~;
#X text 585 330 Off-mode;
#X floatatom 251 97 5 0 0 0 - - -;
#X floatatom 511 167 5 0 0 0 - - -;
#X obj 205 111 sig~;
#X obj 116 149 *~;
#X obj 144 233 vcf~ 1;
#X obj 144 265 vcf~ 1;
#X obj 144 297 vcf~ 1;
#X obj 144 327 vcf~ 1;
#X obj 444 217 t f f f f;
#X obj 206 138 lop~ 10;
#X obj 444 128 * 2;
#X text 105 22 Ocsillator-mode;
#X obj 914 791 + 2;
#X obj 914 813 pack 0 50;
#X obj 914 835 line~;
#X floatatom 947 790 5 0 0 0 - - -;
#X obj 914 747 / 10;
#X obj 784 851 *~;
#X obj 914 768 * 3;
#X text 932 696 Gain compensation, f 14;
#X obj 1614 231 / 4;
#X obj 1142 40 inlet;
#X text 1142 15 Delta F;
#X obj 1382 312 +~;
#X obj 845 610 +~;
#X obj 204 763 +~;
#X obj 207 208 +~;
#X obj 1449 916 hip~;
#X obj 105 924 *~ 0.1;
#X obj 365 390 pack 0 50;
#X obj 365 412 line~;
#X floatatom 398 367 5 0 0 0 - - -;
#X obj 365 324 / 10;
#X obj 365 345 * 3;
#X text 364 279 Gain compensation;
#X obj 349 441 *~;
#X obj 365 368 + 1;
#X obj 444 151 + 4;
#X text 1334 442 subtracting the band-pass filtered signal from the
clean to make a notch-filter, f 29;
#X obj 407 690 / 4;
#X obj 407 715 + 1;
#X obj 747 799 *~ 0.4;
#X obj 144 362 *~;
#X obj 1254 474 *~ 0.8;
#X obj 1372 850 *~ 0.8;
#X obj 543 482 *~;
#X obj 586 451 * -1;
#X obj 586 426 - 1;
#X obj 1429 992 *~ 0.6;
#X obj 138 990 *~ 4;
#X obj 543 511 *~ 0.6;
#X obj 145 389 *~ 1;
#X obj 407 737 pack 0 50;
#X obj 407 760 line;
#X obj 444 172 pack 0 50;
#X obj 444 195 line;
#X obj 1051 580 pack 0 50;
#X obj 1051 605 line;
#X obj 1614 284 pack 0 50;
#X obj 1614 309 line;
#X obj 1303 535 *~ 0.4;
#X obj 1570 755 snapshot~;
#X obj 1518 789 t b f;
#X obj 1486 832 +;
#X obj 1546 701 bang~;
#X obj 846 558 +~;
#X obj 313 124 *~ 1000;
#X obj 1477 236 *~ 1000;
#X obj 1591 702 *~ 2000;
#X obj 933 541 *~ 1000;
#X obj 286 670 *~ 1000;
#X obj 203 692 +~;
#X obj 207 175 +~;
#X obj 1382 280 +~;
#X obj 1486 872 +;
#X floatatom 239 599 5 0 0 0 - - -;
#X obj 194 583 * 0.6;
#X text 15 153 feedback loop that creates a sinusoid, f 13;
#X text 719 141 1 Oscillator \; 2 Off \; 3 Notch filter \; 4 Low-pass
\; 5 Band-pass \; 6 High-pass, f 19;
#X text 625 617 crossfade logic, f 11;
#X text 963 453 Modulation from the bus, f 14;
#X text 324 37 Modulation from the bus, f 12;
#X text 1496 147 Modulation from the bus, f 14;
#X text 1591 614 Modulation from the bus, f 14;
#X text 296 584 Modulation from the bus, f 14;
#X text 474 88 Q;
#X text 1646 176 Q;
#X text 436 618 Q;
#X text 1083 521 Q;
#X text 208 59 Frequency;
#X text 193 535 Frequency;
#X text 1470 637 Frequency;
#X text 1358 154 Frequency;
#X text 844 425 Frequency;
#X text 1559 815 DeltaF-modulation;
#X text 237 717 DeltaF-modulation;
#X text 920 570 DeltaF-modulation;
#X text 267 163 DeltaF-modulation;
#X text 1448 270 DeltaF-modulation;
#X text -1 814 crossfade logic, f 11;
#X text 85 60 Signal;
#X text 69 618 Signal;
#X text 731 491 Signal;
#X text 1230 160 Signal;
#X text 1377 656 Signal;
#X obj 1477 182 r~ \$0-quf-Abus;
#X obj 1591 649 r~ \$0-quf-Abus;
#X obj 933 487 r~ \$0-quf-Abus;
#X obj 313 70 r~ \$0-quf-Abus;
#X obj 286 615 r~ \$0-quf-Abus;
#X obj 770 91 s~ \$0-quf-signal-2;
#X obj 77 81 r~ \$0-quf-signal-2;
#X obj 62 637 r~ \$0-quf-signal-2;
#X obj 541 357 r~ \$0-quf-signal-2;
#X obj 720 512 r~ \$0-quf-signal-2;
#X obj 1224 181 r~ \$0-quf-signal-2;
#X obj 1372 681 r~ \$0-quf-signal-2;
#X obj 909 88 s \$0-quf-freq-2;
#X obj 205 81 r \$0-quf-freq-2;
#X obj 337 98 r \$0-quf-freq-2;
#X obj 196 558 r \$0-quf-freq-2;
#X obj 301 643 r \$0-quf-freq-2;
#X obj 846 444 r \$0-quf-freq-2;
#X obj 957 514 r \$0-quf-freq-2;
#X obj 1360 174 r \$0-quf-freq-2;
#X obj 1499 209 r \$0-quf-freq-2;
#X obj 1469 662 r \$0-quf-freq-2;
#X obj 1630 675 r \$0-quf-freq-2;
#X obj 1029 86 s \$0-quf-q-2;
#X obj 444 105 r \$0-quf-q-2;
#X obj 365 302 r \$0-quf-q-2;
#X obj 407 641 r \$0-quf-q-2;
#X obj 1051 544 r \$0-quf-q-2;
#X obj 914 725 r \$0-quf-q-2;
#X obj 1614 207 r \$0-quf-q-2;
#X obj 1142 86 s \$0-quf-deltaF-2;
#X obj 264 182 r \$0-quf-deltaF-2;
#X obj 236 736 r \$0-quf-deltaF-2;
#X obj 919 588 r \$0-quf-deltaF-2;
#X obj 1445 290 r \$0-quf-deltaF-2;
#X obj 1551 837 r \$0-quf-deltaF-2;
#X obj 1266 85 s \$0-quf-bypass-2;
#X obj 215 344 r \$0-quf-bypass-2;
#X obj -7 847 r \$0-quf-bypass-2;
#X obj 327 942 r \$0-quf-bypass-2;
#X obj 614 653 r \$0-quf-bypass-2;
#X obj 796 754 r \$0-quf-bypass-2;
#X obj 586 401 r \$0-quf-bypass-2;
#X obj 1146 352 r \$0-quf-bypass-2;
#X obj 1268 772 r \$0-quf-bypass-2;
#X obj 1509 926 r \$0-quf-bypass-2;
#X obj 1 125 r~ \$0-quf-feedback-2;
#X obj 197 387 s~ \$0-quf-feedback-2;
#X connect 1 0 220 0;
#X connect 2 0 120 0;
#X connect 3 0 11 0;
#X connect 3 0 13 0;
#X connect 3 0 14 0;
#X connect 3 0 15 0;
#X connect 3 0 16 0;
#X connect 3 0 76 0;
#X connect 4 0 3 0;
#X connect 5 0 189 0;
#X connect 6 0 196 0;
#X connect 7 0 207 0;
#X connect 10 0 37 0;
#X connect 11 0 82 1;
#X connect 12 0 24 0;
#X connect 12 0 67 0;
#X connect 13 0 77 1;
#X connect 14 0 47 1;
#X connect 15 0 23 1;
#X connect 16 0 12 1;
#X connect 20 0 128 0;
#X connect 21 0 118 0;
#X connect 22 0 36 0;
#X connect 23 0 31 0;
#X connect 23 0 107 0;
#X connect 24 0 25 0;
#X connect 25 0 26 0;
#X connect 26 0 27 0;
#X connect 27 0 2 0;
#X connect 28 0 24 2;
#X connect 28 1 25 2;
#X connect 28 2 26 2;
#X connect 28 3 27 2;
#X connect 29 0 30 0;
#X connect 30 0 0 0;
#X connect 31 1 32 0;
#X connect 32 1 33 0;
#X connect 33 1 34 0;
#X connect 34 1 38 0;
#X connect 35 0 31 2;
#X connect 35 1 32 2;
#X connect 35 2 33 2;
#X connect 35 3 34 2;
#X connect 36 0 150 0;
#X connect 37 0 144 0;
#X connect 38 0 20 0;
#X connect 39 0 127 0;
#X connect 41 0 43 0;
#X connect 41 0 123 0;
#X connect 43 0 106 0;
#X connect 44 0 139 0;
#X connect 46 0 51 0;
#X connect 47 0 48 0;
#X connect 47 0 52 0;
#X connect 47 0 122 0;
#X connect 48 0 49 0;
#X connect 49 0 50 0;
#X connect 50 0 52 1;
#X connect 51 0 152 0;
#X connect 52 0 44 0;
#X connect 54 0 53 0;
#X connect 54 0 137 0;
#X connect 55 0 57 1;
#X connect 56 0 55 0;
#X connect 57 0 120 0;
#X connect 59 0 61 1;
#X connect 60 0 59 0;
#X connect 61 0 139 0;
#X connect 62 0 48 2;
#X connect 62 1 49 2;
#X connect 62 2 50 2;
#X connect 64 0 66 1;
#X connect 65 0 64 0;
#X connect 66 0 128 0;
#X connect 67 0 57 0;
#X connect 68 0 70 1;
#X connect 69 0 68 0;
#X connect 70 0 127 0;
#X connect 76 0 41 1;
#X connect 77 0 124 0;
#X connect 81 0 88 0;
#X connect 82 0 83 0;
#X connect 83 0 84 0;
#X connect 84 0 85 0;
#X connect 85 0 86 0;
#X connect 86 0 121 0;
#X connect 87 0 83 2;
#X connect 87 1 84 2;
#X connect 87 2 85 2;
#X connect 87 3 86 2;
#X connect 88 0 151 0;
#X connect 89 0 116 0;
#X connect 91 0 92 0;
#X connect 91 0 94 0;
#X connect 92 0 93 0;
#X connect 93 0 96 1;
#X connect 95 0 97 0;
#X connect 96 0 29 0;
#X connect 97 0 91 0;
#X connect 99 0 54 0;
#X connect 100 0 214 0;
#X connect 102 0 48 1;
#X connect 102 0 49 1;
#X connect 102 0 50 1;
#X connect 103 0 24 1;
#X connect 103 0 25 1;
#X connect 103 0 26 1;
#X connect 103 0 27 1;
#X connect 104 0 31 1;
#X connect 104 0 32 1;
#X connect 104 0 33 1;
#X connect 104 0 34 1;
#X connect 105 0 83 1;
#X connect 105 0 84 1;
#X connect 105 0 85 1;
#X connect 105 0 86 1;
#X connect 106 0 39 0;
#X connect 107 0 66 0;
#X connect 108 0 109 0;
#X connect 109 0 114 1;
#X connect 111 0 112 0;
#X connect 112 0 115 0;
#X connect 114 0 29 0;
#X connect 115 0 108 0;
#X connect 115 0 110 0;
#X connect 116 0 80 0;
#X connect 116 0 133 0;
#X connect 118 0 119 0;
#X connect 119 0 42 0;
#X connect 119 0 131 0;
#X connect 120 0 96 0;
#X connect 121 0 130 0;
#X connect 121 0 231 0;
#X connect 122 0 61 0;
#X connect 123 0 70 0;
#X connect 124 0 129 0;
#X connect 125 0 124 1;
#X connect 126 0 125 0;
#X connect 127 0 29 0;
#X connect 128 0 29 0;
#X connect 129 0 29 0;
#X connect 130 0 114 0;
#X connect 131 0 132 0;
#X connect 132 0 35 0;
#X connect 133 0 134 0;
#X connect 134 0 87 0;
#X connect 135 0 136 0;
#X connect 136 0 28 0;
#X connect 137 0 138 0;
#X connect 138 0 62 0;
#X connect 139 0 29 0;
#X connect 140 0 141 0;
#X connect 141 0 142 0;
#X connect 141 1 142 1;
#X connect 142 0 153 0;
#X connect 143 0 140 0;
#X connect 144 0 103 0;
#X connect 145 0 151 1;
#X connect 146 0 152 1;
#X connect 147 0 140 0;
#X connect 148 0 144 1;
#X connect 149 0 150 1;
#X connect 150 0 104 0;
#X connect 151 0 105 0;
#X connect 152 0 102 0;
#X connect 153 0 43 1;
#X connect 153 0 106 1;
#X connect 155 0 154 0;
#X connect 155 0 22 0;
#X connect 155 0 38 1;
#X connect 184 0 146 0;
#X connect 185 0 147 0;
#X connect 186 0 148 0;
#X connect 187 0 145 0;
#X connect 188 0 149 0;
#X connect 190 0 82 0;
#X connect 191 0 23 0;
#X connect 192 0 77 0;
#X connect 193 0 12 0;
#X connect 194 0 47 0;
#X connect 195 0 41 0;
#X connect 197 0 79 0;
#X connect 197 0 81 0;
#X connect 198 0 145 1;
#X connect 199 0 155 0;
#X connect 200 0 149 1;
#X connect 201 0 8 0;
#X connect 201 0 10 0;
#X connect 202 0 148 1;
#X connect 203 0 45 0;
#X connect 203 0 46 0;
#X connect 204 0 146 1;
#X connect 205 0 40 0;
#X connect 205 0 142 0;
#X connect 206 0 147 1;
#X connect 208 0 89 0;
#X connect 209 0 111 0;
#X connect 210 0 21 0;
#X connect 211 0 9 0;
#X connect 211 0 135 0;
#X connect 212 0 95 0;
#X connect 213 0 99 0;
#X connect 215 0 105 1;
#X connect 216 0 104 1;
#X connect 217 0 103 1;
#X connect 218 0 102 1;
#X connect 219 0 153 1;
#X connect 221 0 121 1;
#X connect 222 0 65 0;
#X connect 223 0 20 1;
#X connect 224 0 56 0;
#X connect 225 0 2 1;
#X connect 226 0 126 0;
#X connect 227 0 60 0;
#X connect 227 0 44 1;
#X connect 228 0 69 0;
#X connect 229 0 39 1;
#X connect 230 0 82 0;
#X restore 1456 627 pd quad-filter_2;
#X obj 1451 275 r \$0-quf-freq-2-s;
#X obj 1329 428 r \$0-quf-type-2-s;
#X obj 1861 438 r \$0-quf-type-3-s;
#X obj 1874 580 s \$0-quf-typeNo-3-r;
#X obj 1342 570 s \$0-quf-typeNo-2-r;
#X obj 823 571 s \$0-quf-typeNo-1-r;
#X obj 2094 157 r \$0-quf-q-3-s;
#X obj 1985 281 r \$0-quf-freq-3-s;
#X obj 2204 217 r \$0-quf-deltaF-3-s;
#X obj 2130 551 r \$0-quf-bypass-3-s;
#N canvas 14 2 1920 1096 quad-filter_3 0;
#X obj 784 1062 outlet~;
#X obj 1251 41 inlet;
#X obj 745 764 *~;
#X floatatom 575 81 5 0 0 0 - - -;
#X obj 575 45 inlet;
#X obj 754 42 inlet~;
#X obj 904 41 inlet;
#X obj 1024 40 inlet;
#X floatatom 880 452 5 0 0 0 - - -;
#X floatatom 1089 552 5 0 0 0 - - -;
#X obj 836 472 sig~;
#X obj 647 36 == 1;
#X obj 746 552 *~;
#X obj 648 66 == 2;
#X obj 648 96 == 3;
#X obj 648 127 == 4;
#X obj 648 158 == 5;
#X text 745 15 signal;
#X text 892 13 frequency;
#X text 1044 14 Q;
#X obj 261 958 *~;
#X floatatom 407 666 5 0 0 0 - - -;
#X obj 196 611 sig~;
#X obj 88 685 *~;
#X obj 746 635 vcf~ 1;
#X obj 746 667 vcf~ 1;
#X obj 746 699 vcf~ 1;
#X obj 746 729 vcf~ 1;
#X obj 1046 619 t f f f f;
#X obj 783 1007 min~ 1;
#X obj 783 1029 max~ -1;
#X obj 125 798 vcf~ 1;
#X obj 159 830 vcf~ 1;
#X obj 192 862 vcf~ 1;
#X obj 226 892 vcf~ 1;
#X obj 407 782 t f f f f;
#X obj 197 646 lop~ 10;
#X obj 836 496 lop~ 10;
#X obj 260 922 lop~;
#X obj 1450 945 *~;
#X floatatom 1490 694 5 0 0 0 - - -;
#X obj 1372 719 *~;
#X floatatom 472 731 5 0 0 0 - - -;
#X obj 1450 890 hip~;
#X obj 1303 498 *~;
#X floatatom 1405 193 5 0 0 0 - - -;
#X obj 1360 203 sig~;
#X obj 1254 217 *~;
#X obj 1318 342 vcf~ 1;
#X obj 1318 374 vcf~ 1;
#X obj 1319 412 vcf~ 1;
#X obj 1360 230 lop~ 10;
#X obj 1303 468 -~;
#X floatatom 1659 267 5 0 0 0 - - -;
#X obj 1594 251 + 1;
#X obj 624 712 * -1;
#X obj 624 680 - 1;
#X obj 682 764 *~;
#X text 1251 13 bypass;
#X obj 1145 412 * -1;
#X obj 1145 380 - 1;
#X obj 1255 492 *~;
#X obj 1594 326 t f f f;
#X text 1132 313 crossfade logic;
#X obj -8 906 * -1;
#X obj -8 874 - 1;
#X obj 87 957 *~;
#X obj 682 726 *~ 0.4;
#X obj 1266 832 * -1;
#X obj 1266 800 - 1;
#X obj 1372 883 *~;
#X text 1256 752 crossfade logic;
#X text 1497 571 High-pass filter;
#X text 1417 109 Notch filter;
#X text 763 389 Band-pass filter;
#X text 33 543 Low-pass filter;
#X obj 648 191 == 6;
#X obj 542 452 *~;
#X text 585 330 Off-mode;
#X floatatom 241 97 5 0 0 0 - - -;
#X floatatom 500 167 5 0 0 0 - - -;
#X obj 195 111 sig~;
#X obj 116 149 *~;
#X obj 144 233 vcf~ 1;
#X obj 144 265 vcf~ 1;
#X obj 144 297 vcf~ 1;
#X obj 144 327 vcf~ 1;
#X obj 433 217 t f f f f;
#X obj 196 138 lop~ 10;
#X obj 433 128 * 2;
#X text 105 22 Ocsillator-mode;
#X obj 911 792 + 2;
#X obj 911 814 pack 0 50;
#X obj 911 836 line~;
#X floatatom 944 791 5 0 0 0 - - -;
#X obj 911 748 / 10;
#X obj 784 851 *~;
#X obj 911 769 * 3;
#X text 929 697 Gain compensation, f 14;
#X obj 1594 224 / 4;
#X obj 1137 40 inlet;
#X text 1137 15 Delta F;
#X obj 1382 305 +~;
#X obj 835 602 +~;
#X obj 204 763 +~;
#X obj 197 208 +~;
#X obj 1449 916 hip~;
#X obj 89 924 *~ 0.1;
#X obj 365 390 pack 0 50;
#X obj 365 412 line~;
#X floatatom 398 367 5 0 0 0 - - -;
#X obj 365 324 / 10;
#X obj 365 345 * 3;
#X text 364 279 Gain compensation;
#X obj 349 441 *~;
#X obj 365 368 + 1;
#X obj 433 151 + 4;
#X text 1334 435 subtracting the band-pass filtered signal from the
clean to make a notch-filter, f 29;
#X obj 407 690 / 4;
#X obj 407 715 + 1;
#X obj 744 791 *~ 0.4;
#X obj 144 362 *~;
#X obj 1254 467 *~ 0.8;
#X obj 1372 850 *~ 0.8;
#X obj 543 482 *~;
#X obj 586 451 * -1;
#X obj 586 426 - 1;
#X obj 1429 992 *~ 0.6;
#X obj 138 990 *~ 4;
#X obj 543 511 *~ 0.6;
#X obj 145 389 *~ 1;
#X obj 407 737 pack 0 50;
#X obj 407 760 line;
#X obj 433 172 pack 0 50;
#X obj 433 195 line;
#X obj 1046 572 pack 0 50;
#X obj 1046 597 line;
#X obj 1594 277 pack 0 50;
#X obj 1594 302 line;
#X obj 1303 528 *~ 0.4;
#X obj 1598 740 snapshot~;
#X obj 1518 789 t b f;
#X obj 1486 832 +;
#X obj 1553 703 bang~;
#X obj 836 550 +~;
#X obj 299 124 *~ 1000;
#X obj 1473 229 *~ 1000;
#X obj 1597 702 *~ 2000;
#X obj 923 534 *~ 1000;
#X obj 282 670 *~ 1000;
#X obj 203 692 +~;
#X obj 197 175 +~;
#X obj 1382 273 +~;
#X obj 1486 872 +;
#X floatatom 241 599 5 0 0 0 - - -;
#X obj 196 583 * 0.6;
#X text 8 153 feedback loop that creates a sinusoid, f 13;
#X text 700 141 1 Oscillator \; 2 Off \; 3 Notch filter \; 4 Low-pass
\; 5 Band-pass \; 6 High-pass, f 19;
#X text 617 609 crossfade logic, f 11;
#X text 953 446 Modulation from the bus, f 14;
#X text 310 37 Modulation from the bus, f 12;
#X text 1492 140 Modulation from the bus, f 14;
#X text 1597 614 Modulation from the bus, f 14;
#X text 292 584 Modulation from the bus, f 14;
#X text 463 88 Q;
#X text 1626 169 Q;
#X text 436 618 Q;
#X text 1079 514 Q;
#X text 198 59 Frequency;
#X text 195 535 Frequency;
#X text 1494 641 Frequency;
#X text 1358 147 Frequency;
#X text 834 417 Frequency;
#X text 1559 815 DeltaF-modulation;
#X text 237 717 DeltaF-modulation;
#X text 917 562 DeltaF-modulation;
#X text 256 162 DeltaF-modulation;
#X text 1444 260 DeltaF-modulation;
#X text 1 814 crossfade logic, f 11;
#X text 74 60 Signal;
#X text 77 618 Signal;
#X text 750 482 Signal;
#X text 1234 153 Signal;
#X text 1354 656 Signal;
#X obj 1473 175 r~ \$0-quf-Bbus;
#X obj 1597 649 r~ \$0-quf-Bbus;
#X obj 923 480 r~ \$0-quf-Bbus;
#X obj 299 70 r~ \$0-quf-Bbus;
#X obj 282 616 r~ \$0-quf-Bbus;
#X obj 755 91 s~ \$0-quf-signal-3;
#X obj 66 81 r~ \$0-quf-signal-3;
#X obj 70 637 r~ \$0-quf-signal-3;
#X obj 541 356 r~ \$0-quf-signal-3;
#X obj 708 504 r~ \$0-quf-signal-3;
#X obj 1228 174 r~ \$0-quf-signal-3;
#X obj 1348 681 r~ \$0-quf-signal-3;
#X obj 904 89 s \$0-quf-freq-3;
#X obj 195 81 r \$0-quf-freq-3;
#X obj 323 98 r \$0-quf-freq-3;
#X obj 196 558 r \$0-quf-freq-3;
#X obj 299 643 r \$0-quf-freq-3;
#X obj 836 436 r \$0-quf-freq-3;
#X obj 952 507 r \$0-quf-freq-3;
#X obj 1360 167 r \$0-quf-freq-3;
#X obj 1486 202 r \$0-quf-freq-3;
#X obj 1474 662 r \$0-quf-freq-3;
#X obj 1620 676 r \$0-quf-freq-3;
#X obj 1024 87 s \$0-quf-q-3;
#X obj 433 105 r \$0-quf-q-3;
#X obj 365 302 r \$0-quf-q-3;
#X obj 407 641 r \$0-quf-q-3;
#X obj 1046 536 r \$0-quf-q-3;
#X obj 911 726 r \$0-quf-q-3;
#X obj 1594 200 r \$0-quf-q-3;
#X obj 1137 86 s \$0-quf-deltaF-3;
#X obj 1551 837 r \$0-quf-deltaF-3;
#X obj 1441 280 r \$0-quf-deltaF-3;
#X obj 916 580 r \$0-quf-deltaF-3;
#X obj 252 181 r \$0-quf-deltaF-3;
#X obj 234 736 r \$0-quf-deltaF-3;
#X obj 1250 85 s \$0-quf-bypass-3;
#X obj 216 342 r \$0-quf-bypass-3;
#X obj -8 847 r \$0-quf-bypass-3;
#X obj 327 942 r \$0-quf-bypass-3;
#X obj 586 401 r \$0-quf-bypass-3;
#X obj 606 645 r \$0-quf-bypass-3;
#X obj 794 745 r \$0-quf-bypass-3;
#X obj 1145 345 r \$0-quf-bypass-3;
#X obj 1254 773 r \$0-quf-bypass-3;
#X obj 1509 926 r \$0-quf-bypass-3;
#X obj -6 125 r~ \$0-quf-feedback-3;
#X obj 197 387 s~ \$0-quf-feedback-3;
#X connect 1 0 220 0;
#X connect 2 0 120 0;
#X connect 3 0 11 0;
#X connect 3 0 13 0;
#X connect 3 0 14 0;
#X connect 3 0 15 0;
#X connect 3 0 16 0;
#X connect 3 0 76 0;
#X connect 4 0 3 0;
#X connect 5 0 189 0;
#X connect 6 0 196 0;
#X connect 7 0 207 0;
#X connect 10 0 37 0;
#X connect 11 0 82 1;
#X connect 12 0 24 0;
#X connect 12 0 67 0;
#X connect 13 0 77 1;
#X connect 14 0 47 1;
#X connect 15 0 23 1;
#X connect 16 0 12 1;
#X connect 20 0 128 0;
#X connect 21 0 118 0;
#X connect 22 0 36 0;
#X connect 23 0 31 0;
#X connect 23 0 107 0;
#X connect 24 0 25 0;
#X connect 25 0 26 0;
#X connect 26 0 27 0;
#X connect 27 0 2 0;
#X connect 28 0 24 2;
#X connect 28 1 25 2;
#X connect 28 2 26 2;
#X connect 28 3 27 2;
#X connect 29 0 30 0;
#X connect 30 0 0 0;
#X connect 31 1 32 0;
#X connect 32 1 33 0;
#X connect 33 1 34 0;
#X connect 34 1 38 0;
#X connect 35 0 31 2;
#X connect 35 1 32 2;
#X connect 35 2 33 2;
#X connect 35 3 34 2;
#X connect 36 0 150 0;
#X connect 37 0 144 0;
#X connect 38 0 20 0;
#X connect 39 0 127 0;
#X connect 41 0 43 0;
#X connect 41 0 123 0;
#X connect 43 0 106 0;
#X connect 44 0 139 0;
#X connect 46 0 51 0;
#X connect 47 0 48 0;
#X connect 47 0 52 0;
#X connect 47 0 122 0;
#X connect 48 0 49 0;
#X connect 49 0 50 0;
#X connect 50 0 52 1;
#X connect 51 0 152 0;
#X connect 52 0 44 0;
#X connect 54 0 53 0;
#X connect 54 0 137 0;
#X connect 55 0 57 1;
#X connect 56 0 55 0;
#X connect 57 0 120 0;
#X connect 59 0 61 1;
#X connect 60 0 59 0;
#X connect 61 0 139 0;
#X connect 62 0 48 2;
#X connect 62 1 49 2;
#X connect 62 2 50 2;
#X connect 64 0 66 1;
#X connect 65 0 64 0;
#X connect 66 0 128 0;
#X connect 67 0 57 0;
#X connect 68 0 70 1;
#X connect 69 0 68 0;
#X connect 70 0 127 0;
#X connect 76 0 41 1;
#X connect 77 0 124 0;
#X connect 81 0 88 0;
#X connect 82 0 83 0;
#X connect 83 0 84 0;
#X connect 84 0 85 0;
#X connect 85 0 86 0;
#X connect 86 0 121 0;
#X connect 87 0 83 2;
#X connect 87 1 84 2;
#X connect 87 2 85 2;
#X connect 87 3 86 2;
#X connect 88 0 151 0;
#X connect 89 0 116 0;
#X connect 91 0 92 0;
#X connect 91 0 94 0;
#X connect 92 0 93 0;
#X connect 93 0 96 1;
#X connect 95 0 97 0;
#X connect 96 0 29 0;
#X connect 97 0 91 0;
#X connect 99 0 54 0;
#X connect 100 0 214 0;
#X connect 102 0 48 1;
#X connect 102 0 49 1;
#X connect 102 0 50 1;
#X connect 103 0 24 1;
#X connect 103 0 25 1;
#X connect 103 0 26 1;
#X connect 103 0 27 1;
#X connect 104 0 31 1;
#X connect 104 0 32 1;
#X connect 104 0 33 1;
#X connect 104 0 34 1;
#X connect 105 0 83 1;
#X connect 105 0 84 1;
#X connect 105 0 85 1;
#X connect 105 0 86 1;
#X connect 106 0 39 0;
#X connect 107 0 66 0;
#X connect 108 0 109 0;
#X connect 109 0 114 1;
#X connect 111 0 112 0;
#X connect 112 0 115 0;
#X connect 114 0 29 0;
#X connect 115 0 108 0;
#X connect 115 0 110 0;
#X connect 116 0 80 0;
#X connect 116 0 133 0;
#X connect 118 0 119 0;
#X connect 119 0 42 0;
#X connect 119 0 131 0;
#X connect 120 0 96 0;
#X connect 121 0 130 0;
#X connect 121 0 231 0;
#X connect 122 0 61 0;
#X connect 123 0 70 0;
#X connect 124 0 129 0;
#X connect 125 0 124 1;
#X connect 126 0 125 0;
#X connect 127 0 29 0;
#X connect 128 0 29 0;
#X connect 129 0 29 0;
#X connect 130 0 114 0;
#X connect 131 0 132 0;
#X connect 132 0 35 0;
#X connect 133 0 134 0;
#X connect 134 0 87 0;
#X connect 135 0 136 0;
#X connect 136 0 28 0;
#X connect 137 0 138 0;
#X connect 138 0 62 0;
#X connect 139 0 29 0;
#X connect 140 0 141 0;
#X connect 141 0 142 0;
#X connect 141 1 142 1;
#X connect 142 0 153 0;
#X connect 143 0 140 0;
#X connect 144 0 103 0;
#X connect 145 0 151 1;
#X connect 146 0 152 1;
#X connect 147 0 140 0;
#X connect 148 0 144 1;
#X connect 149 0 150 1;
#X connect 150 0 104 0;
#X connect 151 0 105 0;
#X connect 152 0 102 0;
#X connect 153 0 43 1;
#X connect 153 0 106 1;
#X connect 155 0 154 0;
#X connect 155 0 22 0;
#X connect 155 0 38 1;
#X connect 184 0 146 0;
#X connect 185 0 147 0;
#X connect 186 0 148 0;
#X connect 187 0 145 0;
#X connect 188 0 149 0;
#X connect 190 0 82 0;
#X connect 191 0 23 0;
#X connect 192 0 77 0;
#X connect 193 0 12 0;
#X connect 194 0 47 0;
#X connect 195 0 41 0;
#X connect 197 0 79 0;
#X connect 197 0 81 0;
#X connect 198 0 145 1;
#X connect 199 0 155 0;
#X connect 200 0 149 1;
#X connect 201 0 8 0;
#X connect 201 0 10 0;
#X connect 202 0 148 1;
#X connect 203 0 45 0;
#X connect 203 0 46 0;
#X connect 204 0 146 1;
#X connect 205 0 40 0;
#X connect 205 0 142 0;
#X connect 206 0 147 1;
#X connect 208 0 89 0;
#X connect 209 0 111 0;
#X connect 210 0 21 0;
#X connect 211 0 9 0;
#X connect 211 0 135 0;
#X connect 212 0 95 0;
#X connect 213 0 99 0;
#X connect 215 0 153 1;
#X connect 216 0 102 1;
#X connect 217 0 103 1;
#X connect 218 0 105 1;
#X connect 219 0 104 1;
#X connect 221 0 121 1;
#X connect 222 0 65 0;
#X connect 223 0 20 1;
#X connect 224 0 126 0;
#X connect 225 0 56 0;
#X connect 226 0 2 1;
#X connect 227 0 60 0;
#X connect 227 0 44 1;
#X connect 228 0 69 0;
#X connect 229 0 39 1;
#X connect 230 0 82 0;
#X restore 1983 637 pd quad-filter_3;
#X obj 2377 445 r \$0-quf-type-4-s;
#X obj 2390 587 s \$0-quf-typeNo-4-r;
#X obj 2613 164 r \$0-quf-q-4-s;
#X obj 2498 292 r \$0-quf-freq-4-s;
#X obj 2723 224 r \$0-quf-deltaF-4-s;
#X obj 2649 558 r \$0-quf-bypass-4-s;
#N canvas 14 2 1920 1096 quad-filter_4 0;
#X obj 784 1062 outlet~;
#X obj 1251 41 inlet;
#X obj 735 771 *~;
#X floatatom 553 81 5 0 0 0 - - -;
#X obj 553 45 inlet;
#X obj 754 42 inlet~;
#X obj 904 41 inlet;
#X obj 1024 40 inlet;
#X floatatom 879 459 5 0 0 0 - - -;
#X floatatom 1075 559 5 0 0 0 - - -;
#X obj 833 479 sig~;
#X obj 625 36 == 1;
#X obj 736 559 *~;
#X obj 626 66 == 2;
#X obj 626 96 == 3;
#X obj 626 127 == 4;
#X obj 626 158 == 5;
#X text 745 15 signal;
#X text 892 13 frequency;
#X text 1044 14 Q;
#X obj 261 958 *~;
#X floatatom 400 666 5 0 0 0 - - -;
#X obj 196 611 sig~;
#X obj 88 685 *~;
#X obj 736 642 vcf~ 1;
#X obj 736 674 vcf~ 1;
#X obj 736 706 vcf~ 1;
#X obj 736 736 vcf~ 1;
#X obj 1032 626 t f f f f;
#X obj 783 1007 min~ 1;
#X obj 783 1029 max~ -1;
#X obj 125 798 vcf~ 1;
#X obj 159 830 vcf~ 1;
#X obj 192 862 vcf~ 1;
#X obj 226 892 vcf~ 1;
#X obj 400 782 t f f f f;
#X obj 197 646 lop~ 10;
#X obj 833 503 lop~ 10;
#X obj 260 922 lop~;
#X obj 1450 945 *~;
#X floatatom 1485 694 5 0 0 0 - - -;
#X obj 1372 719 *~;
#X floatatom 465 731 5 0 0 0 - - -;
#X obj 1450 890 hip~;
#X obj 1303 498 *~;
#X floatatom 1405 193 5 0 0 0 - - -;
#X obj 1360 203 sig~;
#X obj 1254 217 *~;
#X obj 1318 342 vcf~ 1;
#X obj 1318 374 vcf~ 1;
#X obj 1319 412 vcf~ 1;
#X obj 1360 230 lop~ 10;
#X obj 1303 468 -~;
#X floatatom 1674 267 5 0 0 0 - - -;
#X obj 1609 251 + 1;
#X obj 614 719 * -1;
#X obj 614 687 - 1;
#X obj 672 771 *~;
#X text 1251 13 bypass;
#X obj 1164 421 * -1;
#X obj 1164 389 - 1;
#X obj 1255 492 *~;
#X obj 1609 326 t f f f;
#X text 1151 313 crossfade logic;
#X obj 3 906 * -1;
#X obj 3 874 - 1;
#X obj 87 957 *~;
#X obj 672 733 *~ 0.4;
#X obj 1257 832 * -1;
#X obj 1257 800 - 1;
#X obj 1372 883 *~;
#X text 1247 752 crossfade logic;
#X text 1438 588 High-pass filter;
#X text 1417 109 Notch filter;
#X text 753 396 Band-pass filter;
#X text 33 543 Low-pass filter;
#X obj 626 191 == 6;
#X obj 538 426 *~;
#X text 581 304 Off-mode;
#X floatatom 241 97 5 0 0 0 - - -;
#X floatatom 488 167 5 0 0 0 - - -;
#X obj 195 111 sig~;
#X obj 116 149 *~;
#X obj 144 233 vcf~ 1;
#X obj 144 265 vcf~ 1;
#X obj 144 297 vcf~ 1;
#X obj 144 327 vcf~ 1;
#X obj 421 217 t f f f f;
#X obj 196 138 lop~ 10;
#X obj 421 128 * 2;
#X text 105 22 Ocsillator-mode;
#X obj 912 791 + 2;
#X obj 912 813 pack 0 50;
#X obj 912 835 line~;
#X floatatom 945 790 5 0 0 0 - - -;
#X obj 912 747 / 10;
#X obj 784 851 *~;
#X obj 912 768 * 3;
#X text 913 696 Gain compensation, f 14;
#X obj 1609 224 / 4;
#X obj 1137 40 inlet;
#X text 1137 15 Delta F;
#X obj 1382 305 +~;
#X obj 832 609 +~;
#X obj 204 763 +~;
#X obj 197 208 +~;
#X obj 1449 916 hip~;
#X obj 89 924 *~ 0.1;
#X obj 365 390 pack 0 50;
#X obj 365 412 line~;
#X floatatom 398 367 5 0 0 0 - - -;
#X obj 365 324 / 10;
#X obj 365 345 * 3;
#X text 364 279 Gain compensation;
#X obj 349 441 *~;
#X obj 365 368 + 1;
#X obj 421 151 + 4;
#X text 1334 435 subtracting the band-pass filtered signal from the
clean to make a notch-filter, f 29;
#X obj 400 690 / 4;
#X obj 400 715 + 1;
#X obj 734 798 *~ 0.4;
#X obj 144 362 *~;
#X obj 1254 467 *~ 0.8;
#X obj 1372 850 *~ 0.8;
#X obj 539 456 *~;
#X obj 582 425 * -1;
#X obj 582 400 - 1;
#X obj 1429 992 *~ 0.6;
#X obj 138 990 *~ 4;
#X obj 539 485 *~ 0.6;
#X obj 145 389 *~ 1;
#X obj 400 737 pack 0 50;
#X obj 400 760 line;
#X obj 421 172 pack 0 50;
#X obj 421 195 line;
#X obj 1032 579 pack 0 50;
#X obj 1032 604 line;
#X obj 1609 277 pack 0 50;
#X obj 1609 302 line;
#X obj 1303 528 *~ 0.4;
#X obj 1570 755 snapshot~;
#X obj 1518 789 t b f;
#X obj 1486 832 +;
#X obj 1546 701 bang~;
#X obj 833 557 +~;
#X obj 301 124 *~ 1000;
#X obj 1477 229 *~ 1000;
#X obj 1591 702 *~ 2000;
#X obj 913 541 *~ 1000;
#X obj 282 670 *~ 1000;
#X obj 203 692 +~;
#X obj 197 175 +~;
#X obj 1382 273 +~;
#X obj 1486 872 +;
#X floatatom 241 599 5 0 0 0 - - -;
#X obj 196 583 * 0.6;
#X text 5 153 feedback loop that creates a sinusoid, f 13;
#X text 678 141 1 Oscillator \; 2 Off \; 3 Notch filter \; 4 Low-pass
\; 5 Band-pass \; 6 High-pass, f 19;
#X text 625 616 crossfade logic, f 11;
#X text 943 453 Modulation from the bus, f 14;
#X text 312 37 Modulation from the bus, f 12;
#X text 1496 140 Modulation from the bus, f 14;
#X text 1591 614 Modulation from the bus, f 14;
#X text 292 584 Modulation from the bus, f 14;
#X text 451 88 Q;
#X text 1641 169 Q;
#X text 429 618 Q;
#X text 1056 521 Q;
#X text 198 59 Frequency;
#X text 195 535 Frequency;
#X text 1470 637 Frequency;
#X text 1358 147 Frequency;
#X text 831 424 Frequency;
#X text 1559 815 DeltaF-modulation;
#X text 237 717 DeltaF-modulation;
#X text 907 569 DeltaF-modulation;
#X text 256 162 DeltaF-modulation;
#X text 1444 260 DeltaF-modulation;
#X text -1 814 crossfade logic, f 11;
#X text 73 60 Signal;
#X text 69 618 Signal;
#X text 718 490 Signal;
#X text 1228 153 Signal;
#X text 1350 656 Signal;
#X obj 1477 175 r~ \$0-quf-Bbus;
#X obj 1591 649 r~ \$0-quf-Bbus;
#X obj 913 487 r~ \$0-quf-Bbus;
#X obj 282 616 r~ \$0-quf-Bbus;
#X obj 301 70 r~ \$0-quf-Bbus;
#X obj 755 91 s~ \$0-quf-signal-4;
#X obj 65 81 r~ \$0-quf-signal-4;
#X obj 62 637 r~ \$0-quf-signal-4;
#X obj 537 331 r~ \$0-quf-signal-4;
#X obj 707 511 r~ \$0-quf-signal-4;
#X obj 1222 174 r~ \$0-quf-signal-4;
#X obj 1344 681 r~ \$0-quf-signal-4;
#X obj 904 89 s \$0-quf-freq-4;
#X obj 195 81 r \$0-quf-freq-4;
#X obj 312 96 r \$0-quf-freq-4;
#X obj 196 558 r \$0-quf-freq-4;
#X obj 292 643 r \$0-quf-freq-4;
#X obj 833 443 r \$0-quf-freq-4;
#X obj 942 514 r \$0-quf-freq-4;
#X obj 1360 167 r \$0-quf-freq-4;
#X obj 1492 202 r \$0-quf-freq-4;
#X obj 1024 87 s \$0-quf-q-4;
#X obj 1608 200 r \$0-quf-q-4;
#X obj 912 725 r \$0-quf-q-4;
#X obj 1032 543 r \$0-quf-q-4;
#X obj 400 641 r \$0-quf-q-4;
#X obj 364 302 r \$0-quf-q-4;
#X obj 421 105 r \$0-quf-q-4;
#X obj 1469 662 r \$0-quf-freq-4;
#X obj 1630 676 r \$0-quf-freq-4;
#X obj 1137 86 s \$0-quf-deltaF-4;
#X obj 1441 280 r \$0-quf-deltaF-4;
#X obj 1551 837 r \$0-quf-deltaF-4;
#X obj 906 587 r \$0-quf-deltaF-4;
#X obj 235 736 r \$0-quf-deltaF-4;
#X obj 253 181 r \$0-quf-deltaF-4;
#X obj 1251 85 s \$0-quf-bypass-4;
#X obj 216 342 r \$0-quf-bypass-4;
#X obj -19 847 r \$0-quf-bypass-4;
#X obj 327 942 r \$0-quf-bypass-4;
#X obj 780 754 r \$0-quf-bypass-4;
#X obj 614 652 r \$0-quf-bypass-4;
#X obj 582 374 r \$0-quf-bypass-4;
#X obj 1146 345 r \$0-quf-bypass-4;
#X obj 1255 773 r \$0-quf-bypass-4;
#X obj 1509 926 r \$0-quf-bypass-4;
#X obj -9 125 r~ \$0-quf-feedback-4;
#X obj 197 387 s~ \$0-quf-feedback-4;
#X connect 1 0 220 0;
#X connect 2 0 120 0;
#X connect 3 0 11 0;
#X connect 3 0 13 0;
#X connect 3 0 14 0;
#X connect 3 0 15 0;
#X connect 3 0 16 0;
#X connect 3 0 76 0;
#X connect 4 0 3 0;
#X connect 5 0 189 0;
#X connect 6 0 196 0;
#X connect 7 0 205 0;
#X connect 10 0 37 0;
#X connect 11 0 82 1;
#X connect 12 0 24 0;
#X connect 12 0 67 0;
#X connect 13 0 77 1;
#X connect 14 0 47 1;
#X connect 15 0 23 1;
#X connect 16 0 12 1;
#X connect 20 0 128 0;
#X connect 21 0 118 0;
#X connect 22 0 36 0;
#X connect 23 0 31 0;
#X connect 23 0 107 0;
#X connect 24 0 25 0;
#X connect 25 0 26 0;
#X connect 26 0 27 0;
#X connect 27 0 2 0;
#X connect 28 0 24 2;
#X connect 28 1 25 2;
#X connect 28 2 26 2;
#X connect 28 3 27 2;
#X connect 29 0 30 0;
#X connect 30 0 0 0;
#X connect 31 1 32 0;
#X connect 32 1 33 0;
#X connect 33 1 34 0;
#X connect 34 1 38 0;
#X connect 35 0 31 2;
#X connect 35 1 32 2;
#X connect 35 2 33 2;
#X connect 35 3 34 2;
#X connect 36 0 150 0;
#X connect 37 0 144 0;
#X connect 38 0 20 0;
#X connect 39 0 127 0;
#X connect 41 0 43 0;
#X connect 41 0 123 0;
#X connect 43 0 106 0;
#X connect 44 0 139 0;
#X connect 46 0 51 0;
#X connect 47 0 48 0;
#X connect 47 0 52 0;
#X connect 47 0 122 0;
#X connect 48 0 49 0;
#X connect 49 0 50 0;
#X connect 50 0 52 1;
#X connect 51 0 152 0;
#X connect 52 0 44 0;
#X connect 54 0 53 0;
#X connect 54 0 137 0;
#X connect 55 0 57 1;
#X connect 56 0 55 0;
#X connect 57 0 120 0;
#X connect 59 0 61 1;
#X connect 60 0 59 0;
#X connect 61 0 139 0;
#X connect 62 0 48 2;
#X connect 62 1 49 2;
#X connect 62 2 50 2;
#X connect 64 0 66 1;
#X connect 65 0 64 0;
#X connect 66 0 128 0;
#X connect 67 0 57 0;
#X connect 68 0 70 1;
#X connect 69 0 68 0;
#X connect 70 0 127 0;
#X connect 76 0 41 1;
#X connect 77 0 124 0;
#X connect 81 0 88 0;
#X connect 82 0 83 0;
#X connect 83 0 84 0;
#X connect 84 0 85 0;
#X connect 85 0 86 0;
#X connect 86 0 121 0;
#X connect 87 0 83 2;
#X connect 87 1 84 2;
#X connect 87 2 85 2;
#X connect 87 3 86 2;
#X connect 88 0 151 0;
#X connect 89 0 116 0;
#X connect 91 0 92 0;
#X connect 91 0 94 0;
#X connect 92 0 93 0;
#X connect 93 0 96 1;
#X connect 95 0 97 0;
#X connect 96 0 29 0;
#X connect 97 0 91 0;
#X connect 99 0 54 0;
#X connect 100 0 214 0;
#X connect 102 0 48 1;
#X connect 102 0 49 1;
#X connect 102 0 50 1;
#X connect 103 0 24 1;
#X connect 103 0 25 1;
#X connect 103 0 26 1;
#X connect 103 0 27 1;
#X connect 104 0 31 1;
#X connect 104 0 32 1;
#X connect 104 0 33 1;
#X connect 104 0 34 1;
#X connect 105 0 83 1;
#X connect 105 0 84 1;
#X connect 105 0 85 1;
#X connect 105 0 86 1;
#X connect 106 0 39 0;
#X connect 107 0 66 0;
#X connect 108 0 109 0;
#X connect 109 0 114 1;
#X connect 111 0 112 0;
#X connect 112 0 115 0;
#X connect 114 0 29 0;
#X connect 115 0 108 0;
#X connect 115 0 110 0;
#X connect 116 0 80 0;
#X connect 116 0 133 0;
#X connect 118 0 119 0;
#X connect 119 0 42 0;
#X connect 119 0 131 0;
#X connect 120 0 96 0;
#X connect 121 0 130 0;
#X connect 121 0 231 0;
#X connect 122 0 61 0;
#X connect 123 0 70 0;
#X connect 124 0 129 0;
#X connect 125 0 124 1;
#X connect 126 0 125 0;
#X connect 127 0 29 0;
#X connect 128 0 29 0;
#X connect 129 0 29 0;
#X connect 130 0 114 0;
#X connect 131 0 132 0;
#X connect 132 0 35 0;
#X connect 133 0 134 0;
#X connect 134 0 87 0;
#X connect 135 0 136 0;
#X connect 136 0 28 0;
#X connect 137 0 138 0;
#X connect 138 0 62 0;
#X connect 139 0 29 0;
#X connect 140 0 141 0;
#X connect 141 0 142 0;
#X connect 141 1 142 1;
#X connect 142 0 153 0;
#X connect 143 0 140 0;
#X connect 144 0 103 0;
#X connect 145 0 151 1;
#X connect 146 0 152 1;
#X connect 147 0 140 0;
#X connect 148 0 144 1;
#X connect 149 0 150 1;
#X connect 150 0 104 0;
#X connect 151 0 105 0;
#X connect 152 0 102 0;
#X connect 153 0 43 1;
#X connect 153 0 106 1;
#X connect 155 0 154 0;
#X connect 155 0 22 0;
#X connect 155 0 38 1;
#X connect 184 0 146 0;
#X connect 185 0 147 0;
#X connect 186 0 148 0;
#X connect 187 0 149 0;
#X connect 188 0 145 0;
#X connect 190 0 82 0;
#X connect 191 0 23 0;
#X connect 192 0 77 0;
#X connect 193 0 12 0;
#X connect 194 0 47 0;
#X connect 195 0 41 0;
#X connect 197 0 79 0;
#X connect 197 0 81 0;
#X connect 198 0 145 1;
#X connect 199 0 155 0;
#X connect 200 0 149 1;
#X connect 201 0 8 0;
#X connect 201 0 10 0;
#X connect 202 0 148 1;
#X connect 203 0 45 0;
#X connect 203 0 46 0;
#X connect 204 0 146 1;
#X connect 206 0 99 0;
#X connect 207 0 95 0;
#X connect 208 0 9 0;
#X connect 208 0 135 0;
#X connect 209 0 21 0;
#X connect 210 0 111 0;
#X connect 211 0 89 0;
#X connect 212 0 40 0;
#X connect 212 0 142 0;
#X connect 213 0 147 1;
#X connect 215 0 102 1;
#X connect 216 0 153 1;
#X connect 217 0 103 1;
#X connect 218 0 104 1;
#X connect 219 0 105 1;
#X connect 221 0 121 1;
#X connect 222 0 65 0;
#X connect 223 0 20 1;
#X connect 224 0 2 1;
#X connect 225 0 56 0;
#X connect 226 0 126 0;
#X connect 227 0 60 0;
#X connect 227 0 44 1;
#X connect 228 0 69 0;
#X connect 229 0 39 1;
#X connect 230 0 82 0;
#X restore 2503 644 pd quad-filter_4;
#X text 1496 36 CHANNEL 2;
#X text 2038 54 CHANNEL 3;
#X text 2554 54 CHANNEL 4;
#X text 43 422 Mode / Type;
#X text 22 446 The Quad Universal filter houses four different filters:
low-pass \, high-pass \, bandpass and notch. Additionally \, there
is an Off mode and an Oscillator mode which essentially is a high-Q
bandpass filter where signal is being fed back and looped through the
filter., f 46;
#X text 51 537 Q-value;
#X text 21 721 DF governs how the frequency is affected by the incoming
signal. The scale is calculated so that max+ equals plus one octave
(doubling the frequency set by F) \, and max- equals minus one octave
(halving the frequency) per approximated volt of input signal., f
47;
#X text 19 637 Frequency ranges from approximately 8Hz to 8400Hz. One
exception is the Low-pass filter that starts behaving weird at high
frequencies and therefore only goes to 5000Hz., f 47;
#X text 22 557 The resonance. Values has been tweaked to make each
filter sound as good as possible. For the bandpass it ranges from 0.7
- 10 and for the notch and low-pass filters 1.2 - 4, f 46;
#X connect 3 0 2 0;
#X connect 3 0 34 0;
#X connect 3 0 253 0;
#X connect 22 0 37 0;
#X connect 22 0 40 0;
#X connect 23 0 78 0;
#X connect 23 0 77 0;
#X connect 24 0 34 1;
#X connect 24 0 86 0;
#X connect 25 0 247 1;
#X connect 25 0 148 0;
#X connect 26 0 185 0;
#X connect 26 0 258 1;
#X connect 27 0 222 0;
#X connect 27 0 265 1;
#X connect 34 0 28 0;
#X connect 34 0 30 0;
#X connect 37 0 28 0;
#X connect 40 0 35 0;
#X connect 43 0 63 0;
#X connect 48 0 54 0;
#X connect 49 0 61 0;
#X connect 50 0 89 0;
#X connect 51 0 53 0;
#X connect 53 0 108 0;
#X connect 54 0 55 0;
#X connect 55 0 56 0;
#X connect 56 0 34 3;
#X connect 61 0 62 0;
#X connect 61 0 107 0;
#X connect 63 0 64 0;
#X connect 64 0 65 0;
#X connect 65 0 3 0;
#X connect 67 0 68 0;
#X connect 67 0 69 0;
#X connect 67 1 70 0;
#X connect 67 2 71 0;
#X connect 67 2 72 0;
#X connect 68 0 40 1;
#X connect 69 0 37 1;
#X connect 70 0 40 1;
#X connect 70 0 37 1;
#X connect 71 0 40 1;
#X connect 72 0 37 1;
#X connect 77 0 29 0;
#X connect 78 0 36 0;
#X connect 80 0 81 0;
#X connect 80 0 82 0;
#X connect 80 1 83 0;
#X connect 80 2 84 0;
#X connect 80 2 85 0;
#X connect 81 0 78 1;
#X connect 82 0 77 1;
#X connect 83 0 78 1;
#X connect 83 0 77 1;
#X connect 84 0 78 1;
#X connect 85 0 77 1;
#X connect 86 0 88 0;
#X connect 88 0 87 0;
#X connect 88 0 96 0;
#X connect 89 0 94 0;
#X connect 90 0 99 0;
#X connect 91 0 90 0;
#X connect 94 0 95 0;
#X connect 95 0 101 0;
#X connect 96 0 97 0;
#X connect 96 0 98 0;
#X connect 98 0 100 0;
#X connect 98 0 34 4;
#X connect 99 0 98 1;
#X connect 101 0 102 0;
#X connect 101 1 103 0;
#X connect 102 0 103 0;
#X connect 103 0 91 0;
#X connect 103 0 93 0;
#X connect 104 0 66 0;
#X connect 104 0 67 0;
#X connect 105 0 79 0;
#X connect 105 0 80 0;
#X connect 106 0 34 2;
#X connect 106 0 96 1;
#X connect 107 0 106 0;
#X connect 108 0 109 0;
#X connect 109 0 34 5;
#X connect 134 0 133 0;
#X connect 134 0 247 0;
#X connect 134 0 252 0;
#X connect 135 0 168 0;
#X connect 136 0 137 0;
#X connect 137 0 138 0;
#X connect 138 0 247 3;
#X connect 143 0 144 0;
#X connect 143 0 167 0;
#X connect 145 0 146 0;
#X connect 146 0 147 0;
#X connect 147 0 134 0;
#X connect 148 0 150 0;
#X connect 150 0 149 0;
#X connect 150 0 158 0;
#X connect 151 0 156 0;
#X connect 152 0 161 0;
#X connect 153 0 152 0;
#X connect 156 0 157 0;
#X connect 157 0 163 0;
#X connect 158 0 159 0;
#X connect 158 0 160 0;
#X connect 160 0 162 0;
#X connect 160 0 247 4;
#X connect 161 0 160 1;
#X connect 163 0 164 0;
#X connect 163 1 165 0;
#X connect 164 0 165 0;
#X connect 165 0 153 0;
#X connect 165 0 155 0;
#X connect 166 0 247 2;
#X connect 166 0 158 1;
#X connect 167 0 166 0;
#X connect 168 0 169 0;
#X connect 169 0 247 5;
#X connect 171 0 170 0;
#X connect 171 0 258 0;
#X connect 171 0 251 0;
#X connect 172 0 205 0;
#X connect 173 0 174 0;
#X connect 174 0 175 0;
#X connect 175 0 258 3;
#X connect 180 0 181 0;
#X connect 180 0 204 0;
#X connect 182 0 183 0;
#X connect 183 0 184 0;
#X connect 184 0 171 0;
#X connect 185 0 187 0;
#X connect 187 0 186 0;
#X connect 187 0 195 0;
#X connect 188 0 193 0;
#X connect 189 0 198 0;
#X connect 190 0 189 0;
#X connect 193 0 194 0;
#X connect 194 0 200 0;
#X connect 195 0 196 0;
#X connect 195 0 197 0;
#X connect 197 0 199 0;
#X connect 197 0 258 4;
#X connect 198 0 197 1;
#X connect 200 0 201 0;
#X connect 200 1 202 0;
#X connect 201 0 202 0;
#X connect 202 0 190 0;
#X connect 202 0 192 0;
#X connect 203 0 258 2;
#X connect 203 0 195 1;
#X connect 204 0 203 0;
#X connect 205 0 206 0;
#X connect 206 0 258 5;
#X connect 208 0 207 0;
#X connect 208 0 265 0;
#X connect 208 0 260 0;
#X connect 209 0 242 0;
#X connect 210 0 211 0;
#X connect 211 0 212 0;
#X connect 212 0 265 3;
#X connect 217 0 218 0;
#X connect 217 0 241 0;
#X connect 219 0 220 0;
#X connect 220 0 221 0;
#X connect 221 0 208 0;
#X connect 222 0 224 0;
#X connect 224 0 223 0;
#X connect 224 0 232 0;
#X connect 225 0 230 0;
#X connect 226 0 235 0;
#X connect 227 0 226 0;
#X connect 230 0 231 0;
#X connect 231 0 237 0;
#X connect 232 0 233 0;
#X connect 232 0 234 0;
#X connect 234 0 236 0;
#X connect 234 0 265 4;
#X connect 235 0 234 1;
#X connect 237 0 238 0;
#X connect 237 1 239 0;
#X connect 238 0 239 0;
#X connect 239 0 227 0;
#X connect 239 0 229 0;
#X connect 240 0 265 2;
#X connect 240 0 232 1;
#X connect 241 0 240 0;
#X connect 242 0 243 0;
#X connect 243 0 265 5;
#X connect 244 0 136 0;
#X connect 245 0 151 0;
#X connect 246 0 135 0;
#X connect 247 0 31 0;
#X connect 247 0 29 0;
#X connect 248 0 143 0;
#X connect 249 0 145 0;
#X connect 250 0 182 0;
#X connect 254 0 173 0;
#X connect 255 0 180 0;
#X connect 256 0 188 0;
#X connect 257 0 172 0;
#X connect 258 0 32 0;
#X connect 258 0 28 0;
#X connect 259 0 219 0;
#X connect 261 0 210 0;
#X connect 262 0 217 0;
#X connect 263 0 225 0;
#X connect 264 0 209 0;
#X connect 265 0 33 0;
#X connect 265 0 29 0;
#X coords 0 -1 1 1 430 320 2 300 100;
