#N canvas 1366 56 1920 1024 10;
#X declare -lib moonlib;
#X obj 51 103 cnv 15 428 314 empty empty QUAD-SOUND-GENERATOR_3002
10 35 0 15 -233017 -66577 0;
#X obj 127 330 moonlib/mknob 25 100 0 127 0 1 \$0-sound-gen-l-s1 \$0-sound-gen-l-r1
L -12 12 0 12 -258113 -262144 -45076 0 1;
#X obj 128 227 moonlib/mknob 25 100 0 127 0 1 \$0-sound-gen-freq-s1
\$0-sound-gen-freq-r1 F -12 12 0 12 -1 -262144 -1 0 1;
#X obj 127 277 moonlib/mknob 25 100 0 127 0 1 \$0-sound-gen-w-s1 \$0-sound-gen-w-r1
W -12 12 0 12 -1 -262144 -1 0 1;
#X obj 93 24 inlet~ A;
#X obj 162 25 inlet~ B;
#X obj 232 26 inlet~ one;
#X obj 311 26 inlet~ two;
#X obj 393 26 inlet~ three;
#X obj 490 26 inlet~ four;
#X obj 86 559 outlet~ A;
#X obj 381 560 outlet~ one;
#X obj 1110 123 r \$0-sound-gen-freq-s1;
#X obj 827 170 metro 500;
#X obj 827 149 tgl 15 1 empty empty empty 17 7 0 10 -262144 -1 -1 1
1;
#N canvas 0 50 450 250 (subpatch) 0;
#X array \$0-qsg-array 100 float 3;
#A 0 0 0 0 0 0 0 0 0 0 0 0 0 0 0 0 0 0 0 0 0 0 0 0 0 0 0 0 0 0 0 0
0 0 0 0 0 0 0 0 0 0 0 0 0 0 0 0 0 0 0 0 0 0 0 0 0 0 0 0 0 0 0 0 0 0
0 0 0 0 0 0 0 0 0 0 0 0 0 0 0 0 0 0 0 0 0 0 0 0 0 0 0 0 0 0 0 0 0 0
0;
#X coords 0 1 100 -1 200 140 1 0 0;
#X restore 826 235 graph;
#X obj 1109 337 quad-sound-generator-gen;
#X obj 1180 183 r \$0-sound-gen-w-s1;
#X obj 1419 232 r \$0-sound-gen-mod-s1;
#X obj 1419 267 select 0 1 2 3 4 5;
#X msg 1460 309 EXP;
#X msg 1515 308 LIN;
#X msg 1618 307 3;
#X msg 1671 307 4;
#X obj 1165 507 quad-sound-generator-router;
#X obj 1250 303 r \$0-sound-gen-l-s1;
#X obj 211 330 moonlib/mknob 25 100 0 127 0 1 \$0-sound-gen-l-s2 \$0-sound-gen-l-r2
L -12 12 0 12 -258113 -262144 -45076 0 1;
#X obj 212 227 moonlib/mknob 25 100 0 127 0 1 \$0-sound-gen-freq-s2
\$0-sound-gen-freq-r2 F -12 12 0 12 -1 -262144 -1 0 1;
#X obj 211 277 moonlib/mknob 25 100 0 127 0 1 \$0-sound-gen-w-s2 \$0-sound-gen-w-r2
W -12 12 0 12 -1 -262144 -1 0 1;
#X obj 295 330 moonlib/mknob 25 100 0 127 0 1 \$0-sound-gen-l-s3 \$0-sound-gen-l-r3
L -12 12 0 12 -258113 -262144 -45076 0 1;
#X obj 296 227 moonlib/mknob 25 100 0 127 0 1 \$0-sound-gen-freq-s3
\$0-sound-gen-freq-r3 F -12 12 0 12 -1 -262144 -1 0 1;
#X obj 295 277 moonlib/mknob 25 100 0 127 0 1 \$0-sound-gen-w-s3 \$0-sound-gen-w-r3
W -12 12 0 12 -1 -262144 -1 0 1;
#X obj 379 330 moonlib/mknob 25 100 0 127 0 1 \$0-sound-gen-l-s4 \$0-sound-gen-l-r4
L -12 12 0 12 -258113 -262144 -45076 0 1;
#X obj 379 227 moonlib/mknob 25 100 0 127 0 1 \$0-sound-gen-freq-s4
\$0-sound-gen-freq-r4 F -12 12 0 12 -1 -262144 -1 0 1;
#X obj 379 277 moonlib/mknob 25 100 0 127 0 1 \$0-sound-gen-w-s4 \$0-sound-gen-w-r4
W -12 12 0 12 -1 -262144 -1 0 1;
#X obj 1109 374 s~ \$0-channel-1;
#X obj 1165 401 r~ \$0-channel-1;
#X msg 1419 309 OFF;
#X msg 1554 307 2;
#X obj 1204 424 r~ \$0-channel-2;
#X obj 1244 449 r~ \$0-channel-3;
#X obj 1284 472 r~ \$0-channel-4;
#X obj 514 152 r~ \$0-channel-1;
#X obj 625 151 r~ \$0-channel-2;
#X obj 625 186 r~ \$0-channel-3;
#X obj 515 186 r~ \$0-channel-4;
#X text 1108 87 Channel 1;
#X obj 593 265 *~;
#X obj 643 224 hsl 128 15 0 127 0 0 empty empty empty -2 -8 0 10 -262144
-1 -1 0 1;
#X obj 640 249 / 127;
#X obj 593 305 dac~;
#X obj 96 280 tgl 15 1 \$0-sound-gen-low-freq-s1 \$0-sound-gen-low-freq-r1
LFO -1 -7 0 10 -262144 -1 -1 0 1;
#X obj 1144 153 r \$0-sound-gen-low-freq-s1;
#X obj 232 47 s~ \$0-sound-gen-inlet1;
#X obj 93 47 s~ \$0-sound-gen-inletA;
#X obj 162 69 s~ \$0-sound-gen-inletB;
#X obj 311 70 s~ \$0-sound-gen-inlet2;
#X obj 393 47 s~ \$0-sound-gen-inlet3;
#X obj 490 69 s~ \$0-sound-gen-inlet4;
#X obj 1165 543 *~ 1500;
#X text 514 284 For debug;
#X obj 55 178 hradio 15 1 1 6 \$0-sound-gen-mod-s1 \$0-sound-gen-mod-r1
OFF_EXP_LIN_2_3_4 0 -8 0 10 -262144 -1 -1 0;
#X obj 1435 565 == 1;
#X obj 1435 530 r \$0-sound-gen-mod-s1;
#X obj 1639 563 == 2;
#X obj 162 178 hradio 15 1 1 6 \$0-sound-gen-mod-s2 \$0-sound-gen-mod-r2
OFF_EXP_LIN_1_3_4 0 -8 0 10 -262144 -1 -1 0;
#X obj 270 178 hradio 15 1 1 6 \$0-sound-gen-mod-s3 \$0-sound-gen-mod-r3
OFF_EXP_LIN_1_2_4 0 -8 0 10 -262144 -1 -1 0;
#X obj 376 178 hradio 15 1 1 6 \$0-sound-gen-mod-s4 \$0-sound-gen-mod-r4
OFF_EXP_LIN_1_2_3 0 -8 0 10 -262144 -1 -1 0;
#X obj 180 279 tgl 15 1 \$0-sound-gen-low-freq-s2 \$0-sound-gen-low-freq-r2
LFO -1 -7 0 10 -262144 -1 -1 0 1;
#X obj 264 279 tgl 15 1 \$0-sound-gen-low-freq-s3 \$0-sound-gen-low-freq-r3
LFO -1 -7 0 10 -262144 -1 -1 0 1;
#X obj 348 280 tgl 15 1 \$0-sound-gen-low-freq-s4 \$0-sound-gen-low-freq-r4
LFO -1 -7 0 10 -262144 -1 -1 0 1;
#X obj 1421 637 *~ 127;
#X obj 1421 663 mtof~;
#X obj 1421 609 r~ \$0-sound-gen-inlet1;
#X obj 1624 641 *~ 12543.9;
#X obj 1421 726 s~ \$0-sound-gen-exp-s1;
#X obj 1624 702 s~ \$0-sound-gen-lin-s1;
#X obj 1239 242 r~ \$0-sound-gen-exp-s1;
#X obj 1250 273 r~ \$0-sound-gen-lin-s1;
#X obj 1421 694 *~;
#X obj 1624 675 *~;
#X obj 1864 336 quad-sound-generator-gen;
#X obj 2174 266 select 0 1 2 3 4 5;
#X msg 2215 308 EXP;
#X msg 2270 307 LIN;
#X msg 2373 306 3;
#X msg 2426 306 4;
#X obj 1920 506 quad-sound-generator-router;
#X obj 1920 400 r~ \$0-channel-1;
#X msg 2174 308 OFF;
#X msg 2174 341 0;
#X msg 2216 342 -1;
#X msg 2271 343 -2;
#X obj 1959 423 r~ \$0-channel-2;
#X obj 1999 448 r~ \$0-channel-3;
#X obj 2039 471 r~ \$0-channel-4;
#X obj 1920 542 *~ 1500;
#X obj 2190 564 == 1;
#X obj 2394 562 == 2;
#X obj 2175 641 *~ 127;
#X obj 2175 667 mtof~;
#X obj 2380 645 *~ 12543.9;
#X obj 2175 698 *~;
#X obj 2380 679 *~;
#X text 1863 86 Channel 2;
#X obj 1864 119 r \$0-sound-gen-freq-s2;
#X obj 1899 152 r \$0-sound-gen-low-freq-s2;
#X obj 1935 182 r \$0-sound-gen-w-s2;
#X obj 1920 570 s~ \$0-sound-gen-channel-mod2;
#X obj 1971 211 r~ \$0-sound-gen-channel-mod2;
#X obj 1165 571 s~ \$0-sound-gen-channel-mod1;
#X obj 1216 212 r~ \$0-sound-gen-channel-mod1;
#X obj 1993 241 r~ \$0-sound-gen-exp-s2;
#X obj 2005 272 r~ \$0-sound-gen-lin-s2;
#X obj 2005 302 r \$0-sound-gen-l-s2;
#X obj 1864 373 s~ \$0-channel-2;
#X obj 2174 231 r \$0-sound-gen-mod-s2;
#X obj 2190 529 r \$0-sound-gen-mod-s2;
#X obj 2175 613 r~ \$0-sound-gen-inlet2;
#X obj 2175 730 s~ \$0-sound-gen-exp-s2;
#X obj 2380 706 s~ \$0-sound-gen-lin-s2;
#X msg 2309 306 1;
#X msg 1419 347 0;
#X msg 1460 346 -1;
#X msg 1515 347 -2;
#X obj 2622 327 quad-sound-generator-gen;
#X obj 2932 257 select 0 1 2 3 4 5;
#X msg 2973 299 EXP;
#X msg 3028 298 LIN;
#X msg 3184 297 4;
#X obj 2678 497 quad-sound-generator-router;
#X obj 2678 391 r~ \$0-channel-1;
#X msg 2932 299 OFF;
#X msg 2932 332 0;
#X msg 2974 333 -1;
#X msg 3029 334 -2;
#X obj 2717 414 r~ \$0-channel-2;
#X obj 2757 439 r~ \$0-channel-3;
#X obj 2797 462 r~ \$0-channel-4;
#X obj 2678 533 *~ 1500;
#X obj 2948 555 == 1;
#X obj 3152 553 == 2;
#X obj 2933 621 *~ 127;
#X obj 2933 647 mtof~;
#X obj 3137 626 *~ 12543.9;
#X obj 2933 678 *~;
#X obj 3137 660 *~;
#X msg 3067 297 1;
#X text 2621 77 Channel 3;
#X obj 2622 110 r \$0-sound-gen-freq-s3;
#X obj 2657 143 r \$0-sound-gen-low-freq-s3;
#X obj 2693 173 r \$0-sound-gen-w-s3;
#X obj 2729 202 r~ \$0-sound-gen-channel-mod3;
#X obj 2751 232 r~ \$0-sound-gen-exp-s3;
#X obj 2763 263 r~ \$0-sound-gen-lin-s3;
#X obj 2763 293 r \$0-sound-gen-l-s3;
#X obj 2622 364 s~ \$0-channel-3;
#X obj 2678 561 s~ \$0-sound-gen-channel-mod3;
#X obj 2932 222 r \$0-sound-gen-mod-s3;
#X obj 2948 520 r \$0-sound-gen-mod-s3;
#X obj 2933 593 r~ \$0-sound-gen-inlet3;
#X obj 2933 710 s~ \$0-sound-gen-exp-s3;
#X obj 3137 687 s~ \$0-sound-gen-lin-s3;
#X msg 3131 297 2;
#X obj 3410 321 quad-sound-generator-gen;
#X obj 3720 251 select 0 1 2 3 4 5;
#X msg 3761 293 EXP;
#X msg 3816 292 LIN;
#X obj 3466 491 quad-sound-generator-router;
#X obj 3466 385 r~ \$0-channel-1;
#X msg 3720 293 OFF;
#X msg 3720 326 0;
#X msg 3762 327 -1;
#X msg 3817 328 -2;
#X obj 3505 408 r~ \$0-channel-2;
#X obj 3545 433 r~ \$0-channel-3;
#X obj 3585 456 r~ \$0-channel-4;
#X obj 3466 527 *~ 1500;
#X obj 3736 549 == 1;
#X obj 3940 547 == 2;
#X obj 3724 618 *~ 127;
#X obj 3724 644 mtof~;
#X obj 3927 622 *~ 12543.9;
#X obj 3724 675 *~;
#X obj 3927 656 *~;
#X msg 3855 291 1;
#X msg 3919 291 2;
#X text 3409 71 Channel 4;
#X obj 3410 104 r \$0-sound-gen-freq-s4;
#X obj 3445 137 r \$0-sound-gen-low-freq-s4;
#X obj 3481 167 r \$0-sound-gen-w-s4;
#X obj 3517 196 r~ \$0-sound-gen-channel-mod4;
#X obj 3539 226 r~ \$0-sound-gen-exp-s4;
#X obj 3551 257 r~ \$0-sound-gen-lin-s4;
#X obj 3551 287 r \$0-sound-gen-l-s4;
#X obj 3410 358 s~ \$0-channel-4;
#X obj 3466 555 s~ \$0-sound-gen-channel-mod4;
#X obj 3736 514 r \$0-sound-gen-mod-s4;
#X obj 3724 590 r~ \$0-sound-gen-inlet4;
#X obj 3724 707 s~ \$0-sound-gen-exp-s4;
#X obj 3927 683 s~ \$0-sound-gen-lin-s4;
#X obj 3720 216 r \$0-sound-gen-mod-s4;
#X msg 3972 290 3;
#X obj 86 434 r~ \$0-sound-gen-inletA;
#X obj 102 462 r~ \$0-channel-1;
#X obj 120 493 r~ \$0-channel-3;
#X obj 234 436 r~ \$0-sound-gen-inletB;
#X obj 234 561 outlet~ B;
#X obj 250 464 r~ \$0-channel-2;
#X obj 268 495 r~ \$0-channel-4;
#X obj 381 497 r~ \$0-sound-gen-inlet1;
#X obj 398 524 r~ \$0-channel-1;
#X obj 532 498 r~ \$0-sound-gen-inlet2;
#X obj 549 525 r~ \$0-channel-2;
#X obj 532 561 outlet~ two;
#X obj 680 499 r~ \$0-sound-gen-inlet3;
#X obj 697 526 r~ \$0-channel-3;
#X obj 679 562 outlet~ three;
#X obj 829 499 r~ \$0-sound-gen-inlet4;
#X obj 846 526 r~ \$0-channel-4;
#X obj 828 562 outlet~ four;
#X text 511 344 Test with microphone input as external source;
#X obj 516 381 adc~;
#X obj 671 25 declare -lib moonlib;
#X obj 827 198 tabwrite~ \$0-qsg-array;
#X text 67 102 A;
#X text 134 102 B;
#X text 219 101 1;
#X text 302 101 2;
#X text 387 101 3;
#X text 468 101 4;
#X text 67 400 A;
#X text 134 400 B;
#X text 219 399 1;
#X text 303 399 2;
#X text 388 399 3;
#X text 468 399 4;
#X connect 4 0 54 0;
#X connect 5 0 55 0;
#X connect 6 0 53 0;
#X connect 7 0 56 0;
#X connect 8 0 57 0;
#X connect 9 0 58 0;
#X connect 12 0 16 0;
#X connect 13 0 224 0;
#X connect 14 0 13 0;
#X connect 16 0 35 0;
#X connect 17 0 16 2;
#X connect 18 0 19 0;
#X connect 19 0 37 0;
#X connect 19 1 20 0;
#X connect 19 2 21 0;
#X connect 19 3 38 0;
#X connect 19 4 22 0;
#X connect 19 5 23 0;
#X connect 20 0 123 0;
#X connect 21 0 124 0;
#X connect 22 0 24 4;
#X connect 23 0 24 4;
#X connect 24 0 59 0;
#X connect 25 0 16 4;
#X connect 36 0 24 0;
#X connect 37 0 122 0;
#X connect 38 0 24 4;
#X connect 39 0 24 1;
#X connect 40 0 24 2;
#X connect 41 0 24 3;
#X connect 42 0 47 0;
#X connect 43 0 47 0;
#X connect 43 0 224 0;
#X connect 44 0 47 0;
#X connect 45 0 47 0;
#X connect 47 0 50 0;
#X connect 48 0 49 0;
#X connect 49 0 47 1;
#X connect 52 0 16 1;
#X connect 59 0 110 0;
#X connect 62 0 79 1;
#X connect 63 0 64 0;
#X connect 63 0 62 0;
#X connect 64 0 80 1;
#X connect 71 0 72 0;
#X connect 72 0 79 0;
#X connect 73 0 71 0;
#X connect 73 0 74 0;
#X connect 74 0 80 0;
#X connect 77 0 16 3;
#X connect 78 0 16 3;
#X connect 79 0 75 0;
#X connect 80 0 76 0;
#X connect 81 0 115 0;
#X connect 82 0 89 0;
#X connect 82 1 83 0;
#X connect 82 2 84 0;
#X connect 82 3 121 0;
#X connect 82 4 85 0;
#X connect 82 5 86 0;
#X connect 83 0 91 0;
#X connect 84 0 92 0;
#X connect 85 0 87 4;
#X connect 86 0 87 4;
#X connect 87 0 96 0;
#X connect 88 0 87 0;
#X connect 89 0 90 0;
#X connect 90 0 87 4;
#X connect 91 0 87 4;
#X connect 92 0 87 4;
#X connect 93 0 87 1;
#X connect 94 0 87 2;
#X connect 95 0 87 3;
#X connect 96 0 108 0;
#X connect 97 0 102 1;
#X connect 98 0 103 1;
#X connect 99 0 100 0;
#X connect 100 0 102 0;
#X connect 101 0 103 0;
#X connect 102 0 119 0;
#X connect 103 0 120 0;
#X connect 105 0 81 0;
#X connect 106 0 81 1;
#X connect 107 0 81 2;
#X connect 109 0 81 3;
#X connect 111 0 16 3;
#X connect 112 0 81 3;
#X connect 113 0 81 3;
#X connect 114 0 81 4;
#X connect 116 0 82 0;
#X connect 117 0 98 0;
#X connect 117 0 97 0;
#X connect 118 0 99 0;
#X connect 118 0 101 0;
#X connect 121 0 87 4;
#X connect 122 0 24 4;
#X connect 123 0 24 4;
#X connect 124 0 24 4;
#X connect 125 0 156 0;
#X connect 126 0 132 0;
#X connect 126 1 127 0;
#X connect 126 2 128 0;
#X connect 126 3 147 0;
#X connect 126 4 163 0;
#X connect 126 5 129 0;
#X connect 127 0 134 0;
#X connect 128 0 135 0;
#X connect 129 0 130 4;
#X connect 130 0 139 0;
#X connect 131 0 130 0;
#X connect 132 0 133 0;
#X connect 133 0 130 4;
#X connect 134 0 130 4;
#X connect 135 0 130 4;
#X connect 136 0 130 1;
#X connect 137 0 130 2;
#X connect 138 0 130 3;
#X connect 139 0 157 0;
#X connect 140 0 145 1;
#X connect 141 0 146 1;
#X connect 142 0 143 0;
#X connect 143 0 145 0;
#X connect 144 0 146 0;
#X connect 145 0 161 0;
#X connect 146 0 162 0;
#X connect 147 0 130 4;
#X connect 149 0 125 0;
#X connect 150 0 125 1;
#X connect 151 0 125 2;
#X connect 152 0 125 3;
#X connect 153 0 125 3;
#X connect 154 0 125 3;
#X connect 155 0 125 4;
#X connect 158 0 126 0;
#X connect 159 0 141 0;
#X connect 159 0 140 0;
#X connect 160 0 142 0;
#X connect 160 0 144 0;
#X connect 163 0 130 4;
#X connect 164 0 195 0;
#X connect 165 0 170 0;
#X connect 165 1 166 0;
#X connect 165 2 167 0;
#X connect 165 3 185 0;
#X connect 165 4 186 0;
#X connect 165 5 202 0;
#X connect 166 0 172 0;
#X connect 167 0 173 0;
#X connect 168 0 177 0;
#X connect 169 0 168 0;
#X connect 170 0 171 0;
#X connect 171 0 168 4;
#X connect 172 0 168 4;
#X connect 173 0 168 4;
#X connect 174 0 168 1;
#X connect 175 0 168 2;
#X connect 176 0 168 3;
#X connect 177 0 196 0;
#X connect 178 0 183 1;
#X connect 179 0 184 1;
#X connect 180 0 181 0;
#X connect 181 0 183 0;
#X connect 182 0 184 0;
#X connect 183 0 199 0;
#X connect 184 0 200 0;
#X connect 185 0 168 4;
#X connect 186 0 168 4;
#X connect 188 0 164 0;
#X connect 189 0 164 1;
#X connect 190 0 164 2;
#X connect 191 0 164 3;
#X connect 192 0 164 3;
#X connect 193 0 164 3;
#X connect 194 0 164 4;
#X connect 197 0 179 0;
#X connect 197 0 178 0;
#X connect 198 0 180 0;
#X connect 198 0 182 0;
#X connect 201 0 165 0;
#X connect 202 0 168 4;
#X connect 203 0 10 0;
#X connect 204 0 10 0;
#X connect 205 0 10 0;
#X connect 206 0 207 0;
#X connect 208 0 207 0;
#X connect 209 0 207 0;
#X connect 210 0 11 0;
#X connect 211 0 11 0;
#X connect 212 0 214 0;
#X connect 213 0 214 0;
#X connect 215 0 217 0;
#X connect 216 0 217 0;
#X connect 218 0 220 0;
#X connect 219 0 220 0;
#X coords 0 -1 1 1 430 320 1 50 100;
