#N canvas 720 25 720 847 12;
#X obj 469 653 outlet~;
#X obj 362 364 osc~;
#X obj 469 369 phasor~;
#X obj 469 396 expr~ $v1 > 0.5;
#X obj 469 423 *~ 2;
#X obj 469 448 -~ 1;
#X obj 383 137 / 127;
#X obj 363 485 *~;
#X obj 469 485 *~;
#X obj 383 169 * -1;
#X obj 383 194 + 1;
#X obj 381 448 line~;
#X obj 381 424 pack 0 50;
#X obj 523 448 line~;
#X obj 523 424 pack 0 50;
#X obj 383 77 inlet w;
#X obj 719 78 inlet l;
#X obj 494 566 / 127;
#X obj 469 608 *~ 1;
#X obj 46 77 inlet freq_knob;
#X obj 206 302 mtof~;
#X obj 525 157 osc~;
#X floatatom 525 111 5 0 0 0 - - -;
#X obj 424 546 *~ 1;
#X floatatom 571 192 5 0 0 0 - - -;
#X obj 699 1 vsl 15 128 0 127 0 0 empty empty empty 0 -9 0 10 -262144
-1 -1 0 1;
#X obj 697 156 / 127;
#X obj 525 187 *~;
#X obj 525 230 *~ 1500;
#X obj 485 79 inlet~ modulating_input;
#X obj 206 77 inlet low_freq;
#X obj 46 129 - 127;
#X obj 206 130 == 0;
#X obj 272 129 == 1;
#X obj 206 167 t b f;
#X obj 272 163 t b f;
#X obj 206 210 f;
#X obj 272 208 f;
#X obj 206 254 spigot;
#X obj 272 255 spigot;
#X connect 1 0 7 0;
#X connect 2 0 3 0;
#X connect 3 0 4 0;
#X connect 4 0 5 0;
#X connect 5 0 8 0;
#X connect 6 0 9 0;
#X connect 6 0 14 0;
#X connect 7 0 23 0;
#X connect 8 0 23 0;
#X connect 9 0 10 0;
#X connect 10 0 12 0;
#X connect 11 0 7 1;
#X connect 12 0 11 0;
#X connect 13 0 8 1;
#X connect 14 0 13 0;
#X connect 15 0 6 0;
#X connect 16 0 17 0;
#X connect 17 0 18 1;
#X connect 18 0 0 0;
#X connect 19 0 31 0;
#X connect 19 0 36 0;
#X connect 20 0 2 0;
#X connect 20 0 1 0;
#X connect 21 0 27 0;
#X connect 22 0 21 0;
#X connect 23 0 18 0;
#X connect 24 0 28 1;
#X connect 25 0 26 0;
#X connect 26 0 27 1;
#X connect 27 0 28 0;
#X connect 29 0 1 0;
#X connect 29 0 2 0;
#X connect 30 0 32 0;
#X connect 30 0 33 0;
#X connect 31 0 37 0;
#X connect 32 0 34 0;
#X connect 33 0 35 0;
#X connect 34 0 36 0;
#X connect 34 1 38 1;
#X connect 35 0 37 0;
#X connect 35 1 39 1;
#X connect 36 0 38 0;
#X connect 37 0 39 0;
#X connect 38 0 20 0;
#X connect 39 0 20 0;
#X coords 0 0 1 1 85 60 0;
