#N canvas 0 25 1440 847 10;
#X declare moonlib;
#X obj 101 103 cnv 15 428 314 empty empty QUAD-SOUND-GENERATOR 20 12
0 14 -233017 -66577 0;
#X obj 179 321 moonlib/mknob 25 100 0 127 0 0 \$0-sound-gen-l-s1 \$0-sound-gen-l-r1
L -2 -6 0 8 -258113 -262144 -45076 4600 1;
#X obj 179 231 moonlib/mknob 25 100 0 127 0 0 \$0-sound-gen-freq-s1
\$0-sound-gen-freq-r1 F -2 -6 0 8 -1 -262144 -1 2900 1;
#X obj 178 276 moonlib/mknob 25 100 0 127 0 0 \$0-sound-gen-w-s1 \$0-sound-gen-w-r1
W -2 -6 0 8 -1 -262144 -1 0 1;
#X obj 93 24 inlet~ A;
#X obj 162 25 inlet~ B;
#X obj 232 26 inlet~ one;
#X obj 311 26 inlet~ two;
#X obj 393 26 inlet~ three;
#X obj 490 26 inlet~ four;
#X obj 85 508 outlet~ A;
#X obj 154 509 outlet~ B;
#X obj 245 509 outlet~ one;
#X obj 334 510 outlet~ two;
#X obj 426 510 outlet~ three;
#X obj 533 511 outlet~ four;
#X obj 721 118 r \$0-sound-gen-freq-s1;
#X obj 438 610 metro 500;
#X obj 438 589 tgl 15 0 empty empty empty 17 7 0 10 -262144 -1 -1 1
1;
#N canvas 0 50 450 250 (subpatch) 0;
#X array array2 100 float 3;
#A 0 -0.14881 -0.148849 -0.148888 -0.148927 -0.148967 -0.149006 -0.149045
-0.149084 -0.149123 -0.149162 -0.149201 -0.14924 -0.149279 -0.149318
-0.149357 -0.149396 -0.149435 -0.149474 -0.149513 -0.149552 -0.149591
-0.14963 -0.149669 -0.149709 -0.149748 -0.149787 -0.149826 -0.149865
-0.149904 -0.149943 -0.149982 -0.150021 -0.15006 -0.150099 -0.150138
-0.150177 -0.150216 -0.150255 -0.150294 -0.150333 -0.150372 -0.150412
-0.150451 -0.15049 -0.150529 -0.150568 -0.150607 -0.150646 -0.150685
-0.150724 -0.150763 -0.150802 -0.150841 -0.15088 -0.150919 -0.150958
-0.150997 -0.151036 -0.151075 -0.151114 -0.151154 -0.151193 -0.151232
-0.151271 -0.15131 -0.151349 -0.151388 -0.151427 -0.151466 -0.151505
-0.151544 -0.151583 -0.151622 -0.151661 -0.1517 -0.151739 -0.151778
-0.151817 -0.151856 -0.151896 -0.151935 -0.151974 -0.152013 -0.152052
-0.152091 -0.15213 -0.152169 -0.152208 -0.152247 -0.152286 -0.152325
-0.152364 -0.152403 -0.152442 -0.152481 -0.15252 -0.152559 -0.152598
-0.152638 -0.152677;
#X coords 0 1 100 -1 200 140 1 0 0;
#X restore 437 675 graph;
#X obj 438 638 tabwrite~ array2;
#X obj 720 332 quad-sound-generator-gen;
#X obj 791 178 r \$0-sound-gen-w-s1;
#X obj 1030 227 r \$0-sound-gen-mod-s1;
#X obj 1030 262 select 0 1 2 3 4 5;
#X msg 1071 304 EXP;
#X msg 1126 303 LIN;
#X msg 1229 302 3;
#X msg 1282 302 4;
#X obj 776 502 quad-sound-generator-router;
#X obj 861 298 r \$0-sound-gen-l-s1;
#X obj 257 324 moonlib/mknob 25 100 0 127 0 0 \$0-sound-gen-l-s2 \$0-sound-gen-l-r2
L -2 -6 0 8 -258113 -262144 -45076 0 1;
#X obj 257 234 moonlib/mknob 25 100 0 127 0 0 \$0-sound-gen-freq-s2
\$0-sound-gen-freq-r2 F -2 -6 0 8 -1 -262144 -1 5900 1;
#X obj 256 279 moonlib/mknob 25 100 0 127 0 0 \$0-sound-gen-w-s2 \$0-sound-gen-w-r2
W -2 -6 0 8 -1 -262144 -1 0 1;
#X obj 352 325 moonlib/mknob 25 100 0 127 0 0 \$0-sound-gen-l-s3 \$0-sound-gen-l-r3
L -2 -6 0 8 -258113 -262144 -45076 0 1;
#X obj 352 235 moonlib/mknob 25 100 0 127 0 0 \$0-sound-gen-freq-s3
\$0-sound-gen-freq-r3 F -2 -6 0 8 -1 -262144 -1 0 1;
#X obj 351 280 moonlib/mknob 25 100 0 127 0 0 \$0-sound-gen-w-s3 \$0-sound-gen-w-r3
W -2 -6 0 8 -1 -262144 -1 0 1;
#X obj 427 323 moonlib/mknob 25 100 0 127 0 0 \$0-sound-gen-l-s4 \$0-sound-gen-l-r4
L -2 -6 0 8 -258113 -262144 -45076 0 1;
#X obj 427 233 moonlib/mknob 25 100 0 127 0 0 \$0-sound-gen-freq-s4
\$0-sound-gen-freq-r4 F -2 -6 0 8 -1 -262144 -1 3900 1;
#X obj 426 278 moonlib/mknob 25 100 0 127 0 0 \$0-sound-gen-w-s4 \$0-sound-gen-w-r4
W -2 -6 0 8 -1 -262144 -1 2500 1;
#X obj 720 369 s~ \$0-channel-1;
#X obj 776 396 r~ \$0-channel-1;
#X msg 1030 304 OFF;
#X msg 1165 302 2;
#X obj 815 419 r~ \$0-channel-2;
#X obj 855 444 r~ \$0-channel-3;
#X obj 895 467 r~ \$0-channel-4;
#X obj 86 590 r~ \$0-channel-1;
#X obj 197 589 r~ \$0-channel-2;
#X obj 197 624 r~ \$0-channel-3;
#X obj 87 624 r~ \$0-channel-4;
#X text 719 82 Channel 1;
#X obj 165 703 *~;
#X obj 215 662 hsl 128 15 0 127 0 0 empty empty empty -2 -8 0 10 -262144
-1 -1 4400 1;
#X obj 212 687 / 127;
#X obj 165 743 dac~;
#X obj 671 25 declare moonlib;
#X text 83 782 test with microphone input as external source;
#X obj 151 235 tgl 15 0 \$0-sound-gen-low-freq-s1 \$0-sound-gen-low-freq-r1
empty 0 -7 0 10 -262144 -1 -1 0 1;
#X obj 755 148 r \$0-sound-gen-low-freq-s1;
#X obj 232 47 s~ \$0-sound-gen-inlet1;
#X obj 93 47 s~ \$0-sound-gen-inletA;
#X obj 162 69 s~ \$0-sound-gen-inletB;
#X obj 311 70 s~ \$0-sound-gen-inlet2;
#X obj 393 47 s~ \$0-sound-gen-inlet3;
#X obj 490 69 s~ \$0-sound-gen-inlet4;
#X obj 85 460 r~ \$0-sound-gen-outletA;
#X obj 244 461 r~ \$0-sound-gen-outlet1;
#X obj 154 483 r~ \$0-sound-gen-outletB;
#X obj 426 462 r~ \$0-sound-gen-outlet3;
#X obj 334 484 r~ \$0-sound-gen-outlet2;
#X obj 533 483 r~ \$0-sound-gen-outlet4;
#X obj 776 538 *~ 1500;
#X text 86 722 For debug;
#X obj 106 153 hradio 15 1 0 6 \$0-sound-gen-mod-s1 empty OFF_EXP_LIN_2_3_4
0 -8 0 10 -262144 -1 -1 0;
#X obj 1046 560 == 1;
#X obj 1046 591 f;
#X obj 1046 525 r \$0-sound-gen-mod-s1;
#X obj 1250 558 == 2;
#X obj 1250 593 f;
#X obj 213 153 hradio 15 1 0 6 \$0-sound-gen-mod-s2 empty OFF_EXP_LIN_1_3_4
0 -8 0 10 -262144 -1 -1 0;
#X obj 321 153 hradio 15 1 0 6 \$0-sound-gen-mod-s3 empty OFF_EXP_LIN_1_2_4
0 -8 0 10 -262144 -1 -1 2;
#X obj 427 153 hradio 15 1 0 6 \$0-sound-gen-mod-s4 empty OFF_EXP_LIN_1_2_3
0 -8 0 10 -262144 -1 -1 2;
#X obj 234 239 tgl 15 0 \$0-sound-gen-low-freq-s2 \$0-sound-gen-low-freq-r2
empty 0 -7 0 10 -262144 -1 -1 0 1;
#X obj 327 238 tgl 15 0 \$0-sound-gen-low-freq-s3 \$0-sound-gen-low-freq-r3
empty 0 -7 0 10 -262144 -1 -1 0 1;
#X obj 402 239 tgl 15 0 \$0-sound-gen-low-freq-s4 \$0-sound-gen-low-freq-r4
empty 0 -7 0 10 -262144 -1 -1 0 1;
#X obj 1099 655 *~ 127;
#X obj 1099 681 mtof~;
#X obj 1099 627 r~ \$0-sound-gen-inlet1;
#X obj 1304 659 *~ 12543.9;
#X obj 1099 744 s~ \$0-sound-gen-exp-s1;
#X obj 1304 720 s~ \$0-sound-gen-lin-s1;
#X obj 850 237 r~ \$0-sound-gen-exp-s1;
#X obj 861 268 r~ \$0-sound-gen-lin-s1;
#X obj 1012 716 env~;
#X floatatom 1012 746 5 0 0 0 - - -;
#X obj 1249 698 env~;
#X floatatom 1249 728 5 0 0 0 - - -;
#X obj 1099 712 *~;
#X obj 1046 624 t b f;
#X obj 1250 630 t b f;
#X obj 1304 693 *~;
#X obj 1475 331 quad-sound-generator-gen;
#X obj 1785 261 select 0 1 2 3 4 5;
#X msg 1826 303 EXP;
#X msg 1881 302 LIN;
#X msg 1984 301 3;
#X msg 2037 301 4;
#X obj 1531 501 quad-sound-generator-router;
#X obj 1531 395 r~ \$0-channel-1;
#X msg 1785 303 OFF;
#X msg 1785 336 0;
#X msg 1827 337 -1;
#X msg 1882 338 -2;
#X obj 1570 418 r~ \$0-channel-2;
#X obj 1610 443 r~ \$0-channel-3;
#X obj 1650 466 r~ \$0-channel-4;
#X obj 1531 537 *~ 1500;
#X obj 1801 559 == 1;
#X obj 1801 590 f;
#X obj 2005 557 == 2;
#X obj 2005 592 f;
#X obj 1854 654 *~ 127;
#X obj 1854 680 mtof~;
#X obj 2059 658 *~ 12543.9;
#X obj 1767 715 env~;
#X floatatom 1767 745 5 0 0 0 - - -;
#X obj 2004 697 env~;
#X floatatom 2004 727 5 0 0 0 - - -;
#X obj 1854 711 *~;
#X obj 1801 623 t b f;
#X obj 2005 629 t b f;
#X obj 2059 692 *~;
#X text 1474 81 Channel 2;
#X obj 1475 114 r \$0-sound-gen-freq-s2;
#X obj 1510 147 r \$0-sound-gen-low-freq-s2;
#X obj 1546 177 r \$0-sound-gen-w-s2;
#X obj 1531 565 s~ \$0-sound-gen-channel-mod2;
#X obj 1582 206 r~ \$0-sound-gen-channel-mod2;
#X obj 776 566 s~ \$0-sound-gen-channel-mod1;
#X obj 827 207 r~ \$0-sound-gen-channel-mod1;
#X obj 1604 236 r~ \$0-sound-gen-exp-s2;
#X obj 1616 267 r~ \$0-sound-gen-lin-s2;
#X obj 1616 297 r \$0-sound-gen-l-s2;
#X obj 1475 368 s~ \$0-channel-2;
#X obj 1785 226 r \$0-sound-gen-mod-s2;
#X obj 1801 524 r \$0-sound-gen-mod-s2;
#X obj 1854 626 r~ \$0-sound-gen-inlet2;
#X obj 1854 743 s~ \$0-sound-gen-exp-s2;
#X obj 2059 719 s~ \$0-sound-gen-lin-s2;
#X msg 1920 301 1;
#X msg 1030 342 0;
#X msg 1071 341 -1;
#X msg 1126 342 -2;
#X connect 4 0 61 0;
#X connect 5 0 62 0;
#X connect 6 0 60 0;
#X connect 7 0 63 0;
#X connect 8 0 64 0;
#X connect 9 0 65 0;
#X connect 16 0 21 0;
#X connect 17 0 20 0;
#X connect 18 0 17 0;
#X connect 21 0 40 0;
#X connect 22 0 21 2;
#X connect 23 0 24 0;
#X connect 24 0 42 0;
#X connect 24 1 25 0;
#X connect 24 2 26 0;
#X connect 24 3 43 0;
#X connect 24 4 27 0;
#X connect 24 5 28 0;
#X connect 25 0 152 0;
#X connect 26 0 153 0;
#X connect 27 0 29 4;
#X connect 28 0 29 4;
#X connect 29 0 72 0;
#X connect 30 0 21 4;
#X connect 41 0 29 0;
#X connect 42 0 151 0;
#X connect 43 0 29 4;
#X connect 44 0 29 1;
#X connect 45 0 29 2;
#X connect 46 0 29 3;
#X connect 47 0 52 0;
#X connect 48 0 52 0;
#X connect 48 0 20 0;
#X connect 49 0 52 0;
#X connect 50 0 52 0;
#X connect 52 0 55 0;
#X connect 53 0 54 0;
#X connect 54 0 52 1;
#X connect 59 0 21 1;
#X connect 66 0 10 0;
#X connect 67 0 12 0;
#X connect 68 0 11 0;
#X connect 69 0 14 0;
#X connect 70 0 13 0;
#X connect 71 0 15 0;
#X connect 72 0 139 0;
#X connect 75 0 76 0;
#X connect 76 0 99 0;
#X connect 77 0 78 0;
#X connect 77 0 75 0;
#X connect 78 0 79 0;
#X connect 79 0 100 0;
#X connect 86 0 87 0;
#X connect 87 0 98 0;
#X connect 88 0 86 0;
#X connect 88 0 89 0;
#X connect 89 0 101 0;
#X connect 92 0 21 3;
#X connect 93 0 21 3;
#X connect 94 0 95 0;
#X connect 96 0 97 0;
#X connect 98 0 90 0;
#X connect 98 0 94 0;
#X connect 99 0 98 0;
#X connect 99 1 98 1;
#X connect 100 0 101 0;
#X connect 100 1 101 1;
#X connect 101 0 96 0;
#X connect 101 0 91 0;
#X connect 102 0 144 0;
#X connect 103 0 110 0;
#X connect 103 1 104 0;
#X connect 103 2 105 0;
#X connect 103 3 150 0;
#X connect 103 4 106 0;
#X connect 103 5 107 0;
#X connect 104 0 112 0;
#X connect 105 0 113 0;
#X connect 106 0 108 4;
#X connect 107 0 108 4;
#X connect 108 0 117 0;
#X connect 109 0 108 0;
#X connect 110 0 111 0;
#X connect 111 0 108 4;
#X connect 112 0 108 4;
#X connect 113 0 108 4;
#X connect 114 0 108 1;
#X connect 115 0 108 2;
#X connect 116 0 108 3;
#X connect 117 0 137 0;
#X connect 118 0 119 0;
#X connect 119 0 130 0;
#X connect 120 0 121 0;
#X connect 121 0 131 0;
#X connect 122 0 123 0;
#X connect 123 0 129 0;
#X connect 124 0 132 0;
#X connect 125 0 126 0;
#X connect 127 0 128 0;
#X connect 129 0 125 0;
#X connect 129 0 148 0;
#X connect 130 0 129 0;
#X connect 130 1 129 1;
#X connect 131 0 132 0;
#X connect 131 1 132 1;
#X connect 132 0 127 0;
#X connect 132 0 149 0;
#X connect 134 0 102 0;
#X connect 135 0 102 1;
#X connect 136 0 102 2;
#X connect 138 0 102 3;
#X connect 140 0 21 3;
#X connect 141 0 102 3;
#X connect 142 0 102 3;
#X connect 143 0 102 4;
#X connect 145 0 103 0;
#X connect 146 0 120 0;
#X connect 146 0 118 0;
#X connect 147 0 122 0;
#X connect 147 0 124 0;
#X connect 150 0 108 4;
#X connect 151 0 29 4;
#X connect 152 0 29 4;
#X connect 153 0 29 4;
#X coords 0 -1 1 1 430 320 1 100 100;
