#N canvas 0 56 1366 679 10;
#X declare -lib moonlib;
#X obj 51 103 cnv 15 428 314 empty empty QUAD-SOUND-GENERATOR_3002
10 35 0 15 -233017 -66577 0;
#X obj 93 330 moonlib/mknob 25 100 0 127 0 1 \$0-sound-gen-l-s1 \$0-sound-gen-l-r1
Vol 30 12 0 12 -258113 -262144 -45076 0 1;
#X obj 94 227 moonlib/mknob 25 100 0 127 0 1 \$0-sound-gen-freq-s1
\$0-sound-gen-freq-r1 Freq 30 12 0 12 -1 -262144 -1 0 1;
#X obj 93 277 moonlib/mknob 25 100 0 127 0 1 \$0-sound-gen-w-s1 \$0-sound-gen-w-r1
Wave 30 12 0 12 -1 -262144 -1 0 1;
#X obj 93 24 inlet~ A;
#X obj 162 25 inlet~ B;
#X obj 232 26 inlet~ one;
#X obj 311 26 inlet~ two;
#X obj 393 26 inlet~ three;
#X obj 490 26 inlet~ four;
#X obj 86 559 outlet~ A;
#X obj 391 500 outlet~ one;
#X obj 1110 123 r \$0-sound-gen-freq-s1;
#X obj 827 170 metro 500;
#X obj 827 149 tgl 15 1 empty empty empty 17 7 0 10 -262144 -1 -1 1
1;
#N canvas 0 50 450 250 (subpatch) 0;
#X array \$0-qsg-array 100 float 3;
#A 0 0 0 0 0 0 0 0 0 0 0 0 0 0 0 0 0 0 0 0 0 0 0 0 0 0 0 0 0 0 0 0
0 0 0 0 0 0 0 0 0 0 0 0 0 0 0 0 0 0 0 0 0 0 0 0 0 0 0 0 0 0 0 0 0 0
0 0 0 0 0 0 0 0 0 0 0 0 0 0 0 0 0 0 0 0 0 0 0 0 0 0 0 0 0 0 0 0 0 0
0;
#X coords 0 1 100 -1 200 140 1 0 0;
#X restore 826 235 graph;
#X obj 1109 337 quad-sound-generator-gen;
#X obj 1180 183 r \$0-sound-gen-w-s1;
#X obj 1419 232 r \$0-sound-gen-mod-s1;
#X obj 1419 267 select 0 1 2 3 4 5;
#X msg 1460 309 EXP;
#X msg 1515 308 LIN;
#X msg 1618 307 3;
#X msg 1671 307 4;
#X obj 1165 507 quad-sound-generator-router;
#X obj 1250 303 r \$0-sound-gen-l-s1;
#X obj 193 330 moonlib/mknob 25 100 0 127 0 1 \$0-sound-gen-l-s2 \$0-sound-gen-l-r2
Vol 30 12 0 12 -258113 -262144 -45076 0 1;
#X obj 194 227 moonlib/mknob 25 100 0 127 0 1 \$0-sound-gen-freq-s2
\$0-sound-gen-freq-r2 Freq 30 12 0 12 -1 -262144 -1 0 1;
#X obj 193 277 moonlib/mknob 25 100 0 127 0 1 \$0-sound-gen-w-s2 \$0-sound-gen-w-r2
Wave 30 12 0 12 -1 -262144 -1 0 1;
#X obj 301 330 moonlib/mknob 25 100 0 127 0 1 \$0-sound-gen-l-s3 \$0-sound-gen-l-r3
Vol 30 12 0 12 -258113 -262144 -45076 0 1;
#X obj 302 227 moonlib/mknob 25 100 0 127 0 1 \$0-sound-gen-freq-s3
\$0-sound-gen-freq-r3 Freq 30 12 0 12 -1 -262144 -1 0 1;
#X obj 301 277 moonlib/mknob 25 100 0 127 0 1 \$0-sound-gen-w-s3 \$0-sound-gen-w-r3
Wave 30 12 0 12 -1 -262144 -1 0 1;
#X obj 403 330 moonlib/mknob 25 100 0 127 0 1 \$0-sound-gen-l-s4 \$0-sound-gen-l-r4
Vol 30 12 0 12 -258113 -262144 -45076 0 1;
#X obj 403 227 moonlib/mknob 25 100 0 127 0 1 \$0-sound-gen-freq-s4
\$0-sound-gen-freq-r4 Freq 30 12 0 12 -1 -262144 -1 0 1;
#X obj 403 277 moonlib/mknob 25 100 0 127 0 1 \$0-sound-gen-w-s4 \$0-sound-gen-w-r4
Wave 30 12 0 12 -1 -262144 -1 0 1;
#X obj 1109 374 s~ \$0-channel-1;
#X obj 1165 401 r~ \$0-channel-1;
#X msg 1419 309 OFF;
#X msg 1554 307 2;
#X obj 1204 424 r~ \$0-channel-2;
#X obj 1244 449 r~ \$0-channel-3;
#X obj 1284 472 r~ \$0-channel-4;
#X obj 514 152 r~ \$0-channel-1;
#X obj 625 151 r~ \$0-channel-2;
#X obj 625 186 r~ \$0-channel-3;
#X obj 515 186 r~ \$0-channel-4;
#X text 1108 87 Channel 1;
#X obj 593 265 *~;
#X obj 628 220 hsl 128 15 0 127 0 0 empty empty empty -2 -8 0 10 -262144
-1 -1 0 1;
#X obj 625 245 / 127;
#X obj 593 305 dac~;
#X obj 74 282 tgl 15 1 \$0-sound-gen-low-freq-s1 \$0-sound-gen-low-freq-r1
LFO 0 -8 0 10 -262144 -1 -1 0 1;
#X obj 1144 153 r \$0-sound-gen-low-freq-s1;
#X obj 232 47 s~ \$0-sound-gen-inlet1;
#X obj 93 47 s~ \$0-sound-gen-inletA;
#X obj 162 69 s~ \$0-sound-gen-inletB;
#X obj 311 70 s~ \$0-sound-gen-inlet2;
#X obj 393 47 s~ \$0-sound-gen-inlet3;
#X obj 490 69 s~ \$0-sound-gen-inlet4;
#X obj 1165 543 *~ 1500;
#X text 514 284 For debug;
#X obj 55 178 hradio 15 1 1 6 \$0-sound-gen-mod-s1 \$0-sound-gen-mod-r1
OFF_EXP_LIN_2_3_4 0 -8 0 10 -262144 -1 -1 0;
#X obj 1435 565 == 1;
#X obj 1435 530 r \$0-sound-gen-mod-s1;
#X obj 1639 563 == 2;
#X obj 162 178 hradio 15 1 1 6 \$0-sound-gen-mod-s2 \$0-sound-gen-mod-r2
OFF_EXP_LIN_1_3_4 0 -8 0 10 -262144 -1 -1 0;
#X obj 270 178 hradio 15 1 1 6 \$0-sound-gen-mod-s3 \$0-sound-gen-mod-r3
OFF_EXP_LIN_1_2_4 0 -8 0 10 -262144 -1 -1 0;
#X obj 376 178 hradio 15 1 1 6 \$0-sound-gen-mod-s4 \$0-sound-gen-mod-r4
OFF_EXP_LIN_1_2_3 0 -8 0 10 -262144 -1 -1 0;
#X obj 173 282 tgl 15 1 \$0-sound-gen-low-freq-s2 \$0-sound-gen-low-freq-r2
LFO 0 -8 0 10 -262144 -1 -1 0 1;
#X obj 280 282 tgl 15 1 \$0-sound-gen-low-freq-s3 \$0-sound-gen-low-freq-r3
LFO 0 -8 0 10 -262144 -1 -1 0 1;
#X obj 382 283 tgl 15 1 \$0-sound-gen-low-freq-s4 \$0-sound-gen-low-freq-r4
LFO 0 -8 0 10 -262144 -1 -1 0 1;
#X obj 1421 637 *~ 127;
#X obj 1421 663 mtof~;
#X obj 1421 609 r~ \$0-sound-gen-inlet1;
#X obj 1624 641 *~ 12543.9;
#X obj 1421 726 s~ \$0-sound-gen-exp-s1;
#X obj 1624 702 s~ \$0-sound-gen-lin-s1;
#X obj 1239 242 r~ \$0-sound-gen-exp-s1;
#X obj 1250 273 r~ \$0-sound-gen-lin-s1;
#X obj 1421 694 *~;
#X obj 1624 675 *~;
#X obj 1864 336 quad-sound-generator-gen;
#X obj 2174 266 select 0 1 2 3 4 5;
#X msg 2215 308 EXP;
#X msg 2270 307 LIN;
#X msg 2373 306 3;
#X msg 2426 306 4;
#X obj 1920 506 quad-sound-generator-router;
#X obj 1920 400 r~ \$0-channel-1;
#X msg 2174 308 OFF;
#X msg 2174 341 0;
#X msg 2216 342 -1;
#X msg 2271 343 -2;
#X obj 1959 423 r~ \$0-channel-2;
#X obj 1999 448 r~ \$0-channel-3;
#X obj 2039 471 r~ \$0-channel-4;
#X obj 1920 542 *~ 1500;
#X obj 2190 564 == 1;
#X obj 2394 562 == 2;
#X obj 2175 641 *~ 127;
#X obj 2175 667 mtof~;
#X obj 2380 645 *~ 12543.9;
#X obj 2175 698 *~;
#X obj 2380 679 *~;
#X text 1863 86 Channel 2;
#X obj 1864 119 r \$0-sound-gen-freq-s2;
#X obj 1899 152 r \$0-sound-gen-low-freq-s2;
#X obj 1935 182 r \$0-sound-gen-w-s2;
#X obj 1920 570 s~ \$0-sound-gen-channel-mod2;
#X obj 1971 211 r~ \$0-sound-gen-channel-mod2;
#X obj 1165 571 s~ \$0-sound-gen-channel-mod1;
#X obj 1216 212 r~ \$0-sound-gen-channel-mod1;
#X obj 1993 241 r~ \$0-sound-gen-exp-s2;
#X obj 2005 272 r~ \$0-sound-gen-lin-s2;
#X obj 2005 302 r \$0-sound-gen-l-s2;
#X obj 1864 373 s~ \$0-channel-2;
#X obj 2174 231 r \$0-sound-gen-mod-s2;
#X obj 2190 529 r \$0-sound-gen-mod-s2;
#X obj 2175 613 r~ \$0-sound-gen-inlet2;
#X obj 2175 730 s~ \$0-sound-gen-exp-s2;
#X obj 2380 706 s~ \$0-sound-gen-lin-s2;
#X msg 2309 306 1;
#X msg 1419 347 0;
#X msg 1460 346 -1;
#X msg 1515 347 -2;
#X obj 2622 327 quad-sound-generator-gen;
#X obj 2932 257 select 0 1 2 3 4 5;
#X msg 2973 299 EXP;
#X msg 3028 298 LIN;
#X msg 3184 297 4;
#X obj 2678 497 quad-sound-generator-router;
#X obj 2678 391 r~ \$0-channel-1;
#X msg 2932 299 OFF;
#X msg 2932 332 0;
#X msg 2974 333 -1;
#X msg 3029 334 -2;
#X obj 2717 414 r~ \$0-channel-2;
#X obj 2757 439 r~ \$0-channel-3;
#X obj 2797 462 r~ \$0-channel-4;
#X obj 2678 533 *~ 1500;
#X obj 2948 555 == 1;
#X obj 3152 553 == 2;
#X obj 2933 621 *~ 127;
#X obj 2933 647 mtof~;
#X obj 3137 626 *~ 12543.9;
#X obj 2933 678 *~;
#X obj 3137 660 *~;
#X msg 3067 297 1;
#X text 2621 77 Channel 3;
#X obj 2622 110 r \$0-sound-gen-freq-s3;
#X obj 2657 143 r \$0-sound-gen-low-freq-s3;
#X obj 2693 173 r \$0-sound-gen-w-s3;
#X obj 2729 202 r~ \$0-sound-gen-channel-mod3;
#X obj 2751 232 r~ \$0-sound-gen-exp-s3;
#X obj 2763 263 r~ \$0-sound-gen-lin-s3;
#X obj 2763 293 r \$0-sound-gen-l-s3;
#X obj 2622 364 s~ \$0-channel-3;
#X obj 2678 561 s~ \$0-sound-gen-channel-mod3;
#X obj 2932 222 r \$0-sound-gen-mod-s3;
#X obj 2948 520 r \$0-sound-gen-mod-s3;
#X obj 2933 593 r~ \$0-sound-gen-inlet3;
#X obj 2933 710 s~ \$0-sound-gen-exp-s3;
#X obj 3137 687 s~ \$0-sound-gen-lin-s3;
#X msg 3131 297 2;
#X obj 3410 321 quad-sound-generator-gen;
#X obj 3720 251 select 0 1 2 3 4 5;
#X msg 3761 293 EXP;
#X msg 3816 292 LIN;
#X obj 3466 491 quad-sound-generator-router;
#X obj 3466 385 r~ \$0-channel-1;
#X msg 3720 293 OFF;
#X msg 3720 326 0;
#X msg 3762 327 -1;
#X msg 3817 328 -2;
#X obj 3505 408 r~ \$0-channel-2;
#X obj 3545 433 r~ \$0-channel-3;
#X obj 3585 456 r~ \$0-channel-4;
#X obj 3466 527 *~ 1500;
#X obj 3736 549 == 1;
#X obj 3940 547 == 2;
#X obj 3724 618 *~ 127;
#X obj 3724 644 mtof~;
#X obj 3927 622 *~ 12543.9;
#X obj 3724 675 *~;
#X obj 3927 656 *~;
#X msg 3855 291 1;
#X msg 3919 291 2;
#X text 3409 71 Channel 4;
#X obj 3410 104 r \$0-sound-gen-freq-s4;
#X obj 3445 137 r \$0-sound-gen-low-freq-s4;
#X obj 3481 167 r \$0-sound-gen-w-s4;
#X obj 3517 196 r~ \$0-sound-gen-channel-mod4;
#X obj 3539 226 r~ \$0-sound-gen-exp-s4;
#X obj 3551 257 r~ \$0-sound-gen-lin-s4;
#X obj 3551 287 r \$0-sound-gen-l-s4;
#X obj 3410 358 s~ \$0-channel-4;
#X obj 3466 555 s~ \$0-sound-gen-channel-mod4;
#X obj 3736 514 r \$0-sound-gen-mod-s4;
#X obj 3724 590 r~ \$0-sound-gen-inlet4;
#X obj 3724 707 s~ \$0-sound-gen-exp-s4;
#X obj 3927 683 s~ \$0-sound-gen-lin-s4;
#X obj 3720 216 r \$0-sound-gen-mod-s4;
#X msg 3972 290 3;
#X obj 86 434 r~ \$0-sound-gen-inletA;
#X obj 102 462 r~ \$0-channel-1;
#X obj 120 493 r~ \$0-channel-3;
#X obj 234 436 r~ \$0-sound-gen-inletB;
#X obj 234 561 outlet~ B;
#X obj 250 464 r~ \$0-channel-2;
#X obj 268 495 r~ \$0-channel-4;
#X obj 391 437 r~ \$0-sound-gen-inlet1;
#X obj 408 464 r~ \$0-channel-1;
#X obj 542 438 r~ \$0-sound-gen-inlet2;
#X obj 559 465 r~ \$0-channel-2;
#X obj 542 501 outlet~ two;
#X obj 690 439 r~ \$0-sound-gen-inlet3;
#X obj 707 466 r~ \$0-channel-3;
#X obj 689 502 outlet~ three;
#X obj 839 439 r~ \$0-sound-gen-inlet4;
#X obj 856 466 r~ \$0-channel-4;
#X obj 838 502 outlet~ four;
#X text 511 344 Test with microphone input as external source;
#X obj 516 381 adc~;
#X obj 671 25 declare -lib moonlib;
#X obj 827 198 tabwrite~ \$0-qsg-array;
#X text 54 102 A;
#X text 134 102 B;
#X text 55 402 A;
#X text 134 402 B;
#N canvas 720 25 720 847 state-saving-multiple-instances 0;
#X obj 138 29 loadbang;
#X obj 729 407 textfile;
#X msg 703 331 rewind;
#X msg 660 331 bang;
#X obj 42 771 textfile;
#X obj 660 292 t b b;
#X obj 43 437 f;
#X obj 56 660 f;
#X obj -16 481 t b b b;
#X msg 119 660 clear;
#X obj 216 153 outlet;
#X text 268 154 INSTANCE NUMBER;
#X obj 170 90 f \$1;
#X obj 170 126 t f f f;
#X obj 138 62 t b b;
#X obj -16 458 bng 15 250 50 0 empty empty empty 17 7 0 10 -262144
-1 -1;
#X obj -16 314 r SAVE-S;
#X obj 222 37 r \$0-reload!;
#X text 319 40 RETURN TO PREVIOUS VALUE AFTER USING MORPH-SEQ module
;
#X text 56 247 WRITE side;
#X text 738 235 READ side;
#X msg 729 374 read statesave/\$1-quad-sound-generator-ss.txt;
#X obj 729 429 unpack f f f f f f f f f f f f f f f f f f f f;
#X msg 55 731 write statesave/\$1-quad-sound-generator-ss.txt;
#X msg 43 518 set \$1 \$2 \$3 \$4 \$5 \$6 \$7 \$8 \$9 \$10 \$11 \$12
\$13 \$14 \$15 \$16 \$17 \$18 \$19 \$20;
#X obj 43 480 pack f f f f f f f f f f f f f f f f f f f f;
#X obj 61 350 r \$0-sound-gen-low-freq-s1;
#X obj 75 376 r \$0-sound-gen-low-freq-s2;
#X obj 87 400 r \$0-sound-gen-low-freq-s3;
#X obj 97 424 r \$0-sound-gen-low-freq-s4;
#X obj 239 351 r \$0-sound-gen-freq-s1;
#X obj 253 377 r \$0-sound-gen-freq-s2;
#X obj 265 401 r \$0-sound-gen-freq-s3;
#X obj 276 425 r \$0-sound-gen-freq-s4;
#X obj 393 351 r \$0-sound-gen-mod-s1;
#X obj 407 377 r \$0-sound-gen-mod-s2;
#X obj 419 401 r \$0-sound-gen-mod-s3;
#X obj 430 425 r \$0-sound-gen-mod-s4;
#X obj 207 234 r \$0-sound-gen-w-s1;
#X obj 221 260 r \$0-sound-gen-w-s2;
#X obj 233 284 r \$0-sound-gen-w-s3;
#X obj 244 308 r \$0-sound-gen-w-s4;
#X obj 361 234 r \$0-sound-gen-l-s1;
#X obj 375 260 r \$0-sound-gen-l-s2;
#X obj 387 284 r \$0-sound-gen-l-s3;
#X obj 398 308 r \$0-sound-gen-l-s4;
#X obj 729 942 s \$0-sound-gen-low-freq-r1;
#X obj 743 916 s \$0-sound-gen-low-freq-r2;
#X obj 757 892 s \$0-sound-gen-low-freq-r3;
#X obj 772 866 s \$0-sound-gen-low-freq-r4;
#X obj 786 842 s \$0-sound-gen-freq-r1;
#X obj 800 816 s \$0-sound-gen-freq-r2;
#X obj 815 792 s \$0-sound-gen-freq-r3;
#X obj 829 766 s \$0-sound-gen-freq-r4;
#X obj 844 742 s \$0-sound-gen-mod-r1;
#X obj 858 716 s \$0-sound-gen-mod-r2;
#X obj 873 692 s \$0-sound-gen-mod-r3;
#X obj 887 666 s \$0-sound-gen-mod-r4;
#X obj 903 642 s \$0-sound-gen-w-r1;
#X obj 917 616 s \$0-sound-gen-w-r2;
#X obj 932 592 s \$0-sound-gen-w-r3;
#X obj 946 566 s \$0-sound-gen-w-r4;
#X obj 961 542 s \$0-sound-gen-l-r1;
#X obj 975 516 s \$0-sound-gen-l-r2;
#X obj 990 492 s \$0-sound-gen-l-r3;
#X obj 1004 466 s \$0-sound-gen-l-r4;
#X connect 0 0 14 0;
#X connect 1 0 22 0;
#X connect 2 0 1 0;
#X connect 3 0 1 0;
#X connect 5 0 3 0;
#X connect 5 1 2 0;
#X connect 6 0 25 0;
#X connect 7 0 23 0;
#X connect 8 0 7 0;
#X connect 8 1 6 0;
#X connect 8 2 9 0;
#X connect 9 0 4 0;
#X connect 12 0 13 0;
#X connect 13 0 7 1;
#X connect 13 1 21 0;
#X connect 13 2 10 0;
#X connect 14 0 5 0;
#X connect 14 1 12 0;
#X connect 15 0 8 0;
#X connect 16 0 15 0;
#X connect 17 0 14 0;
#X connect 21 0 1 0;
#X connect 22 0 46 0;
#X connect 22 1 47 0;
#X connect 22 2 48 0;
#X connect 22 3 49 0;
#X connect 22 4 50 0;
#X connect 22 5 51 0;
#X connect 22 6 52 0;
#X connect 22 7 53 0;
#X connect 22 8 54 0;
#X connect 22 9 55 0;
#X connect 22 10 56 0;
#X connect 22 11 57 0;
#X connect 22 12 58 0;
#X connect 22 13 59 0;
#X connect 22 14 60 0;
#X connect 22 15 61 0;
#X connect 22 16 62 0;
#X connect 22 17 63 0;
#X connect 22 18 64 0;
#X connect 22 19 65 0;
#X connect 23 0 4 0;
#X connect 24 0 4 0;
#X connect 25 0 24 0;
#X connect 26 0 6 1;
#X connect 27 0 25 1;
#X connect 28 0 25 2;
#X connect 29 0 25 3;
#X connect 30 0 25 4;
#X connect 31 0 25 5;
#X connect 32 0 25 6;
#X connect 33 0 25 7;
#X connect 34 0 25 8;
#X connect 35 0 25 9;
#X connect 36 0 25 10;
#X connect 37 0 25 11;
#X connect 38 0 25 12;
#X connect 39 0 25 13;
#X connect 40 0 25 14;
#X connect 41 0 25 15;
#X connect 42 0 25 16;
#X connect 43 0 25 17;
#X connect 44 0 25 18;
#X connect 45 0 25 19;
#X restore 81 690 pd state-saving-multiple-instances;
#X obj 81 805 s \$0-instance-num;
#X obj 81 757 makefilename %d;
#X msg 81 782 label \$1;
#N canvas 720 25 720 847 state-saving-via-preset-manager-module 0;
#X obj 1030 337 textfile;
#X msg 966 286 rewind;
#X msg 923 286 bang;
#X obj 109 816 textfile;
#X obj 923 247 t b b;
#X obj 107 334 f;
#X obj 120 557 f;
#X obj 53 452 t b b b;
#X msg 160 714 clear;
#X obj 107 156 delay 5;
#X obj 53 507 delay 10;
#X msg 53 292 bang;
#X obj 53 126 r STORE-S!;
#X obj 1030 238 f;
#X obj 1003 202 t b b;
#X obj 1003 159 t b f;
#X obj 1075 256 f \$1;
#X obj 1030 283 pack f f;
#X obj 1075 206 loadbang;
#X obj 120 587 pack f f;
#X obj 165 540 loadbang;
#X obj 165 562 f \$1;
#X obj 1003 136 r preset-manager-scan;
#X obj 135 518 r preset-manager-store-slot;
#X text 126 52 WRITE side;
#X text 1006 58 READ side;
#X msg 159 741 write statesave/\$1-\$2-quad-sound-generator-ss.txt
;
#X obj 107 400 pack f f f f f f f f f f f f f f f f f f f f;
#X msg 106 468 set \$1 \$2 \$3 \$4 \$5 \$6 \$7 \$8 \$9 \$10 \$11 \$12
\$13 \$14 \$15 \$16 \$17 \$18 \$19 \$20;
#X obj 126 191 r \$0-sound-gen-low-freq-s1;
#X obj 138 215 r \$0-sound-gen-low-freq-s2;
#X obj 148 240 r \$0-sound-gen-low-freq-s3;
#X obj 159 266 r \$0-sound-gen-low-freq-s4;
#X obj 169 292 r \$0-sound-gen-freq-s1;
#X obj 181 316 r \$0-sound-gen-freq-s2;
#X obj 191 341 r \$0-sound-gen-freq-s3;
#X obj 202 367 r \$0-sound-gen-freq-s4;
#X obj 302 191 r \$0-sound-gen-mod-s1;
#X obj 314 215 r \$0-sound-gen-mod-s2;
#X obj 324 240 r \$0-sound-gen-mod-s3;
#X obj 335 266 r \$0-sound-gen-mod-s4;
#X obj 320 292 r \$0-sound-gen-w-s1;
#X obj 332 316 r \$0-sound-gen-w-s2;
#X obj 342 341 r \$0-sound-gen-w-s3;
#X obj 353 367 r \$0-sound-gen-w-s4;
#X obj 458 191 r \$0-sound-gen-l-s1;
#X obj 470 215 r \$0-sound-gen-l-s2;
#X obj 480 240 r \$0-sound-gen-l-s3;
#X obj 491 266 r \$0-sound-gen-l-s4;
#X msg 1030 312 read statesave/\$1-\$2-quad-sound-generator-ss.txt
;
#X obj 1030 389 unpack f f f f f f f f f f f f f f f f f f f f;
#X obj 1030 794 s \$0-sound-gen-low-freq-r1;
#X obj 1044 772 s \$0-sound-gen-low-freq-r2;
#X obj 1058 749 s \$0-sound-gen-low-freq-r3;
#X obj 1073 724 s \$0-sound-gen-low-freq-r4;
#N canvas 0 22 1069 747 morph-frequencies 0;
#X obj 176 94 inlet;
#X obj 176 236 pack f f;
#X obj 176 261 line;
#X obj 209 117 r preset-manager-morph-s;
#X msg 72 244 stop;
#X obj 72 214 r STOP-MORPH!;
#X obj 398 102 r frequencies-s;
#X obj 209 206 spigot;
#X obj 398 137 t f f;
#X obj 455 154 == 0;
#X obj 221 176 f;
#X floatatom 455 222 5 0 0 0 - - -;
#X obj 398 159 t b f;
#X floatatom 425 192 5 0 0 0 - - -;
#X obj 209 139 t f f;
#X obj 176 283 outlet;
#X connect 0 0 1 0;
#X connect 1 0 2 0;
#X connect 2 0 15 0;
#X connect 3 0 14 0;
#X connect 4 0 2 0;
#X connect 5 0 4 0;
#X connect 6 0 8 0;
#X connect 7 0 1 1;
#X connect 8 0 12 0;
#X connect 8 1 9 0;
#X connect 9 0 11 0;
#X connect 10 0 7 0;
#X connect 11 0 1 1;
#X connect 12 0 10 0;
#X connect 12 1 13 0;
#X connect 13 0 7 1;
#X connect 14 0 7 0;
#X connect 14 1 10 1;
#X restore 1087 669 pd morph-frequencies;
#N canvas 0 22 1069 747 morph-parameters 0;
#X obj 176 94 inlet;
#X obj 176 236 pack f f;
#X obj 176 261 line;
#X obj 209 117 r preset-manager-morph-s;
#X msg 72 244 stop;
#X obj 72 214 r STOP-MORPH!;
#X obj 209 206 spigot;
#X obj 398 137 t f f;
#X obj 455 154 == 0;
#X obj 221 176 f;
#X floatatom 455 222 5 0 0 0 - - -;
#X obj 398 159 t b f;
#X floatatom 425 192 5 0 0 0 - - -;
#X obj 209 139 t f f;
#X obj 398 102 r parameters-s;
#X obj 176 288 outlet;
#X connect 0 0 1 0;
#X connect 1 0 2 0;
#X connect 2 0 15 0;
#X connect 3 0 13 0;
#X connect 4 0 2 0;
#X connect 5 0 4 0;
#X connect 6 0 1 1;
#X connect 7 0 11 0;
#X connect 7 1 8 0;
#X connect 8 0 10 0;
#X connect 9 0 6 0;
#X connect 10 0 1 1;
#X connect 11 0 9 0;
#X connect 11 1 12 0;
#X connect 12 0 6 1;
#X connect 13 0 6 0;
#X connect 13 1 9 1;
#X connect 14 0 7 0;
#X restore 1101 614 pd morph-parameters;
#N canvas 0 22 1069 747 morph-parameters 0;
#X obj 176 94 inlet;
#X obj 176 236 pack f f;
#X obj 176 261 line;
#X obj 209 117 r preset-manager-morph-s;
#X msg 72 244 stop;
#X obj 72 214 r STOP-MORPH!;
#X obj 209 206 spigot;
#X obj 398 137 t f f;
#X obj 455 154 == 0;
#X obj 221 176 f;
#X floatatom 455 222 5 0 0 0 - - -;
#X obj 398 159 t b f;
#X floatatom 425 192 5 0 0 0 - - -;
#X obj 209 139 t f f;
#X obj 398 102 r parameters-s;
#X obj 176 288 outlet;
#X connect 0 0 1 0;
#X connect 1 0 2 0;
#X connect 2 0 15 0;
#X connect 3 0 13 0;
#X connect 4 0 2 0;
#X connect 5 0 4 0;
#X connect 6 0 1 1;
#X connect 7 0 11 0;
#X connect 7 1 8 0;
#X connect 8 0 10 0;
#X connect 9 0 6 0;
#X connect 10 0 1 1;
#X connect 11 0 9 0;
#X connect 11 1 12 0;
#X connect 12 0 6 1;
#X connect 13 0 6 0;
#X connect 13 1 9 1;
#X connect 14 0 7 0;
#X restore 1116 560 pd morph-parameters;
#N canvas 0 22 1069 747 morph-parameters 0;
#X obj 176 94 inlet;
#X obj 176 236 pack f f;
#X obj 176 261 line;
#X obj 209 117 r preset-manager-morph-s;
#X msg 72 244 stop;
#X obj 72 214 r STOP-MORPH!;
#X obj 209 206 spigot;
#X obj 398 137 t f f;
#X obj 455 154 == 0;
#X obj 221 176 f;
#X floatatom 455 222 5 0 0 0 - - -;
#X obj 398 159 t b f;
#X floatatom 425 192 5 0 0 0 - - -;
#X obj 209 139 t f f;
#X obj 398 102 r parameters-s;
#X obj 176 288 outlet;
#X connect 0 0 1 0;
#X connect 1 0 2 0;
#X connect 2 0 15 0;
#X connect 3 0 13 0;
#X connect 4 0 2 0;
#X connect 5 0 4 0;
#X connect 6 0 1 1;
#X connect 7 0 11 0;
#X connect 7 1 8 0;
#X connect 8 0 10 0;
#X connect 9 0 6 0;
#X connect 10 0 1 1;
#X connect 11 0 9 0;
#X connect 11 1 12 0;
#X connect 12 0 6 1;
#X connect 13 0 6 0;
#X connect 13 1 9 1;
#X connect 14 0 7 0;
#X restore 1130 505 pd morph-parameters;
#X obj 1130 532 s \$0-sound-gen-freq-r4;
#X obj 1116 587 s \$0-sound-gen-freq-r3;
#X obj 1087 696 s \$0-sound-gen-freq-r1;
#X obj 1101 641 s \$0-sound-gen-freq-r2;
#N canvas 0 22 1069 747 morph-frequencies 0;
#X obj 176 94 inlet;
#X obj 176 236 pack f f;
#X obj 176 261 line;
#X obj 209 117 r preset-manager-morph-s;
#X msg 72 244 stop;
#X obj 72 214 r STOP-MORPH!;
#X obj 398 102 r frequencies-s;
#X obj 209 206 spigot;
#X obj 398 137 t f f;
#X obj 455 154 == 0;
#X obj 221 176 f;
#X floatatom 455 222 5 0 0 0 - - -;
#X obj 398 159 t b f;
#X floatatom 425 192 5 0 0 0 - - -;
#X obj 209 139 t f f;
#X obj 176 283 outlet;
#X connect 0 0 1 0;
#X connect 1 0 2 0;
#X connect 2 0 15 0;
#X connect 3 0 14 0;
#X connect 4 0 2 0;
#X connect 5 0 4 0;
#X connect 6 0 8 0;
#X connect 7 0 1 1;
#X connect 8 0 12 0;
#X connect 8 1 9 0;
#X connect 9 0 11 0;
#X connect 10 0 7 0;
#X connect 11 0 1 1;
#X connect 12 0 10 0;
#X connect 12 1 13 0;
#X connect 13 0 7 1;
#X connect 14 0 7 0;
#X connect 14 1 10 1;
#X restore 1259 667 pd morph-frequencies;
#N canvas 0 22 1069 747 morph-parameters 0;
#X obj 176 94 inlet;
#X obj 176 236 pack f f;
#X obj 176 261 line;
#X obj 209 117 r preset-manager-morph-s;
#X msg 72 244 stop;
#X obj 72 214 r STOP-MORPH!;
#X obj 209 206 spigot;
#X obj 398 137 t f f;
#X obj 455 154 == 0;
#X obj 221 176 f;
#X floatatom 455 222 5 0 0 0 - - -;
#X obj 398 159 t b f;
#X floatatom 425 192 5 0 0 0 - - -;
#X obj 209 139 t f f;
#X obj 398 102 r parameters-s;
#X obj 176 288 outlet;
#X connect 0 0 1 0;
#X connect 1 0 2 0;
#X connect 2 0 15 0;
#X connect 3 0 13 0;
#X connect 4 0 2 0;
#X connect 5 0 4 0;
#X connect 6 0 1 1;
#X connect 7 0 11 0;
#X connect 7 1 8 0;
#X connect 8 0 10 0;
#X connect 9 0 6 0;
#X connect 10 0 1 1;
#X connect 11 0 9 0;
#X connect 11 1 12 0;
#X connect 12 0 6 1;
#X connect 13 0 6 0;
#X connect 13 1 9 1;
#X connect 14 0 7 0;
#X restore 1273 612 pd morph-parameters;
#N canvas 0 22 1069 747 morph-parameters 0;
#X obj 176 94 inlet;
#X obj 176 236 pack f f;
#X obj 176 261 line;
#X obj 209 117 r preset-manager-morph-s;
#X msg 72 244 stop;
#X obj 72 214 r STOP-MORPH!;
#X obj 209 206 spigot;
#X obj 398 137 t f f;
#X obj 455 154 == 0;
#X obj 221 176 f;
#X floatatom 455 222 5 0 0 0 - - -;
#X obj 398 159 t b f;
#X floatatom 425 192 5 0 0 0 - - -;
#X obj 209 139 t f f;
#X obj 398 102 r parameters-s;
#X obj 176 288 outlet;
#X connect 0 0 1 0;
#X connect 1 0 2 0;
#X connect 2 0 15 0;
#X connect 3 0 13 0;
#X connect 4 0 2 0;
#X connect 5 0 4 0;
#X connect 6 0 1 1;
#X connect 7 0 11 0;
#X connect 7 1 8 0;
#X connect 8 0 10 0;
#X connect 9 0 6 0;
#X connect 10 0 1 1;
#X connect 11 0 9 0;
#X connect 11 1 12 0;
#X connect 12 0 6 1;
#X connect 13 0 6 0;
#X connect 13 1 9 1;
#X connect 14 0 7 0;
#X restore 1288 558 pd morph-parameters;
#N canvas 0 22 1069 747 morph-parameters 0;
#X obj 176 94 inlet;
#X obj 176 236 pack f f;
#X obj 176 261 line;
#X obj 209 117 r preset-manager-morph-s;
#X msg 72 244 stop;
#X obj 72 214 r STOP-MORPH!;
#X obj 209 206 spigot;
#X obj 398 137 t f f;
#X obj 455 154 == 0;
#X obj 221 176 f;
#X floatatom 455 222 5 0 0 0 - - -;
#X obj 398 159 t b f;
#X floatatom 425 192 5 0 0 0 - - -;
#X obj 209 139 t f f;
#X obj 398 102 r parameters-s;
#X obj 176 288 outlet;
#X connect 0 0 1 0;
#X connect 1 0 2 0;
#X connect 2 0 15 0;
#X connect 3 0 13 0;
#X connect 4 0 2 0;
#X connect 5 0 4 0;
#X connect 6 0 1 1;
#X connect 7 0 11 0;
#X connect 7 1 8 0;
#X connect 8 0 10 0;
#X connect 9 0 6 0;
#X connect 10 0 1 1;
#X connect 11 0 9 0;
#X connect 11 1 12 0;
#X connect 12 0 6 1;
#X connect 13 0 6 0;
#X connect 13 1 9 1;
#X connect 14 0 7 0;
#X restore 1302 503 pd morph-parameters;
#N canvas 0 22 1069 747 morph-frequencies 0;
#X obj 176 94 inlet;
#X obj 176 236 pack f f;
#X obj 176 261 line;
#X obj 209 117 r preset-manager-morph-s;
#X msg 72 244 stop;
#X obj 72 214 r STOP-MORPH!;
#X obj 398 102 r frequencies-s;
#X obj 209 206 spigot;
#X obj 398 137 t f f;
#X obj 455 154 == 0;
#X obj 221 176 f;
#X floatatom 455 222 5 0 0 0 - - -;
#X obj 398 159 t b f;
#X floatatom 425 192 5 0 0 0 - - -;
#X obj 209 139 t f f;
#X obj 176 283 outlet;
#X connect 0 0 1 0;
#X connect 1 0 2 0;
#X connect 2 0 15 0;
#X connect 3 0 14 0;
#X connect 4 0 2 0;
#X connect 5 0 4 0;
#X connect 6 0 8 0;
#X connect 7 0 1 1;
#X connect 8 0 12 0;
#X connect 8 1 9 0;
#X connect 9 0 11 0;
#X connect 10 0 7 0;
#X connect 11 0 1 1;
#X connect 12 0 10 0;
#X connect 12 1 13 0;
#X connect 13 0 7 1;
#X connect 14 0 7 0;
#X connect 14 1 10 1;
#X restore 1458 667 pd morph-frequencies;
#N canvas 0 22 1069 747 morph-parameters 0;
#X obj 176 94 inlet;
#X obj 176 236 pack f f;
#X obj 176 261 line;
#X obj 209 117 r preset-manager-morph-s;
#X msg 72 244 stop;
#X obj 72 214 r STOP-MORPH!;
#X obj 209 206 spigot;
#X obj 398 137 t f f;
#X obj 455 154 == 0;
#X obj 221 176 f;
#X floatatom 455 222 5 0 0 0 - - -;
#X obj 398 159 t b f;
#X floatatom 425 192 5 0 0 0 - - -;
#X obj 209 139 t f f;
#X obj 398 102 r parameters-s;
#X obj 176 288 outlet;
#X connect 0 0 1 0;
#X connect 1 0 2 0;
#X connect 2 0 15 0;
#X connect 3 0 13 0;
#X connect 4 0 2 0;
#X connect 5 0 4 0;
#X connect 6 0 1 1;
#X connect 7 0 11 0;
#X connect 7 1 8 0;
#X connect 8 0 10 0;
#X connect 9 0 6 0;
#X connect 10 0 1 1;
#X connect 11 0 9 0;
#X connect 11 1 12 0;
#X connect 12 0 6 1;
#X connect 13 0 6 0;
#X connect 13 1 9 1;
#X connect 14 0 7 0;
#X restore 1457 612 pd morph-parameters;
#N canvas 0 22 1069 747 morph-parameters 0;
#X obj 176 94 inlet;
#X obj 176 236 pack f f;
#X obj 176 261 line;
#X obj 209 117 r preset-manager-morph-s;
#X msg 72 244 stop;
#X obj 72 214 r STOP-MORPH!;
#X obj 209 206 spigot;
#X obj 398 137 t f f;
#X obj 455 154 == 0;
#X obj 221 176 f;
#X floatatom 455 222 5 0 0 0 - - -;
#X obj 398 159 t b f;
#X floatatom 425 192 5 0 0 0 - - -;
#X obj 209 139 t f f;
#X obj 398 102 r parameters-s;
#X obj 176 288 outlet;
#X connect 0 0 1 0;
#X connect 1 0 2 0;
#X connect 2 0 15 0;
#X connect 3 0 13 0;
#X connect 4 0 2 0;
#X connect 5 0 4 0;
#X connect 6 0 1 1;
#X connect 7 0 11 0;
#X connect 7 1 8 0;
#X connect 8 0 10 0;
#X connect 9 0 6 0;
#X connect 10 0 1 1;
#X connect 11 0 9 0;
#X connect 11 1 12 0;
#X connect 12 0 6 1;
#X connect 13 0 6 0;
#X connect 13 1 9 1;
#X connect 14 0 7 0;
#X restore 1457 558 pd morph-parameters;
#N canvas 0 22 1069 747 morph-parameters 0;
#X obj 176 94 inlet;
#X obj 176 236 pack f f;
#X obj 176 261 line;
#X obj 209 117 r preset-manager-morph-s;
#X msg 72 244 stop;
#X obj 72 214 r STOP-MORPH!;
#X obj 209 206 spigot;
#X obj 398 137 t f f;
#X obj 455 154 == 0;
#X obj 221 176 f;
#X floatatom 455 222 5 0 0 0 - - -;
#X obj 398 159 t b f;
#X floatatom 425 192 5 0 0 0 - - -;
#X obj 209 139 t f f;
#X obj 398 102 r parameters-s;
#X obj 176 288 outlet;
#X connect 0 0 1 0;
#X connect 1 0 2 0;
#X connect 2 0 15 0;
#X connect 3 0 13 0;
#X connect 4 0 2 0;
#X connect 5 0 4 0;
#X connect 6 0 1 1;
#X connect 7 0 11 0;
#X connect 7 1 8 0;
#X connect 8 0 10 0;
#X connect 9 0 6 0;
#X connect 10 0 1 1;
#X connect 11 0 9 0;
#X connect 11 1 12 0;
#X connect 12 0 6 1;
#X connect 13 0 6 0;
#X connect 13 1 9 1;
#X connect 14 0 7 0;
#X restore 1457 503 pd morph-parameters;
#N canvas 0 22 1069 747 morph-frequencies 0;
#X obj 176 94 inlet;
#X obj 176 236 pack f f;
#X obj 176 261 line;
#X obj 209 117 r preset-manager-morph-s;
#X msg 72 244 stop;
#X obj 72 214 r STOP-MORPH!;
#X obj 398 102 r frequencies-s;
#X obj 209 206 spigot;
#X obj 398 137 t f f;
#X obj 455 154 == 0;
#X obj 221 176 f;
#X floatatom 455 222 5 0 0 0 - - -;
#X obj 398 159 t b f;
#X floatatom 425 192 5 0 0 0 - - -;
#X obj 209 139 t f f;
#X obj 176 283 outlet;
#X connect 0 0 1 0;
#X connect 1 0 2 0;
#X connect 2 0 15 0;
#X connect 3 0 14 0;
#X connect 4 0 2 0;
#X connect 5 0 4 0;
#X connect 6 0 8 0;
#X connect 7 0 1 1;
#X connect 8 0 12 0;
#X connect 8 1 9 0;
#X connect 9 0 11 0;
#X connect 10 0 7 0;
#X connect 11 0 1 1;
#X connect 12 0 10 0;
#X connect 12 1 13 0;
#X connect 13 0 7 1;
#X connect 14 0 7 0;
#X connect 14 1 10 1;
#X restore 1458 890 pd morph-frequencies;
#N canvas 0 22 1069 747 morph-parameters 0;
#X obj 176 94 inlet;
#X obj 176 236 pack f f;
#X obj 176 261 line;
#X obj 209 117 r preset-manager-morph-s;
#X msg 72 244 stop;
#X obj 72 214 r STOP-MORPH!;
#X obj 209 206 spigot;
#X obj 398 137 t f f;
#X obj 455 154 == 0;
#X obj 221 176 f;
#X floatatom 455 222 5 0 0 0 - - -;
#X obj 398 159 t b f;
#X floatatom 425 192 5 0 0 0 - - -;
#X obj 209 139 t f f;
#X obj 398 102 r parameters-s;
#X obj 176 288 outlet;
#X connect 0 0 1 0;
#X connect 1 0 2 0;
#X connect 2 0 15 0;
#X connect 3 0 13 0;
#X connect 4 0 2 0;
#X connect 5 0 4 0;
#X connect 6 0 1 1;
#X connect 7 0 11 0;
#X connect 7 1 8 0;
#X connect 8 0 10 0;
#X connect 9 0 6 0;
#X connect 10 0 1 1;
#X connect 11 0 9 0;
#X connect 11 1 12 0;
#X connect 12 0 6 1;
#X connect 13 0 6 0;
#X connect 13 1 9 1;
#X connect 14 0 7 0;
#X restore 1458 835 pd morph-parameters;
#N canvas 0 22 1069 747 morph-parameters 0;
#X obj 176 94 inlet;
#X obj 176 236 pack f f;
#X obj 176 261 line;
#X obj 209 117 r preset-manager-morph-s;
#X msg 72 244 stop;
#X obj 72 214 r STOP-MORPH!;
#X obj 209 206 spigot;
#X obj 398 137 t f f;
#X obj 455 154 == 0;
#X obj 221 176 f;
#X floatatom 455 222 5 0 0 0 - - -;
#X obj 398 159 t b f;
#X floatatom 425 192 5 0 0 0 - - -;
#X obj 209 139 t f f;
#X obj 398 102 r parameters-s;
#X obj 176 288 outlet;
#X connect 0 0 1 0;
#X connect 1 0 2 0;
#X connect 2 0 15 0;
#X connect 3 0 13 0;
#X connect 4 0 2 0;
#X connect 5 0 4 0;
#X connect 6 0 1 1;
#X connect 7 0 11 0;
#X connect 7 1 8 0;
#X connect 8 0 10 0;
#X connect 9 0 6 0;
#X connect 10 0 1 1;
#X connect 11 0 9 0;
#X connect 11 1 12 0;
#X connect 12 0 6 1;
#X connect 13 0 6 0;
#X connect 13 1 9 1;
#X connect 14 0 7 0;
#X restore 1458 781 pd morph-parameters;
#N canvas 0 22 1069 747 morph-parameters 0;
#X obj 176 94 inlet;
#X obj 176 236 pack f f;
#X obj 176 261 line;
#X obj 209 117 r preset-manager-morph-s;
#X msg 72 244 stop;
#X obj 72 214 r STOP-MORPH!;
#X obj 209 206 spigot;
#X obj 398 137 t f f;
#X obj 455 154 == 0;
#X obj 221 176 f;
#X floatatom 455 222 5 0 0 0 - - -;
#X obj 398 159 t b f;
#X floatatom 425 192 5 0 0 0 - - -;
#X obj 209 139 t f f;
#X obj 398 102 r parameters-s;
#X obj 176 288 outlet;
#X connect 0 0 1 0;
#X connect 1 0 2 0;
#X connect 2 0 15 0;
#X connect 3 0 13 0;
#X connect 4 0 2 0;
#X connect 5 0 4 0;
#X connect 6 0 1 1;
#X connect 7 0 11 0;
#X connect 7 1 8 0;
#X connect 8 0 10 0;
#X connect 9 0 6 0;
#X connect 10 0 1 1;
#X connect 11 0 9 0;
#X connect 11 1 12 0;
#X connect 12 0 6 1;
#X connect 13 0 6 0;
#X connect 13 1 9 1;
#X connect 14 0 7 0;
#X restore 1458 726 pd morph-parameters;
#X obj 1259 694 s \$0-sound-gen-mod-r1;
#X obj 1273 639 s \$0-sound-gen-mod-r2;
#X obj 1288 585 s \$0-sound-gen-mod-r3;
#X obj 1302 530 s \$0-sound-gen-mod-r4;
#X obj 1457 530 s \$0-sound-gen-w-r4;
#X obj 1457 585 s \$0-sound-gen-w-r3;
#X obj 1457 639 s \$0-sound-gen-w-r2;
#X obj 1458 694 s \$0-sound-gen-w-r1;
#X obj 1458 753 s \$0-sound-gen-l-r4;
#X obj 1458 808 s \$0-sound-gen-l-r3;
#X obj 1458 862 s \$0-sound-gen-l-r2;
#X obj 1458 917 s \$0-sound-gen-l-r1;
#X connect 0 0 50 0;
#X connect 1 0 0 0;
#X connect 2 0 0 0;
#X connect 4 0 2 0;
#X connect 4 1 1 0;
#X connect 5 0 27 0;
#X connect 6 0 19 0;
#X connect 7 0 10 0;
#X connect 7 1 9 0;
#X connect 7 2 8 0;
#X connect 8 0 3 0;
#X connect 9 0 5 0;
#X connect 10 0 6 0;
#X connect 11 0 7 0;
#X connect 12 0 11 0;
#X connect 13 0 17 0;
#X connect 14 0 4 0;
#X connect 14 1 13 0;
#X connect 15 0 14 0;
#X connect 15 1 13 1;
#X connect 16 0 17 1;
#X connect 17 0 49 0;
#X connect 18 0 16 0;
#X connect 19 0 26 0;
#X connect 20 0 21 0;
#X connect 21 0 19 1;
#X connect 22 0 15 0;
#X connect 23 0 6 1;
#X connect 26 0 3 0;
#X connect 27 0 28 0;
#X connect 28 0 3 0;
#X connect 29 0 5 1;
#X connect 30 0 27 1;
#X connect 31 0 27 2;
#X connect 32 0 27 3;
#X connect 33 0 27 4;
#X connect 34 0 27 5;
#X connect 35 0 27 6;
#X connect 36 0 27 7;
#X connect 37 0 27 8;
#X connect 38 0 27 9;
#X connect 39 0 27 10;
#X connect 40 0 27 11;
#X connect 41 0 27 12;
#X connect 42 0 27 13;
#X connect 43 0 27 14;
#X connect 44 0 27 15;
#X connect 45 0 27 16;
#X connect 46 0 27 17;
#X connect 47 0 27 18;
#X connect 48 0 27 19;
#X connect 49 0 0 0;
#X connect 50 0 51 0;
#X connect 50 1 52 0;
#X connect 50 2 53 0;
#X connect 50 3 54 0;
#X connect 50 4 55 0;
#X connect 50 5 56 0;
#X connect 50 6 57 0;
#X connect 50 7 58 0;
#X connect 50 8 63 0;
#X connect 50 9 64 0;
#X connect 50 10 65 0;
#X connect 50 11 66 0;
#X connect 50 12 67 0;
#X connect 50 13 68 0;
#X connect 50 14 69 0;
#X connect 50 15 70 0;
#X connect 50 16 71 0;
#X connect 50 17 72 0;
#X connect 50 18 73 0;
#X connect 50 19 74 0;
#X connect 55 0 61 0;
#X connect 56 0 62 0;
#X connect 57 0 60 0;
#X connect 58 0 59 0;
#X connect 63 0 75 0;
#X connect 64 0 76 0;
#X connect 65 0 77 0;
#X connect 66 0 78 0;
#X connect 67 0 82 0;
#X connect 68 0 81 0;
#X connect 69 0 80 0;
#X connect 70 0 79 0;
#X connect 71 0 86 0;
#X connect 72 0 85 0;
#X connect 73 0 84 0;
#X connect 74 0 83 0;
#X restore 82 662 pd state-saving-via-preset-manager-module;
#N canvas 0 25 720 847 parameter-nudging-system 0;
#X obj 69 473 clip 0 127;
#N canvas 0 22 484 497 nudge-attenuators 0;
#X obj 124 234 random;
#X obj 232 335 f;
#X obj 232 368 +;
#X obj 257 166 random 2;
#X obj 124 275 t f f;
#X obj 124 351 t b f;
#X obj 124 297 *;
#X obj 257 188 sel 0 1;
#X msg 257 280 -1;
#X msg 335 280 1;
#X obj 124 149 t b b b;
#X obj 124 71 r NUDGE!;
#X obj 157 193 r NUDGE-RANGE;
#X obj 247 308 inlet;
#X obj 232 397 outlet;
#X obj 124 93 spigot;
#X obj 201 76 r attenuators2-s;
#X connect 0 0 4 0;
#X connect 1 0 2 0;
#X connect 2 0 14 0;
#X connect 3 0 7 0;
#X connect 4 0 6 0;
#X connect 5 0 2 0;
#X connect 5 1 2 1;
#X connect 6 0 5 0;
#X connect 7 0 8 0;
#X connect 7 1 9 0;
#X connect 8 0 6 1;
#X connect 9 0 6 1;
#X connect 10 0 0 0;
#X connect 10 1 1 0;
#X connect 10 2 3 0;
#X connect 11 0 15 0;
#X connect 12 0 0 1;
#X connect 13 0 1 1;
#X connect 15 0 10 0;
#X connect 16 0 15 1;
#X restore 69 451 pd nudge-attenuators;
#X obj 69 502 s \$0-sound-gen-freq-r1;
#X obj 69 422 r \$0-sound-gen-freq-s1;
#N canvas 3 56 484 497 nudge-attenuators 0;
#X obj 124 234 random;
#X obj 232 335 f;
#X obj 232 368 +;
#X obj 257 166 random 2;
#X obj 124 275 t f f;
#X obj 124 351 t b f;
#X obj 124 297 *;
#X obj 257 188 sel 0 1;
#X msg 257 280 -1;
#X msg 335 280 1;
#X obj 124 149 t b b b;
#X obj 124 71 r NUDGE!;
#X obj 157 193 r NUDGE-RANGE;
#X obj 247 308 inlet;
#X obj 232 397 outlet;
#X obj 124 93 spigot;
#X obj 201 76 r attenuators2-s;
#X connect 0 0 4 0;
#X connect 1 0 2 0;
#X connect 2 0 14 0;
#X connect 3 0 7 0;
#X connect 4 0 6 0;
#X connect 5 0 2 0;
#X connect 5 1 2 1;
#X connect 6 0 5 0;
#X connect 7 0 8 0;
#X connect 7 1 9 0;
#X connect 8 0 6 1;
#X connect 9 0 6 1;
#X connect 10 0 0 0;
#X connect 10 1 1 0;
#X connect 10 2 3 0;
#X connect 11 0 15 0;
#X connect 12 0 0 1;
#X connect 13 0 1 1;
#X connect 15 0 10 0;
#X connect 16 0 15 1;
#X restore 71 58 pd nudge-attenuators;
#X obj 71 83 clip 0 127;
#X obj 71 107 expr $f1/128;
#X obj 71 159 int;
#X obj 71 30 r \$0-sound-gen-low-freq-s1;
#X obj 71 133 * 2;
#X obj 71 184 s \$0-sound-gen-low-freq-r1;
#N canvas 3 56 484 497 nudge-attenuators 0;
#X obj 124 234 random;
#X obj 232 335 f;
#X obj 232 368 +;
#X obj 257 166 random 2;
#X obj 124 275 t f f;
#X obj 124 351 t b f;
#X obj 124 297 *;
#X obj 257 188 sel 0 1;
#X msg 257 280 -1;
#X msg 335 280 1;
#X obj 124 149 t b b b;
#X obj 124 71 r NUDGE!;
#X obj 157 193 r NUDGE-RANGE;
#X obj 247 308 inlet;
#X obj 232 397 outlet;
#X obj 124 93 spigot;
#X obj 201 76 r attenuators2-s;
#X connect 0 0 4 0;
#X connect 1 0 2 0;
#X connect 2 0 14 0;
#X connect 3 0 7 0;
#X connect 4 0 6 0;
#X connect 5 0 2 0;
#X connect 5 1 2 1;
#X connect 6 0 5 0;
#X connect 7 0 8 0;
#X connect 7 1 9 0;
#X connect 8 0 6 1;
#X connect 9 0 6 1;
#X connect 10 0 0 0;
#X connect 10 1 1 0;
#X connect 10 2 3 0;
#X connect 11 0 15 0;
#X connect 12 0 0 1;
#X connect 13 0 1 1;
#X connect 15 0 10 0;
#X connect 16 0 15 1;
#X restore 70 251 pd nudge-attenuators;
#X obj 70 276 clip 0 127;
#X obj 70 300 expr $f1/128;
#X obj 70 352 int;
#X obj 70 326 * 6;
#X obj 70 223 r \$0-sound-gen-mod-s1;
#X obj 70 377 s \$0-sound-gen-mod-r1;
#X obj 70 593 clip 0 127;
#N canvas 0 22 484 497 nudge-attenuators 0;
#X obj 124 234 random;
#X obj 232 335 f;
#X obj 232 368 +;
#X obj 257 166 random 2;
#X obj 124 275 t f f;
#X obj 124 351 t b f;
#X obj 124 297 *;
#X obj 257 188 sel 0 1;
#X msg 257 280 -1;
#X msg 335 280 1;
#X obj 124 149 t b b b;
#X obj 124 71 r NUDGE!;
#X obj 157 193 r NUDGE-RANGE;
#X obj 247 308 inlet;
#X obj 232 397 outlet;
#X obj 124 93 spigot;
#X obj 201 76 r attenuators2-s;
#X connect 0 0 4 0;
#X connect 1 0 2 0;
#X connect 2 0 14 0;
#X connect 3 0 7 0;
#X connect 4 0 6 0;
#X connect 5 0 2 0;
#X connect 5 1 2 1;
#X connect 6 0 5 0;
#X connect 7 0 8 0;
#X connect 7 1 9 0;
#X connect 8 0 6 1;
#X connect 9 0 6 1;
#X connect 10 0 0 0;
#X connect 10 1 1 0;
#X connect 10 2 3 0;
#X connect 11 0 15 0;
#X connect 12 0 0 1;
#X connect 13 0 1 1;
#X connect 15 0 10 0;
#X connect 16 0 15 1;
#X restore 70 571 pd nudge-attenuators;
#X obj 68 721 clip 0 127;
#N canvas 0 22 484 497 nudge-attenuators 0;
#X obj 124 234 random;
#X obj 232 335 f;
#X obj 232 368 +;
#X obj 257 166 random 2;
#X obj 124 275 t f f;
#X obj 124 351 t b f;
#X obj 124 297 *;
#X obj 257 188 sel 0 1;
#X msg 257 280 -1;
#X msg 335 280 1;
#X obj 124 149 t b b b;
#X obj 124 71 r NUDGE!;
#X obj 157 193 r NUDGE-RANGE;
#X obj 247 308 inlet;
#X obj 232 397 outlet;
#X obj 124 93 spigot;
#X obj 201 76 r attenuators2-s;
#X connect 0 0 4 0;
#X connect 1 0 2 0;
#X connect 2 0 14 0;
#X connect 3 0 7 0;
#X connect 4 0 6 0;
#X connect 5 0 2 0;
#X connect 5 1 2 1;
#X connect 6 0 5 0;
#X connect 7 0 8 0;
#X connect 7 1 9 0;
#X connect 8 0 6 1;
#X connect 9 0 6 1;
#X connect 10 0 0 0;
#X connect 10 1 1 0;
#X connect 10 2 3 0;
#X connect 11 0 15 0;
#X connect 12 0 0 1;
#X connect 13 0 1 1;
#X connect 15 0 10 0;
#X connect 16 0 15 1;
#X restore 68 699 pd nudge-attenuators;
#X obj 70 622 s \$0-sound-gen-w-r1;
#X obj 70 542 r \$0-sound-gen-w-s1;
#X obj 68 670 r \$0-sound-gen-l-s1;
#X obj 68 750 s \$0-sound-gen-l-r1;
#X obj 262 474 clip 0 127;
#N canvas 0 22 484 497 nudge-attenuators 0;
#X obj 124 234 random;
#X obj 232 335 f;
#X obj 232 368 +;
#X obj 257 166 random 2;
#X obj 124 275 t f f;
#X obj 124 351 t b f;
#X obj 124 297 *;
#X obj 257 188 sel 0 1;
#X msg 257 280 -1;
#X msg 335 280 1;
#X obj 124 149 t b b b;
#X obj 124 71 r NUDGE!;
#X obj 157 193 r NUDGE-RANGE;
#X obj 247 308 inlet;
#X obj 232 397 outlet;
#X obj 124 93 spigot;
#X obj 201 76 r attenuators2-s;
#X connect 0 0 4 0;
#X connect 1 0 2 0;
#X connect 2 0 14 0;
#X connect 3 0 7 0;
#X connect 4 0 6 0;
#X connect 5 0 2 0;
#X connect 5 1 2 1;
#X connect 6 0 5 0;
#X connect 7 0 8 0;
#X connect 7 1 9 0;
#X connect 8 0 6 1;
#X connect 9 0 6 1;
#X connect 10 0 0 0;
#X connect 10 1 1 0;
#X connect 10 2 3 0;
#X connect 11 0 15 0;
#X connect 12 0 0 1;
#X connect 13 0 1 1;
#X connect 15 0 10 0;
#X connect 16 0 15 1;
#X restore 262 452 pd nudge-attenuators;
#N canvas 3 56 484 497 nudge-attenuators 0;
#X obj 124 234 random;
#X obj 232 335 f;
#X obj 232 368 +;
#X obj 257 166 random 2;
#X obj 124 275 t f f;
#X obj 124 351 t b f;
#X obj 124 297 *;
#X obj 257 188 sel 0 1;
#X msg 257 280 -1;
#X msg 335 280 1;
#X obj 124 149 t b b b;
#X obj 124 71 r NUDGE!;
#X obj 157 193 r NUDGE-RANGE;
#X obj 247 308 inlet;
#X obj 232 397 outlet;
#X obj 124 93 spigot;
#X obj 201 76 r attenuators2-s;
#X connect 0 0 4 0;
#X connect 1 0 2 0;
#X connect 2 0 14 0;
#X connect 3 0 7 0;
#X connect 4 0 6 0;
#X connect 5 0 2 0;
#X connect 5 1 2 1;
#X connect 6 0 5 0;
#X connect 7 0 8 0;
#X connect 7 1 9 0;
#X connect 8 0 6 1;
#X connect 9 0 6 1;
#X connect 10 0 0 0;
#X connect 10 1 1 0;
#X connect 10 2 3 0;
#X connect 11 0 15 0;
#X connect 12 0 0 1;
#X connect 13 0 1 1;
#X connect 15 0 10 0;
#X connect 16 0 15 1;
#X restore 264 59 pd nudge-attenuators;
#X obj 264 84 clip 0 127;
#X obj 264 108 expr $f1/128;
#X obj 264 160 int;
#X obj 264 134 * 2;
#N canvas 3 56 484 497 nudge-attenuators 0;
#X obj 124 234 random;
#X obj 232 335 f;
#X obj 232 368 +;
#X obj 257 166 random 2;
#X obj 124 275 t f f;
#X obj 124 351 t b f;
#X obj 124 297 *;
#X obj 257 188 sel 0 1;
#X msg 257 280 -1;
#X msg 335 280 1;
#X obj 124 149 t b b b;
#X obj 124 71 r NUDGE!;
#X obj 157 193 r NUDGE-RANGE;
#X obj 247 308 inlet;
#X obj 232 397 outlet;
#X obj 124 93 spigot;
#X obj 201 76 r attenuators2-s;
#X connect 0 0 4 0;
#X connect 1 0 2 0;
#X connect 2 0 14 0;
#X connect 3 0 7 0;
#X connect 4 0 6 0;
#X connect 5 0 2 0;
#X connect 5 1 2 1;
#X connect 6 0 5 0;
#X connect 7 0 8 0;
#X connect 7 1 9 0;
#X connect 8 0 6 1;
#X connect 9 0 6 1;
#X connect 10 0 0 0;
#X connect 10 1 1 0;
#X connect 10 2 3 0;
#X connect 11 0 15 0;
#X connect 12 0 0 1;
#X connect 13 0 1 1;
#X connect 15 0 10 0;
#X connect 16 0 15 1;
#X restore 263 252 pd nudge-attenuators;
#X obj 263 277 clip 0 127;
#X obj 263 301 expr $f1/128;
#X obj 263 353 int;
#X obj 263 327 * 6;
#X obj 263 594 clip 0 127;
#N canvas 0 22 484 497 nudge-attenuators 0;
#X obj 124 234 random;
#X obj 232 335 f;
#X obj 232 368 +;
#X obj 257 166 random 2;
#X obj 124 275 t f f;
#X obj 124 351 t b f;
#X obj 124 297 *;
#X obj 257 188 sel 0 1;
#X msg 257 280 -1;
#X msg 335 280 1;
#X obj 124 149 t b b b;
#X obj 124 71 r NUDGE!;
#X obj 157 193 r NUDGE-RANGE;
#X obj 247 308 inlet;
#X obj 232 397 outlet;
#X obj 124 93 spigot;
#X obj 201 76 r attenuators2-s;
#X connect 0 0 4 0;
#X connect 1 0 2 0;
#X connect 2 0 14 0;
#X connect 3 0 7 0;
#X connect 4 0 6 0;
#X connect 5 0 2 0;
#X connect 5 1 2 1;
#X connect 6 0 5 0;
#X connect 7 0 8 0;
#X connect 7 1 9 0;
#X connect 8 0 6 1;
#X connect 9 0 6 1;
#X connect 10 0 0 0;
#X connect 10 1 1 0;
#X connect 10 2 3 0;
#X connect 11 0 15 0;
#X connect 12 0 0 1;
#X connect 13 0 1 1;
#X connect 15 0 10 0;
#X connect 16 0 15 1;
#X restore 263 572 pd nudge-attenuators;
#X obj 261 722 clip 0 127;
#N canvas 0 22 484 497 nudge-attenuators 0;
#X obj 124 234 random;
#X obj 232 335 f;
#X obj 232 368 +;
#X obj 257 166 random 2;
#X obj 124 275 t f f;
#X obj 124 351 t b f;
#X obj 124 297 *;
#X obj 257 188 sel 0 1;
#X msg 257 280 -1;
#X msg 335 280 1;
#X obj 124 149 t b b b;
#X obj 124 71 r NUDGE!;
#X obj 157 193 r NUDGE-RANGE;
#X obj 247 308 inlet;
#X obj 232 397 outlet;
#X obj 124 93 spigot;
#X obj 201 76 r attenuators2-s;
#X connect 0 0 4 0;
#X connect 1 0 2 0;
#X connect 2 0 14 0;
#X connect 3 0 7 0;
#X connect 4 0 6 0;
#X connect 5 0 2 0;
#X connect 5 1 2 1;
#X connect 6 0 5 0;
#X connect 7 0 8 0;
#X connect 7 1 9 0;
#X connect 8 0 6 1;
#X connect 9 0 6 1;
#X connect 10 0 0 0;
#X connect 10 1 1 0;
#X connect 10 2 3 0;
#X connect 11 0 15 0;
#X connect 12 0 0 1;
#X connect 13 0 1 1;
#X connect 15 0 10 0;
#X connect 16 0 15 1;
#X restore 261 700 pd nudge-attenuators;
#X obj 452 475 clip 0 127;
#N canvas 0 22 484 497 nudge-attenuators 0;
#X obj 124 234 random;
#X obj 232 335 f;
#X obj 232 368 +;
#X obj 257 166 random 2;
#X obj 124 275 t f f;
#X obj 124 351 t b f;
#X obj 124 297 *;
#X obj 257 188 sel 0 1;
#X msg 257 280 -1;
#X msg 335 280 1;
#X obj 124 149 t b b b;
#X obj 124 71 r NUDGE!;
#X obj 157 193 r NUDGE-RANGE;
#X obj 247 308 inlet;
#X obj 232 397 outlet;
#X obj 124 93 spigot;
#X obj 201 76 r attenuators2-s;
#X connect 0 0 4 0;
#X connect 1 0 2 0;
#X connect 2 0 14 0;
#X connect 3 0 7 0;
#X connect 4 0 6 0;
#X connect 5 0 2 0;
#X connect 5 1 2 1;
#X connect 6 0 5 0;
#X connect 7 0 8 0;
#X connect 7 1 9 0;
#X connect 8 0 6 1;
#X connect 9 0 6 1;
#X connect 10 0 0 0;
#X connect 10 1 1 0;
#X connect 10 2 3 0;
#X connect 11 0 15 0;
#X connect 12 0 0 1;
#X connect 13 0 1 1;
#X connect 15 0 10 0;
#X connect 16 0 15 1;
#X restore 452 453 pd nudge-attenuators;
#N canvas 3 56 484 497 nudge-attenuators 0;
#X obj 124 234 random;
#X obj 232 335 f;
#X obj 232 368 +;
#X obj 257 166 random 2;
#X obj 124 275 t f f;
#X obj 124 351 t b f;
#X obj 124 297 *;
#X obj 257 188 sel 0 1;
#X msg 257 280 -1;
#X msg 335 280 1;
#X obj 124 149 t b b b;
#X obj 124 71 r NUDGE!;
#X obj 157 193 r NUDGE-RANGE;
#X obj 247 308 inlet;
#X obj 232 397 outlet;
#X obj 124 93 spigot;
#X obj 201 76 r attenuators2-s;
#X connect 0 0 4 0;
#X connect 1 0 2 0;
#X connect 2 0 14 0;
#X connect 3 0 7 0;
#X connect 4 0 6 0;
#X connect 5 0 2 0;
#X connect 5 1 2 1;
#X connect 6 0 5 0;
#X connect 7 0 8 0;
#X connect 7 1 9 0;
#X connect 8 0 6 1;
#X connect 9 0 6 1;
#X connect 10 0 0 0;
#X connect 10 1 1 0;
#X connect 10 2 3 0;
#X connect 11 0 15 0;
#X connect 12 0 0 1;
#X connect 13 0 1 1;
#X connect 15 0 10 0;
#X connect 16 0 15 1;
#X restore 454 60 pd nudge-attenuators;
#X obj 454 85 clip 0 127;
#X obj 454 109 expr $f1/128;
#X obj 454 161 int;
#X obj 454 135 * 2;
#N canvas 3 56 484 497 nudge-attenuators 0;
#X obj 124 234 random;
#X obj 232 335 f;
#X obj 232 368 +;
#X obj 257 166 random 2;
#X obj 124 275 t f f;
#X obj 124 351 t b f;
#X obj 124 297 *;
#X obj 257 188 sel 0 1;
#X msg 257 280 -1;
#X msg 335 280 1;
#X obj 124 149 t b b b;
#X obj 124 71 r NUDGE!;
#X obj 157 193 r NUDGE-RANGE;
#X obj 247 308 inlet;
#X obj 232 397 outlet;
#X obj 124 93 spigot;
#X obj 201 76 r attenuators2-s;
#X connect 0 0 4 0;
#X connect 1 0 2 0;
#X connect 2 0 14 0;
#X connect 3 0 7 0;
#X connect 4 0 6 0;
#X connect 5 0 2 0;
#X connect 5 1 2 1;
#X connect 6 0 5 0;
#X connect 7 0 8 0;
#X connect 7 1 9 0;
#X connect 8 0 6 1;
#X connect 9 0 6 1;
#X connect 10 0 0 0;
#X connect 10 1 1 0;
#X connect 10 2 3 0;
#X connect 11 0 15 0;
#X connect 12 0 0 1;
#X connect 13 0 1 1;
#X connect 15 0 10 0;
#X connect 16 0 15 1;
#X restore 453 253 pd nudge-attenuators;
#X obj 453 278 clip 0 127;
#X obj 453 302 expr $f1/128;
#X obj 453 354 int;
#X obj 453 328 * 6;
#X obj 453 595 clip 0 127;
#N canvas 0 22 484 497 nudge-attenuators 0;
#X obj 124 234 random;
#X obj 232 335 f;
#X obj 232 368 +;
#X obj 257 166 random 2;
#X obj 124 275 t f f;
#X obj 124 351 t b f;
#X obj 124 297 *;
#X obj 257 188 sel 0 1;
#X msg 257 280 -1;
#X msg 335 280 1;
#X obj 124 149 t b b b;
#X obj 124 71 r NUDGE!;
#X obj 157 193 r NUDGE-RANGE;
#X obj 247 308 inlet;
#X obj 232 397 outlet;
#X obj 124 93 spigot;
#X obj 201 76 r attenuators2-s;
#X connect 0 0 4 0;
#X connect 1 0 2 0;
#X connect 2 0 14 0;
#X connect 3 0 7 0;
#X connect 4 0 6 0;
#X connect 5 0 2 0;
#X connect 5 1 2 1;
#X connect 6 0 5 0;
#X connect 7 0 8 0;
#X connect 7 1 9 0;
#X connect 8 0 6 1;
#X connect 9 0 6 1;
#X connect 10 0 0 0;
#X connect 10 1 1 0;
#X connect 10 2 3 0;
#X connect 11 0 15 0;
#X connect 12 0 0 1;
#X connect 13 0 1 1;
#X connect 15 0 10 0;
#X connect 16 0 15 1;
#X restore 453 573 pd nudge-attenuators;
#X obj 451 723 clip 0 127;
#N canvas 0 22 484 497 nudge-attenuators 0;
#X obj 124 234 random;
#X obj 232 335 f;
#X obj 232 368 +;
#X obj 257 166 random 2;
#X obj 124 275 t f f;
#X obj 124 351 t b f;
#X obj 124 297 *;
#X obj 257 188 sel 0 1;
#X msg 257 280 -1;
#X msg 335 280 1;
#X obj 124 149 t b b b;
#X obj 124 71 r NUDGE!;
#X obj 157 193 r NUDGE-RANGE;
#X obj 247 308 inlet;
#X obj 232 397 outlet;
#X obj 124 93 spigot;
#X obj 201 76 r attenuators2-s;
#X connect 0 0 4 0;
#X connect 1 0 2 0;
#X connect 2 0 14 0;
#X connect 3 0 7 0;
#X connect 4 0 6 0;
#X connect 5 0 2 0;
#X connect 5 1 2 1;
#X connect 6 0 5 0;
#X connect 7 0 8 0;
#X connect 7 1 9 0;
#X connect 8 0 6 1;
#X connect 9 0 6 1;
#X connect 10 0 0 0;
#X connect 10 1 1 0;
#X connect 10 2 3 0;
#X connect 11 0 15 0;
#X connect 12 0 0 1;
#X connect 13 0 1 1;
#X connect 15 0 10 0;
#X connect 16 0 15 1;
#X restore 451 701 pd nudge-attenuators;
#X obj 642 476 clip 0 127;
#N canvas 0 22 484 497 nudge-attenuators 0;
#X obj 124 234 random;
#X obj 232 335 f;
#X obj 232 368 +;
#X obj 257 166 random 2;
#X obj 124 275 t f f;
#X obj 124 351 t b f;
#X obj 124 297 *;
#X obj 257 188 sel 0 1;
#X msg 257 280 -1;
#X msg 335 280 1;
#X obj 124 149 t b b b;
#X obj 124 71 r NUDGE!;
#X obj 157 193 r NUDGE-RANGE;
#X obj 247 308 inlet;
#X obj 232 397 outlet;
#X obj 124 93 spigot;
#X obj 201 76 r attenuators2-s;
#X connect 0 0 4 0;
#X connect 1 0 2 0;
#X connect 2 0 14 0;
#X connect 3 0 7 0;
#X connect 4 0 6 0;
#X connect 5 0 2 0;
#X connect 5 1 2 1;
#X connect 6 0 5 0;
#X connect 7 0 8 0;
#X connect 7 1 9 0;
#X connect 8 0 6 1;
#X connect 9 0 6 1;
#X connect 10 0 0 0;
#X connect 10 1 1 0;
#X connect 10 2 3 0;
#X connect 11 0 15 0;
#X connect 12 0 0 1;
#X connect 13 0 1 1;
#X connect 15 0 10 0;
#X connect 16 0 15 1;
#X restore 642 454 pd nudge-attenuators;
#N canvas 3 56 484 497 nudge-attenuators 0;
#X obj 124 234 random;
#X obj 232 335 f;
#X obj 232 368 +;
#X obj 257 166 random 2;
#X obj 124 275 t f f;
#X obj 124 351 t b f;
#X obj 124 297 *;
#X obj 257 188 sel 0 1;
#X msg 257 280 -1;
#X msg 335 280 1;
#X obj 124 149 t b b b;
#X obj 124 71 r NUDGE!;
#X obj 157 193 r NUDGE-RANGE;
#X obj 247 308 inlet;
#X obj 232 397 outlet;
#X obj 124 93 spigot;
#X obj 201 76 r attenuators2-s;
#X connect 0 0 4 0;
#X connect 1 0 2 0;
#X connect 2 0 14 0;
#X connect 3 0 7 0;
#X connect 4 0 6 0;
#X connect 5 0 2 0;
#X connect 5 1 2 1;
#X connect 6 0 5 0;
#X connect 7 0 8 0;
#X connect 7 1 9 0;
#X connect 8 0 6 1;
#X connect 9 0 6 1;
#X connect 10 0 0 0;
#X connect 10 1 1 0;
#X connect 10 2 3 0;
#X connect 11 0 15 0;
#X connect 12 0 0 1;
#X connect 13 0 1 1;
#X connect 15 0 10 0;
#X connect 16 0 15 1;
#X restore 644 61 pd nudge-attenuators;
#X obj 644 86 clip 0 127;
#X obj 644 110 expr $f1/128;
#X obj 644 162 int;
#X obj 644 136 * 2;
#N canvas 3 56 484 497 nudge-attenuators 0;
#X obj 124 234 random;
#X obj 232 335 f;
#X obj 232 368 +;
#X obj 257 166 random 2;
#X obj 124 275 t f f;
#X obj 124 351 t b f;
#X obj 124 297 *;
#X obj 257 188 sel 0 1;
#X msg 257 280 -1;
#X msg 335 280 1;
#X obj 124 149 t b b b;
#X obj 124 71 r NUDGE!;
#X obj 157 193 r NUDGE-RANGE;
#X obj 247 308 inlet;
#X obj 232 397 outlet;
#X obj 124 93 spigot;
#X obj 201 76 r attenuators2-s;
#X connect 0 0 4 0;
#X connect 1 0 2 0;
#X connect 2 0 14 0;
#X connect 3 0 7 0;
#X connect 4 0 6 0;
#X connect 5 0 2 0;
#X connect 5 1 2 1;
#X connect 6 0 5 0;
#X connect 7 0 8 0;
#X connect 7 1 9 0;
#X connect 8 0 6 1;
#X connect 9 0 6 1;
#X connect 10 0 0 0;
#X connect 10 1 1 0;
#X connect 10 2 3 0;
#X connect 11 0 15 0;
#X connect 12 0 0 1;
#X connect 13 0 1 1;
#X connect 15 0 10 0;
#X connect 16 0 15 1;
#X restore 643 254 pd nudge-attenuators;
#X obj 643 279 clip 0 127;
#X obj 643 303 expr $f1/128;
#X obj 643 355 int;
#X obj 643 329 * 6;
#X obj 643 596 clip 0 127;
#N canvas 0 22 484 497 nudge-attenuators 0;
#X obj 124 234 random;
#X obj 232 335 f;
#X obj 232 368 +;
#X obj 257 166 random 2;
#X obj 124 275 t f f;
#X obj 124 351 t b f;
#X obj 124 297 *;
#X obj 257 188 sel 0 1;
#X msg 257 280 -1;
#X msg 335 280 1;
#X obj 124 149 t b b b;
#X obj 124 71 r NUDGE!;
#X obj 157 193 r NUDGE-RANGE;
#X obj 247 308 inlet;
#X obj 232 397 outlet;
#X obj 124 93 spigot;
#X obj 201 76 r attenuators2-s;
#X connect 0 0 4 0;
#X connect 1 0 2 0;
#X connect 2 0 14 0;
#X connect 3 0 7 0;
#X connect 4 0 6 0;
#X connect 5 0 2 0;
#X connect 5 1 2 1;
#X connect 6 0 5 0;
#X connect 7 0 8 0;
#X connect 7 1 9 0;
#X connect 8 0 6 1;
#X connect 9 0 6 1;
#X connect 10 0 0 0;
#X connect 10 1 1 0;
#X connect 10 2 3 0;
#X connect 11 0 15 0;
#X connect 12 0 0 1;
#X connect 13 0 1 1;
#X connect 15 0 10 0;
#X connect 16 0 15 1;
#X restore 643 574 pd nudge-attenuators;
#X obj 641 724 clip 0 127;
#N canvas 0 22 484 497 nudge-attenuators 0;
#X obj 124 234 random;
#X obj 232 335 f;
#X obj 232 368 +;
#X obj 257 166 random 2;
#X obj 124 275 t f f;
#X obj 124 351 t b f;
#X obj 124 297 *;
#X obj 257 188 sel 0 1;
#X msg 257 280 -1;
#X msg 335 280 1;
#X obj 124 149 t b b b;
#X obj 124 71 r NUDGE!;
#X obj 157 193 r NUDGE-RANGE;
#X obj 247 308 inlet;
#X obj 232 397 outlet;
#X obj 124 93 spigot;
#X obj 201 76 r attenuators2-s;
#X connect 0 0 4 0;
#X connect 1 0 2 0;
#X connect 2 0 14 0;
#X connect 3 0 7 0;
#X connect 4 0 6 0;
#X connect 5 0 2 0;
#X connect 5 1 2 1;
#X connect 6 0 5 0;
#X connect 7 0 8 0;
#X connect 7 1 9 0;
#X connect 8 0 6 1;
#X connect 9 0 6 1;
#X connect 10 0 0 0;
#X connect 10 1 1 0;
#X connect 10 2 3 0;
#X connect 11 0 15 0;
#X connect 12 0 0 1;
#X connect 13 0 1 1;
#X connect 15 0 10 0;
#X connect 16 0 15 1;
#X restore 641 702 pd nudge-attenuators;
#X obj 264 31 r \$0-sound-gen-low-freq-s2;
#X obj 264 185 s \$0-sound-gen-low-freq-r2;
#X obj 454 32 r \$0-sound-gen-low-freq-s3;
#X obj 454 186 s \$0-sound-gen-low-freq-r3;
#X obj 644 33 r \$0-sound-gen-low-freq-s4;
#X obj 644 187 s \$0-sound-gen-low-freq-r4;
#X obj 453 225 r \$0-sound-gen-mod-s3;
#X obj 453 379 s \$0-sound-gen-mod-r3;
#X obj 263 224 r \$0-sound-gen-mod-s2;
#X obj 263 378 s \$0-sound-gen-mod-r2;
#X obj 643 226 r \$0-sound-gen-mod-s4;
#X obj 643 380 s \$0-sound-gen-mod-r4;
#X obj 642 425 r \$0-sound-gen-freq-s4;
#X obj 642 505 s \$0-sound-gen-freq-r4;
#X obj 452 424 r \$0-sound-gen-freq-s3;
#X obj 452 504 s \$0-sound-gen-freq-r3;
#X obj 262 423 r \$0-sound-gen-freq-s2;
#X obj 262 503 s \$0-sound-gen-freq-r2;
#X obj 263 543 r \$0-sound-gen-w-s2;
#X obj 263 623 s \$0-sound-gen-w-r2;
#X obj 453 544 r \$0-sound-gen-w-s3;
#X obj 453 624 s \$0-sound-gen-w-r3;
#X obj 643 545 r \$0-sound-gen-w-s4;
#X obj 643 625 s \$0-sound-gen-w-r4;
#X obj 641 673 r \$0-sound-gen-l-s4;
#X obj 641 753 s \$0-sound-gen-l-r4;
#X obj 451 672 r \$0-sound-gen-l-s3;
#X obj 451 752 s \$0-sound-gen-l-r3;
#X obj 261 671 r \$0-sound-gen-l-s2;
#X obj 261 751 s \$0-sound-gen-l-r2;
#X connect 0 0 2 0;
#X connect 1 0 0 0;
#X connect 3 0 1 0;
#X connect 4 0 5 0;
#X connect 5 0 6 0;
#X connect 6 0 9 0;
#X connect 7 0 10 0;
#X connect 8 0 4 0;
#X connect 9 0 7 0;
#X connect 11 0 12 0;
#X connect 12 0 13 0;
#X connect 13 0 15 0;
#X connect 14 0 17 0;
#X connect 15 0 14 0;
#X connect 16 0 11 0;
#X connect 18 0 22 0;
#X connect 19 0 18 0;
#X connect 20 0 25 0;
#X connect 21 0 20 0;
#X connect 23 0 19 0;
#X connect 24 0 21 0;
#X connect 26 0 91 0;
#X connect 27 0 26 0;
#X connect 28 0 29 0;
#X connect 29 0 30 0;
#X connect 30 0 32 0;
#X connect 31 0 75 0;
#X connect 32 0 31 0;
#X connect 33 0 34 0;
#X connect 34 0 35 0;
#X connect 35 0 37 0;
#X connect 36 0 83 0;
#X connect 37 0 36 0;
#X connect 38 0 93 0;
#X connect 39 0 38 0;
#X connect 40 0 103 0;
#X connect 41 0 40 0;
#X connect 42 0 89 0;
#X connect 43 0 42 0;
#X connect 44 0 45 0;
#X connect 45 0 46 0;
#X connect 46 0 48 0;
#X connect 47 0 77 0;
#X connect 48 0 47 0;
#X connect 49 0 50 0;
#X connect 50 0 51 0;
#X connect 51 0 53 0;
#X connect 52 0 81 0;
#X connect 53 0 52 0;
#X connect 54 0 95 0;
#X connect 55 0 54 0;
#X connect 56 0 101 0;
#X connect 57 0 56 0;
#X connect 58 0 87 0;
#X connect 59 0 58 0;
#X connect 60 0 61 0;
#X connect 61 0 62 0;
#X connect 62 0 64 0;
#X connect 63 0 79 0;
#X connect 64 0 63 0;
#X connect 65 0 66 0;
#X connect 66 0 67 0;
#X connect 67 0 69 0;
#X connect 68 0 85 0;
#X connect 69 0 68 0;
#X connect 70 0 97 0;
#X connect 71 0 70 0;
#X connect 72 0 99 0;
#X connect 73 0 72 0;
#X connect 74 0 28 0;
#X connect 76 0 44 0;
#X connect 78 0 60 0;
#X connect 80 0 49 0;
#X connect 82 0 33 0;
#X connect 84 0 65 0;
#X connect 86 0 59 0;
#X connect 88 0 43 0;
#X connect 90 0 27 0;
#X connect 92 0 39 0;
#X connect 94 0 55 0;
#X connect 96 0 71 0;
#X connect 98 0 73 0;
#X connect 100 0 57 0;
#X connect 102 0 41 0;
#X restore 83 634 pd parameter-nudging-system;
#N canvas 579 25 861 847 external-messages 0;
#X floatatom 185 535 5 0 0 0 - - -;
#X obj 185 327 spigot;
#X obj 224 278 tgl 15 0 empty empty empty 17 7 0 10 -262144 -1 -1 0
1;
#X obj 267 238 ==;
#X obj 282 214 f \$1;
#X obj 282 190 loadbang;
#X msg 185 202 \$1 \$2;
#X msg 185 156 symbol \$1;
#X obj 185 180 pack s f;
#X obj 185 514 f;
#X obj 185 458 t b f;
#X obj 185 485 spigot;
#X obj 185 62 unpack s f f;
#X symbolatom 185 94 10 0 0 0 - - -;
#X obj 224 298 t f f;
#X obj 257 327 s \$0-msg-spigot;
#X obj 234 459 r \$0-msg-spigot;
#X floatatom 374 536 5 0 0 0 - - -;
#X obj 374 515 f;
#X obj 374 456 t b f;
#X obj 374 486 spigot;
#X obj 424 457 r \$0-msg-spigot;
#X text 418 347 <-----rename to match EXTERNAL MESSAGES parameter names
;
#X text 306 61 <----SYMBOL (parameter name) FLOAT (parameter value)
FLOAT (instance number);
#X obj 185 14 r quad-sound-generator;
#X floatatom 547 534 5 0 0 0 - - -;
#X obj 547 513 f;
#X obj 547 457 t b f;
#X obj 547 484 spigot;
#X obj 596 458 r \$0-msg-spigot;
#X floatatom 736 535 5 0 0 0 - - -;
#X obj 736 514 f;
#X obj 736 455 t b f;
#X obj 736 485 spigot;
#X obj 786 456 r \$0-msg-spigot;
#X text 109 494 MOD;
#X floatatom 184 700 5 0 0 0 - - -;
#X obj 184 679 f;
#X obj 184 623 t b f;
#X obj 184 650 spigot;
#X obj 233 624 r \$0-msg-spigot;
#X floatatom 373 701 5 0 0 0 - - -;
#X obj 373 680 f;
#X obj 373 621 t b f;
#X obj 373 651 spigot;
#X obj 423 622 r \$0-msg-spigot;
#X floatatom 546 699 5 0 0 0 - - -;
#X obj 546 678 f;
#X obj 546 622 t b f;
#X obj 546 649 spigot;
#X obj 595 623 r \$0-msg-spigot;
#X floatatom 735 700 5 0 0 0 - - -;
#X obj 735 679 f;
#X obj 735 620 t b f;
#X obj 735 650 spigot;
#X obj 785 621 r \$0-msg-spigot;
#X text 108 659 Freq;
#X floatatom 183 858 5 0 0 0 - - -;
#X obj 183 837 f;
#X obj 183 781 t b f;
#X obj 183 808 spigot;
#X obj 232 782 r \$0-msg-spigot;
#X floatatom 372 859 5 0 0 0 - - -;
#X obj 372 838 f;
#X obj 372 779 t b f;
#X obj 372 809 spigot;
#X obj 422 780 r \$0-msg-spigot;
#X floatatom 545 857 5 0 0 0 - - -;
#X obj 545 836 f;
#X obj 545 780 t b f;
#X obj 545 807 spigot;
#X obj 594 781 r \$0-msg-spigot;
#X floatatom 734 858 5 0 0 0 - - -;
#X obj 734 837 f;
#X obj 734 778 t b f;
#X obj 734 808 spigot;
#X obj 784 779 r \$0-msg-spigot;
#X text 74 816 Sin-Square;
#X floatatom 182 1002 5 0 0 0 - - -;
#X obj 182 981 f;
#X obj 182 925 t b f;
#X obj 182 952 spigot;
#X obj 231 926 r \$0-msg-spigot;
#X floatatom 371 1003 5 0 0 0 - - -;
#X obj 371 982 f;
#X obj 371 923 t b f;
#X obj 371 953 spigot;
#X obj 421 924 r \$0-msg-spigot;
#X floatatom 544 1001 5 0 0 0 - - -;
#X obj 544 980 f;
#X obj 544 924 t b f;
#X obj 544 951 spigot;
#X obj 593 925 r \$0-msg-spigot;
#X floatatom 733 1002 5 0 0 0 - - -;
#X obj 733 981 f;
#X obj 733 922 t b f;
#X obj 733 952 spigot;
#X obj 783 923 r \$0-msg-spigot;
#X text 85 961 Low-freq;
#X floatatom 181 1141 5 0 0 0 - - -;
#X obj 181 1120 f;
#X obj 181 1064 t b f;
#X obj 181 1091 spigot;
#X obj 230 1065 r \$0-msg-spigot;
#X floatatom 370 1142 5 0 0 0 - - -;
#X obj 370 1121 f;
#X obj 370 1062 t b f;
#X obj 370 1092 spigot;
#X obj 420 1063 r \$0-msg-spigot;
#X floatatom 543 1140 5 0 0 0 - - -;
#X obj 543 1119 f;
#X obj 543 1063 t b f;
#X obj 543 1090 spigot;
#X obj 592 1064 r \$0-msg-spigot;
#X floatatom 732 1141 5 0 0 0 - - -;
#X obj 732 1120 f;
#X obj 732 1061 t b f;
#X obj 732 1091 spigot;
#X obj 782 1062 r \$0-msg-spigot;
#X text 98 1099 Volume;
#X obj 184 720 s \$0-sound-gen-freq-r1;
#X obj 373 721 s \$0-sound-gen-freq-r2;
#X obj 546 719 s \$0-sound-gen-freq-r3;
#X obj 735 720 s \$0-sound-gen-freq-r4;
#X obj 183 878 s \$0-sound-gen-w-r1;
#X obj 372 879 s \$0-sound-gen-w-r2;
#X obj 545 877 s \$0-sound-gen-w-r3;
#X obj 734 878 s \$0-sound-gen-w-r4;
#X obj 181 1161 s \$0-sound-gen-l-r1;
#X obj 370 1162 s \$0-sound-gen-l-r2;
#X obj 543 1160 s \$0-sound-gen-l-r3;
#X obj 732 1161 s \$0-sound-gen-l-r4;
#X obj 185 555 s \$0-sound-gen-mod-r1;
#X obj 374 556 s \$0-sound-gen-mod-r2;
#X obj 547 554 s \$0-sound-gen-mod-r3;
#X obj 736 555 s \$0-sound-gen-mod-r4;
#X obj 182 1022 s \$0-sound-gen-low-freq-r1;
#X obj 371 1023 s \$0-sound-gen-low-freq-r2;
#X obj 544 1021 s \$0-sound-gen-low-freq-r3;
#X obj 733 1022 s \$0-sound-gen-low-freq-r4;
#X obj 185 380 route LFO1 LFO2 LFO3 LFO4 F1 F2 F3 F4 MOD1 MOD2 MOD3
MOD4 W1 W2 W3 W4 L1 L2 L3 L4;
#X connect 0 0 132 0;
#X connect 1 0 140 0;
#X connect 2 0 14 0;
#X connect 3 0 2 0;
#X connect 4 0 3 1;
#X connect 5 0 4 0;
#X connect 6 0 1 0;
#X connect 7 0 8 0;
#X connect 8 0 6 0;
#X connect 9 0 0 0;
#X connect 10 0 11 0;
#X connect 10 1 9 1;
#X connect 11 0 9 0;
#X connect 12 0 13 0;
#X connect 12 1 8 1;
#X connect 12 2 3 0;
#X connect 13 0 7 0;
#X connect 14 0 1 1;
#X connect 14 1 15 0;
#X connect 16 0 11 1;
#X connect 17 0 133 0;
#X connect 18 0 17 0;
#X connect 19 0 20 0;
#X connect 19 1 18 1;
#X connect 20 0 18 0;
#X connect 21 0 20 1;
#X connect 24 0 12 0;
#X connect 25 0 134 0;
#X connect 26 0 25 0;
#X connect 27 0 28 0;
#X connect 27 1 26 1;
#X connect 28 0 26 0;
#X connect 29 0 28 1;
#X connect 30 0 135 0;
#X connect 31 0 30 0;
#X connect 32 0 33 0;
#X connect 32 1 31 1;
#X connect 33 0 31 0;
#X connect 34 0 33 1;
#X connect 36 0 120 0;
#X connect 37 0 36 0;
#X connect 38 0 39 0;
#X connect 38 1 37 1;
#X connect 39 0 37 0;
#X connect 40 0 39 1;
#X connect 41 0 121 0;
#X connect 42 0 41 0;
#X connect 43 0 44 0;
#X connect 43 1 42 1;
#X connect 44 0 42 0;
#X connect 45 0 44 1;
#X connect 46 0 122 0;
#X connect 47 0 46 0;
#X connect 48 0 49 0;
#X connect 48 1 47 1;
#X connect 49 0 47 0;
#X connect 50 0 49 1;
#X connect 51 0 123 0;
#X connect 52 0 51 0;
#X connect 53 0 54 0;
#X connect 53 1 52 1;
#X connect 54 0 52 0;
#X connect 55 0 54 1;
#X connect 57 0 124 0;
#X connect 58 0 57 0;
#X connect 59 0 60 0;
#X connect 59 1 58 1;
#X connect 60 0 58 0;
#X connect 61 0 60 1;
#X connect 62 0 125 0;
#X connect 63 0 62 0;
#X connect 64 0 65 0;
#X connect 64 1 63 1;
#X connect 65 0 63 0;
#X connect 66 0 65 1;
#X connect 67 0 126 0;
#X connect 68 0 67 0;
#X connect 69 0 70 0;
#X connect 69 1 68 1;
#X connect 70 0 68 0;
#X connect 71 0 70 1;
#X connect 72 0 127 0;
#X connect 73 0 72 0;
#X connect 74 0 75 0;
#X connect 74 1 73 1;
#X connect 75 0 73 0;
#X connect 76 0 75 1;
#X connect 78 0 136 0;
#X connect 79 0 78 0;
#X connect 80 0 81 0;
#X connect 80 1 79 1;
#X connect 81 0 79 0;
#X connect 82 0 81 1;
#X connect 83 0 137 0;
#X connect 84 0 83 0;
#X connect 85 0 86 0;
#X connect 85 1 84 1;
#X connect 86 0 84 0;
#X connect 87 0 86 1;
#X connect 88 0 138 0;
#X connect 89 0 88 0;
#X connect 90 0 91 0;
#X connect 90 1 89 1;
#X connect 91 0 89 0;
#X connect 92 0 91 1;
#X connect 93 0 139 0;
#X connect 94 0 93 0;
#X connect 95 0 96 0;
#X connect 95 1 94 1;
#X connect 96 0 94 0;
#X connect 97 0 96 1;
#X connect 99 0 128 0;
#X connect 100 0 99 0;
#X connect 101 0 102 0;
#X connect 101 1 100 1;
#X connect 102 0 100 0;
#X connect 103 0 102 1;
#X connect 104 0 129 0;
#X connect 105 0 104 0;
#X connect 106 0 107 0;
#X connect 106 1 105 1;
#X connect 107 0 105 0;
#X connect 108 0 107 1;
#X connect 109 0 130 0;
#X connect 110 0 109 0;
#X connect 111 0 112 0;
#X connect 111 1 110 1;
#X connect 112 0 110 0;
#X connect 113 0 112 1;
#X connect 114 0 131 0;
#X connect 115 0 114 0;
#X connect 116 0 117 0;
#X connect 116 1 115 1;
#X connect 117 0 115 0;
#X connect 118 0 117 1;
#X connect 140 0 80 0;
#X connect 140 1 85 0;
#X connect 140 2 90 0;
#X connect 140 3 95 0;
#X connect 140 4 38 0;
#X connect 140 5 43 0;
#X connect 140 6 48 0;
#X connect 140 7 53 0;
#X connect 140 8 10 0;
#X connect 140 9 19 0;
#X connect 140 10 27 0;
#X connect 140 11 32 0;
#X connect 140 12 59 0;
#X connect 140 13 64 0;
#X connect 140 14 69 0;
#X connect 140 15 74 0;
#X connect 140 16 101 0;
#X connect 140 17 106 0;
#X connect 140 18 111 0;
#X connect 140 19 116 0;
#X restore 84 608 pd external-messages;
#X obj 312 138 cnv 5 5 5 empty \$0-instance-num 0 0 0 0 15 -228856
-66577 0;
#X text 344 598 Selector of input sound to modulate the frequency:
EXP - Exponentially modulate with the external input \; LIN - Linearly
modulate with the external input \; Num(2) - Modulate with the corresponding
channel.;
#X text 343 659 Low frequency oscillation - LFO;
#X text 342 672 Toggle of low frequency oscillation.;
#X text 344 713 Knob of frequency.;
#X text 343 752 Fader of sine wave to square wave.;
#X text 346 585 Modulation input sound - OFF_EXP_LIN_2_3_4;
#X text 344 699 Frequency - Freq;
#X text 344 740 Waveform fader - Wave;
#X text 343 778 Volumne - Vol;
#X text 213 101 Ch1;
#X text 296 101 Ch2;
#X text 380 101 Ch3;
#X text 457 101 Ch4;
#X text 213 401 Ch1;
#X text 296 401 Ch2;
#X text 380 401 Ch3;
#X text 457 401 Ch4;
#X connect 4 0 54 0;
#X connect 5 0 55 0;
#X connect 6 0 53 0;
#X connect 7 0 56 0;
#X connect 8 0 57 0;
#X connect 9 0 58 0;
#X connect 12 0 16 0;
#X connect 13 0 224 0;
#X connect 14 0 13 0;
#X connect 16 0 35 0;
#X connect 17 0 16 2;
#X connect 18 0 19 0;
#X connect 19 0 37 0;
#X connect 19 1 20 0;
#X connect 19 2 21 0;
#X connect 19 3 38 0;
#X connect 19 4 22 0;
#X connect 19 5 23 0;
#X connect 20 0 123 0;
#X connect 21 0 124 0;
#X connect 22 0 24 4;
#X connect 23 0 24 4;
#X connect 24 0 59 0;
#X connect 25 0 16 4;
#X connect 36 0 24 0;
#X connect 37 0 122 0;
#X connect 38 0 24 4;
#X connect 39 0 24 1;
#X connect 40 0 24 2;
#X connect 41 0 24 3;
#X connect 42 0 47 0;
#X connect 43 0 47 0;
#X connect 43 0 224 0;
#X connect 44 0 47 0;
#X connect 45 0 47 0;
#X connect 47 0 50 0;
#X connect 48 0 49 0;
#X connect 49 0 47 1;
#X connect 52 0 16 1;
#X connect 59 0 110 0;
#X connect 62 0 79 1;
#X connect 63 0 64 0;
#X connect 63 0 62 0;
#X connect 64 0 80 1;
#X connect 71 0 72 0;
#X connect 72 0 79 0;
#X connect 73 0 71 0;
#X connect 73 0 74 0;
#X connect 74 0 80 0;
#X connect 77 0 16 3;
#X connect 78 0 16 3;
#X connect 79 0 75 0;
#X connect 80 0 76 0;
#X connect 81 0 115 0;
#X connect 82 0 89 0;
#X connect 82 1 83 0;
#X connect 82 2 84 0;
#X connect 82 3 121 0;
#X connect 82 4 85 0;
#X connect 82 5 86 0;
#X connect 83 0 91 0;
#X connect 84 0 92 0;
#X connect 85 0 87 4;
#X connect 86 0 87 4;
#X connect 87 0 96 0;
#X connect 88 0 87 0;
#X connect 89 0 90 0;
#X connect 90 0 87 4;
#X connect 91 0 87 4;
#X connect 92 0 87 4;
#X connect 93 0 87 1;
#X connect 94 0 87 2;
#X connect 95 0 87 3;
#X connect 96 0 108 0;
#X connect 97 0 102 1;
#X connect 98 0 103 1;
#X connect 99 0 100 0;
#X connect 100 0 102 0;
#X connect 101 0 103 0;
#X connect 102 0 119 0;
#X connect 103 0 120 0;
#X connect 105 0 81 0;
#X connect 106 0 81 1;
#X connect 107 0 81 2;
#X connect 109 0 81 3;
#X connect 111 0 16 3;
#X connect 112 0 81 3;
#X connect 113 0 81 3;
#X connect 114 0 81 4;
#X connect 116 0 82 0;
#X connect 117 0 98 0;
#X connect 117 0 97 0;
#X connect 118 0 99 0;
#X connect 118 0 101 0;
#X connect 121 0 87 4;
#X connect 122 0 24 4;
#X connect 123 0 24 4;
#X connect 124 0 24 4;
#X connect 125 0 156 0;
#X connect 126 0 132 0;
#X connect 126 1 127 0;
#X connect 126 2 128 0;
#X connect 126 3 147 0;
#X connect 126 4 163 0;
#X connect 126 5 129 0;
#X connect 127 0 134 0;
#X connect 128 0 135 0;
#X connect 129 0 130 4;
#X connect 130 0 139 0;
#X connect 131 0 130 0;
#X connect 132 0 133 0;
#X connect 133 0 130 4;
#X connect 134 0 130 4;
#X connect 135 0 130 4;
#X connect 136 0 130 1;
#X connect 137 0 130 2;
#X connect 138 0 130 3;
#X connect 139 0 157 0;
#X connect 140 0 145 1;
#X connect 141 0 146 1;
#X connect 142 0 143 0;
#X connect 143 0 145 0;
#X connect 144 0 146 0;
#X connect 145 0 161 0;
#X connect 146 0 162 0;
#X connect 147 0 130 4;
#X connect 149 0 125 0;
#X connect 150 0 125 1;
#X connect 151 0 125 2;
#X connect 152 0 125 3;
#X connect 153 0 125 3;
#X connect 154 0 125 3;
#X connect 155 0 125 4;
#X connect 158 0 126 0;
#X connect 159 0 141 0;
#X connect 159 0 140 0;
#X connect 160 0 142 0;
#X connect 160 0 144 0;
#X connect 163 0 130 4;
#X connect 164 0 195 0;
#X connect 165 0 170 0;
#X connect 165 1 166 0;
#X connect 165 2 167 0;
#X connect 165 3 185 0;
#X connect 165 4 186 0;
#X connect 165 5 202 0;
#X connect 166 0 172 0;
#X connect 167 0 173 0;
#X connect 168 0 177 0;
#X connect 169 0 168 0;
#X connect 170 0 171 0;
#X connect 171 0 168 4;
#X connect 172 0 168 4;
#X connect 173 0 168 4;
#X connect 174 0 168 1;
#X connect 175 0 168 2;
#X connect 176 0 168 3;
#X connect 177 0 196 0;
#X connect 178 0 183 1;
#X connect 179 0 184 1;
#X connect 180 0 181 0;
#X connect 181 0 183 0;
#X connect 182 0 184 0;
#X connect 183 0 199 0;
#X connect 184 0 200 0;
#X connect 185 0 168 4;
#X connect 186 0 168 4;
#X connect 188 0 164 0;
#X connect 189 0 164 1;
#X connect 190 0 164 2;
#X connect 191 0 164 3;
#X connect 192 0 164 3;
#X connect 193 0 164 3;
#X connect 194 0 164 4;
#X connect 197 0 179 0;
#X connect 197 0 178 0;
#X connect 198 0 180 0;
#X connect 198 0 182 0;
#X connect 201 0 165 0;
#X connect 202 0 168 4;
#X connect 203 0 10 0;
#X connect 204 0 10 0;
#X connect 205 0 10 0;
#X connect 206 0 207 0;
#X connect 208 0 207 0;
#X connect 209 0 207 0;
#X connect 210 0 11 0;
#X connect 211 0 11 0;
#X connect 212 0 214 0;
#X connect 213 0 214 0;
#X connect 215 0 217 0;
#X connect 216 0 217 0;
#X connect 218 0 220 0;
#X connect 219 0 220 0;
#X connect 229 0 231 0;
#X connect 231 0 232 0;
#X connect 232 0 230 0;
#X coords 0 -1 1 1 430 320 1 50 100;
