#N canvas 473 54 911 729 10;
#X obj 114 112 cnv 5 10 10 empty empty RINGMODULATOR 0 0 0 10 -262144
-66577 0;
#X obj 331 109 cnv 5 5 5 empty \$0-instance-num 0 0 0 0 12 -262144
-66577 0;
#X obj 330 487 *~;
#X obj 446 437 inlet~;
#X obj 298 437 inlet~;
#X obj 297 600 outlet~;
#X obj 447 599 outlet~;
#X obj 330 532 *~, f 6;
#X obj 299 532 *~;
#X obj 445 530 *~;
#X obj 182 383 / 127;
#X obj 363 382 / 127;
#X obj 534 382 / 127;
#X text 300 135 A;
#X text 294 181 AB;
#X text 298 233 B;
#X obj 535 460 line~;
#X obj 535 436 pack 0 50;
#X obj 362 461 line~;
#X obj 362 437 pack 0 50;
#X obj 184 460 line~;
#X obj 184 436 pack 0 50;
#X obj 314 128 moonlib/mknob 25 100 0 127 0 0 empty empty empty -2
-6 0 8 -262144 -1 -1 0 1;
#X obj 313 176 moonlib/mknob 25 100 0 127 0 0 empty empty empty -2
-6 0 8 -262144 -1 -1 0 1;
#X obj 313 223 moonlib/mknob 25 100 0 127 0 0 empty empty empty -2
-6 0 8 -262144 -1 -1 0 1;
#X connect 2 0 7 0;
#X connect 3 0 2 1;
#X connect 3 0 9 0;
#X connect 4 0 2 0;
#X connect 4 0 8 0;
#X connect 7 0 5 0;
#X connect 7 0 6 0;
#X connect 8 0 5 0;
#X connect 9 0 6 0;
#X connect 10 0 21 0;
#X connect 11 0 19 0;
#X connect 12 0 17 0;
#X connect 16 0 9 1;
#X connect 17 0 16 0;
#X connect 18 0 7 1;
#X connect 19 0 18 0;
#X connect 20 0 8 1;
#X connect 21 0 20 0;
#X connect 22 0 10 0;
#X connect 23 0 11 0;
#X connect 24 0 12 0;
#X coords 0 -1 1 1 250 185 2 100 100;
