#N canvas 23 56 911 676 10;
#X declare -lib moonlib;
#X obj 331 109 cnv 5 5 5 empty \$0-instance-num 0 0 0 0 12 -262144
-66577 0;
#X obj 301 103 cnv 15 428 314 empty empty RINGMODULATOR_3105 10 35
0 15 -228856 -66577 0;
#X text 302 105 A;
#X text 713 106 B;
#X obj 350 554 *~;
#X obj 466 504 inlet~;
#X obj 318 504 inlet~;
#X obj 317 667 outlet~;
#X obj 467 666 outlet~;
#X obj 350 599 *~, f 6;
#X obj 319 599 *~;
#X obj 465 597 *~;
#X obj 202 450 / 127;
#X obj 383 449 / 127;
#X obj 554 449 / 127;
#X obj 555 527 line~;
#X obj 555 503 pack 0 50;
#X obj 382 528 line~;
#X obj 382 504 pack 0 50;
#X obj 204 527 line~;
#X obj 204 503 pack 0 50;
#X obj 658 145 moonlib/mknob 30 100 0 127 0 0 \$0-gain-a-s \$0-gain-a-r
A -12 15 0 12 -258113 -262144 -1 0 1;
#X obj 659 249 moonlib/mknob 30 100 0 127 0 0 \$0-gain-ab-s \$0-gain-ab-r
AB -18 15 0 12 -1 -262144 -1 0 1;
#X obj 660 354 moonlib/mknob 30 100 0 127 0 0 \$0-gain-b-s \$0-gain-b-r
B -12 15 0 12 -258113 -262144 -1 0 1;
#X text 303 399 A;
#X text 714 400 B;
#X obj 30 685 declare -lib moonlib;
#X obj 556 421 r \$0-gain-b-s;
#X obj 203 418 r \$0-gain-a-s;
#X obj 381 422 r \$0-gain-ab-s;
#X obj 555 550 *~ 100;
#X obj 555 571 dbtorms~;
#X obj 203 551 *~ 100;
#X obj 203 572 dbtorms~;
#X obj 383 553 *~ 100;
#X obj 383 574 dbtorms~;
#X obj 499 138 cnv 5 5 5 empty \$0-instance-num 3 0 0 0 15 -228856
-66577 0;
#X connect 4 0 9 0;
#X connect 5 0 4 1;
#X connect 5 0 11 0;
#X connect 6 0 4 0;
#X connect 6 0 10 0;
#X connect 9 0 7 0;
#X connect 9 0 8 0;
#X connect 10 0 7 0;
#X connect 11 0 8 0;
#X connect 12 0 20 0;
#X connect 13 0 18 0;
#X connect 14 0 16 0;
#X connect 15 0 30 0;
#X connect 16 0 15 0;
#X connect 17 0 34 0;
#X connect 18 0 17 0;
#X connect 19 0 32 0;
#X connect 20 0 19 0;
#X connect 27 0 14 0;
#X connect 28 0 12 0;
#X connect 29 0 13 0;
#X connect 30 0 31 0;
#X connect 31 0 11 1;
#X connect 32 0 33 0;
#X connect 33 0 10 1;
#X connect 34 0 35 0;
#X connect 35 0 9 1;
#X coords 0 -1 1 1 430 320 2 300 100;
