#N canvas 3 56 1253 676 10;
#X obj 192 132 cnv 5 5 5 empty empty STEREO-ELECTRONIC-ECHO 0 0 0 10
-262144 -66577 0;
#X obj 930 52 openpanel;
#X msg 930 76 open \$1;
#X obj 930 105 readsf~;
#X obj 884 591 *~;
#X obj 929 24 bng 15 250 50 0 empty empty empty 17 7 0 10 -262144 -1
-1;
#X msg 891 51 1;
#X floatatom 945 604 5 0 0 0 - - #0-feedback-scaled-s;
#X obj 813 33 adc~;
#X obj 715 622 *~;
#X floatatom 778 554 5 0 0 0 - - -;
#X obj 588 543 *~;
#X floatatom 635 473 5 0 0 0 - - -;
#X obj 612 450 expr 1 - $f1;
#X text 876 650 feedback sent to delwrite~;
#X floatatom 1421 44 5 0 0 0 - - -;
#X obj 1421 64 dbtorms;
#X floatatom 1421 85 5 0 0 0 - - -;
#X obj 582 101 inlet~ A;
#X obj 1072 92 inlet~ B;
#X obj 590 678 outlet~ A;
#X obj 1076 671 outlet~ B;
#X obj 1372 604 *~;
#X floatatom 1416 618 5 0 0 0 - - -;
#X obj 1203 639 *~;
#X floatatom 1269 564 5 0 0 0 - - -;
#X obj 1076 588 *~;
#X floatatom 1130 528 5 0 0 0 - - -;
#X obj 1103 507 expr 1 - $f1;
#X text 1369 670 feedback sent to delwrite~;
#X text 483 532 A bus: dry signal;
#X text 685 645 A bus: wet signal;
#X text 1087 615 B Bus: dry signal;
#X text 1238 640 B Bus: wet signal;
#X obj 465 619 expr 1-$f1;
#X obj 884 628 send~ feedback_signal_A;
#X obj 706 158 receive~ feedback_signal_A;
#X obj 1372 651 send~ feedback_signal_B;
#X obj 1192 162 receive~ feedback_signal_B;
#X obj 709 227 delwrite~ delay_A 100;
#X obj 1195 224 delwrite~ delay_B 100;
#X obj 1421 105 * 127;
#X floatatom 1421 126 5 0 0 0 - - -;
#X msg 1383 37 99;
#X obj 945 580 / 127;
#X obj 811 517 *~;
#X obj 954 519 *~;
#X obj 1267 498 *~;
#X obj 1415 595 / 127;
#X obj 1367 494 *~;
#X floatatom 855 518 5 0 0 0 - - -;
#X floatatom 1007 520 5 0 0 0 - - -;
#X floatatom 1303 500 5 0 0 0 - - -;
#X floatatom 1409 495 5 0 0 0 - - -;
#X obj 420 592 / 127;
#X text 775 454 A bus feedback = (1-t)*A_Delay + t*B_Delay;
#X msg 887 86 0;
#X obj 828 98 *~ 1;
#X floatatom 849 71 5 0 0 0 - - -;
#X obj 713 357 delread4~ delay_A 100;
#X obj 1193 355 delread4~ delay_B 100;
#N canvas 345 23 935 432 flanger_A 0;
#X floatatom 560 182 5 0 0 0 - - #0-real-delay-time-s;
#X floatatom 186 75 5 0 0 0 - - -;
#X obj 187 100 osc~;
#X obj 187 121 +~ 1;
#X obj 187 142 /~ 2;
#X obj 191 245 *~;
#X obj 482 240 pack 0 10;
#X obj 482 261 line~;
#X floatatom 362 164 5 0 0 0 - - -;
#X obj 264 173 pack 0 10;
#X obj 264 200 line~;
#X obj 190 359 +~;
#X obj 190 394 outlet~, f 9;
#X obj 491 297 tgl 15 0 empty empty empty 17 7 0 10 -262144 -1 -1 0
1;
#X obj 491 317 metro 20;
#X obj 491 338 snapshot~;
#X obj 495 370 hsl 128 15 0 127 0 0 empty empty empty -2 -8 0 10 -262144
-1 -1 0 1;
#X obj 232 46 loadbang;
#X obj 263 149 / 2;
#X text 214 238 modulation signal;
#X text 366 179 width;
#X text 116 67 speed of modulation;
#X obj 348 63 t b f;
#X obj 348 85 1;
#X obj 348 108 /;
#X floatatom 348 129 5 0 0 0 - - -;
#X msg 232 67 0.2;
#X obj 8 308 osc~;
#X floatatom 9 273 5 0 0 0 - - -;
#X obj 9 337 *~;
#X floatatom 45 298 5 0 0 0 - - -;
#X obj 124 261 *~;
#X obj 48 325 / 10;
#X obj 482 111 / 2;
#X obj 482 140 + 10;
#X obj 109 135 inlet~;
#X obj 481 81 r \$0-delayTime-s;
#X connect 1 0 2 0;
#X connect 2 0 3 0;
#X connect 3 0 4 0;
#X connect 4 0 5 0;
#X connect 5 0 31 1;
#X connect 5 0 11 0;
#X connect 6 0 7 0;
#X connect 7 0 11 1;
#X connect 9 0 10 0;
#X connect 10 0 5 1;
#X connect 11 0 12 0;
#X connect 11 0 15 0;
#X connect 13 0 14 0;
#X connect 14 0 15 0;
#X connect 15 0 16 0;
#X connect 17 0 26 0;
#X connect 18 0 8 0;
#X connect 18 0 9 0;
#X connect 18 0 22 0;
#X connect 22 0 23 0;
#X connect 22 1 24 1;
#X connect 23 0 24 0;
#X connect 24 0 25 0;
#X connect 25 0 2 0;
#X connect 26 0 2 0;
#X connect 27 0 29 0;
#X connect 28 0 27 0;
#X connect 30 0 32 0;
#X connect 31 0 11 0;
#X connect 32 0 29 1;
#X connect 33 0 34 0;
#X connect 34 0 0 0;
#X connect 34 0 6 0;
#X connect 34 0 18 0;
#X connect 35 0 31 0;
#X connect 36 0 33 0;
#X restore 713 318 pd flanger_A;
#N canvas 604 23 655 530 flanger_B 0;
#X floatatom 193 108 5 0 0 0 - - -;
#X obj 194 133 osc~;
#X obj 194 154 +~ 1;
#X obj 194 175 /~ 2;
#X obj 194 273 *~;
#X obj 489 273 pack 0 10;
#X obj 489 294 line~;
#X floatatom 369 197 5 0 0 0 - - -;
#X obj 271 211 pack 0 10;
#X obj 271 233 line~;
#X obj 195 391 +~;
#X obj 195 426 outlet~, f 9;
#X obj 498 330 tgl 15 0 empty empty empty 17 7 0 10 -262144 -1 -1 0
1;
#X obj 498 350 metro 20;
#X obj 498 371 snapshot~;
#X obj 502 403 hsl 128 15 0 127 0 0 empty empty empty -2 -8 0 10 -262144
-1 -1 0 1;
#X obj 145 55 loadbang;
#X obj 271 187 / 2;
#X text 221 271 modulation signal;
#X text 373 212 width;
#X text 121 92 speed of modulation;
#X obj 355 96 t b f;
#X obj 355 141 /;
#X floatatom 355 162 5 0 0 0 - - -;
#X msg 145 78 0.2;
#X obj 355 118 1.1;
#X obj 96 163 select 0 1;
#X floatatom 6 217 5 0 0 0 - - -;
#X obj 7 241 osc~;
#X obj 7 262 +~ 1;
#X obj 7 283 /~ 2;
#X obj 192 317 *~;
#X obj 94 213 bng 15 250 50 0 empty empty empty 17 7 0 10 -262144 -1
-1;
#X msg 98 247 1;
#X obj 96 127 tgl 15 0 empty empty empty 17 7 0 10 -262144 -1 -1 0
1;
#X obj 8 335 *~;
#X obj 111 332 pack 0 10;
#X obj 111 359 line~;
#X obj 8 366 *~;
#X msg 69 247 0;
#X obj 124 212 bng 15 250 50 0 empty empty empty 17 7 0 10 -262144
-1 -1;
#X msg 160 248 1;
#X msg 131 248 0;
#X obj 34 194 * 25;
#X floatatom 568 188 5 0 0 0 - - #1-real-delay-time-s;
#X obj 490 117 / 2;
#X obj 490 146 + 10;
#X obj 117 305 / 4;
#X obj 489 87 r \$0-delayTime-s;
#X obj 32 73 r \$0-b-flanger-s;
#X connect 0 0 1 0;
#X connect 1 0 2 0;
#X connect 2 0 3 0;
#X connect 3 0 4 0;
#X connect 4 0 31 0;
#X connect 5 0 6 0;
#X connect 6 0 10 1;
#X connect 8 0 9 0;
#X connect 9 0 4 1;
#X connect 10 0 11 0;
#X connect 10 0 14 0;
#X connect 12 0 13 0;
#X connect 13 0 14 0;
#X connect 14 0 15 0;
#X connect 16 0 24 0;
#X connect 16 0 33 0;
#X connect 17 0 7 0;
#X connect 17 0 8 0;
#X connect 17 0 21 0;
#X connect 17 0 47 0;
#X connect 21 0 25 0;
#X connect 21 1 22 1;
#X connect 22 0 23 0;
#X connect 23 0 1 0;
#X connect 23 0 43 0;
#X connect 24 0 1 0;
#X connect 25 0 22 0;
#X connect 26 0 32 0;
#X connect 26 1 40 0;
#X connect 27 0 28 0;
#X connect 28 0 29 0;
#X connect 29 0 30 0;
#X connect 30 0 35 0;
#X connect 31 0 10 0;
#X connect 32 0 39 0;
#X connect 32 0 33 0;
#X connect 33 0 31 1;
#X connect 34 0 26 0;
#X connect 35 0 38 0;
#X connect 36 0 37 0;
#X connect 37 0 35 1;
#X connect 38 0 10 0;
#X connect 39 0 38 1;
#X connect 40 0 42 0;
#X connect 40 0 41 0;
#X connect 41 0 38 1;
#X connect 42 0 31 1;
#X connect 43 0 27 0;
#X connect 45 0 46 0;
#X connect 46 0 44 0;
#X connect 46 0 5 0;
#X connect 46 0 17 0;
#X connect 47 0 36 0;
#X connect 48 0 45 0;
#X connect 49 0 34 0;
#X restore 1193 316 pd flanger_B;
#N canvas 498 306 659 426 lp_filter 0;
#X obj 209 88 inlet~;
#X obj 240 130 env~ 1024;
#X obj 216 372 outlet~;
#X obj 246 168 line~;
#X obj 214 276 vcf~, f 9;
#X obj 136 91 osc~ 440;
#X floatatom 127 49 5 0 0 0 - - -;
#X floatatom 319 241 5 0 0 0 - - -;
#X obj 124 186 *~;
#X obj 275 201 snapshot~;
#X floatatom 275 222 5 0 0 0 - - -;
#X floatatom 149 160 5 0 0 0 - - -;
#X obj 333 159 bng 15 250 50 0 empty empty empty 17 7 0 10 -262144
-1 -1;
#X floatatom 410 152 5 0 0 0 - - -;
#X connect 0 0 1 0;
#X connect 0 0 4 0;
#X connect 1 0 3 0;
#X connect 3 0 4 1;
#X connect 3 0 9 0;
#X connect 4 0 2 0;
#X connect 5 0 8 0;
#X connect 6 0 5 0;
#X connect 7 0 4 2;
#X connect 9 0 10 0;
#X connect 11 0 8 1;
#X connect 12 0 9 0;
#X restore 1319 399 pd lp_filter;
#X obj 612 497 pack 0 50;
#X obj 612 518 line~;
#X obj 741 574 pack 0 50;
#X obj 741 595 line~;
#X obj 1232 590 pack 0 50;
#X obj 1232 611 line~;
#X obj 1105 551 pack 0 50;
#X obj 1105 572 line~;
#X obj 613 413 / 127;
#X obj 739 530 / 127;
#X obj 1103 486 / 127;
#X obj 1231 542 / 127;
#X obj 532 174 loadbang;
#N canvas 621 41 659 426 lp_filter 0;
#X obj 210 56 inlet~;
#X obj 216 372 outlet~;
#X obj 214 276 vcf~, f 9;
#X obj 136 91 osc~ 440;
#X floatatom 127 49 5 0 0 0 - - -;
#X floatatom 352 257 5 0 0 0 - - -;
#X obj 124 186 *~;
#X obj 427 210 snapshot~;
#X floatatom 424 239 5 0 0 0 - - -;
#X floatatom 149 160 5 0 0 0 - - -;
#X obj 432 148 bng 15 250 50 0 empty empty empty 17 7 0 10 -262144
-1 -1;
#X obj 265 93 dbtorms;
#X obj 267 195 line~;
#X obj 438 179 metro 100;
#X obj 432 117 tgl 15 0 empty empty empty 17 7 0 10 -262144 -1 -1 0
1;
#X floatatom 339 113 5 0 0 0 - - -;
#X obj 267 171 pack 0 20;
#X floatatom 372 141 5 0 0 0 - - -;
#X obj 265 70 env~;
#X obj 265 114 * 1000;
#X obj 270 144 + 100;
#X connect 0 0 2 0;
#X connect 0 0 18 0;
#X connect 2 0 1 0;
#X connect 3 0 6 0;
#X connect 4 0 3 0;
#X connect 5 0 2 2;
#X connect 7 0 8 0;
#X connect 9 0 6 1;
#X connect 10 0 13 0;
#X connect 11 0 19 0;
#X connect 12 0 7 0;
#X connect 12 0 2 1;
#X connect 13 0 7 0;
#X connect 14 0 10 0;
#X connect 16 0 12 0;
#X connect 17 0 20 1;
#X connect 18 0 11 0;
#X connect 19 0 20 0;
#X connect 19 0 15 0;
#X connect 20 0 16 0;
#X restore 1195 398 pd lp_filter;
#N canvas 574 23 659 426 lp_filter 0;
#X obj 210 56 inlet~;
#X obj 216 372 outlet~;
#X obj 214 276 vcf~, f 9;
#X obj 136 91 osc~ 440;
#X floatatom 127 49 5 0 0 0 - - -;
#X floatatom 352 257 5 0 0 0 - - -;
#X obj 124 186 *~;
#X obj 427 210 snapshot~;
#X floatatom 424 239 5 0 0 0 - - -;
#X floatatom 149 160 5 0 0 0 - - -;
#X obj 432 148 bng 15 250 50 0 empty empty empty 17 7 0 10 -262144
-1 -1;
#X obj 265 93 dbtorms;
#X obj 267 195 line~;
#X obj 525 308 fiddle~;
#X obj 438 179 metro 100;
#X obj 432 117 tgl 15 0 empty empty empty 17 7 0 10 -262144 -1 -1 0
1;
#X floatatom 345 178 5 0 0 0 - - -;
#X obj 267 171 pack 0 20;
#X floatatom 323 122 5 0 0 0 - - -;
#X obj 519 254 osc~ 440;
#X floatatom 536 360 5 0 0 0 - - -;
#X floatatom 535 220 5 0 0 0 - - -;
#X obj 265 70 env~;
#X obj 265 114 * 1000;
#X obj 270 144 + 100;
#X connect 0 0 2 0;
#X connect 0 0 22 0;
#X connect 2 0 1 0;
#X connect 3 0 6 0;
#X connect 4 0 3 0;
#X connect 5 0 2 2;
#X connect 7 0 8 0;
#X connect 9 0 6 1;
#X connect 10 0 14 0;
#X connect 11 0 23 0;
#X connect 12 0 7 0;
#X connect 12 0 2 1;
#X connect 13 2 20 0;
#X connect 14 0 7 0;
#X connect 15 0 10 0;
#X connect 17 0 12 0;
#X connect 18 0 24 1;
#X connect 19 0 13 0;
#X connect 21 0 19 0;
#X connect 22 0 11 0;
#X connect 23 0 24 0;
#X connect 24 0 17 0;
#X restore 714 385 pd lp_filter;
#X obj 101 103 cnv 15 428 314 empty empty ELECTRONIC-ECHO_3102 10 35
0 15 -233017 -66577 0;
#X obj 325 137 cnv 5 5 5 empty \$0-instance-num 0 0 0 0 15 -228856
-66577 0;
#X obj 323 305 mknob 25 100 0 127 0 0 \$0-drywet-s \$0-drywet-r Dry/Wet
-2 -6 0 12 -258113 -262144 -1 0 1;
#X floatatom 323 335 5 0 0 0 - - -;
#X obj 187 201 mknob 25 100 0 113.1 0 0 \$0-feedback-s \$0-feedback-r
Feedback -2 -6 0 12 -33289 -262144 -1 0 1;
#X obj 188 306 mknob 25 100 0 127 0 0 \$0-delayTime-s \$0-delayTime-r
Delay_Time -2 -6 0 12 -33289 -262144 -1 0 1;
#X obj 321 199 mknob 25 100 0 127 0 0 \$0-A-B-Blend-s \$0-A-B-Blend-r
A-B_Blend -2 -6 0 12 -33289 -262144 -1 0 1;
#X floatatom 321 233 5 0 0 0 - - -;
#X floatatom 186 232 5 0 0 0 - - -;
#X floatatom 187 336 5 0 0 0 - - -;
#X msg 532 223 0;
#X obj 458 164 hradio 15 1 0 2 \$0-b-flanger-s \$0-b-flanger-r Flanger_Mode
-20 -6 0 10 -262144 -1 -1 0;
#X text 490 168 on;
#X text 434 168 off;
#X text 101 402 A;
#X text 517 401 B;
#X text 101 102 A;
#X text 516 103 B;
#X text 222 335 ms;
#X obj 712 273 inlet~ modulator;
#X text 729 44 for testing;
#X obj 330 640 s feedback_blend_t;
#X obj 466 650 s feedback_blend_1-t;
#X obj 816 480 r feedback_blend_1-t;
#X obj 953 477 r feedback_blend_t;
#X obj 1281 456 r feedback_blend_1-t;
#X obj 1418 455 r feedback_blend_t;
#X text 1268 432 A bus feedback = (1-t)*B_Delay + t*A_Delay;
#X text 422 184 (works on B bus);
#X obj 196 439 r feedback_blend_t;
#N canvas 332 23 948 644 state-saving-multiple-instances 0;
#X obj 138 29 loadbang;
#X obj 729 407 textfile;
#X msg 703 331 rewind;
#X msg 660 331 bang;
#X obj 42 771 textfile;
#X obj 660 292 t b b;
#X obj 43 437 f;
#X obj 56 660 f;
#X obj -16 481 t b b b;
#X msg 119 660 clear;
#X obj 216 153 outlet;
#X text 268 154 INSTANCE NUMBER;
#X obj 170 90 f \$1;
#X obj 170 126 t f f f;
#X obj 138 62 t b b;
#X obj -16 458 bng 15 250 50 0 empty empty empty 17 7 0 10 -262144
-1 -1;
#X obj -15 314 r SAVE-S;
#X obj 222 37 r \$0-reload!;
#X text 319 40 RETURN TO PREVIOUS VALUE AFTER USING MORPH-SEQ module
;
#X text 56 247 WRITE side;
#X text 738 235 READ side;
#X text 375 751 i.e. "write statesave/\$1-\$2-PATCH_NAME-ss.txt";
#X text 380 736 <-----rename to match name of Pd patch;
#X text 1049 385 i.e. "write statesave/\$1-\$2-PATCH_NAME-ss.txt";
#X text 1051 372 <-----rename to match name of Pd patch;
#X text 182 476 <----- one "f" for each parameter;
#X text 183 520 <----- one "$N" for each parameter;
#X text 213 349 <-----rename to match send symbol of each GUI element
;
#X text 908 567 <-----rename to match receive symbol of each GUI element
;
#X text 876 617 Keep these parameters in the same order on the WRITE
and READ sides;
#X text 856 428 <----- one "f" for each parameter;
#X obj 43 481 pack f f f f f;
#X msg 43 518 set \$1 \$2 \$3 \$4 \$5;
#X obj 729 429 unpack f f f f f;
#X msg 729 374 read statesave/\$1-\$2-stereo-electronic-echo-ss.txt
;
#X obj 56 350 r \$0-feedback-s;
#X obj 78 380 r \$0-A-B-Blend-s;
#X obj 128 401 r \$0-b-flanger-s;
#X obj 151 425 r \$0-delayTime-s;
#X obj 179 446 r \$0-drywet-s;
#X obj 730 573 s \$0-feedback-r;
#X obj 776 509 s \$0-b-flanger-r;
#X obj 754 539 s \$0-A-B-Blend-r;
#X obj 800 484 s \$0-delayTime-r;
#X obj 821 462 s \$0-drywet-r;
#X msg 55 731 write statesave/\$1-\$2-stereo-electronic-echo-ss.txt
;
#X connect 0 0 14 0;
#X connect 1 0 33 0;
#X connect 2 0 1 0;
#X connect 3 0 1 0;
#X connect 5 0 3 0;
#X connect 5 1 2 0;
#X connect 6 0 31 0;
#X connect 7 0 45 0;
#X connect 8 0 7 0;
#X connect 8 1 6 0;
#X connect 8 2 9 0;
#X connect 9 0 4 0;
#X connect 12 0 13 0;
#X connect 13 0 7 1;
#X connect 13 1 34 0;
#X connect 13 2 10 0;
#X connect 14 0 5 0;
#X connect 14 1 12 0;
#X connect 15 0 8 0;
#X connect 16 0 15 0;
#X connect 17 0 14 0;
#X connect 31 0 32 0;
#X connect 32 0 4 0;
#X connect 33 0 40 0;
#X connect 33 1 42 0;
#X connect 33 2 41 0;
#X connect 33 3 43 0;
#X connect 33 4 44 0;
#X connect 34 0 1 0;
#X connect 35 0 6 1;
#X connect 36 0 31 1;
#X connect 37 0 31 2;
#X connect 38 0 31 3;
#X connect 39 0 31 4;
#X connect 45 0 4 0;
#X restore 46 608 pd state-saving-multiple-instances;
#X obj 46 714 s \$0-instance-num;
#X obj 46 666 makefilename %d;
#X msg 46 691 label \$1;
#N canvas 140 82 1140 657 state-saving-via-preset-manager-module 0
;
#X obj 751 323 textfile;
#X msg 687 272 rewind;
#X msg 644 272 bang;
#X obj 109 816 textfile;
#X obj 644 233 t b b;
#X obj 107 334 f;
#X obj 120 557 f;
#X obj 53 452 t b b b;
#X msg 160 714 clear;
#X obj 107 156 delay 5;
#X obj 53 507 delay 10;
#X msg 53 292 bang;
#X obj 53 126 r STORE-S!;
#X obj 751 224 f;
#X obj 724 188 t b b;
#X obj 724 145 t b f;
#X obj 796 242 f \$1;
#X obj 751 269 pack f f;
#X obj 796 192 loadbang;
#X obj 120 587 pack f f;
#X obj 165 540 loadbang;
#X obj 165 562 f \$1;
#X obj 724 122 r preset-manager-scan;
#X obj 135 518 r preset-manager-store-slot;
#N canvas 0 22 1069 747 morph-frequencies 0;
#X obj 176 94 inlet;
#X obj 176 236 pack f f;
#X obj 176 261 line;
#X obj 209 117 r preset-manager-morph-s;
#X msg 72 244 stop;
#X obj 72 214 r STOP-MORPH!;
#X obj 398 102 r frequencies-s;
#X obj 209 206 spigot;
#X obj 398 137 t f f;
#X obj 455 154 == 0;
#X obj 221 176 f;
#X floatatom 455 222 5 0 0 0 - - -;
#X obj 398 159 t b f;
#X floatatom 425 192 5 0 0 0 - - -;
#X obj 209 139 t f f;
#X obj 176 283 outlet;
#X connect 0 0 1 0;
#X connect 1 0 2 0;
#X connect 2 0 15 0;
#X connect 3 0 14 0;
#X connect 4 0 2 0;
#X connect 5 0 4 0;
#X connect 6 0 8 0;
#X connect 7 0 1 1;
#X connect 8 0 12 0;
#X connect 8 1 9 0;
#X connect 9 0 11 0;
#X connect 10 0 7 0;
#X connect 11 0 1 1;
#X connect 12 0 10 0;
#X connect 12 1 13 0;
#X connect 13 0 7 1;
#X connect 14 0 7 0;
#X connect 14 1 10 1;
#X restore 751 620 pd morph-frequencies;
#N canvas 0 22 1069 747 morph-parameters 0;
#X obj 176 94 inlet;
#X obj 176 236 pack f f;
#X obj 176 261 line;
#X obj 209 117 r preset-manager-morph-s;
#X msg 72 244 stop;
#X obj 72 214 r STOP-MORPH!;
#X obj 209 206 spigot;
#X obj 398 137 t f f;
#X obj 455 154 == 0;
#X obj 221 176 f;
#X floatatom 455 222 5 0 0 0 - - -;
#X obj 398 159 t b f;
#X floatatom 425 192 5 0 0 0 - - -;
#X obj 209 139 t f f;
#X obj 398 102 r parameters-s;
#X obj 176 288 outlet;
#X connect 0 0 1 0;
#X connect 1 0 2 0;
#X connect 2 0 15 0;
#X connect 3 0 13 0;
#X connect 4 0 2 0;
#X connect 5 0 4 0;
#X connect 6 0 1 1;
#X connect 7 0 11 0;
#X connect 7 1 8 0;
#X connect 8 0 10 0;
#X connect 9 0 6 0;
#X connect 10 0 1 1;
#X connect 11 0 9 0;
#X connect 11 1 12 0;
#X connect 12 0 6 1;
#X connect 13 0 6 0;
#X connect 13 1 9 1;
#X connect 14 0 7 0;
#X restore 780 553 pd morph-parameters;
#X text 1027 297 <-----rename to match name of Pd patch;
#X text 1059 317 i.e. "read statesave/\$1-\$2-PATCH_NAME-ss.txt";
#X text 498 759 i.e. "write statesave/\$1-\$2-PATCH_NAME-ss.txt";
#X text 453 740 <-----rename to match name of Pd patch;
#X text 907 374 <----- one "f" for each parameter;
#X text 237 405 <----- one "f" for each parameter;
#X text 200 464 <----- one "$N" for each parameter;
#X text 930 642 <-----rename to match receive symbol of each GUI element
;
#X text 278 190 <-----rename to match send symbol of each GUI element
;
#X text 992 524 <-----for binary (0 or 1) controls which do not morph
;
#X text 1032 544 (like switches) \, do not use [pd morph-paramaters]
;
#X text 898 692 Keep these parameters in the same order on the WRITE
and READ sides;
#X text 126 52 WRITE side;
#X text 727 44 READ side;
#X obj 126 191 r \$0_level_1_s;
#X obj 149 236 r \$0_level_2_s;
#X obj 107 400 pack f f f f;
#X obj 174 260 r \$0_level_3_s;
#X obj 192 290 r \$0_level_4_s;
#X msg 107 468 set \$1 \$2 \$3 \$4;
#X msg 159 741 write statesave/\$1-\$2-quad-input-amplifier-ss.txt
;
#X msg 751 298 read statesave/\$1-\$2-quad-input-amplifier-ss.txt;
#X obj 751 375 unpack f f f f;
#X obj 751 647 s \$0_level_1_r;
#X obj 780 580 s \$0_level_2_r;
#N canvas 0 22 1069 747 morph-parameters 0;
#X obj 176 94 inlet;
#X obj 176 236 pack f f;
#X obj 176 261 line;
#X obj 209 117 r preset-manager-morph-s;
#X msg 72 244 stop;
#X obj 72 214 r STOP-MORPH!;
#X obj 209 206 spigot;
#X obj 398 137 t f f;
#X obj 455 154 == 0;
#X obj 221 176 f;
#X floatatom 455 222 5 0 0 0 - - -;
#X obj 398 159 t b f;
#X floatatom 425 192 5 0 0 0 - - -;
#X obj 209 139 t f f;
#X obj 398 102 r parameters-s;
#X obj 176 288 outlet;
#X connect 0 0 1 0;
#X connect 1 0 2 0;
#X connect 2 0 15 0;
#X connect 3 0 13 0;
#X connect 4 0 2 0;
#X connect 5 0 4 0;
#X connect 6 0 1 1;
#X connect 7 0 11 0;
#X connect 7 1 8 0;
#X connect 8 0 10 0;
#X connect 9 0 6 0;
#X connect 10 0 1 1;
#X connect 11 0 9 0;
#X connect 11 1 12 0;
#X connect 12 0 6 1;
#X connect 13 0 6 0;
#X connect 13 1 9 1;
#X connect 14 0 7 0;
#X restore 809 493 pd morph-parameters;
#X obj 809 520 s \$0_level_3_r;
#N canvas 0 22 1069 747 morph-parameters 0;
#X obj 176 94 inlet;
#X obj 176 236 pack f f;
#X obj 176 261 line;
#X obj 209 117 r preset-manager-morph-s;
#X msg 72 244 stop;
#X obj 72 214 r STOP-MORPH!;
#X obj 209 206 spigot;
#X obj 398 137 t f f;
#X obj 455 154 == 0;
#X obj 221 176 f;
#X floatatom 455 222 5 0 0 0 - - -;
#X obj 398 159 t b f;
#X floatatom 425 192 5 0 0 0 - - -;
#X obj 209 139 t f f;
#X obj 398 102 r parameters-s;
#X obj 176 288 outlet;
#X connect 0 0 1 0;
#X connect 1 0 2 0;
#X connect 2 0 15 0;
#X connect 3 0 13 0;
#X connect 4 0 2 0;
#X connect 5 0 4 0;
#X connect 6 0 1 1;
#X connect 7 0 11 0;
#X connect 7 1 8 0;
#X connect 8 0 10 0;
#X connect 9 0 6 0;
#X connect 10 0 1 1;
#X connect 11 0 9 0;
#X connect 11 1 12 0;
#X connect 12 0 6 1;
#X connect 13 0 6 0;
#X connect 13 1 9 1;
#X connect 14 0 7 0;
#X restore 836 435 pd morph-parameters;
#X obj 836 462 s \$0_level_4_r;
#X connect 0 0 48 0;
#X connect 1 0 0 0;
#X connect 2 0 0 0;
#X connect 4 0 2 0;
#X connect 4 1 1 0;
#X connect 5 0 42 0;
#X connect 6 0 19 0;
#X connect 7 0 10 0;
#X connect 7 1 9 0;
#X connect 7 2 8 0;
#X connect 8 0 3 0;
#X connect 9 0 5 0;
#X connect 10 0 6 0;
#X connect 11 0 7 0;
#X connect 12 0 11 0;
#X connect 13 0 17 0;
#X connect 14 0 4 0;
#X connect 14 1 13 0;
#X connect 15 0 14 0;
#X connect 15 1 13 1;
#X connect 16 0 17 1;
#X connect 17 0 47 0;
#X connect 18 0 16 0;
#X connect 19 0 46 0;
#X connect 20 0 21 0;
#X connect 21 0 19 1;
#X connect 22 0 15 0;
#X connect 23 0 6 1;
#X connect 24 0 49 0;
#X connect 25 0 50 0;
#X connect 40 0 5 1;
#X connect 41 0 42 1;
#X connect 42 0 45 0;
#X connect 43 0 42 2;
#X connect 44 0 42 3;
#X connect 45 0 3 0;
#X connect 46 0 3 0;
#X connect 47 0 0 0;
#X connect 48 0 24 0;
#X connect 48 1 25 0;
#X connect 48 2 51 0;
#X connect 48 3 53 0;
#X connect 51 0 52 0;
#X connect 53 0 54 0;
#X restore 47 580 pd state-saving-via-preset-manager-module;
#N canvas 396 31 798 399 parameter-nudging-system 0;
#X obj 56 29 r \$0-noise-lowpass-s;
#X obj 54 187 r \$0-noise-volume-s;
#X obj 56 79 clip 0 127;
#N canvas 639 226 484 497 nudge-attenuators 0;
#X obj 124 234 random;
#X obj 232 335 f;
#X obj 232 368 +;
#X obj 257 166 random 2;
#X obj 124 275 t f f;
#X obj 124 351 t b f;
#X obj 124 297 *;
#X obj 257 188 sel 0 1;
#X msg 257 280 -1;
#X msg 335 280 1;
#X obj 124 149 t b b b;
#X obj 124 71 r NUDGE!;
#X obj 157 193 r NUDGE-RANGE;
#X obj 247 308 inlet;
#X obj 232 397 outlet;
#X obj 124 93 spigot;
#X obj 201 76 r attenuators2-s;
#X connect 0 0 4 0;
#X connect 1 0 2 0;
#X connect 2 0 14 0;
#X connect 3 0 7 0;
#X connect 4 0 6 0;
#X connect 5 0 2 0;
#X connect 5 1 2 1;
#X connect 6 0 5 0;
#X connect 7 0 8 0;
#X connect 7 1 9 0;
#X connect 8 0 6 1;
#X connect 9 0 6 1;
#X connect 10 0 0 0;
#X connect 10 1 1 0;
#X connect 10 2 3 0;
#X connect 11 0 15 0;
#X connect 12 0 0 1;
#X connect 13 0 1 1;
#X connect 15 0 10 0;
#X connect 16 0 15 1;
#X restore 56 57 pd nudge-attenuators;
#X obj 56 109 s \$0-noise-lowpass-r;
#X obj 54 267 s \$0-noise-volume-r;
#X obj 54 238 clip 0 127;
#N canvas 0 22 484 497 nudge-attenuators 0;
#X obj 124 234 random;
#X obj 232 335 f;
#X obj 232 368 +;
#X obj 257 166 random 2;
#X obj 124 275 t f f;
#X obj 124 351 t b f;
#X obj 124 297 *;
#X obj 257 188 sel 0 1;
#X msg 257 280 -1;
#X msg 335 280 1;
#X obj 124 149 t b b b;
#X obj 124 71 r NUDGE!;
#X obj 157 193 r NUDGE-RANGE;
#X obj 247 308 inlet;
#X obj 232 397 outlet;
#X obj 124 93 spigot;
#X obj 201 76 r attenuators2-s;
#X connect 0 0 4 0;
#X connect 1 0 2 0;
#X connect 2 0 14 0;
#X connect 3 0 7 0;
#X connect 4 0 6 0;
#X connect 5 0 2 0;
#X connect 5 1 2 1;
#X connect 6 0 5 0;
#X connect 7 0 8 0;
#X connect 7 1 9 0;
#X connect 8 0 6 1;
#X connect 9 0 6 1;
#X connect 10 0 0 0;
#X connect 10 1 1 0;
#X connect 10 2 3 0;
#X connect 11 0 15 0;
#X connect 12 0 0 1;
#X connect 13 0 1 1;
#X connect 15 0 10 0;
#X connect 16 0 15 1;
#X restore 54 216 pd nudge-attenuators;
#X text 409 490 <-----you will need one structure like this for each
parameter;
#X text 382 552 <-----rename to match receive symbol of each GUI element
;
#X text 268 64 <-----you will need one structure like this for each
parameter;
#X text 221 115 <-----rename to match receive symbol of each GUI element
;
#X text 222 28 <-----rename to match send symbol of each GUI element
;
#X connect 0 0 3 0;
#X connect 1 0 7 0;
#X connect 2 0 4 0;
#X connect 3 0 2 0;
#X connect 6 0 5 0;
#X connect 7 0 6 0;
#X restore 48 552 pd parameter-nudging-system;
#N canvas 412 53 847 702 external-messages 0;
#X floatatom 185 535 5 0 0 0 - - -;
#X obj 185 327 spigot;
#X obj 224 278 tgl 15 0 empty empty empty 17 7 0 10 -262144 -1 -1 0
1;
#X obj 267 238 ==;
#X obj 282 214 f \$1;
#X obj 282 190 loadbang;
#X msg 185 202 \$1 \$2;
#X msg 185 156 symbol \$1;
#X obj 185 180 pack s f;
#X obj 185 514 f;
#X obj 185 458 t b f;
#X obj 185 485 spigot;
#X obj 185 62 unpack s f f;
#X symbolatom 185 94 10 0 0 0 - - -;
#X obj 224 298 t f f;
#X obj 257 327 s \$0-msg-spigot;
#X obj 234 459 r \$0-msg-spigot;
#X floatatom 273 724 5 0 0 0 - - -;
#X obj 273 703 f;
#X obj 273 644 t b f;
#X obj 273 674 spigot;
#X obj 323 645 r \$0-msg-spigot;
#X text 360 16 <----rename to match name of module;
#X obj 185 380 route LPF VOL;
#X text 306 379 <-----rename to match EXTERNAL MESSAGES parameter names
;
#X text 306 61 <----SYMBOL (parameter name) FLOAT (parameter value)
FLOAT (instance number);
#X text 408 488 <-----you will need one structure like this for each
parameter;
#X obj 185 555 s \$0-noise-lowpass-r;
#X obj 273 744 s \$0-noise-volume-r;
#X text 384 553 <-----rename to match receive symbol of each GUI element
;
#X obj 185 14 r quad-input-amplifier;
#X connect 0 0 27 0;
#X connect 1 0 23 0;
#X connect 2 0 14 0;
#X connect 3 0 2 0;
#X connect 4 0 3 1;
#X connect 5 0 4 0;
#X connect 6 0 1 0;
#X connect 7 0 8 0;
#X connect 8 0 6 0;
#X connect 9 0 0 0;
#X connect 10 0 11 0;
#X connect 10 1 9 1;
#X connect 11 0 9 0;
#X connect 12 0 13 0;
#X connect 12 1 8 1;
#X connect 12 2 3 0;
#X connect 13 0 7 0;
#X connect 14 0 1 1;
#X connect 14 1 15 0;
#X connect 16 0 11 1;
#X connect 17 0 28 0;
#X connect 18 0 17 0;
#X connect 19 0 20 0;
#X connect 19 1 18 1;
#X connect 20 0 18 0;
#X connect 21 0 20 1;
#X connect 23 0 10 0;
#X connect 23 1 19 0;
#X connect 30 0 12 0;
#X restore 49 526 pd external-messages;
#X text 20 477 STATE SAVING and EXTERNAL CONTROL STUFF;
#X text 43 497 Open each for details;
#X obj 17 438 r \$0-feedback-scaled-s;
#X obj 352 444 r \$0-real-delay-time-s;
#X obj 420 571 r \$0-A-B-Blend-s;
#X obj 739 503 r \$0-drywet-s;
#X obj 1103 465 r \$0-drywet-s;
#X obj 1230 520 r \$0-drywet-s;
#X obj 613 392 r \$0-drywet-s;
#X obj 945 559 r \$0-feedback-s;
#X obj 1415 574 r \$0-feedback-s;
#X text 267 102 Oscillator Input;
#X connect 1 0 2 0;
#X connect 2 0 3 0;
#X connect 4 0 35 0;
#X connect 5 0 1 0;
#X connect 6 0 3 0;
#X connect 8 0 57 0;
#X connect 8 1 57 0;
#X connect 9 0 20 0;
#X connect 11 0 20 0;
#X connect 13 0 12 0;
#X connect 13 0 64 0;
#X connect 15 0 16 0;
#X connect 16 0 17 0;
#X connect 17 0 41 0;
#X connect 18 0 11 0;
#X connect 18 0 39 0;
#X connect 19 0 26 0;
#X connect 19 0 40 0;
#X connect 22 0 37 0;
#X connect 24 0 21 0;
#X connect 26 0 21 0;
#X connect 28 0 27 0;
#X connect 28 0 70 0;
#X connect 34 0 101 0;
#X connect 36 0 39 0;
#X connect 38 0 40 0;
#X connect 41 0 42 0;
#X connect 43 0 16 0;
#X connect 44 0 4 1;
#X connect 44 0 7 0;
#X connect 45 0 4 0;
#X connect 46 0 4 0;
#X connect 47 0 22 0;
#X connect 48 0 22 1;
#X connect 48 0 23 0;
#X connect 49 0 22 0;
#X connect 54 0 34 0;
#X connect 54 0 100 0;
#X connect 56 0 3 0;
#X connect 58 0 57 1;
#X connect 59 0 78 0;
#X connect 60 0 63 0;
#X connect 60 0 77 0;
#X connect 61 0 59 0;
#X connect 62 0 60 0;
#X connect 64 0 65 0;
#X connect 65 0 11 1;
#X connect 66 0 67 0;
#X connect 67 0 9 1;
#X connect 68 0 69 0;
#X connect 69 0 24 1;
#X connect 70 0 71 0;
#X connect 71 0 26 1;
#X connect 72 0 13 0;
#X connect 73 0 66 0;
#X connect 73 0 10 0;
#X connect 73 0 82 0;
#X connect 74 0 28 0;
#X connect 75 0 68 0;
#X connect 75 0 25 0;
#X connect 76 0 89 0;
#X connect 77 0 46 0;
#X connect 77 0 47 0;
#X connect 77 0 24 0;
#X connect 78 0 49 0;
#X connect 78 0 45 0;
#X connect 78 0 9 0;
#X connect 89 0 81 0;
#X connect 98 0 61 0;
#X connect 102 0 45 1;
#X connect 102 0 50 0;
#X connect 103 0 46 1;
#X connect 103 0 51 0;
#X connect 104 0 47 1;
#X connect 104 0 52 0;
#X connect 105 0 49 1;
#X connect 105 0 53 0;
#X connect 108 0 86 0;
#X connect 109 0 111 0;
#X connect 111 0 112 0;
#X connect 112 0 110 0;
#X connect 118 0 87 0;
#X connect 119 0 88 0;
#X connect 120 0 54 0;
#X connect 121 0 73 0;
#X connect 122 0 74 0;
#X connect 123 0 75 0;
#X connect 124 0 72 0;
#X connect 125 0 44 0;
#X connect 126 0 48 0;
#X coords 0 -1 1 1 430 320 1 100 100;
