#N canvas 124 56 1185 676 10;
#X floatatom 1090 367 5 0 0 0 - - -;
#X obj 711 437 outlet~;
#N canvas 89 113 1050 759 A 0;
#X obj 67 151 inlet~;
#X obj 67 245 ./../other_patches/bandpass~;
#X obj 120 152 inlet;
#X obj 175 150 inlet;
#X obj 229 149 inlet;
#X obj 280 147 inlet;
#X obj 330 146 inlet;
#X obj 379 150 inlet;
#X obj 429 147 inlet;
#X obj 475 147 inlet;
#X obj 119 277 ./../other_patches/bandpass~;
#X obj 170 314 ./../other_patches/bandpass~;
#X obj 222 346 ./../other_patches/bandpass~;
#X obj 276 381 ./../other_patches/bandpass~;
#X obj 328 413 ./../other_patches/bandpass~;
#X obj 379 450 ./../other_patches/bandpass~;
#X obj 431 482 ./../other_patches/bandpass~;
#X obj 64 559 outlet~;
#X msg 224 83 500 100 200 300 800 1600 6400 12800;
#X obj 224 58 loadbang;
#X obj 224 104 unpack i i i i i i i i, f 66;
#X obj 638 144 inlet;
#X connect 0 0 1 0;
#X connect 0 0 10 0;
#X connect 0 0 11 0;
#X connect 0 0 12 0;
#X connect 0 0 13 0;
#X connect 0 0 14 0;
#X connect 0 0 15 0;
#X connect 0 0 16 0;
#X connect 1 0 17 0;
#X connect 2 0 1 1;
#X connect 3 0 10 1;
#X connect 4 0 11 1;
#X connect 5 0 12 1;
#X connect 6 0 13 1;
#X connect 7 0 14 1;
#X connect 8 0 15 1;
#X connect 9 0 16 1;
#X connect 10 0 17 0;
#X connect 11 0 17 0;
#X connect 12 0 17 0;
#X connect 13 0 17 0;
#X connect 14 0 17 0;
#X connect 15 0 17 0;
#X connect 16 0 17 0;
#X connect 18 0 20 0;
#X connect 19 0 18 0;
#X connect 20 0 1 2;
#X connect 20 1 10 2;
#X connect 20 2 11 2;
#X connect 20 3 12 2;
#X connect 20 4 13 2;
#X connect 20 5 14 2;
#X connect 20 6 15 2;
#X connect 20 7 16 2;
#X connect 21 0 1 3;
#X connect 21 0 10 3;
#X connect 21 0 11 3;
#X connect 21 0 12 3;
#X connect 21 0 13 3;
#X connect 21 0 14 3;
#X connect 21 0 15 3;
#X connect 21 0 16 3;
#X restore 711 402 pd A;
#X f 44;
#N canvas 89 113 1050 759 B 0;
#X obj 67 151 inlet~;
#X obj 67 245 ./../other_patches/bandpass~;
#X obj 120 152 inlet;
#X obj 175 150 inlet;
#X obj 229 149 inlet;
#X obj 280 147 inlet;
#X obj 330 146 inlet;
#X obj 379 150 inlet;
#X obj 429 147 inlet;
#X obj 475 147 inlet;
#X obj 119 277 ./../other_patches/bandpass~;
#X obj 170 314 ./../other_patches/bandpass~;
#X obj 222 346 ./../other_patches/bandpass~;
#X obj 276 381 ./../other_patches/bandpass~;
#X obj 328 413 ./../other_patches/bandpass~;
#X obj 379 450 ./../other_patches/bandpass~;
#X obj 431 482 ./../other_patches/bandpass~;
#X obj 64 559 outlet~;
#X msg 224 83 500 100 200 300 800 1600 6400 12800;
#X obj 224 58 loadbang;
#X obj 224 104 unpack i i i i i i i i, f 66;
#X obj 638 144 inlet;
#X connect 0 0 1 0;
#X connect 0 0 10 0;
#X connect 0 0 11 0;
#X connect 0 0 12 0;
#X connect 0 0 13 0;
#X connect 0 0 14 0;
#X connect 0 0 15 0;
#X connect 0 0 16 0;
#X connect 1 0 17 0;
#X connect 2 0 1 1;
#X connect 3 0 10 1;
#X connect 4 0 11 1;
#X connect 5 0 12 1;
#X connect 6 0 13 1;
#X connect 7 0 14 1;
#X connect 8 0 15 1;
#X connect 9 0 16 1;
#X connect 10 0 17 0;
#X connect 11 0 17 0;
#X connect 12 0 17 0;
#X connect 13 0 17 0;
#X connect 14 0 17 0;
#X connect 15 0 17 0;
#X connect 16 0 17 0;
#X connect 18 0 20 0;
#X connect 19 0 18 0;
#X connect 20 0 1 2;
#X connect 20 1 10 2;
#X connect 20 2 11 2;
#X connect 20 3 12 2;
#X connect 20 4 13 2;
#X connect 20 5 14 2;
#X connect 20 6 15 2;
#X connect 20 7 16 2;
#X connect 21 0 1 3;
#X connect 21 0 10 3;
#X connect 21 0 11 3;
#X connect 21 0 12 3;
#X connect 21 0 13 3;
#X connect 21 0 14 3;
#X connect 21 0 15 3;
#X connect 21 0 16 3;
#X restore 726 636 pd B;
#X f 44;
#X obj 546 257 inlet~;
#X obj 935 338 r \$0-octave-8-s;
#X obj 739 155 r \$0-octave-1-s;
#X obj 766 180 r \$0-octave-2-s;
#X obj 792 204 r \$0-octave-3-s;
#X obj 823 227 r \$0-octave-4-s;
#X obj 855 252 r \$0-octave-5-s;
#X obj 883 281 r \$0-octave-6-s;
#X obj 911 313 r \$0-octave-7-s;
#X obj 101 103 cnv 15 428 314 empty empty STEREO-OCTAVE-FILTER_3101
10 35 0 15 -228856 -66577 0;
#X text 104 103 A;
#X text 513 103 B;
#X text 106 402 A;
#X text 514 401 B;
#X text 123 271 0 ------------------------------------------------------------
, f 62;
#X text 117 250 +6 ------------------------------------------------------------
, f 63;
#X text 117 292 -6 ------------------------------------------------------------
, f 63;
#X text 110 313 -12 ------------------------------------------------------------
, f 64;
#X text 111 229 +12 ------------------------------------------------------------
, f 64;
#X text 110 208 +18 ------------------------------------------------------------
, f 64;
#X text 110 334 -18 ------------------------------------------------------------
, f 64;
#X text 501 207 +18;
#X text 501 229 +12;
#X text 501 250 +6;
#X text 507 272 0;
#X text 501 292 -6;
#X text 501 313 -12;
#X text 501 334 -18;
#X obj 179 214 vsl 15 130 0 127 0 0 \$0-octave-1-s \$0-octave-1-r 50
2 140 0 10 -262144 -1 -1 0 1;
#X obj 213 214 vsl 15 130 0 127 0 0 \$0-octave-2-s \$0-octave-2-r 100
-1 140 0 10 -262144 -1 -1 0 1;
#X obj 250 214 vsl 15 130 0 127 0 0 \$0-octave-3-s \$0-octave-3-r 200
-1 140 0 10 -262144 -1 -1 0 1;
#X obj 288 214 vsl 15 130 0 127 0 0 \$0-octave-4-s \$0-octave-4-r 300
-1 140 0 10 -262144 -1 -1 0 1;
#X obj 325 214 vsl 15 130 0 127 0 0 \$0-octave-5-s \$0-octave-5-r 400
-1 140 0 10 -262144 -1 -1 0 1;
#X obj 363 214 vsl 15 130 0 127 0 0 \$0-octave-6-s \$0-octave-6-r 800
-1 140 0 10 -262144 -1 -1 0 1;
#X obj 401 214 vsl 15 130 0 127 0 0 \$0-octave-7-s \$0-octave-7-r 1600
-5 140 0 10 -262144 -1 -1 0 1;
#X obj 439 214 vsl 15 130 0 127 0 0 \$0-octave-8-s \$0-octave-8-r 12800
-7 140 0 10 -262144 -1 -1 0 1;
#X msg 1090 342 2;
#X obj 1089 315 loadbang;
#X obj 254 161 tgl 15 0 \$0-feedthrough-a-s \$0-feedthrough-a-r Feedthrough_A
-25 24 0 10 -262144 -1 -1 0 1;
#X obj 350 161 tgl 15 0 \$0-feedthrough-b-s \$0-feedthrough-b-r Feedthrough_B
-25 24 0 10 -262144 -1 -1 0 1;
#X obj 726 665 outlet~;
#X obj 628 250 r \$0-feedthrough-a-s;
#X obj 628 302 pack 0 30;
#X obj 628 278 == 0;
#X obj 561 327 line~;
#X obj 561 303 pack 0 30;
#X obj 565 495 inlet~;
#X obj 647 564 line~;
#X obj 647 540 pack 0 30;
#X obj 647 516 == 0;
#X obj 580 565 line~;
#X obj 580 541 pack 0 30;
#X obj 647 488 r \$0-feedthrough-b-s;
#X obj 628 326 line~;
#X obj 613 359 *~;
#X obj 546 359 *~;
#X obj 692 281 loadbang;
#X msg 692 302 1;
#X obj 710 519 loadbang;
#X msg 710 540 1;
#X obj 632 597 *~;
#X obj 565 597 *~;
#X obj 366 137 cnv 5 5 5 empty \$0-instance-num 3 0 0 0 15 -228856
-66577 0;
#X connect 0 0 3 9;
#X connect 0 0 2 9;
#X connect 2 0 1 0;
#X connect 3 0 44 0;
#X connect 4 0 58 0;
#X connect 4 0 59 0;
#X connect 5 0 2 8;
#X connect 5 0 3 8;
#X connect 6 0 2 1;
#X connect 6 0 3 1;
#X connect 7 0 2 2;
#X connect 7 0 3 2;
#X connect 8 0 2 3;
#X connect 8 0 3 3;
#X connect 9 0 2 4;
#X connect 9 0 3 4;
#X connect 10 0 2 5;
#X connect 10 0 3 5;
#X connect 11 0 2 6;
#X connect 11 0 3 6;
#X connect 12 0 2 7;
#X connect 12 0 3 7;
#X connect 40 0 0 0;
#X connect 41 0 40 0;
#X connect 45 0 47 0;
#X connect 45 0 49 0;
#X connect 46 0 57 0;
#X connect 47 0 46 0;
#X connect 48 0 59 1;
#X connect 49 0 48 0;
#X connect 50 0 64 0;
#X connect 50 0 65 0;
#X connect 51 0 64 1;
#X connect 52 0 51 0;
#X connect 53 0 52 0;
#X connect 54 0 65 1;
#X connect 55 0 54 0;
#X connect 56 0 53 0;
#X connect 56 0 55 0;
#X connect 57 0 58 1;
#X connect 58 0 2 0;
#X connect 59 0 1 0;
#X connect 60 0 61 0;
#X connect 61 0 46 0;
#X connect 62 0 63 0;
#X connect 63 0 52 0;
#X connect 64 0 3 0;
#X connect 65 0 44 0;
#X coords 0 -1 1 1 430 320 2 100 100;
