#N canvas 95 25 1185 676 10;
#X floatatom 1090 367 5 0 0 0 - - -;
#X obj 711 437 outlet~;
#N canvas 89 23 1050 707 A 0;
#X obj 67 151 inlet~;
#X obj 67 245 ./../other_patches/bandpass~;
#X obj 120 152 inlet;
#X obj 175 150 inlet;
#X obj 229 149 inlet;
#X obj 280 147 inlet;
#X obj 330 146 inlet;
#X obj 379 150 inlet;
#X obj 429 147 inlet;
#X obj 475 147 inlet;
#X obj 119 277 ./../other_patches/bandpass~;
#X obj 170 314 ./../other_patches/bandpass~;
#X obj 222 346 ./../other_patches/bandpass~;
#X obj 276 381 ./../other_patches/bandpass~;
#X obj 328 413 ./../other_patches/bandpass~;
#X obj 379 450 ./../other_patches/bandpass~;
#X obj 431 482 ./../other_patches/bandpass~;
#X obj 64 559 outlet~;
#X msg 224 83 500 100 200 300 800 1600 6400 12800;
#X obj 224 58 loadbang;
#X obj 638 144 inlet;
#X obj 224 104 unpack f f f f f f f f, f 66;
#X connect 0 0 1 0;
#X connect 0 0 10 0;
#X connect 0 0 11 0;
#X connect 0 0 12 0;
#X connect 0 0 13 0;
#X connect 0 0 14 0;
#X connect 0 0 15 0;
#X connect 0 0 16 0;
#X connect 1 0 17 0;
#X connect 2 0 1 1;
#X connect 3 0 10 1;
#X connect 4 0 11 1;
#X connect 5 0 12 1;
#X connect 6 0 13 1;
#X connect 7 0 14 1;
#X connect 8 0 15 1;
#X connect 9 0 16 1;
#X connect 10 0 17 0;
#X connect 11 0 17 0;
#X connect 12 0 17 0;
#X connect 13 0 17 0;
#X connect 14 0 17 0;
#X connect 15 0 17 0;
#X connect 16 0 17 0;
#X connect 18 0 21 0;
#X connect 19 0 18 0;
#X connect 20 0 1 3;
#X connect 20 0 10 3;
#X connect 20 0 11 3;
#X connect 20 0 12 3;
#X connect 20 0 13 3;
#X connect 20 0 14 3;
#X connect 20 0 15 3;
#X connect 20 0 16 3;
#X connect 21 0 1 2;
#X connect 21 1 10 2;
#X connect 21 2 11 2;
#X connect 21 3 12 2;
#X connect 21 4 13 2;
#X connect 21 5 14 2;
#X connect 21 6 15 2;
#X connect 21 7 16 2;
#X restore 711 402 pd A;
#X f 44;
#N canvas 89 23 1050 707 B 0;
#X obj 67 151 inlet~;
#X obj 67 245 ./../other_patches/bandpass~;
#X obj 120 152 inlet;
#X obj 175 150 inlet;
#X obj 229 149 inlet;
#X obj 280 147 inlet;
#X obj 330 146 inlet;
#X obj 379 150 inlet;
#X obj 429 147 inlet;
#X obj 475 147 inlet;
#X obj 119 277 ./../other_patches/bandpass~;
#X obj 170 314 ./../other_patches/bandpass~;
#X obj 222 346 ./../other_patches/bandpass~;
#X obj 276 381 ./../other_patches/bandpass~;
#X obj 328 413 ./../other_patches/bandpass~;
#X obj 379 450 ./../other_patches/bandpass~;
#X obj 431 482 ./../other_patches/bandpass~;
#X obj 64 559 outlet~;
#X msg 224 83 500 100 200 300 800 1600 6400 12800;
#X obj 224 58 loadbang;
#X obj 638 144 inlet;
#X obj 224 104 unpack f f f f f f f f, f 66;
#X connect 0 0 1 0;
#X connect 0 0 10 0;
#X connect 0 0 11 0;
#X connect 0 0 12 0;
#X connect 0 0 13 0;
#X connect 0 0 14 0;
#X connect 0 0 15 0;
#X connect 0 0 16 0;
#X connect 1 0 17 0;
#X connect 2 0 1 1;
#X connect 3 0 10 1;
#X connect 4 0 11 1;
#X connect 5 0 12 1;
#X connect 6 0 13 1;
#X connect 7 0 14 1;
#X connect 8 0 15 1;
#X connect 9 0 16 1;
#X connect 10 0 17 0;
#X connect 11 0 17 0;
#X connect 12 0 17 0;
#X connect 13 0 17 0;
#X connect 14 0 17 0;
#X connect 15 0 17 0;
#X connect 16 0 17 0;
#X connect 18 0 21 0;
#X connect 19 0 18 0;
#X connect 20 0 1 3;
#X connect 20 0 10 3;
#X connect 20 0 11 3;
#X connect 20 0 12 3;
#X connect 20 0 13 3;
#X connect 20 0 14 3;
#X connect 20 0 15 3;
#X connect 20 0 16 3;
#X connect 21 0 1 2;
#X connect 21 1 10 2;
#X connect 21 2 11 2;
#X connect 21 3 12 2;
#X connect 21 4 13 2;
#X connect 21 5 14 2;
#X connect 21 6 15 2;
#X connect 21 7 16 2;
#X restore 726 636 pd B;
#X f 44;
#X obj 546 257 inlet~;
#X obj 935 338 r \$0-octave-8-s;
#X obj 739 155 r \$0-octave-1-s;
#X obj 766 180 r \$0-octave-2-s;
#X obj 792 204 r \$0-octave-3-s;
#X obj 823 227 r \$0-octave-4-s;
#X obj 855 252 r \$0-octave-5-s;
#X obj 883 281 r \$0-octave-6-s;
#X obj 911 313 r \$0-octave-7-s;
#X obj 101 103 cnv 15 428 314 empty empty STEREO-OCTAVE-FILTER_3101
10 35 0 15 -228856 -66577 0;
#X text 104 103 A;
#X text 513 103 B;
#X text 106 402 A;
#X text 514 401 B;
#X text 123 271 0 ------------------------------------------------------------
, f 62;
#X text 117 250 +6 ------------------------------------------------------------
, f 63;
#X text 117 292 -6 ------------------------------------------------------------
, f 63;
#X text 110 313 -12 ------------------------------------------------------------
, f 64;
#X text 111 229 +12 ------------------------------------------------------------
, f 64;
#X text 110 208 +18 ------------------------------------------------------------
, f 64;
#X text 110 334 -18 ------------------------------------------------------------
, f 64;
#X text 501 207 +18;
#X text 501 229 +12;
#X text 501 250 +6;
#X text 507 272 0;
#X text 501 292 -6;
#X text 501 313 -12;
#X text 501 334 -18;
#X obj 179 214 vsl 15 130 0 127 0 0 \$0-octave-1-s \$0-octave-1-r 50
2 140 0 10 -262144 -1 -1 0 1;
#X obj 213 214 vsl 15 130 0 127 0 0 \$0-octave-2-s \$0-octave-2-r 100
-1 140 0 10 -262144 -1 -1 0 1;
#X obj 250 214 vsl 15 130 0 127 0 0 \$0-octave-3-s \$0-octave-3-r 200
-1 140 0 10 -262144 -1 -1 0 1;
#X obj 288 214 vsl 15 130 0 127 0 0 \$0-octave-4-s \$0-octave-4-r 300
-1 140 0 10 -262144 -1 -1 0 1;
#X obj 325 214 vsl 15 130 0 127 0 0 \$0-octave-5-s \$0-octave-5-r 400
-1 140 0 10 -262144 -1 -1 0 1;
#X obj 363 214 vsl 15 130 0 127 0 0 \$0-octave-6-s \$0-octave-6-r 800
-1 140 0 10 -262144 -1 -1 0 1;
#X obj 401 214 vsl 15 130 0 127 0 0 \$0-octave-7-s \$0-octave-7-r 1600
-5 140 0 10 -262144 -1 -1 0 1;
#X obj 439 214 vsl 15 130 0 127 0 0 \$0-octave-8-s \$0-octave-8-r 12800
-7 140 0 10 -262144 -1 -1 0 1;
#X msg 1090 342 2;
#X obj 1089 315 loadbang;
#X obj 254 161 tgl 15 0 \$0-feedthrough-a-s \$0-feedthrough-a-r Feedthrough_A
-25 24 0 10 -262144 -1 -1 0 1;
#X obj 350 161 tgl 15 0 \$0-feedthrough-b-s \$0-feedthrough-b-r Feedthrough_B
-25 24 0 10 -262144 -1 -1 0 1;
#X obj 726 665 outlet~;
#X obj 628 302 pack 0 30;
#X obj 628 278 == 0;
#X obj 561 327 line~;
#X obj 561 303 pack 0 30;
#X obj 565 495 inlet~;
#X obj 647 564 line~;
#X obj 647 540 pack 0 30;
#X obj 647 516 == 0;
#X obj 580 565 line~;
#X obj 580 541 pack 0 30;
#X obj 628 326 line~;
#X obj 613 359 *~;
#X obj 546 359 *~;
#X obj 692 281 loadbang;
#X msg 692 302 1;
#X obj 710 519 loadbang;
#X msg 710 540 1;
#X obj 632 597 *~;
#X obj 565 597 *~;
#X obj 366 137 cnv 5 5 5 empty \$0-instance-num 0 0 0 0 15 -228856
-66577 0;
#N canvas 332 25 948 644 state-saving-multiple-instances 0;
#X obj 138 29 loadbang;
#X obj 729 407 textfile;
#X msg 703 331 rewind;
#X msg 660 331 bang;
#X obj 42 771 textfile;
#X obj 660 292 t b b;
#X obj 56 660 f;
#X obj -16 481 t b b b;
#X msg 119 660 clear;
#X obj 216 153 outlet;
#X text 268 154 INSTANCE NUMBER;
#X obj 170 90 f \$1;
#X obj 170 126 t f f f;
#X obj 138 62 t b b;
#X obj -16 458 bng 15 250 50 0 empty empty empty 17 7 0 10 -262144
-1 -1;
#X obj -15 314 r SAVE-S;
#X obj 222 37 r \$0-reload!;
#X text 319 40 RETURN TO PREVIOUS VALUE AFTER USING MORPH-SEQ module
;
#X text 56 247 WRITE side;
#X text 738 235 READ side;
#X text 375 751 i.e. "write statesave/\$1-\$2-PATCH_NAME-ss.txt";
#X text 380 736 <-----rename to match name of Pd patch;
#X text 1049 385 i.e. "write statesave/\$1-\$2-PATCH_NAME-ss.txt";
#X text 1051 372 <-----rename to match name of Pd patch;
#X text 908 567 <-----rename to match receive symbol of each GUI element
;
#X text 876 617 Keep these parameters in the same order on the WRITE
and READ sides;
#X obj 196 331 f;
#X text 402 397 <----- one "f" for each parameter;
#X text 367 187 <-----rename to match send symbol of each GUI element
;
#X obj 196 397 pack f f f f f f f f f f;
#X obj 482 311 r \$0-octave-8-s;
#X obj 286 128 r \$0-octave-1-s;
#X obj 313 153 r \$0-octave-2-s;
#X obj 339 177 r \$0-octave-3-s;
#X obj 370 200 r \$0-octave-4-s;
#X obj 402 225 r \$0-octave-5-s;
#X obj 430 254 r \$0-octave-6-s;
#X obj 458 286 r \$0-octave-7-s;
#X obj 483 335 r \$0-feedthrough-oct-a-s;
#X obj 507 364 r \$0-feedthrough-oct-b-s;
#X msg 196 465 set \$1 \$2 \$3 \$4 \$5 \$6 \$7 \$8 \$9 \$10;
#X text 869 598 <----- one "f" for each parameter;
#X obj 713 599 unpack f f f f f f f f f f;
#X obj 583 733 s \$0-octave-1-r;
#X obj 693 869 s \$0-octave-2-r;
#X obj 725 997 s \$0-octave-3-r;
#X obj 772 1131 s \$0-octave-4-r;
#X obj 787 749 s \$0-octave-5-r;
#X obj 817 845 s \$0-octave-6-r;
#X obj 886 979 s \$0-octave-7-r;
#X obj 974 1134 s \$0-octave-8-r;
#X obj 1113 749 s \$0-feedthrough-oct-a-r;
#X obj 1135 872 s \$0-feedthrough-oct-b-r;
#X msg 729 374 read statesave/\$1-stereo-octave-filter-ss.txt;
#X msg 55 731 write statesave/\$1-stereo-octave-filter-ss.txt;
#X connect 0 0 13 0;
#X connect 1 0 42 0;
#X connect 2 0 1 0;
#X connect 3 0 1 0;
#X connect 5 0 3 0;
#X connect 5 1 2 0;
#X connect 6 0 54 0;
#X connect 7 0 6 0;
#X connect 7 1 26 0;
#X connect 7 2 8 0;
#X connect 8 0 4 0;
#X connect 11 0 12 0;
#X connect 12 0 6 1;
#X connect 12 1 53 0;
#X connect 12 2 9 0;
#X connect 13 0 5 0;
#X connect 13 1 11 0;
#X connect 14 0 7 0;
#X connect 15 0 14 0;
#X connect 16 0 13 0;
#X connect 26 0 29 0;
#X connect 29 0 40 0;
#X connect 30 0 29 7;
#X connect 31 0 26 1;
#X connect 32 0 29 1;
#X connect 33 0 29 2;
#X connect 34 0 29 3;
#X connect 35 0 29 4;
#X connect 36 0 29 5;
#X connect 37 0 29 6;
#X connect 38 0 29 8;
#X connect 39 0 29 9;
#X connect 40 0 4 0;
#X connect 42 0 43 0;
#X connect 42 1 44 0;
#X connect 42 2 45 0;
#X connect 42 3 46 0;
#X connect 42 4 47 0;
#X connect 42 5 48 0;
#X connect 42 6 49 0;
#X connect 42 7 50 0;
#X connect 42 8 51 0;
#X connect 42 9 52 0;
#X connect 53 0 1 0;
#X connect 54 0 4 0;
#X restore 46 608 pd state-saving-multiple-instances;
#X obj 46 714 s \$0-instance-num;
#X obj 46 666 makefilename %d;
#X msg 46 691 label \$1;
#N canvas 140 73 1140 657 state-saving-via-preset-manager-module 0
;
#X obj 751 323 textfile;
#X msg 687 272 rewind;
#X msg 644 272 bang;
#X obj 109 816 textfile;
#X obj 644 233 t b b;
#X obj 107 334 f;
#X obj 120 557 f;
#X obj 53 452 t b b b;
#X msg 160 714 clear;
#X obj 107 156 delay 5;
#X obj 53 507 delay 10;
#X msg 53 292 bang;
#X obj 53 126 r STORE-S!;
#X obj 751 224 f;
#X obj 724 188 t b b;
#X obj 724 145 t b f;
#X obj 796 242 f \$1;
#X obj 751 269 pack f f;
#X obj 796 192 loadbang;
#X obj 120 587 pack f f;
#X obj 165 540 loadbang;
#X obj 165 562 f \$1;
#X obj 724 122 r preset-manager-scan;
#X obj 135 518 r preset-manager-store-slot;
#X text 1027 297 <-----rename to match name of Pd patch;
#X text 1059 317 i.e. "read statesave/\$1-\$2-PATCH_NAME-ss.txt";
#X text 498 759 i.e. "write statesave/\$1-\$2-PATCH_NAME-ss.txt";
#X text 453 740 <-----rename to match name of Pd patch;
#X text 907 374 <----- one "f" for each parameter;
#X text 313 400 <----- one "f" for each parameter;
#X text 207 443 <----- one "$N" for each parameter;
#X text 278 190 <-----rename to match send symbol of each GUI element
;
#X text 126 52 WRITE side;
#X text 727 44 READ side;
#X obj 107 400 pack f f f f f f f f f f;
#X obj 393 314 r \$0-octave-8-s;
#X obj 197 131 r \$0-octave-1-s;
#X obj 224 156 r \$0-octave-2-s;
#X obj 250 180 r \$0-octave-3-s;
#X obj 281 203 r \$0-octave-4-s;
#X obj 313 228 r \$0-octave-5-s;
#X obj 341 257 r \$0-octave-6-s;
#X obj 369 289 r \$0-octave-7-s;
#X obj 394 338 r \$0-feedthrough-oct-a-s;
#X obj 418 367 r \$0-feedthrough-oct-b-s;
#X msg 107 468 set \$1 \$2 \$3 \$4 \$5 \$6 \$7 \$8 \$9 \$10;
#X obj 751 375 unpack f f f f f f f f f f;
#X obj 621 509 s \$0-octave-1-r;
#X obj 731 645 s \$0-octave-2-r;
#X obj 763 773 s \$0-octave-3-r;
#X obj 810 907 s \$0-octave-4-r;
#X obj 911 525 s \$0-octave-5-r;
#X obj 933 648 s \$0-octave-6-r;
#X obj 965 776 s \$0-octave-7-r;
#X obj 1012 910 s \$0-octave-8-r;
#X obj 1151 525 s \$0-feedthrough-oct-a-r;
#X obj 1173 648 s \$0-feedthrough-oct-b-r;
#N canvas 0 25 1069 747 morph-parameters 0;
#X obj 176 94 inlet;
#X obj 176 236 pack f f;
#X obj 176 261 line;
#X obj 209 117 r preset-manager-morph-s;
#X msg 72 244 stop;
#X obj 72 214 r STOP-MORPH!;
#X obj 209 206 spigot;
#X obj 398 137 t f f;
#X obj 455 154 == 0;
#X obj 221 176 f;
#X floatatom 455 222 5 0 0 0 - - -;
#X obj 398 159 t b f;
#X floatatom 425 192 5 0 0 0 - - -;
#X obj 209 139 t f f;
#X obj 398 102 r parameters-s;
#X obj 176 288 outlet;
#X connect 0 0 1 0;
#X connect 1 0 2 0;
#X connect 2 0 15 0;
#X connect 3 0 13 0;
#X connect 4 0 2 0;
#X connect 5 0 4 0;
#X connect 6 0 1 1;
#X connect 7 0 11 0;
#X connect 7 1 8 0;
#X connect 8 0 10 0;
#X connect 9 0 6 0;
#X connect 10 0 1 1;
#X connect 11 0 9 0;
#X connect 11 1 12 0;
#X connect 12 0 6 1;
#X connect 13 0 6 0;
#X connect 13 1 9 1;
#X connect 14 0 7 0;
#X restore 623 487 pd morph-parameters;
#N canvas 0 25 1069 747 morph-parameters 0;
#X obj 176 94 inlet;
#X obj 176 236 pack f f;
#X obj 176 261 line;
#X obj 209 117 r preset-manager-morph-s;
#X msg 72 244 stop;
#X obj 72 214 r STOP-MORPH!;
#X obj 209 206 spigot;
#X obj 398 137 t f f;
#X obj 455 154 == 0;
#X obj 221 176 f;
#X floatatom 455 222 5 0 0 0 - - -;
#X obj 398 159 t b f;
#X floatatom 425 192 5 0 0 0 - - -;
#X obj 209 139 t f f;
#X obj 398 102 r parameters-s;
#X obj 176 288 outlet;
#X connect 0 0 1 0;
#X connect 1 0 2 0;
#X connect 2 0 15 0;
#X connect 3 0 13 0;
#X connect 4 0 2 0;
#X connect 5 0 4 0;
#X connect 6 0 1 1;
#X connect 7 0 11 0;
#X connect 7 1 8 0;
#X connect 8 0 10 0;
#X connect 9 0 6 0;
#X connect 10 0 1 1;
#X connect 11 0 9 0;
#X connect 11 1 12 0;
#X connect 12 0 6 1;
#X connect 13 0 6 0;
#X connect 13 1 9 1;
#X connect 14 0 7 0;
#X restore 728 623 pd morph-parameters;
#N canvas 0 25 1069 747 morph-parameters 0;
#X obj 176 94 inlet;
#X obj 176 236 pack f f;
#X obj 176 261 line;
#X obj 209 117 r preset-manager-morph-s;
#X msg 72 244 stop;
#X obj 72 214 r STOP-MORPH!;
#X obj 209 206 spigot;
#X obj 398 137 t f f;
#X obj 455 154 == 0;
#X obj 221 176 f;
#X floatatom 455 222 5 0 0 0 - - -;
#X obj 398 159 t b f;
#X floatatom 425 192 5 0 0 0 - - -;
#X obj 209 139 t f f;
#X obj 398 102 r parameters-s;
#X obj 176 288 outlet;
#X connect 0 0 1 0;
#X connect 1 0 2 0;
#X connect 2 0 15 0;
#X connect 3 0 13 0;
#X connect 4 0 2 0;
#X connect 5 0 4 0;
#X connect 6 0 1 1;
#X connect 7 0 11 0;
#X connect 7 1 8 0;
#X connect 8 0 10 0;
#X connect 9 0 6 0;
#X connect 10 0 1 1;
#X connect 11 0 9 0;
#X connect 11 1 12 0;
#X connect 12 0 6 1;
#X connect 13 0 6 0;
#X connect 13 1 9 1;
#X connect 14 0 7 0;
#X restore 760 738 pd morph-parameters;
#N canvas 0 25 1069 747 morph-parameters 0;
#X obj 176 94 inlet;
#X obj 176 236 pack f f;
#X obj 176 261 line;
#X obj 209 117 r preset-manager-morph-s;
#X msg 72 244 stop;
#X obj 72 214 r STOP-MORPH!;
#X obj 209 206 spigot;
#X obj 398 137 t f f;
#X obj 455 154 == 0;
#X obj 221 176 f;
#X floatatom 455 222 5 0 0 0 - - -;
#X obj 398 159 t b f;
#X floatatom 425 192 5 0 0 0 - - -;
#X obj 209 139 t f f;
#X obj 398 102 r parameters-s;
#X obj 176 288 outlet;
#X connect 0 0 1 0;
#X connect 1 0 2 0;
#X connect 2 0 15 0;
#X connect 3 0 13 0;
#X connect 4 0 2 0;
#X connect 5 0 4 0;
#X connect 6 0 1 1;
#X connect 7 0 11 0;
#X connect 7 1 8 0;
#X connect 8 0 10 0;
#X connect 9 0 6 0;
#X connect 10 0 1 1;
#X connect 11 0 9 0;
#X connect 11 1 12 0;
#X connect 12 0 6 1;
#X connect 13 0 6 0;
#X connect 13 1 9 1;
#X connect 14 0 7 0;
#X restore 809 884 pd morph-parameters;
#N canvas 0 25 1069 747 morph-parameters 0;
#X obj 176 94 inlet;
#X obj 176 236 pack f f;
#X obj 176 261 line;
#X obj 209 117 r preset-manager-morph-s;
#X msg 72 244 stop;
#X obj 72 214 r STOP-MORPH!;
#X obj 209 206 spigot;
#X obj 398 137 t f f;
#X obj 455 154 == 0;
#X obj 221 176 f;
#X floatatom 455 222 5 0 0 0 - - -;
#X obj 398 159 t b f;
#X floatatom 425 192 5 0 0 0 - - -;
#X obj 209 139 t f f;
#X obj 398 102 r parameters-s;
#X obj 176 288 outlet;
#X connect 0 0 1 0;
#X connect 1 0 2 0;
#X connect 2 0 15 0;
#X connect 3 0 13 0;
#X connect 4 0 2 0;
#X connect 5 0 4 0;
#X connect 6 0 1 1;
#X connect 7 0 11 0;
#X connect 7 1 8 0;
#X connect 8 0 10 0;
#X connect 9 0 6 0;
#X connect 10 0 1 1;
#X connect 11 0 9 0;
#X connect 11 1 12 0;
#X connect 12 0 6 1;
#X connect 13 0 6 0;
#X connect 13 1 9 1;
#X connect 14 0 7 0;
#X restore 907 498 pd morph-parameters;
#N canvas 0 25 1069 747 morph-parameters 0;
#X obj 176 94 inlet;
#X obj 176 236 pack f f;
#X obj 176 261 line;
#X obj 209 117 r preset-manager-morph-s;
#X msg 72 244 stop;
#X obj 72 214 r STOP-MORPH!;
#X obj 209 206 spigot;
#X obj 398 137 t f f;
#X obj 455 154 == 0;
#X obj 221 176 f;
#X floatatom 455 222 5 0 0 0 - - -;
#X obj 398 159 t b f;
#X floatatom 425 192 5 0 0 0 - - -;
#X obj 209 139 t f f;
#X obj 398 102 r parameters-s;
#X obj 176 288 outlet;
#X connect 0 0 1 0;
#X connect 1 0 2 0;
#X connect 2 0 15 0;
#X connect 3 0 13 0;
#X connect 4 0 2 0;
#X connect 5 0 4 0;
#X connect 6 0 1 1;
#X connect 7 0 11 0;
#X connect 7 1 8 0;
#X connect 8 0 10 0;
#X connect 9 0 6 0;
#X connect 10 0 1 1;
#X connect 11 0 9 0;
#X connect 11 1 12 0;
#X connect 12 0 6 1;
#X connect 13 0 6 0;
#X connect 13 1 9 1;
#X connect 14 0 7 0;
#X restore 933 620 pd morph-parameters;
#N canvas 0 25 1069 747 morph-parameters 0;
#X obj 176 94 inlet;
#X obj 176 236 pack f f;
#X obj 176 261 line;
#X obj 209 117 r preset-manager-morph-s;
#X msg 72 244 stop;
#X obj 72 214 r STOP-MORPH!;
#X obj 209 206 spigot;
#X obj 398 137 t f f;
#X obj 455 154 == 0;
#X obj 221 176 f;
#X floatatom 455 222 5 0 0 0 - - -;
#X obj 398 159 t b f;
#X floatatom 425 192 5 0 0 0 - - -;
#X obj 209 139 t f f;
#X obj 398 102 r parameters-s;
#X obj 176 288 outlet;
#X connect 0 0 1 0;
#X connect 1 0 2 0;
#X connect 2 0 15 0;
#X connect 3 0 13 0;
#X connect 4 0 2 0;
#X connect 5 0 4 0;
#X connect 6 0 1 1;
#X connect 7 0 11 0;
#X connect 7 1 8 0;
#X connect 8 0 10 0;
#X connect 9 0 6 0;
#X connect 10 0 1 1;
#X connect 11 0 9 0;
#X connect 11 1 12 0;
#X connect 12 0 6 1;
#X connect 13 0 6 0;
#X connect 13 1 9 1;
#X connect 14 0 7 0;
#X restore 959 749 pd morph-parameters;
#N canvas 0 25 1069 747 morph-parameters 0;
#X obj 176 94 inlet;
#X obj 176 236 pack f f;
#X obj 176 261 line;
#X obj 209 117 r preset-manager-morph-s;
#X msg 72 244 stop;
#X obj 72 214 r STOP-MORPH!;
#X obj 209 206 spigot;
#X obj 398 137 t f f;
#X obj 455 154 == 0;
#X obj 221 176 f;
#X floatatom 455 222 5 0 0 0 - - -;
#X obj 398 159 t b f;
#X floatatom 425 192 5 0 0 0 - - -;
#X obj 209 139 t f f;
#X obj 398 102 r parameters-s;
#X obj 176 288 outlet;
#X connect 0 0 1 0;
#X connect 1 0 2 0;
#X connect 2 0 15 0;
#X connect 3 0 13 0;
#X connect 4 0 2 0;
#X connect 5 0 4 0;
#X connect 6 0 1 1;
#X connect 7 0 11 0;
#X connect 7 1 8 0;
#X connect 8 0 10 0;
#X connect 9 0 6 0;
#X connect 10 0 1 1;
#X connect 11 0 9 0;
#X connect 11 1 12 0;
#X connect 12 0 6 1;
#X connect 13 0 6 0;
#X connect 13 1 9 1;
#X connect 14 0 7 0;
#X restore 1008 878 pd morph-parameters;
#X msg 751 298 read statesave/\$1-stereo-octave-filter-ss.txt;
#X msg 159 741 write statesave/\$1-stereo-octave-filter-ss.txt;
#X connect 0 0 46 0;
#X connect 1 0 0 0;
#X connect 2 0 0 0;
#X connect 4 0 2 0;
#X connect 4 1 1 0;
#X connect 5 0 34 0;
#X connect 6 0 19 0;
#X connect 7 0 10 0;
#X connect 7 1 9 0;
#X connect 7 2 8 0;
#X connect 8 0 3 0;
#X connect 9 0 5 0;
#X connect 10 0 6 0;
#X connect 11 0 7 0;
#X connect 12 0 11 0;
#X connect 13 0 17 0;
#X connect 14 0 4 0;
#X connect 14 1 13 0;
#X connect 15 0 14 0;
#X connect 15 1 13 1;
#X connect 16 0 17 1;
#X connect 17 0 65 0;
#X connect 18 0 16 0;
#X connect 19 0 66 0;
#X connect 20 0 21 0;
#X connect 21 0 19 1;
#X connect 22 0 15 0;
#X connect 23 0 6 1;
#X connect 34 0 45 0;
#X connect 35 0 34 7;
#X connect 36 0 5 1;
#X connect 37 0 34 1;
#X connect 38 0 34 2;
#X connect 39 0 34 3;
#X connect 40 0 34 4;
#X connect 41 0 34 5;
#X connect 42 0 34 6;
#X connect 43 0 34 8;
#X connect 44 0 34 9;
#X connect 45 0 3 0;
#X connect 46 0 57 0;
#X connect 46 1 58 0;
#X connect 46 2 59 0;
#X connect 46 3 60 0;
#X connect 46 4 61 0;
#X connect 46 5 62 0;
#X connect 46 6 63 0;
#X connect 46 7 64 0;
#X connect 46 8 55 0;
#X connect 46 9 56 0;
#X connect 57 0 47 0;
#X connect 58 0 48 0;
#X connect 59 0 49 0;
#X connect 60 0 50 0;
#X connect 61 0 51 0;
#X connect 62 0 52 0;
#X connect 63 0 53 0;
#X connect 64 0 54 0;
#X connect 65 0 0 0;
#X connect 66 0 3 0;
#X restore 47 580 pd state-saving-via-preset-manager-module;
#N canvas 396 31 798 399 parameter-nudging-system 0;
#X obj 56 79 clip 0 127;
#N canvas 639 226 484 497 nudge-attenuators 0;
#X obj 124 234 random;
#X obj 232 335 f;
#X obj 232 368 +;
#X obj 257 166 random 2;
#X obj 124 275 t f f;
#X obj 124 351 t b f;
#X obj 124 297 *;
#X obj 257 188 sel 0 1;
#X msg 257 280 -1;
#X msg 335 280 1;
#X obj 124 149 t b b b;
#X obj 124 71 r NUDGE!;
#X obj 157 193 r NUDGE-RANGE;
#X obj 247 308 inlet;
#X obj 232 397 outlet;
#X obj 124 93 spigot;
#X obj 201 76 r attenuators2-s;
#X connect 0 0 4 0;
#X connect 1 0 2 0;
#X connect 2 0 14 0;
#X connect 3 0 7 0;
#X connect 4 0 6 0;
#X connect 5 0 2 0;
#X connect 5 1 2 1;
#X connect 6 0 5 0;
#X connect 7 0 8 0;
#X connect 7 1 9 0;
#X connect 8 0 6 1;
#X connect 9 0 6 1;
#X connect 10 0 0 0;
#X connect 10 1 1 0;
#X connect 10 2 3 0;
#X connect 11 0 15 0;
#X connect 12 0 0 1;
#X connect 13 0 1 1;
#X connect 15 0 10 0;
#X connect 16 0 15 1;
#X restore 56 57 pd nudge-attenuators;
#X text 409 490 <-----you will need one structure like this for each
parameter;
#X text 382 552 <-----rename to match receive symbol of each GUI element
;
#X obj 56 29 r \$0-octave-1-s;
#X obj 56 109 s \$0-octave-1-r;
#X obj 56 192 clip 0 127;
#N canvas 639 226 484 497 nudge-attenuators 0;
#X obj 124 234 random;
#X obj 232 335 f;
#X obj 232 368 +;
#X obj 257 166 random 2;
#X obj 124 275 t f f;
#X obj 124 351 t b f;
#X obj 124 297 *;
#X obj 257 188 sel 0 1;
#X msg 257 280 -1;
#X msg 335 280 1;
#X obj 124 149 t b b b;
#X obj 124 71 r NUDGE!;
#X obj 157 193 r NUDGE-RANGE;
#X obj 247 308 inlet;
#X obj 232 397 outlet;
#X obj 124 93 spigot;
#X obj 201 76 r attenuators2-s;
#X connect 0 0 4 0;
#X connect 1 0 2 0;
#X connect 2 0 14 0;
#X connect 3 0 7 0;
#X connect 4 0 6 0;
#X connect 5 0 2 0;
#X connect 5 1 2 1;
#X connect 6 0 5 0;
#X connect 7 0 8 0;
#X connect 7 1 9 0;
#X connect 8 0 6 1;
#X connect 9 0 6 1;
#X connect 10 0 0 0;
#X connect 10 1 1 0;
#X connect 10 2 3 0;
#X connect 11 0 15 0;
#X connect 12 0 0 1;
#X connect 13 0 1 1;
#X connect 15 0 10 0;
#X connect 16 0 15 1;
#X restore 56 170 pd nudge-attenuators;
#X obj 203 79 clip 0 127;
#N canvas 639 226 484 497 nudge-attenuators 0;
#X obj 124 234 random;
#X obj 232 335 f;
#X obj 232 368 +;
#X obj 257 166 random 2;
#X obj 124 275 t f f;
#X obj 124 351 t b f;
#X obj 124 297 *;
#X obj 257 188 sel 0 1;
#X msg 257 280 -1;
#X msg 335 280 1;
#X obj 124 149 t b b b;
#X obj 124 71 r NUDGE!;
#X obj 157 193 r NUDGE-RANGE;
#X obj 247 308 inlet;
#X obj 232 397 outlet;
#X obj 124 93 spigot;
#X obj 201 76 r attenuators2-s;
#X connect 0 0 4 0;
#X connect 1 0 2 0;
#X connect 2 0 14 0;
#X connect 3 0 7 0;
#X connect 4 0 6 0;
#X connect 5 0 2 0;
#X connect 5 1 2 1;
#X connect 6 0 5 0;
#X connect 7 0 8 0;
#X connect 7 1 9 0;
#X connect 8 0 6 1;
#X connect 9 0 6 1;
#X connect 10 0 0 0;
#X connect 10 1 1 0;
#X connect 10 2 3 0;
#X connect 11 0 15 0;
#X connect 12 0 0 1;
#X connect 13 0 1 1;
#X connect 15 0 10 0;
#X connect 16 0 15 1;
#X restore 203 57 pd nudge-attenuators;
#X obj 203 192 clip 0 127;
#N canvas 639 226 484 497 nudge-attenuators 0;
#X obj 124 234 random;
#X obj 232 335 f;
#X obj 232 368 +;
#X obj 257 166 random 2;
#X obj 124 275 t f f;
#X obj 124 351 t b f;
#X obj 124 297 *;
#X obj 257 188 sel 0 1;
#X msg 257 280 -1;
#X msg 335 280 1;
#X obj 124 149 t b b b;
#X obj 124 71 r NUDGE!;
#X obj 157 193 r NUDGE-RANGE;
#X obj 247 308 inlet;
#X obj 232 397 outlet;
#X obj 124 93 spigot;
#X obj 201 76 r attenuators2-s;
#X connect 0 0 4 0;
#X connect 1 0 2 0;
#X connect 2 0 14 0;
#X connect 3 0 7 0;
#X connect 4 0 6 0;
#X connect 5 0 2 0;
#X connect 5 1 2 1;
#X connect 6 0 5 0;
#X connect 7 0 8 0;
#X connect 7 1 9 0;
#X connect 8 0 6 1;
#X connect 9 0 6 1;
#X connect 10 0 0 0;
#X connect 10 1 1 0;
#X connect 10 2 3 0;
#X connect 11 0 15 0;
#X connect 12 0 0 1;
#X connect 13 0 1 1;
#X connect 15 0 10 0;
#X connect 16 0 15 1;
#X restore 203 170 pd nudge-attenuators;
#X obj 352 79 clip 0 127;
#N canvas 639 226 484 497 nudge-attenuators 0;
#X obj 124 234 random;
#X obj 232 335 f;
#X obj 232 368 +;
#X obj 257 166 random 2;
#X obj 124 275 t f f;
#X obj 124 351 t b f;
#X obj 124 297 *;
#X obj 257 188 sel 0 1;
#X msg 257 280 -1;
#X msg 335 280 1;
#X obj 124 149 t b b b;
#X obj 124 71 r NUDGE!;
#X obj 157 193 r NUDGE-RANGE;
#X obj 247 308 inlet;
#X obj 232 397 outlet;
#X obj 124 93 spigot;
#X obj 201 76 r attenuators2-s;
#X connect 0 0 4 0;
#X connect 1 0 2 0;
#X connect 2 0 14 0;
#X connect 3 0 7 0;
#X connect 4 0 6 0;
#X connect 5 0 2 0;
#X connect 5 1 2 1;
#X connect 6 0 5 0;
#X connect 7 0 8 0;
#X connect 7 1 9 0;
#X connect 8 0 6 1;
#X connect 9 0 6 1;
#X connect 10 0 0 0;
#X connect 10 1 1 0;
#X connect 10 2 3 0;
#X connect 11 0 15 0;
#X connect 12 0 0 1;
#X connect 13 0 1 1;
#X connect 15 0 10 0;
#X connect 16 0 15 1;
#X restore 352 57 pd nudge-attenuators;
#X obj 352 192 clip 0 127;
#N canvas 639 226 484 497 nudge-attenuators 0;
#X obj 124 234 random;
#X obj 232 335 f;
#X obj 232 368 +;
#X obj 257 166 random 2;
#X obj 124 275 t f f;
#X obj 124 351 t b f;
#X obj 124 297 *;
#X obj 257 188 sel 0 1;
#X msg 257 280 -1;
#X msg 335 280 1;
#X obj 124 149 t b b b;
#X obj 124 71 r NUDGE!;
#X obj 157 193 r NUDGE-RANGE;
#X obj 247 308 inlet;
#X obj 232 397 outlet;
#X obj 124 93 spigot;
#X obj 201 76 r attenuators2-s;
#X connect 0 0 4 0;
#X connect 1 0 2 0;
#X connect 2 0 14 0;
#X connect 3 0 7 0;
#X connect 4 0 6 0;
#X connect 5 0 2 0;
#X connect 5 1 2 1;
#X connect 6 0 5 0;
#X connect 7 0 8 0;
#X connect 7 1 9 0;
#X connect 8 0 6 1;
#X connect 9 0 6 1;
#X connect 10 0 0 0;
#X connect 10 1 1 0;
#X connect 10 2 3 0;
#X connect 11 0 15 0;
#X connect 12 0 0 1;
#X connect 13 0 1 1;
#X connect 15 0 10 0;
#X connect 16 0 15 1;
#X restore 352 170 pd nudge-attenuators;
#X obj 499 79 clip 0 127;
#N canvas 639 226 484 497 nudge-attenuators 0;
#X obj 124 234 random;
#X obj 232 335 f;
#X obj 232 368 +;
#X obj 257 166 random 2;
#X obj 124 275 t f f;
#X obj 124 351 t b f;
#X obj 124 297 *;
#X obj 257 188 sel 0 1;
#X msg 257 280 -1;
#X msg 335 280 1;
#X obj 124 149 t b b b;
#X obj 124 71 r NUDGE!;
#X obj 157 193 r NUDGE-RANGE;
#X obj 247 308 inlet;
#X obj 232 397 outlet;
#X obj 124 93 spigot;
#X obj 201 76 r attenuators2-s;
#X connect 0 0 4 0;
#X connect 1 0 2 0;
#X connect 2 0 14 0;
#X connect 3 0 7 0;
#X connect 4 0 6 0;
#X connect 5 0 2 0;
#X connect 5 1 2 1;
#X connect 6 0 5 0;
#X connect 7 0 8 0;
#X connect 7 1 9 0;
#X connect 8 0 6 1;
#X connect 9 0 6 1;
#X connect 10 0 0 0;
#X connect 10 1 1 0;
#X connect 10 2 3 0;
#X connect 11 0 15 0;
#X connect 12 0 0 1;
#X connect 13 0 1 1;
#X connect 15 0 10 0;
#X connect 16 0 15 1;
#X restore 499 57 pd nudge-attenuators;
#X obj 499 192 clip 0 127;
#N canvas 639 226 484 497 nudge-attenuators 0;
#X obj 124 234 random;
#X obj 232 335 f;
#X obj 232 368 +;
#X obj 257 166 random 2;
#X obj 124 275 t f f;
#X obj 124 351 t b f;
#X obj 124 297 *;
#X obj 257 188 sel 0 1;
#X msg 257 280 -1;
#X msg 335 280 1;
#X obj 124 149 t b b b;
#X obj 124 71 r NUDGE!;
#X obj 157 193 r NUDGE-RANGE;
#X obj 247 308 inlet;
#X obj 232 397 outlet;
#X obj 124 93 spigot;
#X obj 201 76 r attenuators2-s;
#X connect 0 0 4 0;
#X connect 1 0 2 0;
#X connect 2 0 14 0;
#X connect 3 0 7 0;
#X connect 4 0 6 0;
#X connect 5 0 2 0;
#X connect 5 1 2 1;
#X connect 6 0 5 0;
#X connect 7 0 8 0;
#X connect 7 1 9 0;
#X connect 8 0 6 1;
#X connect 9 0 6 1;
#X connect 10 0 0 0;
#X connect 10 1 1 0;
#X connect 10 2 3 0;
#X connect 11 0 15 0;
#X connect 12 0 0 1;
#X connect 13 0 1 1;
#X connect 15 0 10 0;
#X connect 16 0 15 1;
#X restore 499 170 pd nudge-attenuators;
#X obj 205 339 clip 0 127;
#N canvas 639 226 484 497 nudge-attenuators 0;
#X obj 124 234 random;
#X obj 232 335 f;
#X obj 232 368 +;
#X obj 257 166 random 2;
#X obj 124 275 t f f;
#X obj 124 351 t b f;
#X obj 124 297 *;
#X obj 257 188 sel 0 1;
#X msg 257 280 -1;
#X msg 335 280 1;
#X obj 124 149 t b b b;
#X obj 124 71 r NUDGE!;
#X obj 157 193 r NUDGE-RANGE;
#X obj 247 308 inlet;
#X obj 232 397 outlet;
#X obj 124 93 spigot;
#X obj 201 76 r attenuators2-s;
#X connect 0 0 4 0;
#X connect 1 0 2 0;
#X connect 2 0 14 0;
#X connect 3 0 7 0;
#X connect 4 0 6 0;
#X connect 5 0 2 0;
#X connect 5 1 2 1;
#X connect 6 0 5 0;
#X connect 7 0 8 0;
#X connect 7 1 9 0;
#X connect 8 0 6 1;
#X connect 9 0 6 1;
#X connect 10 0 0 0;
#X connect 10 1 1 0;
#X connect 10 2 3 0;
#X connect 11 0 15 0;
#X connect 12 0 0 1;
#X connect 13 0 1 1;
#X connect 15 0 10 0;
#X connect 16 0 15 1;
#X restore 205 317 pd nudge-attenuators;
#X obj 352 339 clip 0 127;
#N canvas 639 226 484 497 nudge-attenuators 0;
#X obj 124 234 random;
#X obj 232 335 f;
#X obj 232 368 +;
#X obj 257 166 random 2;
#X obj 124 275 t f f;
#X obj 124 351 t b f;
#X obj 124 297 *;
#X obj 257 188 sel 0 1;
#X msg 257 280 -1;
#X msg 335 280 1;
#X obj 124 149 t b b b;
#X obj 124 71 r NUDGE!;
#X obj 157 193 r NUDGE-RANGE;
#X obj 247 308 inlet;
#X obj 232 397 outlet;
#X obj 124 93 spigot;
#X obj 201 76 r attenuators2-s;
#X connect 0 0 4 0;
#X connect 1 0 2 0;
#X connect 2 0 14 0;
#X connect 3 0 7 0;
#X connect 4 0 6 0;
#X connect 5 0 2 0;
#X connect 5 1 2 1;
#X connect 6 0 5 0;
#X connect 7 0 8 0;
#X connect 7 1 9 0;
#X connect 8 0 6 1;
#X connect 9 0 6 1;
#X connect 10 0 0 0;
#X connect 10 1 1 0;
#X connect 10 2 3 0;
#X connect 11 0 15 0;
#X connect 12 0 0 1;
#X connect 13 0 1 1;
#X connect 15 0 10 0;
#X connect 16 0 15 1;
#X restore 352 317 pd nudge-attenuators;
#X obj 203 29 r \$0-octave-2-s;
#X obj 203 109 s \$0-octave-2-r;
#X obj 352 29 r \$0-octave-3-s;
#X obj 352 109 s \$0-octave-3-r;
#X obj 499 29 r \$0-octave-4-s;
#X obj 499 109 s \$0-octave-4-r;
#X obj 56 142 r \$0-octave-5-s;
#X obj 56 222 s \$0-octave-5-r;
#X obj 203 142 r \$0-octave-6-s;
#X obj 203 222 s \$0-octave-6-r;
#X obj 352 142 r \$0-octave-7-s;
#X obj 352 222 s \$0-octave-7-r;
#X obj 499 142 r \$0-octave-8-s;
#X obj 499 222 s \$0-octave-8-r;
#X obj 205 289 r \$0-feedthrough-oct-a-s;
#X obj 352 289 r \$0-feedthrough-oct-b-s;
#X obj 205 369 s \$0-feedthrough-oct-a-r;
#X obj 352 369 s \$0-feedthrough-oct-b-r;
#X connect 0 0 5 0;
#X connect 1 0 0 0;
#X connect 4 0 1 0;
#X connect 6 0 31 0;
#X connect 7 0 6 0;
#X connect 8 0 25 0;
#X connect 9 0 8 0;
#X connect 10 0 33 0;
#X connect 11 0 10 0;
#X connect 12 0 27 0;
#X connect 13 0 12 0;
#X connect 14 0 35 0;
#X connect 15 0 14 0;
#X connect 16 0 29 0;
#X connect 17 0 16 0;
#X connect 18 0 37 0;
#X connect 19 0 18 0;
#X connect 20 0 40 0;
#X connect 21 0 20 0;
#X connect 22 0 41 0;
#X connect 23 0 22 0;
#X connect 24 0 9 0;
#X connect 26 0 13 0;
#X connect 28 0 17 0;
#X connect 30 0 7 0;
#X connect 32 0 11 0;
#X connect 34 0 15 0;
#X connect 36 0 19 0;
#X connect 38 0 21 0;
#X connect 39 0 23 0;
#X restore 48 552 pd parameter-nudging-system;
#N canvas 0 25 1440 847 external-messages 0;
#X floatatom 76 505 5 0 0 0 - - -;
#X obj 185 327 spigot;
#X obj 224 278 tgl 15 0 empty empty empty 17 7 0 10 -262144 -1 -1 0
1;
#X obj 267 238 ==;
#X obj 282 214 f \$1;
#X obj 282 190 loadbang;
#X msg 185 202 \$1 \$2;
#X msg 185 156 symbol \$1;
#X obj 185 180 pack s f;
#X obj 76 484 f;
#X obj 76 428 t b f;
#X obj 76 455 spigot;
#X obj 185 62 unpack s f f;
#X symbolatom 185 94 10 0 0 0 - - -;
#X obj 224 298 t f f;
#X obj 257 327 s \$0-msg-spigot;
#X obj 125 429 r \$0-msg-spigot;
#X text 360 16 <----rename to match name of module;
#X text 306 379 <-----rename to match EXTERNAL MESSAGES parameter names
;
#X text 306 61 <----SYMBOL (parameter name) FLOAT (parameter value)
FLOAT (instance number);
#X text 811 466 <-----you will need one structure like this for each
parameter;
#X text 787 531 <-----rename to match receive symbol of each GUI element
;
#X obj 183 356 route F1 F2 F3 F4 F5 F6 F7 F8 FTA FTB;
#X obj 76 525 s \$0-octave-1-r;
#X floatatom 98 628 5 0 0 0 - - -;
#X obj 98 607 f;
#X obj 98 551 t b f;
#X obj 98 578 spigot;
#X obj 147 552 r \$0-msg-spigot;
#X floatatom 130 756 5 0 0 0 - - -;
#X obj 130 735 f;
#X obj 130 679 t b f;
#X obj 130 706 spigot;
#X obj 179 680 r \$0-msg-spigot;
#X floatatom 177 890 5 0 0 0 - - -;
#X obj 177 869 f;
#X obj 177 813 t b f;
#X obj 177 840 spigot;
#X obj 226 814 r \$0-msg-spigot;
#X floatatom 278 508 5 0 0 0 - - -;
#X obj 278 487 f;
#X obj 278 431 t b f;
#X obj 278 458 spigot;
#X obj 327 432 r \$0-msg-spigot;
#X floatatom 300 631 5 0 0 0 - - -;
#X obj 300 610 f;
#X obj 300 554 t b f;
#X obj 300 581 spigot;
#X obj 349 555 r \$0-msg-spigot;
#X floatatom 332 759 5 0 0 0 - - -;
#X obj 332 738 f;
#X obj 332 682 t b f;
#X obj 332 709 spigot;
#X obj 381 683 r \$0-msg-spigot;
#X floatatom 379 893 5 0 0 0 - - -;
#X obj 379 872 f;
#X obj 379 816 t b f;
#X obj 379 843 spigot;
#X obj 428 817 r \$0-msg-spigot;
#X floatatom 518 508 5 0 0 0 - - -;
#X obj 518 487 f;
#X obj 518 431 t b f;
#X obj 518 458 spigot;
#X obj 567 432 r \$0-msg-spigot;
#X floatatom 540 631 5 0 0 0 - - -;
#X obj 540 610 f;
#X obj 540 554 t b f;
#X obj 540 581 spigot;
#X obj 589 555 r \$0-msg-spigot;
#X obj 98 648 s \$0-octave-2-r;
#X obj 130 776 s \$0-octave-3-r;
#X obj 177 910 s \$0-octave-4-r;
#X obj 278 528 s \$0-octave-5-r;
#X obj 300 651 s \$0-octave-6-r;
#X obj 332 779 s \$0-octave-7-r;
#X obj 379 913 s \$0-octave-8-r;
#X obj 518 528 s \$0-feedthrough-oct-a-r;
#X obj 540 651 s \$0-feedthrough-oct-b-r;
#X obj 185 14 r stereo-octave-filter;
#X connect 0 0 23 0;
#X connect 1 0 22 0;
#X connect 2 0 14 0;
#X connect 3 0 2 0;
#X connect 4 0 3 1;
#X connect 5 0 4 0;
#X connect 6 0 1 0;
#X connect 7 0 8 0;
#X connect 8 0 6 0;
#X connect 9 0 0 0;
#X connect 10 0 11 0;
#X connect 10 1 9 1;
#X connect 11 0 9 0;
#X connect 12 0 13 0;
#X connect 12 1 8 1;
#X connect 12 2 3 0;
#X connect 13 0 7 0;
#X connect 14 0 1 1;
#X connect 14 1 15 0;
#X connect 16 0 11 1;
#X connect 22 0 10 0;
#X connect 22 1 26 0;
#X connect 22 2 31 0;
#X connect 22 3 36 0;
#X connect 22 4 41 0;
#X connect 22 5 46 0;
#X connect 22 6 51 0;
#X connect 22 7 56 0;
#X connect 22 8 61 0;
#X connect 22 9 66 0;
#X connect 24 0 69 0;
#X connect 25 0 24 0;
#X connect 26 0 27 0;
#X connect 26 1 25 1;
#X connect 27 0 25 0;
#X connect 28 0 27 1;
#X connect 29 0 70 0;
#X connect 30 0 29 0;
#X connect 31 0 32 0;
#X connect 31 1 30 1;
#X connect 32 0 30 0;
#X connect 33 0 32 1;
#X connect 34 0 71 0;
#X connect 35 0 34 0;
#X connect 36 0 37 0;
#X connect 36 1 35 1;
#X connect 37 0 35 0;
#X connect 38 0 37 1;
#X connect 39 0 72 0;
#X connect 40 0 39 0;
#X connect 41 0 42 0;
#X connect 41 1 40 1;
#X connect 42 0 40 0;
#X connect 43 0 42 1;
#X connect 44 0 73 0;
#X connect 45 0 44 0;
#X connect 46 0 47 0;
#X connect 46 1 45 1;
#X connect 47 0 45 0;
#X connect 48 0 47 1;
#X connect 49 0 74 0;
#X connect 50 0 49 0;
#X connect 51 0 52 0;
#X connect 51 1 50 1;
#X connect 52 0 50 0;
#X connect 53 0 52 1;
#X connect 54 0 75 0;
#X connect 55 0 54 0;
#X connect 56 0 57 0;
#X connect 56 1 55 1;
#X connect 57 0 55 0;
#X connect 58 0 57 1;
#X connect 59 0 76 0;
#X connect 60 0 59 0;
#X connect 61 0 62 0;
#X connect 61 1 60 1;
#X connect 62 0 60 0;
#X connect 63 0 62 1;
#X connect 64 0 77 0;
#X connect 65 0 64 0;
#X connect 66 0 67 0;
#X connect 66 1 65 1;
#X connect 67 0 65 0;
#X connect 68 0 67 1;
#X connect 78 0 12 0;
#X restore 49 526 pd external-messages;
#X text 20 477 STATE SAVING and EXTERNAL CONTROL STUFF;
#X text 43 497 Open each for details;
#X obj 628 250 r \$0-feedthrough-oct-a-s;
#X obj 647 488 r \$0-feedthrough-oct-b-s;
#X connect 0 0 3 9;
#X connect 0 0 2 9;
#X connect 2 0 1 0;
#X connect 3 0 44 0;
#X connect 4 0 56 0;
#X connect 4 0 57 0;
#X connect 5 0 2 8;
#X connect 5 0 3 8;
#X connect 6 0 2 1;
#X connect 6 0 3 1;
#X connect 7 0 2 2;
#X connect 7 0 3 2;
#X connect 8 0 2 3;
#X connect 8 0 3 3;
#X connect 9 0 2 4;
#X connect 9 0 3 4;
#X connect 10 0 2 5;
#X connect 10 0 3 5;
#X connect 11 0 2 6;
#X connect 11 0 3 6;
#X connect 12 0 2 7;
#X connect 12 0 3 7;
#X connect 40 0 0 0;
#X connect 41 0 40 0;
#X connect 45 0 55 0;
#X connect 46 0 45 0;
#X connect 47 0 57 1;
#X connect 48 0 47 0;
#X connect 49 0 62 0;
#X connect 49 0 63 0;
#X connect 50 0 62 1;
#X connect 51 0 50 0;
#X connect 52 0 51 0;
#X connect 53 0 63 1;
#X connect 54 0 53 0;
#X connect 55 0 56 1;
#X connect 56 0 2 0;
#X connect 57 0 1 0;
#X connect 58 0 59 0;
#X connect 59 0 45 0;
#X connect 60 0 61 0;
#X connect 61 0 51 0;
#X connect 62 0 3 0;
#X connect 63 0 44 0;
#X connect 65 0 67 0;
#X connect 67 0 68 0;
#X connect 68 0 66 0;
#X connect 74 0 46 0;
#X connect 74 0 48 0;
#X connect 75 0 52 0;
#X connect 75 0 54 0;
#X coords 0 -1 1 1 430 320 2 100 100;
