#N canvas 10 56 1353 676 10;
#X declare -lib moonlib;
#X obj 530 109 cnv 5 5 5 empty \$0-instance-num 0 0 0 0 12 -262144
-66577 0;
#X obj 301 103 cnv 15 428 314 empty empty SUB_MIXER_3202 10 35 0 15
-228856 -66577 0;
#X text 304 103 A;
#X text 383 102 B;
#X obj 1094 676 outlet~;
#X obj 315 332 moonlib/mknob 25 100 0 127 0 0 \$0-pan-1-s \$0-pan-1-r
A←_→B -4 30 0 12 -1 -262144 -1 0 1;
#X obj 379 332 moonlib/mknob 25 100 0 127 0 0 \$0-pan-2-s \$0-pan-2-r
A←_→B -4 30 0 12 -1 -262144 -1 0 1;
#X obj 467 332 moonlib/mknob 25 100 0 127 0 0 \$0-pan-3-s \$0-pan-3-r
A←_→B -4 30 0 12 -1 -262144 -1 0 1;
#X obj 533 332 moonlib/mknob 25 100 0 127 0 0 \$0-pan-4-s \$0-pan-4-r
A←_→B -4 30 0 12 -1 -262144 -1 0 1;
#X obj 1164 676 outlet~;
#X obj 1094 653 *~;
#X obj 1108 500 / 127;
#X obj 1109 578 line~;
#X obj 1109 554 pack 0 50;
#X obj 1165 651 *~;
#X obj 1179 498 / 127;
#X obj 1180 576 line~;
#X obj 1180 552 pack 0 50;
#X obj 892 380 ../other_patches/volumeandpan~, f 11;
#X obj 971 380 ../other_patches/volumeandpan~, f 11;
#X obj 1048 380 ../other_patches/volumeandpan~, f 11;
#X obj 1127 380 ../other_patches/volumeandpan~, f 11;
#X obj 892 350 inlet~;
#X obj 969 349 inlet~;
#X obj 1047 350 inlet~;
#X obj 1127 347 inlet~;
#X obj 785 351 inlet~;
#X obj 836 351 inlet~;
#X text 304 400 A;
#X text 716 400 B;
#X obj 34 652 declare -lib moonlib;
#X obj 618 169 cnv 15 102 160 empty empty empty 20 12 0 14 -33289 -66577
0;
#X obj 619 170 cnv 15 100 158 empty empty empty 20 12 0 14 -233017
-66577 0;
#X obj 925 283 r \$0-gain-1-s;
#X obj 946 249 r \$0-pan-1-s;
#X obj 1027 250 r \$0-pan-2-s;
#X obj 1105 252 r \$0-pan-3-s;
#X obj 1189 251 r \$0-pan-4-s;
#X obj 997 303 r \$0-gain-2-s;
#X obj 1075 280 r \$0-gain-3-s;
#X obj 1155 306 r \$0-gain-4-s;
#X obj 1105 466 r \$0-gain-a-s;
#X obj 1177 440 r \$0-gain-b-s;
#X obj 1180 601 *~ 100;
#X obj 1180 622 dbtorms~;
#X obj 1109 603 *~ 100;
#X obj 1109 624 dbtorms~;
#X text 310 198 -- -- -10;
#X text 310 246 -- -- -30;
#X text 310 275 -- -- -40;
#X text 310 297 -- -- ∞;
#X text 310 222 -- -- -20;
#X text 310 173 -- --;
#X text 354 174 0;
#X obj 319 180 vsl 15 128 0 127 0 0 \$0-gain-1-s \$0-gain-1-r 1 5 140
0 13 -262144 -1 -1 0 1;
#X text 463 197 -- -- -10;
#X text 463 245 -- -- -30;
#X text 463 274 -- -- -40;
#X text 463 296 -- -- ∞;
#X text 463 221 -- -- -20;
#X text 463 172 -- --;
#X text 507 173 0;
#X obj 471 180 vsl 15 128 0 127 0 0 \$0-gain-3-s \$0-gain-3-r 3 5 140
0 13 -262144 -1 -1 0 1;
#X text 617 197 -- -- -10;
#X text 617 245 -- -- -30;
#X text 617 274 -- -- -40;
#X text 617 296 -- -- ∞;
#X text 617 221 -- -- -20;
#X text 617 172 -- --;
#X text 661 173 0;
#X obj 626 180 vsl 15 128 0 127 0 0 \$0-gain-a-s \$0-gain-a-r A 5 140
0 13 -262144 -1 -1 0 1;
#X text 374 172 -- --;
#X text 374 197 -- --;
#X text 374 221 -- --;
#X text 374 245 -- --;
#X text 374 274 -- --;
#X text 374 298 -- --;
#X obj 383 180 vsl 15 128 0 127 0 0 \$0-gain-2-s \$0-gain-2-r 2 5 140
0 13 -262144 -1 -1 0 1;
#X text 527 172 -- --;
#X text 527 197 -- --;
#X text 527 221 -- --;
#X text 527 245 -- --;
#X text 527 274 -- --;
#X text 527 298 -- --;
#X obj 536 180 vsl 15 128 0 127 0 0 \$0-gain-4-s \$0-gain-4-r 4 5 140
0 13 -262144 -1 -1 0 1;
#X text 682 172 -- --;
#X text 682 197 -- --;
#X text 682 221 -- --;
#X text 682 245 -- --;
#X text 682 274 -- --;
#X text 682 298 -- --;
#X obj 691 180 vsl 15 128 0 127 0 0 \$0-gain-b-s \$0-gain-b-r B 5 140
0 13 -262144 -1 -1 0 1;
#X obj 465 138 cnv 5 5 5 empty \$0-instance-num 2 0 0 0 15 -228856
-66577 0;
#X text 463 102 Ch1;
#X text 547 102 Ch2;
#X text 631 102 Ch3;
#X text 706 101 Ch4;
#X connect 10 0 4 0;
#X connect 11 0 13 0;
#X connect 12 0 45 0;
#X connect 13 0 12 0;
#X connect 14 0 9 0;
#X connect 15 0 17 0;
#X connect 16 0 43 0;
#X connect 17 0 16 0;
#X connect 18 0 10 0;
#X connect 18 1 14 0;
#X connect 19 0 10 0;
#X connect 19 1 14 0;
#X connect 20 0 10 0;
#X connect 20 1 14 0;
#X connect 21 0 10 0;
#X connect 21 1 14 0;
#X connect 22 0 18 0;
#X connect 23 0 19 0;
#X connect 24 0 20 0;
#X connect 25 0 21 0;
#X connect 26 0 10 0;
#X connect 27 0 14 0;
#X connect 33 0 18 1;
#X connect 34 0 18 2;
#X connect 35 0 19 2;
#X connect 36 0 20 2;
#X connect 37 0 21 2;
#X connect 38 0 19 1;
#X connect 39 0 20 1;
#X connect 40 0 21 1;
#X connect 41 0 11 0;
#X connect 42 0 15 0;
#X connect 43 0 44 0;
#X connect 44 0 14 1;
#X connect 45 0 46 0;
#X connect 46 0 10 1;
#X coords 0 -1 1 1 430 320 1 300 100;
