#N canvas 10 56 1353 676 10;
#X declare -lib moonlib;
#X obj 530 109 cnv 5 5 5 empty \$0-instance-num 0 0 0 0 12 -262144
-66577 0;
#X obj 301 103 cnv 15 428 314 empty empty SUB_MIXER_3202 10 35 0 15
-228856 -66577 0;
#X text 304 103 A;
#X text 383 102 B;
#X obj 1094 676 outlet~;
#X obj 315 332 moonlib/mknob 25 100 0 127 0 0 \$0-pan-1-s \$0-pan-1-r
A←_→B -4 30 0 12 -1 -262144 -1 0 1;
#X obj 379 332 moonlib/mknob 25 100 0 127 0 0 \$0-pan-2-s \$0-pan-2-r
A←_→B -4 30 0 12 -1 -262144 -1 0 1;
#X obj 467 332 moonlib/mknob 25 100 0 127 0 0 \$0-pan-3-s \$0-pan-3-r
A←_→B -4 30 0 12 -1 -262144 -1 0 1;
#X obj 533 332 moonlib/mknob 25 100 0 127 0 0 \$0-pan-4-s \$0-pan-4-r
A←_→B -4 30 0 12 -1 -262144 -1 0 1;
#X obj 1164 676 outlet~;
#X obj 1094 653 *~;
#X obj 1108 500 / 127;
#X obj 1109 578 line~;
#X obj 1109 554 pack 0 50;
#X obj 1165 651 *~;
#X obj 1179 498 / 127;
#X obj 1180 576 line~;
#X obj 1180 552 pack 0 50;
#X obj 892 380 ../other_patches/volumeandpan~, f 11;
#X obj 971 380 ../other_patches/volumeandpan~, f 11;
#X obj 1048 380 ../other_patches/volumeandpan~, f 11;
#X obj 1127 380 ../other_patches/volumeandpan~, f 11;
#X obj 892 350 inlet~;
#X obj 969 349 inlet~;
#X obj 1047 350 inlet~;
#X obj 1127 347 inlet~;
#X obj 785 351 inlet~;
#X obj 836 351 inlet~;
#X text 304 400 A;
#X text 716 400 B;
#X obj 34 652 declare -lib moonlib;
#X obj 618 169 cnv 15 102 160 empty empty empty 20 12 0 14 -33289 -66577
0;
#X obj 619 170 cnv 15 100 158 empty empty empty 20 12 0 14 -233017
-66577 0;
#X obj 925 283 r \$0-gain-1-s;
#X obj 946 249 r \$0-pan-1-s;
#X obj 1027 250 r \$0-pan-2-s;
#X obj 1105 252 r \$0-pan-3-s;
#X obj 1189 251 r \$0-pan-4-s;
#X obj 997 303 r \$0-gain-2-s;
#X obj 1075 280 r \$0-gain-3-s;
#X obj 1155 306 r \$0-gain-4-s;
#X obj 1105 466 r \$0-gain-a-s;
#X obj 1177 440 r \$0-gain-b-s;
#X obj 1180 601 *~ 100;
#X obj 1180 622 dbtorms~;
#X obj 1109 603 *~ 100;
#X obj 1109 624 dbtorms~;
#X text 310 198 -- -- -10;
#X text 310 246 -- -- -30;
#X text 310 275 -- -- -40;
#X text 310 297 -- -- ∞;
#X text 310 222 -- -- -20;
#X text 310 173 -- --;
#X text 354 174 0;
#X obj 319 180 vsl 15 128 0 127 0 0 \$0-gain-1-s \$0-gain-1-r 1 5 140
0 13 -262144 -1 -1 0 1;
#X text 463 197 -- -- -10;
#X text 463 245 -- -- -30;
#X text 463 274 -- -- -40;
#X text 463 296 -- -- ∞;
#X text 463 221 -- -- -20;
#X text 463 172 -- --;
#X text 507 173 0;
#X obj 471 180 vsl 15 128 0 127 0 0 \$0-gain-3-s \$0-gain-3-r 3 5 140
0 13 -262144 -1 -1 0 1;
#X text 617 197 -- -- -10;
#X text 617 245 -- -- -30;
#X text 617 274 -- -- -40;
#X text 617 296 -- -- ∞;
#X text 617 221 -- -- -20;
#X text 617 172 -- --;
#X text 661 173 0;
#X obj 626 180 vsl 15 128 0 127 0 0 \$0-gain-a-s \$0-gain-a-r A 5 140
0 13 -262144 -1 -1 0 1;
#X text 374 172 -- --;
#X text 374 197 -- --;
#X text 374 221 -- --;
#X text 374 245 -- --;
#X text 374 274 -- --;
#X text 374 298 -- --;
#X obj 383 180 vsl 15 128 0 127 0 0 \$0-gain-2-s \$0-gain-2-r 2 5 140
0 13 -262144 -1 -1 0 1;
#X text 527 172 -- --;
#X text 527 197 -- --;
#X text 527 221 -- --;
#X text 527 245 -- --;
#X text 527 274 -- --;
#X text 527 298 -- --;
#X obj 536 180 vsl 15 128 0 127 0 0 \$0-gain-4-s \$0-gain-4-r 4 5 140
0 13 -262144 -1 -1 0 1;
#X text 682 172 -- --;
#X text 682 197 -- --;
#X text 682 221 -- --;
#X text 682 245 -- --;
#X text 682 274 -- --;
#X text 682 298 -- --;
#X obj 691 180 vsl 15 128 0 127 0 0 \$0-gain-b-s \$0-gain-b-r B 5 140
0 13 -262144 -1 -1 0 1;
#X obj 465 138 cnv 5 5 5 empty \$0-instance-num 0 0 0 0 15 -228856
-66577 0;
#X text 463 102 Ch1;
#X text 547 102 Ch2;
#X text 631 102 Ch3;
#X text 706 101 Ch4;
#N canvas 332 25 948 644 state-saving-multiple-instances 0;
#X obj 138 29 loadbang;
#X obj 729 407 textfile;
#X msg 703 331 rewind;
#X msg 660 331 bang;
#X obj 42 771 textfile;
#X obj 660 292 t b b;
#X obj 56 660 f;
#X obj -16 481 t b b b;
#X msg 119 660 clear;
#X obj 216 153 outlet;
#X obj 170 90 f \$1;
#X obj 170 126 t f f f;
#X obj 138 62 t b b;
#X obj -16 458 bng 15 250 50 0 empty empty empty 17 7 0 10 -262144
-1 -1;
#X obj -15 314 r SAVE-S;
#X obj 222 37 r \$0-reload!;
#X text 319 40 RETURN TO PREVIOUS VALUE AFTER USING MORPH-SEQ module
;
#X text 56 247 WRITE side;
#X text 738 235 READ side;
#X text 375 751 i.e. "write statesave/\$1-\$2-PATCH_NAME-ss.txt";
#X text 380 736 <-----rename to match name of Pd patch;
#X text 1049 385 i.e. "write statesave/\$1-\$2-PATCH_NAME-ss.txt";
#X text 1051 372 <-----rename to match name of Pd patch;
#X text 908 567 <-----rename to match receive symbol of each GUI element
;
#X text 876 617 Keep these parameters in the same order on the WRITE
and READ sides;
#X msg 196 465 set \$1 \$2 \$3 \$4 \$5 \$6 \$7 \$8 \$9 \$10;
#X text 869 598 <----- one "f" for each parameter;
#X obj 713 599 unpack f f f f f f f f f f;
#X obj 200 292 f;
#X text 300 401 <----- one "$N" for each parameter;
#X obj 200 358 pack f f f f f f f f f f;
#X obj 299 84 r \$0-gain-1-s;
#X obj 378 197 r \$0-pan-1-s;
#X obj 500 311 r \$0-gain-a-s;
#X obj 315 110 r \$0-gain-2-s;
#X obj 337 138 r \$0-gain-3-s;
#X obj 351 167 r \$0-gain-4-s;
#X obj 415 232 r \$0-pan-2-s;
#X obj 435 258 r \$0-pan-3-s;
#X obj 467 283 r \$0-pan-4-s;
#X obj 537 336 r \$0-gain-b-s;
#X obj 612 691 s \$0-gain-1-r;
#X obj 787 749 s \$0-pan-1-r;
#X obj 1113 749 s \$0-gain-a-r;
#X obj 1135 872 s \$0-gain-b-r;
#X obj 693 869 s \$0-gain-2-r;
#X obj 725 997 s \$0-gain-3-r;
#X obj 772 1131 s \$0-gain-4-r;
#X obj 817 845 s \$0-pan-2-r;
#X obj 886 979 s \$0-pan-3-r;
#X obj 973 1134 s \$0-pan-4-r;
#X msg 729 374 read statesave/\$1-\$2-sub-mixer-ss.txt;
#X msg 55 731 write statesave/\$1-\$2-sub-mixer-ss.txt;
#X connect 0 0 12 0;
#X connect 1 0 27 0;
#X connect 2 0 1 0;
#X connect 3 0 1 0;
#X connect 5 0 3 0;
#X connect 5 1 2 0;
#X connect 6 0 52 0;
#X connect 7 0 6 0;
#X connect 7 1 28 0;
#X connect 7 2 8 0;
#X connect 8 0 4 0;
#X connect 10 0 11 0;
#X connect 11 0 6 1;
#X connect 11 1 51 0;
#X connect 11 2 9 0;
#X connect 12 0 5 0;
#X connect 12 1 10 0;
#X connect 13 0 7 0;
#X connect 14 0 13 0;
#X connect 15 0 12 0;
#X connect 25 0 4 0;
#X connect 27 0 41 0;
#X connect 27 1 45 0;
#X connect 27 2 46 0;
#X connect 27 3 47 0;
#X connect 27 4 42 0;
#X connect 27 5 48 0;
#X connect 27 6 49 0;
#X connect 27 7 50 0;
#X connect 27 8 43 0;
#X connect 27 9 44 0;
#X connect 28 0 30 0;
#X connect 30 0 25 0;
#X connect 31 0 28 1;
#X connect 32 0 30 4;
#X connect 33 0 30 8;
#X connect 34 0 30 1;
#X connect 35 0 30 2;
#X connect 36 0 30 3;
#X connect 37 0 30 5;
#X connect 38 0 30 6;
#X connect 39 0 30 7;
#X connect 40 0 30 9;
#X connect 51 0 1 0;
#X connect 52 0 4 0;
#X restore 43 815 pd state-saving-multiple-instances;
#X obj 43 921 s \$0-instance-num;
#X obj 43 873 makefilename %d;
#X msg 43 898 label \$1;
#N canvas 140 82 1140 657 state-saving-via-preset-manager-module 0
;
#X obj 751 323 textfile;
#X msg 687 272 rewind;
#X msg 644 272 bang;
#X obj 109 816 textfile;
#X obj 644 233 t b b;
#X obj 107 334 f;
#X obj 120 557 f;
#X obj 53 452 t b b b;
#X msg 160 714 clear;
#X obj 107 156 delay 5;
#X obj 53 507 delay 10;
#X msg 53 292 bang;
#X obj 53 126 r STORE-S!;
#X obj 751 224 f;
#X obj 724 188 t b b;
#X obj 724 145 t b f;
#X obj 796 242 f \$1;
#X obj 751 269 pack f f;
#X obj 796 192 loadbang;
#X obj 120 587 pack f f;
#X obj 165 540 loadbang;
#X obj 165 562 f \$1;
#X obj 724 122 r preset-manager-scan;
#X obj 135 518 r preset-manager-store-slot;
#X text 1027 297 <-----rename to match name of Pd patch;
#X text 1059 317 i.e. "read statesave/\$1-\$2-PATCH_NAME-ss.txt";
#X text 498 759 i.e. "write statesave/\$1-\$2-PATCH_NAME-ss.txt";
#X text 453 740 <-----rename to match name of Pd patch;
#X text 907 374 <----- one "f" for each parameter;
#X text 207 443 <----- one "$N" for each parameter;
#X text 126 52 WRITE side;
#X text 727 44 READ side;
#X obj 107 400 pack f f f f f f f f f f;
#X msg 107 468 set \$1 \$2 \$3 \$4 \$5 \$6 \$7 \$8 \$9 \$10;
#X obj 751 375 unpack f f f f f f f f f f;
#N canvas 0 25 1069 747 morph-parameters 0;
#X obj 176 94 inlet;
#X obj 176 236 pack f f;
#X obj 176 261 line;
#X obj 209 117 r preset-manager-morph-s;
#X msg 72 244 stop;
#X obj 72 214 r STOP-MORPH!;
#X obj 209 206 spigot;
#X obj 398 137 t f f;
#X obj 455 154 == 0;
#X obj 221 176 f;
#X floatatom 455 222 5 0 0 0 - - -;
#X obj 398 159 t b f;
#X floatatom 425 192 5 0 0 0 - - -;
#X obj 209 139 t f f;
#X obj 398 102 r parameters-s;
#X obj 176 288 outlet;
#X connect 0 0 1 0;
#X connect 1 0 2 0;
#X connect 2 0 15 0;
#X connect 3 0 13 0;
#X connect 4 0 2 0;
#X connect 5 0 4 0;
#X connect 6 0 1 1;
#X connect 7 0 11 0;
#X connect 7 1 8 0;
#X connect 8 0 10 0;
#X connect 9 0 6 0;
#X connect 10 0 1 1;
#X connect 11 0 9 0;
#X connect 11 1 12 0;
#X connect 12 0 6 1;
#X connect 13 0 6 0;
#X connect 13 1 9 1;
#X connect 14 0 7 0;
#X restore 623 487 pd morph-parameters;
#N canvas 0 25 1069 747 morph-parameters 0;
#X obj 176 94 inlet;
#X obj 176 236 pack f f;
#X obj 176 261 line;
#X obj 209 117 r preset-manager-morph-s;
#X msg 72 244 stop;
#X obj 72 214 r STOP-MORPH!;
#X obj 209 206 spigot;
#X obj 398 137 t f f;
#X obj 455 154 == 0;
#X obj 221 176 f;
#X floatatom 455 222 5 0 0 0 - - -;
#X obj 398 159 t b f;
#X floatatom 425 192 5 0 0 0 - - -;
#X obj 209 139 t f f;
#X obj 398 102 r parameters-s;
#X obj 176 288 outlet;
#X connect 0 0 1 0;
#X connect 1 0 2 0;
#X connect 2 0 15 0;
#X connect 3 0 13 0;
#X connect 4 0 2 0;
#X connect 5 0 4 0;
#X connect 6 0 1 1;
#X connect 7 0 11 0;
#X connect 7 1 8 0;
#X connect 8 0 10 0;
#X connect 9 0 6 0;
#X connect 10 0 1 1;
#X connect 11 0 9 0;
#X connect 11 1 12 0;
#X connect 12 0 6 1;
#X connect 13 0 6 0;
#X connect 13 1 9 1;
#X connect 14 0 7 0;
#X restore 728 623 pd morph-parameters;
#N canvas 0 25 1069 747 morph-parameters 0;
#X obj 176 94 inlet;
#X obj 176 236 pack f f;
#X obj 176 261 line;
#X obj 209 117 r preset-manager-morph-s;
#X msg 72 244 stop;
#X obj 72 214 r STOP-MORPH!;
#X obj 209 206 spigot;
#X obj 398 137 t f f;
#X obj 455 154 == 0;
#X obj 221 176 f;
#X floatatom 455 222 5 0 0 0 - - -;
#X obj 398 159 t b f;
#X floatatom 425 192 5 0 0 0 - - -;
#X obj 209 139 t f f;
#X obj 398 102 r parameters-s;
#X obj 176 288 outlet;
#X connect 0 0 1 0;
#X connect 1 0 2 0;
#X connect 2 0 15 0;
#X connect 3 0 13 0;
#X connect 4 0 2 0;
#X connect 5 0 4 0;
#X connect 6 0 1 1;
#X connect 7 0 11 0;
#X connect 7 1 8 0;
#X connect 8 0 10 0;
#X connect 9 0 6 0;
#X connect 10 0 1 1;
#X connect 11 0 9 0;
#X connect 11 1 12 0;
#X connect 12 0 6 1;
#X connect 13 0 6 0;
#X connect 13 1 9 1;
#X connect 14 0 7 0;
#X restore 760 738 pd morph-parameters;
#N canvas 0 25 1069 747 morph-parameters 0;
#X obj 176 94 inlet;
#X obj 176 236 pack f f;
#X obj 176 261 line;
#X obj 209 117 r preset-manager-morph-s;
#X msg 72 244 stop;
#X obj 72 214 r STOP-MORPH!;
#X obj 209 206 spigot;
#X obj 398 137 t f f;
#X obj 455 154 == 0;
#X obj 221 176 f;
#X floatatom 455 222 5 0 0 0 - - -;
#X obj 398 159 t b f;
#X floatatom 425 192 5 0 0 0 - - -;
#X obj 209 139 t f f;
#X obj 398 102 r parameters-s;
#X obj 176 288 outlet;
#X connect 0 0 1 0;
#X connect 1 0 2 0;
#X connect 2 0 15 0;
#X connect 3 0 13 0;
#X connect 4 0 2 0;
#X connect 5 0 4 0;
#X connect 6 0 1 1;
#X connect 7 0 11 0;
#X connect 7 1 8 0;
#X connect 8 0 10 0;
#X connect 9 0 6 0;
#X connect 10 0 1 1;
#X connect 11 0 9 0;
#X connect 11 1 12 0;
#X connect 12 0 6 1;
#X connect 13 0 6 0;
#X connect 13 1 9 1;
#X connect 14 0 7 0;
#X restore 809 884 pd morph-parameters;
#N canvas 0 25 1069 747 morph-parameters 0;
#X obj 176 94 inlet;
#X obj 176 236 pack f f;
#X obj 176 261 line;
#X obj 209 117 r preset-manager-morph-s;
#X msg 72 244 stop;
#X obj 72 214 r STOP-MORPH!;
#X obj 209 206 spigot;
#X obj 398 137 t f f;
#X obj 455 154 == 0;
#X obj 221 176 f;
#X floatatom 455 222 5 0 0 0 - - -;
#X obj 398 159 t b f;
#X floatatom 425 192 5 0 0 0 - - -;
#X obj 209 139 t f f;
#X obj 398 102 r parameters-s;
#X obj 176 288 outlet;
#X connect 0 0 1 0;
#X connect 1 0 2 0;
#X connect 2 0 15 0;
#X connect 3 0 13 0;
#X connect 4 0 2 0;
#X connect 5 0 4 0;
#X connect 6 0 1 1;
#X connect 7 0 11 0;
#X connect 7 1 8 0;
#X connect 8 0 10 0;
#X connect 9 0 6 0;
#X connect 10 0 1 1;
#X connect 11 0 9 0;
#X connect 11 1 12 0;
#X connect 12 0 6 1;
#X connect 13 0 6 0;
#X connect 13 1 9 1;
#X connect 14 0 7 0;
#X restore 907 498 pd morph-parameters;
#N canvas 0 25 1069 747 morph-parameters 0;
#X obj 176 94 inlet;
#X obj 176 236 pack f f;
#X obj 176 261 line;
#X obj 209 117 r preset-manager-morph-s;
#X msg 72 244 stop;
#X obj 72 214 r STOP-MORPH!;
#X obj 209 206 spigot;
#X obj 398 137 t f f;
#X obj 455 154 == 0;
#X obj 221 176 f;
#X floatatom 455 222 5 0 0 0 - - -;
#X obj 398 159 t b f;
#X floatatom 425 192 5 0 0 0 - - -;
#X obj 209 139 t f f;
#X obj 398 102 r parameters-s;
#X obj 176 288 outlet;
#X connect 0 0 1 0;
#X connect 1 0 2 0;
#X connect 2 0 15 0;
#X connect 3 0 13 0;
#X connect 4 0 2 0;
#X connect 5 0 4 0;
#X connect 6 0 1 1;
#X connect 7 0 11 0;
#X connect 7 1 8 0;
#X connect 8 0 10 0;
#X connect 9 0 6 0;
#X connect 10 0 1 1;
#X connect 11 0 9 0;
#X connect 11 1 12 0;
#X connect 12 0 6 1;
#X connect 13 0 6 0;
#X connect 13 1 9 1;
#X connect 14 0 7 0;
#X restore 933 620 pd morph-parameters;
#N canvas 0 25 1069 747 morph-parameters 0;
#X obj 176 94 inlet;
#X obj 176 236 pack f f;
#X obj 176 261 line;
#X obj 209 117 r preset-manager-morph-s;
#X msg 72 244 stop;
#X obj 72 214 r STOP-MORPH!;
#X obj 209 206 spigot;
#X obj 398 137 t f f;
#X obj 455 154 == 0;
#X obj 221 176 f;
#X floatatom 455 222 5 0 0 0 - - -;
#X obj 398 159 t b f;
#X floatatom 425 192 5 0 0 0 - - -;
#X obj 209 139 t f f;
#X obj 398 102 r parameters-s;
#X obj 176 288 outlet;
#X connect 0 0 1 0;
#X connect 1 0 2 0;
#X connect 2 0 15 0;
#X connect 3 0 13 0;
#X connect 4 0 2 0;
#X connect 5 0 4 0;
#X connect 6 0 1 1;
#X connect 7 0 11 0;
#X connect 7 1 8 0;
#X connect 8 0 10 0;
#X connect 9 0 6 0;
#X connect 10 0 1 1;
#X connect 11 0 9 0;
#X connect 11 1 12 0;
#X connect 12 0 6 1;
#X connect 13 0 6 0;
#X connect 13 1 9 1;
#X connect 14 0 7 0;
#X restore 959 749 pd morph-parameters;
#N canvas 0 25 1069 747 morph-parameters 0;
#X obj 176 94 inlet;
#X obj 176 236 pack f f;
#X obj 176 261 line;
#X obj 209 117 r preset-manager-morph-s;
#X msg 72 244 stop;
#X obj 72 214 r STOP-MORPH!;
#X obj 209 206 spigot;
#X obj 398 137 t f f;
#X obj 455 154 == 0;
#X obj 221 176 f;
#X floatatom 455 222 5 0 0 0 - - -;
#X obj 398 159 t b f;
#X floatatom 425 192 5 0 0 0 - - -;
#X obj 209 139 t f f;
#X obj 398 102 r parameters-s;
#X obj 176 288 outlet;
#X connect 0 0 1 0;
#X connect 1 0 2 0;
#X connect 2 0 15 0;
#X connect 3 0 13 0;
#X connect 4 0 2 0;
#X connect 5 0 4 0;
#X connect 6 0 1 1;
#X connect 7 0 11 0;
#X connect 7 1 8 0;
#X connect 8 0 10 0;
#X connect 9 0 6 0;
#X connect 10 0 1 1;
#X connect 11 0 9 0;
#X connect 11 1 12 0;
#X connect 12 0 6 1;
#X connect 13 0 6 0;
#X connect 13 1 9 1;
#X connect 14 0 7 0;
#X restore 1008 878 pd morph-parameters;
#X obj 206 126 r \$0-gain-1-s;
#X obj 285 239 r \$0-pan-1-s;
#X obj 407 353 r \$0-gain-a-s;
#X obj 222 152 r \$0-gain-2-s;
#X obj 244 180 r \$0-gain-3-s;
#X obj 258 209 r \$0-gain-4-s;
#X obj 322 274 r \$0-pan-2-s;
#X obj 342 300 r \$0-pan-3-s;
#X obj 374 325 r \$0-pan-4-s;
#X obj 444 378 r \$0-gain-b-s;
#X msg 159 741 write statesave/\$1-\$2-sub-mixer-ss.txt;
#X msg 751 298 read statesave/\$1-\$2-sub-mixer-ss.txt;
#X obj 621 509 s \$0-gain-1-r;
#X obj 911 525 s \$0-pan-1-s;
#X obj 1151 525 s \$0-gain-a-s;
#X obj 1173 648 s \$0-gain-b-s;
#N canvas 0 25 1069 747 morph-parameters 0;
#X obj 176 94 inlet;
#X obj 176 236 pack f f;
#X obj 176 261 line;
#X obj 209 117 r preset-manager-morph-s;
#X msg 72 244 stop;
#X obj 72 214 r STOP-MORPH!;
#X obj 209 206 spigot;
#X obj 398 137 t f f;
#X obj 455 154 == 0;
#X obj 221 176 f;
#X floatatom 455 222 5 0 0 0 - - -;
#X obj 398 159 t b f;
#X floatatom 425 192 5 0 0 0 - - -;
#X obj 209 139 t f f;
#X obj 398 102 r parameters-s;
#X obj 176 288 outlet;
#X connect 0 0 1 0;
#X connect 1 0 2 0;
#X connect 2 0 15 0;
#X connect 3 0 13 0;
#X connect 4 0 2 0;
#X connect 5 0 4 0;
#X connect 6 0 1 1;
#X connect 7 0 11 0;
#X connect 7 1 8 0;
#X connect 8 0 10 0;
#X connect 9 0 6 0;
#X connect 10 0 1 1;
#X connect 11 0 9 0;
#X connect 11 1 12 0;
#X connect 12 0 6 1;
#X connect 13 0 6 0;
#X connect 13 1 9 1;
#X connect 14 0 7 0;
#X restore 1143 491 pd morph-parameters;
#N canvas 0 25 1069 747 morph-parameters 0;
#X obj 176 94 inlet;
#X obj 176 236 pack f f;
#X obj 176 261 line;
#X obj 209 117 r preset-manager-morph-s;
#X msg 72 244 stop;
#X obj 72 214 r STOP-MORPH!;
#X obj 209 206 spigot;
#X obj 398 137 t f f;
#X obj 455 154 == 0;
#X obj 221 176 f;
#X floatatom 455 222 5 0 0 0 - - -;
#X obj 398 159 t b f;
#X floatatom 425 192 5 0 0 0 - - -;
#X obj 209 139 t f f;
#X obj 398 102 r parameters-s;
#X obj 176 288 outlet;
#X connect 0 0 1 0;
#X connect 1 0 2 0;
#X connect 2 0 15 0;
#X connect 3 0 13 0;
#X connect 4 0 2 0;
#X connect 5 0 4 0;
#X connect 6 0 1 1;
#X connect 7 0 11 0;
#X connect 7 1 8 0;
#X connect 8 0 10 0;
#X connect 9 0 6 0;
#X connect 10 0 1 1;
#X connect 11 0 9 0;
#X connect 11 1 12 0;
#X connect 12 0 6 1;
#X connect 13 0 6 0;
#X connect 13 1 9 1;
#X connect 14 0 7 0;
#X restore 1172 613 pd morph-parameters;
#X obj 731 645 s \$0-gain-2-r;
#X obj 763 773 s \$0-gain-3-r;
#X obj 810 907 s \$0-gain-4-r;
#X obj 933 648 s \$0-pan-2-s;
#X obj 965 776 s \$0-pan-3-s;
#X obj 1012 910 s \$0-pan-4-s;
#X connect 0 0 34 0;
#X connect 1 0 0 0;
#X connect 2 0 0 0;
#X connect 4 0 2 0;
#X connect 4 1 1 0;
#X connect 5 0 32 0;
#X connect 6 0 19 0;
#X connect 7 0 10 0;
#X connect 7 1 9 0;
#X connect 7 2 8 0;
#X connect 8 0 3 0;
#X connect 9 0 5 0;
#X connect 10 0 6 0;
#X connect 11 0 7 0;
#X connect 12 0 11 0;
#X connect 13 0 17 0;
#X connect 14 0 4 0;
#X connect 14 1 13 0;
#X connect 15 0 14 0;
#X connect 15 1 13 1;
#X connect 16 0 17 1;
#X connect 17 0 54 0;
#X connect 18 0 16 0;
#X connect 19 0 53 0;
#X connect 20 0 21 0;
#X connect 21 0 19 1;
#X connect 22 0 15 0;
#X connect 23 0 6 1;
#X connect 32 0 33 0;
#X connect 33 0 3 0;
#X connect 34 0 35 0;
#X connect 34 1 36 0;
#X connect 34 2 37 0;
#X connect 34 3 38 0;
#X connect 34 4 39 0;
#X connect 34 5 40 0;
#X connect 34 6 41 0;
#X connect 34 7 42 0;
#X connect 34 8 59 0;
#X connect 34 9 60 0;
#X connect 35 0 55 0;
#X connect 36 0 61 0;
#X connect 37 0 62 0;
#X connect 38 0 63 0;
#X connect 39 0 56 0;
#X connect 40 0 64 0;
#X connect 41 0 65 0;
#X connect 42 0 66 0;
#X connect 43 0 5 1;
#X connect 44 0 32 4;
#X connect 45 0 32 8;
#X connect 46 0 32 1;
#X connect 47 0 32 2;
#X connect 48 0 32 3;
#X connect 49 0 32 5;
#X connect 50 0 32 6;
#X connect 51 0 32 7;
#X connect 52 0 32 9;
#X connect 53 0 3 0;
#X connect 54 0 0 0;
#X connect 59 0 57 0;
#X connect 60 0 58 0;
#X restore 44 787 pd state-saving-via-preset-manager-module;
#N canvas 91 261 798 399 parameter-nudging-system 0;
#X text 409 490 <-----you will need one structure like this for each
parameter;
#X text 382 552 <-----rename to match receive symbol of each GUI element
;
#X obj 35 26 r \$0-gain-1-s;
#X obj 22 159 r \$0-pan-1-s;
#X obj 139 334 r \$0-gain-a-s;
#X obj 34 110 s \$0-gain-1-r;
#X obj 33 81 clip 0 127;
#N canvas 639 226 484 497 nudge-attenuators 0;
#X obj 124 234 random;
#X obj 232 335 f;
#X obj 232 368 +;
#X obj 257 166 random 2;
#X obj 124 275 t f f;
#X obj 124 351 t b f;
#X obj 124 297 *;
#X obj 257 188 sel 0 1;
#X msg 257 280 -1;
#X msg 335 280 1;
#X obj 124 149 t b b b;
#X obj 124 71 r NUDGE!;
#X obj 157 193 r NUDGE-RANGE;
#X obj 247 308 inlet;
#X obj 232 397 outlet;
#X obj 124 93 spigot;
#X obj 201 76 r attenuators2-s;
#X connect 0 0 4 0;
#X connect 1 0 2 0;
#X connect 2 0 14 0;
#X connect 3 0 7 0;
#X connect 4 0 6 0;
#X connect 5 0 2 0;
#X connect 5 1 2 1;
#X connect 6 0 5 0;
#X connect 7 0 8 0;
#X connect 7 1 9 0;
#X connect 8 0 6 1;
#X connect 9 0 6 1;
#X connect 10 0 0 0;
#X connect 10 1 1 0;
#X connect 10 2 3 0;
#X connect 11 0 15 0;
#X connect 12 0 0 1;
#X connect 13 0 1 1;
#X connect 15 0 10 0;
#X connect 16 0 15 1;
#X restore 33 59 pd nudge-attenuators;
#X obj 172 79 clip 0 127;
#N canvas 639 226 484 497 nudge-attenuators 0;
#X obj 124 234 random;
#X obj 232 335 f;
#X obj 232 368 +;
#X obj 257 166 random 2;
#X obj 124 275 t f f;
#X obj 124 351 t b f;
#X obj 124 297 *;
#X obj 257 188 sel 0 1;
#X msg 257 280 -1;
#X msg 335 280 1;
#X obj 124 149 t b b b;
#X obj 124 71 r NUDGE!;
#X obj 157 193 r NUDGE-RANGE;
#X obj 247 308 inlet;
#X obj 232 397 outlet;
#X obj 124 93 spigot;
#X obj 201 76 r attenuators2-s;
#X connect 0 0 4 0;
#X connect 1 0 2 0;
#X connect 2 0 14 0;
#X connect 3 0 7 0;
#X connect 4 0 6 0;
#X connect 5 0 2 0;
#X connect 5 1 2 1;
#X connect 6 0 5 0;
#X connect 7 0 8 0;
#X connect 7 1 9 0;
#X connect 8 0 6 1;
#X connect 9 0 6 1;
#X connect 10 0 0 0;
#X connect 10 1 1 0;
#X connect 10 2 3 0;
#X connect 11 0 15 0;
#X connect 12 0 0 1;
#X connect 13 0 1 1;
#X connect 15 0 10 0;
#X connect 16 0 15 1;
#X restore 172 57 pd nudge-attenuators;
#X obj 311 79 clip 0 127;
#N canvas 639 226 484 497 nudge-attenuators 0;
#X obj 124 234 random;
#X obj 232 335 f;
#X obj 232 368 +;
#X obj 257 166 random 2;
#X obj 124 275 t f f;
#X obj 124 351 t b f;
#X obj 124 297 *;
#X obj 257 188 sel 0 1;
#X msg 257 280 -1;
#X msg 335 280 1;
#X obj 124 149 t b b b;
#X obj 124 71 r NUDGE!;
#X obj 157 193 r NUDGE-RANGE;
#X obj 247 308 inlet;
#X obj 232 397 outlet;
#X obj 124 93 spigot;
#X obj 201 76 r attenuators2-s;
#X connect 0 0 4 0;
#X connect 1 0 2 0;
#X connect 2 0 14 0;
#X connect 3 0 7 0;
#X connect 4 0 6 0;
#X connect 5 0 2 0;
#X connect 5 1 2 1;
#X connect 6 0 5 0;
#X connect 7 0 8 0;
#X connect 7 1 9 0;
#X connect 8 0 6 1;
#X connect 9 0 6 1;
#X connect 10 0 0 0;
#X connect 10 1 1 0;
#X connect 10 2 3 0;
#X connect 11 0 15 0;
#X connect 12 0 0 1;
#X connect 13 0 1 1;
#X connect 15 0 10 0;
#X connect 16 0 15 1;
#X restore 311 57 pd nudge-attenuators;
#X obj 454 79 clip 0 127;
#N canvas 639 226 484 497 nudge-attenuators 0;
#X obj 124 234 random;
#X obj 232 335 f;
#X obj 232 368 +;
#X obj 257 166 random 2;
#X obj 124 275 t f f;
#X obj 124 351 t b f;
#X obj 124 297 *;
#X obj 257 188 sel 0 1;
#X msg 257 280 -1;
#X msg 335 280 1;
#X obj 124 149 t b b b;
#X obj 124 71 r NUDGE!;
#X obj 157 193 r NUDGE-RANGE;
#X obj 247 308 inlet;
#X obj 232 397 outlet;
#X obj 124 93 spigot;
#X obj 201 76 r attenuators2-s;
#X connect 0 0 4 0;
#X connect 1 0 2 0;
#X connect 2 0 14 0;
#X connect 3 0 7 0;
#X connect 4 0 6 0;
#X connect 5 0 2 0;
#X connect 5 1 2 1;
#X connect 6 0 5 0;
#X connect 7 0 8 0;
#X connect 7 1 9 0;
#X connect 8 0 6 1;
#X connect 9 0 6 1;
#X connect 10 0 0 0;
#X connect 10 1 1 0;
#X connect 10 2 3 0;
#X connect 11 0 15 0;
#X connect 12 0 0 1;
#X connect 13 0 1 1;
#X connect 15 0 10 0;
#X connect 16 0 15 1;
#X restore 454 57 pd nudge-attenuators;
#X obj 174 24 r \$0-gain-2-s;
#X obj 173 109 s \$0-gain-2-r;
#X obj 313 24 r \$0-gain-3-s;
#X obj 312 108 s \$0-gain-3-r;
#X obj 456 24 r \$0-gain-4-s;
#X obj 455 108 s \$0-gain-4-r;
#X obj 22 209 clip 0 127;
#N canvas 639 226 484 497 nudge-attenuators 0;
#X obj 124 234 random;
#X obj 232 335 f;
#X obj 232 368 +;
#X obj 257 166 random 2;
#X obj 124 275 t f f;
#X obj 124 351 t b f;
#X obj 124 297 *;
#X obj 257 188 sel 0 1;
#X msg 257 280 -1;
#X msg 335 280 1;
#X obj 124 149 t b b b;
#X obj 124 71 r NUDGE!;
#X obj 157 193 r NUDGE-RANGE;
#X obj 247 308 inlet;
#X obj 232 397 outlet;
#X obj 124 93 spigot;
#X obj 201 76 r attenuators2-s;
#X connect 0 0 4 0;
#X connect 1 0 2 0;
#X connect 2 0 14 0;
#X connect 3 0 7 0;
#X connect 4 0 6 0;
#X connect 5 0 2 0;
#X connect 5 1 2 1;
#X connect 6 0 5 0;
#X connect 7 0 8 0;
#X connect 7 1 9 0;
#X connect 8 0 6 1;
#X connect 9 0 6 1;
#X connect 10 0 0 0;
#X connect 10 1 1 0;
#X connect 10 2 3 0;
#X connect 11 0 15 0;
#X connect 12 0 0 1;
#X connect 13 0 1 1;
#X connect 15 0 10 0;
#X connect 16 0 15 1;
#X restore 22 187 pd nudge-attenuators;
#X obj 23 237 s \$0-pan-1-r;
#X obj 162 208 clip 0 127;
#N canvas 639 226 484 497 nudge-attenuators 0;
#X obj 124 234 random;
#X obj 232 335 f;
#X obj 232 368 +;
#X obj 257 166 random 2;
#X obj 124 275 t f f;
#X obj 124 351 t b f;
#X obj 124 297 *;
#X obj 257 188 sel 0 1;
#X msg 257 280 -1;
#X msg 335 280 1;
#X obj 124 149 t b b b;
#X obj 124 71 r NUDGE!;
#X obj 157 193 r NUDGE-RANGE;
#X obj 247 308 inlet;
#X obj 232 397 outlet;
#X obj 124 93 spigot;
#X obj 201 76 r attenuators2-s;
#X connect 0 0 4 0;
#X connect 1 0 2 0;
#X connect 2 0 14 0;
#X connect 3 0 7 0;
#X connect 4 0 6 0;
#X connect 5 0 2 0;
#X connect 5 1 2 1;
#X connect 6 0 5 0;
#X connect 7 0 8 0;
#X connect 7 1 9 0;
#X connect 8 0 6 1;
#X connect 9 0 6 1;
#X connect 10 0 0 0;
#X connect 10 1 1 0;
#X connect 10 2 3 0;
#X connect 11 0 15 0;
#X connect 12 0 0 1;
#X connect 13 0 1 1;
#X connect 15 0 10 0;
#X connect 16 0 15 1;
#X restore 162 186 pd nudge-attenuators;
#X obj 302 210 clip 0 127;
#N canvas 639 226 484 497 nudge-attenuators 0;
#X obj 124 234 random;
#X obj 232 335 f;
#X obj 232 368 +;
#X obj 257 166 random 2;
#X obj 124 275 t f f;
#X obj 124 351 t b f;
#X obj 124 297 *;
#X obj 257 188 sel 0 1;
#X msg 257 280 -1;
#X msg 335 280 1;
#X obj 124 149 t b b b;
#X obj 124 71 r NUDGE!;
#X obj 157 193 r NUDGE-RANGE;
#X obj 247 308 inlet;
#X obj 232 397 outlet;
#X obj 124 93 spigot;
#X obj 201 76 r attenuators2-s;
#X connect 0 0 4 0;
#X connect 1 0 2 0;
#X connect 2 0 14 0;
#X connect 3 0 7 0;
#X connect 4 0 6 0;
#X connect 5 0 2 0;
#X connect 5 1 2 1;
#X connect 6 0 5 0;
#X connect 7 0 8 0;
#X connect 7 1 9 0;
#X connect 8 0 6 1;
#X connect 9 0 6 1;
#X connect 10 0 0 0;
#X connect 10 1 1 0;
#X connect 10 2 3 0;
#X connect 11 0 15 0;
#X connect 12 0 0 1;
#X connect 13 0 1 1;
#X connect 15 0 10 0;
#X connect 16 0 15 1;
#X restore 302 188 pd nudge-attenuators;
#X obj 442 209 clip 0 127;
#N canvas 639 226 484 497 nudge-attenuators 0;
#X obj 124 234 random;
#X obj 232 335 f;
#X obj 232 368 +;
#X obj 257 166 random 2;
#X obj 124 275 t f f;
#X obj 124 351 t b f;
#X obj 124 297 *;
#X obj 257 188 sel 0 1;
#X msg 257 280 -1;
#X msg 335 280 1;
#X obj 124 149 t b b b;
#X obj 124 71 r NUDGE!;
#X obj 157 193 r NUDGE-RANGE;
#X obj 247 308 inlet;
#X obj 232 397 outlet;
#X obj 124 93 spigot;
#X obj 201 76 r attenuators2-s;
#X connect 0 0 4 0;
#X connect 1 0 2 0;
#X connect 2 0 14 0;
#X connect 3 0 7 0;
#X connect 4 0 6 0;
#X connect 5 0 2 0;
#X connect 5 1 2 1;
#X connect 6 0 5 0;
#X connect 7 0 8 0;
#X connect 7 1 9 0;
#X connect 8 0 6 1;
#X connect 9 0 6 1;
#X connect 10 0 0 0;
#X connect 10 1 1 0;
#X connect 10 2 3 0;
#X connect 11 0 15 0;
#X connect 12 0 0 1;
#X connect 13 0 1 1;
#X connect 15 0 10 0;
#X connect 16 0 15 1;
#X restore 442 187 pd nudge-attenuators;
#X obj 162 158 r \$0-pan-2-s;
#X obj 163 236 s \$0-pan-2-r;
#X obj 302 160 r \$0-pan-3-s;
#X obj 303 238 s \$0-pan-3-r;
#X obj 442 159 r \$0-pan-4-s;
#X obj 443 237 s \$0-pan-4-r;
#X obj 138 386 clip 0 127;
#N canvas 639 226 484 497 nudge-attenuators 0;
#X obj 124 234 random;
#X obj 232 335 f;
#X obj 232 368 +;
#X obj 257 166 random 2;
#X obj 124 275 t f f;
#X obj 124 351 t b f;
#X obj 124 297 *;
#X obj 257 188 sel 0 1;
#X msg 257 280 -1;
#X msg 335 280 1;
#X obj 124 149 t b b b;
#X obj 124 71 r NUDGE!;
#X obj 157 193 r NUDGE-RANGE;
#X obj 247 308 inlet;
#X obj 232 397 outlet;
#X obj 124 93 spigot;
#X obj 201 76 r attenuators2-s;
#X connect 0 0 4 0;
#X connect 1 0 2 0;
#X connect 2 0 14 0;
#X connect 3 0 7 0;
#X connect 4 0 6 0;
#X connect 5 0 2 0;
#X connect 5 1 2 1;
#X connect 6 0 5 0;
#X connect 7 0 8 0;
#X connect 7 1 9 0;
#X connect 8 0 6 1;
#X connect 9 0 6 1;
#X connect 10 0 0 0;
#X connect 10 1 1 0;
#X connect 10 2 3 0;
#X connect 11 0 15 0;
#X connect 12 0 0 1;
#X connect 13 0 1 1;
#X connect 15 0 10 0;
#X connect 16 0 15 1;
#X restore 138 364 pd nudge-attenuators;
#X obj 284 384 clip 0 127;
#N canvas 639 226 484 497 nudge-attenuators 0;
#X obj 124 234 random;
#X obj 232 335 f;
#X obj 232 368 +;
#X obj 257 166 random 2;
#X obj 124 275 t f f;
#X obj 124 351 t b f;
#X obj 124 297 *;
#X obj 257 188 sel 0 1;
#X msg 257 280 -1;
#X msg 335 280 1;
#X obj 124 149 t b b b;
#X obj 124 71 r NUDGE!;
#X obj 157 193 r NUDGE-RANGE;
#X obj 247 308 inlet;
#X obj 232 397 outlet;
#X obj 124 93 spigot;
#X obj 201 76 r attenuators2-s;
#X connect 0 0 4 0;
#X connect 1 0 2 0;
#X connect 2 0 14 0;
#X connect 3 0 7 0;
#X connect 4 0 6 0;
#X connect 5 0 2 0;
#X connect 5 1 2 1;
#X connect 6 0 5 0;
#X connect 7 0 8 0;
#X connect 7 1 9 0;
#X connect 8 0 6 1;
#X connect 9 0 6 1;
#X connect 10 0 0 0;
#X connect 10 1 1 0;
#X connect 10 2 3 0;
#X connect 11 0 15 0;
#X connect 12 0 0 1;
#X connect 13 0 1 1;
#X connect 15 0 10 0;
#X connect 16 0 15 1;
#X restore 284 362 pd nudge-attenuators;
#X obj 139 414 s \$0-gain-a-r;
#X obj 286 332 r \$0-gain-b-s;
#X obj 285 412 s \$0-pan-b-r;
#X connect 2 0 7 0;
#X connect 3 0 21 0;
#X connect 4 0 36 0;
#X connect 6 0 5 0;
#X connect 7 0 6 0;
#X connect 8 0 15 0;
#X connect 9 0 8 0;
#X connect 10 0 17 0;
#X connect 11 0 10 0;
#X connect 12 0 19 0;
#X connect 13 0 12 0;
#X connect 14 0 9 0;
#X connect 16 0 11 0;
#X connect 18 0 13 0;
#X connect 20 0 22 0;
#X connect 21 0 20 0;
#X connect 23 0 30 0;
#X connect 24 0 23 0;
#X connect 25 0 32 0;
#X connect 26 0 25 0;
#X connect 27 0 34 0;
#X connect 28 0 27 0;
#X connect 29 0 24 0;
#X connect 31 0 26 0;
#X connect 33 0 28 0;
#X connect 35 0 39 0;
#X connect 36 0 35 0;
#X connect 37 0 41 0;
#X connect 38 0 37 0;
#X connect 40 0 38 0;
#X restore 44 760 pd parameter-nudging-system;
#N canvas 0 25 1440 847 external-messages 0;
#X obj 185 327 spigot;
#X obj 224 278 tgl 15 0 empty empty empty 17 7 0 10 -262144 -1 -1 0
1;
#X obj 267 238 ==;
#X obj 282 214 f \$1;
#X obj 282 190 loadbang;
#X msg 185 202 \$1 \$2;
#X msg 185 156 symbol \$1;
#X obj 185 180 pack s f;
#X obj 185 62 unpack s f f;
#X symbolatom 185 94 10 0 0 0 - - -;
#X obj 224 298 t f f;
#X obj 257 327 s \$0-msg-spigot;
#X text 360 16 <----rename to match name of module;
#X text 306 61 <----SYMBOL (parameter name) FLOAT (parameter value)
FLOAT (instance number);
#X obj 185 14 r sub-mixer;
#X connect 1 0 10 0;
#X connect 2 0 1 0;
#X connect 3 0 2 1;
#X connect 4 0 3 0;
#X connect 5 0 0 0;
#X connect 6 0 7 0;
#X connect 7 0 5 0;
#X connect 8 0 9 0;
#X connect 8 1 7 1;
#X connect 8 2 2 0;
#X connect 9 0 6 0;
#X connect 10 0 0 1;
#X connect 10 1 11 0;
#X connect 14 0 8 0;
#X restore 46 733 pd external-messages;
#X text 17 684 STATE SAVING and EXTERNAL CONTROL STUFF;
#X text 40 704 Open each for details;
#X connect 10 0 4 0;
#X connect 11 0 13 0;
#X connect 12 0 45 0;
#X connect 13 0 12 0;
#X connect 14 0 9 0;
#X connect 15 0 17 0;
#X connect 16 0 43 0;
#X connect 17 0 16 0;
#X connect 18 0 10 0;
#X connect 18 1 14 0;
#X connect 19 0 10 0;
#X connect 19 1 14 0;
#X connect 20 0 10 0;
#X connect 20 1 14 0;
#X connect 21 0 10 0;
#X connect 21 1 14 0;
#X connect 22 0 18 0;
#X connect 23 0 19 0;
#X connect 24 0 20 0;
#X connect 25 0 21 0;
#X connect 26 0 10 0;
#X connect 27 0 14 0;
#X connect 33 0 18 1;
#X connect 34 0 18 2;
#X connect 35 0 19 2;
#X connect 36 0 20 2;
#X connect 37 0 21 2;
#X connect 38 0 19 1;
#X connect 39 0 20 1;
#X connect 40 0 21 1;
#X connect 41 0 11 0;
#X connect 42 0 15 0;
#X connect 43 0 44 0;
#X connect 44 0 14 1;
#X connect 45 0 46 0;
#X connect 46 0 10 1;
#X connect 97 0 99 0;
#X connect 99 0 100 0;
#X connect 100 0 98 0;
#X coords 0 -1 1 1 430 320 1 300 100;
