#N canvas 179 99 1261 713 10;
#X obj 292 261 cnv 5 5 5 empty empty SUB-MIXER 0 0 0 10 -262144 -66577
0;
#X obj 331 110 cnv 5 5 5 empty \$0-instance-num 0 0 0 0 12 -262144
-66577 0;
#X obj 314 626 outlet~;
#X obj 112 250 moonlib/mknob 25 100 0 127 0 0 empty empty empty -2
-6 0 8 -262144 -1 -1 0 1;
#X obj 143 250 moonlib/mknob 25 100 0 127 0 0 empty empty empty -2
-6 0 8 -262144 -1 -1 0 1;
#X obj 172 250 moonlib/mknob 25 100 0 127 0 0 empty empty empty -2
-6 0 8 -262144 -1 -1 0 1;
#X obj 118 110 vsl 15 128 0 127 0 0 empty empty empty 0 -9 0 10 -262144
-1 -1 0 1;
#X obj 149 110 vsl 15 128 0 127 0 0 empty empty empty 0 -9 0 10 -262144
-1 -1 0 1;
#X obj 178 110 vsl 15 128 0 127 0 0 empty empty empty 0 -9 0 10 -262144
-1 -1 0 1;
#X obj 207 110 vsl 15 128 0 127 0 0 empty empty empty 0 -9 0 10 -262144
-1 -1 0 1;
#X obj 271 110 vsl 15 128 0 127 0 0 empty empty empty 0 -9 0 10 -262144
-1 -1 0 1;
#X obj 298 110 vsl 15 128 0 127 0 0 empty empty empty 0 -9 0 10 -262144
-1 -1 0 1;
#X obj 201 250 moonlib/mknob 25 100 0 127 0 0 empty empty empty -2
-6 0 8 -262144 -1 -1 0 1;
#X obj 384 626 outlet~;
#X obj 314 603 *~;
#X obj 327 487 / 127;
#X obj 328 565 line~;
#X obj 328 541 pack 0 50;
#X obj 385 601 *~;
#X obj 398 485 / 127;
#X obj 399 563 line~;
#X obj 399 539 pack 0 50;
#X obj 111 367 ../other_patches/volumeandpan~, f 11;
#X obj 190 367 ../other_patches/volumeandpan~, f 11;
#X obj 267 367 ../other_patches/volumeandpan~, f 11;
#X obj 346 367 ../other_patches/volumeandpan~, f 11;
#X obj 111 337 inlet~;
#X obj 188 336 inlet~;
#X obj 266 337 inlet~;
#X obj 346 334 inlet~;
#X obj 4 338 inlet~;
#X obj 55 338 inlet~;
#X connect 3 0 22 2;
#X connect 4 0 23 2;
#X connect 5 0 24 2;
#X connect 6 0 22 1;
#X connect 7 0 23 1;
#X connect 8 0 24 1;
#X connect 9 0 25 1;
#X connect 10 0 15 0;
#X connect 11 0 19 0;
#X connect 12 0 25 2;
#X connect 14 0 2 0;
#X connect 15 0 17 0;
#X connect 16 0 14 1;
#X connect 17 0 16 0;
#X connect 18 0 13 0;
#X connect 19 0 21 0;
#X connect 20 0 18 1;
#X connect 21 0 20 0;
#X connect 22 0 14 0;
#X connect 22 1 18 0;
#X connect 23 0 14 0;
#X connect 23 1 18 0;
#X connect 24 0 14 0;
#X connect 24 1 18 0;
#X connect 25 0 14 0;
#X connect 25 1 18 0;
#X connect 26 0 22 0;
#X connect 27 0 23 0;
#X connect 28 0 24 0;
#X connect 29 0 25 0;
#X connect 30 0 14 0;
#X connect 31 0 18 0;
#X coords 0 -1 1 1 250 185 2 100 100;
