#N canvas 87 74 1353 798 10;
#X declare -lib moonlib;
#X obj 530 109 cnv 5 5 5 empty \$0-instance-num 0 0 0 0 12 -262144
-66577 0;
#X obj 301 103 cnv 15 428 314 empty empty SUB_MIXER_3202 10 35 0 15
-228856 -66577 0;
#X text 314 105 A;
#X text 391 105 B;
#X text 466 104 1;
#X text 549 104 2;
#X text 634 104 3;
#X text 707 104 4;
#X obj 1094 676 outlet~;
#X obj 315 332 moonlib/mknob 25 100 0 127 0 0 \$0-pan-1-s \$0-pan-1-r
A←_→B -4 30 0 12 -262144 -1 -1 0 1;
#X obj 379 332 moonlib/mknob 25 100 0 127 0 0 \$0-pan-2-s \$0-pan-2-r
A←_→B -4 30 0 12 -262144 -1 -1 0 1;
#X obj 467 332 moonlib/mknob 25 100 0 127 0 0 \$0-pan-3-s \$0-pan-3-r
A←_→B -4 30 0 12 -262144 -1 -1 0 1;
#X obj 533 332 moonlib/mknob 25 100 0 127 0 0 \$0-pan-4-s \$0-pan-4-r
A←_→B -4 30 0 12 -262144 -1 -1 0 1;
#X obj 1164 676 outlet~;
#X obj 1094 653 *~;
#X obj 1108 500 / 127;
#X obj 1109 578 line~;
#X obj 1109 554 pack 0 50;
#X obj 1165 651 *~;
#X obj 1179 498 / 127;
#X obj 1180 576 line~;
#X obj 1180 552 pack 0 50;
#X obj 892 380 ../other_patches/volumeandpan~, f 11;
#X obj 971 380 ../other_patches/volumeandpan~, f 11;
#X obj 1048 380 ../other_patches/volumeandpan~, f 11;
#X obj 1127 380 ../other_patches/volumeandpan~, f 11;
#X obj 892 350 inlet~;
#X obj 969 349 inlet~;
#X obj 1047 350 inlet~;
#X obj 1127 347 inlet~;
#X obj 785 351 inlet~;
#X obj 836 351 inlet~;
#X text 312 397 A;
#X text 710 396 B;
#X obj 34 652 declare -lib moonlib;
#X obj 618 169 cnv 15 102 160 empty empty empty 20 12 0 14 -33289 -66577
0;
#X obj 619 170 cnv 15 100 158 empty empty empty 20 12 0 14 -233017
-66577 0;
#X text 308 199 -- -- -10;
#X text 309 247 -- -- -30;
#X text 309 276 -- -- -40;
#X text 308 223 -- -- -20;
#X text 374 174 -- ---, f 9;
#X text 374 199 -- ---;
#X text 374 223 -- ---;
#X text 375 247 -- ---;
#X text 375 276 -- ---;
#X text 374 300 -- ---, f 9;
#X obj 319 180 vsl 15 128 0 127 0 0 \$0-gain-1-s \$0-gain-1-r 1 5 140
0 13 -262144 -1 -1 0 1;
#X obj 383 180 vsl 15 128 0 127 0 0 \$0-gain-2-s \$0-gain-2-r 2 5 140
0 13 -262144 -1 -1 0 1;
#X text 461 199 -- -- -10;
#X text 462 247 -- -- -30;
#X text 462 276 -- -- -40;
#X text 461 223 -- -- -20;
#X text 527 174 -- ---, f 9;
#X text 527 199 -- ---;
#X text 527 223 -- ---;
#X text 528 247 -- ---;
#X text 528 276 -- ---;
#X text 527 300 -- ---, f 9;
#X text 616 198 -- -- -10;
#X text 616 246 -- -- -30;
#X text 616 275 -- -- -40;
#X text 616 222 -- -- -20;
#X text 681 173 -- ---, f 9;
#X text 681 198 -- ---;
#X text 681 222 -- ---;
#X text 682 246 -- ---;
#X text 682 275 -- ---;
#X text 681 299 -- ---, f 9;
#X obj 471 180 vsl 15 128 0 127 0 0 \$0-gain-3-s \$0-gain-3-r 3 5 140
0 13 -262144 -1 -1 0 1;
#X obj 536 180 vsl 15 128 0 127 0 0 \$0-gain-4-s \$0-gain-4-r 4 5 140
0 13 -262144 -1 -1 0 1;
#X obj 626 180 vsl 15 128 0 127 0 0 \$0-gain-a-s \$0-gain-a-r A 5 140
0 13 -262144 -1 -1 0 1;
#X obj 691 180 vsl 15 128 0 127 0 0 \$0-gain-b-s \$0-gain-b-r B 5 140
0 13 -262144 -1 -1 0 1;
#X text 310 174 -- --, f 9;
#X text 356 174 0;
#X text 309 298 -- --, f 9;
#X text 355 298 ∞;
#X text 463 174 -- --, f 9;
#X text 462 298 -- --, f 9;
#X text 616 173 -- --, f 9;
#X text 616 297 -- --, f 9;
#X text 509 174 0;
#X text 508 298 ∞;
#X text 662 173 0;
#X text 662 297 ∞;
#X obj 925 283 r \$0-gain-1-s;
#X obj 946 249 r \$0-pan-1-s;
#X obj 1027 250 r \$0-pan-2-s;
#X obj 1105 252 r \$0-pan-3-s;
#X obj 1189 251 r \$0-pan-4-s;
#X obj 997 303 r \$0-gain-2-s;
#X obj 1075 280 r \$0-gain-3-s;
#X obj 1155 306 r \$0-gain-4-s;
#X obj 1105 466 r \$0-gain-a-s;
#X obj 1177 440 r \$0-gain-b-s;
#X obj 1180 601 *~ 100;
#X obj 1180 622 dbtorms~;
#X obj 1109 603 *~ 100;
#X obj 1109 624 dbtorms~;
#X connect 14 0 8 0;
#X connect 15 0 17 0;
#X connect 16 0 97 0;
#X connect 17 0 16 0;
#X connect 18 0 13 0;
#X connect 19 0 21 0;
#X connect 20 0 95 0;
#X connect 21 0 20 0;
#X connect 22 0 14 0;
#X connect 22 1 18 0;
#X connect 23 0 14 0;
#X connect 23 1 18 0;
#X connect 24 0 14 0;
#X connect 24 1 18 0;
#X connect 25 0 14 0;
#X connect 25 1 18 0;
#X connect 26 0 22 0;
#X connect 27 0 23 0;
#X connect 28 0 24 0;
#X connect 29 0 25 0;
#X connect 30 0 14 0;
#X connect 31 0 18 0;
#X connect 85 0 22 1;
#X connect 86 0 22 2;
#X connect 87 0 23 2;
#X connect 88 0 24 2;
#X connect 89 0 25 2;
#X connect 90 0 23 1;
#X connect 91 0 24 1;
#X connect 92 0 25 1;
#X connect 93 0 15 0;
#X connect 94 0 19 0;
#X connect 95 0 96 0;
#X connect 96 0 18 1;
#X connect 97 0 98 0;
#X connect 98 0 14 1;
#X coords 0 -1 1 1 430 320 1 300 100;
