#N canvas 3 56 634 667 10;
#X declare -lib moonlib;
#N canvas 612 128 450 300 rs0 0;
#X obj 153 83 inlet;
#X obj 151 110 == 0;
#X obj 150 137 tgl 15 0 empty empty empty 17 7 0 10 -262144 -1 -1 1
1;
#X obj 149 184 line~;
#X msg 148 160 \$1 100;
#X obj 147 215 outlet~;
#X connect 0 0 1 0;
#X connect 1 0 2 0;
#X connect 2 0 4 0;
#X connect 3 0 5 0;
#X connect 4 0 3 0;
#X restore 1591 264 pd rs0;
#N canvas 612 128 450 300 rs1 0;
#X obj 153 83 inlet;
#X obj 150 137 tgl 15 0 empty empty empty 17 7 0 10 -262144 -1 -1 0
1;
#X obj 149 184 line~;
#X msg 148 160 \$1 100;
#X obj 147 215 outlet~;
#X obj 151 110 == 1;
#X connect 0 0 5 0;
#X connect 1 0 3 0;
#X connect 2 0 4 0;
#X connect 3 0 2 0;
#X connect 5 0 1 0;
#X restore 1643 264 pd rs1;
#X obj 1576 293 *~;
#X obj 1628 293 *~;
#N canvas 612 128 450 300 rs0 0;
#X obj 153 83 inlet;
#X obj 151 110 == 0;
#X obj 150 137 tgl 15 0 empty empty empty 17 7 0 10 -262144 -1 -1 1
1;
#X obj 149 184 line~;
#X msg 148 160 \$1 100;
#X obj 147 215 outlet~;
#X connect 0 0 1 0;
#X connect 1 0 2 0;
#X connect 2 0 4 0;
#X connect 3 0 5 0;
#X connect 4 0 3 0;
#X restore 1985 261 pd rs0;
#N canvas 612 128 450 300 rs1 0;
#X obj 153 83 inlet;
#X obj 150 137 tgl 15 0 empty empty empty 17 7 0 10 -262144 -1 -1 0
1;
#X obj 149 184 line~;
#X msg 148 160 \$1 100;
#X obj 147 215 outlet~;
#X obj 151 110 == 1;
#X connect 0 0 5 0;
#X connect 1 0 3 0;
#X connect 2 0 4 0;
#X connect 3 0 2 0;
#X connect 5 0 1 0;
#X restore 2037 260 pd rs1;
#N canvas 612 128 450 300 rs0 0;
#X obj 153 83 inlet;
#X obj 151 110 == 0;
#X obj 150 137 tgl 15 0 empty empty empty 17 7 0 10 -262144 -1 -1 0
1;
#X obj 149 184 line~;
#X msg 148 160 \$1 100;
#X obj 147 215 outlet~;
#X connect 0 0 1 0;
#X connect 1 0 2 0;
#X connect 2 0 4 0;
#X connect 3 0 5 0;
#X connect 4 0 3 0;
#X restore 2388 264 pd rs0;
#N canvas 612 128 450 300 rs1 0;
#X obj 153 83 inlet;
#X obj 150 137 tgl 15 0 empty empty empty 17 7 0 10 -262144 -1 -1 0
1;
#X obj 149 184 line~;
#X msg 148 160 \$1 100;
#X obj 147 215 outlet~;
#X obj 151 110 == 1;
#X connect 0 0 5 0;
#X connect 1 0 3 0;
#X connect 2 0 4 0;
#X connect 3 0 2 0;
#X connect 5 0 1 0;
#X restore 2440 264 pd rs1;
#X obj 1970 290 *~;
#X obj 2022 290 *~;
#X obj 2373 292 *~;
#X obj 2425 292 *~;
#X obj 101 103 cnv 15 428 314 empty empty UNIVERSAL-MIXER_3205 20 35
0 15 -233017 -66577 0;
#X text 114 189 -- -- 0, f 9;
#X text 112 214 -- -- -10;
#X text 113 262 -- -- -30;
#X text 113 291 -- -- -40;
#X text 113 313 -- -- ∞, f 9;
#X text 112 238 -- -- -20;
#X obj 123 196 vsl 15 127 0 127 0 0 \$0-um-ch1-fader-s \$0-um-ch1-fader-r
1 5 140 0 13 -262144 -1 -1 0 1;
#X text 301 189 -- -- 0, f 9;
#X text 301 213 -- -- -10;
#X text 302 261 -- -- -30;
#X text 302 290 -- -- -40;
#X text 302 312 -- -- ∞, f 9;
#X text 301 237 -- -- -20;
#X obj 177 344 moonlib/mknob 20 90 0 127 0 0 \$0-um-ch1-pan12-s \$0-um-ch1-pan12-r
1<-->2 -5 26 0 8 -1 -262144 -1 0 1;
#X obj 131 174 hradio 12 1 0 2 \$0-um-switch1-s \$0-um-switch1-r Ch1_A
-3 -8 0 10 -262144 -1 -1 0;
#X obj 227 174 hradio 12 1 0 2 \$0-um-switch2-s \$0-um-switch2-r Ch2_B
-3 -8 0 10 -262144 -1 -1 0;
#X obj 317 174 hradio 12 1 0 2 \$0-um-switch3-s \$0-um-switch3-r Ch3_A
-3 -8 0 10 -262144 -1 -1 0;
#X obj 412 173 hradio 12 1 0 2 \$0-um-switch4-s \$0-um-switch4-s Ch4_B
-3 -8 0 10 -262144 -1 -1 0;
#X obj 311 195 vsl 15 128 0 127 0 0 \$0-um-ch3-fader-s \$0-um-ch3-fader-r
3 5 140 0 13 -262144 -1 -1 0 1;
#X text 101 403 A;
#X text 102 103 A;
#X text 190 103 B;
#X obj 630 1160 outlet~ A;
#X obj 917 1162 outlet~ B;
#X text 261 104 Ch1;
#X text 347 104 Ch2;
#X text 424 103 Ch3;
#X text 505 103 Ch4;
#X obj 1189 1163 outlet~ Ch1;
#X obj 1655 1168 outlet~ Ch2;
#X obj 2015 1160 outlet~ Ch3;
#X text 209 189 -- -- 0, f 9;
#X text 207 214 -- -- -10;
#X text 208 262 -- -- -30;
#X text 208 291 -- -- -40;
#X text 208 313 -- -- ∞, f 9;
#X text 207 238 -- -- -20;
#X obj 218 195 vsl 15 128 0 127 0 0 \$0-um-ch2-fader-s \$0-um-ch2-fader-r
2 5 140 0 13 -262144 -1 -1 0 1;
#X text 398 190 -- -- 0, f 9;
#X text 396 215 -- -- -10;
#X text 397 264 -- -- -30;
#X text 397 292 -- -- -40;
#X text 397 314 -- -- ∞, f 9;
#X text 396 239 -- -- -20;
#X obj 407 196 vsl 15 128 0 127 0 0 \$0-um-ch4-fader-s \$0-um-ch4-fader-r
4 5 140 0 13 -262144 -1 -1 0 1;
#X obj 23 18 declare -lib moonlib;
#X obj 178 199 moonlib/mknob 20 90 0 127 0 0 \$0-um-ch1-panAB-s \$0-um-ch1-panAB-r
A<-->B -2 26 0 8 -1 -262144 -1 0 1;
#X obj 178 288 vradio 15 1 0 3 \$0-um-switch-preoffpost1-s \$0-um-switch-preoffpost1-r
PRE-OFF-POST -8 -8 0 6 -262144 -1 -1 0;
#X obj 272 197 moonlib/mknob 20 90 0 127 0 0 \$0-um-ch2-panAB-s \$0-um-ch2-panAB-r
A<-->B -2 26 0 8 -1 -262144 -1 0 1;
#X obj 367 196 moonlib/mknob 20 90 0 127 0 0 \$0-um-ch3-panAB-s \$0-um-ch3-panAB-r
A<-->B -2 26 0 8 -1 -262144 -1 0 1;
#X obj 461 195 moonlib/mknob 20 90 0 127 0 0 \$0-um-ch4-panAB-s \$0-um-ch4-panAB-r
A<-->B -2 26 0 8 -1 -262144 -1 0 1;
#X obj 271 288 vradio 15 1 0 3 \$0-um-switch-preoffpost2-s \$0-um-switch-preoffpost2-r
PRE-OFF-POST -8 -8 0 6 -262144 -1 -1 0;
#X obj 366 287 vradio 15 1 0 3 \$0-um-switch-preoffpost3-s \$0-um-switch-preoffpost3-r
PRE-OFF-POST -8 -8 0 6 -262144 -1 -1 0;
#X obj 461 288 vradio 15 1 0 3 \$0-um-switch-preoffpost4-s \$0-um-switch-preoffpost4-r
PRE-OFF-POST -8 -8 0 6 -262144 -1 -1 0;
#X obj 270 344 moonlib/mknob 20 90 0 127 0 0 \$0-um-ch2-pan12-s \$0-um-ch2-pan12-r
1<-->2 -5 26 0 8 -1 -262144 -1 0 1;
#X obj 364 345 moonlib/mknob 20 90 0 127 0 0 \$0-um-ch3-pan34-s \$0-um-ch3-pan34-r
3<-->4 -5 26 0 8 -1 -262144 -1 0 1;
#X obj 460 344 moonlib/mknob 20 90 0 127 0 0 \$0-um-ch4-pan34-s \$0-um-ch4-pan34-r
3<-->4 -5 26 0 8 -1 -262144 -1 0 1;
#X obj 178 242 moonlib/mknob 20 90 0 127 0 0 \$0-um-ch1-echo-s \$0-um-ch1-echo-r
E 23 -2 0 8 -1 -262144 -1 0 1;
#X obj 271 242 moonlib/mknob 20 90 0 127 0 0 \$0-um-ch2-echo-s \$0-um-ch2-echo-r
E 23 -2 0 8 -1 -262144 -1 0 1;
#X obj 367 242 moonlib/mknob 20 90 0 127 0 0 \$0-um-ch3-echo-s \$0-um-ch3-echo-r
E 23 -2 0 8 -1 -262144 -1 0 1;
#X obj 460 243 moonlib/mknob 20 90 0 127 0 0 \$0-um-ch4-echo-s \$0-um-ch4-echo-r
E 23 -2 0 8 -1 -262144 -1 0 1;
#X obj 503 171 vradio 15 1 0 2 \$0-um-switchA-s \$0-um-switchA-r XEA_OFF
-10 -8 0 8 -262144 -1 -1 0;
#X obj 503 317 vradio 15 1 0 2 \$0-um-switchB-s \$0-um-switchB-r XEB_OFF
-10 -8 0 8 -262144 -1 -1 0;
#X text 214 402 Ch1;
#X text 273 402 Ch2;
#X text 333 402 Ch3;
#X text 395 401 Ch4;
#X text 200 192 X;
#X text 293 192 X;
#X text 390 192 X;
#X text 483 191 X;
#X text 379 333 Y;
#X text 288 333 Y;
#X text 197 333 Y;
#X text 479 334 Y;
#X obj 664 1097 *~;
#N canvas 612 128 450 300 rs0 0;
#X obj 153 83 inlet;
#X obj 151 110 == 0;
#X obj 150 137 tgl 15 0 empty empty empty 17 7 0 10 -262144 -1 -1 1
1;
#X obj 149 184 line~;
#X msg 148 160 \$1 100;
#X obj 147 215 outlet~;
#X connect 0 0 1 0;
#X connect 1 0 2 0;
#X connect 2 0 4 0;
#X connect 3 0 5 0;
#X connect 4 0 3 0;
#X restore 679 1076 pd rs0;
#X obj 940 1094 *~;
#N canvas 612 128 450 300 rs0 0;
#X obj 153 83 inlet;
#X obj 151 110 == 0;
#X obj 150 137 tgl 15 0 empty empty empty 17 7 0 10 -262144 -1 -1 1
1;
#X obj 149 184 line~;
#X msg 148 160 \$1 100;
#X obj 147 215 outlet~;
#X connect 0 0 1 0;
#X connect 1 0 2 0;
#X connect 2 0 4 0;
#X connect 3 0 5 0;
#X connect 4 0 3 0;
#X restore 955 1073 pd rs0;
#X obj 1576 485 ../other_patches/volumeandpan~, f 7;
#X text 159 402 B;
#X obj 1188 971 *~;
#N canvas 612 128 450 300 rs0 0;
#X obj 153 83 inlet;
#X obj 151 110 == 0;
#X obj 150 137 tgl 15 0 empty empty empty 17 7 0 10 -262144 -1 -1 1
1;
#X obj 149 184 line~;
#X msg 148 160 \$1 100;
#X obj 147 215 outlet~;
#X connect 0 0 1 0;
#X connect 1 0 2 0;
#X connect 2 0 4 0;
#X connect 3 0 5 0;
#X connect 4 0 3 0;
#X restore 1203 948 pd rs0;
#X obj 1266 973 *~;
#N canvas 612 128 450 300 rs2 0;
#X obj 153 83 inlet;
#X obj 150 137 tgl 15 0 empty empty empty 17 7 0 10 -262144 -1 -1 0
1;
#X obj 149 184 line~;
#X msg 148 160 \$1 100;
#X obj 147 215 outlet~;
#X obj 151 110 == 2;
#X connect 0 0 5 0;
#X connect 1 0 3 0;
#X connect 2 0 4 0;
#X connect 3 0 2 0;
#X connect 5 0 1 0;
#X restore 1281 949 pd rs2;
#X obj 1615 976 *~;
#N canvas 612 128 450 300 rs0 0;
#X obj 153 83 inlet;
#X obj 151 110 == 0;
#X obj 150 137 tgl 15 0 empty empty empty 17 7 0 10 -262144 -1 -1 1
1;
#X obj 149 184 line~;
#X msg 148 160 \$1 100;
#X obj 147 215 outlet~;
#X connect 0 0 1 0;
#X connect 1 0 2 0;
#X connect 2 0 4 0;
#X connect 3 0 5 0;
#X connect 4 0 3 0;
#X restore 1630 956 pd rs0;
#X obj 1691 977 *~;
#N canvas 612 128 450 300 rs2 0;
#X obj 153 83 inlet;
#X obj 150 137 tgl 15 0 empty empty empty 17 7 0 10 -262144 -1 -1 0
1;
#X obj 149 184 line~;
#X msg 148 160 \$1 100;
#X obj 147 215 outlet~;
#X obj 151 110 == 2;
#X connect 0 0 5 0;
#X connect 1 0 3 0;
#X connect 2 0 4 0;
#X connect 3 0 2 0;
#X connect 5 0 1 0;
#X restore 1706 956 pd rs2;
#X obj 2015 980 *~;
#N canvas 612 128 450 300 rs0 0;
#X obj 153 83 inlet;
#X obj 151 110 == 0;
#X obj 150 137 tgl 15 0 empty empty empty 17 7 0 10 -262144 -1 -1 1
1;
#X obj 149 184 line~;
#X msg 148 160 \$1 100;
#X obj 147 215 outlet~;
#X connect 0 0 1 0;
#X connect 1 0 2 0;
#X connect 2 0 4 0;
#X connect 3 0 5 0;
#X connect 4 0 3 0;
#X restore 2030 960 pd rs0;
#X obj 2091 980 *~;
#N canvas 612 128 450 300 rs2 0;
#X obj 153 83 inlet;
#X obj 150 137 tgl 15 0 empty empty empty 17 7 0 10 -262144 -1 -1 0
1;
#X obj 149 184 line~;
#X msg 148 160 \$1 100;
#X obj 147 215 outlet~;
#X obj 151 110 == 2;
#X connect 0 0 5 0;
#X connect 1 0 3 0;
#X connect 2 0 4 0;
#X connect 3 0 2 0;
#X connect 5 0 1 0;
#X restore 2106 959 pd rs2;
#X obj 2407 969 *~;
#N canvas 612 128 450 300 rs0 0;
#X obj 153 83 inlet;
#X obj 151 110 == 0;
#X obj 150 137 tgl 15 0 empty empty empty 17 7 0 10 -262144 -1 -1 1
1;
#X obj 149 184 line~;
#X msg 148 160 \$1 100;
#X obj 147 215 outlet~;
#X connect 0 0 1 0;
#X connect 1 0 2 0;
#X connect 2 0 4 0;
#X connect 3 0 5 0;
#X connect 4 0 3 0;
#X restore 2422 949 pd rs0;
#X obj 2483 971 *~;
#N canvas 612 128 450 300 rs2 0;
#X obj 153 83 inlet;
#X obj 150 137 tgl 15 0 empty empty empty 17 7 0 10 -262144 -1 -1 0
1;
#X obj 149 184 line~;
#X msg 148 160 \$1 100;
#X obj 147 215 outlet~;
#X obj 151 110 == 2;
#X connect 0 0 5 0;
#X connect 1 0 3 0;
#X connect 2 0 4 0;
#X connect 3 0 2 0;
#X connect 5 0 1 0;
#X restore 2498 950 pd rs2;
#X obj 1615 1081 ../other_patches/pan~, f 7;
#X obj 1674 1065 / 127;
#X obj 2015 1081 ../other_patches/pan~, f 7;
#X obj 2074 1065 / 127;
#X obj 2465 1062 / 127;
#X obj 1189 1079 ../other_patches/pan~, f 7;
#X obj 1247 1063 / 127;
#X obj 2407 1078 ../other_patches/pan~, f 7;
#X obj 2446 1155 outlet~ Ch4;
#X text 32 1314 STATE SAVING and EXTERNAL CONTROL STUFF;
#N canvas 32 45 608 679 state-saving-multiple-instances 0;
#X obj 233 37 loadbang;
#X obj 1555 192 textfile;
#X msg 1529 116 rewind;
#X msg 1486 116 bang;
#X obj 137 779 textfile;
#X obj 1486 77 t b b;
#X obj 138 445 f;
#X obj 151 668 f;
#X obj 79 489 t b b b;
#X msg 214 668 clear;
#X obj 300 179 outlet;
#X text 301 198 INSTANCE NUMBER;
#X obj 260 105 f \$1;
#X obj 261 133 t f f f;
#X obj 233 70 t b b;
#X obj 79 466 bng 15 250 50 0 empty empty empty 17 7 0 10 -262144 -1
-1;
#X obj 79 322 r SAVE-S;
#X obj 292 37 r \$0-reload!;
#X text 414 48 RETURN TO PREVIOUS VALUE AFTER USING MORPH-SEQ module
;
#X text 151 255 WRITE side;
#X text 1564 20 READ side;
#X text 471 737 <-----rename to match name of Pd patch;
#X text 1828 159 <-----rename to match name of Pd patch;
#X text 524 491 <----- one "f" for each parameter;
#X text 523 538 <----- one "$N" for each parameter;
#X text 1040 411 <-----rename to match send symbol of each GUI element
;
#X text 2093 522 <-----rename to match receive symbol of each GUI element
;
#X text 1511 781 Keep these parameters in the same order on the WRITE
and READ sides;
#X text 1937 219 <----- one "f" for each parameter;
#X obj 150 275 r \$0-um-switch1-s;
#X obj 179 344 r \$0-um-switch4-s;
#X obj 171 321 r \$0-um-switch3-s;
#X obj 162 298 r \$0-um-switch2-s;
#X obj 270 275 r \$0-um-ch1-fader-s;
#X obj 282 298 r \$0-um-ch2-fader-s;
#X obj 291 321 r \$0-um-ch3-fader-s;
#X obj 299 344 r \$0-um-ch4-fader-s;
#X obj 398 275 r \$0-um-ch1-panAB-s;
#X obj 410 298 r \$0-um-ch2-panAB-s;
#X obj 419 321 r \$0-um-ch3-panAB-s;
#X obj 427 344 r \$0-um-ch4-panAB-s;
#X obj 527 275 r \$0-um-ch1-echo-s;
#X obj 539 298 r \$0-um-ch2-echo-s;
#X obj 548 321 r \$0-um-ch3-echo-s;
#X obj 556 344 r \$0-um-ch4-echo-s;
#X obj 648 276 r \$0-um-switch-preoffpost1-s;
#X obj 660 299 r \$0-um-switch-preoffpost2-s;
#X obj 669 322 r \$0-um-switch-preoffpost3-s;
#X obj 677 345 r \$0-um-switch-preoffpost4-s;
#X obj 827 276 r \$0-um-ch1-pan12-s;
#X obj 839 299 r \$0-um-ch2-pan12-s;
#X obj 848 322 r \$0-um-ch3-pan34-s;
#X obj 856 345 r \$0-um-ch4-pan34-s;
#X obj 899 399 r \$0-um-switchA-s;
#X obj 899 422 r \$0-um-switchB-s;
#X obj 138 480 pack f f f f f f f f f f f f f f f f f f f f f f f f
f f;
#X msg 138 526 set \$1 \$2 \$3 \$4 \$5 \$6 \$7 \$8 \$9 \$10 \$11 \$12
\$13 \$14 \$15 \$16 \$17 \$18 \$19 \$20 \$21 \$22 \$23 \$24 \$25 \$26
;
#X msg 150 739 write statesave/\$1-universal-mixer-ss.txt;
#X obj 1330 564 s \$0-um-switch1-r;
#X obj 1331 587 s \$0-um-switch2-r;
#X obj 1331 611 s \$0-um-switch3-r;
#X obj 1331 634 s \$0-um-switch4-r;
#X obj 1555 214 unpack f f f f f f f f f f f f f f f f f f f f f f
f f f f;
#X obj 1455 564 s \$0-um-ch1-fader-r;
#X obj 1455 587 s \$0-um-ch2-fader-r;
#X obj 1456 611 s \$0-um-ch3-fader-r;
#X obj 1456 634 s \$0-um-ch4-fader-r;
#X obj 1587 564 s \$0-um-ch1-panAB-r;
#X obj 1587 587 s \$0-um-ch2-panAB-r;
#X obj 1587 611 s \$0-um-ch3-panAB-r;
#X obj 1587 635 s \$0-um-ch4-panAB-r;
#X obj 1718 564 s \$0-um-ch1-echo-r;
#X obj 1718 588 s \$0-um-ch2-echo-r;
#X obj 1718 612 s \$0-um-ch3-echo-r;
#X obj 1717 636 s \$0-um-ch4-echo-r;
#X obj 1842 564 s \$0-um-switch-preoffpost1-r;
#X obj 1842 588 s \$0-um-switch-preoffpost2-r;
#X obj 1842 612 s \$0-um-switch-preoffpost3-r;
#X obj 1842 636 s \$0-um-switch-preoffpost4-r;
#X obj 2027 564 s \$0-um-ch1-pan12-r;
#X obj 2027 588 s \$0-um-ch2-pan12-r;
#X obj 2027 613 s \$0-um-ch3-pan34-r;
#X obj 2027 636 s \$0-um-ch4-pan34-r;
#X obj 2132 453 s \$0-um-switchA-r;
#X obj 2132 475 s \$0-um-switchB-r;
#X msg 1555 159 read statesave/\$1-universal-mixer-ss.txt;
#X text 1870 175 i.e. "write statesave/\$1-PATCH_NAME-ss.txt";
#X text 470 759 i.e. "write statesave/\$1-PATCH_NAME-ss.txt";
#X connect 0 0 14 0;
#X connect 1 0 62 0;
#X connect 2 0 1 0;
#X connect 3 0 1 0;
#X connect 5 0 3 0;
#X connect 5 1 2 0;
#X connect 6 0 55 0;
#X connect 7 0 57 0;
#X connect 8 0 7 0;
#X connect 8 1 6 0;
#X connect 8 2 9 0;
#X connect 9 0 4 0;
#X connect 12 0 13 0;
#X connect 13 0 7 1;
#X connect 13 1 85 0;
#X connect 13 2 10 0;
#X connect 14 0 5 0;
#X connect 14 1 12 0;
#X connect 15 0 8 0;
#X connect 16 0 15 0;
#X connect 17 0 14 0;
#X connect 29 0 6 1;
#X connect 30 0 55 3;
#X connect 31 0 55 2;
#X connect 32 0 55 1;
#X connect 33 0 55 4;
#X connect 34 0 55 5;
#X connect 35 0 55 6;
#X connect 36 0 55 7;
#X connect 37 0 55 8;
#X connect 38 0 55 9;
#X connect 39 0 55 10;
#X connect 40 0 55 11;
#X connect 41 0 55 12;
#X connect 42 0 55 13;
#X connect 43 0 55 14;
#X connect 44 0 55 15;
#X connect 45 0 55 16;
#X connect 46 0 55 17;
#X connect 47 0 55 18;
#X connect 48 0 55 19;
#X connect 49 0 55 20;
#X connect 50 0 55 21;
#X connect 51 0 55 22;
#X connect 52 0 55 23;
#X connect 53 0 55 24;
#X connect 54 0 55 25;
#X connect 55 0 56 0;
#X connect 56 0 4 0;
#X connect 57 0 4 0;
#X connect 62 0 58 0;
#X connect 62 1 59 0;
#X connect 62 2 60 0;
#X connect 62 3 61 0;
#X connect 62 4 63 0;
#X connect 62 5 64 0;
#X connect 62 6 65 0;
#X connect 62 7 66 0;
#X connect 62 8 67 0;
#X connect 62 9 68 0;
#X connect 62 10 69 0;
#X connect 62 11 70 0;
#X connect 62 12 71 0;
#X connect 62 13 72 0;
#X connect 62 14 73 0;
#X connect 62 15 74 0;
#X connect 62 16 75 0;
#X connect 62 17 76 0;
#X connect 62 18 77 0;
#X connect 62 19 78 0;
#X connect 62 20 79 0;
#X connect 62 21 80 0;
#X connect 62 22 81 0;
#X connect 62 23 82 0;
#X connect 62 24 83 0;
#X connect 62 25 84 0;
#X connect 85 0 1 0;
#X restore 33 1408 pd state-saving-multiple-instances;
#X obj 33 1499 s \$0-instance-num;
#X obj 33 1451 makefilename %d;
#X msg 33 1476 label \$1;
#N canvas 74 23 1366 679 state-saving-via-preset-manager-module 0;
#X obj 54 52 cnv 15 1200 800 empty empty WRITE 20 20 0 20 -233017 -66577
0;
#X obj 136 804 textfile;
#X obj 134 322 f;
#X obj 147 545 f;
#X obj 80 440 t b b b;
#X msg 187 702 clear;
#X obj 134 144 delay 5;
#X obj 80 495 delay 10;
#X msg 80 280 bang;
#X obj 80 114 r STORE-S!;
#X obj 147 575 pack f f;
#X obj 192 528 loadbang;
#X obj 192 550 f \$1;
#X obj 162 506 r preset-manager-store-slot;
#X text 540 747 i.e. "write statesave/\$1-\$2-PATCH_NAME-ss.txt";
#X text 495 728 <-----rename to match name of Pd patch;
#X text 503 374 <----- one "f" for each parameter;
#X text 512 447 <----- one "$N" for each parameter;
#X text 903 315 <-----rename to match send symbol of each GUI element
;
#X obj 54 868 cnv 15 1200 800 empty empty READ 20 20 0 20 -233017 -66577
0;
#X obj 207 1133 textfile;
#X msg 143 1082 rewind;
#X msg 100 1082 bang;
#X obj 100 1043 t b b;
#X obj 207 1034 f;
#X obj 180 998 t b b;
#X obj 180 955 t b f;
#X obj 252 1052 f \$1;
#X obj 207 1079 pack f f;
#X obj 252 1002 loadbang;
#X obj 180 932 r preset-manager-scan;
#X text 483 1107 <-----rename to match name of Pd patch;
#X text 515 1127 i.e. "read statesave/\$1-\$2-PATCH_NAME-ss.txt";
#X text 587 1188 <----- one "f" for each parameter;
#X text 710 1351 Keep these parameters in the same order on the WRITE
and READ sides;
#X text 740 1313 for binary (0 or 1) controls which do not morph (like
switches) \, do not use [pd morph-paramaters], f 51;
#X obj 186 180 r \$0-um-switch1-s;
#X obj 215 249 r \$0-um-switch4-s;
#X obj 207 226 r \$0-um-switch3-s;
#X obj 198 203 r \$0-um-switch2-s;
#X obj 306 180 r \$0-um-ch1-fader-s;
#X obj 318 203 r \$0-um-ch2-fader-s;
#X obj 327 226 r \$0-um-ch3-fader-s;
#X obj 335 249 r \$0-um-ch4-fader-s;
#X obj 434 180 r \$0-um-ch1-panAB-s;
#X obj 446 203 r \$0-um-ch2-panAB-s;
#X obj 455 226 r \$0-um-ch3-panAB-s;
#X obj 463 249 r \$0-um-ch4-panAB-s;
#X obj 563 180 r \$0-um-ch1-echo-s;
#X obj 575 203 r \$0-um-ch2-echo-s;
#X obj 584 226 r \$0-um-ch3-echo-s;
#X obj 592 249 r \$0-um-ch4-echo-s;
#X obj 684 181 r \$0-um-switch-preoffpost1-s;
#X obj 696 204 r \$0-um-switch-preoffpost2-s;
#X obj 705 227 r \$0-um-switch-preoffpost3-s;
#X obj 713 250 r \$0-um-switch-preoffpost4-s;
#X obj 863 181 r \$0-um-ch1-pan12-s;
#X obj 875 204 r \$0-um-ch2-pan12-s;
#X obj 884 227 r \$0-um-ch3-pan34-s;
#X obj 892 250 r \$0-um-ch4-pan34-s;
#X obj 772 308 r \$0-um-switchA-s;
#X obj 772 331 r \$0-um-switchB-s;
#X obj 134 375 pack f f f f f f f f f f f f f f f f f f f f f f f f
f f;
#X msg 134 438 set \$1 \$2 \$3 \$4 \$5 \$6 \$7 \$8 \$9 \$10 \$11 \$12
\$13 \$14 \$15 \$16 \$17 \$18 \$19 \$20 \$21 \$22 \$23 \$24 \$25 \$26
;
#X msg 186 729 write statesave/\$1-\$2-universal-mixer-ss.txt;
#X obj 128 1563 s \$0-um-switch1-r;
#X obj 129 1586 s \$0-um-switch2-r;
#X obj 129 1610 s \$0-um-switch3-r;
#X obj 129 1633 s \$0-um-switch4-r;
#X obj 207 1186 unpack f f f f f f f f f f f f f f f f f f f f f f
f f f f;
#X obj 253 1503 s \$0-um-ch1-fader-r;
#X obj 253 1546 s \$0-um-ch2-fader-r;
#X obj 253 1590 s \$0-um-ch3-fader-r;
#X obj 254 1633 s \$0-um-ch4-fader-r;
#X obj 385 1503 s \$0-um-ch1-panAB-r;
#X obj 385 1546 s \$0-um-ch2-panAB-r;
#X obj 385 1590 s \$0-um-ch3-panAB-r;
#X obj 385 1634 s \$0-um-ch4-panAB-r;
#X obj 516 1503 s \$0-um-ch1-echo-r;
#X obj 516 1547 s \$0-um-ch2-echo-r;
#X obj 516 1591 s \$0-um-ch3-echo-r;
#X obj 517 1636 s \$0-um-ch4-echo-r;
#X obj 640 1563 s \$0-um-switch-preoffpost1-r;
#X obj 640 1587 s \$0-um-switch-preoffpost2-r;
#X obj 640 1611 s \$0-um-switch-preoffpost3-r;
#X obj 640 1635 s \$0-um-switch-preoffpost4-r;
#X obj 825 1503 s \$0-um-ch1-pan12-r;
#X obj 825 1547 s \$0-um-ch2-pan12-r;
#X obj 825 1592 s \$0-um-ch3-pan34-r;
#X obj 826 1635 s \$0-um-ch4-pan34-r;
#X obj 946 1421 s \$0-um-switchA-r;
#X obj 946 1443 s \$0-um-switchB-r;
#N canvas 3 56 1069 676 morph-parameters 0;
#X obj 176 94 inlet;
#X obj 176 236 pack f f;
#X obj 176 261 line;
#X obj 209 117 r preset-manager-morph-s;
#X msg 72 244 stop;
#X obj 72 214 r STOP-MORPH!;
#X obj 209 206 spigot;
#X obj 398 137 t f f;
#X obj 455 154 == 0;
#X obj 221 176 f;
#X floatatom 455 222 5 0 0 0 - - -;
#X obj 398 159 t b f;
#X floatatom 425 192 5 0 0 0 - - -;
#X obj 209 139 t f f;
#X obj 398 102 r parameters-s;
#X obj 176 288 outlet;
#X connect 0 0 1 0;
#X connect 1 0 2 0;
#X connect 2 0 15 0;
#X connect 3 0 13 0;
#X connect 4 0 2 0;
#X connect 5 0 4 0;
#X connect 6 0 1 1;
#X connect 7 0 11 0;
#X connect 7 1 8 0;
#X connect 8 0 10 0;
#X connect 9 0 6 0;
#X connect 10 0 1 1;
#X connect 11 0 9 0;
#X connect 11 1 12 0;
#X connect 12 0 6 1;
#X connect 13 0 6 0;
#X connect 13 1 9 1;
#X connect 14 0 7 0;
#X restore 253 1478 pd morph-parameters;
#N canvas 3 56 1069 676 morph-parameters 0;
#X obj 176 94 inlet;
#X obj 176 236 pack f f;
#X obj 176 261 line;
#X obj 209 117 r preset-manager-morph-s;
#X msg 72 244 stop;
#X obj 72 214 r STOP-MORPH!;
#X obj 209 206 spigot;
#X obj 398 137 t f f;
#X obj 455 154 == 0;
#X obj 221 176 f;
#X floatatom 455 222 5 0 0 0 - - -;
#X obj 398 159 t b f;
#X floatatom 425 192 5 0 0 0 - - -;
#X obj 209 139 t f f;
#X obj 398 102 r parameters-s;
#X obj 176 288 outlet;
#X connect 0 0 1 0;
#X connect 1 0 2 0;
#X connect 2 0 15 0;
#X connect 3 0 13 0;
#X connect 4 0 2 0;
#X connect 5 0 4 0;
#X connect 6 0 1 1;
#X connect 7 0 11 0;
#X connect 7 1 8 0;
#X connect 8 0 10 0;
#X connect 9 0 6 0;
#X connect 10 0 1 1;
#X connect 11 0 9 0;
#X connect 11 1 12 0;
#X connect 12 0 6 1;
#X connect 13 0 6 0;
#X connect 13 1 9 1;
#X connect 14 0 7 0;
#X restore 253 1524 pd morph-parameters;
#N canvas 3 56 1069 676 morph-parameters 0;
#X obj 176 94 inlet;
#X obj 176 236 pack f f;
#X obj 176 261 line;
#X obj 209 117 r preset-manager-morph-s;
#X msg 72 244 stop;
#X obj 72 214 r STOP-MORPH!;
#X obj 209 206 spigot;
#X obj 398 137 t f f;
#X obj 455 154 == 0;
#X obj 221 176 f;
#X floatatom 455 222 5 0 0 0 - - -;
#X obj 398 159 t b f;
#X floatatom 425 192 5 0 0 0 - - -;
#X obj 209 139 t f f;
#X obj 398 102 r parameters-s;
#X obj 176 288 outlet;
#X connect 0 0 1 0;
#X connect 1 0 2 0;
#X connect 2 0 15 0;
#X connect 3 0 13 0;
#X connect 4 0 2 0;
#X connect 5 0 4 0;
#X connect 6 0 1 1;
#X connect 7 0 11 0;
#X connect 7 1 8 0;
#X connect 8 0 10 0;
#X connect 9 0 6 0;
#X connect 10 0 1 1;
#X connect 11 0 9 0;
#X connect 11 1 12 0;
#X connect 12 0 6 1;
#X connect 13 0 6 0;
#X connect 13 1 9 1;
#X connect 14 0 7 0;
#X restore 253 1568 pd morph-parameters;
#N canvas 3 56 1069 676 morph-parameters 0;
#X obj 176 94 inlet;
#X obj 176 236 pack f f;
#X obj 176 261 line;
#X obj 209 117 r preset-manager-morph-s;
#X msg 72 244 stop;
#X obj 72 214 r STOP-MORPH!;
#X obj 209 206 spigot;
#X obj 398 137 t f f;
#X obj 455 154 == 0;
#X obj 221 176 f;
#X floatatom 455 222 5 0 0 0 - - -;
#X obj 398 159 t b f;
#X floatatom 425 192 5 0 0 0 - - -;
#X obj 209 139 t f f;
#X obj 398 102 r parameters-s;
#X obj 176 288 outlet;
#X connect 0 0 1 0;
#X connect 1 0 2 0;
#X connect 2 0 15 0;
#X connect 3 0 13 0;
#X connect 4 0 2 0;
#X connect 5 0 4 0;
#X connect 6 0 1 1;
#X connect 7 0 11 0;
#X connect 7 1 8 0;
#X connect 8 0 10 0;
#X connect 9 0 6 0;
#X connect 10 0 1 1;
#X connect 11 0 9 0;
#X connect 11 1 12 0;
#X connect 12 0 6 1;
#X connect 13 0 6 0;
#X connect 13 1 9 1;
#X connect 14 0 7 0;
#X restore 254 1613 pd morph-parameters;
#N canvas 3 56 1069 676 morph-parameters 0;
#X obj 176 94 inlet;
#X obj 176 236 pack f f;
#X obj 176 261 line;
#X obj 209 117 r preset-manager-morph-s;
#X msg 72 244 stop;
#X obj 72 214 r STOP-MORPH!;
#X obj 209 206 spigot;
#X obj 398 137 t f f;
#X obj 455 154 == 0;
#X obj 221 176 f;
#X floatatom 455 222 5 0 0 0 - - -;
#X obj 398 159 t b f;
#X floatatom 425 192 5 0 0 0 - - -;
#X obj 209 139 t f f;
#X obj 398 102 r parameters-s;
#X obj 176 288 outlet;
#X connect 0 0 1 0;
#X connect 1 0 2 0;
#X connect 2 0 15 0;
#X connect 3 0 13 0;
#X connect 4 0 2 0;
#X connect 5 0 4 0;
#X connect 6 0 1 1;
#X connect 7 0 11 0;
#X connect 7 1 8 0;
#X connect 8 0 10 0;
#X connect 9 0 6 0;
#X connect 10 0 1 1;
#X connect 11 0 9 0;
#X connect 11 1 12 0;
#X connect 12 0 6 1;
#X connect 13 0 6 0;
#X connect 13 1 9 1;
#X connect 14 0 7 0;
#X restore 385 1478 pd morph-parameters;
#N canvas 3 56 1069 676 morph-parameters 0;
#X obj 176 94 inlet;
#X obj 176 236 pack f f;
#X obj 176 261 line;
#X obj 209 117 r preset-manager-morph-s;
#X msg 72 244 stop;
#X obj 72 214 r STOP-MORPH!;
#X obj 209 206 spigot;
#X obj 398 137 t f f;
#X obj 455 154 == 0;
#X obj 221 176 f;
#X floatatom 455 222 5 0 0 0 - - -;
#X obj 398 159 t b f;
#X floatatom 425 192 5 0 0 0 - - -;
#X obj 209 139 t f f;
#X obj 398 102 r parameters-s;
#X obj 176 288 outlet;
#X connect 0 0 1 0;
#X connect 1 0 2 0;
#X connect 2 0 15 0;
#X connect 3 0 13 0;
#X connect 4 0 2 0;
#X connect 5 0 4 0;
#X connect 6 0 1 1;
#X connect 7 0 11 0;
#X connect 7 1 8 0;
#X connect 8 0 10 0;
#X connect 9 0 6 0;
#X connect 10 0 1 1;
#X connect 11 0 9 0;
#X connect 11 1 12 0;
#X connect 12 0 6 1;
#X connect 13 0 6 0;
#X connect 13 1 9 1;
#X connect 14 0 7 0;
#X restore 385 1524 pd morph-parameters;
#N canvas 3 56 1069 676 morph-parameters 0;
#X obj 176 94 inlet;
#X obj 176 236 pack f f;
#X obj 176 261 line;
#X obj 209 117 r preset-manager-morph-s;
#X msg 72 244 stop;
#X obj 72 214 r STOP-MORPH!;
#X obj 209 206 spigot;
#X obj 398 137 t f f;
#X obj 455 154 == 0;
#X obj 221 176 f;
#X floatatom 455 222 5 0 0 0 - - -;
#X obj 398 159 t b f;
#X floatatom 425 192 5 0 0 0 - - -;
#X obj 209 139 t f f;
#X obj 398 102 r parameters-s;
#X obj 176 288 outlet;
#X connect 0 0 1 0;
#X connect 1 0 2 0;
#X connect 2 0 15 0;
#X connect 3 0 13 0;
#X connect 4 0 2 0;
#X connect 5 0 4 0;
#X connect 6 0 1 1;
#X connect 7 0 11 0;
#X connect 7 1 8 0;
#X connect 8 0 10 0;
#X connect 9 0 6 0;
#X connect 10 0 1 1;
#X connect 11 0 9 0;
#X connect 11 1 12 0;
#X connect 12 0 6 1;
#X connect 13 0 6 0;
#X connect 13 1 9 1;
#X connect 14 0 7 0;
#X restore 385 1568 pd morph-parameters;
#N canvas 3 56 1069 676 morph-parameters 0;
#X obj 176 94 inlet;
#X obj 176 236 pack f f;
#X obj 176 261 line;
#X obj 209 117 r preset-manager-morph-s;
#X msg 72 244 stop;
#X obj 72 214 r STOP-MORPH!;
#X obj 209 206 spigot;
#X obj 398 137 t f f;
#X obj 455 154 == 0;
#X obj 221 176 f;
#X floatatom 455 222 5 0 0 0 - - -;
#X obj 398 159 t b f;
#X floatatom 425 192 5 0 0 0 - - -;
#X obj 209 139 t f f;
#X obj 398 102 r parameters-s;
#X obj 176 288 outlet;
#X connect 0 0 1 0;
#X connect 1 0 2 0;
#X connect 2 0 15 0;
#X connect 3 0 13 0;
#X connect 4 0 2 0;
#X connect 5 0 4 0;
#X connect 6 0 1 1;
#X connect 7 0 11 0;
#X connect 7 1 8 0;
#X connect 8 0 10 0;
#X connect 9 0 6 0;
#X connect 10 0 1 1;
#X connect 11 0 9 0;
#X connect 11 1 12 0;
#X connect 12 0 6 1;
#X connect 13 0 6 0;
#X connect 13 1 9 1;
#X connect 14 0 7 0;
#X restore 385 1613 pd morph-parameters;
#N canvas 3 56 1069 676 morph-parameters 0;
#X obj 176 94 inlet;
#X obj 176 236 pack f f;
#X obj 176 261 line;
#X obj 209 117 r preset-manager-morph-s;
#X msg 72 244 stop;
#X obj 72 214 r STOP-MORPH!;
#X obj 209 206 spigot;
#X obj 398 137 t f f;
#X obj 455 154 == 0;
#X obj 221 176 f;
#X floatatom 455 222 5 0 0 0 - - -;
#X obj 398 159 t b f;
#X floatatom 425 192 5 0 0 0 - - -;
#X obj 209 139 t f f;
#X obj 398 102 r parameters-s;
#X obj 176 288 outlet;
#X connect 0 0 1 0;
#X connect 1 0 2 0;
#X connect 2 0 15 0;
#X connect 3 0 13 0;
#X connect 4 0 2 0;
#X connect 5 0 4 0;
#X connect 6 0 1 1;
#X connect 7 0 11 0;
#X connect 7 1 8 0;
#X connect 8 0 10 0;
#X connect 9 0 6 0;
#X connect 10 0 1 1;
#X connect 11 0 9 0;
#X connect 11 1 12 0;
#X connect 12 0 6 1;
#X connect 13 0 6 0;
#X connect 13 1 9 1;
#X connect 14 0 7 0;
#X restore 516 1480 pd morph-parameters;
#N canvas 3 56 1069 676 morph-parameters 0;
#X obj 176 94 inlet;
#X obj 176 236 pack f f;
#X obj 176 261 line;
#X obj 209 117 r preset-manager-morph-s;
#X msg 72 244 stop;
#X obj 72 214 r STOP-MORPH!;
#X obj 209 206 spigot;
#X obj 398 137 t f f;
#X obj 455 154 == 0;
#X obj 221 176 f;
#X floatatom 455 222 5 0 0 0 - - -;
#X obj 398 159 t b f;
#X floatatom 425 192 5 0 0 0 - - -;
#X obj 209 139 t f f;
#X obj 398 102 r parameters-s;
#X obj 176 288 outlet;
#X connect 0 0 1 0;
#X connect 1 0 2 0;
#X connect 2 0 15 0;
#X connect 3 0 13 0;
#X connect 4 0 2 0;
#X connect 5 0 4 0;
#X connect 6 0 1 1;
#X connect 7 0 11 0;
#X connect 7 1 8 0;
#X connect 8 0 10 0;
#X connect 9 0 6 0;
#X connect 10 0 1 1;
#X connect 11 0 9 0;
#X connect 11 1 12 0;
#X connect 12 0 6 1;
#X connect 13 0 6 0;
#X connect 13 1 9 1;
#X connect 14 0 7 0;
#X restore 516 1526 pd morph-parameters;
#N canvas 3 56 1069 676 morph-parameters 0;
#X obj 176 94 inlet;
#X obj 176 236 pack f f;
#X obj 176 261 line;
#X obj 209 117 r preset-manager-morph-s;
#X msg 72 244 stop;
#X obj 72 214 r STOP-MORPH!;
#X obj 209 206 spigot;
#X obj 398 137 t f f;
#X obj 455 154 == 0;
#X obj 221 176 f;
#X floatatom 455 222 5 0 0 0 - - -;
#X obj 398 159 t b f;
#X floatatom 425 192 5 0 0 0 - - -;
#X obj 209 139 t f f;
#X obj 398 102 r parameters-s;
#X obj 176 288 outlet;
#X connect 0 0 1 0;
#X connect 1 0 2 0;
#X connect 2 0 15 0;
#X connect 3 0 13 0;
#X connect 4 0 2 0;
#X connect 5 0 4 0;
#X connect 6 0 1 1;
#X connect 7 0 11 0;
#X connect 7 1 8 0;
#X connect 8 0 10 0;
#X connect 9 0 6 0;
#X connect 10 0 1 1;
#X connect 11 0 9 0;
#X connect 11 1 12 0;
#X connect 12 0 6 1;
#X connect 13 0 6 0;
#X connect 13 1 9 1;
#X connect 14 0 7 0;
#X restore 516 1570 pd morph-parameters;
#N canvas 3 56 1069 676 morph-parameters 0;
#X obj 176 94 inlet;
#X obj 176 236 pack f f;
#X obj 176 261 line;
#X obj 209 117 r preset-manager-morph-s;
#X msg 72 244 stop;
#X obj 72 214 r STOP-MORPH!;
#X obj 209 206 spigot;
#X obj 398 137 t f f;
#X obj 455 154 == 0;
#X obj 221 176 f;
#X floatatom 455 222 5 0 0 0 - - -;
#X obj 398 159 t b f;
#X floatatom 425 192 5 0 0 0 - - -;
#X obj 209 139 t f f;
#X obj 398 102 r parameters-s;
#X obj 176 288 outlet;
#X connect 0 0 1 0;
#X connect 1 0 2 0;
#X connect 2 0 15 0;
#X connect 3 0 13 0;
#X connect 4 0 2 0;
#X connect 5 0 4 0;
#X connect 6 0 1 1;
#X connect 7 0 11 0;
#X connect 7 1 8 0;
#X connect 8 0 10 0;
#X connect 9 0 6 0;
#X connect 10 0 1 1;
#X connect 11 0 9 0;
#X connect 11 1 12 0;
#X connect 12 0 6 1;
#X connect 13 0 6 0;
#X connect 13 1 9 1;
#X connect 14 0 7 0;
#X restore 517 1615 pd morph-parameters;
#N canvas 3 56 1069 676 morph-parameters 0;
#X obj 176 94 inlet;
#X obj 176 236 pack f f;
#X obj 176 261 line;
#X obj 209 117 r preset-manager-morph-s;
#X msg 72 244 stop;
#X obj 72 214 r STOP-MORPH!;
#X obj 209 206 spigot;
#X obj 398 137 t f f;
#X obj 455 154 == 0;
#X obj 221 176 f;
#X floatatom 455 222 5 0 0 0 - - -;
#X obj 398 159 t b f;
#X floatatom 425 192 5 0 0 0 - - -;
#X obj 209 139 t f f;
#X obj 398 102 r parameters-s;
#X obj 176 288 outlet;
#X connect 0 0 1 0;
#X connect 1 0 2 0;
#X connect 2 0 15 0;
#X connect 3 0 13 0;
#X connect 4 0 2 0;
#X connect 5 0 4 0;
#X connect 6 0 1 1;
#X connect 7 0 11 0;
#X connect 7 1 8 0;
#X connect 8 0 10 0;
#X connect 9 0 6 0;
#X connect 10 0 1 1;
#X connect 11 0 9 0;
#X connect 11 1 12 0;
#X connect 12 0 6 1;
#X connect 13 0 6 0;
#X connect 13 1 9 1;
#X connect 14 0 7 0;
#X restore 825 1479 pd morph-parameters;
#N canvas 3 56 1069 676 morph-parameters 0;
#X obj 176 94 inlet;
#X obj 176 236 pack f f;
#X obj 176 261 line;
#X obj 209 117 r preset-manager-morph-s;
#X msg 72 244 stop;
#X obj 72 214 r STOP-MORPH!;
#X obj 209 206 spigot;
#X obj 398 137 t f f;
#X obj 455 154 == 0;
#X obj 221 176 f;
#X floatatom 455 222 5 0 0 0 - - -;
#X obj 398 159 t b f;
#X floatatom 425 192 5 0 0 0 - - -;
#X obj 209 139 t f f;
#X obj 398 102 r parameters-s;
#X obj 176 288 outlet;
#X connect 0 0 1 0;
#X connect 1 0 2 0;
#X connect 2 0 15 0;
#X connect 3 0 13 0;
#X connect 4 0 2 0;
#X connect 5 0 4 0;
#X connect 6 0 1 1;
#X connect 7 0 11 0;
#X connect 7 1 8 0;
#X connect 8 0 10 0;
#X connect 9 0 6 0;
#X connect 10 0 1 1;
#X connect 11 0 9 0;
#X connect 11 1 12 0;
#X connect 12 0 6 1;
#X connect 13 0 6 0;
#X connect 13 1 9 1;
#X connect 14 0 7 0;
#X restore 825 1525 pd morph-parameters;
#N canvas 3 56 1069 676 morph-parameters 0;
#X obj 176 94 inlet;
#X obj 176 236 pack f f;
#X obj 176 261 line;
#X obj 209 117 r preset-manager-morph-s;
#X msg 72 244 stop;
#X obj 72 214 r STOP-MORPH!;
#X obj 209 206 spigot;
#X obj 398 137 t f f;
#X obj 455 154 == 0;
#X obj 221 176 f;
#X floatatom 455 222 5 0 0 0 - - -;
#X obj 398 159 t b f;
#X floatatom 425 192 5 0 0 0 - - -;
#X obj 209 139 t f f;
#X obj 398 102 r parameters-s;
#X obj 176 288 outlet;
#X connect 0 0 1 0;
#X connect 1 0 2 0;
#X connect 2 0 15 0;
#X connect 3 0 13 0;
#X connect 4 0 2 0;
#X connect 5 0 4 0;
#X connect 6 0 1 1;
#X connect 7 0 11 0;
#X connect 7 1 8 0;
#X connect 8 0 10 0;
#X connect 9 0 6 0;
#X connect 10 0 1 1;
#X connect 11 0 9 0;
#X connect 11 1 12 0;
#X connect 12 0 6 1;
#X connect 13 0 6 0;
#X connect 13 1 9 1;
#X connect 14 0 7 0;
#X restore 825 1569 pd morph-parameters;
#N canvas 3 56 1069 676 morph-parameters 0;
#X obj 176 94 inlet;
#X obj 176 236 pack f f;
#X obj 176 261 line;
#X obj 209 117 r preset-manager-morph-s;
#X msg 72 244 stop;
#X obj 72 214 r STOP-MORPH!;
#X obj 209 206 spigot;
#X obj 398 137 t f f;
#X obj 455 154 == 0;
#X obj 221 176 f;
#X floatatom 455 222 5 0 0 0 - - -;
#X obj 398 159 t b f;
#X floatatom 425 192 5 0 0 0 - - -;
#X obj 209 139 t f f;
#X obj 398 102 r parameters-s;
#X obj 176 288 outlet;
#X connect 0 0 1 0;
#X connect 1 0 2 0;
#X connect 2 0 15 0;
#X connect 3 0 13 0;
#X connect 4 0 2 0;
#X connect 5 0 4 0;
#X connect 6 0 1 1;
#X connect 7 0 11 0;
#X connect 7 1 8 0;
#X connect 8 0 10 0;
#X connect 9 0 6 0;
#X connect 10 0 1 1;
#X connect 11 0 9 0;
#X connect 11 1 12 0;
#X connect 12 0 6 1;
#X connect 13 0 6 0;
#X connect 13 1 9 1;
#X connect 14 0 7 0;
#X restore 826 1614 pd morph-parameters;
#X msg 207 1108 read statesave/\$1-\$2-universal-mixer-ss.txt;
#X connect 2 0 62 0;
#X connect 3 0 10 0;
#X connect 4 0 7 0;
#X connect 4 1 6 0;
#X connect 4 2 5 0;
#X connect 5 0 1 0;
#X connect 6 0 2 0;
#X connect 7 0 3 0;
#X connect 8 0 4 0;
#X connect 9 0 8 0;
#X connect 10 0 64 0;
#X connect 11 0 12 0;
#X connect 12 0 10 1;
#X connect 13 0 3 1;
#X connect 20 0 69 0;
#X connect 21 0 20 0;
#X connect 22 0 20 0;
#X connect 23 0 22 0;
#X connect 23 1 21 0;
#X connect 24 0 28 0;
#X connect 25 0 23 0;
#X connect 25 1 24 0;
#X connect 26 0 25 0;
#X connect 26 1 24 1;
#X connect 27 0 28 1;
#X connect 28 0 108 0;
#X connect 29 0 27 0;
#X connect 30 0 26 0;
#X connect 36 0 2 1;
#X connect 37 0 62 3;
#X connect 38 0 62 2;
#X connect 39 0 62 1;
#X connect 40 0 62 4;
#X connect 41 0 62 5;
#X connect 42 0 62 6;
#X connect 43 0 62 7;
#X connect 44 0 62 8;
#X connect 45 0 62 9;
#X connect 46 0 62 10;
#X connect 47 0 62 11;
#X connect 48 0 62 12;
#X connect 49 0 62 13;
#X connect 50 0 62 14;
#X connect 51 0 62 15;
#X connect 52 0 62 16;
#X connect 53 0 62 17;
#X connect 54 0 62 18;
#X connect 55 0 62 19;
#X connect 56 0 62 20;
#X connect 57 0 62 21;
#X connect 58 0 62 22;
#X connect 59 0 62 23;
#X connect 60 0 62 24;
#X connect 61 0 62 25;
#X connect 62 0 63 0;
#X connect 63 0 1 0;
#X connect 64 0 1 0;
#X connect 69 0 65 0;
#X connect 69 1 66 0;
#X connect 69 2 67 0;
#X connect 69 3 68 0;
#X connect 69 4 92 0;
#X connect 69 5 93 0;
#X connect 69 6 94 0;
#X connect 69 7 95 0;
#X connect 69 8 96 0;
#X connect 69 9 97 0;
#X connect 69 10 98 0;
#X connect 69 11 99 0;
#X connect 69 12 100 0;
#X connect 69 13 101 0;
#X connect 69 14 102 0;
#X connect 69 15 103 0;
#X connect 69 16 82 0;
#X connect 69 17 83 0;
#X connect 69 18 84 0;
#X connect 69 19 85 0;
#X connect 69 20 104 0;
#X connect 69 21 105 0;
#X connect 69 22 106 0;
#X connect 69 23 107 0;
#X connect 69 24 90 0;
#X connect 69 25 91 0;
#X connect 92 0 70 0;
#X connect 93 0 71 0;
#X connect 94 0 72 0;
#X connect 95 0 73 0;
#X connect 96 0 74 0;
#X connect 97 0 75 0;
#X connect 98 0 76 0;
#X connect 99 0 77 0;
#X connect 100 0 78 0;
#X connect 101 0 79 0;
#X connect 102 0 80 0;
#X connect 103 0 81 0;
#X connect 104 0 86 0;
#X connect 105 0 87 0;
#X connect 106 0 88 0;
#X connect 107 0 89 0;
#X connect 108 0 20 0;
#X restore 33 1385 pd state-saving-via-preset-manager-module;
#N canvas 74 29 1366 679 parameter-nudging-system 0;
#X obj 47 21 cnv 15 580 600 empty empty Knobs 20 20 0 20 -261234 -33289
0;
#N canvas 3 56 484 497 nudge-attenuators 0;
#X obj 124 234 random;
#X obj 232 335 f;
#X obj 232 368 +;
#X obj 257 166 random 2;
#X obj 124 275 t f f;
#X obj 124 351 t b f;
#X obj 124 297 *;
#X obj 257 188 sel 0 1;
#X msg 257 280 -1;
#X msg 335 280 1;
#X obj 124 149 t b b b;
#X obj 124 71 r NUDGE!;
#X obj 157 193 r NUDGE-RANGE;
#X obj 247 308 inlet;
#X obj 232 397 outlet;
#X obj 124 93 spigot;
#X obj 201 76 r attenuators2-s;
#X connect 0 0 4 0;
#X connect 1 0 2 0;
#X connect 2 0 14 0;
#X connect 3 0 7 0;
#X connect 4 0 6 0;
#X connect 5 0 2 0;
#X connect 5 1 2 1;
#X connect 6 0 5 0;
#X connect 7 0 8 0;
#X connect 7 1 9 0;
#X connect 8 0 6 1;
#X connect 9 0 6 1;
#X connect 10 0 0 0;
#X connect 10 1 1 0;
#X connect 10 2 3 0;
#X connect 11 0 15 0;
#X connect 12 0 0 1;
#X connect 13 0 1 1;
#X connect 15 0 10 0;
#X connect 16 0 15 1;
#X restore 58 99 pd nudge-attenuators;
#X obj 58 121 clip 0.1 10;
#N canvas 3 56 484 497 nudge-attenuators 0;
#X obj 124 234 random;
#X obj 232 335 f;
#X obj 232 368 +;
#X obj 257 166 random 2;
#X obj 124 275 t f f;
#X obj 124 351 t b f;
#X obj 124 297 *;
#X obj 257 188 sel 0 1;
#X msg 257 280 -1;
#X msg 335 280 1;
#X obj 124 149 t b b b;
#X obj 124 71 r NUDGE!;
#X obj 157 193 r NUDGE-RANGE;
#X obj 247 308 inlet;
#X obj 232 397 outlet;
#X obj 124 93 spigot;
#X obj 201 76 r attenuators2-s;
#X connect 0 0 4 0;
#X connect 1 0 2 0;
#X connect 2 0 14 0;
#X connect 3 0 7 0;
#X connect 4 0 6 0;
#X connect 5 0 2 0;
#X connect 5 1 2 1;
#X connect 6 0 5 0;
#X connect 7 0 8 0;
#X connect 7 1 9 0;
#X connect 8 0 6 1;
#X connect 9 0 6 1;
#X connect 10 0 0 0;
#X connect 10 1 1 0;
#X connect 10 2 3 0;
#X connect 11 0 15 0;
#X connect 12 0 0 1;
#X connect 13 0 1 1;
#X connect 15 0 10 0;
#X connect 16 0 15 1;
#X restore 202 99 pd nudge-attenuators;
#X obj 202 121 clip 0.1 10;
#N canvas 3 56 484 497 nudge-attenuators 0;
#X obj 124 234 random;
#X obj 232 335 f;
#X obj 232 368 +;
#X obj 257 166 random 2;
#X obj 124 275 t f f;
#X obj 124 351 t b f;
#X obj 124 297 *;
#X obj 257 188 sel 0 1;
#X msg 257 280 -1;
#X msg 335 280 1;
#X obj 124 149 t b b b;
#X obj 124 71 r NUDGE!;
#X obj 157 193 r NUDGE-RANGE;
#X obj 247 308 inlet;
#X obj 232 397 outlet;
#X obj 124 93 spigot;
#X obj 201 76 r attenuators2-s;
#X connect 0 0 4 0;
#X connect 1 0 2 0;
#X connect 2 0 14 0;
#X connect 3 0 7 0;
#X connect 4 0 6 0;
#X connect 5 0 2 0;
#X connect 5 1 2 1;
#X connect 6 0 5 0;
#X connect 7 0 8 0;
#X connect 7 1 9 0;
#X connect 8 0 6 1;
#X connect 9 0 6 1;
#X connect 10 0 0 0;
#X connect 10 1 1 0;
#X connect 10 2 3 0;
#X connect 11 0 15 0;
#X connect 12 0 0 1;
#X connect 13 0 1 1;
#X connect 15 0 10 0;
#X connect 16 0 15 1;
#X restore 338 99 pd nudge-attenuators;
#X obj 338 121 clip 0.1 10;
#N canvas 3 56 484 497 nudge-attenuators 0;
#X obj 124 234 random;
#X obj 232 335 f;
#X obj 232 368 +;
#X obj 257 166 random 2;
#X obj 124 275 t f f;
#X obj 124 351 t b f;
#X obj 124 297 *;
#X obj 257 188 sel 0 1;
#X msg 257 280 -1;
#X msg 335 280 1;
#X obj 124 149 t b b b;
#X obj 124 71 r NUDGE!;
#X obj 157 193 r NUDGE-RANGE;
#X obj 247 308 inlet;
#X obj 232 397 outlet;
#X obj 124 93 spigot;
#X obj 201 76 r attenuators2-s;
#X connect 0 0 4 0;
#X connect 1 0 2 0;
#X connect 2 0 14 0;
#X connect 3 0 7 0;
#X connect 4 0 6 0;
#X connect 5 0 2 0;
#X connect 5 1 2 1;
#X connect 6 0 5 0;
#X connect 7 0 8 0;
#X connect 7 1 9 0;
#X connect 8 0 6 1;
#X connect 9 0 6 1;
#X connect 10 0 0 0;
#X connect 10 1 1 0;
#X connect 10 2 3 0;
#X connect 11 0 15 0;
#X connect 12 0 0 1;
#X connect 13 0 1 1;
#X connect 15 0 10 0;
#X connect 16 0 15 1;
#X restore 482 99 pd nudge-attenuators;
#X obj 482 121 clip 0.1 10;
#N canvas 3 56 484 497 nudge-attenuators 0;
#X obj 124 234 random;
#X obj 232 335 f;
#X obj 232 368 +;
#X obj 257 166 random 2;
#X obj 124 275 t f f;
#X obj 124 351 t b f;
#X obj 124 297 *;
#X obj 257 188 sel 0 1;
#X msg 257 280 -1;
#X msg 335 280 1;
#X obj 124 149 t b b b;
#X obj 124 71 r NUDGE!;
#X obj 157 193 r NUDGE-RANGE;
#X obj 247 308 inlet;
#X obj 232 397 outlet;
#X obj 124 93 spigot;
#X obj 201 76 r attenuators2-s;
#X connect 0 0 4 0;
#X connect 1 0 2 0;
#X connect 2 0 14 0;
#X connect 3 0 7 0;
#X connect 4 0 6 0;
#X connect 5 0 2 0;
#X connect 5 1 2 1;
#X connect 6 0 5 0;
#X connect 7 0 8 0;
#X connect 7 1 9 0;
#X connect 8 0 6 1;
#X connect 9 0 6 1;
#X connect 10 0 0 0;
#X connect 10 1 1 0;
#X connect 10 2 3 0;
#X connect 11 0 15 0;
#X connect 12 0 0 1;
#X connect 13 0 1 1;
#X connect 15 0 10 0;
#X connect 16 0 15 1;
#X restore 58 234 pd nudge-attenuators;
#X obj 58 256 clip 0.1 10;
#N canvas 3 56 484 497 nudge-attenuators 0;
#X obj 124 234 random;
#X obj 232 335 f;
#X obj 232 368 +;
#X obj 257 166 random 2;
#X obj 124 275 t f f;
#X obj 124 351 t b f;
#X obj 124 297 *;
#X obj 257 188 sel 0 1;
#X msg 257 280 -1;
#X msg 335 280 1;
#X obj 124 149 t b b b;
#X obj 124 71 r NUDGE!;
#X obj 157 193 r NUDGE-RANGE;
#X obj 247 308 inlet;
#X obj 232 397 outlet;
#X obj 124 93 spigot;
#X obj 201 76 r attenuators2-s;
#X connect 0 0 4 0;
#X connect 1 0 2 0;
#X connect 2 0 14 0;
#X connect 3 0 7 0;
#X connect 4 0 6 0;
#X connect 5 0 2 0;
#X connect 5 1 2 1;
#X connect 6 0 5 0;
#X connect 7 0 8 0;
#X connect 7 1 9 0;
#X connect 8 0 6 1;
#X connect 9 0 6 1;
#X connect 10 0 0 0;
#X connect 10 1 1 0;
#X connect 10 2 3 0;
#X connect 11 0 15 0;
#X connect 12 0 0 1;
#X connect 13 0 1 1;
#X connect 15 0 10 0;
#X connect 16 0 15 1;
#X restore 201 235 pd nudge-attenuators;
#X obj 201 257 clip 0.1 10;
#N canvas 3 56 484 497 nudge-attenuators 0;
#X obj 124 234 random;
#X obj 232 335 f;
#X obj 232 368 +;
#X obj 257 166 random 2;
#X obj 124 275 t f f;
#X obj 124 351 t b f;
#X obj 124 297 *;
#X obj 257 188 sel 0 1;
#X msg 257 280 -1;
#X msg 335 280 1;
#X obj 124 149 t b b b;
#X obj 124 71 r NUDGE!;
#X obj 157 193 r NUDGE-RANGE;
#X obj 247 308 inlet;
#X obj 232 397 outlet;
#X obj 124 93 spigot;
#X obj 201 76 r attenuators2-s;
#X connect 0 0 4 0;
#X connect 1 0 2 0;
#X connect 2 0 14 0;
#X connect 3 0 7 0;
#X connect 4 0 6 0;
#X connect 5 0 2 0;
#X connect 5 1 2 1;
#X connect 6 0 5 0;
#X connect 7 0 8 0;
#X connect 7 1 9 0;
#X connect 8 0 6 1;
#X connect 9 0 6 1;
#X connect 10 0 0 0;
#X connect 10 1 1 0;
#X connect 10 2 3 0;
#X connect 11 0 15 0;
#X connect 12 0 0 1;
#X connect 13 0 1 1;
#X connect 15 0 10 0;
#X connect 16 0 15 1;
#X restore 338 235 pd nudge-attenuators;
#X obj 338 257 clip 0.1 10;
#N canvas 3 56 484 497 nudge-attenuators 0;
#X obj 124 234 random;
#X obj 232 335 f;
#X obj 232 368 +;
#X obj 257 166 random 2;
#X obj 124 275 t f f;
#X obj 124 351 t b f;
#X obj 124 297 *;
#X obj 257 188 sel 0 1;
#X msg 257 280 -1;
#X msg 335 280 1;
#X obj 124 149 t b b b;
#X obj 124 71 r NUDGE!;
#X obj 157 193 r NUDGE-RANGE;
#X obj 247 308 inlet;
#X obj 232 397 outlet;
#X obj 124 93 spigot;
#X obj 201 76 r attenuators2-s;
#X connect 0 0 4 0;
#X connect 1 0 2 0;
#X connect 2 0 14 0;
#X connect 3 0 7 0;
#X connect 4 0 6 0;
#X connect 5 0 2 0;
#X connect 5 1 2 1;
#X connect 6 0 5 0;
#X connect 7 0 8 0;
#X connect 7 1 9 0;
#X connect 8 0 6 1;
#X connect 9 0 6 1;
#X connect 10 0 0 0;
#X connect 10 1 1 0;
#X connect 10 2 3 0;
#X connect 11 0 15 0;
#X connect 12 0 0 1;
#X connect 13 0 1 1;
#X connect 15 0 10 0;
#X connect 16 0 15 1;
#X restore 481 236 pd nudge-attenuators;
#X obj 481 258 clip 0.1 10;
#N canvas 3 56 484 497 nudge-attenuators 0;
#X obj 124 234 random;
#X obj 232 335 f;
#X obj 232 368 +;
#X obj 257 166 random 2;
#X obj 124 275 t f f;
#X obj 124 351 t b f;
#X obj 124 297 *;
#X obj 257 188 sel 0 1;
#X msg 257 280 -1;
#X msg 335 280 1;
#X obj 124 149 t b b b;
#X obj 124 71 r NUDGE!;
#X obj 157 193 r NUDGE-RANGE;
#X obj 247 308 inlet;
#X obj 232 397 outlet;
#X obj 124 93 spigot;
#X obj 201 76 r attenuators2-s;
#X connect 0 0 4 0;
#X connect 1 0 2 0;
#X connect 2 0 14 0;
#X connect 3 0 7 0;
#X connect 4 0 6 0;
#X connect 5 0 2 0;
#X connect 5 1 2 1;
#X connect 6 0 5 0;
#X connect 7 0 8 0;
#X connect 7 1 9 0;
#X connect 8 0 6 1;
#X connect 9 0 6 1;
#X connect 10 0 0 0;
#X connect 10 1 1 0;
#X connect 10 2 3 0;
#X connect 11 0 15 0;
#X connect 12 0 0 1;
#X connect 13 0 1 1;
#X connect 15 0 10 0;
#X connect 16 0 15 1;
#X restore 57 364 pd nudge-attenuators;
#X obj 57 386 clip 0.1 10;
#N canvas 3 56 484 497 nudge-attenuators 0;
#X obj 124 234 random;
#X obj 232 335 f;
#X obj 232 368 +;
#X obj 257 166 random 2;
#X obj 124 275 t f f;
#X obj 124 351 t b f;
#X obj 124 297 *;
#X obj 257 188 sel 0 1;
#X msg 257 280 -1;
#X msg 335 280 1;
#X obj 124 149 t b b b;
#X obj 124 71 r NUDGE!;
#X obj 157 193 r NUDGE-RANGE;
#X obj 247 308 inlet;
#X obj 232 397 outlet;
#X obj 124 93 spigot;
#X obj 201 76 r attenuators2-s;
#X connect 0 0 4 0;
#X connect 1 0 2 0;
#X connect 2 0 14 0;
#X connect 3 0 7 0;
#X connect 4 0 6 0;
#X connect 5 0 2 0;
#X connect 5 1 2 1;
#X connect 6 0 5 0;
#X connect 7 0 8 0;
#X connect 7 1 9 0;
#X connect 8 0 6 1;
#X connect 9 0 6 1;
#X connect 10 0 0 0;
#X connect 10 1 1 0;
#X connect 10 2 3 0;
#X connect 11 0 15 0;
#X connect 12 0 0 1;
#X connect 13 0 1 1;
#X connect 15 0 10 0;
#X connect 16 0 15 1;
#X restore 200 365 pd nudge-attenuators;
#X obj 200 387 clip 0.1 10;
#N canvas 3 56 484 497 nudge-attenuators 0;
#X obj 124 234 random;
#X obj 232 335 f;
#X obj 232 368 +;
#X obj 257 166 random 2;
#X obj 124 275 t f f;
#X obj 124 351 t b f;
#X obj 124 297 *;
#X obj 257 188 sel 0 1;
#X msg 257 280 -1;
#X msg 335 280 1;
#X obj 124 149 t b b b;
#X obj 124 71 r NUDGE!;
#X obj 157 193 r NUDGE-RANGE;
#X obj 247 308 inlet;
#X obj 232 397 outlet;
#X obj 124 93 spigot;
#X obj 201 76 r attenuators2-s;
#X connect 0 0 4 0;
#X connect 1 0 2 0;
#X connect 2 0 14 0;
#X connect 3 0 7 0;
#X connect 4 0 6 0;
#X connect 5 0 2 0;
#X connect 5 1 2 1;
#X connect 6 0 5 0;
#X connect 7 0 8 0;
#X connect 7 1 9 0;
#X connect 8 0 6 1;
#X connect 9 0 6 1;
#X connect 10 0 0 0;
#X connect 10 1 1 0;
#X connect 10 2 3 0;
#X connect 11 0 15 0;
#X connect 12 0 0 1;
#X connect 13 0 1 1;
#X connect 15 0 10 0;
#X connect 16 0 15 1;
#X restore 337 365 pd nudge-attenuators;
#X obj 337 387 clip 0.1 10;
#N canvas 3 56 484 497 nudge-attenuators 0;
#X obj 124 234 random;
#X obj 232 335 f;
#X obj 232 368 +;
#X obj 257 166 random 2;
#X obj 124 275 t f f;
#X obj 124 351 t b f;
#X obj 124 297 *;
#X obj 257 188 sel 0 1;
#X msg 257 280 -1;
#X msg 335 280 1;
#X obj 124 149 t b b b;
#X obj 124 71 r NUDGE!;
#X obj 157 193 r NUDGE-RANGE;
#X obj 247 308 inlet;
#X obj 232 397 outlet;
#X obj 124 93 spigot;
#X obj 201 76 r attenuators2-s;
#X connect 0 0 4 0;
#X connect 1 0 2 0;
#X connect 2 0 14 0;
#X connect 3 0 7 0;
#X connect 4 0 6 0;
#X connect 5 0 2 0;
#X connect 5 1 2 1;
#X connect 6 0 5 0;
#X connect 7 0 8 0;
#X connect 7 1 9 0;
#X connect 8 0 6 1;
#X connect 9 0 6 1;
#X connect 10 0 0 0;
#X connect 10 1 1 0;
#X connect 10 2 3 0;
#X connect 11 0 15 0;
#X connect 12 0 0 1;
#X connect 13 0 1 1;
#X connect 15 0 10 0;
#X connect 16 0 15 1;
#X restore 480 366 pd nudge-attenuators;
#X obj 480 388 clip 0.1 10;
#N canvas 3 56 484 497 nudge-attenuators 0;
#X obj 124 234 random;
#X obj 232 335 f;
#X obj 232 368 +;
#X obj 257 166 random 2;
#X obj 124 275 t f f;
#X obj 124 351 t b f;
#X obj 124 297 *;
#X obj 257 188 sel 0 1;
#X msg 257 280 -1;
#X msg 335 280 1;
#X obj 124 149 t b b b;
#X obj 124 71 r NUDGE!;
#X obj 157 193 r NUDGE-RANGE;
#X obj 247 308 inlet;
#X obj 232 397 outlet;
#X obj 124 93 spigot;
#X obj 201 76 r attenuators2-s;
#X connect 0 0 4 0;
#X connect 1 0 2 0;
#X connect 2 0 14 0;
#X connect 3 0 7 0;
#X connect 4 0 6 0;
#X connect 5 0 2 0;
#X connect 5 1 2 1;
#X connect 6 0 5 0;
#X connect 7 0 8 0;
#X connect 7 1 9 0;
#X connect 8 0 6 1;
#X connect 9 0 6 1;
#X connect 10 0 0 0;
#X connect 10 1 1 0;
#X connect 10 2 3 0;
#X connect 11 0 15 0;
#X connect 12 0 0 1;
#X connect 13 0 1 1;
#X connect 15 0 10 0;
#X connect 16 0 15 1;
#X restore 57 495 pd nudge-attenuators;
#X obj 57 517 clip 0.1 10;
#N canvas 3 56 484 497 nudge-attenuators 0;
#X obj 124 234 random;
#X obj 232 335 f;
#X obj 232 368 +;
#X obj 257 166 random 2;
#X obj 124 275 t f f;
#X obj 124 351 t b f;
#X obj 124 297 *;
#X obj 257 188 sel 0 1;
#X msg 257 280 -1;
#X msg 335 280 1;
#X obj 124 149 t b b b;
#X obj 124 71 r NUDGE!;
#X obj 157 193 r NUDGE-RANGE;
#X obj 247 308 inlet;
#X obj 232 397 outlet;
#X obj 124 93 spigot;
#X obj 201 76 r attenuators2-s;
#X connect 0 0 4 0;
#X connect 1 0 2 0;
#X connect 2 0 14 0;
#X connect 3 0 7 0;
#X connect 4 0 6 0;
#X connect 5 0 2 0;
#X connect 5 1 2 1;
#X connect 6 0 5 0;
#X connect 7 0 8 0;
#X connect 7 1 9 0;
#X connect 8 0 6 1;
#X connect 9 0 6 1;
#X connect 10 0 0 0;
#X connect 10 1 1 0;
#X connect 10 2 3 0;
#X connect 11 0 15 0;
#X connect 12 0 0 1;
#X connect 13 0 1 1;
#X connect 15 0 10 0;
#X connect 16 0 15 1;
#X restore 201 495 pd nudge-attenuators;
#X obj 201 517 clip 0.1 10;
#N canvas 3 56 484 497 nudge-attenuators 0;
#X obj 124 234 random;
#X obj 232 335 f;
#X obj 232 368 +;
#X obj 257 166 random 2;
#X obj 124 275 t f f;
#X obj 124 351 t b f;
#X obj 124 297 *;
#X obj 257 188 sel 0 1;
#X msg 257 280 -1;
#X msg 335 280 1;
#X obj 124 149 t b b b;
#X obj 124 71 r NUDGE!;
#X obj 157 193 r NUDGE-RANGE;
#X obj 247 308 inlet;
#X obj 232 397 outlet;
#X obj 124 93 spigot;
#X obj 201 76 r attenuators2-s;
#X connect 0 0 4 0;
#X connect 1 0 2 0;
#X connect 2 0 14 0;
#X connect 3 0 7 0;
#X connect 4 0 6 0;
#X connect 5 0 2 0;
#X connect 5 1 2 1;
#X connect 6 0 5 0;
#X connect 7 0 8 0;
#X connect 7 1 9 0;
#X connect 8 0 6 1;
#X connect 9 0 6 1;
#X connect 10 0 0 0;
#X connect 10 1 1 0;
#X connect 10 2 3 0;
#X connect 11 0 15 0;
#X connect 12 0 0 1;
#X connect 13 0 1 1;
#X connect 15 0 10 0;
#X connect 16 0 15 1;
#X restore 337 495 pd nudge-attenuators;
#X obj 337 517 clip 0.1 10;
#N canvas 3 56 484 497 nudge-attenuators 0;
#X obj 124 234 random;
#X obj 232 335 f;
#X obj 232 368 +;
#X obj 257 166 random 2;
#X obj 124 275 t f f;
#X obj 124 351 t b f;
#X obj 124 297 *;
#X obj 257 188 sel 0 1;
#X msg 257 280 -1;
#X msg 335 280 1;
#X obj 124 149 t b b b;
#X obj 124 71 r NUDGE!;
#X obj 157 193 r NUDGE-RANGE;
#X obj 247 308 inlet;
#X obj 232 397 outlet;
#X obj 124 93 spigot;
#X obj 201 76 r attenuators2-s;
#X connect 0 0 4 0;
#X connect 1 0 2 0;
#X connect 2 0 14 0;
#X connect 3 0 7 0;
#X connect 4 0 6 0;
#X connect 5 0 2 0;
#X connect 5 1 2 1;
#X connect 6 0 5 0;
#X connect 7 0 8 0;
#X connect 7 1 9 0;
#X connect 8 0 6 1;
#X connect 9 0 6 1;
#X connect 10 0 0 0;
#X connect 10 1 1 0;
#X connect 10 2 3 0;
#X connect 11 0 15 0;
#X connect 12 0 0 1;
#X connect 13 0 1 1;
#X connect 15 0 10 0;
#X connect 16 0 15 1;
#X restore 481 495 pd nudge-attenuators;
#X obj 481 517 clip 0.1 10;
#X obj 642 21 cnv 15 750 570 empty empty Toggles/Radiobuttons 20 20
0 20 -261682 -33289 0;
#X obj 58 71 r \$0-um-ch1-fader-s;
#X obj 58 151 s \$0-um-ch1-fader-r;
#X obj 202 71 r \$0-um-ch2-fader-s;
#X obj 202 151 s \$0-um-ch2-fader-r;
#X obj 338 71 r \$0-um-ch3-fader-s;
#X obj 338 151 s \$0-um-ch3-fader-r;
#X obj 482 71 r \$0-um-ch4-fader-s;
#X obj 482 151 s \$0-um-ch4-fader-r;
#X obj 58 206 r \$0-um-ch1-panAB-s;
#X obj 58 286 s \$0-um-ch1-panAB-r;
#X obj 201 207 r \$0-um-ch2-panAB-s;
#X obj 201 287 s \$0-um-ch2-panAB-r;
#X obj 338 207 r \$0-um-ch3-panAB-s;
#X obj 338 287 s \$0-um-ch3-panAB-r;
#X obj 481 208 r \$0-um-ch4-panAB-s;
#X obj 481 288 s \$0-um-ch4-panAB-r;
#X obj 57 336 r \$0-um-ch1-echo-s;
#X obj 57 416 s \$0-um-ch1-echo-r;
#X obj 200 337 r \$0-um-ch2-echo-s;
#X obj 200 417 s \$0-um-ch2-echo-r;
#X obj 337 337 r \$0-um-ch3-echo-s;
#X obj 337 417 s \$0-um-ch3-echo-r;
#X obj 480 338 r \$0-um-ch4-echo-s;
#X obj 480 418 s \$0-um-ch4-echo-r;
#X obj 57 467 r \$0-um-ch1-pan12-s;
#X obj 57 547 s \$0-um-ch1-pan12-r;
#X obj 201 467 r \$0-um-ch2-pan12-s;
#X obj 201 547 s \$0-um-ch2-pan12-r;
#X obj 337 467 r \$0-um-ch3-pan34-s;
#X obj 337 547 s \$0-um-ch3-pan34-r;
#X obj 481 467 r \$0-um-ch4-pan34-s;
#X obj 481 547 s \$0-um-ch4-pan34-r;
#X obj 653 113 clip 0 127;
#X obj 653 135 expr $f1/128;
#X obj 653 177 int;
#N canvas 0 22 484 497 nudge-parameters 0;
#X obj 124 234 random;
#X obj 232 335 f;
#X obj 232 368 +;
#X obj 257 166 random 2;
#X obj 124 275 t f f;
#X obj 124 351 t b f;
#X obj 124 297 *;
#X obj 257 188 sel 0 1;
#X msg 257 280 -1;
#X msg 335 280 1;
#X obj 124 149 t b b b;
#X obj 124 74 r NUDGE!;
#X obj 157 193 r NUDGE-RANGE;
#X obj 247 308 inlet;
#X obj 232 397 outlet;
#X obj 124 96 spigot;
#X obj 185 79 r parameters2-s;
#X connect 0 0 4 0;
#X connect 1 0 2 0;
#X connect 2 0 14 0;
#X connect 3 0 7 0;
#X connect 4 0 6 0;
#X connect 5 0 2 0;
#X connect 5 1 2 1;
#X connect 6 0 5 0;
#X connect 7 0 8 0;
#X connect 7 1 9 0;
#X connect 8 0 6 1;
#X connect 9 0 6 1;
#X connect 10 0 0 0;
#X connect 10 1 1 0;
#X connect 10 2 3 0;
#X connect 11 0 15 0;
#X connect 12 0 0 1;
#X connect 13 0 1 1;
#X connect 15 0 10 0;
#X connect 16 0 15 1;
#X restore 653 91 pd nudge-parameters;
#X obj 1083 113 clip 0 127;
#X obj 1083 135 expr $f1/128;
#X obj 1083 177 int;
#N canvas 0 22 484 497 nudge-parameters 0;
#X obj 124 234 random;
#X obj 232 335 f;
#X obj 232 368 +;
#X obj 257 166 random 2;
#X obj 124 275 t f f;
#X obj 124 351 t b f;
#X obj 124 297 *;
#X obj 257 188 sel 0 1;
#X msg 257 280 -1;
#X msg 335 280 1;
#X obj 124 149 t b b b;
#X obj 124 74 r NUDGE!;
#X obj 157 193 r NUDGE-RANGE;
#X obj 247 308 inlet;
#X obj 232 397 outlet;
#X obj 124 96 spigot;
#X obj 185 79 r parameters2-s;
#X connect 0 0 4 0;
#X connect 1 0 2 0;
#X connect 2 0 14 0;
#X connect 3 0 7 0;
#X connect 4 0 6 0;
#X connect 5 0 2 0;
#X connect 5 1 2 1;
#X connect 6 0 5 0;
#X connect 7 0 8 0;
#X connect 7 1 9 0;
#X connect 8 0 6 1;
#X connect 9 0 6 1;
#X connect 10 0 0 0;
#X connect 10 1 1 0;
#X connect 10 2 3 0;
#X connect 11 0 15 0;
#X connect 12 0 0 1;
#X connect 13 0 1 1;
#X connect 15 0 10 0;
#X connect 16 0 15 1;
#X restore 1083 91 pd nudge-parameters;
#X obj 653 470 clip 0 127;
#X obj 653 492 expr $f1/128;
#X obj 653 534 int;
#N canvas 0 22 484 497 nudge-parameters 0;
#X obj 124 234 random;
#X obj 232 335 f;
#X obj 232 368 +;
#X obj 257 166 random 2;
#X obj 124 275 t f f;
#X obj 124 351 t b f;
#X obj 124 297 *;
#X obj 257 188 sel 0 1;
#X msg 257 280 -1;
#X msg 335 280 1;
#X obj 124 149 t b b b;
#X obj 124 74 r NUDGE!;
#X obj 157 193 r NUDGE-RANGE;
#X obj 247 308 inlet;
#X obj 232 397 outlet;
#X obj 124 96 spigot;
#X obj 185 79 r parameters2-s;
#X connect 0 0 4 0;
#X connect 1 0 2 0;
#X connect 2 0 14 0;
#X connect 3 0 7 0;
#X connect 4 0 6 0;
#X connect 5 0 2 0;
#X connect 5 1 2 1;
#X connect 6 0 5 0;
#X connect 7 0 8 0;
#X connect 7 1 9 0;
#X connect 8 0 6 1;
#X connect 9 0 6 1;
#X connect 10 0 0 0;
#X connect 10 1 1 0;
#X connect 10 2 3 0;
#X connect 11 0 15 0;
#X connect 12 0 0 1;
#X connect 13 0 1 1;
#X connect 15 0 10 0;
#X connect 16 0 15 1;
#X restore 653 448 pd nudge-parameters;
#X obj 653 69 r \$0-um-switch1-s;
#X obj 653 199 s \$0-um-switch1-r;
#X obj 653 156 * 2;
#X obj 789 113 clip 0 127;
#X obj 789 135 expr $f1/128;
#X obj 789 177 int;
#N canvas 0 22 484 497 nudge-parameters 0;
#X obj 124 234 random;
#X obj 232 335 f;
#X obj 232 368 +;
#X obj 257 166 random 2;
#X obj 124 275 t f f;
#X obj 124 351 t b f;
#X obj 124 297 *;
#X obj 257 188 sel 0 1;
#X msg 257 280 -1;
#X msg 335 280 1;
#X obj 124 149 t b b b;
#X obj 124 74 r NUDGE!;
#X obj 157 193 r NUDGE-RANGE;
#X obj 247 308 inlet;
#X obj 232 397 outlet;
#X obj 124 96 spigot;
#X obj 185 79 r parameters2-s;
#X connect 0 0 4 0;
#X connect 1 0 2 0;
#X connect 2 0 14 0;
#X connect 3 0 7 0;
#X connect 4 0 6 0;
#X connect 5 0 2 0;
#X connect 5 1 2 1;
#X connect 6 0 5 0;
#X connect 7 0 8 0;
#X connect 7 1 9 0;
#X connect 8 0 6 1;
#X connect 9 0 6 1;
#X connect 10 0 0 0;
#X connect 10 1 1 0;
#X connect 10 2 3 0;
#X connect 11 0 15 0;
#X connect 12 0 0 1;
#X connect 13 0 1 1;
#X connect 15 0 10 0;
#X connect 16 0 15 1;
#X restore 789 91 pd nudge-parameters;
#X obj 937 113 clip 0 127;
#X obj 937 135 expr $f1/128;
#X obj 937 177 int;
#N canvas 0 22 484 497 nudge-parameters 0;
#X obj 124 234 random;
#X obj 232 335 f;
#X obj 232 368 +;
#X obj 257 166 random 2;
#X obj 124 275 t f f;
#X obj 124 351 t b f;
#X obj 124 297 *;
#X obj 257 188 sel 0 1;
#X msg 257 280 -1;
#X msg 335 280 1;
#X obj 124 149 t b b b;
#X obj 124 74 r NUDGE!;
#X obj 157 193 r NUDGE-RANGE;
#X obj 247 308 inlet;
#X obj 232 397 outlet;
#X obj 124 96 spigot;
#X obj 185 79 r parameters2-s;
#X connect 0 0 4 0;
#X connect 1 0 2 0;
#X connect 2 0 14 0;
#X connect 3 0 7 0;
#X connect 4 0 6 0;
#X connect 5 0 2 0;
#X connect 5 1 2 1;
#X connect 6 0 5 0;
#X connect 7 0 8 0;
#X connect 7 1 9 0;
#X connect 8 0 6 1;
#X connect 9 0 6 1;
#X connect 10 0 0 0;
#X connect 10 1 1 0;
#X connect 10 2 3 0;
#X connect 11 0 15 0;
#X connect 12 0 0 1;
#X connect 13 0 1 1;
#X connect 15 0 10 0;
#X connect 16 0 15 1;
#X restore 937 91 pd nudge-parameters;
#X obj 789 156 * 2;
#X obj 937 156 * 2;
#X obj 1083 156 * 2;
#X obj 797 470 clip 0 127;
#X obj 797 492 expr $f1/128;
#X obj 797 534 int;
#N canvas 0 22 484 497 nudge-parameters 0;
#X obj 124 234 random;
#X obj 232 335 f;
#X obj 232 368 +;
#X obj 257 166 random 2;
#X obj 124 275 t f f;
#X obj 124 351 t b f;
#X obj 124 297 *;
#X obj 257 188 sel 0 1;
#X msg 257 280 -1;
#X msg 335 280 1;
#X obj 124 149 t b b b;
#X obj 124 74 r NUDGE!;
#X obj 157 193 r NUDGE-RANGE;
#X obj 247 308 inlet;
#X obj 232 397 outlet;
#X obj 124 96 spigot;
#X obj 185 79 r parameters2-s;
#X connect 0 0 4 0;
#X connect 1 0 2 0;
#X connect 2 0 14 0;
#X connect 3 0 7 0;
#X connect 4 0 6 0;
#X connect 5 0 2 0;
#X connect 5 1 2 1;
#X connect 6 0 5 0;
#X connect 7 0 8 0;
#X connect 7 1 9 0;
#X connect 8 0 6 1;
#X connect 9 0 6 1;
#X connect 10 0 0 0;
#X connect 10 1 1 0;
#X connect 10 2 3 0;
#X connect 11 0 15 0;
#X connect 12 0 0 1;
#X connect 13 0 1 1;
#X connect 15 0 10 0;
#X connect 16 0 15 1;
#X restore 797 448 pd nudge-parameters;
#X obj 653 291 clip 0 127;
#X obj 653 313 expr $f1/128;
#X obj 653 334 * 3;
#X obj 653 355 int;
#N canvas 0 22 484 497 nudge-parameters 0;
#X obj 124 234 random;
#X obj 232 335 f;
#X obj 232 368 +;
#X obj 257 166 random 2;
#X obj 124 275 t f f;
#X obj 124 351 t b f;
#X obj 124 297 *;
#X obj 257 188 sel 0 1;
#X msg 257 280 -1;
#X msg 335 280 1;
#X obj 124 149 t b b b;
#X obj 124 74 r NUDGE!;
#X obj 157 193 r NUDGE-RANGE;
#X obj 247 308 inlet;
#X obj 232 397 outlet;
#X obj 124 96 spigot;
#X obj 185 79 r parameters2-s;
#X connect 0 0 4 0;
#X connect 1 0 2 0;
#X connect 2 0 14 0;
#X connect 3 0 7 0;
#X connect 4 0 6 0;
#X connect 5 0 2 0;
#X connect 5 1 2 1;
#X connect 6 0 5 0;
#X connect 7 0 8 0;
#X connect 7 1 9 0;
#X connect 8 0 6 1;
#X connect 9 0 6 1;
#X connect 10 0 0 0;
#X connect 10 1 1 0;
#X connect 10 2 3 0;
#X connect 11 0 15 0;
#X connect 12 0 0 1;
#X connect 13 0 1 1;
#X connect 15 0 10 0;
#X connect 16 0 15 1;
#X restore 653 269 pd nudge-parameters;
#X obj 837 291 clip 0 127;
#X obj 837 313 expr $f1/128;
#X obj 837 334 * 3;
#X obj 837 355 int;
#N canvas 0 22 484 497 nudge-parameters 0;
#X obj 124 234 random;
#X obj 232 335 f;
#X obj 232 368 +;
#X obj 257 166 random 2;
#X obj 124 275 t f f;
#X obj 124 351 t b f;
#X obj 124 297 *;
#X obj 257 188 sel 0 1;
#X msg 257 280 -1;
#X msg 335 280 1;
#X obj 124 149 t b b b;
#X obj 124 74 r NUDGE!;
#X obj 157 193 r NUDGE-RANGE;
#X obj 247 308 inlet;
#X obj 232 397 outlet;
#X obj 124 96 spigot;
#X obj 185 79 r parameters2-s;
#X connect 0 0 4 0;
#X connect 1 0 2 0;
#X connect 2 0 14 0;
#X connect 3 0 7 0;
#X connect 4 0 6 0;
#X connect 5 0 2 0;
#X connect 5 1 2 1;
#X connect 6 0 5 0;
#X connect 7 0 8 0;
#X connect 7 1 9 0;
#X connect 8 0 6 1;
#X connect 9 0 6 1;
#X connect 10 0 0 0;
#X connect 10 1 1 0;
#X connect 10 2 3 0;
#X connect 11 0 15 0;
#X connect 12 0 0 1;
#X connect 13 0 1 1;
#X connect 15 0 10 0;
#X connect 16 0 15 1;
#X restore 837 269 pd nudge-parameters;
#X obj 1023 291 clip 0 127;
#X obj 1023 313 expr $f1/128;
#X obj 1023 334 * 3;
#X obj 1023 355 int;
#N canvas 0 22 484 497 nudge-parameters 0;
#X obj 124 234 random;
#X obj 232 335 f;
#X obj 232 368 +;
#X obj 257 166 random 2;
#X obj 124 275 t f f;
#X obj 124 351 t b f;
#X obj 124 297 *;
#X obj 257 188 sel 0 1;
#X msg 257 280 -1;
#X msg 335 280 1;
#X obj 124 149 t b b b;
#X obj 124 74 r NUDGE!;
#X obj 157 193 r NUDGE-RANGE;
#X obj 247 308 inlet;
#X obj 232 397 outlet;
#X obj 124 96 spigot;
#X obj 185 79 r parameters2-s;
#X connect 0 0 4 0;
#X connect 1 0 2 0;
#X connect 2 0 14 0;
#X connect 3 0 7 0;
#X connect 4 0 6 0;
#X connect 5 0 2 0;
#X connect 5 1 2 1;
#X connect 6 0 5 0;
#X connect 7 0 8 0;
#X connect 7 1 9 0;
#X connect 8 0 6 1;
#X connect 9 0 6 1;
#X connect 10 0 0 0;
#X connect 10 1 1 0;
#X connect 10 2 3 0;
#X connect 11 0 15 0;
#X connect 12 0 0 1;
#X connect 13 0 1 1;
#X connect 15 0 10 0;
#X connect 16 0 15 1;
#X restore 1023 269 pd nudge-parameters;
#X obj 1207 291 clip 0 127;
#X obj 1207 313 expr $f1/128;
#X obj 1207 334 * 3;
#X obj 1207 355 int;
#N canvas 0 22 484 497 nudge-parameters 0;
#X obj 124 234 random;
#X obj 232 335 f;
#X obj 232 368 +;
#X obj 257 166 random 2;
#X obj 124 275 t f f;
#X obj 124 351 t b f;
#X obj 124 297 *;
#X obj 257 188 sel 0 1;
#X msg 257 280 -1;
#X msg 335 280 1;
#X obj 124 149 t b b b;
#X obj 124 74 r NUDGE!;
#X obj 157 193 r NUDGE-RANGE;
#X obj 247 308 inlet;
#X obj 232 397 outlet;
#X obj 124 96 spigot;
#X obj 185 79 r parameters2-s;
#X connect 0 0 4 0;
#X connect 1 0 2 0;
#X connect 2 0 14 0;
#X connect 3 0 7 0;
#X connect 4 0 6 0;
#X connect 5 0 2 0;
#X connect 5 1 2 1;
#X connect 6 0 5 0;
#X connect 7 0 8 0;
#X connect 7 1 9 0;
#X connect 8 0 6 1;
#X connect 9 0 6 1;
#X connect 10 0 0 0;
#X connect 10 1 1 0;
#X connect 10 2 3 0;
#X connect 11 0 15 0;
#X connect 12 0 0 1;
#X connect 13 0 1 1;
#X connect 15 0 10 0;
#X connect 16 0 15 1;
#X restore 1207 269 pd nudge-parameters;
#X obj 653 513 * 2;
#X obj 797 513 * 2;
#X obj 789 69 r \$0-um-switch2-s;
#X obj 937 69 r \$0-um-switch3-s;
#X obj 789 199 s \$0-um-switch2-r;
#X obj 937 199 s \$0-um-switch3-r;
#X obj 1083 69 r \$0-um-switch4-s;
#X obj 1083 199 s \$0-um-switch4-r;
#X obj 653 247 r \$0-um-switch-preoffpost1-s;
#X obj 837 247 r \$0-um-switch-preoffpost2-s;
#X obj 1023 247 r \$0-um-switch-preoffpost3-s;
#X obj 1207 247 r \$0-um-switch-preoffpost4-s;
#X obj 653 377 s \$0-um-switch-preoffpost1-r;
#X obj 837 377 s \$0-um-switch-preoffpost2-r;
#X obj 1023 377 s \$0-um-switch-preoffpost3-r;
#X obj 1207 377 s \$0-um-switch-preoffpost4-r;
#X obj 653 556 s \$0-um-switchA-r;
#X obj 797 556 s \$0-um-switchB-r;
#X obj 797 426 r \$0-um-switchB-s;
#X obj 653 426 r \$0-um-switchA-s;
#X connect 1 0 2 0;
#X connect 2 0 35 0;
#X connect 3 0 4 0;
#X connect 4 0 37 0;
#X connect 5 0 6 0;
#X connect 6 0 39 0;
#X connect 7 0 8 0;
#X connect 8 0 41 0;
#X connect 9 0 10 0;
#X connect 10 0 43 0;
#X connect 11 0 12 0;
#X connect 12 0 45 0;
#X connect 13 0 14 0;
#X connect 14 0 47 0;
#X connect 15 0 16 0;
#X connect 16 0 49 0;
#X connect 17 0 18 0;
#X connect 18 0 51 0;
#X connect 19 0 20 0;
#X connect 20 0 53 0;
#X connect 21 0 22 0;
#X connect 22 0 55 0;
#X connect 23 0 24 0;
#X connect 24 0 57 0;
#X connect 25 0 26 0;
#X connect 26 0 59 0;
#X connect 27 0 28 0;
#X connect 28 0 61 0;
#X connect 29 0 30 0;
#X connect 30 0 63 0;
#X connect 31 0 32 0;
#X connect 32 0 65 0;
#X connect 34 0 1 0;
#X connect 36 0 3 0;
#X connect 38 0 5 0;
#X connect 40 0 7 0;
#X connect 42 0 9 0;
#X connect 44 0 11 0;
#X connect 46 0 13 0;
#X connect 48 0 15 0;
#X connect 50 0 17 0;
#X connect 52 0 19 0;
#X connect 54 0 21 0;
#X connect 56 0 23 0;
#X connect 58 0 25 0;
#X connect 60 0 27 0;
#X connect 62 0 29 0;
#X connect 64 0 31 0;
#X connect 66 0 67 0;
#X connect 67 0 80 0;
#X connect 68 0 79 0;
#X connect 69 0 66 0;
#X connect 70 0 71 0;
#X connect 71 0 91 0;
#X connect 72 0 123 0;
#X connect 73 0 70 0;
#X connect 74 0 75 0;
#X connect 75 0 116 0;
#X connect 76 0 132 0;
#X connect 77 0 74 0;
#X connect 78 0 69 0;
#X connect 80 0 68 0;
#X connect 81 0 82 0;
#X connect 82 0 89 0;
#X connect 83 0 120 0;
#X connect 84 0 81 0;
#X connect 85 0 86 0;
#X connect 86 0 90 0;
#X connect 87 0 121 0;
#X connect 88 0 85 0;
#X connect 89 0 83 0;
#X connect 90 0 87 0;
#X connect 91 0 72 0;
#X connect 92 0 93 0;
#X connect 93 0 117 0;
#X connect 94 0 133 0;
#X connect 95 0 92 0;
#X connect 96 0 97 0;
#X connect 97 0 98 0;
#X connect 98 0 99 0;
#X connect 99 0 128 0;
#X connect 100 0 96 0;
#X connect 101 0 102 0;
#X connect 102 0 103 0;
#X connect 103 0 104 0;
#X connect 104 0 129 0;
#X connect 105 0 101 0;
#X connect 106 0 107 0;
#X connect 107 0 108 0;
#X connect 108 0 109 0;
#X connect 109 0 130 0;
#X connect 110 0 106 0;
#X connect 111 0 112 0;
#X connect 112 0 113 0;
#X connect 113 0 114 0;
#X connect 114 0 131 0;
#X connect 115 0 111 0;
#X connect 116 0 76 0;
#X connect 117 0 94 0;
#X connect 118 0 84 0;
#X connect 119 0 88 0;
#X connect 122 0 73 0;
#X connect 124 0 100 0;
#X connect 125 0 105 0;
#X connect 126 0 110 0;
#X connect 127 0 115 0;
#X connect 134 0 95 0;
#X connect 135 0 77 0;
#X restore 33 1362 pd parameter-nudging-system;
#N canvas 74 55 1366 679 external-messages 0;
#X floatatom 185 535 5 0 0 0 - - -;
#X obj 185 327 spigot;
#X obj 224 278 tgl 15 0 empty empty empty 17 7 0 10 -262144 -1 -1 0
1;
#X obj 267 238 ==;
#X obj 282 214 f \$1;
#X obj 282 190 loadbang;
#X msg 185 202 \$1 \$2;
#X msg 185 156 symbol \$1;
#X obj 185 180 pack s f;
#X obj 185 514 f;
#X obj 185 458 t b f;
#X obj 185 485 spigot;
#X obj 185 62 unpack s f f;
#X symbolatom 185 94 10 0 0 0 - - -;
#X obj 224 298 t f f;
#X obj 257 327 s \$0-msg-spigot;
#X obj 234 459 r \$0-msg-spigot;
#X floatatom 185 666 5 0 0 0 - - -;
#X obj 185 645 f;
#X obj 185 586 t b f;
#X obj 185 616 spigot;
#X obj 235 587 r \$0-msg-spigot;
#X obj 185 555 s \$0-um-switch1-r;
#X obj 185 686 s \$0-um-switch2-r;
#X floatatom 186 792 5 0 0 0 - - -;
#X obj 186 771 f;
#X obj 186 715 t b f;
#X obj 186 742 spigot;
#X obj 235 716 r \$0-msg-spigot;
#X floatatom 186 923 5 0 0 0 - - -;
#X obj 186 902 f;
#X obj 186 843 t b f;
#X obj 186 873 spigot;
#X obj 236 844 r \$0-msg-spigot;
#X obj 186 812 s \$0-um-switch3-r;
#X obj 186 943 s \$0-um-switch4-r;
#X floatatom 350 535 5 0 0 0 - - -;
#X obj 350 514 f;
#X obj 350 458 t b f;
#X obj 350 485 spigot;
#X obj 399 459 r \$0-msg-spigot;
#X floatatom 350 666 5 0 0 0 - - -;
#X obj 350 645 f;
#X obj 350 586 t b f;
#X obj 350 616 spigot;
#X obj 400 587 r \$0-msg-spigot;
#X floatatom 351 792 5 0 0 0 - - -;
#X obj 351 771 f;
#X obj 351 715 t b f;
#X obj 351 742 spigot;
#X obj 400 716 r \$0-msg-spigot;
#X floatatom 351 923 5 0 0 0 - - -;
#X obj 351 902 f;
#X obj 351 843 t b f;
#X obj 351 873 spigot;
#X obj 401 844 r \$0-msg-spigot;
#X floatatom 522 535 5 0 0 0 - - -;
#X obj 522 514 f;
#X obj 522 458 t b f;
#X obj 522 485 spigot;
#X obj 571 459 r \$0-msg-spigot;
#X floatatom 522 666 5 0 0 0 - - -;
#X obj 522 645 f;
#X obj 522 586 t b f;
#X obj 522 616 spigot;
#X obj 572 587 r \$0-msg-spigot;
#X floatatom 523 792 5 0 0 0 - - -;
#X obj 523 771 f;
#X obj 523 715 t b f;
#X obj 523 742 spigot;
#X obj 572 716 r \$0-msg-spigot;
#X floatatom 523 923 5 0 0 0 - - -;
#X obj 523 902 f;
#X obj 523 843 t b f;
#X obj 523 873 spigot;
#X obj 573 844 r \$0-msg-spigot;
#X floatatom 698 534 5 0 0 0 - - -;
#X obj 698 513 f;
#X obj 698 457 t b f;
#X obj 698 484 spigot;
#X obj 747 458 r \$0-msg-spigot;
#X floatatom 698 665 5 0 0 0 - - -;
#X obj 698 644 f;
#X obj 698 585 t b f;
#X obj 698 615 spigot;
#X obj 748 586 r \$0-msg-spigot;
#X floatatom 699 791 5 0 0 0 - - -;
#X obj 699 770 f;
#X obj 699 714 t b f;
#X obj 699 741 spigot;
#X obj 748 715 r \$0-msg-spigot;
#X floatatom 699 922 5 0 0 0 - - -;
#X obj 699 901 f;
#X obj 699 842 t b f;
#X obj 699 872 spigot;
#X obj 749 843 r \$0-msg-spigot;
#X obj 350 555 s \$0-um-ch1-fader-r;
#X obj 350 686 s \$0-um-ch2-fader-r;
#X obj 351 812 s \$0-um-ch3-fader-r;
#X obj 351 943 s \$0-um-ch4-fader-r;
#X obj 522 555 s \$0-um-ch1-panAB-r;
#X obj 522 686 s \$0-um-ch2-panAB-r;
#X obj 523 812 s \$0-um-ch3-panAB-r;
#X obj 523 943 s \$0-um-ch4-panAB-r;
#X obj 698 554 s \$0-um-ch1-echo-r;
#X obj 698 685 s \$0-um-ch2-echo-r;
#X obj 699 811 s \$0-um-ch3-echo-r;
#X obj 699 942 s \$0-um-ch4-echo-r;
#X floatatom 863 534 5 0 0 0 - - -;
#X obj 863 513 f;
#X obj 863 457 t b f;
#X obj 863 484 spigot;
#X obj 912 458 r \$0-msg-spigot;
#X floatatom 863 665 5 0 0 0 - - -;
#X obj 863 644 f;
#X obj 863 585 t b f;
#X obj 863 615 spigot;
#X obj 913 586 r \$0-msg-spigot;
#X floatatom 864 791 5 0 0 0 - - -;
#X obj 864 770 f;
#X obj 864 714 t b f;
#X obj 864 741 spigot;
#X obj 913 715 r \$0-msg-spigot;
#X floatatom 864 922 5 0 0 0 - - -;
#X obj 864 901 f;
#X obj 864 842 t b f;
#X obj 864 872 spigot;
#X obj 914 843 r \$0-msg-spigot;
#X floatatom 1050 533 5 0 0 0 - - -;
#X obj 1050 512 f;
#X obj 1050 456 t b f;
#X obj 1050 483 spigot;
#X obj 1099 457 r \$0-msg-spigot;
#X floatatom 1050 664 5 0 0 0 - - -;
#X obj 1050 643 f;
#X obj 1050 584 t b f;
#X obj 1050 614 spigot;
#X obj 1100 585 r \$0-msg-spigot;
#X floatatom 1051 790 5 0 0 0 - - -;
#X obj 1051 769 f;
#X obj 1051 713 t b f;
#X obj 1051 740 spigot;
#X obj 1100 714 r \$0-msg-spigot;
#X floatatom 1051 921 5 0 0 0 - - -;
#X obj 1051 900 f;
#X obj 1051 841 t b f;
#X obj 1051 871 spigot;
#X obj 1101 842 r \$0-msg-spigot;
#X obj 863 554 s \$0-um-switch-preoffpost1-r;
#X obj 863 685 s \$0-um-switch-preoffpost2-r;
#X obj 864 811 s \$0-um-switch-preoffpost3-r;
#X obj 864 942 s \$0-um-switch-preoffpost4-r;
#X obj 1050 553 s \$0-um-ch1-pan12-r;
#X obj 1050 684 s \$0-um-ch2-pan12-r;
#X obj 1051 810 s \$0-um-ch3-pan34-r;
#X obj 1051 941 s \$0-um-ch4-pan34-r;
#X floatatom 1254 533 5 0 0 0 - - -;
#X obj 1254 512 f;
#X obj 1254 456 t b f;
#X obj 1254 483 spigot;
#X obj 1303 457 r \$0-msg-spigot;
#X floatatom 1254 664 5 0 0 0 - - -;
#X obj 1254 643 f;
#X obj 1254 584 t b f;
#X obj 1254 614 spigot;
#X obj 1304 585 r \$0-msg-spigot;
#X obj 1254 553 s \$0-um-switchA-r;
#X obj 1254 684 s \$0-um-switchB-r;
#X obj 185 14 r universal-mixer;
#X obj 185 359 route SOURCE-SWITCH-1 SOURCE-SWITCH-2 SOURCE-SWITCH-3
SOURCE-SWITCH-4 FADER-1 FADER-2 FADER-3 FADER-4 PAN-AB-1 PAN-AB-2 PAN-AB-3
PAN-AB-4 ECHO-SEND-1 ECHO-SEND-2 ECHO-SEND-3 ECHO-SEND-4 PRE-OFF-POST-1
PRE-OFF-POST-2 PRE-OFF-POST-3 PRE-OFF-POST-4 PAN-12-1 PAN-12-2 PAN-34-3
PAN-34-4 SWITCH-A SWITCH-B, f 109;
#X connect 0 0 22 0;
#X connect 1 0 169 0;
#X connect 2 0 14 0;
#X connect 3 0 2 0;
#X connect 4 0 3 1;
#X connect 5 0 4 0;
#X connect 6 0 1 0;
#X connect 7 0 8 0;
#X connect 8 0 6 0;
#X connect 9 0 0 0;
#X connect 10 0 11 0;
#X connect 10 1 9 1;
#X connect 11 0 9 0;
#X connect 12 0 13 0;
#X connect 12 1 8 1;
#X connect 12 2 3 0;
#X connect 13 0 7 0;
#X connect 14 0 1 1;
#X connect 14 1 15 0;
#X connect 16 0 11 1;
#X connect 17 0 23 0;
#X connect 18 0 17 0;
#X connect 19 0 20 0;
#X connect 19 1 18 1;
#X connect 20 0 18 0;
#X connect 21 0 20 1;
#X connect 24 0 34 0;
#X connect 25 0 24 0;
#X connect 26 0 27 0;
#X connect 26 1 25 1;
#X connect 27 0 25 0;
#X connect 28 0 27 1;
#X connect 29 0 35 0;
#X connect 30 0 29 0;
#X connect 31 0 32 0;
#X connect 31 1 30 1;
#X connect 32 0 30 0;
#X connect 33 0 32 1;
#X connect 36 0 96 0;
#X connect 37 0 36 0;
#X connect 38 0 39 0;
#X connect 38 1 37 1;
#X connect 39 0 37 0;
#X connect 40 0 39 1;
#X connect 41 0 97 0;
#X connect 42 0 41 0;
#X connect 43 0 44 0;
#X connect 43 1 42 1;
#X connect 44 0 42 0;
#X connect 45 0 44 1;
#X connect 46 0 98 0;
#X connect 47 0 46 0;
#X connect 48 0 49 0;
#X connect 48 1 47 1;
#X connect 49 0 47 0;
#X connect 50 0 49 1;
#X connect 51 0 99 0;
#X connect 52 0 51 0;
#X connect 53 0 54 0;
#X connect 53 1 52 1;
#X connect 54 0 52 0;
#X connect 55 0 54 1;
#X connect 56 0 100 0;
#X connect 57 0 56 0;
#X connect 58 0 59 0;
#X connect 58 1 57 1;
#X connect 59 0 57 0;
#X connect 60 0 59 1;
#X connect 61 0 101 0;
#X connect 62 0 61 0;
#X connect 63 0 64 0;
#X connect 63 1 62 1;
#X connect 64 0 62 0;
#X connect 65 0 64 1;
#X connect 66 0 102 0;
#X connect 67 0 66 0;
#X connect 68 0 69 0;
#X connect 68 1 67 1;
#X connect 69 0 67 0;
#X connect 70 0 69 1;
#X connect 71 0 103 0;
#X connect 72 0 71 0;
#X connect 73 0 74 0;
#X connect 73 1 72 1;
#X connect 74 0 72 0;
#X connect 75 0 74 1;
#X connect 76 0 104 0;
#X connect 77 0 76 0;
#X connect 78 0 79 0;
#X connect 78 1 77 1;
#X connect 79 0 77 0;
#X connect 80 0 79 1;
#X connect 81 0 105 0;
#X connect 82 0 81 0;
#X connect 83 0 84 0;
#X connect 83 1 82 1;
#X connect 84 0 82 0;
#X connect 85 0 84 1;
#X connect 86 0 106 0;
#X connect 87 0 86 0;
#X connect 88 0 89 0;
#X connect 88 1 87 1;
#X connect 89 0 87 0;
#X connect 90 0 89 1;
#X connect 91 0 107 0;
#X connect 92 0 91 0;
#X connect 93 0 94 0;
#X connect 93 1 92 1;
#X connect 94 0 92 0;
#X connect 95 0 94 1;
#X connect 108 0 148 0;
#X connect 109 0 108 0;
#X connect 110 0 111 0;
#X connect 110 1 109 1;
#X connect 111 0 109 0;
#X connect 112 0 111 1;
#X connect 113 0 149 0;
#X connect 114 0 113 0;
#X connect 115 0 116 0;
#X connect 115 1 114 1;
#X connect 116 0 114 0;
#X connect 117 0 116 1;
#X connect 118 0 150 0;
#X connect 119 0 118 0;
#X connect 120 0 121 0;
#X connect 120 1 119 1;
#X connect 121 0 119 0;
#X connect 122 0 121 1;
#X connect 123 0 151 0;
#X connect 124 0 123 0;
#X connect 125 0 126 0;
#X connect 125 1 124 1;
#X connect 126 0 124 0;
#X connect 127 0 126 1;
#X connect 128 0 152 0;
#X connect 129 0 128 0;
#X connect 130 0 131 0;
#X connect 130 1 129 1;
#X connect 131 0 129 0;
#X connect 132 0 131 1;
#X connect 133 0 153 0;
#X connect 134 0 133 0;
#X connect 135 0 136 0;
#X connect 135 1 134 1;
#X connect 136 0 134 0;
#X connect 137 0 136 1;
#X connect 138 0 154 0;
#X connect 139 0 138 0;
#X connect 140 0 141 0;
#X connect 140 1 139 1;
#X connect 141 0 139 0;
#X connect 142 0 141 1;
#X connect 143 0 155 0;
#X connect 144 0 143 0;
#X connect 145 0 146 0;
#X connect 145 1 144 1;
#X connect 146 0 144 0;
#X connect 147 0 146 1;
#X connect 156 0 166 0;
#X connect 157 0 156 0;
#X connect 158 0 159 0;
#X connect 158 1 157 1;
#X connect 159 0 157 0;
#X connect 160 0 159 1;
#X connect 161 0 167 0;
#X connect 162 0 161 0;
#X connect 163 0 164 0;
#X connect 163 1 162 1;
#X connect 164 0 162 0;
#X connect 165 0 164 1;
#X connect 168 0 12 0;
#X connect 169 0 10 0;
#X connect 169 1 19 0;
#X connect 169 2 26 0;
#X connect 169 3 31 0;
#X connect 169 4 38 0;
#X connect 169 5 43 0;
#X connect 169 6 48 0;
#X connect 169 7 53 0;
#X connect 169 8 58 0;
#X connect 169 9 63 0;
#X connect 169 10 68 0;
#X connect 169 11 73 0;
#X connect 169 12 78 0;
#X connect 169 13 83 0;
#X connect 169 14 88 0;
#X connect 169 15 93 0;
#X connect 169 16 110 0;
#X connect 169 17 115 0;
#X connect 169 18 120 0;
#X connect 169 19 125 0;
#X connect 169 20 130 0;
#X connect 169 21 135 0;
#X connect 169 22 140 0;
#X connect 169 23 145 0;
#X connect 169 24 158 0;
#X connect 169 25 163 0;
#X restore 33 1339 pd external-messages;
#X obj 2790 1157 outlet~ XEA;
#X obj 2956 1156 outlet~ XEB;
#X obj 830 31 inlet~ A;
#X obj 966 30 inlet~ B;
#X obj 1141 32 inlet~ Ch1;
#X obj 1278 32 inlet~ Ch2;
#X obj 1415 32 inlet~ Ch3;
#X obj 1550 32 inlet~ Ch4;
#X text 453 402 XEA;
#X text 506 402 XEB;
#X text 665 132 BUS A;
#X text 955 132 BUS B;
#X text 1191 133 CHANNEL 1;
#X text 1578 133 CHANNEL 2;
#X text 1980 130 CHANNEL 3;
#X text 2381 131 CHANNEL 4;
#X obj 830 54 s~ \$0-um-in-bus-A;
#X obj 966 55 s~ \$0-um-in-bus-B;
#X obj 1141 57 s~ \$0-um-in-ch1;
#X obj 1278 57 s~ \$0-um-in-ch2;
#X obj 1415 57 s~ \$0-um-in-ch3;
#X obj 1550 57 s~ \$0-um-in-ch4;
#X obj 635 173 r~ \$0-um-in-bus-A;
#X obj 926 174 r~ \$0-um-in-bus-B;
#X obj 1576 185 r~ \$0-um-in-ch2;
#X obj 1971 183 r~ \$0-um-in-ch3;
#X obj 1628 205 r~ \$0-um-in-bus-B;
#X obj 2022 202 r~ \$0-um-in-bus-A;
#X obj 2373 185 r~ \$0-um-in-ch4;
#X obj 2425 204 r~ \$0-um-in-bus-B;
#X obj 1266 882 *~;
#X obj 1296 812 / 127;
#X obj 1296 850 line~;
#X obj 1296 831 pack 0 50;
#X obj 1691 886 *~;
#X obj 1722 815 / 127;
#X obj 1722 853 line~;
#X obj 1722 834 pack 0 50;
#X obj 2091 881 *~;
#X obj 2120 813 / 127;
#X obj 2120 851 line~;
#X obj 2120 832 pack 0 50;
#X obj 2483 877 *~;
#X obj 2517 809 / 127;
#X obj 2517 847 line~;
#X obj 2517 828 pack 0 50;
#X obj 1628 323 s~ \$0-um-in2;
#X obj 2022 321 s~ \$0-um-in3;
#X obj 2425 321 s~ \$0-um-in4;
#X obj 1188 749 r~ \$0-um-in1;
#X obj 1614 753 r~ \$0-um-in2;
#X obj 2015 753 r~ \$0-um-in3;
#X obj 2406 747 r~ \$0-um-in4;
#X obj 1765 484 ../other_patches/volumeandpan~, f 7;
#X obj 1970 484 ../other_patches/volumeandpan~, f 7;
#X obj 2159 482 ../other_patches/volumeandpan~, f 7;
#X obj 2372 481 ../other_patches/volumeandpan~, f 7;
#X obj 2562 481 ../other_patches/volumeandpan~, f 7;
#X obj 2790 1077 *~;
#N canvas 612 128 450 300 rs0 0;
#X obj 153 83 inlet;
#X obj 151 110 == 0;
#X obj 150 137 tgl 15 0 empty empty empty 17 7 0 10 -262144 -1 -1 1
1;
#X obj 149 184 line~;
#X msg 148 160 \$1 100;
#X obj 147 215 outlet~;
#X connect 0 0 1 0;
#X connect 1 0 2 0;
#X connect 2 0 4 0;
#X connect 3 0 5 0;
#X connect 4 0 3 0;
#X restore 2805 1056 pd rs0;
#X obj 2956 1078 *~;
#N canvas 612 128 450 300 rs0 0;
#X obj 153 83 inlet;
#X obj 151 110 == 0;
#X obj 150 137 tgl 15 0 empty empty empty 17 7 0 10 -262144 -1 -1 1
1;
#X obj 149 184 line~;
#X msg 148 160 \$1 100;
#X obj 147 215 outlet~;
#X connect 0 0 1 0;
#X connect 1 0 2 0;
#X connect 2 0 4 0;
#X connect 3 0 5 0;
#X connect 4 0 3 0;
#X restore 2971 1057 pd rs0;
#X obj 1591 240 r \$0-um-switch2-s;
#X obj 1985 237 r \$0-um-switch3-s;
#X obj 2388 240 r \$0-um-switch4-s;
#X obj 1595 444 r \$0-um-ch2-fader-s;
#X obj 1615 463 r \$0-um-ch2-panAB-s;
#X obj 1784 441 r \$0-um-ch2-echo-s;
#X obj 1804 461 r \$0-um-ch2-panAB-s;
#X obj 1989 443 r \$0-um-ch3-fader-s;
#X obj 2009 462 r \$0-um-ch3-panAB-s;
#X obj 2178 439 r \$0-um-ch3-echo-s;
#X obj 2198 459 r \$0-um-ch3-panAB-s;
#X obj 2391 440 r \$0-um-ch4-fader-s;
#X obj 2411 459 r \$0-um-ch4-panAB-s;
#X obj 2581 438 r \$0-um-ch4-echo-s;
#X obj 2601 458 r \$0-um-ch4-panAB-s;
#X obj 2517 787 r \$0-um-ch4-fader-s;
#X obj 2120 793 r \$0-um-ch3-fader-s;
#X obj 1722 797 r \$0-um-ch2-fader-s;
#X obj 1296 790 r \$0-um-ch1-fader-s;
#X obj 1203 926 r \$0-um-switch-preoffpost1-s;
#X obj 1630 927 r \$0-um-switch-preoffpost2-s;
#X obj 2030 931 r \$0-um-switch-preoffpost3-s;
#X obj 2422 920 r \$0-um-switch-preoffpost4-s;
#X obj 2465 1042 r \$0-um-ch4-pan34-s;
#X obj 2074 1045 r \$0-um-ch3-pan34-s;
#X obj 1674 1044 r \$0-um-ch2-pan12-s;
#X obj 1247 1041 r \$0-um-ch1-pan12-s;
#X obj 2805 1032 r \$0-um-switchA-s;
#X obj 2971 1033 r \$0-um-switchB-s;
#X obj 679 1053 r \$0-um-switchA-s;
#X obj 955 1049 r \$0-um-switchB-s;
#N canvas 612 128 450 300 rs0 0;
#X obj 153 83 inlet;
#X obj 151 110 == 0;
#X obj 150 137 tgl 15 0 empty empty empty 17 7 0 10 -262144 -1 -1 1
1;
#X obj 149 184 line~;
#X msg 148 160 \$1 100;
#X obj 147 215 outlet~;
#X connect 0 0 1 0;
#X connect 1 0 2 0;
#X connect 2 0 4 0;
#X connect 3 0 5 0;
#X connect 4 0 3 0;
#X restore 1182 266 pd rs0;
#N canvas 612 128 450 300 rs1 0;
#X obj 153 83 inlet;
#X obj 150 137 tgl 15 0 empty empty empty 17 7 0 10 -262144 -1 -1 0
1;
#X obj 149 184 line~;
#X msg 148 160 \$1 100;
#X obj 147 215 outlet~;
#X obj 151 110 == 1;
#X connect 0 0 5 0;
#X connect 1 0 3 0;
#X connect 2 0 4 0;
#X connect 3 0 2 0;
#X connect 5 0 1 0;
#X restore 1234 266 pd rs1;
#X obj 1167 295 *~;
#X obj 1219 295 *~;
#X obj 1167 487 ../other_patches/volumeandpan~, f 7;
#X obj 1356 486 ../other_patches/volumeandpan~, f 7;
#X obj 1167 187 r~ \$0-um-in-ch1;
#X obj 1182 242 r \$0-um-switch1-s;
#X obj 1219 325 s~ \$0-um-in1;
#X obj 1186 446 r \$0-um-ch1-fader-s;
#X obj 1206 465 r \$0-um-ch1-panAB-s;
#X obj 1375 443 r \$0-um-ch1-echo-s;
#X obj 1395 463 r \$0-um-ch1-panAB-s;
#X obj 1219 207 r~ \$0-um-in-bus-A;
#X obj 1167 636 s~ \$0-um-ch1-to-bus-A;
#X obj 1206 656 s~ \$0-um-ch1-to-bus-B;
#X obj 1576 634 s~ \$0-um-ch2-to-bus-A;
#X obj 1615 654 s~ \$0-um-ch2-to-bus-B;
#X obj 1970 633 s~ \$0-um-ch3-to-bus-A;
#X obj 2009 653 s~ \$0-um-ch3-to-bus-B;
#X obj 2372 630 s~ \$0-um-ch4-to-bus-A;
#X obj 2411 650 s~ \$0-um-ch4-to-bus-B;
#X obj 664 897 r~ \$0-um-ch1-to-bus-A;
#X obj 664 923 r~ \$0-um-ch2-to-bus-A;
#X obj 664 950 r~ \$0-um-ch3-to-bus-A;
#X obj 664 976 r~ \$0-um-ch4-to-bus-A;
#X obj 940 897 r~ \$0-um-ch1-to-bus-B;
#X obj 940 923 r~ \$0-um-ch2-to-bus-B;
#X obj 940 950 r~ \$0-um-ch3-to-bus-B;
#X obj 940 976 r~ \$0-um-ch4-to-bus-B;
#X obj 2790 845 r~ \$0-um-ch4-to-XEA;
#X obj 2790 819 r~ \$0-um-ch3-to-XEA;
#X obj 2790 792 r~ \$0-um-ch2-to-XEA;
#X obj 2790 766 r~ \$0-um-ch1-to-XEA;
#X obj 2956 766 r~ \$0-um-ch1-to-XEB;
#X obj 2956 792 r~ \$0-um-ch2-to-XEB;
#X obj 2956 819 r~ \$0-um-ch3-to-XEB;
#X obj 2956 845 r~ \$0-um-ch4-to-XEB;
#X obj 1356 565 s~ \$0-um-ch1-to-XEA;
#X obj 1395 585 s~ \$0-um-ch1-to-XEB;
#X obj 1765 563 s~ \$0-um-ch2-to-XEA;
#X obj 1804 583 s~ \$0-um-ch2-to-XEB;
#X obj 2159 561 s~ \$0-um-ch3-to-XEA;
#X obj 2198 581 s~ \$0-um-ch3-to-XEB;
#X obj 2601 580 s~ \$0-um-ch4-to-XEB;
#X obj 2562 560 s~ \$0-um-ch4-to-XEA;
#X text 1183 403 i.e. to the A/B buses;
#X text 641 562 just passing thorugh;
#X text 930 562 just passing thorugh;
#X text 1162 715 i.e. to output channel 1 or 2;
#X text 1977 712 i.e. to output channel 3 or 4;
#X text 1593 426 FADER and PAN-AB;
#X text 1782 424 ECHO-SEND and PAN-AB;
#X text 1184 428 FADER and PAN-AB;
#X text 1373 426 ECHO-SEND and PAN-AB;
#X text 1171 389 Affects the signal that will be sent through horisontally
\,;
#X text 1593 400 i.e. to the A/B buses;
#X text 1581 386 Affects the signal that will be sent through horisontally
\,;
#X text 1986 398 i.e. to the A/B buses;
#X text 1974 384 Affects the signal that will be sent through horisontally
\,;
#X text 2390 397 i.e. to the A/B buses;
#X text 2378 383 Affects the signal that will be sent through horisontally
\,;
#X text 1984 424 FADER and PAN-AB;
#X text 2173 422 ECHO-SEND and PAN-AB;
#X text 2385 423 FADER and PAN-AB;
#X text 2574 421 ECHO-SEND and PAN-AB;
#X text 1289 772 FADER;
#X text 1717 779 FADER;
#X text 2114 775 FADER;
#X text 2508 769 FADER;
#X text 1194 909 PRE-OFF-POST;
#X text 1622 911 PRE-OFF-POST;
#X text 1150 701 Affects the signal that will be sent through vertically
\,;
#X text 1590 714 i.e. to output channel 1 or 2;
#X text 1578 700 Affects the signal that will be sent through vertically
\,;
#X text 1963 698 Affects the signal that will be sent through vertically
\,;
#X text 2380 711 i.e. to output channel 3 or 4;
#X text 2366 697 Affects the signal that will be sent through vertically
\,;
#X text 2018 914 PRE-OFF-POST;
#X text 2416 904 PRE-OFF-POST;
#X text 1236 1023 PAN-12;
#X text 1662 1026 PAN-12;
#X text 2063 1027 PAN-34;
#X text 2457 1024 PAN-34;
#X text 1305 242 <-- SOURCE-SWITCH: controls sound source;
#X text 1715 240 <-- SOURCE-SWITCH: controls sound source;
#X text 2109 237 <-- SOURCE-SWITCH: controls sound source;
#X text 2521 237 <-- SOURCE-SWITCH: controls sound source;
#X text 2796 1014 SWITCH-A;
#X text 2964 1014 SWITCH-B;
#X text 670 1034 SWITCH-A;
#X text 947 1031 SWITCH-B;
#X text 49 467 Overview;
#X text 48 590 Source switch;
#X text 47 670 Fader;
#X text 47 739 Pan-AB;
#X text 29 487 The Universal Mixer is perhaps Datatonism's most powerful
mixer. Compared to its predessessors \, SUB MIXER 3202 and MASTER MIXER
3101 \, it has a much more flexible audio bus structure which make
it possible to build virtually any input/output mixer consoles by adding
modules in both X (horisontal) and Y (vertical) directions., f 50
;
#X text 27 690 This control is the main fader for each of the four
channels., f 50;
#X text 27 759 The Pan-AB knob allows you to pan the input signal onto
outlet A/B., f 50;
#X text 47 813 Echo-Send;
#X text 44 908 Pre-Off-Post;
#X text 46 1022 Pan-12 and Pan-34;
#X text 46 1117 Switch-A and Switch-B;
#X text 24 928 This three-level toggle/radiobutton controls what to
output in the vertical direction \, i.e. what's being sent to channel
1-4's outlets. Pre: output signal is not affected by the fader. Off:
nothing at all is sent to the channel's outlet. Post: signal is controlled
by the fader., f 50;
#X text 26 1042 These knobs pans the output signal in the vertical
direction between the 1 and 2 outlets for the first two channels and
between 3 and 4 for the last two channels., f 50;
#X text 26 1137 This two-level toggle switch defines what to add to
the A and B outlets. XEA/XEB: signals from channel 1-4 - controled
by the fader and panned onto A/B - are added to the A/B outlets. An
amount of the signal can also be sent to the XEA/XEB echo-send outlets.
OFF: Signals from the A/B inlets are just passing through to the A/B
outlets., f 50;
#X text 2796 1117 outlet connected to a central echo or reverberation
unit, f 24;
#X text 2964 1117 outlet connected to a central echo or reverberation
unit, f 24;
#X text 28 610 With this toggle switch controls the sound source. A:
connects signals from the A/B inlets. Ch1-4: connects signals from
the channel 1-4 inlets., f 50;
#X text 27 833 This control is aimed for sending an appropriate amount
from each of the four channels to outlet XEA/XEB which are meant for
connecting to a central echo or reverberation unit., f 50;
#X obj 325 137 cnv 5 5 5 empty \$0-instance-num 0 0 0 0 15 -228856
-66577 0;
#X connect 0 0 2 1;
#X connect 1 0 3 1;
#X connect 2 0 173 0;
#X connect 2 0 92 0;
#X connect 2 0 180 0;
#X connect 3 0 173 0;
#X connect 4 0 8 1;
#X connect 5 0 9 1;
#X connect 6 0 10 1;
#X connect 7 0 11 1;
#X connect 8 0 174 0;
#X connect 8 0 181 0;
#X connect 8 0 182 0;
#X connect 9 0 174 0;
#X connect 10 0 175 0;
#X connect 10 0 183 0;
#X connect 10 0 184 0;
#X connect 11 0 175 0;
#X connect 88 0 35 0;
#X connect 89 0 88 1;
#X connect 90 0 36 0;
#X connect 91 0 90 1;
#X connect 92 0 236 0;
#X connect 92 1 237 0;
#X connect 94 0 115 0;
#X connect 95 0 94 1;
#X connect 96 0 115 0;
#X connect 97 0 96 1;
#X connect 98 0 110 0;
#X connect 99 0 98 1;
#X connect 100 0 110 0;
#X connect 101 0 100 1;
#X connect 102 0 112 0;
#X connect 103 0 102 1;
#X connect 104 0 112 0;
#X connect 105 0 104 1;
#X connect 106 0 117 0;
#X connect 107 0 106 1;
#X connect 108 0 117 0;
#X connect 109 0 108 1;
#X connect 110 0 41 0;
#X connect 110 1 42 0;
#X connect 111 0 110 1;
#X connect 112 0 43 0;
#X connect 112 1 118 0;
#X connect 113 0 112 1;
#X connect 114 0 117 1;
#X connect 115 0 41 0;
#X connect 115 1 42 0;
#X connect 116 0 115 1;
#X connect 117 0 43 0;
#X connect 117 1 118 0;
#X connect 120 0 122 0;
#X connect 122 0 123 0;
#X connect 123 0 121 0;
#X connect 129 0 143 0;
#X connect 130 0 144 0;
#X connect 131 0 145 0;
#X connect 132 0 146 0;
#X connect 133 0 147 0;
#X connect 134 0 148 0;
#X connect 149 0 35 0;
#X connect 150 0 36 0;
#X connect 151 0 2 0;
#X connect 152 0 8 0;
#X connect 153 0 3 0;
#X connect 154 0 9 0;
#X connect 155 0 10 0;
#X connect 156 0 11 0;
#X connect 157 0 96 0;
#X connect 158 0 160 0;
#X connect 159 0 157 1;
#X connect 160 0 159 0;
#X connect 161 0 100 0;
#X connect 162 0 164 0;
#X connect 163 0 161 1;
#X connect 164 0 163 0;
#X connect 165 0 104 0;
#X connect 166 0 168 0;
#X connect 167 0 165 1;
#X connect 168 0 167 0;
#X connect 169 0 108 0;
#X connect 170 0 172 0;
#X connect 171 0 169 1;
#X connect 172 0 171 0;
#X connect 176 0 94 0;
#X connect 176 0 157 0;
#X connect 177 0 161 0;
#X connect 177 0 98 0;
#X connect 178 0 102 0;
#X connect 178 0 165 0;
#X connect 179 0 106 0;
#X connect 179 0 169 0;
#X connect 180 0 260 0;
#X connect 180 1 261 0;
#X connect 181 0 238 0;
#X connect 181 1 239 0;
#X connect 182 0 262 0;
#X connect 182 1 263 0;
#X connect 183 0 240 0;
#X connect 183 1 241 0;
#X connect 184 0 265 0;
#X connect 184 1 264 0;
#X connect 185 0 127 0;
#X connect 186 0 185 1;
#X connect 187 0 128 0;
#X connect 188 0 187 1;
#X connect 189 0 0 0;
#X connect 189 0 1 0;
#X connect 190 0 4 0;
#X connect 190 0 5 0;
#X connect 191 0 6 0;
#X connect 191 0 7 0;
#X connect 192 0 92 1;
#X connect 193 0 92 2;
#X connect 194 0 180 1;
#X connect 195 0 180 2;
#X connect 196 0 181 1;
#X connect 197 0 181 2;
#X connect 198 0 182 1;
#X connect 199 0 182 2;
#X connect 200 0 183 1;
#X connect 201 0 183 2;
#X connect 202 0 184 1;
#X connect 203 0 184 2;
#X connect 204 0 170 0;
#X connect 205 0 166 0;
#X connect 206 0 162 0;
#X connect 207 0 158 0;
#X connect 208 0 95 0;
#X connect 208 0 97 0;
#X connect 209 0 99 0;
#X connect 209 0 101 0;
#X connect 210 0 103 0;
#X connect 210 0 105 0;
#X connect 211 0 107 0;
#X connect 211 0 109 0;
#X connect 212 0 114 0;
#X connect 213 0 113 0;
#X connect 214 0 111 0;
#X connect 215 0 116 0;
#X connect 216 0 186 0;
#X connect 217 0 188 0;
#X connect 218 0 89 0;
#X connect 219 0 91 0;
#X connect 220 0 222 1;
#X connect 221 0 223 1;
#X connect 222 0 224 0;
#X connect 222 0 225 0;
#X connect 222 0 228 0;
#X connect 223 0 228 0;
#X connect 224 0 234 0;
#X connect 224 1 235 0;
#X connect 225 0 258 0;
#X connect 225 1 259 0;
#X connect 226 0 222 0;
#X connect 227 0 220 0;
#X connect 227 0 221 0;
#X connect 229 0 224 1;
#X connect 230 0 224 2;
#X connect 231 0 225 1;
#X connect 232 0 225 2;
#X connect 233 0 223 0;
#X connect 242 0 88 0;
#X connect 243 0 88 0;
#X connect 244 0 88 0;
#X connect 245 0 88 0;
#X connect 246 0 90 0;
#X connect 247 0 90 0;
#X connect 248 0 90 0;
#X connect 249 0 90 0;
#X connect 250 0 185 0;
#X connect 251 0 185 0;
#X connect 252 0 185 0;
#X connect 253 0 185 0;
#X connect 254 0 187 0;
#X connect 255 0 187 0;
#X connect 256 0 187 0;
#X connect 257 0 187 0;
#X coords 0 -1 1 1 430 320 2 100 100;
