#N canvas 0 25 1410 728 10;
#X declare -lib moonlib;
#X obj 816 171 *~;
#N canvas 612 128 450 300 rs0 0;
#X obj 153 83 inlet;
#X obj 151 110 == 0;
#X obj 150 137 tgl 15 0 empty empty empty 17 7 0 10 -262144 -1 -1 0
1;
#X obj 149 184 line~;
#X msg 148 160 \$1 100;
#X obj 147 215 outlet~;
#X connect 0 0 1 0;
#X connect 1 0 2 0;
#X connect 2 0 4 0;
#X connect 3 0 5 0;
#X connect 4 0 3 0;
#X restore 831 144 pd rs0;
#X obj 863 171 *~;
#N canvas 612 128 450 300 rs0 0;
#X obj 153 83 inlet;
#X obj 151 110 == 0;
#X obj 150 137 tgl 15 0 empty empty empty 17 7 0 10 -262144 -1 -1 0
1;
#X obj 149 184 line~;
#X msg 148 160 \$1 100;
#X obj 147 215 outlet~;
#X connect 0 0 1 0;
#X connect 1 0 2 0;
#X connect 2 0 4 0;
#X connect 3 0 5 0;
#X connect 4 0 3 0;
#X restore 1014 141 pd rs0;
#N canvas 612 128 450 300 rs1 0;
#X obj 153 83 inlet;
#X obj 150 137 tgl 15 0 empty empty empty 17 7 0 10 -262144 -1 -1 0
1;
#X obj 149 184 line~;
#X msg 148 160 \$1 100;
#X obj 147 215 outlet~;
#X obj 151 110 == 1;
#X connect 0 0 5 0;
#X connect 1 0 3 0;
#X connect 2 0 4 0;
#X connect 3 0 2 0;
#X connect 5 0 1 0;
#X restore 1056 141 pd rs1;
#X obj 999 170 *~;
#X obj 1041 170 *~;
#N canvas 612 128 450 300 rs0 0;
#X obj 153 83 inlet;
#X obj 151 110 == 0;
#X obj 150 137 tgl 15 0 empty empty empty 17 7 0 10 -262144 -1 -1 0
1;
#X obj 149 184 line~;
#X msg 148 160 \$1 100;
#X obj 147 215 outlet~;
#X connect 0 0 1 0;
#X connect 1 0 2 0;
#X connect 2 0 4 0;
#X connect 3 0 5 0;
#X connect 4 0 3 0;
#X restore 1198 139 pd rs0;
#N canvas 612 128 450 300 rs1 0;
#X obj 153 83 inlet;
#X obj 150 137 tgl 15 0 empty empty empty 17 7 0 10 -262144 -1 -1 0
1;
#X obj 149 184 line~;
#X msg 148 160 \$1 100;
#X obj 147 215 outlet~;
#X obj 151 110 == 1;
#X connect 0 0 5 0;
#X connect 1 0 3 0;
#X connect 2 0 4 0;
#X connect 3 0 2 0;
#X connect 5 0 1 0;
#X restore 1243 138 pd rs1;
#N canvas 612 128 450 300 rs0 0;
#X obj 153 83 inlet;
#X obj 151 110 == 0;
#X obj 150 137 tgl 15 0 empty empty empty 17 7 0 10 -262144 -1 -1 0
1;
#X obj 149 184 line~;
#X msg 148 160 \$1 100;
#X obj 147 215 outlet~;
#X connect 0 0 1 0;
#X connect 1 0 2 0;
#X connect 2 0 4 0;
#X connect 3 0 5 0;
#X connect 4 0 3 0;
#X restore 1375 139 pd rs0;
#N canvas 612 128 450 300 rs1 0;
#X obj 153 83 inlet;
#X obj 150 137 tgl 15 0 empty empty empty 17 7 0 10 -262144 -1 -1 0
1;
#X obj 149 184 line~;
#X msg 148 160 \$1 100;
#X obj 147 215 outlet~;
#X obj 151 110 == 1;
#X connect 0 0 5 0;
#X connect 1 0 3 0;
#X connect 2 0 4 0;
#X connect 3 0 2 0;
#X connect 5 0 1 0;
#X restore 1417 139 pd rs1;
#X obj 1183 168 *~;
#X obj 1228 168 *~;
#X obj 1360 167 *~;
#X obj 1402 167 *~;
#X obj 831 113 r \$0-switch1-s;
#X obj 1014 113 r \$0-switch2-s;
#X obj 1211 108 r \$0-switch3-s;
#X obj 1376 108 r \$0-switch4-s;
#X obj 101 103 cnv 15 428 314 empty empty Universal-Mixer_3205 20 35
0 14 -233017 -66577 0;
#X text 114 189 -- -- 0, f 9;
#X text 112 214 -- -- -10;
#X text 113 262 -- -- -30;
#X text 113 291 -- -- -40;
#X text 113 313 -- -- ∞, f 9;
#X text 112 238 -- -- -20;
#X obj 123 196 vsl 15 127 0 127 0 0 \$0-channel1-fader-s \$0-channel1-fader-r
empty 0 -9 0 10 -262144 -1 -1 0 1;
#X text 301 189 -- -- 0, f 9;
#X text 301 213 -- -- -10;
#X text 302 261 -- -- -30;
#X text 302 290 -- -- -40;
#X text 302 312 -- -- ∞, f 9;
#X text 301 237 -- -- -20;
#X obj 177 344 moonlib/mknob 20 90 0 127 0 0 \$0-channel1-pan12-s \$0-channel1-pan12-r
1<-->2 -5 26 0 8 -1 -262144 -1 0 1;
#X obj 131 174 hradio 12 1 0 2 \$0-switch1-s \$0-switch1-r Ch1_A -3
-8 0 10 -262144 -1 -1 1;
#X obj 227 174 hradio 12 1 0 2 \$0-switch2-s \$0-switch2-r Ch2_B -3
-8 0 10 -262144 -1 -1 0;
#X obj 317 174 hradio 12 1 0 2 \$0-switch3-s \$0-switch3-r Ch3_A -3
-8 0 10 -262144 -1 -1 0;
#X obj 412 173 hradio 12 1 0 2 \$0-switch4-s \$0-switch4-s Ch4_B -3
-8 0 10 -262144 -1 -1 0;
#X obj 195 330 cnv 15 1 1 empty empty CH2 20 12 0 14 -233017 -66577
0;
#X obj 288 330 cnv 15 1 1 empty empty CH3 20 12 0 14 -233017 -66577
0;
#X obj 381 331 cnv 15 1 1 empty empty CH4 20 12 0 14 -233017 -66577
0;
#X obj 311 195 vsl 15 128 0 127 0 0 \$0-channel3-fader-s \$0-channel3-fader-r
empty 0 -9 0 10 -262144 -1 -1 0 1;
#X text 112 399 A;
#X text 116 104 A;
#X text 190 103 B;
#X obj 607 654 outlet~ A;
#X obj 937 655 outlet~ B;
#X obj 1057 41 inlet~ Ch1;
#X obj 1143 41 inlet~ Ch2;
#X obj 1221 41 inlet~ Ch3;
#X text 261 104 Ch1;
#X text 347 104 Ch2;
#X text 424 103 Ch3;
#X text 495 103 Ch4;
#X obj 102 331 cnv 15 1 1 empty empty CH1 20 12 0 14 -233017 -66577
0;
#X obj 1300 41 inlet~ Ch4;
#X obj 1142 654 outlet~ Ch1;
#X obj 1262 655 outlet~ Ch2;
#X obj 1384 655 outlet~ Ch3;
#X obj 905 42 inlet~ A;
#X obj 981 42 inlet~ B;
#N canvas 612 128 450 300 rs1 0;
#X obj 153 83 inlet;
#X obj 150 137 tgl 15 0 empty empty empty 17 7 0 10 -262144 -1 -1 0
1;
#X obj 149 184 line~;
#X msg 148 160 \$1 100;
#X obj 147 215 outlet~;
#X obj 151 110 == 1;
#X connect 0 0 5 0;
#X connect 1 0 3 0;
#X connect 2 0 4 0;
#X connect 3 0 2 0;
#X connect 5 0 1 0;
#X restore 878 144 pd rs1;
#X text 209 189 -- -- 0, f 9;
#X text 207 214 -- -- -10;
#X text 208 262 -- -- -30;
#X text 208 291 -- -- -40;
#X text 208 313 -- -- ∞, f 9;
#X text 207 238 -- -- -20;
#X obj 218 195 vsl 15 128 0 127 0 0 \$0-channel2-fader-s \$0-channel2-fader-r
empty 0 -9 0 10 -262144 -1 -1 0 1;
#X text 398 190 -- -- 0, f 9;
#X text 396 215 -- -- -10;
#X text 397 264 -- -- -30;
#X text 397 292 -- -- -40;
#X text 397 314 -- -- ∞, f 9;
#X text 396 239 -- -- -20;
#X obj 407 196 vsl 15 128 0 127 0 0 \$0-channel4-fader-s \$0-channel4-fader-r
empty 0 -9 0 10 -262144 -1 -1 0 1;
#X obj 100 445 declare -lib moonlib;
#X obj 178 199 moonlib/mknob 20 90 0 127 0 0 \$0-channel1-panAB-s \$0-channel1-panAB-r
A<-->B -2 26 0 8 -1 -262144 -1 0 1;
#X obj 178 288 vradio 15 1 0 3 \$0-switch-preoffpost1-s \$0-switch-preoffpost1-r
PRE-OFF-POST -8 -8 0 6 -262144 -1 -1 0;
#X obj 272 197 moonlib/mknob 20 90 0 127 0 0 \$0-channel2-panAB-s \$0-channel2-panAB-r
A<-->B -2 26 0 8 -1 -262144 -1 0 1;
#X obj 367 196 moonlib/mknob 20 90 0 127 0 0 \$0-channel3-panAB-s \$0-channel3-panAB-r
A<-->B -2 26 0 8 -1 -262144 -1 0 1;
#X obj 461 195 moonlib/mknob 20 90 0 127 0 0 \$0-channel4-panAB-s \$0-channel4-panAB-r
A<-->B -2 26 0 8 -1 -262144 -1 0 1;
#X obj 271 288 vradio 15 1 0 3 \$0-switch-preoffpost2-s \$0-switch-preoffpost2-r
PRE-OFF-POST -8 -8 0 6 -262144 -1 -1 2;
#X obj 366 287 vradio 15 1 0 3 \$0-switch-preoffpost3-s \$0-switch-preoffpost3-r
PRE-OFF-POST -8 -8 0 6 -262144 -1 -1 0;
#X obj 461 288 vradio 15 1 0 3 \$0-switch-preoffpost4-s \$0-switch-preoffpost4-r
PRE-OFF-POST -8 -8 0 6 -262144 -1 -1 2;
#X obj 270 344 moonlib/mknob 20 90 0 127 0 0 \$0-channel2-pan12-s \$0-channel2-pan12-r
1<-->2 -5 26 0 8 -1 -262144 -1 0 1;
#X obj 364 345 moonlib/mknob 20 90 0 127 0 0 \$0-channel3-pan34-s \$0-channel3-pan34-r
3<-->4 -5 26 0 8 -1 -262144 -1 0 1;
#X obj 460 344 moonlib/mknob 20 90 0 127 0 0 \$0-channel4-pan34-s \$0-channel4-pan34-r
3<-->4 -5 26 0 8 -1 -262144 -1 0 1;
#X obj 1196 398 *~;
#X obj 1211 338 / 127;
#X obj 1211 376 line~;
#X obj 1211 357 pack 0 50;
#X obj 1338 394 *~;
#X obj 1353 334 / 127;
#X obj 1353 372 line~;
#X obj 1353 353 pack 0 50;
#X obj 1476 395 *~;
#X obj 1491 335 / 127;
#X obj 1491 373 line~;
#X obj 1491 354 pack 0 50;
#X obj 1612 400 *~;
#X obj 1627 340 / 127;
#X obj 1627 378 line~;
#X obj 1627 359 pack 0 50;
#X obj 178 242 moonlib/mknob 20 90 0 127 0 0 \$0-channel1-echo-s \$0-channel1-echo-r
E 23 -2 0 8 -1 -262144 -1 0 1;
#X obj 623 274 r \$0-channel1-echo-s;
#X obj 776 275 r \$0-channel2-echo-s;
#X obj 917 275 r \$0-channel3-echo-s;
#X obj 1064 273 r \$0-channel4-echo-s;
#X obj 271 242 moonlib/mknob 20 90 0 127 0 0 \$0-channel2-echo-s \$0-channel2-echo-r
E 23 -2 0 8 -1 -262144 -1 0 1;
#X obj 367 242 moonlib/mknob 20 90 0 127 0 0 \$0-channel3-echo-s \$0-channel3-echo-r
E 23 -2 0 8 -1 -262144 -1 0 1;
#X obj 460 243 moonlib/mknob 20 90 0 127 0 0 \$0-channel4-echo-s \$0-channel4-echo-r
E 23 -2 0 8 -1 -262144 -1 0 1;
#X obj 1211 316 r \$0-channel1-fader-s;
#X obj 1353 316 r \$0-channel2-fader-s;
#X obj 1491 315 r \$0-channel3-fader-s;
#X obj 1626 315 r \$0-channel4-fader-s;
#X obj 503 171 vradio 15 1 0 2 \$0-switchA-s \$0-switchA-r XEA_OFF
-10 -8 0 8 -262144 -1 -1 0;
#X obj 503 317 vradio 15 1 0 2 \$0-switchB-s \$0-switchB-s XEB_OFF
-10 -8 0 8 -262144 -1 -1 0;
#X text 352 399 Ch1;
#X text 404 399 Ch2;
#X text 456 399 Ch3;
#X text 503 399 Ch4;
#X obj 806 654 outlet~ A/B;
#X obj 678 655 outlet~ XEA;
#X obj 1002 655 outlet~ XEB;
#X text 200 192 X;
#X text 293 192 X;
#X text 390 192 X;
#X text 483 191 X;
#X text 379 333 Y;
#X text 288 333 Y;
#X text 197 332 Y;
#X text 479 334 Y;
#X text 148 399 XEA;
#X text 197 399 A/B;
#X obj 609 585 *~;
#N canvas 612 128 450 300 rs0 0;
#X obj 153 83 inlet;
#X obj 151 110 == 0;
#X obj 150 137 tgl 15 0 empty empty empty 17 7 0 10 -262144 -1 -1 0
1;
#X obj 149 184 line~;
#X msg 148 160 \$1 100;
#X obj 147 215 outlet~;
#X connect 0 0 1 0;
#X connect 1 0 2 0;
#X connect 2 0 4 0;
#X connect 3 0 5 0;
#X connect 4 0 3 0;
#X restore 624 564 pd rs0;
#X obj 656 585 *~;
#N canvas 612 128 450 300 rs1 0;
#X obj 153 83 inlet;
#X obj 150 137 tgl 15 0 empty empty empty 17 7 0 10 -262144 -1 -1 0
1;
#X obj 149 184 line~;
#X msg 148 160 \$1 100;
#X obj 147 215 outlet~;
#X obj 151 110 == 1;
#X connect 0 0 5 0;
#X connect 1 0 3 0;
#X connect 2 0 4 0;
#X connect 3 0 2 0;
#X connect 5 0 1 0;
#X restore 671 564 pd rs1;
#X obj 879 589 *~;
#N canvas 612 128 450 300 rs0 0;
#X obj 153 83 inlet;
#X obj 151 110 == 0;
#X obj 150 137 tgl 15 0 empty empty empty 17 7 0 10 -262144 -1 -1 0
1;
#X obj 149 184 line~;
#X msg 148 160 \$1 100;
#X obj 147 215 outlet~;
#X connect 0 0 1 0;
#X connect 1 0 2 0;
#X connect 2 0 4 0;
#X connect 3 0 5 0;
#X connect 4 0 3 0;
#X restore 894 568 pd rs0;
#X obj 926 589 *~;
#N canvas 612 128 450 300 rs1 0;
#X obj 153 83 inlet;
#X obj 150 137 tgl 15 0 empty empty empty 17 7 0 10 -262144 -1 -1 0
1;
#X obj 149 184 line~;
#X msg 148 160 \$1 100;
#X obj 147 215 outlet~;
#X obj 151 110 == 1;
#X connect 0 0 5 0;
#X connect 1 0 3 0;
#X connect 2 0 4 0;
#X connect 3 0 2 0;
#X connect 5 0 1 0;
#X restore 941 568 pd rs1;
#X obj 624 541 r \$0-switchA-s;
#X obj 894 544 r \$0-switchB-s;
#X obj 636 293 r \$0-channel1-panAB-s;
#X obj 785 294 r \$0-channel2-panAB-s;
#X obj 930 293 r \$0-channel3-panAB-s;
#X obj 1076 291 r \$0-channel4-panAB-s;
#X obj 611 320 ../other_patches/volumeandpan~, f 7;
#X obj 758 320 ../other_patches/volumeandpan~, f 7;
#X obj 1048 322 ../other_patches/volumeandpan~, f 7;
#X obj 906 321 ../other_patches/volumeandpan~, f 7;
#X obj 608 416 r \$0-channel1-panAB-s;
#X obj 757 417 r \$0-channel2-panAB-s;
#X obj 902 416 r \$0-channel3-panAB-s;
#X obj 1048 414 r \$0-channel4-panAB-s;
#X obj 583 443 ../other_patches/volumeandpan~, f 7;
#X obj 730 443 ../other_patches/volumeandpan~, f 7;
#X obj 1020 445 ../other_patches/volumeandpan~, f 7;
#X obj 878 444 ../other_patches/volumeandpan~, f 7;
#X obj 595 397 r \$0-channel1-fader-s;
#X obj 743 398 r \$0-channel2-fader-s;
#X obj 890 398 r \$0-channel3-fader-s;
#X obj 1037 396 r \$0-channel4-fader-s;
#X obj 727 586 *~;
#N canvas 612 128 450 300 rs0 0;
#X obj 153 83 inlet;
#X obj 151 110 == 0;
#X obj 150 137 tgl 15 0 empty empty empty 17 7 0 10 -262144 -1 -1 0
1;
#X obj 149 184 line~;
#X msg 148 160 \$1 100;
#X obj 147 215 outlet~;
#X connect 0 0 1 0;
#X connect 1 0 2 0;
#X connect 2 0 4 0;
#X connect 3 0 5 0;
#X connect 4 0 3 0;
#X restore 742 565 pd rs0;
#X obj 742 542 r \$0-switchA-s;
#X obj 985 589 *~;
#N canvas 612 128 450 300 rs0 0;
#X obj 153 83 inlet;
#X obj 151 110 == 0;
#X obj 150 137 tgl 15 0 empty empty empty 17 7 0 10 -262144 -1 -1 0
1;
#X obj 149 184 line~;
#X msg 148 160 \$1 100;
#X obj 147 215 outlet~;
#X connect 0 0 1 0;
#X connect 1 0 2 0;
#X connect 2 0 4 0;
#X connect 3 0 5 0;
#X connect 4 0 3 0;
#X restore 1000 568 pd rs0;
#X obj 1000 544 r \$0-switchB-s;
#X text 254 399 B;
#X text 298 399 XEB;
#X obj 1125 495 *~;
#N canvas 612 128 450 300 rs0 0;
#X obj 153 83 inlet;
#X obj 151 110 == 0;
#X obj 150 137 tgl 15 0 empty empty empty 17 7 0 10 -262144 -1 -1 0
1;
#X obj 149 184 line~;
#X msg 148 160 \$1 100;
#X obj 147 215 outlet~;
#X connect 0 0 1 0;
#X connect 1 0 2 0;
#X connect 2 0 4 0;
#X connect 3 0 5 0;
#X connect 4 0 3 0;
#X restore 1140 472 pd rs0;
#X obj 1219 495 *~;
#N canvas 612 128 450 300 rs2 0;
#X obj 153 83 inlet;
#X obj 150 137 tgl 15 0 empty empty empty 17 7 0 10 -262144 -1 -1 0
1;
#X obj 149 184 line~;
#X msg 148 160 \$1 100;
#X obj 147 215 outlet~;
#X obj 151 110 == 2;
#X connect 0 0 5 0;
#X connect 1 0 3 0;
#X connect 2 0 4 0;
#X connect 3 0 2 0;
#X connect 5 0 1 0;
#X restore 1234 471 pd rs2;
#X obj 1294 493 *~;
#N canvas 612 128 450 300 rs0 0;
#X obj 153 83 inlet;
#X obj 151 110 == 0;
#X obj 150 137 tgl 15 0 empty empty empty 17 7 0 10 -262144 -1 -1 0
1;
#X obj 149 184 line~;
#X msg 148 160 \$1 100;
#X obj 147 215 outlet~;
#X connect 0 0 1 0;
#X connect 1 0 2 0;
#X connect 2 0 4 0;
#X connect 3 0 5 0;
#X connect 4 0 3 0;
#X restore 1309 473 pd rs0;
#X obj 1388 493 *~;
#N canvas 612 128 450 300 rs2 0;
#X obj 153 83 inlet;
#X obj 150 137 tgl 15 0 empty empty empty 17 7 0 10 -262144 -1 -1 0
1;
#X obj 149 184 line~;
#X msg 148 160 \$1 100;
#X obj 147 215 outlet~;
#X obj 151 110 == 2;
#X connect 0 0 5 0;
#X connect 1 0 3 0;
#X connect 2 0 4 0;
#X connect 3 0 2 0;
#X connect 5 0 1 0;
#X restore 1403 472 pd rs2;
#X obj 1459 492 *~;
#N canvas 612 128 450 300 rs0 0;
#X obj 153 83 inlet;
#X obj 151 110 == 0;
#X obj 150 137 tgl 15 0 empty empty empty 17 7 0 10 -262144 -1 -1 0
1;
#X obj 149 184 line~;
#X msg 148 160 \$1 100;
#X obj 147 215 outlet~;
#X connect 0 0 1 0;
#X connect 1 0 2 0;
#X connect 2 0 4 0;
#X connect 3 0 5 0;
#X connect 4 0 3 0;
#X restore 1474 472 pd rs0;
#X obj 1553 492 *~;
#N canvas 612 128 450 300 rs2 0;
#X obj 153 83 inlet;
#X obj 150 137 tgl 15 0 empty empty empty 17 7 0 10 -262144 -1 -1 0
1;
#X obj 149 184 line~;
#X msg 148 160 \$1 100;
#X obj 147 215 outlet~;
#X obj 151 110 == 2;
#X connect 0 0 5 0;
#X connect 1 0 3 0;
#X connect 2 0 4 0;
#X connect 3 0 2 0;
#X connect 5 0 1 0;
#X restore 1568 471 pd rs2;
#X obj 1623 492 *~;
#N canvas 612 128 450 300 rs0 0;
#X obj 153 83 inlet;
#X obj 151 110 == 0;
#X obj 150 137 tgl 15 0 empty empty empty 17 7 0 10 -262144 -1 -1 0
1;
#X obj 149 184 line~;
#X msg 148 160 \$1 100;
#X obj 147 215 outlet~;
#X connect 0 0 1 0;
#X connect 1 0 2 0;
#X connect 2 0 4 0;
#X connect 3 0 5 0;
#X connect 4 0 3 0;
#X restore 1638 472 pd rs0;
#X obj 1717 492 *~;
#N canvas 612 128 450 300 rs2 0;
#X obj 153 83 inlet;
#X obj 150 137 tgl 15 0 empty empty empty 17 7 0 10 -262144 -1 -1 0
1;
#X obj 149 184 line~;
#X msg 148 160 \$1 100;
#X obj 147 215 outlet~;
#X obj 151 110 == 2;
#X connect 0 0 5 0;
#X connect 1 0 3 0;
#X connect 2 0 4 0;
#X connect 3 0 2 0;
#X connect 5 0 1 0;
#X restore 1732 471 pd rs2;
#X obj 1140 443 r \$0-switch-preoffpost1-s;
#X obj 1309 444 r \$0-switch-preoffpost2-s;
#X obj 1474 443 r \$0-switch-preoffpost3-s;
#X obj 1638 443 r \$0-switch-preoffpost4-s;
#X obj 1298 567 ../other_patches/pan~, f 7;
#X obj 1313 546 / 127;
#X obj 1445 569 ../other_patches/pan~, f 7;
#X obj 1460 548 / 127;
#X obj 1608 551 / 127;
#X obj 1152 567 ../other_patches/pan~, f 7;
#X obj 1167 546 / 127;
#X obj 1167 524 r \$0-channel1-pan12-s;
#X obj 1313 525 r \$0-channel2-pan12-s;
#X obj 1460 526 r \$0-channel3-pan34-s;
#X obj 1608 527 r \$0-channel4-pan34-s;
#X obj 1598 576 ../other_patches/pan~, f 7;
#X obj 1523 656 outlet~ Ch4;
#X text 97 480 STATE SAVING and EXTERNAL CONTROL STUFF;
#N canvas 0 56 1366 679 state-saving-multiple-instances 0;
#X obj 233 37 loadbang;
#X obj 1555 192 textfile;
#X msg 1529 116 rewind;
#X msg 1486 116 bang;
#X obj 137 779 textfile;
#X obj 1486 77 t b b;
#X obj 138 445 f;
#X obj 151 668 f;
#X obj 79 489 t b b b;
#X msg 214 668 clear;
#X obj 300 179 outlet;
#X text 301 198 INSTANCE NUMBER;
#X obj 260 105 f \$1;
#X obj 261 133 t f f f;
#X obj 233 70 t b b;
#X obj 79 466 bng 15 250 50 0 empty empty empty 17 7 0 10 -262144 -1
-1;
#X obj 79 322 r SAVE-S;
#X obj 292 37 r \$0-reload!;
#X text 414 48 RETURN TO PREVIOUS VALUE AFTER USING MORPH-SEQ module
;
#X text 151 255 WRITE side;
#X text 1564 20 READ side;
#X text 470 759 i.e. "write statesave/\$1-\$2-PATCH_NAME-ss.txt";
#X text 471 737 <-----rename to match name of Pd patch;
#X text 1870 175 i.e. "write statesave/\$1-\$2-PATCH_NAME-ss.txt";
#X text 1828 159 <-----rename to match name of Pd patch;
#X text 524 491 <----- one "f" for each parameter;
#X text 523 538 <----- one "$N" for each parameter;
#X text 1040 411 <-----rename to match send symbol of each GUI element
;
#X text 1978 718 <-----rename to match receive symbol of each GUI element
;
#X text 1511 781 Keep these parameters in the same order on the WRITE
and READ sides;
#X text 1937 219 <----- one "f" for each parameter;
#X obj 138 480 pack f f f f f f f f f f f f f f f f f f f f f f f f
f f f f f f f f f f;
#X msg 138 526 set \$1 \$2 \$3 \$4 \$5 \$6 \$7 \$8 \$9 \$10 \$11 \$12
\$13 \$14 \$15 \$16 \$17 \$18 \$19 \$20 \$21 \$22 \$23 \$24 \$25 \$26
\$27 \$28 \$29 \$30 \$31 \$32 \$33 \$34;
#X msg 150 739 write statesave/\$1-quad-envelope-shaper-ss.txt;
#X msg 1555 159 read statesave/\$1-quad-envelope-shaper-ss.txt;
#X obj 1555 214 unpack f f f f f f f f f f f f f f f f f f f f f f
f f f f f f f f f f f f;
#X obj 150 275 r \$0-adsr-attack-1-s;
#X obj 162 298 r \$0-adsr-attack-2-s;
#X obj 171 321 r \$0-adsr-attack-3-s;
#X obj 179 344 r \$0-adsr-attack-4-s;
#X obj 280 275 r \$0-adsr-hold-1-s;
#X obj 292 298 r \$0-adsr-hold-2-s;
#X obj 301 321 r \$0-adsr-hold-3-s;
#X obj 309 344 r \$0-adsr-hold-4-s;
#X obj 398 275 r \$0-adsr-release-1-s;
#X obj 410 298 r \$0-adsr-release-2-s;
#X obj 419 321 r \$0-adsr-release-3-s;
#X obj 427 344 r \$0-adsr-release-4-s;
#X obj 533 275 r \$0-adsr-time-1-s;
#X obj 545 298 r \$0-adsr-time-2-s;
#X obj 554 321 r \$0-adsr-time-3-s;
#X obj 562 344 r \$0-adsr-time-4-s;
#X obj 650 276 r \$0-adsr-level-1-s;
#X obj 662 299 r \$0-adsr-level-2-s;
#X obj 671 322 r \$0-adsr-level-3-s;
#X obj 679 345 r \$0-adsr-level-4-s;
#X obj 774 276 r \$0-adsr-htoggle-1-s;
#X obj 786 299 r \$0-adsr-htoggle-2-s;
#X obj 795 322 r \$0-adsr-htoggle-3-s;
#X obj 803 345 r \$0-adsr-htoggle-4-s;
#X obj 911 276 r \$0-adsr-ttoggle-1-s;
#X obj 923 299 r \$0-adsr-ttoggle-2-s;
#X obj 932 322 r \$0-adsr-ttoggle-3-s;
#X obj 940 345 r \$0-adsr-ttoggle-4-s;
#X obj 1048 276 r \$0-adsr-ttroggle-1-s;
#X obj 1060 299 r \$0-adsr-ttroggle-2-s;
#X obj 1069 322 r \$0-adsr-ttroggle-3-s;
#X obj 1077 345 r \$0-adsr-ttroggle-4-s;
#X obj 899 399 r \$0-adsr-atoggle-1-s;
#X obj 899 422 r \$0-adsr-btoggle-2-s;
#X obj 1330 564 s \$0-adsr-attack-1-r;
#X obj 1331 587 s \$0-adsr-attack-2-r;
#X obj 1331 611 s \$0-adsr-attack-3-r;
#X obj 1331 634 s \$0-adsr-attack-4-r;
#X obj 1466 634 s \$0-adsr-hold-4-r;
#X obj 1466 611 s \$0-adsr-hold-3-r;
#X obj 1465 587 s \$0-adsr-hold-2-r;
#X obj 1465 564 s \$0-adsr-hold-1-r;
#X obj 1587 635 s \$0-adsr-release-4-r;
#X obj 1587 611 s \$0-adsr-release-3-r;
#X obj 1587 587 s \$0-adsr-release-2-r;
#X obj 1587 564 s \$0-adsr-release-1-r;
#X obj 1727 636 s \$0-adsr-time-4-r;
#X obj 1728 612 s \$0-adsr-time-3-r;
#X obj 1728 588 s \$0-adsr-time-2-r;
#X obj 1728 564 s \$0-adsr-time-1-r;
#X obj 1849 636 s \$0-adsr-level-4-r;
#X obj 1849 612 s \$0-adsr-level-3-r;
#X obj 1849 588 s \$0-adsr-level-2-r;
#X obj 1849 564 s \$0-adsr-level-1-r;
#X obj 1977 564 s \$0-adsr-htoggle-1-r;
#X obj 1977 588 s \$0-adsr-htoggle-2-r;
#X obj 1977 613 s \$0-adsr-htoggle-3-r;
#X obj 1977 636 s \$0-adsr-htoggle-4-r;
#X obj 2117 614 s \$0-adsr-ttoggle-3-r;
#X obj 2117 588 s \$0-adsr-ttoggle-2-r;
#X obj 2117 564 s \$0-adsr-ttoggle-1-r;
#X obj 2117 637 s \$0-adsr-ttoggle-4-r;
#X obj 2257 589 s \$0-adsr-ttroggle-2-r;
#X obj 2257 564 s \$0-adsr-ttroggle-1-r;
#X obj 2257 615 s \$0-adsr-ttroggle-3-r;
#X obj 2257 638 s \$0-adsr-ttroggle-4-r;
#X obj 2266 488 s \$0-adsr-atoggle-r;
#X obj 2266 510 s \$0-adsr-btoggle-r;
#X connect 0 0 14 0;
#X connect 1 0 35 0;
#X connect 2 0 1 0;
#X connect 3 0 1 0;
#X connect 5 0 3 0;
#X connect 5 1 2 0;
#X connect 6 0 31 0;
#X connect 7 0 33 0;
#X connect 8 0 7 0;
#X connect 8 1 6 0;
#X connect 8 2 9 0;
#X connect 9 0 4 0;
#X connect 12 0 13 0;
#X connect 13 0 7 1;
#X connect 13 1 34 0;
#X connect 13 2 10 0;
#X connect 14 0 5 0;
#X connect 14 1 12 0;
#X connect 15 0 8 0;
#X connect 16 0 15 0;
#X connect 17 0 14 0;
#X connect 31 0 32 0;
#X connect 32 0 4 0;
#X connect 33 0 4 0;
#X connect 34 0 1 0;
#X connect 35 0 70 0;
#X connect 35 1 71 0;
#X connect 35 2 72 0;
#X connect 35 3 73 0;
#X connect 35 4 77 0;
#X connect 35 5 76 0;
#X connect 35 6 75 0;
#X connect 35 7 74 0;
#X connect 35 8 81 0;
#X connect 35 9 80 0;
#X connect 35 10 79 0;
#X connect 35 11 78 0;
#X connect 35 12 85 0;
#X connect 35 13 84 0;
#X connect 35 14 83 0;
#X connect 35 15 82 0;
#X connect 35 16 89 0;
#X connect 35 17 88 0;
#X connect 35 18 87 0;
#X connect 35 19 86 0;
#X connect 35 20 90 0;
#X connect 35 21 91 0;
#X connect 35 22 92 0;
#X connect 35 23 93 0;
#X connect 35 24 96 0;
#X connect 35 25 95 0;
#X connect 35 26 94 0;
#X connect 35 27 97 0;
#X connect 35 28 99 0;
#X connect 35 29 98 0;
#X connect 35 30 100 0;
#X connect 35 31 101 0;
#X connect 35 32 102 0;
#X connect 35 33 103 0;
#X connect 36 0 6 1;
#X connect 37 0 31 1;
#X connect 38 0 31 2;
#X connect 39 0 31 3;
#X connect 40 0 31 4;
#X connect 41 0 31 5;
#X connect 42 0 31 6;
#X connect 43 0 31 7;
#X connect 44 0 31 8;
#X connect 45 0 31 9;
#X connect 46 0 31 10;
#X connect 47 0 31 11;
#X connect 48 0 31 12;
#X connect 49 0 31 13;
#X connect 50 0 31 14;
#X connect 51 0 31 15;
#X connect 52 0 31 16;
#X connect 53 0 31 17;
#X connect 54 0 31 18;
#X connect 55 0 31 19;
#X connect 56 0 31 20;
#X connect 57 0 31 21;
#X connect 58 0 31 22;
#X connect 59 0 31 23;
#X connect 60 0 31 24;
#X connect 61 0 31 25;
#X connect 62 0 31 26;
#X connect 63 0 31 27;
#X connect 64 0 31 28;
#X connect 65 0 31 29;
#X connect 66 0 31 30;
#X connect 67 0 31 31;
#X connect 68 0 31 32;
#X connect 69 0 31 33;
#X restore 98 574 pd state-saving-multiple-instances;
#X obj 98 665 s \$0-instance-num;
#X obj 98 617 makefilename %d;
#X msg 98 642 label \$1;
#N canvas 0 56 1366 679 state-saving-via-preset-manager-module 0;
#X obj 54 52 cnv 15 1200 800 empty empty WRITE 20 20 0 20 -233017 -66577
0;
#X obj 136 804 textfile;
#X obj 134 322 f;
#X obj 147 545 f;
#X obj 80 440 t b b b;
#X msg 187 702 clear;
#X obj 134 144 delay 5;
#X obj 80 495 delay 10;
#X msg 80 280 bang;
#X obj 80 114 r STORE-S!;
#X obj 147 575 pack f f;
#X obj 192 528 loadbang;
#X obj 192 550 f \$1;
#X obj 162 506 r preset-manager-store-slot;
#X text 540 747 i.e. "write statesave/\$1-\$2-PATCH_NAME-ss.txt";
#X text 495 728 <-----rename to match name of Pd patch;
#X text 515 394 <----- one "f" for each parameter;
#X text 512 469 <----- one "$N" for each parameter;
#X text 908 348 <-----rename to match send symbol of each GUI element
;
#X obj 153 179 r \$0-adsr-attack-1-s;
#X obj 165 202 r \$0-adsr-attack-2-s;
#X obj 174 225 r \$0-adsr-attack-3-s;
#X obj 182 248 r \$0-adsr-attack-4-s;
#X obj 283 179 r \$0-adsr-hold-1-s;
#X obj 295 202 r \$0-adsr-hold-2-s;
#X obj 304 225 r \$0-adsr-hold-3-s;
#X obj 312 248 r \$0-adsr-hold-4-s;
#X obj 401 179 r \$0-adsr-release-1-s;
#X obj 413 202 r \$0-adsr-release-2-s;
#X obj 422 225 r \$0-adsr-release-3-s;
#X obj 430 248 r \$0-adsr-release-4-s;
#X obj 536 179 r \$0-adsr-time-1-s;
#X obj 548 202 r \$0-adsr-time-2-s;
#X obj 557 225 r \$0-adsr-time-3-s;
#X obj 565 248 r \$0-adsr-time-4-s;
#X obj 653 180 r \$0-adsr-level-1-s;
#X obj 665 203 r \$0-adsr-level-2-s;
#X obj 674 226 r \$0-adsr-level-3-s;
#X obj 682 249 r \$0-adsr-level-4-s;
#X obj 777 180 r \$0-adsr-htoggle-1-s;
#X obj 789 203 r \$0-adsr-htoggle-2-s;
#X obj 798 226 r \$0-adsr-htoggle-3-s;
#X obj 806 249 r \$0-adsr-htoggle-4-s;
#X obj 914 180 r \$0-adsr-ttoggle-1-s;
#X obj 926 203 r \$0-adsr-ttoggle-2-s;
#X obj 935 226 r \$0-adsr-ttoggle-3-s;
#X obj 943 249 r \$0-adsr-ttoggle-4-s;
#X obj 1051 180 r \$0-adsr-ttroggle-1-s;
#X obj 1063 203 r \$0-adsr-ttroggle-2-s;
#X obj 1072 226 r \$0-adsr-ttroggle-3-s;
#X obj 1080 249 r \$0-adsr-ttroggle-4-s;
#X obj 134 388 pack f f f f f f f f f f f f f f f f f f f f f f f f
f f f f f f f f f f;
#X obj 763 340 r \$0-adsr-atoggle-1-s;
#X obj 763 363 r \$0-adsr-btoggle-2-s;
#X msg 134 438 set \$1 \$2 \$3 \$4 \$5 \$6 \$7 \$8 \$9 \$10 \$11 \$12
\$13 \$14 \$15 \$16 \$17 \$18 \$19 \$20 \$21 \$22 \$23 \$24 \$25 \$26
\$27 \$28 \$29 \$30 \$31 \$32 \$33 \$34;
#X msg 186 729 write statesave/\$1-\$2-quad-envelope-shaper-ss.txt
;
#X obj 54 868 cnv 15 1200 800 empty empty READ 20 20 0 20 -233017 -66577
0;
#X obj 207 1133 textfile;
#X msg 143 1082 rewind;
#X msg 100 1082 bang;
#X obj 100 1043 t b b;
#X obj 207 1034 f;
#X obj 180 998 t b b;
#X obj 180 955 t b f;
#X obj 252 1052 f \$1;
#X obj 207 1079 pack f f;
#X obj 252 1002 loadbang;
#X obj 180 932 r preset-manager-scan;
#N canvas 3 56 1069 676 morph-parameters 0;
#X obj 176 94 inlet;
#X obj 176 236 pack f f;
#X obj 176 261 line;
#X obj 209 117 r preset-manager-morph-s;
#X msg 72 244 stop;
#X obj 72 214 r STOP-MORPH!;
#X obj 209 206 spigot;
#X obj 398 137 t f f;
#X obj 455 154 == 0;
#X obj 221 176 f;
#X floatatom 455 222 5 0 0 0 - - -;
#X obj 398 159 t b f;
#X floatatom 425 192 5 0 0 0 - - -;
#X obj 209 139 t f f;
#X obj 398 102 r parameters-s;
#X obj 176 288 outlet;
#X connect 0 0 1 0;
#X connect 1 0 2 0;
#X connect 2 0 15 0;
#X connect 3 0 13 0;
#X connect 4 0 2 0;
#X connect 5 0 4 0;
#X connect 6 0 1 1;
#X connect 7 0 11 0;
#X connect 7 1 8 0;
#X connect 8 0 10 0;
#X connect 9 0 6 0;
#X connect 10 0 1 1;
#X connect 11 0 9 0;
#X connect 11 1 12 0;
#X connect 12 0 6 1;
#X connect 13 0 6 0;
#X connect 13 1 9 1;
#X connect 14 0 7 0;
#X restore 207 1613 pd morph-parameters;
#X text 483 1107 <-----rename to match name of Pd patch;
#X text 515 1127 i.e. "read statesave/\$1-\$2-PATCH_NAME-ss.txt";
#X text 587 1188 <----- one "f" for each parameter;
#X text 855 930 Keep these parameters in the same order on the WRITE
and READ sides;
#X msg 206 1108 read statesave/\$1-\$2-quad-envelope-shaper-ss.txt
;
#X obj 207 1185 unpack f f f f f f f f f f f f f f f f f f f f f f
f f f f f f f f f f f f;
#X obj 207 1637 s \$0-adsr-attack-1-r;
#N canvas 3 56 1069 676 morph-parameters 0;
#X obj 176 94 inlet;
#X obj 176 236 pack f f;
#X obj 176 261 line;
#X obj 209 117 r preset-manager-morph-s;
#X msg 72 244 stop;
#X obj 72 214 r STOP-MORPH!;
#X obj 209 206 spigot;
#X obj 398 137 t f f;
#X obj 455 154 == 0;
#X obj 221 176 f;
#X floatatom 455 222 5 0 0 0 - - -;
#X obj 398 159 t b f;
#X floatatom 425 192 5 0 0 0 - - -;
#X obj 209 139 t f f;
#X obj 398 102 r parameters-s;
#X obj 176 288 outlet;
#X connect 0 0 1 0;
#X connect 1 0 2 0;
#X connect 2 0 15 0;
#X connect 3 0 13 0;
#X connect 4 0 2 0;
#X connect 5 0 4 0;
#X connect 6 0 1 1;
#X connect 7 0 11 0;
#X connect 7 1 8 0;
#X connect 8 0 10 0;
#X connect 9 0 6 0;
#X connect 10 0 1 1;
#X connect 11 0 9 0;
#X connect 11 1 12 0;
#X connect 12 0 6 1;
#X connect 13 0 6 0;
#X connect 13 1 9 1;
#X connect 14 0 7 0;
#X restore 217 1566 pd morph-parameters;
#X obj 217 1590 s \$0-adsr-attack-2-r;
#N canvas 3 56 1069 676 morph-parameters 0;
#X obj 176 94 inlet;
#X obj 176 236 pack f f;
#X obj 176 261 line;
#X obj 209 117 r preset-manager-morph-s;
#X msg 72 244 stop;
#X obj 72 214 r STOP-MORPH!;
#X obj 209 206 spigot;
#X obj 398 137 t f f;
#X obj 455 154 == 0;
#X obj 221 176 f;
#X floatatom 455 222 5 0 0 0 - - -;
#X obj 398 159 t b f;
#X floatatom 425 192 5 0 0 0 - - -;
#X obj 209 139 t f f;
#X obj 398 102 r parameters-s;
#X obj 176 288 outlet;
#X connect 0 0 1 0;
#X connect 1 0 2 0;
#X connect 2 0 15 0;
#X connect 3 0 13 0;
#X connect 4 0 2 0;
#X connect 5 0 4 0;
#X connect 6 0 1 1;
#X connect 7 0 11 0;
#X connect 7 1 8 0;
#X connect 8 0 10 0;
#X connect 9 0 6 0;
#X connect 10 0 1 1;
#X connect 11 0 9 0;
#X connect 11 1 12 0;
#X connect 12 0 6 1;
#X connect 13 0 6 0;
#X connect 13 1 9 1;
#X connect 14 0 7 0;
#X restore 228 1519 pd morph-parameters;
#X obj 228 1543 s \$0-adsr-attack-3-r;
#N canvas 3 56 1069 676 morph-parameters 0;
#X obj 176 94 inlet;
#X obj 176 236 pack f f;
#X obj 176 261 line;
#X obj 209 117 r preset-manager-morph-s;
#X msg 72 244 stop;
#X obj 72 214 r STOP-MORPH!;
#X obj 209 206 spigot;
#X obj 398 137 t f f;
#X obj 455 154 == 0;
#X obj 221 176 f;
#X floatatom 455 222 5 0 0 0 - - -;
#X obj 398 159 t b f;
#X floatatom 425 192 5 0 0 0 - - -;
#X obj 209 139 t f f;
#X obj 398 102 r parameters-s;
#X obj 176 288 outlet;
#X connect 0 0 1 0;
#X connect 1 0 2 0;
#X connect 2 0 15 0;
#X connect 3 0 13 0;
#X connect 4 0 2 0;
#X connect 5 0 4 0;
#X connect 6 0 1 1;
#X connect 7 0 11 0;
#X connect 7 1 8 0;
#X connect 8 0 10 0;
#X connect 9 0 6 0;
#X connect 10 0 1 1;
#X connect 11 0 9 0;
#X connect 11 1 12 0;
#X connect 12 0 6 1;
#X connect 13 0 6 0;
#X connect 13 1 9 1;
#X connect 14 0 7 0;
#X restore 239 1471 pd morph-parameters;
#X obj 239 1495 s \$0-adsr-attack-4-r;
#N canvas 3 56 1069 676 morph-parameters 0;
#X obj 176 94 inlet;
#X obj 176 236 pack f f;
#X obj 176 261 line;
#X obj 209 117 r preset-manager-morph-s;
#X msg 72 244 stop;
#X obj 72 214 r STOP-MORPH!;
#X obj 209 206 spigot;
#X obj 398 137 t f f;
#X obj 455 154 == 0;
#X obj 221 176 f;
#X floatatom 455 222 5 0 0 0 - - -;
#X obj 398 159 t b f;
#X floatatom 425 192 5 0 0 0 - - -;
#X obj 209 139 t f f;
#X obj 398 102 r parameters-s;
#X obj 176 288 outlet;
#X connect 0 0 1 0;
#X connect 1 0 2 0;
#X connect 2 0 15 0;
#X connect 3 0 13 0;
#X connect 4 0 2 0;
#X connect 5 0 4 0;
#X connect 6 0 1 1;
#X connect 7 0 11 0;
#X connect 7 1 8 0;
#X connect 8 0 10 0;
#X connect 9 0 6 0;
#X connect 10 0 1 1;
#X connect 11 0 9 0;
#X connect 11 1 12 0;
#X connect 12 0 6 1;
#X connect 13 0 6 0;
#X connect 13 1 9 1;
#X connect 14 0 7 0;
#X restore 344 1613 pd morph-parameters;
#N canvas 3 56 1069 676 morph-parameters 0;
#X obj 176 94 inlet;
#X obj 176 236 pack f f;
#X obj 176 261 line;
#X obj 209 117 r preset-manager-morph-s;
#X msg 72 244 stop;
#X obj 72 214 r STOP-MORPH!;
#X obj 209 206 spigot;
#X obj 398 137 t f f;
#X obj 455 154 == 0;
#X obj 221 176 f;
#X floatatom 455 222 5 0 0 0 - - -;
#X obj 398 159 t b f;
#X floatatom 425 192 5 0 0 0 - - -;
#X obj 209 139 t f f;
#X obj 398 102 r parameters-s;
#X obj 176 288 outlet;
#X connect 0 0 1 0;
#X connect 1 0 2 0;
#X connect 2 0 15 0;
#X connect 3 0 13 0;
#X connect 4 0 2 0;
#X connect 5 0 4 0;
#X connect 6 0 1 1;
#X connect 7 0 11 0;
#X connect 7 1 8 0;
#X connect 8 0 10 0;
#X connect 9 0 6 0;
#X connect 10 0 1 1;
#X connect 11 0 9 0;
#X connect 11 1 12 0;
#X connect 12 0 6 1;
#X connect 13 0 6 0;
#X connect 13 1 9 1;
#X connect 14 0 7 0;
#X restore 354 1566 pd morph-parameters;
#N canvas 3 56 1069 676 morph-parameters 0;
#X obj 176 94 inlet;
#X obj 176 236 pack f f;
#X obj 176 261 line;
#X obj 209 117 r preset-manager-morph-s;
#X msg 72 244 stop;
#X obj 72 214 r STOP-MORPH!;
#X obj 209 206 spigot;
#X obj 398 137 t f f;
#X obj 455 154 == 0;
#X obj 221 176 f;
#X floatatom 455 222 5 0 0 0 - - -;
#X obj 398 159 t b f;
#X floatatom 425 192 5 0 0 0 - - -;
#X obj 209 139 t f f;
#X obj 398 102 r parameters-s;
#X obj 176 288 outlet;
#X connect 0 0 1 0;
#X connect 1 0 2 0;
#X connect 2 0 15 0;
#X connect 3 0 13 0;
#X connect 4 0 2 0;
#X connect 5 0 4 0;
#X connect 6 0 1 1;
#X connect 7 0 11 0;
#X connect 7 1 8 0;
#X connect 8 0 10 0;
#X connect 9 0 6 0;
#X connect 10 0 1 1;
#X connect 11 0 9 0;
#X connect 11 1 12 0;
#X connect 12 0 6 1;
#X connect 13 0 6 0;
#X connect 13 1 9 1;
#X connect 14 0 7 0;
#X restore 365 1519 pd morph-parameters;
#N canvas 3 56 1069 676 morph-parameters 0;
#X obj 176 94 inlet;
#X obj 176 236 pack f f;
#X obj 176 261 line;
#X obj 209 117 r preset-manager-morph-s;
#X msg 72 244 stop;
#X obj 72 214 r STOP-MORPH!;
#X obj 209 206 spigot;
#X obj 398 137 t f f;
#X obj 455 154 == 0;
#X obj 221 176 f;
#X floatatom 455 222 5 0 0 0 - - -;
#X obj 398 159 t b f;
#X floatatom 425 192 5 0 0 0 - - -;
#X obj 209 139 t f f;
#X obj 398 102 r parameters-s;
#X obj 176 288 outlet;
#X connect 0 0 1 0;
#X connect 1 0 2 0;
#X connect 2 0 15 0;
#X connect 3 0 13 0;
#X connect 4 0 2 0;
#X connect 5 0 4 0;
#X connect 6 0 1 1;
#X connect 7 0 11 0;
#X connect 7 1 8 0;
#X connect 8 0 10 0;
#X connect 9 0 6 0;
#X connect 10 0 1 1;
#X connect 11 0 9 0;
#X connect 11 1 12 0;
#X connect 12 0 6 1;
#X connect 13 0 6 0;
#X connect 13 1 9 1;
#X connect 14 0 7 0;
#X restore 376 1471 pd morph-parameters;
#N canvas 3 56 1069 676 morph-parameters 0;
#X obj 176 94 inlet;
#X obj 176 236 pack f f;
#X obj 176 261 line;
#X obj 209 117 r preset-manager-morph-s;
#X msg 72 244 stop;
#X obj 72 214 r STOP-MORPH!;
#X obj 209 206 spigot;
#X obj 398 137 t f f;
#X obj 455 154 == 0;
#X obj 221 176 f;
#X floatatom 455 222 5 0 0 0 - - -;
#X obj 398 159 t b f;
#X floatatom 425 192 5 0 0 0 - - -;
#X obj 209 139 t f f;
#X obj 398 102 r parameters-s;
#X obj 176 288 outlet;
#X connect 0 0 1 0;
#X connect 1 0 2 0;
#X connect 2 0 15 0;
#X connect 3 0 13 0;
#X connect 4 0 2 0;
#X connect 5 0 4 0;
#X connect 6 0 1 1;
#X connect 7 0 11 0;
#X connect 7 1 8 0;
#X connect 8 0 10 0;
#X connect 9 0 6 0;
#X connect 10 0 1 1;
#X connect 11 0 9 0;
#X connect 11 1 12 0;
#X connect 12 0 6 1;
#X connect 13 0 6 0;
#X connect 13 1 9 1;
#X connect 14 0 7 0;
#X restore 484 1613 pd morph-parameters;
#N canvas 3 56 1069 676 morph-parameters 0;
#X obj 176 94 inlet;
#X obj 176 236 pack f f;
#X obj 176 261 line;
#X obj 209 117 r preset-manager-morph-s;
#X msg 72 244 stop;
#X obj 72 214 r STOP-MORPH!;
#X obj 209 206 spigot;
#X obj 398 137 t f f;
#X obj 455 154 == 0;
#X obj 221 176 f;
#X floatatom 455 222 5 0 0 0 - - -;
#X obj 398 159 t b f;
#X floatatom 425 192 5 0 0 0 - - -;
#X obj 209 139 t f f;
#X obj 398 102 r parameters-s;
#X obj 176 288 outlet;
#X connect 0 0 1 0;
#X connect 1 0 2 0;
#X connect 2 0 15 0;
#X connect 3 0 13 0;
#X connect 4 0 2 0;
#X connect 5 0 4 0;
#X connect 6 0 1 1;
#X connect 7 0 11 0;
#X connect 7 1 8 0;
#X connect 8 0 10 0;
#X connect 9 0 6 0;
#X connect 10 0 1 1;
#X connect 11 0 9 0;
#X connect 11 1 12 0;
#X connect 12 0 6 1;
#X connect 13 0 6 0;
#X connect 13 1 9 1;
#X connect 14 0 7 0;
#X restore 494 1566 pd morph-parameters;
#N canvas 3 56 1069 676 morph-parameters 0;
#X obj 176 94 inlet;
#X obj 176 236 pack f f;
#X obj 176 261 line;
#X obj 209 117 r preset-manager-morph-s;
#X msg 72 244 stop;
#X obj 72 214 r STOP-MORPH!;
#X obj 209 206 spigot;
#X obj 398 137 t f f;
#X obj 455 154 == 0;
#X obj 221 176 f;
#X floatatom 455 222 5 0 0 0 - - -;
#X obj 398 159 t b f;
#X floatatom 425 192 5 0 0 0 - - -;
#X obj 209 139 t f f;
#X obj 398 102 r parameters-s;
#X obj 176 288 outlet;
#X connect 0 0 1 0;
#X connect 1 0 2 0;
#X connect 2 0 15 0;
#X connect 3 0 13 0;
#X connect 4 0 2 0;
#X connect 5 0 4 0;
#X connect 6 0 1 1;
#X connect 7 0 11 0;
#X connect 7 1 8 0;
#X connect 8 0 10 0;
#X connect 9 0 6 0;
#X connect 10 0 1 1;
#X connect 11 0 9 0;
#X connect 11 1 12 0;
#X connect 12 0 6 1;
#X connect 13 0 6 0;
#X connect 13 1 9 1;
#X connect 14 0 7 0;
#X restore 505 1519 pd morph-parameters;
#N canvas 3 56 1069 676 morph-parameters 0;
#X obj 176 94 inlet;
#X obj 176 236 pack f f;
#X obj 176 261 line;
#X obj 209 117 r preset-manager-morph-s;
#X msg 72 244 stop;
#X obj 72 214 r STOP-MORPH!;
#X obj 209 206 spigot;
#X obj 398 137 t f f;
#X obj 455 154 == 0;
#X obj 221 176 f;
#X floatatom 455 222 5 0 0 0 - - -;
#X obj 398 159 t b f;
#X floatatom 425 192 5 0 0 0 - - -;
#X obj 209 139 t f f;
#X obj 398 102 r parameters-s;
#X obj 176 288 outlet;
#X connect 0 0 1 0;
#X connect 1 0 2 0;
#X connect 2 0 15 0;
#X connect 3 0 13 0;
#X connect 4 0 2 0;
#X connect 5 0 4 0;
#X connect 6 0 1 1;
#X connect 7 0 11 0;
#X connect 7 1 8 0;
#X connect 8 0 10 0;
#X connect 9 0 6 0;
#X connect 10 0 1 1;
#X connect 11 0 9 0;
#X connect 11 1 12 0;
#X connect 12 0 6 1;
#X connect 13 0 6 0;
#X connect 13 1 9 1;
#X connect 14 0 7 0;
#X restore 516 1471 pd morph-parameters;
#N canvas 3 56 1069 676 morph-parameters 0;
#X obj 176 94 inlet;
#X obj 176 236 pack f f;
#X obj 176 261 line;
#X obj 209 117 r preset-manager-morph-s;
#X msg 72 244 stop;
#X obj 72 214 r STOP-MORPH!;
#X obj 209 206 spigot;
#X obj 398 137 t f f;
#X obj 455 154 == 0;
#X obj 221 176 f;
#X floatatom 455 222 5 0 0 0 - - -;
#X obj 398 159 t b f;
#X floatatom 425 192 5 0 0 0 - - -;
#X obj 209 139 t f f;
#X obj 398 102 r parameters-s;
#X obj 176 288 outlet;
#X connect 0 0 1 0;
#X connect 1 0 2 0;
#X connect 2 0 15 0;
#X connect 3 0 13 0;
#X connect 4 0 2 0;
#X connect 5 0 4 0;
#X connect 6 0 1 1;
#X connect 7 0 11 0;
#X connect 7 1 8 0;
#X connect 8 0 10 0;
#X connect 9 0 6 0;
#X connect 10 0 1 1;
#X connect 11 0 9 0;
#X connect 11 1 12 0;
#X connect 12 0 6 1;
#X connect 13 0 6 0;
#X connect 13 1 9 1;
#X connect 14 0 7 0;
#X restore 622 1613 pd morph-parameters;
#N canvas 3 56 1069 676 morph-parameters 0;
#X obj 176 94 inlet;
#X obj 176 236 pack f f;
#X obj 176 261 line;
#X obj 209 117 r preset-manager-morph-s;
#X msg 72 244 stop;
#X obj 72 214 r STOP-MORPH!;
#X obj 209 206 spigot;
#X obj 398 137 t f f;
#X obj 455 154 == 0;
#X obj 221 176 f;
#X floatatom 455 222 5 0 0 0 - - -;
#X obj 398 159 t b f;
#X floatatom 425 192 5 0 0 0 - - -;
#X obj 209 139 t f f;
#X obj 398 102 r parameters-s;
#X obj 176 288 outlet;
#X connect 0 0 1 0;
#X connect 1 0 2 0;
#X connect 2 0 15 0;
#X connect 3 0 13 0;
#X connect 4 0 2 0;
#X connect 5 0 4 0;
#X connect 6 0 1 1;
#X connect 7 0 11 0;
#X connect 7 1 8 0;
#X connect 8 0 10 0;
#X connect 9 0 6 0;
#X connect 10 0 1 1;
#X connect 11 0 9 0;
#X connect 11 1 12 0;
#X connect 12 0 6 1;
#X connect 13 0 6 0;
#X connect 13 1 9 1;
#X connect 14 0 7 0;
#X restore 632 1566 pd morph-parameters;
#N canvas 3 56 1069 676 morph-parameters 0;
#X obj 176 94 inlet;
#X obj 176 236 pack f f;
#X obj 176 261 line;
#X obj 209 117 r preset-manager-morph-s;
#X msg 72 244 stop;
#X obj 72 214 r STOP-MORPH!;
#X obj 209 206 spigot;
#X obj 398 137 t f f;
#X obj 455 154 == 0;
#X obj 221 176 f;
#X floatatom 455 222 5 0 0 0 - - -;
#X obj 398 159 t b f;
#X floatatom 425 192 5 0 0 0 - - -;
#X obj 209 139 t f f;
#X obj 398 102 r parameters-s;
#X obj 176 288 outlet;
#X connect 0 0 1 0;
#X connect 1 0 2 0;
#X connect 2 0 15 0;
#X connect 3 0 13 0;
#X connect 4 0 2 0;
#X connect 5 0 4 0;
#X connect 6 0 1 1;
#X connect 7 0 11 0;
#X connect 7 1 8 0;
#X connect 8 0 10 0;
#X connect 9 0 6 0;
#X connect 10 0 1 1;
#X connect 11 0 9 0;
#X connect 11 1 12 0;
#X connect 12 0 6 1;
#X connect 13 0 6 0;
#X connect 13 1 9 1;
#X connect 14 0 7 0;
#X restore 643 1519 pd morph-parameters;
#N canvas 3 56 1069 676 morph-parameters 0;
#X obj 176 94 inlet;
#X obj 176 236 pack f f;
#X obj 176 261 line;
#X obj 209 117 r preset-manager-morph-s;
#X msg 72 244 stop;
#X obj 72 214 r STOP-MORPH!;
#X obj 209 206 spigot;
#X obj 398 137 t f f;
#X obj 455 154 == 0;
#X obj 221 176 f;
#X floatatom 455 222 5 0 0 0 - - -;
#X obj 398 159 t b f;
#X floatatom 425 192 5 0 0 0 - - -;
#X obj 209 139 t f f;
#X obj 398 102 r parameters-s;
#X obj 176 288 outlet;
#X connect 0 0 1 0;
#X connect 1 0 2 0;
#X connect 2 0 15 0;
#X connect 3 0 13 0;
#X connect 4 0 2 0;
#X connect 5 0 4 0;
#X connect 6 0 1 1;
#X connect 7 0 11 0;
#X connect 7 1 8 0;
#X connect 8 0 10 0;
#X connect 9 0 6 0;
#X connect 10 0 1 1;
#X connect 11 0 9 0;
#X connect 11 1 12 0;
#X connect 12 0 6 1;
#X connect 13 0 6 0;
#X connect 13 1 9 1;
#X connect 14 0 7 0;
#X restore 654 1471 pd morph-parameters;
#X obj 376 1495 s \$0-adsr-hold-4-r;
#X obj 365 1543 s \$0-adsr-hold-3-r;
#X obj 354 1590 s \$0-adsr-hold-2-r;
#X obj 344 1637 s \$0-adsr-hold-1-r;
#X obj 516 1495 s \$0-adsr-release-4-r;
#X obj 505 1543 s \$0-adsr-release-3-r;
#X obj 494 1590 s \$0-adsr-release-2-r;
#X obj 484 1637 s \$0-adsr-release-1-r;
#X obj 654 1495 s \$0-adsr-time-4-r;
#X obj 643 1543 s \$0-adsr-time-3-r;
#X obj 632 1590 s \$0-adsr-time-2-r;
#X obj 622 1637 s \$0-adsr-time-1-r;
#N canvas 3 56 1069 676 morph-parameters 0;
#X obj 176 94 inlet;
#X obj 176 236 pack f f;
#X obj 176 261 line;
#X obj 209 117 r preset-manager-morph-s;
#X msg 72 244 stop;
#X obj 72 214 r STOP-MORPH!;
#X obj 209 206 spigot;
#X obj 398 137 t f f;
#X obj 455 154 == 0;
#X obj 221 176 f;
#X floatatom 455 222 5 0 0 0 - - -;
#X obj 398 159 t b f;
#X floatatom 425 192 5 0 0 0 - - -;
#X obj 209 139 t f f;
#X obj 398 102 r parameters-s;
#X obj 176 288 outlet;
#X connect 0 0 1 0;
#X connect 1 0 2 0;
#X connect 2 0 15 0;
#X connect 3 0 13 0;
#X connect 4 0 2 0;
#X connect 5 0 4 0;
#X connect 6 0 1 1;
#X connect 7 0 11 0;
#X connect 7 1 8 0;
#X connect 8 0 10 0;
#X connect 9 0 6 0;
#X connect 10 0 1 1;
#X connect 11 0 9 0;
#X connect 11 1 12 0;
#X connect 12 0 6 1;
#X connect 13 0 6 0;
#X connect 13 1 9 1;
#X connect 14 0 7 0;
#X restore 749 1613 pd morph-parameters;
#N canvas 3 56 1069 676 morph-parameters 0;
#X obj 176 94 inlet;
#X obj 176 236 pack f f;
#X obj 176 261 line;
#X obj 209 117 r preset-manager-morph-s;
#X msg 72 244 stop;
#X obj 72 214 r STOP-MORPH!;
#X obj 209 206 spigot;
#X obj 398 137 t f f;
#X obj 455 154 == 0;
#X obj 221 176 f;
#X floatatom 455 222 5 0 0 0 - - -;
#X obj 398 159 t b f;
#X floatatom 425 192 5 0 0 0 - - -;
#X obj 209 139 t f f;
#X obj 398 102 r parameters-s;
#X obj 176 288 outlet;
#X connect 0 0 1 0;
#X connect 1 0 2 0;
#X connect 2 0 15 0;
#X connect 3 0 13 0;
#X connect 4 0 2 0;
#X connect 5 0 4 0;
#X connect 6 0 1 1;
#X connect 7 0 11 0;
#X connect 7 1 8 0;
#X connect 8 0 10 0;
#X connect 9 0 6 0;
#X connect 10 0 1 1;
#X connect 11 0 9 0;
#X connect 11 1 12 0;
#X connect 12 0 6 1;
#X connect 13 0 6 0;
#X connect 13 1 9 1;
#X connect 14 0 7 0;
#X restore 759 1566 pd morph-parameters;
#N canvas 3 56 1069 676 morph-parameters 0;
#X obj 176 94 inlet;
#X obj 176 236 pack f f;
#X obj 176 261 line;
#X obj 209 117 r preset-manager-morph-s;
#X msg 72 244 stop;
#X obj 72 214 r STOP-MORPH!;
#X obj 209 206 spigot;
#X obj 398 137 t f f;
#X obj 455 154 == 0;
#X obj 221 176 f;
#X floatatom 455 222 5 0 0 0 - - -;
#X obj 398 159 t b f;
#X floatatom 425 192 5 0 0 0 - - -;
#X obj 209 139 t f f;
#X obj 398 102 r parameters-s;
#X obj 176 288 outlet;
#X connect 0 0 1 0;
#X connect 1 0 2 0;
#X connect 2 0 15 0;
#X connect 3 0 13 0;
#X connect 4 0 2 0;
#X connect 5 0 4 0;
#X connect 6 0 1 1;
#X connect 7 0 11 0;
#X connect 7 1 8 0;
#X connect 8 0 10 0;
#X connect 9 0 6 0;
#X connect 10 0 1 1;
#X connect 11 0 9 0;
#X connect 11 1 12 0;
#X connect 12 0 6 1;
#X connect 13 0 6 0;
#X connect 13 1 9 1;
#X connect 14 0 7 0;
#X restore 770 1519 pd morph-parameters;
#N canvas 3 56 1069 676 morph-parameters 0;
#X obj 176 94 inlet;
#X obj 176 236 pack f f;
#X obj 176 261 line;
#X obj 209 117 r preset-manager-morph-s;
#X msg 72 244 stop;
#X obj 72 214 r STOP-MORPH!;
#X obj 209 206 spigot;
#X obj 398 137 t f f;
#X obj 455 154 == 0;
#X obj 221 176 f;
#X floatatom 455 222 5 0 0 0 - - -;
#X obj 398 159 t b f;
#X floatatom 425 192 5 0 0 0 - - -;
#X obj 209 139 t f f;
#X obj 398 102 r parameters-s;
#X obj 176 288 outlet;
#X connect 0 0 1 0;
#X connect 1 0 2 0;
#X connect 2 0 15 0;
#X connect 3 0 13 0;
#X connect 4 0 2 0;
#X connect 5 0 4 0;
#X connect 6 0 1 1;
#X connect 7 0 11 0;
#X connect 7 1 8 0;
#X connect 8 0 10 0;
#X connect 9 0 6 0;
#X connect 10 0 1 1;
#X connect 11 0 9 0;
#X connect 11 1 12 0;
#X connect 12 0 6 1;
#X connect 13 0 6 0;
#X connect 13 1 9 1;
#X connect 14 0 7 0;
#X restore 781 1471 pd morph-parameters;
#X obj 781 1495 s \$0-adsr-level-4-r;
#X obj 770 1543 s \$0-adsr-level-3-r;
#X obj 759 1590 s \$0-adsr-level-2-r;
#X obj 749 1637 s \$0-adsr-level-1-r;
#X obj 879 1637 s \$0-adsr-htoggle-1-r;
#X obj 889 1590 s \$0-adsr-htoggle-2-r;
#X obj 900 1543 s \$0-adsr-htoggle-3-r;
#X obj 911 1495 s \$0-adsr-htoggle-4-r;
#X obj 1038 1542 s \$0-adsr-ttoggle-3-r;
#X obj 1027 1589 s \$0-adsr-ttoggle-2-r;
#X obj 1017 1636 s \$0-adsr-ttoggle-1-r;
#X obj 1049 1494 s \$0-adsr-ttoggle-4-r;
#X obj 1055 1439 s \$0-adsr-ttroggle-2-r;
#X obj 1055 1464 s \$0-adsr-ttroggle-1-r;
#X obj 1055 1415 s \$0-adsr-ttroggle-3-r;
#X obj 1055 1391 s \$0-adsr-ttroggle-4-r;
#X obj 1068 1334 s \$0-adsr-atoggle-r;
#X obj 1067 1310 s \$0-adsr-btoggle-r;
#X text 885 892 for binary (0 or 1) controls which do not morph (like
switches) \, do not use [pd morph-paramaters], f 51;
#X connect 2 0 51 0;
#X connect 3 0 10 0;
#X connect 4 0 7 0;
#X connect 4 1 6 0;
#X connect 4 2 5 0;
#X connect 5 0 1 0;
#X connect 6 0 2 0;
#X connect 7 0 3 0;
#X connect 8 0 4 0;
#X connect 9 0 8 0;
#X connect 10 0 55 0;
#X connect 11 0 12 0;
#X connect 12 0 10 1;
#X connect 13 0 3 1;
#X connect 19 0 2 1;
#X connect 20 0 51 1;
#X connect 21 0 51 2;
#X connect 22 0 51 3;
#X connect 23 0 51 4;
#X connect 24 0 51 5;
#X connect 25 0 51 6;
#X connect 26 0 51 7;
#X connect 27 0 51 8;
#X connect 28 0 51 9;
#X connect 29 0 51 10;
#X connect 30 0 51 11;
#X connect 31 0 51 12;
#X connect 32 0 51 13;
#X connect 33 0 51 14;
#X connect 34 0 51 15;
#X connect 35 0 51 16;
#X connect 36 0 51 17;
#X connect 37 0 51 18;
#X connect 38 0 51 19;
#X connect 39 0 51 20;
#X connect 40 0 51 21;
#X connect 41 0 51 22;
#X connect 42 0 51 23;
#X connect 43 0 51 24;
#X connect 44 0 51 25;
#X connect 45 0 51 26;
#X connect 46 0 51 27;
#X connect 47 0 51 28;
#X connect 48 0 51 29;
#X connect 49 0 51 30;
#X connect 50 0 51 31;
#X connect 51 0 54 0;
#X connect 52 0 51 32;
#X connect 53 0 51 33;
#X connect 54 0 1 0;
#X connect 55 0 1 0;
#X connect 57 0 74 0;
#X connect 58 0 57 0;
#X connect 59 0 57 0;
#X connect 60 0 59 0;
#X connect 60 1 58 0;
#X connect 61 0 65 0;
#X connect 62 0 60 0;
#X connect 62 1 61 0;
#X connect 63 0 62 0;
#X connect 63 1 61 1;
#X connect 64 0 65 1;
#X connect 65 0 73 0;
#X connect 66 0 64 0;
#X connect 67 0 63 0;
#X connect 68 0 75 0;
#X connect 73 0 57 0;
#X connect 74 0 68 0;
#X connect 74 1 76 0;
#X connect 74 2 78 0;
#X connect 74 3 80 0;
#X connect 74 4 82 0;
#X connect 74 5 83 0;
#X connect 74 6 84 0;
#X connect 74 7 85 0;
#X connect 74 8 86 0;
#X connect 74 9 87 0;
#X connect 74 10 88 0;
#X connect 74 11 89 0;
#X connect 74 12 90 0;
#X connect 74 13 91 0;
#X connect 74 14 92 0;
#X connect 74 15 93 0;
#X connect 74 16 106 0;
#X connect 74 17 107 0;
#X connect 74 18 108 0;
#X connect 74 19 109 0;
#X connect 74 20 114 0;
#X connect 74 21 115 0;
#X connect 74 22 116 0;
#X connect 74 23 117 0;
#X connect 74 24 120 0;
#X connect 74 25 119 0;
#X connect 74 26 118 0;
#X connect 74 27 121 0;
#X connect 74 28 123 0;
#X connect 74 29 122 0;
#X connect 74 30 124 0;
#X connect 74 31 125 0;
#X connect 74 32 126 0;
#X connect 74 33 127 0;
#X connect 76 0 77 0;
#X connect 78 0 79 0;
#X connect 80 0 81 0;
#X connect 82 0 97 0;
#X connect 83 0 96 0;
#X connect 84 0 95 0;
#X connect 85 0 94 0;
#X connect 86 0 101 0;
#X connect 87 0 100 0;
#X connect 88 0 99 0;
#X connect 89 0 98 0;
#X connect 90 0 105 0;
#X connect 91 0 104 0;
#X connect 92 0 103 0;
#X connect 93 0 102 0;
#X connect 106 0 113 0;
#X connect 107 0 112 0;
#X connect 108 0 111 0;
#X connect 109 0 110 0;
#X restore 98 551 pd state-saving-via-preset-manager-module;
#N canvas 0 56 1366 679 parameter-nudging-system 0;
#X obj 47 21 cnv 15 580 712 empty empty Knobs 20 20 0 20 -261234 -33289
0;
#N canvas 3 56 484 497 nudge-attenuators 0;
#X obj 124 234 random;
#X obj 232 335 f;
#X obj 232 368 +;
#X obj 257 166 random 2;
#X obj 124 275 t f f;
#X obj 124 351 t b f;
#X obj 124 297 *;
#X obj 257 188 sel 0 1;
#X msg 257 280 -1;
#X msg 335 280 1;
#X obj 124 149 t b b b;
#X obj 124 71 r NUDGE!;
#X obj 157 193 r NUDGE-RANGE;
#X obj 247 308 inlet;
#X obj 232 397 outlet;
#X obj 124 93 spigot;
#X obj 201 76 r attenuators2-s;
#X connect 0 0 4 0;
#X connect 1 0 2 0;
#X connect 2 0 14 0;
#X connect 3 0 7 0;
#X connect 4 0 6 0;
#X connect 5 0 2 0;
#X connect 5 1 2 1;
#X connect 6 0 5 0;
#X connect 7 0 8 0;
#X connect 7 1 9 0;
#X connect 8 0 6 1;
#X connect 9 0 6 1;
#X connect 10 0 0 0;
#X connect 10 1 1 0;
#X connect 10 2 3 0;
#X connect 11 0 15 0;
#X connect 12 0 0 1;
#X connect 13 0 1 1;
#X connect 15 0 10 0;
#X connect 16 0 15 1;
#X restore 58 99 pd nudge-attenuators;
#X obj 58 71 r \$0-adsr-attack-1-s;
#X obj 58 121 clip 0.1 10;
#X obj 58 151 s \$0-adsr-attack-1-r;
#N canvas 3 56 484 497 nudge-attenuators 0;
#X obj 124 234 random;
#X obj 232 335 f;
#X obj 232 368 +;
#X obj 257 166 random 2;
#X obj 124 275 t f f;
#X obj 124 351 t b f;
#X obj 124 297 *;
#X obj 257 188 sel 0 1;
#X msg 257 280 -1;
#X msg 335 280 1;
#X obj 124 149 t b b b;
#X obj 124 71 r NUDGE!;
#X obj 157 193 r NUDGE-RANGE;
#X obj 247 308 inlet;
#X obj 232 397 outlet;
#X obj 124 93 spigot;
#X obj 201 76 r attenuators2-s;
#X connect 0 0 4 0;
#X connect 1 0 2 0;
#X connect 2 0 14 0;
#X connect 3 0 7 0;
#X connect 4 0 6 0;
#X connect 5 0 2 0;
#X connect 5 1 2 1;
#X connect 6 0 5 0;
#X connect 7 0 8 0;
#X connect 7 1 9 0;
#X connect 8 0 6 1;
#X connect 9 0 6 1;
#X connect 10 0 0 0;
#X connect 10 1 1 0;
#X connect 10 2 3 0;
#X connect 11 0 15 0;
#X connect 12 0 0 1;
#X connect 13 0 1 1;
#X connect 15 0 10 0;
#X connect 16 0 15 1;
#X restore 202 99 pd nudge-attenuators;
#X obj 202 121 clip 0.1 10;
#X obj 202 71 r \$0-adsr-attack-2-s;
#X obj 202 151 s \$0-adsr-attack-2-r;
#N canvas 3 56 484 497 nudge-attenuators 0;
#X obj 124 234 random;
#X obj 232 335 f;
#X obj 232 368 +;
#X obj 257 166 random 2;
#X obj 124 275 t f f;
#X obj 124 351 t b f;
#X obj 124 297 *;
#X obj 257 188 sel 0 1;
#X msg 257 280 -1;
#X msg 335 280 1;
#X obj 124 149 t b b b;
#X obj 124 71 r NUDGE!;
#X obj 157 193 r NUDGE-RANGE;
#X obj 247 308 inlet;
#X obj 232 397 outlet;
#X obj 124 93 spigot;
#X obj 201 76 r attenuators2-s;
#X connect 0 0 4 0;
#X connect 1 0 2 0;
#X connect 2 0 14 0;
#X connect 3 0 7 0;
#X connect 4 0 6 0;
#X connect 5 0 2 0;
#X connect 5 1 2 1;
#X connect 6 0 5 0;
#X connect 7 0 8 0;
#X connect 7 1 9 0;
#X connect 8 0 6 1;
#X connect 9 0 6 1;
#X connect 10 0 0 0;
#X connect 10 1 1 0;
#X connect 10 2 3 0;
#X connect 11 0 15 0;
#X connect 12 0 0 1;
#X connect 13 0 1 1;
#X connect 15 0 10 0;
#X connect 16 0 15 1;
#X restore 338 99 pd nudge-attenuators;
#X obj 338 121 clip 0.1 10;
#N canvas 3 56 484 497 nudge-attenuators 0;
#X obj 124 234 random;
#X obj 232 335 f;
#X obj 232 368 +;
#X obj 257 166 random 2;
#X obj 124 275 t f f;
#X obj 124 351 t b f;
#X obj 124 297 *;
#X obj 257 188 sel 0 1;
#X msg 257 280 -1;
#X msg 335 280 1;
#X obj 124 149 t b b b;
#X obj 124 71 r NUDGE!;
#X obj 157 193 r NUDGE-RANGE;
#X obj 247 308 inlet;
#X obj 232 397 outlet;
#X obj 124 93 spigot;
#X obj 201 76 r attenuators2-s;
#X connect 0 0 4 0;
#X connect 1 0 2 0;
#X connect 2 0 14 0;
#X connect 3 0 7 0;
#X connect 4 0 6 0;
#X connect 5 0 2 0;
#X connect 5 1 2 1;
#X connect 6 0 5 0;
#X connect 7 0 8 0;
#X connect 7 1 9 0;
#X connect 8 0 6 1;
#X connect 9 0 6 1;
#X connect 10 0 0 0;
#X connect 10 1 1 0;
#X connect 10 2 3 0;
#X connect 11 0 15 0;
#X connect 12 0 0 1;
#X connect 13 0 1 1;
#X connect 15 0 10 0;
#X connect 16 0 15 1;
#X restore 482 99 pd nudge-attenuators;
#X obj 482 121 clip 0.1 10;
#X obj 338 71 r \$0-adsr-attack-3-s;
#X obj 338 151 s \$0-adsr-attack-3-r;
#X obj 482 71 r \$0-adsr-attack-3-s;
#X obj 482 151 s \$0-adsr-attack-3-r;
#N canvas 3 56 484 497 nudge-attenuators 0;
#X obj 124 234 random;
#X obj 232 335 f;
#X obj 232 368 +;
#X obj 257 166 random 2;
#X obj 124 275 t f f;
#X obj 124 351 t b f;
#X obj 124 297 *;
#X obj 257 188 sel 0 1;
#X msg 257 280 -1;
#X msg 335 280 1;
#X obj 124 149 t b b b;
#X obj 124 71 r NUDGE!;
#X obj 157 193 r NUDGE-RANGE;
#X obj 247 308 inlet;
#X obj 232 397 outlet;
#X obj 124 93 spigot;
#X obj 201 76 r attenuators2-s;
#X connect 0 0 4 0;
#X connect 1 0 2 0;
#X connect 2 0 14 0;
#X connect 3 0 7 0;
#X connect 4 0 6 0;
#X connect 5 0 2 0;
#X connect 5 1 2 1;
#X connect 6 0 5 0;
#X connect 7 0 8 0;
#X connect 7 1 9 0;
#X connect 8 0 6 1;
#X connect 9 0 6 1;
#X connect 10 0 0 0;
#X connect 10 1 1 0;
#X connect 10 2 3 0;
#X connect 11 0 15 0;
#X connect 12 0 0 1;
#X connect 13 0 1 1;
#X connect 15 0 10 0;
#X connect 16 0 15 1;
#X restore 58 234 pd nudge-attenuators;
#X obj 58 256 clip 0.1 10;
#X obj 58 206 r \$0-adsr-hold-1-s;
#X obj 58 286 s \$0-adsr-hold-1-r;
#N canvas 3 56 484 497 nudge-attenuators 0;
#X obj 124 234 random;
#X obj 232 335 f;
#X obj 232 368 +;
#X obj 257 166 random 2;
#X obj 124 275 t f f;
#X obj 124 351 t b f;
#X obj 124 297 *;
#X obj 257 188 sel 0 1;
#X msg 257 280 -1;
#X msg 335 280 1;
#X obj 124 149 t b b b;
#X obj 124 71 r NUDGE!;
#X obj 157 193 r NUDGE-RANGE;
#X obj 247 308 inlet;
#X obj 232 397 outlet;
#X obj 124 93 spigot;
#X obj 201 76 r attenuators2-s;
#X connect 0 0 4 0;
#X connect 1 0 2 0;
#X connect 2 0 14 0;
#X connect 3 0 7 0;
#X connect 4 0 6 0;
#X connect 5 0 2 0;
#X connect 5 1 2 1;
#X connect 6 0 5 0;
#X connect 7 0 8 0;
#X connect 7 1 9 0;
#X connect 8 0 6 1;
#X connect 9 0 6 1;
#X connect 10 0 0 0;
#X connect 10 1 1 0;
#X connect 10 2 3 0;
#X connect 11 0 15 0;
#X connect 12 0 0 1;
#X connect 13 0 1 1;
#X connect 15 0 10 0;
#X connect 16 0 15 1;
#X restore 201 235 pd nudge-attenuators;
#X obj 201 257 clip 0.1 10;
#X obj 201 207 r \$0-adsr-hold-2-s;
#X obj 201 287 s \$0-adsr-hold-2-r;
#N canvas 3 56 484 497 nudge-attenuators 0;
#X obj 124 234 random;
#X obj 232 335 f;
#X obj 232 368 +;
#X obj 257 166 random 2;
#X obj 124 275 t f f;
#X obj 124 351 t b f;
#X obj 124 297 *;
#X obj 257 188 sel 0 1;
#X msg 257 280 -1;
#X msg 335 280 1;
#X obj 124 149 t b b b;
#X obj 124 71 r NUDGE!;
#X obj 157 193 r NUDGE-RANGE;
#X obj 247 308 inlet;
#X obj 232 397 outlet;
#X obj 124 93 spigot;
#X obj 201 76 r attenuators2-s;
#X connect 0 0 4 0;
#X connect 1 0 2 0;
#X connect 2 0 14 0;
#X connect 3 0 7 0;
#X connect 4 0 6 0;
#X connect 5 0 2 0;
#X connect 5 1 2 1;
#X connect 6 0 5 0;
#X connect 7 0 8 0;
#X connect 7 1 9 0;
#X connect 8 0 6 1;
#X connect 9 0 6 1;
#X connect 10 0 0 0;
#X connect 10 1 1 0;
#X connect 10 2 3 0;
#X connect 11 0 15 0;
#X connect 12 0 0 1;
#X connect 13 0 1 1;
#X connect 15 0 10 0;
#X connect 16 0 15 1;
#X restore 338 235 pd nudge-attenuators;
#X obj 338 257 clip 0.1 10;
#N canvas 3 56 484 497 nudge-attenuators 0;
#X obj 124 234 random;
#X obj 232 335 f;
#X obj 232 368 +;
#X obj 257 166 random 2;
#X obj 124 275 t f f;
#X obj 124 351 t b f;
#X obj 124 297 *;
#X obj 257 188 sel 0 1;
#X msg 257 280 -1;
#X msg 335 280 1;
#X obj 124 149 t b b b;
#X obj 124 71 r NUDGE!;
#X obj 157 193 r NUDGE-RANGE;
#X obj 247 308 inlet;
#X obj 232 397 outlet;
#X obj 124 93 spigot;
#X obj 201 76 r attenuators2-s;
#X connect 0 0 4 0;
#X connect 1 0 2 0;
#X connect 2 0 14 0;
#X connect 3 0 7 0;
#X connect 4 0 6 0;
#X connect 5 0 2 0;
#X connect 5 1 2 1;
#X connect 6 0 5 0;
#X connect 7 0 8 0;
#X connect 7 1 9 0;
#X connect 8 0 6 1;
#X connect 9 0 6 1;
#X connect 10 0 0 0;
#X connect 10 1 1 0;
#X connect 10 2 3 0;
#X connect 11 0 15 0;
#X connect 12 0 0 1;
#X connect 13 0 1 1;
#X connect 15 0 10 0;
#X connect 16 0 15 1;
#X restore 481 236 pd nudge-attenuators;
#X obj 481 258 clip 0.1 10;
#X obj 338 207 r \$0-adsr-hold-3-s;
#X obj 338 287 s \$0-adsr-hold-3-r;
#X obj 481 208 r \$0-adsr-hold-3-s;
#X obj 481 288 s \$0-adsr-hold-3-r;
#N canvas 3 56 484 497 nudge-attenuators 0;
#X obj 124 234 random;
#X obj 232 335 f;
#X obj 232 368 +;
#X obj 257 166 random 2;
#X obj 124 275 t f f;
#X obj 124 351 t b f;
#X obj 124 297 *;
#X obj 257 188 sel 0 1;
#X msg 257 280 -1;
#X msg 335 280 1;
#X obj 124 149 t b b b;
#X obj 124 71 r NUDGE!;
#X obj 157 193 r NUDGE-RANGE;
#X obj 247 308 inlet;
#X obj 232 397 outlet;
#X obj 124 93 spigot;
#X obj 201 76 r attenuators2-s;
#X connect 0 0 4 0;
#X connect 1 0 2 0;
#X connect 2 0 14 0;
#X connect 3 0 7 0;
#X connect 4 0 6 0;
#X connect 5 0 2 0;
#X connect 5 1 2 1;
#X connect 6 0 5 0;
#X connect 7 0 8 0;
#X connect 7 1 9 0;
#X connect 8 0 6 1;
#X connect 9 0 6 1;
#X connect 10 0 0 0;
#X connect 10 1 1 0;
#X connect 10 2 3 0;
#X connect 11 0 15 0;
#X connect 12 0 0 1;
#X connect 13 0 1 1;
#X connect 15 0 10 0;
#X connect 16 0 15 1;
#X restore 57 364 pd nudge-attenuators;
#X obj 57 386 clip 0.1 10;
#N canvas 3 56 484 497 nudge-attenuators 0;
#X obj 124 234 random;
#X obj 232 335 f;
#X obj 232 368 +;
#X obj 257 166 random 2;
#X obj 124 275 t f f;
#X obj 124 351 t b f;
#X obj 124 297 *;
#X obj 257 188 sel 0 1;
#X msg 257 280 -1;
#X msg 335 280 1;
#X obj 124 149 t b b b;
#X obj 124 71 r NUDGE!;
#X obj 157 193 r NUDGE-RANGE;
#X obj 247 308 inlet;
#X obj 232 397 outlet;
#X obj 124 93 spigot;
#X obj 201 76 r attenuators2-s;
#X connect 0 0 4 0;
#X connect 1 0 2 0;
#X connect 2 0 14 0;
#X connect 3 0 7 0;
#X connect 4 0 6 0;
#X connect 5 0 2 0;
#X connect 5 1 2 1;
#X connect 6 0 5 0;
#X connect 7 0 8 0;
#X connect 7 1 9 0;
#X connect 8 0 6 1;
#X connect 9 0 6 1;
#X connect 10 0 0 0;
#X connect 10 1 1 0;
#X connect 10 2 3 0;
#X connect 11 0 15 0;
#X connect 12 0 0 1;
#X connect 13 0 1 1;
#X connect 15 0 10 0;
#X connect 16 0 15 1;
#X restore 200 365 pd nudge-attenuators;
#X obj 200 387 clip 0.1 10;
#N canvas 3 56 484 497 nudge-attenuators 0;
#X obj 124 234 random;
#X obj 232 335 f;
#X obj 232 368 +;
#X obj 257 166 random 2;
#X obj 124 275 t f f;
#X obj 124 351 t b f;
#X obj 124 297 *;
#X obj 257 188 sel 0 1;
#X msg 257 280 -1;
#X msg 335 280 1;
#X obj 124 149 t b b b;
#X obj 124 71 r NUDGE!;
#X obj 157 193 r NUDGE-RANGE;
#X obj 247 308 inlet;
#X obj 232 397 outlet;
#X obj 124 93 spigot;
#X obj 201 76 r attenuators2-s;
#X connect 0 0 4 0;
#X connect 1 0 2 0;
#X connect 2 0 14 0;
#X connect 3 0 7 0;
#X connect 4 0 6 0;
#X connect 5 0 2 0;
#X connect 5 1 2 1;
#X connect 6 0 5 0;
#X connect 7 0 8 0;
#X connect 7 1 9 0;
#X connect 8 0 6 1;
#X connect 9 0 6 1;
#X connect 10 0 0 0;
#X connect 10 1 1 0;
#X connect 10 2 3 0;
#X connect 11 0 15 0;
#X connect 12 0 0 1;
#X connect 13 0 1 1;
#X connect 15 0 10 0;
#X connect 16 0 15 1;
#X restore 337 365 pd nudge-attenuators;
#X obj 337 387 clip 0.1 10;
#N canvas 3 56 484 497 nudge-attenuators 0;
#X obj 124 234 random;
#X obj 232 335 f;
#X obj 232 368 +;
#X obj 257 166 random 2;
#X obj 124 275 t f f;
#X obj 124 351 t b f;
#X obj 124 297 *;
#X obj 257 188 sel 0 1;
#X msg 257 280 -1;
#X msg 335 280 1;
#X obj 124 149 t b b b;
#X obj 124 71 r NUDGE!;
#X obj 157 193 r NUDGE-RANGE;
#X obj 247 308 inlet;
#X obj 232 397 outlet;
#X obj 124 93 spigot;
#X obj 201 76 r attenuators2-s;
#X connect 0 0 4 0;
#X connect 1 0 2 0;
#X connect 2 0 14 0;
#X connect 3 0 7 0;
#X connect 4 0 6 0;
#X connect 5 0 2 0;
#X connect 5 1 2 1;
#X connect 6 0 5 0;
#X connect 7 0 8 0;
#X connect 7 1 9 0;
#X connect 8 0 6 1;
#X connect 9 0 6 1;
#X connect 10 0 0 0;
#X connect 10 1 1 0;
#X connect 10 2 3 0;
#X connect 11 0 15 0;
#X connect 12 0 0 1;
#X connect 13 0 1 1;
#X connect 15 0 10 0;
#X connect 16 0 15 1;
#X restore 480 366 pd nudge-attenuators;
#X obj 480 388 clip 0.1 10;
#X obj 57 336 r \$0-adsr-release-1-s;
#X obj 57 416 s \$0-adsr-release-1-r;
#X obj 200 337 r \$0-adsr-release-2-s;
#X obj 200 417 s \$0-adsr-release-2-r;
#X obj 337 337 r \$0-adsr-release-3-s;
#X obj 337 417 s \$0-adsr-release-3-r;
#X obj 480 338 r \$0-adsr-release-4-s;
#X obj 480 418 s \$0-adsr-release-4-r;
#N canvas 3 56 484 497 nudge-attenuators 0;
#X obj 124 234 random;
#X obj 232 335 f;
#X obj 232 368 +;
#X obj 257 166 random 2;
#X obj 124 275 t f f;
#X obj 124 351 t b f;
#X obj 124 297 *;
#X obj 257 188 sel 0 1;
#X msg 257 280 -1;
#X msg 335 280 1;
#X obj 124 149 t b b b;
#X obj 124 71 r NUDGE!;
#X obj 157 193 r NUDGE-RANGE;
#X obj 247 308 inlet;
#X obj 232 397 outlet;
#X obj 124 93 spigot;
#X obj 201 76 r attenuators2-s;
#X connect 0 0 4 0;
#X connect 1 0 2 0;
#X connect 2 0 14 0;
#X connect 3 0 7 0;
#X connect 4 0 6 0;
#X connect 5 0 2 0;
#X connect 5 1 2 1;
#X connect 6 0 5 0;
#X connect 7 0 8 0;
#X connect 7 1 9 0;
#X connect 8 0 6 1;
#X connect 9 0 6 1;
#X connect 10 0 0 0;
#X connect 10 1 1 0;
#X connect 10 2 3 0;
#X connect 11 0 15 0;
#X connect 12 0 0 1;
#X connect 13 0 1 1;
#X connect 15 0 10 0;
#X connect 16 0 15 1;
#X restore 57 495 pd nudge-attenuators;
#X obj 57 517 clip 0.1 10;
#N canvas 3 56 484 497 nudge-attenuators 0;
#X obj 124 234 random;
#X obj 232 335 f;
#X obj 232 368 +;
#X obj 257 166 random 2;
#X obj 124 275 t f f;
#X obj 124 351 t b f;
#X obj 124 297 *;
#X obj 257 188 sel 0 1;
#X msg 257 280 -1;
#X msg 335 280 1;
#X obj 124 149 t b b b;
#X obj 124 71 r NUDGE!;
#X obj 157 193 r NUDGE-RANGE;
#X obj 247 308 inlet;
#X obj 232 397 outlet;
#X obj 124 93 spigot;
#X obj 201 76 r attenuators2-s;
#X connect 0 0 4 0;
#X connect 1 0 2 0;
#X connect 2 0 14 0;
#X connect 3 0 7 0;
#X connect 4 0 6 0;
#X connect 5 0 2 0;
#X connect 5 1 2 1;
#X connect 6 0 5 0;
#X connect 7 0 8 0;
#X connect 7 1 9 0;
#X connect 8 0 6 1;
#X connect 9 0 6 1;
#X connect 10 0 0 0;
#X connect 10 1 1 0;
#X connect 10 2 3 0;
#X connect 11 0 15 0;
#X connect 12 0 0 1;
#X connect 13 0 1 1;
#X connect 15 0 10 0;
#X connect 16 0 15 1;
#X restore 201 495 pd nudge-attenuators;
#X obj 201 517 clip 0.1 10;
#N canvas 3 56 484 497 nudge-attenuators 0;
#X obj 124 234 random;
#X obj 232 335 f;
#X obj 232 368 +;
#X obj 257 166 random 2;
#X obj 124 275 t f f;
#X obj 124 351 t b f;
#X obj 124 297 *;
#X obj 257 188 sel 0 1;
#X msg 257 280 -1;
#X msg 335 280 1;
#X obj 124 149 t b b b;
#X obj 124 71 r NUDGE!;
#X obj 157 193 r NUDGE-RANGE;
#X obj 247 308 inlet;
#X obj 232 397 outlet;
#X obj 124 93 spigot;
#X obj 201 76 r attenuators2-s;
#X connect 0 0 4 0;
#X connect 1 0 2 0;
#X connect 2 0 14 0;
#X connect 3 0 7 0;
#X connect 4 0 6 0;
#X connect 5 0 2 0;
#X connect 5 1 2 1;
#X connect 6 0 5 0;
#X connect 7 0 8 0;
#X connect 7 1 9 0;
#X connect 8 0 6 1;
#X connect 9 0 6 1;
#X connect 10 0 0 0;
#X connect 10 1 1 0;
#X connect 10 2 3 0;
#X connect 11 0 15 0;
#X connect 12 0 0 1;
#X connect 13 0 1 1;
#X connect 15 0 10 0;
#X connect 16 0 15 1;
#X restore 337 495 pd nudge-attenuators;
#X obj 337 517 clip 0.1 10;
#N canvas 3 56 484 497 nudge-attenuators 0;
#X obj 124 234 random;
#X obj 232 335 f;
#X obj 232 368 +;
#X obj 257 166 random 2;
#X obj 124 275 t f f;
#X obj 124 351 t b f;
#X obj 124 297 *;
#X obj 257 188 sel 0 1;
#X msg 257 280 -1;
#X msg 335 280 1;
#X obj 124 149 t b b b;
#X obj 124 71 r NUDGE!;
#X obj 157 193 r NUDGE-RANGE;
#X obj 247 308 inlet;
#X obj 232 397 outlet;
#X obj 124 93 spigot;
#X obj 201 76 r attenuators2-s;
#X connect 0 0 4 0;
#X connect 1 0 2 0;
#X connect 2 0 14 0;
#X connect 3 0 7 0;
#X connect 4 0 6 0;
#X connect 5 0 2 0;
#X connect 5 1 2 1;
#X connect 6 0 5 0;
#X connect 7 0 8 0;
#X connect 7 1 9 0;
#X connect 8 0 6 1;
#X connect 9 0 6 1;
#X connect 10 0 0 0;
#X connect 10 1 1 0;
#X connect 10 2 3 0;
#X connect 11 0 15 0;
#X connect 12 0 0 1;
#X connect 13 0 1 1;
#X connect 15 0 10 0;
#X connect 16 0 15 1;
#X restore 481 495 pd nudge-attenuators;
#X obj 481 517 clip 0.1 10;
#X obj 57 467 r \$0-adsr-time-1-s;
#X obj 57 547 s \$0-adsr-time-1-r;
#X obj 201 467 r \$0-adsr-time-2-s;
#X obj 201 547 s \$0-adsr-time-2-r;
#X obj 337 467 r \$0-adsr-time-3-s;
#X obj 337 547 s \$0-adsr-time-3-r;
#X obj 481 467 r \$0-adsr-time-4-s;
#X obj 481 547 s \$0-adsr-time-4-r;
#N canvas 3 56 484 497 nudge-attenuators 0;
#X obj 124 234 random;
#X obj 232 335 f;
#X obj 232 368 +;
#X obj 257 166 random 2;
#X obj 124 275 t f f;
#X obj 124 351 t b f;
#X obj 124 297 *;
#X obj 257 188 sel 0 1;
#X msg 257 280 -1;
#X msg 335 280 1;
#X obj 124 149 t b b b;
#X obj 124 71 r NUDGE!;
#X obj 157 193 r NUDGE-RANGE;
#X obj 247 308 inlet;
#X obj 232 397 outlet;
#X obj 124 93 spigot;
#X obj 201 76 r attenuators2-s;
#X connect 0 0 4 0;
#X connect 1 0 2 0;
#X connect 2 0 14 0;
#X connect 3 0 7 0;
#X connect 4 0 6 0;
#X connect 5 0 2 0;
#X connect 5 1 2 1;
#X connect 6 0 5 0;
#X connect 7 0 8 0;
#X connect 7 1 9 0;
#X connect 8 0 6 1;
#X connect 9 0 6 1;
#X connect 10 0 0 0;
#X connect 10 1 1 0;
#X connect 10 2 3 0;
#X connect 11 0 15 0;
#X connect 12 0 0 1;
#X connect 13 0 1 1;
#X connect 15 0 10 0;
#X connect 16 0 15 1;
#X restore 57 629 pd nudge-attenuators;
#N canvas 3 56 484 497 nudge-attenuators 0;
#X obj 124 234 random;
#X obj 232 335 f;
#X obj 232 368 +;
#X obj 257 166 random 2;
#X obj 124 275 t f f;
#X obj 124 351 t b f;
#X obj 124 297 *;
#X obj 257 188 sel 0 1;
#X msg 257 280 -1;
#X msg 335 280 1;
#X obj 124 149 t b b b;
#X obj 124 71 r NUDGE!;
#X obj 157 193 r NUDGE-RANGE;
#X obj 247 308 inlet;
#X obj 232 397 outlet;
#X obj 124 93 spigot;
#X obj 201 76 r attenuators2-s;
#X connect 0 0 4 0;
#X connect 1 0 2 0;
#X connect 2 0 14 0;
#X connect 3 0 7 0;
#X connect 4 0 6 0;
#X connect 5 0 2 0;
#X connect 5 1 2 1;
#X connect 6 0 5 0;
#X connect 7 0 8 0;
#X connect 7 1 9 0;
#X connect 8 0 6 1;
#X connect 9 0 6 1;
#X connect 10 0 0 0;
#X connect 10 1 1 0;
#X connect 10 2 3 0;
#X connect 11 0 15 0;
#X connect 12 0 0 1;
#X connect 13 0 1 1;
#X connect 15 0 10 0;
#X connect 16 0 15 1;
#X restore 199 629 pd nudge-attenuators;
#N canvas 3 56 484 497 nudge-attenuators 0;
#X obj 124 234 random;
#X obj 232 335 f;
#X obj 232 368 +;
#X obj 257 166 random 2;
#X obj 124 275 t f f;
#X obj 124 351 t b f;
#X obj 124 297 *;
#X obj 257 188 sel 0 1;
#X msg 257 280 -1;
#X msg 335 280 1;
#X obj 124 149 t b b b;
#X obj 124 71 r NUDGE!;
#X obj 157 193 r NUDGE-RANGE;
#X obj 247 308 inlet;
#X obj 232 397 outlet;
#X obj 124 93 spigot;
#X obj 201 76 r attenuators2-s;
#X connect 0 0 4 0;
#X connect 1 0 2 0;
#X connect 2 0 14 0;
#X connect 3 0 7 0;
#X connect 4 0 6 0;
#X connect 5 0 2 0;
#X connect 5 1 2 1;
#X connect 6 0 5 0;
#X connect 7 0 8 0;
#X connect 7 1 9 0;
#X connect 8 0 6 1;
#X connect 9 0 6 1;
#X connect 10 0 0 0;
#X connect 10 1 1 0;
#X connect 10 2 3 0;
#X connect 11 0 15 0;
#X connect 12 0 0 1;
#X connect 13 0 1 1;
#X connect 15 0 10 0;
#X connect 16 0 15 1;
#X restore 340 629 pd nudge-attenuators;
#N canvas 3 56 484 497 nudge-attenuators 0;
#X obj 124 234 random;
#X obj 232 335 f;
#X obj 232 368 +;
#X obj 257 166 random 2;
#X obj 124 275 t f f;
#X obj 124 351 t b f;
#X obj 124 297 *;
#X obj 257 188 sel 0 1;
#X msg 257 280 -1;
#X msg 335 280 1;
#X obj 124 149 t b b b;
#X obj 124 71 r NUDGE!;
#X obj 157 193 r NUDGE-RANGE;
#X obj 247 308 inlet;
#X obj 232 397 outlet;
#X obj 124 93 spigot;
#X obj 201 76 r attenuators2-s;
#X connect 0 0 4 0;
#X connect 1 0 2 0;
#X connect 2 0 14 0;
#X connect 3 0 7 0;
#X connect 4 0 6 0;
#X connect 5 0 2 0;
#X connect 5 1 2 1;
#X connect 6 0 5 0;
#X connect 7 0 8 0;
#X connect 7 1 9 0;
#X connect 8 0 6 1;
#X connect 9 0 6 1;
#X connect 10 0 0 0;
#X connect 10 1 1 0;
#X connect 10 2 3 0;
#X connect 11 0 15 0;
#X connect 12 0 0 1;
#X connect 13 0 1 1;
#X connect 15 0 10 0;
#X connect 16 0 15 1;
#X restore 484 629 pd nudge-attenuators;
#X obj 57 601 r \$0-adsr-level-1-s;
#X obj 57 681 s \$0-adsr-level-1-r;
#X obj 199 601 r \$0-adsr-level-2-s;
#X obj 199 681 s \$0-adsr-level-2-r;
#X obj 340 601 r \$0-adsr-level-3-s;
#X obj 340 681 s \$0-adsr-level-3-r;
#X obj 484 601 r \$0-adsr-level-4-s;
#X obj 484 681 s \$0-adsr-level-4-r;
#X obj 57 651 clip 0 1;
#X obj 199 651 clip 0 1;
#X obj 340 651 clip 0 1;
#X obj 484 652 clip 0 1;
#X obj 642 21 cnv 15 580 450 empty empty Toggles 20 20 0 20 -261682
-33289 0;
#N canvas 3 56 484 497 nudge-attenuators 0;
#X obj 124 234 random;
#X obj 232 335 f;
#X obj 232 368 +;
#X obj 257 166 random 2;
#X obj 124 275 t f f;
#X obj 124 351 t b f;
#X obj 124 297 *;
#X obj 257 188 sel 0 1;
#X msg 257 280 -1;
#X msg 335 280 1;
#X obj 124 149 t b b b;
#X obj 124 71 r NUDGE!;
#X obj 157 193 r NUDGE-RANGE;
#X obj 247 308 inlet;
#X obj 232 397 outlet;
#X obj 124 93 spigot;
#X obj 201 76 r attenuators2-s;
#X connect 0 0 4 0;
#X connect 1 0 2 0;
#X connect 2 0 14 0;
#X connect 3 0 7 0;
#X connect 4 0 6 0;
#X connect 5 0 2 0;
#X connect 5 1 2 1;
#X connect 6 0 5 0;
#X connect 7 0 8 0;
#X connect 7 1 9 0;
#X connect 8 0 6 1;
#X connect 9 0 6 1;
#X connect 10 0 0 0;
#X connect 10 1 1 0;
#X connect 10 2 3 0;
#X connect 11 0 15 0;
#X connect 12 0 0 1;
#X connect 13 0 1 1;
#X connect 15 0 10 0;
#X connect 16 0 15 1;
#X restore 655 361 pd nudge-attenuators;
#N canvas 3 56 484 497 nudge-attenuators 0;
#X obj 124 234 random;
#X obj 232 335 f;
#X obj 232 368 +;
#X obj 257 166 random 2;
#X obj 124 275 t f f;
#X obj 124 351 t b f;
#X obj 124 297 *;
#X obj 257 188 sel 0 1;
#X msg 257 280 -1;
#X msg 335 280 1;
#X obj 124 149 t b b b;
#X obj 124 71 r NUDGE!;
#X obj 157 193 r NUDGE-RANGE;
#X obj 247 308 inlet;
#X obj 232 397 outlet;
#X obj 124 93 spigot;
#X obj 201 76 r attenuators2-s;
#X connect 0 0 4 0;
#X connect 1 0 2 0;
#X connect 2 0 14 0;
#X connect 3 0 7 0;
#X connect 4 0 6 0;
#X connect 5 0 2 0;
#X connect 5 1 2 1;
#X connect 6 0 5 0;
#X connect 7 0 8 0;
#X connect 7 1 9 0;
#X connect 8 0 6 1;
#X connect 9 0 6 1;
#X connect 10 0 0 0;
#X connect 10 1 1 0;
#X connect 10 2 3 0;
#X connect 11 0 15 0;
#X connect 12 0 0 1;
#X connect 13 0 1 1;
#X connect 15 0 10 0;
#X connect 16 0 15 1;
#X restore 798 362 pd nudge-attenuators;
#N canvas 3 56 484 497 nudge-attenuators 0;
#X obj 124 234 random;
#X obj 232 335 f;
#X obj 232 368 +;
#X obj 257 166 random 2;
#X obj 124 275 t f f;
#X obj 124 351 t b f;
#X obj 124 297 *;
#X obj 257 188 sel 0 1;
#X msg 257 280 -1;
#X msg 335 280 1;
#X obj 124 149 t b b b;
#X obj 124 71 r NUDGE!;
#X obj 157 193 r NUDGE-RANGE;
#X obj 247 308 inlet;
#X obj 232 397 outlet;
#X obj 124 93 spigot;
#X obj 201 76 r attenuators2-s;
#X connect 0 0 4 0;
#X connect 1 0 2 0;
#X connect 2 0 14 0;
#X connect 3 0 7 0;
#X connect 4 0 6 0;
#X connect 5 0 2 0;
#X connect 5 1 2 1;
#X connect 6 0 5 0;
#X connect 7 0 8 0;
#X connect 7 1 9 0;
#X connect 8 0 6 1;
#X connect 9 0 6 1;
#X connect 10 0 0 0;
#X connect 10 1 1 0;
#X connect 10 2 3 0;
#X connect 11 0 15 0;
#X connect 12 0 0 1;
#X connect 13 0 1 1;
#X connect 15 0 10 0;
#X connect 16 0 15 1;
#X restore 935 362 pd nudge-attenuators;
#N canvas 3 56 484 497 nudge-attenuators 0;
#X obj 124 234 random;
#X obj 232 335 f;
#X obj 232 368 +;
#X obj 257 166 random 2;
#X obj 124 275 t f f;
#X obj 124 351 t b f;
#X obj 124 297 *;
#X obj 257 188 sel 0 1;
#X msg 257 280 -1;
#X msg 335 280 1;
#X obj 124 149 t b b b;
#X obj 124 71 r NUDGE!;
#X obj 157 193 r NUDGE-RANGE;
#X obj 247 308 inlet;
#X obj 232 397 outlet;
#X obj 124 93 spigot;
#X obj 201 76 r attenuators2-s;
#X connect 0 0 4 0;
#X connect 1 0 2 0;
#X connect 2 0 14 0;
#X connect 3 0 7 0;
#X connect 4 0 6 0;
#X connect 5 0 2 0;
#X connect 5 1 2 1;
#X connect 6 0 5 0;
#X connect 7 0 8 0;
#X connect 7 1 9 0;
#X connect 8 0 6 1;
#X connect 9 0 6 1;
#X connect 10 0 0 0;
#X connect 10 1 1 0;
#X connect 10 2 3 0;
#X connect 11 0 15 0;
#X connect 12 0 0 1;
#X connect 13 0 1 1;
#X connect 15 0 10 0;
#X connect 16 0 15 1;
#X restore 1078 363 pd nudge-attenuators;
#X obj 655 333 r \$0-adsr-htoggle-1-s;
#X obj 655 413 s \$0-adsr-htoggle-1-r;
#X obj 798 334 r \$0-adsr-htoggle-2-s;
#X obj 798 414 s \$0-adsr-htoggle-2-r;
#X obj 935 334 r \$0-adsr-htoggle-3-s;
#X obj 935 414 s \$0-adsr-htoggle-3-r;
#X obj 1078 335 r \$0-adsr-htoggle-4-s;
#X obj 1078 415 s \$0-adsr-htoggle-4-r;
#N canvas 3 56 484 497 nudge-attenuators 0;
#X obj 124 234 random;
#X obj 232 335 f;
#X obj 232 368 +;
#X obj 257 166 random 2;
#X obj 124 275 t f f;
#X obj 124 351 t b f;
#X obj 124 297 *;
#X obj 257 188 sel 0 1;
#X msg 257 280 -1;
#X msg 335 280 1;
#X obj 124 149 t b b b;
#X obj 124 71 r NUDGE!;
#X obj 157 193 r NUDGE-RANGE;
#X obj 247 308 inlet;
#X obj 232 397 outlet;
#X obj 124 93 spigot;
#X obj 201 76 r attenuators2-s;
#X connect 0 0 4 0;
#X connect 1 0 2 0;
#X connect 2 0 14 0;
#X connect 3 0 7 0;
#X connect 4 0 6 0;
#X connect 5 0 2 0;
#X connect 5 1 2 1;
#X connect 6 0 5 0;
#X connect 7 0 8 0;
#X connect 7 1 9 0;
#X connect 8 0 6 1;
#X connect 9 0 6 1;
#X connect 10 0 0 0;
#X connect 10 1 1 0;
#X connect 10 2 3 0;
#X connect 11 0 15 0;
#X connect 12 0 0 1;
#X connect 13 0 1 1;
#X connect 15 0 10 0;
#X connect 16 0 15 1;
#X restore 656 100 pd nudge-attenuators;
#N canvas 3 56 484 497 nudge-attenuators 0;
#X obj 124 234 random;
#X obj 232 335 f;
#X obj 232 368 +;
#X obj 257 166 random 2;
#X obj 124 275 t f f;
#X obj 124 351 t b f;
#X obj 124 297 *;
#X obj 257 188 sel 0 1;
#X msg 257 280 -1;
#X msg 335 280 1;
#X obj 124 149 t b b b;
#X obj 124 71 r NUDGE!;
#X obj 157 193 r NUDGE-RANGE;
#X obj 247 308 inlet;
#X obj 232 397 outlet;
#X obj 124 93 spigot;
#X obj 201 76 r attenuators2-s;
#X connect 0 0 4 0;
#X connect 1 0 2 0;
#X connect 2 0 14 0;
#X connect 3 0 7 0;
#X connect 4 0 6 0;
#X connect 5 0 2 0;
#X connect 5 1 2 1;
#X connect 6 0 5 0;
#X connect 7 0 8 0;
#X connect 7 1 9 0;
#X connect 8 0 6 1;
#X connect 9 0 6 1;
#X connect 10 0 0 0;
#X connect 10 1 1 0;
#X connect 10 2 3 0;
#X connect 11 0 15 0;
#X connect 12 0 0 1;
#X connect 13 0 1 1;
#X connect 15 0 10 0;
#X connect 16 0 15 1;
#X restore 800 100 pd nudge-attenuators;
#N canvas 3 56 484 497 nudge-attenuators 0;
#X obj 124 234 random;
#X obj 232 335 f;
#X obj 232 368 +;
#X obj 257 166 random 2;
#X obj 124 275 t f f;
#X obj 124 351 t b f;
#X obj 124 297 *;
#X obj 257 188 sel 0 1;
#X msg 257 280 -1;
#X msg 335 280 1;
#X obj 124 149 t b b b;
#X obj 124 71 r NUDGE!;
#X obj 157 193 r NUDGE-RANGE;
#X obj 247 308 inlet;
#X obj 232 397 outlet;
#X obj 124 93 spigot;
#X obj 201 76 r attenuators2-s;
#X connect 0 0 4 0;
#X connect 1 0 2 0;
#X connect 2 0 14 0;
#X connect 3 0 7 0;
#X connect 4 0 6 0;
#X connect 5 0 2 0;
#X connect 5 1 2 1;
#X connect 6 0 5 0;
#X connect 7 0 8 0;
#X connect 7 1 9 0;
#X connect 8 0 6 1;
#X connect 9 0 6 1;
#X connect 10 0 0 0;
#X connect 10 1 1 0;
#X connect 10 2 3 0;
#X connect 11 0 15 0;
#X connect 12 0 0 1;
#X connect 13 0 1 1;
#X connect 15 0 10 0;
#X connect 16 0 15 1;
#X restore 936 100 pd nudge-attenuators;
#N canvas 3 56 484 497 nudge-attenuators 0;
#X obj 124 234 random;
#X obj 232 335 f;
#X obj 232 368 +;
#X obj 257 166 random 2;
#X obj 124 275 t f f;
#X obj 124 351 t b f;
#X obj 124 297 *;
#X obj 257 188 sel 0 1;
#X msg 257 280 -1;
#X msg 335 280 1;
#X obj 124 149 t b b b;
#X obj 124 71 r NUDGE!;
#X obj 157 193 r NUDGE-RANGE;
#X obj 247 308 inlet;
#X obj 232 397 outlet;
#X obj 124 93 spigot;
#X obj 201 76 r attenuators2-s;
#X connect 0 0 4 0;
#X connect 1 0 2 0;
#X connect 2 0 14 0;
#X connect 3 0 7 0;
#X connect 4 0 6 0;
#X connect 5 0 2 0;
#X connect 5 1 2 1;
#X connect 6 0 5 0;
#X connect 7 0 8 0;
#X connect 7 1 9 0;
#X connect 8 0 6 1;
#X connect 9 0 6 1;
#X connect 10 0 0 0;
#X connect 10 1 1 0;
#X connect 10 2 3 0;
#X connect 11 0 15 0;
#X connect 12 0 0 1;
#X connect 13 0 1 1;
#X connect 15 0 10 0;
#X connect 16 0 15 1;
#X restore 1080 100 pd nudge-attenuators;
#X obj 656 72 r \$0-adsr-ttoggle-1-s;
#X obj 656 152 s \$0-adsr-ttoggle-1-r;
#X obj 800 72 r \$0-adsr-ttoggle-2-s;
#X obj 800 152 s \$0-adsr-ttoggle-2-r;
#X obj 936 72 r \$0-adsr-ttoggle-3-s;
#X obj 936 152 s \$0-adsr-ttoggle-3-r;
#X obj 1080 72 r \$0-adsr-ttoggle-4-s;
#X obj 1080 152 s \$0-adsr-ttoggle-4-r;
#N canvas 3 56 484 497 nudge-attenuators 0;
#X obj 124 234 random;
#X obj 232 335 f;
#X obj 232 368 +;
#X obj 257 166 random 2;
#X obj 124 275 t f f;
#X obj 124 351 t b f;
#X obj 124 297 *;
#X obj 257 188 sel 0 1;
#X msg 257 280 -1;
#X msg 335 280 1;
#X obj 124 149 t b b b;
#X obj 124 71 r NUDGE!;
#X obj 157 193 r NUDGE-RANGE;
#X obj 247 308 inlet;
#X obj 232 397 outlet;
#X obj 124 93 spigot;
#X obj 201 76 r attenuators2-s;
#X connect 0 0 4 0;
#X connect 1 0 2 0;
#X connect 2 0 14 0;
#X connect 3 0 7 0;
#X connect 4 0 6 0;
#X connect 5 0 2 0;
#X connect 5 1 2 1;
#X connect 6 0 5 0;
#X connect 7 0 8 0;
#X connect 7 1 9 0;
#X connect 8 0 6 1;
#X connect 9 0 6 1;
#X connect 10 0 0 0;
#X connect 10 1 1 0;
#X connect 10 2 3 0;
#X connect 11 0 15 0;
#X connect 12 0 0 1;
#X connect 13 0 1 1;
#X connect 15 0 10 0;
#X connect 16 0 15 1;
#X restore 656 236 pd nudge-attenuators;
#N canvas 3 56 484 497 nudge-attenuators 0;
#X obj 124 234 random;
#X obj 232 335 f;
#X obj 232 368 +;
#X obj 257 166 random 2;
#X obj 124 275 t f f;
#X obj 124 351 t b f;
#X obj 124 297 *;
#X obj 257 188 sel 0 1;
#X msg 257 280 -1;
#X msg 335 280 1;
#X obj 124 149 t b b b;
#X obj 124 71 r NUDGE!;
#X obj 157 193 r NUDGE-RANGE;
#X obj 247 308 inlet;
#X obj 232 397 outlet;
#X obj 124 93 spigot;
#X obj 201 76 r attenuators2-s;
#X connect 0 0 4 0;
#X connect 1 0 2 0;
#X connect 2 0 14 0;
#X connect 3 0 7 0;
#X connect 4 0 6 0;
#X connect 5 0 2 0;
#X connect 5 1 2 1;
#X connect 6 0 5 0;
#X connect 7 0 8 0;
#X connect 7 1 9 0;
#X connect 8 0 6 1;
#X connect 9 0 6 1;
#X connect 10 0 0 0;
#X connect 10 1 1 0;
#X connect 10 2 3 0;
#X connect 11 0 15 0;
#X connect 12 0 0 1;
#X connect 13 0 1 1;
#X connect 15 0 10 0;
#X connect 16 0 15 1;
#X restore 798 236 pd nudge-attenuators;
#N canvas 3 56 484 497 nudge-attenuators 0;
#X obj 124 234 random;
#X obj 232 335 f;
#X obj 232 368 +;
#X obj 257 166 random 2;
#X obj 124 275 t f f;
#X obj 124 351 t b f;
#X obj 124 297 *;
#X obj 257 188 sel 0 1;
#X msg 257 280 -1;
#X msg 335 280 1;
#X obj 124 149 t b b b;
#X obj 124 71 r NUDGE!;
#X obj 157 193 r NUDGE-RANGE;
#X obj 247 308 inlet;
#X obj 232 397 outlet;
#X obj 124 93 spigot;
#X obj 201 76 r attenuators2-s;
#X connect 0 0 4 0;
#X connect 1 0 2 0;
#X connect 2 0 14 0;
#X connect 3 0 7 0;
#X connect 4 0 6 0;
#X connect 5 0 2 0;
#X connect 5 1 2 1;
#X connect 6 0 5 0;
#X connect 7 0 8 0;
#X connect 7 1 9 0;
#X connect 8 0 6 1;
#X connect 9 0 6 1;
#X connect 10 0 0 0;
#X connect 10 1 1 0;
#X connect 10 2 3 0;
#X connect 11 0 15 0;
#X connect 12 0 0 1;
#X connect 13 0 1 1;
#X connect 15 0 10 0;
#X connect 16 0 15 1;
#X restore 939 236 pd nudge-attenuators;
#N canvas 3 56 484 497 nudge-attenuators 0;
#X obj 124 234 random;
#X obj 232 335 f;
#X obj 232 368 +;
#X obj 257 166 random 2;
#X obj 124 275 t f f;
#X obj 124 351 t b f;
#X obj 124 297 *;
#X obj 257 188 sel 0 1;
#X msg 257 280 -1;
#X msg 335 280 1;
#X obj 124 149 t b b b;
#X obj 124 71 r NUDGE!;
#X obj 157 193 r NUDGE-RANGE;
#X obj 247 308 inlet;
#X obj 232 397 outlet;
#X obj 124 93 spigot;
#X obj 201 76 r attenuators2-s;
#X connect 0 0 4 0;
#X connect 1 0 2 0;
#X connect 2 0 14 0;
#X connect 3 0 7 0;
#X connect 4 0 6 0;
#X connect 5 0 2 0;
#X connect 5 1 2 1;
#X connect 6 0 5 0;
#X connect 7 0 8 0;
#X connect 7 1 9 0;
#X connect 8 0 6 1;
#X connect 9 0 6 1;
#X connect 10 0 0 0;
#X connect 10 1 1 0;
#X connect 10 2 3 0;
#X connect 11 0 15 0;
#X connect 12 0 0 1;
#X connect 13 0 1 1;
#X connect 15 0 10 0;
#X connect 16 0 15 1;
#X restore 1083 236 pd nudge-attenuators;
#X obj 656 208 r \$0-adsr-ttroggle-1-s;
#X obj 656 288 s \$0-adsr-ttroggle-1-s;
#X obj 798 208 r \$0-adsr-ttroggle-2-s;
#X obj 798 288 s \$0-adsr-ttroggle-2-r;
#X obj 939 208 r \$0-adsr-ttroggle-3-s;
#X obj 939 288 s \$0-adsr-ttroggle-3-r;
#X obj 1083 208 r \$0-adsr-ttroggle-4-s;
#X obj 1083 288 s \$0-adsr-ttroggle-4-r;
#X obj 642 484 cnv 15 580 250 empty empty Radiobuttons 20 20 0 20 -203904
-33289 0;
#N canvas 3 56 484 497 nudge-attenuators 0;
#X obj 124 234 random;
#X obj 232 335 f;
#X obj 232 368 +;
#X obj 257 166 random 2;
#X obj 124 275 t f f;
#X obj 124 351 t b f;
#X obj 124 297 *;
#X obj 257 188 sel 0 1;
#X msg 257 280 -1;
#X msg 335 280 1;
#X obj 124 149 t b b b;
#X obj 124 71 r NUDGE!;
#X obj 157 193 r NUDGE-RANGE;
#X obj 247 308 inlet;
#X obj 232 397 outlet;
#X obj 124 93 spigot;
#X obj 201 76 r attenuators2-s;
#X connect 0 0 4 0;
#X connect 1 0 2 0;
#X connect 2 0 14 0;
#X connect 3 0 7 0;
#X connect 4 0 6 0;
#X connect 5 0 2 0;
#X connect 5 1 2 1;
#X connect 6 0 5 0;
#X connect 7 0 8 0;
#X connect 7 1 9 0;
#X connect 8 0 6 1;
#X connect 9 0 6 1;
#X connect 10 0 0 0;
#X connect 10 1 1 0;
#X connect 10 2 3 0;
#X connect 11 0 15 0;
#X connect 12 0 0 1;
#X connect 13 0 1 1;
#X connect 15 0 10 0;
#X connect 16 0 15 1;
#X restore 660 571 pd nudge-attenuators;
#X obj 660 593 clip 0.1 10;
#N canvas 3 56 484 497 nudge-attenuators 0;
#X obj 124 234 random;
#X obj 232 335 f;
#X obj 232 368 +;
#X obj 257 166 random 2;
#X obj 124 275 t f f;
#X obj 124 351 t b f;
#X obj 124 297 *;
#X obj 257 188 sel 0 1;
#X msg 257 280 -1;
#X msg 335 280 1;
#X obj 124 149 t b b b;
#X obj 124 71 r NUDGE!;
#X obj 157 193 r NUDGE-RANGE;
#X obj 247 308 inlet;
#X obj 232 397 outlet;
#X obj 124 93 spigot;
#X obj 201 76 r attenuators2-s;
#X connect 0 0 4 0;
#X connect 1 0 2 0;
#X connect 2 0 14 0;
#X connect 3 0 7 0;
#X connect 4 0 6 0;
#X connect 5 0 2 0;
#X connect 5 1 2 1;
#X connect 6 0 5 0;
#X connect 7 0 8 0;
#X connect 7 1 9 0;
#X connect 8 0 6 1;
#X connect 9 0 6 1;
#X connect 10 0 0 0;
#X connect 10 1 1 0;
#X connect 10 2 3 0;
#X connect 11 0 15 0;
#X connect 12 0 0 1;
#X connect 13 0 1 1;
#X connect 15 0 10 0;
#X connect 16 0 15 1;
#X restore 802 571 pd nudge-attenuators;
#X obj 802 593 clip 0.1 10;
#X obj 660 543 r \$0-adsr-atoggle-s;
#X obj 660 623 s \$0-adsr-atoggle-r;
#X obj 802 543 r \$0-adsr-btoggle-s;
#X obj 802 623 s \$0-adsr-btoggle-r;
#X obj 656 122 clip 0 127;
#X obj 800 122 clip 0 127;
#X obj 936 122 clip 0 127;
#X obj 1080 122 clip 0 127;
#X obj 656 258 clip 0 127;
#X obj 798 258 clip 0 127;
#X obj 939 258 clip 0 127;
#X obj 1083 258 clip 0 127;
#X obj 655 383 clip 0 127;
#X obj 798 384 clip 0 127;
#X obj 935 384 clip 0 127;
#X obj 1078 385 clip 0 127;
#X text 718 662 Different clip?;
#X connect 1 0 3 0;
#X connect 2 0 1 0;
#X connect 3 0 4 0;
#X connect 5 0 6 0;
#X connect 6 0 8 0;
#X connect 7 0 5 0;
#X connect 9 0 10 0;
#X connect 10 0 14 0;
#X connect 11 0 12 0;
#X connect 12 0 16 0;
#X connect 13 0 9 0;
#X connect 15 0 11 0;
#X connect 17 0 18 0;
#X connect 18 0 20 0;
#X connect 19 0 17 0;
#X connect 21 0 22 0;
#X connect 22 0 24 0;
#X connect 23 0 21 0;
#X connect 25 0 26 0;
#X connect 26 0 30 0;
#X connect 27 0 28 0;
#X connect 28 0 32 0;
#X connect 29 0 25 0;
#X connect 31 0 27 0;
#X connect 33 0 34 0;
#X connect 34 0 42 0;
#X connect 35 0 36 0;
#X connect 36 0 44 0;
#X connect 37 0 38 0;
#X connect 38 0 46 0;
#X connect 39 0 40 0;
#X connect 40 0 48 0;
#X connect 41 0 33 0;
#X connect 43 0 35 0;
#X connect 45 0 37 0;
#X connect 47 0 39 0;
#X connect 49 0 50 0;
#X connect 50 0 58 0;
#X connect 51 0 52 0;
#X connect 52 0 60 0;
#X connect 53 0 54 0;
#X connect 54 0 62 0;
#X connect 55 0 56 0;
#X connect 56 0 64 0;
#X connect 57 0 49 0;
#X connect 59 0 51 0;
#X connect 61 0 53 0;
#X connect 63 0 55 0;
#X connect 65 0 77 0;
#X connect 66 0 78 0;
#X connect 67 0 79 0;
#X connect 68 0 80 0;
#X connect 69 0 65 0;
#X connect 71 0 66 0;
#X connect 73 0 67 0;
#X connect 75 0 68 0;
#X connect 77 0 70 0;
#X connect 78 0 72 0;
#X connect 79 0 74 0;
#X connect 80 0 76 0;
#X connect 82 0 135 0;
#X connect 83 0 136 0;
#X connect 84 0 137 0;
#X connect 85 0 138 0;
#X connect 86 0 82 0;
#X connect 88 0 83 0;
#X connect 90 0 84 0;
#X connect 92 0 85 0;
#X connect 94 0 127 0;
#X connect 95 0 128 0;
#X connect 96 0 129 0;
#X connect 97 0 130 0;
#X connect 98 0 94 0;
#X connect 100 0 95 0;
#X connect 102 0 96 0;
#X connect 104 0 97 0;
#X connect 106 0 131 0;
#X connect 107 0 132 0;
#X connect 108 0 133 0;
#X connect 109 0 134 0;
#X connect 110 0 106 0;
#X connect 112 0 107 0;
#X connect 114 0 108 0;
#X connect 116 0 109 0;
#X connect 119 0 120 0;
#X connect 120 0 124 0;
#X connect 121 0 122 0;
#X connect 122 0 126 0;
#X connect 123 0 119 0;
#X connect 125 0 121 0;
#X connect 127 0 99 0;
#X connect 128 0 101 0;
#X connect 129 0 103 0;
#X connect 130 0 105 0;
#X connect 131 0 111 0;
#X connect 132 0 113 0;
#X connect 133 0 115 0;
#X connect 134 0 117 0;
#X connect 135 0 87 0;
#X connect 136 0 89 0;
#X connect 137 0 91 0;
#X connect 138 0 93 0;
#X restore 98 528 pd parameter-nudging-system;
#N canvas 0 56 1366 679 external-messages 0;
#X floatatom 185 535 5 0 0 0 - - -;
#X obj 185 327 spigot;
#X obj 224 278 tgl 15 0 empty empty empty 17 7 0 10 -262144 -1 -1 0
1;
#X obj 267 238 ==;
#X obj 282 214 f \$1;
#X obj 282 190 loadbang;
#X msg 185 202 \$1 \$2;
#X msg 185 156 symbol \$1;
#X obj 185 180 pack s f;
#X obj 185 514 f;
#X obj 185 458 t b f;
#X obj 185 485 spigot;
#X obj 185 62 unpack s f f;
#X symbolatom 185 94 10 0 0 0 - - -;
#X obj 224 298 t f f;
#X obj 257 327 s \$0-msg-spigot;
#X obj 234 459 r \$0-msg-spigot;
#X floatatom 185 666 5 0 0 0 - - -;
#X obj 185 645 f;
#X obj 185 586 t b f;
#X obj 185 616 spigot;
#X obj 235 587 r \$0-msg-spigot;
#X obj 185 14 r quad-envelope-shaper;
#X obj 185 360 route ATTACK-1 ATTACK-2 ATTACK-3 ATTACK-4 HOLD-1 HOLD-2
HOLD-3 HOLD-4 RELEASE-1 RELEASE-2 RELEASE-3 RELEASE-4 TIME-1 TIME-2
TIME-3 TIME-4 HOLDTOG-1 HOLDTOG-2 HOLDTOG-3 HOLDTOG-4 TIMETOG-1 TIMETOG-2
TIMETOG-3 TIMETOG-4 TRIGTRACK-1 TRIGTRACK-2 TRIGTRACK-3 TRIGTRACK-4
OFFLVL-1 OFFLVL-2 OFFLVL-3 OFFLVL-4 EXT-A EXT-B, f 109;
#X obj 185 555 s \$0-adsr-attack-1-r;
#X obj 185 686 s \$0-adsr-attack-2-r;
#X floatatom 185 795 5 0 0 0 - - -;
#X obj 185 774 f;
#X obj 185 715 t b f;
#X obj 185 745 spigot;
#X obj 235 716 r \$0-msg-spigot;
#X obj 185 815 s \$0-adsr-attack-3-r;
#X floatatom 185 924 5 0 0 0 - - -;
#X obj 185 903 f;
#X obj 185 844 t b f;
#X obj 185 874 spigot;
#X obj 235 845 r \$0-msg-spigot;
#X obj 185 944 s \$0-adsr-attack-4-r;
#X floatatom 354 536 5 0 0 0 - - -;
#X obj 354 515 f;
#X obj 354 459 t b f;
#X obj 354 486 spigot;
#X obj 403 460 r \$0-msg-spigot;
#X floatatom 354 667 5 0 0 0 - - -;
#X obj 354 646 f;
#X obj 354 587 t b f;
#X obj 354 617 spigot;
#X obj 404 588 r \$0-msg-spigot;
#X floatatom 354 796 5 0 0 0 - - -;
#X obj 354 775 f;
#X obj 354 716 t b f;
#X obj 354 746 spigot;
#X obj 404 717 r \$0-msg-spigot;
#X floatatom 354 925 5 0 0 0 - - -;
#X obj 354 904 f;
#X obj 354 845 t b f;
#X obj 354 875 spigot;
#X obj 404 846 r \$0-msg-spigot;
#X obj 354 556 s \$0-adsr-hold-1-r;
#X obj 354 687 s \$0-adsr-hold-2-r;
#X obj 354 816 s \$0-adsr-hold-3-r;
#X obj 354 945 s \$0-adsr-hold-4-r;
#X floatatom 527 537 5 0 0 0 - - -;
#X obj 527 516 f;
#X obj 527 460 t b f;
#X obj 527 487 spigot;
#X obj 576 461 r \$0-msg-spigot;
#X floatatom 527 668 5 0 0 0 - - -;
#X obj 527 647 f;
#X obj 527 588 t b f;
#X obj 527 618 spigot;
#X obj 577 589 r \$0-msg-spigot;
#X floatatom 527 797 5 0 0 0 - - -;
#X obj 527 776 f;
#X obj 527 717 t b f;
#X obj 527 747 spigot;
#X obj 577 718 r \$0-msg-spigot;
#X floatatom 527 926 5 0 0 0 - - -;
#X obj 527 905 f;
#X obj 527 846 t b f;
#X obj 527 876 spigot;
#X obj 577 847 r \$0-msg-spigot;
#X obj 527 557 s \$0-adsr-release-1-r;
#X obj 527 688 s \$0-adsr-release-2-r;
#X obj 527 817 s \$0-adsr-release-3-r;
#X obj 527 946 s \$0-adsr-release-4-r;
#X floatatom 697 538 5 0 0 0 - - -;
#X obj 697 517 f;
#X obj 697 461 t b f;
#X obj 697 488 spigot;
#X obj 746 462 r \$0-msg-spigot;
#X floatatom 697 669 5 0 0 0 - - -;
#X obj 697 648 f;
#X obj 697 589 t b f;
#X obj 697 619 spigot;
#X obj 747 590 r \$0-msg-spigot;
#X floatatom 697 798 5 0 0 0 - - -;
#X obj 697 777 f;
#X obj 697 718 t b f;
#X obj 697 748 spigot;
#X obj 747 719 r \$0-msg-spigot;
#X floatatom 697 927 5 0 0 0 - - -;
#X obj 697 906 f;
#X obj 697 847 t b f;
#X obj 697 877 spigot;
#X obj 747 848 r \$0-msg-spigot;
#X obj 697 558 s \$0-adsr-time-1-r;
#X obj 697 689 s \$0-adsr-time-2-r;
#X obj 697 818 s \$0-adsr-time-3-r;
#X obj 697 947 s \$0-adsr-time-4-r;
#X floatatom 872 539 5 0 0 0 - - -;
#X obj 872 518 f;
#X obj 872 462 t b f;
#X obj 872 489 spigot;
#X obj 921 463 r \$0-msg-spigot;
#X floatatom 872 670 5 0 0 0 - - -;
#X obj 872 649 f;
#X obj 872 590 t b f;
#X obj 872 620 spigot;
#X obj 922 591 r \$0-msg-spigot;
#X floatatom 872 799 5 0 0 0 - - -;
#X obj 872 778 f;
#X obj 872 719 t b f;
#X obj 872 749 spigot;
#X obj 922 720 r \$0-msg-spigot;
#X floatatom 872 928 5 0 0 0 - - -;
#X obj 872 907 f;
#X obj 872 848 t b f;
#X obj 872 878 spigot;
#X obj 922 849 r \$0-msg-spigot;
#X obj 872 559 s \$0-adsr-htoggle-1-r;
#X obj 872 690 s \$0-adsr-htoggle-2-r;
#X obj 872 819 s \$0-adsr-htoggle-3-r;
#X obj 872 948 s \$0-adsr-htoggle-4-r;
#X floatatom 1044 540 5 0 0 0 - - -;
#X obj 1044 519 f;
#X obj 1044 463 t b f;
#X obj 1044 490 spigot;
#X obj 1093 464 r \$0-msg-spigot;
#X floatatom 1044 671 5 0 0 0 - - -;
#X obj 1044 650 f;
#X obj 1044 591 t b f;
#X obj 1044 621 spigot;
#X obj 1094 592 r \$0-msg-spigot;
#X floatatom 1044 800 5 0 0 0 - - -;
#X obj 1044 779 f;
#X obj 1044 720 t b f;
#X obj 1044 750 spigot;
#X obj 1094 721 r \$0-msg-spigot;
#X floatatom 1044 929 5 0 0 0 - - -;
#X obj 1044 908 f;
#X obj 1044 849 t b f;
#X obj 1044 879 spigot;
#X obj 1094 850 r \$0-msg-spigot;
#X obj 1044 560 s \$0-adsr-ttoggle-1-r;
#X obj 1044 691 s \$0-adsr-ttoggle-2-r;
#X obj 1044 820 s \$0-adsr-ttoggle-3-r;
#X obj 1044 949 s \$0-adsr-ttoggle-4-r;
#X floatatom 1205 541 5 0 0 0 - - -;
#X obj 1205 520 f;
#X obj 1205 464 t b f;
#X obj 1205 491 spigot;
#X obj 1254 465 r \$0-msg-spigot;
#X floatatom 1205 672 5 0 0 0 - - -;
#X obj 1205 651 f;
#X obj 1205 592 t b f;
#X obj 1205 622 spigot;
#X obj 1255 593 r \$0-msg-spigot;
#X floatatom 1205 801 5 0 0 0 - - -;
#X obj 1205 780 f;
#X obj 1205 721 t b f;
#X obj 1205 751 spigot;
#X obj 1255 722 r \$0-msg-spigot;
#X floatatom 1205 930 5 0 0 0 - - -;
#X obj 1205 909 f;
#X obj 1205 850 t b f;
#X obj 1205 880 spigot;
#X obj 1255 851 r \$0-msg-spigot;
#X obj 1205 561 s \$0-adsr-ttroggle-1-r;
#X obj 1205 692 s \$0-adsr-ttroggle-2-r;
#X obj 1205 821 s \$0-adsr-ttroggle-3-r;
#X obj 1205 950 s \$0-adsr-ttroggle-4-r;
#X floatatom 1368 542 5 0 0 0 - - -;
#X obj 1368 521 f;
#X obj 1368 465 t b f;
#X obj 1368 492 spigot;
#X obj 1417 466 r \$0-msg-spigot;
#X floatatom 1368 673 5 0 0 0 - - -;
#X obj 1368 652 f;
#X obj 1368 593 t b f;
#X obj 1368 623 spigot;
#X obj 1418 594 r \$0-msg-spigot;
#X floatatom 1368 802 5 0 0 0 - - -;
#X obj 1368 781 f;
#X obj 1368 722 t b f;
#X obj 1368 752 spigot;
#X obj 1418 723 r \$0-msg-spigot;
#X floatatom 1368 931 5 0 0 0 - - -;
#X obj 1368 910 f;
#X obj 1368 851 t b f;
#X obj 1368 881 spigot;
#X obj 1418 852 r \$0-msg-spigot;
#X obj 1368 562 s \$0-adsr-level-1-r;
#X obj 1368 693 s \$0-adsr-level-2-r;
#X obj 1368 822 s \$0-adsr-level-3-r;
#X obj 1368 951 s \$0-adsr-level-4-r;
#X floatatom 1023 239 5 0 0 0 - - -;
#X obj 1023 218 f;
#X obj 1023 162 t b f;
#X obj 1023 189 spigot;
#X obj 1072 163 r \$0-msg-spigot;
#X floatatom 1023 370 5 0 0 0 - - -;
#X obj 1023 349 f;
#X obj 1023 290 t b f;
#X obj 1023 320 spigot;
#X obj 1073 291 r \$0-msg-spigot;
#X obj 1023 259 s \$0-adsr-atoggle-r;
#X obj 1023 390 s \$0-adsr-btoggle-r;
#X connect 0 0 24 0;
#X connect 1 0 23 0;
#X connect 2 0 14 0;
#X connect 3 0 2 0;
#X connect 4 0 3 1;
#X connect 5 0 4 0;
#X connect 6 0 1 0;
#X connect 7 0 8 0;
#X connect 8 0 6 0;
#X connect 9 0 0 0;
#X connect 10 0 11 0;
#X connect 10 1 9 1;
#X connect 11 0 9 0;
#X connect 12 0 13 0;
#X connect 12 1 8 1;
#X connect 12 2 3 0;
#X connect 13 0 7 0;
#X connect 14 0 1 1;
#X connect 14 1 15 0;
#X connect 16 0 11 1;
#X connect 17 0 25 0;
#X connect 18 0 17 0;
#X connect 19 0 20 0;
#X connect 19 1 18 1;
#X connect 20 0 18 0;
#X connect 21 0 20 1;
#X connect 22 0 12 0;
#X connect 23 0 10 0;
#X connect 23 1 19 0;
#X connect 23 2 28 0;
#X connect 23 3 34 0;
#X connect 23 4 40 0;
#X connect 23 5 45 0;
#X connect 23 6 50 0;
#X connect 23 7 55 0;
#X connect 23 8 64 0;
#X connect 23 9 69 0;
#X connect 23 10 74 0;
#X connect 23 11 79 0;
#X connect 23 12 88 0;
#X connect 23 13 93 0;
#X connect 23 14 98 0;
#X connect 23 15 103 0;
#X connect 23 16 112 0;
#X connect 23 17 117 0;
#X connect 23 18 122 0;
#X connect 23 19 127 0;
#X connect 23 20 136 0;
#X connect 23 21 141 0;
#X connect 23 22 146 0;
#X connect 23 23 151 0;
#X connect 23 24 160 0;
#X connect 23 25 165 0;
#X connect 23 26 170 0;
#X connect 23 27 175 0;
#X connect 23 28 184 0;
#X connect 23 29 189 0;
#X connect 23 30 194 0;
#X connect 23 31 199 0;
#X connect 23 32 208 0;
#X connect 23 33 213 0;
#X connect 26 0 31 0;
#X connect 27 0 26 0;
#X connect 28 0 29 0;
#X connect 28 1 27 1;
#X connect 29 0 27 0;
#X connect 30 0 29 1;
#X connect 32 0 37 0;
#X connect 33 0 32 0;
#X connect 34 0 35 0;
#X connect 34 1 33 1;
#X connect 35 0 33 0;
#X connect 36 0 35 1;
#X connect 38 0 58 0;
#X connect 39 0 38 0;
#X connect 40 0 41 0;
#X connect 40 1 39 1;
#X connect 41 0 39 0;
#X connect 42 0 41 1;
#X connect 43 0 59 0;
#X connect 44 0 43 0;
#X connect 45 0 46 0;
#X connect 45 1 44 1;
#X connect 46 0 44 0;
#X connect 47 0 46 1;
#X connect 48 0 60 0;
#X connect 49 0 48 0;
#X connect 50 0 51 0;
#X connect 50 1 49 1;
#X connect 51 0 49 0;
#X connect 52 0 51 1;
#X connect 53 0 61 0;
#X connect 54 0 53 0;
#X connect 55 0 56 0;
#X connect 55 1 54 1;
#X connect 56 0 54 0;
#X connect 57 0 56 1;
#X connect 62 0 82 0;
#X connect 63 0 62 0;
#X connect 64 0 65 0;
#X connect 64 1 63 1;
#X connect 65 0 63 0;
#X connect 66 0 65 1;
#X connect 67 0 83 0;
#X connect 68 0 67 0;
#X connect 69 0 70 0;
#X connect 69 1 68 1;
#X connect 70 0 68 0;
#X connect 71 0 70 1;
#X connect 72 0 84 0;
#X connect 73 0 72 0;
#X connect 74 0 75 0;
#X connect 74 1 73 1;
#X connect 75 0 73 0;
#X connect 76 0 75 1;
#X connect 77 0 85 0;
#X connect 78 0 77 0;
#X connect 79 0 80 0;
#X connect 79 1 78 1;
#X connect 80 0 78 0;
#X connect 81 0 80 1;
#X connect 86 0 106 0;
#X connect 87 0 86 0;
#X connect 88 0 89 0;
#X connect 88 1 87 1;
#X connect 89 0 87 0;
#X connect 90 0 89 1;
#X connect 91 0 107 0;
#X connect 92 0 91 0;
#X connect 93 0 94 0;
#X connect 93 1 92 1;
#X connect 94 0 92 0;
#X connect 95 0 94 1;
#X connect 96 0 108 0;
#X connect 97 0 96 0;
#X connect 98 0 99 0;
#X connect 98 1 97 1;
#X connect 99 0 97 0;
#X connect 100 0 99 1;
#X connect 101 0 109 0;
#X connect 102 0 101 0;
#X connect 103 0 104 0;
#X connect 103 1 102 1;
#X connect 104 0 102 0;
#X connect 105 0 104 1;
#X connect 110 0 130 0;
#X connect 111 0 110 0;
#X connect 112 0 113 0;
#X connect 112 1 111 1;
#X connect 113 0 111 0;
#X connect 114 0 113 1;
#X connect 115 0 131 0;
#X connect 116 0 115 0;
#X connect 117 0 118 0;
#X connect 117 1 116 1;
#X connect 118 0 116 0;
#X connect 119 0 118 1;
#X connect 120 0 132 0;
#X connect 121 0 120 0;
#X connect 122 0 123 0;
#X connect 122 1 121 1;
#X connect 123 0 121 0;
#X connect 124 0 123 1;
#X connect 125 0 133 0;
#X connect 126 0 125 0;
#X connect 127 0 128 0;
#X connect 127 1 126 1;
#X connect 128 0 126 0;
#X connect 129 0 128 1;
#X connect 134 0 154 0;
#X connect 135 0 134 0;
#X connect 136 0 137 0;
#X connect 136 1 135 1;
#X connect 137 0 135 0;
#X connect 138 0 137 1;
#X connect 139 0 155 0;
#X connect 140 0 139 0;
#X connect 141 0 142 0;
#X connect 141 1 140 1;
#X connect 142 0 140 0;
#X connect 143 0 142 1;
#X connect 144 0 156 0;
#X connect 145 0 144 0;
#X connect 146 0 147 0;
#X connect 146 1 145 1;
#X connect 147 0 145 0;
#X connect 148 0 147 1;
#X connect 149 0 157 0;
#X connect 150 0 149 0;
#X connect 151 0 152 0;
#X connect 151 1 150 1;
#X connect 152 0 150 0;
#X connect 153 0 152 1;
#X connect 158 0 178 0;
#X connect 159 0 158 0;
#X connect 160 0 161 0;
#X connect 160 1 159 1;
#X connect 161 0 159 0;
#X connect 162 0 161 1;
#X connect 163 0 179 0;
#X connect 164 0 163 0;
#X connect 165 0 166 0;
#X connect 165 1 164 1;
#X connect 166 0 164 0;
#X connect 167 0 166 1;
#X connect 168 0 180 0;
#X connect 169 0 168 0;
#X connect 170 0 171 0;
#X connect 170 1 169 1;
#X connect 171 0 169 0;
#X connect 172 0 171 1;
#X connect 173 0 181 0;
#X connect 174 0 173 0;
#X connect 175 0 176 0;
#X connect 175 1 174 1;
#X connect 176 0 174 0;
#X connect 177 0 176 1;
#X connect 182 0 202 0;
#X connect 183 0 182 0;
#X connect 184 0 185 0;
#X connect 184 1 183 1;
#X connect 185 0 183 0;
#X connect 186 0 185 1;
#X connect 187 0 203 0;
#X connect 188 0 187 0;
#X connect 189 0 190 0;
#X connect 189 1 188 1;
#X connect 190 0 188 0;
#X connect 191 0 190 1;
#X connect 192 0 204 0;
#X connect 193 0 192 0;
#X connect 194 0 195 0;
#X connect 194 1 193 1;
#X connect 195 0 193 0;
#X connect 196 0 195 1;
#X connect 197 0 205 0;
#X connect 198 0 197 0;
#X connect 199 0 200 0;
#X connect 199 1 198 1;
#X connect 200 0 198 0;
#X connect 201 0 200 1;
#X connect 206 0 216 0;
#X connect 207 0 206 0;
#X connect 208 0 209 0;
#X connect 208 1 207 1;
#X connect 209 0 207 0;
#X connect 210 0 209 1;
#X connect 211 0 217 0;
#X connect 212 0 211 0;
#X connect 213 0 214 0;
#X connect 213 1 212 1;
#X connect 214 0 212 0;
#X connect 215 0 214 1;
#X restore 98 505 pd external-messages;
#X connect 0 0 149 0;
#X connect 0 0 157 0;
#X connect 0 0 88 0;
#X connect 0 0 173 0;
#X connect 1 0 0 1;
#X connect 2 0 149 0;
#X connect 2 0 157 0;
#X connect 2 0 88 0;
#X connect 2 0 173 0;
#X connect 3 0 5 1;
#X connect 4 0 6 1;
#X connect 5 0 150 0;
#X connect 5 0 158 0;
#X connect 5 0 92 0;
#X connect 5 0 177 0;
#X connect 6 0 150 0;
#X connect 6 0 158 0;
#X connect 6 0 92 0;
#X connect 6 0 177 0;
#X connect 7 0 11 1;
#X connect 8 0 12 1;
#X connect 9 0 13 1;
#X connect 10 0 14 1;
#X connect 11 0 152 0;
#X connect 11 0 160 0;
#X connect 11 0 96 0;
#X connect 11 0 181 0;
#X connect 12 0 152 0;
#X connect 12 0 160 0;
#X connect 12 0 96 0;
#X connect 12 0 181 0;
#X connect 13 0 151 0;
#X connect 13 0 159 0;
#X connect 13 0 100 0;
#X connect 13 0 185 0;
#X connect 14 0 151 0;
#X connect 14 0 159 0;
#X connect 14 0 100 0;
#X connect 14 0 185 0;
#X connect 15 0 1 0;
#X connect 15 0 61 0;
#X connect 16 0 3 0;
#X connect 16 0 4 0;
#X connect 17 0 7 0;
#X connect 17 0 8 0;
#X connect 18 0 9 0;
#X connect 18 0 10 0;
#X connect 47 0 0 0;
#X connect 48 0 5 0;
#X connect 49 0 11 0;
#X connect 55 0 13 0;
#X connect 59 0 2 0;
#X connect 59 0 12 0;
#X connect 59 0 137 0;
#X connect 60 0 6 0;
#X connect 60 0 14 0;
#X connect 60 0 141 0;
#X connect 61 0 2 1;
#X connect 88 0 175 0;
#X connect 89 0 91 0;
#X connect 90 0 88 1;
#X connect 91 0 90 0;
#X connect 92 0 179 0;
#X connect 93 0 95 0;
#X connect 94 0 92 1;
#X connect 95 0 94 0;
#X connect 96 0 183 0;
#X connect 97 0 99 0;
#X connect 98 0 96 1;
#X connect 99 0 98 0;
#X connect 100 0 187 0;
#X connect 101 0 103 0;
#X connect 102 0 100 1;
#X connect 103 0 102 0;
#X connect 105 0 149 1;
#X connect 106 0 150 1;
#X connect 107 0 152 1;
#X connect 108 0 151 1;
#X connect 112 0 89 0;
#X connect 113 0 93 0;
#X connect 114 0 97 0;
#X connect 115 0 101 0;
#X connect 135 0 45 0;
#X connect 135 0 122 0;
#X connect 136 0 135 1;
#X connect 137 0 45 0;
#X connect 137 0 122 0;
#X connect 138 0 137 1;
#X connect 139 0 122 0;
#X connect 139 0 46 0;
#X connect 140 0 139 1;
#X connect 141 0 46 0;
#X connect 141 0 122 0;
#X connect 142 0 141 1;
#X connect 143 0 136 0;
#X connect 143 0 138 0;
#X connect 144 0 140 0;
#X connect 144 0 142 0;
#X connect 145 0 149 2;
#X connect 146 0 150 2;
#X connect 147 0 152 2;
#X connect 148 0 151 2;
#X connect 149 0 165 0;
#X connect 149 1 168 0;
#X connect 150 0 165 0;
#X connect 150 1 168 0;
#X connect 151 0 165 0;
#X connect 151 1 168 0;
#X connect 152 0 165 0;
#X connect 152 1 168 0;
#X connect 153 0 157 2;
#X connect 154 0 158 2;
#X connect 155 0 160 2;
#X connect 156 0 159 2;
#X connect 157 0 135 0;
#X connect 157 1 139 0;
#X connect 158 0 135 0;
#X connect 158 1 139 0;
#X connect 159 0 135 0;
#X connect 159 1 139 0;
#X connect 160 0 135 0;
#X connect 160 1 139 0;
#X connect 161 0 157 1;
#X connect 162 0 158 1;
#X connect 163 0 160 1;
#X connect 164 0 159 1;
#X connect 165 0 123 0;
#X connect 166 0 165 1;
#X connect 167 0 166 0;
#X connect 168 0 124 0;
#X connect 169 0 168 1;
#X connect 170 0 169 0;
#X connect 173 0 198 0;
#X connect 174 0 173 1;
#X connect 175 0 198 0;
#X connect 176 0 175 1;
#X connect 177 0 193 0;
#X connect 178 0 177 1;
#X connect 179 0 193 0;
#X connect 180 0 179 1;
#X connect 181 0 195 0;
#X connect 182 0 181 1;
#X connect 183 0 195 0;
#X connect 184 0 183 1;
#X connect 185 0 204 0;
#X connect 186 0 185 1;
#X connect 187 0 204 0;
#X connect 188 0 187 1;
#X connect 189 0 174 0;
#X connect 189 0 176 0;
#X connect 190 0 178 0;
#X connect 190 0 180 0;
#X connect 191 0 182 0;
#X connect 191 0 184 0;
#X connect 192 0 186 0;
#X connect 192 0 188 0;
#X connect 193 0 56 0;
#X connect 193 1 57 0;
#X connect 194 0 193 1;
#X connect 195 0 58 0;
#X connect 195 1 205 0;
#X connect 196 0 195 1;
#X connect 197 0 204 1;
#X connect 198 0 56 0;
#X connect 198 1 57 0;
#X connect 199 0 198 1;
#X connect 200 0 199 0;
#X connect 201 0 194 0;
#X connect 202 0 196 0;
#X connect 203 0 197 0;
#X connect 204 0 58 0;
#X connect 204 1 205 0;
#X connect 207 0 209 0;
#X connect 209 0 210 0;
#X connect 210 0 208 0;
#X coords 0 -1 1 1 430 320 2 100 100;
