#N canvas 0 25 1410 728 10;
#X declare -lib moonlib;
#X obj 816 171 *~;
#N canvas 612 128 450 300 rs0 0;
#X obj 153 83 inlet;
#X obj 151 110 == 0;
#X obj 150 137 tgl 15 0 empty empty empty 17 7 0 10 -262144 -1 -1 0
1;
#X obj 149 184 line~;
#X msg 148 160 \$1 100;
#X obj 147 215 outlet~;
#X connect 0 0 1 0;
#X connect 1 0 2 0;
#X connect 2 0 4 0;
#X connect 3 0 5 0;
#X connect 4 0 3 0;
#X restore 831 144 pd rs0;
#X obj 863 171 *~;
#N canvas 612 128 450 300 rs0 0;
#X obj 153 83 inlet;
#X obj 151 110 == 0;
#X obj 150 137 tgl 15 0 empty empty empty 17 7 0 10 -262144 -1 -1 0
1;
#X obj 149 184 line~;
#X msg 148 160 \$1 100;
#X obj 147 215 outlet~;
#X connect 0 0 1 0;
#X connect 1 0 2 0;
#X connect 2 0 4 0;
#X connect 3 0 5 0;
#X connect 4 0 3 0;
#X restore 1014 141 pd rs0;
#N canvas 612 128 450 300 rs1 0;
#X obj 153 83 inlet;
#X obj 150 137 tgl 15 0 empty empty empty 17 7 0 10 -262144 -1 -1 0
1;
#X obj 149 184 line~;
#X msg 148 160 \$1 100;
#X obj 147 215 outlet~;
#X obj 151 110 == 1;
#X connect 0 0 5 0;
#X connect 1 0 3 0;
#X connect 2 0 4 0;
#X connect 3 0 2 0;
#X connect 5 0 1 0;
#X restore 1056 141 pd rs1;
#X obj 999 170 *~;
#X obj 1041 170 *~;
#N canvas 612 128 450 300 rs0 0;
#X obj 153 83 inlet;
#X obj 151 110 == 0;
#X obj 150 137 tgl 15 0 empty empty empty 17 7 0 10 -262144 -1 -1 0
1;
#X obj 149 184 line~;
#X msg 148 160 \$1 100;
#X obj 147 215 outlet~;
#X connect 0 0 1 0;
#X connect 1 0 2 0;
#X connect 2 0 4 0;
#X connect 3 0 5 0;
#X connect 4 0 3 0;
#X restore 1198 139 pd rs0;
#N canvas 612 128 450 300 rs1 0;
#X obj 153 83 inlet;
#X obj 150 137 tgl 15 0 empty empty empty 17 7 0 10 -262144 -1 -1 0
1;
#X obj 149 184 line~;
#X msg 148 160 \$1 100;
#X obj 147 215 outlet~;
#X obj 151 110 == 1;
#X connect 0 0 5 0;
#X connect 1 0 3 0;
#X connect 2 0 4 0;
#X connect 3 0 2 0;
#X connect 5 0 1 0;
#X restore 1243 138 pd rs1;
#N canvas 612 128 450 300 rs0 0;
#X obj 153 83 inlet;
#X obj 151 110 == 0;
#X obj 150 137 tgl 15 0 empty empty empty 17 7 0 10 -262144 -1 -1 0
1;
#X obj 149 184 line~;
#X msg 148 160 \$1 100;
#X obj 147 215 outlet~;
#X connect 0 0 1 0;
#X connect 1 0 2 0;
#X connect 2 0 4 0;
#X connect 3 0 5 0;
#X connect 4 0 3 0;
#X restore 1375 139 pd rs0;
#N canvas 612 128 450 300 rs1 0;
#X obj 153 83 inlet;
#X obj 150 137 tgl 15 0 empty empty empty 17 7 0 10 -262144 -1 -1 0
1;
#X obj 149 184 line~;
#X msg 148 160 \$1 100;
#X obj 147 215 outlet~;
#X obj 151 110 == 1;
#X connect 0 0 5 0;
#X connect 1 0 3 0;
#X connect 2 0 4 0;
#X connect 3 0 2 0;
#X connect 5 0 1 0;
#X restore 1417 139 pd rs1;
#X obj 1183 168 *~;
#X obj 1228 168 *~;
#X obj 1360 167 *~;
#X obj 1402 167 *~;
#X obj 831 113 r \$0-switch1-s;
#X obj 1014 113 r \$0-switch2-s;
#X obj 1211 108 r \$0-switch3-s;
#X obj 1376 108 r \$0-switch4-s;
#X obj 101 103 cnv 15 428 314 empty empty Universal-Mixer_3205 20 35
0 14 -233017 -66577 0;
#X text 113 189 -- -- 0, f 9;
#X text 111 214 -- -- -10;
#X text 112 262 -- -- -30;
#X text 112 291 -- -- -40;
#X text 112 313 -- -- ∞, f 9;
#X text 111 238 -- -- -20;
#X obj 122 196 vsl 15 127 0 127 0 0 \$0-channel1-fader-s \$0-channel1-fader-r
empty 0 -9 0 10 -262144 -1 -1 0 1;
#X text 301 189 -- -- 0, f 9;
#X text 301 213 -- -- -10;
#X text 302 261 -- -- -30;
#X text 302 290 -- -- -40;
#X text 302 312 -- -- ∞, f 9;
#X text 301 237 -- -- -20;
#X obj 177 344 moonlib/mknob 20 90 0 127 0 0 \$0-channel1-pan12-s \$0-channel1-pan12-r
1<-->2 -5 26 0 8 -1 -262144 -1 0 1;
#X obj 178 173 hradio 12 1 0 2 \$0-switch1-s \$0-switch1-r 1_A 0 -8
0 10 -262144 -1 -1 0;
#X obj 274 173 hradio 12 1 0 2 \$0-switch2-s \$0-switch2-r 2_B 0 -8
0 10 -262144 -1 -1 0;
#X obj 364 173 hradio 12 1 0 2 \$0-switch3-s \$0-switch3-r 3_A 0 -8
0 10 -262144 -1 -1 2;
#X obj 459 172 hradio 12 1 0 2 \$0-switch4-s \$0-switch4-s 4_B 0 -8
0 10 -262144 -1 -1 2;
#X obj 195 330 cnv 15 1 1 empty empty CH2 20 12 0 14 -233017 -66577
0;
#X obj 288 330 cnv 15 1 1 empty empty CH3 20 12 0 14 -233017 -66577
0;
#X obj 381 331 cnv 15 1 1 empty empty CH4 20 12 0 14 -233017 -66577
0;
#X obj 311 195 vsl 15 128 0 127 0 0 \$0-channel3-fader-s \$0-channel3-fader-r
empty 0 -9 0 10 -262144 -1 -1 0 1;
#X text 112 399 A;
#X text 116 104 A;
#X text 190 103 B;
#X obj 607 654 outlet~ A;
#X obj 937 655 outlet~ B;
#X obj 1057 41 inlet~ Ch1;
#X obj 1143 41 inlet~ Ch2;
#X obj 1221 41 inlet~ Ch3;
#X text 261 104 Ch1;
#X text 347 104 Ch2;
#X text 424 103 Ch3;
#X text 495 103 Ch4;
#X obj 99 331 cnv 15 1 1 empty empty CH1 20 12 0 14 -233017 -66577
0;
#X obj 1300 41 inlet~ Ch4;
#X obj 1142 654 outlet~ Ch1;
#X obj 1262 655 outlet~ Ch2;
#X obj 1384 655 outlet~ Ch3;
#X obj 1507 655 outlet~ Ch4;
#X obj 905 42 inlet~ A;
#X obj 981 42 inlet~ B;
#N canvas 612 128 450 300 rs1 0;
#X obj 153 83 inlet;
#X obj 150 137 tgl 15 0 empty empty empty 17 7 0 10 -262144 -1 -1 0
1;
#X obj 149 184 line~;
#X msg 148 160 \$1 100;
#X obj 147 215 outlet~;
#X obj 151 110 == 1;
#X connect 0 0 5 0;
#X connect 1 0 3 0;
#X connect 2 0 4 0;
#X connect 3 0 2 0;
#X connect 5 0 1 0;
#X restore 878 144 pd rs1;
#X text 208 189 -- -- 0, f 9;
#X text 206 214 -- -- -10;
#X text 207 262 -- -- -30;
#X text 207 291 -- -- -40;
#X text 207 313 -- -- ∞, f 9;
#X text 206 238 -- -- -20;
#X obj 219 195 vsl 15 128 0 127 0 0 \$0-channel2-fader-s \$0-channel2-fader-r
empty 0 -9 0 10 -262144 -1 -1 0 1;
#X text 398 190 -- -- 0, f 9;
#X text 396 215 -- -- -10;
#X text 397 264 -- -- -30;
#X text 397 292 -- -- -40;
#X text 397 314 -- -- ∞, f 9;
#X text 396 239 -- -- -20;
#X obj 407 196 vsl 15 128 0 127 0 0 \$0-channel4-fader-s \$0-channel4-fader-r
empty 0 -9 0 10 -262144 -1 -1 0 1;
#X obj 100 445 declare -lib moonlib;
#X obj 178 199 moonlib/mknob 20 90 0 127 0 0 \$0-channel1-panAB-s \$0-channel1-panAB-r
A<-->B -2 26 0 8 -1 -262144 -1 0 1;
#X obj 179 288 vradio 15 1 0 3 \$0-switch-preoffpost1-s \$0-switch-preoffpost1-r
PRE-OFF-POST -8 -8 0 6 -262144 -1 -1 0;
#X obj 272 197 moonlib/mknob 20 90 0 127 0 0 \$0-channel2-panAB-s \$0-channel2-panAB-r
A<-->B -2 26 0 8 -1 -262144 -1 0 1;
#X obj 367 196 moonlib/mknob 20 90 0 127 0 0 \$0-channel3-panAB-s \$0-channel3-panAB-r
A<-->B -2 26 0 8 -1 -262144 -1 0 1;
#X obj 461 195 moonlib/mknob 20 90 0 127 0 0 \$0-channel4-panAB-s \$0-channel4-panAB-r
A<-->B -2 26 0 8 -1 -262144 -1 0 1;
#X obj 271 288 vradio 15 1 0 3 \$0-switch-preoffpost2-s \$0-switch-preoffpost2-r
PRE-OFF-POST -8 -8 0 6 -262144 -1 -1 0;
#X obj 366 287 vradio 15 1 0 3 \$0-switch-preoffpost3-s \$0-switch-preoffpost3-r
PRE-OFF-POST -8 -8 0 6 -262144 -1 -1 0;
#X obj 461 288 vradio 15 1 0 3 \$0-switch-preoffpost4-s \$0-switch-preoffpost4-r
PRE-OFF-POST -8 -8 0 6 -262144 -1 -1 0;
#X obj 270 344 moonlib/mknob 20 90 0 127 0 0 \$0-channel2-pan12-s \$0-channel2-pan12-r
1<-->2 -5 26 0 8 -1 -262144 -1 0 1;
#X obj 364 345 moonlib/mknob 20 90 0 127 0 0 \$0-channel3-pan34-s \$0-channel3-pan34-r
3<-->4 -5 26 0 8 -1 -262144 -1 0 1;
#X obj 460 344 moonlib/mknob 20 90 0 127 0 0 \$0-channel4-pan-s \$0-channel4-pan-r
3<-->4 -5 26 0 8 -1 -262144 -1 0 1;
#X obj 1196 398 *~;
#X obj 1211 338 / 127;
#X obj 1211 376 line~;
#X obj 1211 357 pack 0 50;
#X obj 1338 394 *~;
#X obj 1353 334 / 127;
#X obj 1353 372 line~;
#X obj 1353 353 pack 0 50;
#X obj 1476 395 *~;
#X obj 1491 335 / 127;
#X obj 1491 373 line~;
#X obj 1491 354 pack 0 50;
#X obj 1612 400 *~;
#X obj 1627 340 / 127;
#X obj 1627 378 line~;
#X obj 1627 359 pack 0 50;
#X obj 178 242 moonlib/mknob 20 90 0 127 0 0 \$0-channel1-echo-s \$0-channel1-echo-r
E 23 -2 0 8 -1 -262144 -1 0 1;
#X obj 623 274 r \$0-channel1-echo-s;
#X obj 776 275 r \$0-channel2-echo-s;
#X obj 917 275 r \$0-channel3-echo-s;
#X obj 1064 273 r \$0-channel4-echo-s;
#X obj 271 242 moonlib/mknob 20 90 0 127 0 0 \$0-channel2-echo-s \$0-channel2-echo-r
E 23 -2 0 8 -1 -262144 -1 0 1;
#X obj 367 242 moonlib/mknob 20 90 0 127 0 0 \$0-channel3-echo-s \$0-channel3-echo-r
E 23 -2 0 8 -1 -262144 -1 0 1;
#X obj 460 243 moonlib/mknob 20 90 0 127 0 0 \$0-channel4-echo-s \$0-channel4-echo-r
E 23 -2 0 8 -1 -262144 -1 0 1;
#X obj 1211 316 r \$0-channel1-fader-s;
#X obj 1353 316 r \$0-channel2-fader-s;
#X obj 1491 315 r \$0-channel3-fader-s;
#X obj 1626 315 r \$0-channel4-fader-s;
#X obj 505 168 vradio 15 1 0 2 \$0-switchA-s \$0-switchA-r XEA_OFF
-10 -8 0 8 -262144 -1 -1 0;
#X obj 505 314 vradio 15 1 0 2 \$0-switchB-s \$0-switchB-s XEB_OFF
-10 -8 0 8 -262144 -1 -1 0;
#X text 352 399 Ch1;
#X text 404 399 Ch2;
#X text 456 399 Ch3;
#X text 503 399 Ch4;
#X obj 806 654 outlet~ A/B;
#X obj 678 655 outlet~ XEA;
#X obj 1002 655 outlet~ XEB;
#X text 200 192 X;
#X text 294 193 X;
#X text 390 192 X;
#X text 483 190 X;
#X text 379 333 Y;
#X text 288 333 Y;
#X text 197 332 Y;
#X text 479 334 Y;
#X text 148 399 XEA;
#X text 197 399 A/B;
#X obj 609 585 *~;
#N canvas 612 128 450 300 rs0 0;
#X obj 153 83 inlet;
#X obj 151 110 == 0;
#X obj 150 137 tgl 15 0 empty empty empty 17 7 0 10 -262144 -1 -1 0
1;
#X obj 149 184 line~;
#X msg 148 160 \$1 100;
#X obj 147 215 outlet~;
#X connect 0 0 1 0;
#X connect 1 0 2 0;
#X connect 2 0 4 0;
#X connect 3 0 5 0;
#X connect 4 0 3 0;
#X restore 624 564 pd rs0;
#X obj 656 585 *~;
#N canvas 612 128 450 300 rs1 0;
#X obj 153 83 inlet;
#X obj 150 137 tgl 15 0 empty empty empty 17 7 0 10 -262144 -1 -1 0
1;
#X obj 149 184 line~;
#X msg 148 160 \$1 100;
#X obj 147 215 outlet~;
#X obj 151 110 == 1;
#X connect 0 0 5 0;
#X connect 1 0 3 0;
#X connect 2 0 4 0;
#X connect 3 0 2 0;
#X connect 5 0 1 0;
#X restore 671 564 pd rs1;
#X obj 879 589 *~;
#N canvas 612 128 450 300 rs0 0;
#X obj 153 83 inlet;
#X obj 151 110 == 0;
#X obj 150 137 tgl 15 0 empty empty empty 17 7 0 10 -262144 -1 -1 0
1;
#X obj 149 184 line~;
#X msg 148 160 \$1 100;
#X obj 147 215 outlet~;
#X connect 0 0 1 0;
#X connect 1 0 2 0;
#X connect 2 0 4 0;
#X connect 3 0 5 0;
#X connect 4 0 3 0;
#X restore 894 568 pd rs0;
#X obj 926 589 *~;
#N canvas 612 128 450 300 rs1 0;
#X obj 153 83 inlet;
#X obj 150 137 tgl 15 0 empty empty empty 17 7 0 10 -262144 -1 -1 0
1;
#X obj 149 184 line~;
#X msg 148 160 \$1 100;
#X obj 147 215 outlet~;
#X obj 151 110 == 1;
#X connect 0 0 5 0;
#X connect 1 0 3 0;
#X connect 2 0 4 0;
#X connect 3 0 2 0;
#X connect 5 0 1 0;
#X restore 941 568 pd rs1;
#X obj 624 541 r \$0-switchA-s;
#X obj 894 544 r \$0-switchB-s;
#X obj 636 293 r \$0-channel1-panAB-s;
#X obj 785 294 r \$0-channel2-panAB-s;
#X obj 930 293 r \$0-channel3-panAB-s;
#X obj 1076 291 r \$0-channel4-panAB-s;
#X obj 611 320 ../other_patches/volumeandpan~, f 7;
#X obj 758 320 ../other_patches/volumeandpan~, f 7;
#X obj 1048 322 ../other_patches/volumeandpan~, f 7;
#X obj 906 321 ../other_patches/volumeandpan~, f 7;
#X obj 608 416 r \$0-channel1-panAB-s;
#X obj 757 417 r \$0-channel2-panAB-s;
#X obj 902 416 r \$0-channel3-panAB-s;
#X obj 1048 414 r \$0-channel4-panAB-s;
#X obj 583 443 ../other_patches/volumeandpan~, f 7;
#X obj 730 443 ../other_patches/volumeandpan~, f 7;
#X obj 1020 445 ../other_patches/volumeandpan~, f 7;
#X obj 878 444 ../other_patches/volumeandpan~, f 7;
#X obj 595 397 r \$0-channel1-fader-s;
#X obj 743 398 r \$0-channel2-fader-s;
#X obj 890 398 r \$0-channel3-fader-s;
#X obj 1037 396 r \$0-channel4-fader-s;
#X obj 727 586 *~;
#N canvas 612 128 450 300 rs0 0;
#X obj 153 83 inlet;
#X obj 151 110 == 0;
#X obj 150 137 tgl 15 0 empty empty empty 17 7 0 10 -262144 -1 -1 0
1;
#X obj 149 184 line~;
#X msg 148 160 \$1 100;
#X obj 147 215 outlet~;
#X connect 0 0 1 0;
#X connect 1 0 2 0;
#X connect 2 0 4 0;
#X connect 3 0 5 0;
#X connect 4 0 3 0;
#X restore 742 565 pd rs0;
#X obj 742 542 r \$0-switchA-s;
#X obj 985 589 *~;
#N canvas 612 128 450 300 rs0 0;
#X obj 153 83 inlet;
#X obj 151 110 == 0;
#X obj 150 137 tgl 15 0 empty empty empty 17 7 0 10 -262144 -1 -1 0
1;
#X obj 149 184 line~;
#X msg 148 160 \$1 100;
#X obj 147 215 outlet~;
#X connect 0 0 1 0;
#X connect 1 0 2 0;
#X connect 2 0 4 0;
#X connect 3 0 5 0;
#X connect 4 0 3 0;
#X restore 1000 568 pd rs0;
#X obj 1000 544 r \$0-switchB-s;
#X text 254 399 B;
#X text 298 399 XEB;
#X obj 1125 495 *~;
#N canvas 612 128 450 300 rs0 0;
#X obj 153 83 inlet;
#X obj 151 110 == 0;
#X obj 150 137 tgl 15 0 empty empty empty 17 7 0 10 -262144 -1 -1 0
1;
#X obj 149 184 line~;
#X msg 148 160 \$1 100;
#X obj 147 215 outlet~;
#X connect 0 0 1 0;
#X connect 1 0 2 0;
#X connect 2 0 4 0;
#X connect 3 0 5 0;
#X connect 4 0 3 0;
#X restore 1140 472 pd rs0;
#X obj 1219 495 *~;
#N canvas 612 128 450 300 rs2 0;
#X obj 153 83 inlet;
#X obj 150 137 tgl 15 0 empty empty empty 17 7 0 10 -262144 -1 -1 0
1;
#X obj 149 184 line~;
#X msg 148 160 \$1 100;
#X obj 147 215 outlet~;
#X obj 151 110 == 2;
#X connect 0 0 5 0;
#X connect 1 0 3 0;
#X connect 2 0 4 0;
#X connect 3 0 2 0;
#X connect 5 0 1 0;
#X restore 1234 471 pd rs2;
#X obj 1294 493 *~;
#N canvas 612 128 450 300 rs0 0;
#X obj 153 83 inlet;
#X obj 151 110 == 0;
#X obj 150 137 tgl 15 0 empty empty empty 17 7 0 10 -262144 -1 -1 0
1;
#X obj 149 184 line~;
#X msg 148 160 \$1 100;
#X obj 147 215 outlet~;
#X connect 0 0 1 0;
#X connect 1 0 2 0;
#X connect 2 0 4 0;
#X connect 3 0 5 0;
#X connect 4 0 3 0;
#X restore 1309 473 pd rs0;
#X obj 1388 493 *~;
#N canvas 612 128 450 300 rs2 0;
#X obj 153 83 inlet;
#X obj 150 137 tgl 15 0 empty empty empty 17 7 0 10 -262144 -1 -1 0
1;
#X obj 149 184 line~;
#X msg 148 160 \$1 100;
#X obj 147 215 outlet~;
#X obj 151 110 == 2;
#X connect 0 0 5 0;
#X connect 1 0 3 0;
#X connect 2 0 4 0;
#X connect 3 0 2 0;
#X connect 5 0 1 0;
#X restore 1403 472 pd rs2;
#X obj 1459 492 *~;
#N canvas 612 128 450 300 rs0 0;
#X obj 153 83 inlet;
#X obj 151 110 == 0;
#X obj 150 137 tgl 15 0 empty empty empty 17 7 0 10 -262144 -1 -1 0
1;
#X obj 149 184 line~;
#X msg 148 160 \$1 100;
#X obj 147 215 outlet~;
#X connect 0 0 1 0;
#X connect 1 0 2 0;
#X connect 2 0 4 0;
#X connect 3 0 5 0;
#X connect 4 0 3 0;
#X restore 1474 472 pd rs0;
#X obj 1553 492 *~;
#N canvas 612 128 450 300 rs2 0;
#X obj 153 83 inlet;
#X obj 150 137 tgl 15 0 empty empty empty 17 7 0 10 -262144 -1 -1 0
1;
#X obj 149 184 line~;
#X msg 148 160 \$1 100;
#X obj 147 215 outlet~;
#X obj 151 110 == 2;
#X connect 0 0 5 0;
#X connect 1 0 3 0;
#X connect 2 0 4 0;
#X connect 3 0 2 0;
#X connect 5 0 1 0;
#X restore 1568 471 pd rs2;
#X obj 1623 492 *~;
#N canvas 612 128 450 300 rs0 0;
#X obj 153 83 inlet;
#X obj 151 110 == 0;
#X obj 150 137 tgl 15 0 empty empty empty 17 7 0 10 -262144 -1 -1 0
1;
#X obj 149 184 line~;
#X msg 148 160 \$1 100;
#X obj 147 215 outlet~;
#X connect 0 0 1 0;
#X connect 1 0 2 0;
#X connect 2 0 4 0;
#X connect 3 0 5 0;
#X connect 4 0 3 0;
#X restore 1638 472 pd rs0;
#X obj 1717 492 *~;
#N canvas 612 128 450 300 rs2 0;
#X obj 153 83 inlet;
#X obj 150 137 tgl 15 0 empty empty empty 17 7 0 10 -262144 -1 -1 0
1;
#X obj 149 184 line~;
#X msg 148 160 \$1 100;
#X obj 147 215 outlet~;
#X obj 151 110 == 2;
#X connect 0 0 5 0;
#X connect 1 0 3 0;
#X connect 2 0 4 0;
#X connect 3 0 2 0;
#X connect 5 0 1 0;
#X restore 1732 471 pd rs2;
#X obj 1140 443 r \$0-switch-preoffpost1-s;
#X obj 1309 444 r \$0-switch-preoffpost2-s;
#X obj 1474 443 r \$0-switch-preoffpost3-s;
#X obj 1638 443 r \$0-switch-preoffpost4-s;
#X obj 1298 567 ../other_patches/pan~, f 7;
#X obj 1313 546 / 127;
#X obj 1445 569 ../other_patches/pan~, f 7;
#X obj 1460 548 / 127;
#X obj 1593 572 ../other_patches/pan~, f 7;
#X obj 1608 551 / 127;
#X obj 1152 567 ../other_patches/pan~, f 7;
#X obj 1167 546 / 127;
#X obj 1167 524 r \$0-channel1-pan12-s;
#X obj 1313 525 r \$0-channel2-pan12-s;
#X obj 1460 526 r \$0-channel3-pan34-s;
#X obj 1608 527 r \$0-channel4-pan34-s;
#X connect 0 0 150 0;
#X connect 0 0 158 0;
#X connect 0 0 89 0;
#X connect 0 0 174 0;
#X connect 1 0 0 1;
#X connect 2 0 150 0;
#X connect 2 0 158 0;
#X connect 2 0 89 0;
#X connect 2 0 174 0;
#X connect 3 0 5 1;
#X connect 4 0 6 1;
#X connect 5 0 151 0;
#X connect 5 0 159 0;
#X connect 5 0 93 0;
#X connect 5 0 178 0;
#X connect 6 0 151 0;
#X connect 6 0 159 0;
#X connect 6 0 93 0;
#X connect 6 0 178 0;
#X connect 7 0 11 1;
#X connect 8 0 12 1;
#X connect 9 0 13 1;
#X connect 10 0 14 1;
#X connect 11 0 153 0;
#X connect 11 0 161 0;
#X connect 11 0 97 0;
#X connect 11 0 182 0;
#X connect 12 0 153 0;
#X connect 12 0 161 0;
#X connect 12 0 97 0;
#X connect 12 0 182 0;
#X connect 13 0 152 0;
#X connect 13 0 160 0;
#X connect 13 0 101 0;
#X connect 13 0 186 0;
#X connect 14 0 152 0;
#X connect 14 0 160 0;
#X connect 14 0 101 0;
#X connect 14 0 186 0;
#X connect 15 0 1 0;
#X connect 15 0 62 0;
#X connect 16 0 3 0;
#X connect 16 0 4 0;
#X connect 17 0 7 0;
#X connect 17 0 8 0;
#X connect 18 0 9 0;
#X connect 18 0 10 0;
#X connect 47 0 0 0;
#X connect 48 0 5 0;
#X connect 49 0 11 0;
#X connect 55 0 13 0;
#X connect 60 0 2 0;
#X connect 60 0 12 0;
#X connect 60 0 138 0;
#X connect 61 0 6 0;
#X connect 61 0 14 0;
#X connect 61 0 142 0;
#X connect 62 0 2 1;
#X connect 89 0 176 0;
#X connect 90 0 92 0;
#X connect 91 0 89 1;
#X connect 92 0 91 0;
#X connect 93 0 180 0;
#X connect 94 0 96 0;
#X connect 95 0 93 1;
#X connect 96 0 95 0;
#X connect 97 0 184 0;
#X connect 98 0 100 0;
#X connect 99 0 97 1;
#X connect 100 0 99 0;
#X connect 101 0 188 0;
#X connect 102 0 104 0;
#X connect 103 0 101 1;
#X connect 104 0 103 0;
#X connect 106 0 150 1;
#X connect 107 0 151 1;
#X connect 108 0 153 1;
#X connect 109 0 152 1;
#X connect 113 0 90 0;
#X connect 114 0 94 0;
#X connect 115 0 98 0;
#X connect 116 0 102 0;
#X connect 136 0 45 0;
#X connect 136 0 123 0;
#X connect 137 0 136 1;
#X connect 138 0 45 0;
#X connect 138 0 123 0;
#X connect 139 0 138 1;
#X connect 140 0 123 0;
#X connect 140 0 46 0;
#X connect 141 0 140 1;
#X connect 142 0 46 0;
#X connect 142 0 123 0;
#X connect 143 0 142 1;
#X connect 144 0 137 0;
#X connect 144 0 139 0;
#X connect 145 0 141 0;
#X connect 145 0 143 0;
#X connect 146 0 150 2;
#X connect 147 0 151 2;
#X connect 148 0 153 2;
#X connect 149 0 152 2;
#X connect 150 0 166 0;
#X connect 150 1 169 0;
#X connect 151 0 166 0;
#X connect 151 1 169 0;
#X connect 152 0 166 0;
#X connect 152 1 169 0;
#X connect 153 0 166 0;
#X connect 153 1 169 0;
#X connect 154 0 158 2;
#X connect 155 0 159 2;
#X connect 156 0 161 2;
#X connect 157 0 160 2;
#X connect 158 0 136 0;
#X connect 158 1 140 0;
#X connect 159 0 136 0;
#X connect 159 1 140 0;
#X connect 160 0 136 0;
#X connect 160 1 140 0;
#X connect 161 0 136 0;
#X connect 161 1 140 0;
#X connect 162 0 158 1;
#X connect 163 0 159 1;
#X connect 164 0 161 1;
#X connect 165 0 160 1;
#X connect 166 0 124 0;
#X connect 167 0 166 1;
#X connect 168 0 167 0;
#X connect 169 0 125 0;
#X connect 170 0 169 1;
#X connect 171 0 170 0;
#X connect 174 0 200 0;
#X connect 175 0 174 1;
#X connect 176 0 200 0;
#X connect 177 0 176 1;
#X connect 178 0 194 0;
#X connect 179 0 178 1;
#X connect 180 0 194 0;
#X connect 181 0 180 1;
#X connect 182 0 196 0;
#X connect 183 0 182 1;
#X connect 184 0 196 0;
#X connect 185 0 184 1;
#X connect 186 0 198 0;
#X connect 187 0 186 1;
#X connect 188 0 198 0;
#X connect 189 0 188 1;
#X connect 190 0 175 0;
#X connect 190 0 177 0;
#X connect 191 0 179 0;
#X connect 191 0 181 0;
#X connect 192 0 183 0;
#X connect 192 0 185 0;
#X connect 193 0 187 0;
#X connect 193 0 189 0;
#X connect 194 0 56 0;
#X connect 194 1 57 0;
#X connect 195 0 194 1;
#X connect 196 0 58 0;
#X connect 196 1 59 0;
#X connect 197 0 196 1;
#X connect 198 0 58 0;
#X connect 198 1 59 0;
#X connect 199 0 198 1;
#X connect 200 0 56 0;
#X connect 200 1 57 0;
#X connect 201 0 200 1;
#X connect 202 0 201 0;
#X connect 203 0 195 0;
#X connect 204 0 197 0;
#X connect 205 0 199 0;
#X coords 0 -1 1 1 430 320 2 100 100;
