#N canvas 323 140 732 559 12;
#X obj 176 325 dbtorms~;
#X obj 311 367 *~;
#X obj 177 301 +~ 100;
#X obj 177 207 line~;
#X obj 177 181 pack 0 50;
#X obj 177 254 *~ 36;
#X obj 177 230 /~ 127;
#X obj 177 275 -~ 18;
#X obj 311 335 bp~, f 7;
#X obj 79 82 inlet~;
#X obj 175 125 inlet;
#X obj 355 197 inlet;
#X obj 311 402 outlet~;
#X obj 334 158 inlet;
#X connect 0 0 1 1;
#X connect 1 0 12 0;
#X connect 2 0 0 0;
#X connect 3 0 6 0;
#X connect 4 0 3 0;
#X connect 5 0 7 0;
#X connect 6 0 5 0;
#X connect 7 0 2 0;
#X connect 8 0 1 0;
#X connect 9 0 8 0;
#X connect 10 0 4 0;
#X connect 11 0 8 2;
#X connect 13 0 8 1;
