#N canvas 429 132 201 290 12;
#X obj 36 167 cos~;
#X obj 113 167 cos~;
#X obj 22 216 *~;
#X obj 99 217 *~;
#X obj 112 49 / 4;
#X obj 112 99 line~;
#X obj 112 75 pack 0 50;
#X obj 112 141 +~ 0.75;
#X obj 112 22 inlet;
#X obj 24 20 inlet~;
#X obj 22 249 outlet~;
#X obj 100 250 outlet~;
#X connect 0 0 2 1;
#X connect 1 0 3 1;
#X connect 2 0 10 0;
#X connect 3 0 11 0;
#X connect 4 0 6 0;
#X connect 5 0 7 0;
#X connect 5 0 0 0;
#X connect 6 0 5 0;
#X connect 7 0 1 0;
#X connect 8 0 4 0;
#X connect 9 0 2 0;
#X connect 9 0 3 0;
