#N canvas 230 23 1633 994 12;
#N canvas 77 48 1639 893 sound_gen 1;
#X obj 175 62 inlet~;
#X obj 227 350 outlet~;
#X obj 283 62 inlet;
#X obj 372 129 inlet;
#X obj 175 112 mtof~;
#X obj 227 197 osc~;
#X obj 226 113 mtof~;
#X obj 227 262 *~;
#X text 442 150 Divide by 127 as the slider is from 1-128;
#X text 441 166 and gain is 0-1;
#X obj 371 182 pack 0 50;
#X obj 371 211 line;
#X obj 372 154 / 127;
#X obj 175 87 *~ 127;
#X text 20 16 Left inlet (frequency) modulating signal. Amplitude of
signal determines modulation index (depth of modulation);
#X text 328 60 Frequency value of the knob or fader;
#X text 369 108 VOLUME / modulation index for the next signal genrator
;
#X connect 2 0 6 0;
#X connect 3 0 12 0;
#X connect 4 0 5 0;
#X connect 5 0 7 0;
#X connect 6 0 5 0;
#X connect 7 0 1 0;
#X connect 10 0 11 0;
#X connect 11 0 7 1;
#X connect 12 0 10 0;
#X connect 13 0 4 0;
#X restore 92 236 pd sound_gen;
#X obj 46 200 hsl 128 15 0 127 0 0 empty empty freq -2 -8 0 10 -262144
-1 -1 2100 1;
#X obj 185 200 hsl 128 15 0 127 0 0 empty empty gain -2 -8 0 10 -262144
-1 -1 23800 1;
#N canvas 650 416 800 560 sound_gen 0;
#X obj 226 49 inlet~;
#X obj 227 350 outlet~;
#X obj 292 49 inlet;
#X obj 372 129 inlet;
#X obj 226 99 mtof~;
#X obj 227 197 osc~;
#X obj 292 74 mtof~;
#X obj 372 154 /~ 127;
#X obj 227 262 *~;
#X obj 226 74 *~ 127;
#X connect 0 0 9 0;
#X connect 2 0 6 0;
#X connect 3 0 7 0;
#X connect 4 0 5 0;
#X connect 5 0 8 0;
#X connect 6 0 5 0;
#X connect 7 0 8 1;
#X connect 8 0 1 0;
#X connect 9 0 4 0;
#X restore 737 229 pd sound_gen;
#X obj 692 198 hsl 128 15 0 127 0 0 empty empty freq -2 -8 0 10 -262144
-1 -1 1400 1;
#X obj 834 198 hsl 128 15 0 127 0 0 empty empty gain -2 -8 0 10 -262144
-1 -1 23600 1;
#N canvas 784 299 800 560 sound_gen 0;
#X obj 226 49 inlet~;
#X obj 227 350 outlet~;
#X obj 292 49 inlet;
#X obj 372 129 inlet;
#X obj 226 99 mtof~;
#X obj 227 197 osc~;
#X obj 292 74 mtof~;
#X obj 372 154 /~ 127;
#X obj 227 262 *~;
#X obj 226 74 *~ 127;
#X connect 0 0 9 0;
#X connect 2 0 6 0;
#X connect 3 0 7 0;
#X connect 4 0 5 0;
#X connect 5 0 8 0;
#X connect 6 0 5 0;
#X connect 7 0 8 1;
#X connect 8 0 1 0;
#X connect 9 0 4 0;
#X restore 408 232 pd sound_gen;
#X obj 365 199 hsl 128 15 0 127 0 0 empty empty freq -2 -8 0 10 -262144
-1 -1 800 1;
#X obj 506 199 hsl 128 15 0 127 0 0 empty empty gain -2 -8 0 10 -262144
-1 -1 25300 1;
#N canvas 574 410 800 560 sound_gen 0;
#X obj 226 49 inlet~;
#X obj 227 350 outlet~;
#X obj 292 49 inlet;
#X obj 372 129 inlet;
#X obj 226 99 mtof~;
#X obj 227 197 osc~;
#X obj 292 74 mtof~;
#X obj 372 154 /~ 127;
#X obj 227 262 *~;
#X obj 226 74 *~ 127;
#X connect 0 0 9 0;
#X connect 2 0 6 0;
#X connect 3 0 7 0;
#X connect 4 0 5 0;
#X connect 5 0 8 0;
#X connect 6 0 5 0;
#X connect 7 0 8 1;
#X connect 8 0 1 0;
#X connect 9 0 4 0;
#X restore 1081 229 pd sound_gen;
#X obj 1033 197 hsl 128 15 0 127 0 0 empty empty freq -2 -8 0 10 -262144
-1 -1 300 1;
#X obj 1176 197 hsl 128 15 0 127 0 0 empty empty gain -2 -8 0 10 -262144
-1 -1 23900 1;
#X obj 575 497 dac~;
#X obj 1076 341 send~ feedback;
#X obj 30 334 r~ feedback;
#X obj 766 643 delwrite~ feedback2 500;
#X obj 766 585 delread~ feedback2 500;
#X obj 766 614 *~;
#N canvas 66 23 1485 929 waves 1;
#X obj 176 149 osc~;
#X obj 338 107 phasor~;
#X obj 341 138 expr~ $v1 > 0.5;
#N canvas 0 50 450 250 (subpatch) 0;
#X array array1 100 float 3;
#A 0 -0.48564 -0.476713 -0.46774 -0.458719 -0.449653 -0.440531 -0.431366
-0.422157 -0.412907 -0.403615 -0.394282 -0.384901 -0.375482 -0.366026
-0.356534 -0.347005 -0.33744 -0.327835 -0.318198 -0.308529 -0.29883
-0.289101 -0.27934 -0.269547 -0.259727 -0.249882 -0.240012 -0.230117
-0.220197 -0.210252 -0.200287 -0.190302 -0.180298 -0.170275 -0.160233
-0.150174 -0.1401 -0.130012 -0.119911 -0.109798 -0.0996717 -0.0895352
-0.07939 -0.0692369 -0.0590768 -0.0489106 -0.0387385 -0.0285625 -0.0183839
-0.00820345 0.00197793 0.0121593 0.0223392 0.0325166 0.0426907 0.0528606
0.0630254 0.0731838 0.0833333 0.0934744 0.103606 0.113728 0.123838
0.133935 0.144016 0.154083 0.164135 0.17417 0.184189 0.194186 0.204162
0.214118 0.224052 0.233963 0.243852 0.253713 0.263546 0.273353 0.283132
0.292884 0.302606 0.312293 0.321947 0.331568 0.341157 0.350711 0.360231
0.369708 0.379146 0.388547 0.397909 0.407231 0.416513 0.425744 0.434931
0.444076 0.453176 0.462231 0.47124 0.480191;
#X coords 0 2 100 -2 200 140 1 0 0;
#X restore 395 310 graph;
#X obj 54 423 tabwrite~ array1;
#X obj 54 395 metro 500;
#X obj 54 374 tgl 15 0 empty empty empty 17 7 0 10 -262144 -1 -1 1
1;
#X obj 342 168 *~ 2;
#X obj 342 193 -~ 1;
#X obj 261 29 hsl 128 15 0 127 0 0 empty empty frequency -2 -8 0 10
-262144 -1 -1 12700 1;
#X obj 258 49 mtof;
#X obj 499 152 hsl 128 15 0 127 0 0 empty empty cross-fader -2 -8 0
10 -262144 -1 -1 0 1;
#X obj 496 177 / 127;
#X obj 161 287 *~;
#X obj 322 293 *~;
#X floatatom 589 208 5 0 0 0 - - -;
#X floatatom 564 290 5 0 0 0 - - -;
#X obj 230 416 dac~;
#X obj 231 381 *~ 0.1;
#X text 598 321 we cross-fade between the two waves by increasing amplitude
in one oscillator and simultaneosuly decreasing it in the other in
proportion;
#X text 400 110 creating square wave;
#X text 374 372 0;
#X text 360 335 + 1;
#X text 358 407 - 1;
#X obj 496 209 * -1;
#X obj 496 234 + 1;
#X obj 182 263 line~;
#X obj 182 239 pack 0 50;
#X obj 353 263 line~;
#X obj 353 239 pack 0 50;
#X connect 0 0 13 0;
#X connect 1 0 2 0;
#X connect 2 0 7 0;
#X connect 5 0 4 0;
#X connect 6 0 5 0;
#X connect 7 0 8 0;
#X connect 8 0 14 0;
#X connect 9 0 10 0;
#X connect 10 0 1 0;
#X connect 10 0 0 0;
#X connect 11 0 12 0;
#X connect 12 0 15 0;
#X connect 12 0 24 0;
#X connect 12 0 29 0;
#X connect 13 0 4 0;
#X connect 14 0 4 0;
#X connect 18 0 17 0;
#X connect 18 0 17 1;
#X connect 24 0 25 0;
#X connect 25 0 16 0;
#X connect 25 0 27 0;
#X connect 26 0 13 1;
#X connect 27 0 26 0;
#X connect 28 0 14 1;
#X connect 29 0 28 0;
#X restore 119 601 pd waves;
#X text 80 59 Each sound_gen subpatch is a channel;
#X text 79 97 1 modulating frequency;
#X text 79 114 2 carrier frequency;
#X text 79 130 3 gain of signal;
#X text 80 77 Each sound_gen has three inlets:;
#X text 934 370 To avoid DSP loops \, we use send/recieve between the
first and last sound_gen;
#X text 43 14 This is an example of how we can achieve the 'chaotic
system' shown in the Tutorial;
#X text 41 564 This subpatch is an example of how we can achieve switching
between sine- and square wave;
#X text 763 559 This will be handy for the reverb module;
#X text 944 599 I don't remember why we multiply but I think it has
something to do with wanting the reverbed sound to 'ring out'?;
#X text 121 166 CHANNEL 1;
#X text 458 158 CHANNEL 2;
#X text 783 156 CHANNEL 3;
#X text 1117 157 CHANNEL 4;
#X text 228 244 output modulates input;
#X obj 576 450 *~ 0;
#X connect 0 0 6 0;
#X connect 0 0 34 0;
#X connect 1 0 0 1;
#X connect 2 0 0 2;
#X connect 3 0 9 0;
#X connect 3 0 34 0;
#X connect 4 0 3 1;
#X connect 5 0 3 2;
#X connect 6 0 3 0;
#X connect 6 0 34 0;
#X connect 7 0 6 1;
#X connect 8 0 6 2;
#X connect 9 0 13 0;
#X connect 9 0 34 0;
#X connect 10 0 9 1;
#X connect 11 0 9 2;
#X connect 14 0 0 0;
#X connect 16 0 17 0;
#X connect 17 0 15 0;
#X connect 34 0 12 0;
#X connect 34 0 12 1;
