#N canvas 0 25 235 366 12;
#X obj 8 12 inlet~;
#X obj 8 201 *~, f 6;
#X obj 38 79 / 127;
#X obj 40 156 line~;
#X obj 40 132 pack 0 50;
#X obj 148 201 / 127;
#X obj 8 236 pan~;
#X obj 37 42 inlet;
#X obj 149 41 inlet;
#X obj 6 286 outlet~;
#X obj 31 320 outlet~;
#X connect 0 0 1 0;
#X connect 1 0 6 0;
#X connect 2 0 4 0;
#X connect 3 0 1 1;
#X connect 4 0 3 0;
#X connect 5 0 6 1;
#X connect 6 0 9 0;
#X connect 6 1 10 0;
#X connect 7 0 2 0;
#X connect 8 0 5 0;
